<?xml version='1.0' encoding='utf-8'?>
<mlt title="Anonymous Submission" version="0.9.0" root="/home/alex" LC_NUMERIC="en_GB.UTF-8">
 <profile width="1440" display_aspect_den="9" colorspace="709" frame_rate_den="1" description="HDV 1440x1080i 25 fps" height="1080" display_aspect_num="16" frame_rate_num="25" progressive="0" sample_aspect_num="4" sample_aspect_den="3"/>
 <producer in="0" out="500" id="black">
  <property name="mlt_type">producer</property>
  <property name="length">15000</property>
  <property name="eof">pause</property>
  <property name="resource">black</property>
  <property name="aspect_ratio">0</property>
  <property name="mlt_service">colour</property>
 </producer>
 <playlist id="black_track">
  <entry in="0" out="7872" producer="black"/>
 </playlist>
 <playlist id="playlist1"/>
 <producer in="0" out="8639" id="1_4">
  <property name="mlt_type">producer</property>
  <property name="length">8640</property>
  <property name="eof">pause</property>
  <property name="resource">Videos/EOTR 2015/08 - Burning.mp3</property>
  <property name="meta.media.nb_streams">2</property>
  <property name="meta.media.0.stream.type">audio</property>
  <property name="meta.media.0.codec.sample_fmt">s16p</property>
  <property name="meta.media.0.codec.sample_rate">44100</property>
  <property name="meta.media.0.codec.channels">2</property>
  <property name="meta.media.0.codec.name">mp3</property>
  <property name="meta.media.0.codec.long_name">MP3 (MPEG audio layer 3)</property>
  <property name="meta.media.0.codec.bit_rate">283759</property>
  <property name="meta.media.1.stream.type">video</property>
  <property name="meta.media.1.stream.frame_rate">-nan</property>
  <property name="meta.media.1.stream.sample_aspect_ratio">0</property>
  <property name="meta.media.1.codec.width">500</property>
  <property name="meta.media.1.codec.height">500</property>
  <property name="meta.media.1.codec.frame_rate">inf</property>
  <property name="meta.media.1.codec.pix_fmt">yuvj420p</property>
  <property name="meta.media.1.codec.sample_aspect_ratio">0</property>
  <property name="meta.media.1.codec.colorspace">601</property>
  <property name="meta.media.1.codec.name">mjpeg</property>
  <property name="meta.media.1.codec.long_name">MJPEG (Motion JPEG)</property>
  <property name="meta.media.1.codec.bit_rate">0</property>
  <property name="meta.attr.1.stream.comment.markup">Cover (front)</property>
  <property name="meta.attr.title.markup">Burning</property>
  <property name="meta.attr.album.markup">Lost In The Dream</property>
  <property name="meta.attr.publisher.markup">CAPAJEBO â„— 2014 Secretly Canadian</property>
  <property name="meta.attr.genre.markup">Indie</property>
  <property name="meta.attr.TOPE.markup">The War On Drugs</property>
  <property name="meta.attr.track.markup">8/10</property>
  <property name="meta.attr.disc.markup">1/1</property>
  <property name="meta.attr.artist.markup">The War On Drugs</property>
  <property name="meta.attr.album_artist.markup">The War On Drugs</property>
  <property name="meta.attr.composer.markup">Adam Granduciel</property>
  <property name="meta.attr.encoded_by.markup">db</property>
  <property name="meta.attr.date.markup">2014</property>
  <property name="seekable">1</property>
  <property name="meta.media.sample_aspect_num">1</property>
  <property name="meta.media.sample_aspect_den">1</property>
  <property name="aspect_ratio">1</property>
  <property name="audio_index">0</property>
  <property name="video_index">1</property>
  <property name="mlt_service">avformat</property>
  <property name="meta.media.frame_rate_num">25</property>
  <property name="meta.media.frame_rate_den">1</property>
  <property name="meta.media.colorspace">601</property>
  <property name="meta.media.width">500</property>
  <property name="meta.media.height">500</property>
 </producer>
 <playlist id="playlist2">
  <blank length="490"/>
  <entry in="1257" out="8639" producer="1_4">
   <filter in="1257" out="1557" id="fadein">
    <property name="track">0</property>
    <property name="window">75</property>
    <property name="max_gain">20dB</property>
    <property name="mlt_type">filter</property>
    <property name="mlt_service">volume</property>
    <property name="kdenlive_id">fadein</property>
    <property name="tag">volume</property>
    <property name="kdenlive_ix">1</property>
    <property name="gain">0</property>
    <property name="end">1</property>
    <property name="kdenlive_info"/>
   </filter>
  </entry>
 </playlist>
 <producer in="0" out="4881" id="96_3">
  <property name="mlt_type">producer</property>
  <property name="length">4882</property>
  <property name="eof">pause</property>
  <property name="resource">Videos/EOTR 2015/VID_20150903_154217.mp4</property>
  <property name="meta.media.nb_streams">2</property>
  <property name="meta.media.0.stream.type">video</property>
  <property name="meta.media.0.stream.frame_rate">30.0085</property>
  <property name="meta.media.0.stream.sample_aspect_ratio">1</property>
  <property name="meta.media.0.codec.width">1920</property>
  <property name="meta.media.0.codec.height">1080</property>
  <property name="meta.media.0.codec.frame_rate">inf</property>
  <property name="meta.media.0.codec.pix_fmt">yuv420p</property>
  <property name="meta.media.0.codec.sample_aspect_ratio">0</property>
  <property name="meta.media.0.codec.colorspace">709</property>
  <property name="meta.media.0.codec.name">h264</property>
  <property name="meta.media.0.codec.long_name">H.264 / AVC / MPEG-4 AVC / MPEG-4 part 10</property>
  <property name="meta.media.0.codec.bit_rate">19992220</property>
  <property name="meta.attr.0.stream.creation_time.markup">2015-09-03 14:45:33</property>
  <property name="meta.attr.0.stream.language.markup">eng</property>
  <property name="meta.media.1.stream.type">audio</property>
  <property name="meta.media.1.codec.sample_fmt">fltp</property>
  <property name="meta.media.1.codec.sample_rate">48000</property>
  <property name="meta.media.1.codec.channels">2</property>
  <property name="meta.media.1.codec.name">aac</property>
  <property name="meta.media.1.codec.long_name">AAC (Advanced Audio Coding)</property>
  <property name="meta.media.1.codec.bit_rate">255864</property>
  <property name="meta.attr.1.stream.creation_time.markup">2015-09-03 14:45:33</property>
  <property name="meta.attr.1.stream.language.markup">eng</property>
  <property name="meta.attr.major_brand.markup">mp42</property>
  <property name="meta.attr.minor_version.markup">0</property>
  <property name="meta.attr.compatible_brands.markup">isommp42</property>
  <property name="meta.attr.creation_time.markup">2015-09-03 14:45:33</property>
  <property name="seekable">1</property>
  <property name="meta.media.sample_aspect_num">65536</property>
  <property name="meta.media.sample_aspect_den">65536</property>
  <property name="aspect_ratio">1</property>
  <property name="audio_index">1</property>
  <property name="video_index">0</property>
  <property name="mlt_service">avformat</property>
  <property name="meta.media.frame_rate_num">2430000</property>
  <property name="meta.media.frame_rate_den">80977</property>
  <property name="meta.media.colorspace">709</property>
  <property name="meta.media.width">1920</property>
  <property name="meta.media.height">1080</property>
  <property name="meta.media.top_field_first">0</property>
  <property name="meta.media.progressive">1</property>
 </producer>
 <producer in="0" out="207" id="181_3">
  <property name="mlt_type">producer</property>
  <property name="length">208</property>
  <property name="eof">pause</property>
  <property name="resource">Videos/EOTR 2015/VID_20150906_145202.mp4</property>
  <property name="meta.media.nb_streams">2</property>
  <property name="meta.media.0.stream.type">video</property>
  <property name="meta.media.0.stream.frame_rate">30.0082</property>
  <property name="meta.media.0.stream.sample_aspect_ratio">1</property>
  <property name="meta.media.0.codec.width">1920</property>
  <property name="meta.media.0.codec.height">1080</property>
  <property name="meta.media.0.codec.frame_rate">inf</property>
  <property name="meta.media.0.codec.pix_fmt">yuv420p</property>
  <property name="meta.media.0.codec.sample_aspect_ratio">0</property>
  <property name="meta.media.0.codec.colorspace">709</property>
  <property name="meta.media.0.codec.name">h264</property>
  <property name="meta.media.0.codec.long_name">H.264 / AVC / MPEG-4 AVC / MPEG-4 part 10</property>
  <property name="meta.media.0.codec.bit_rate">19935892</property>
  <property name="meta.attr.0.stream.creation_time.markup">2015-09-06 13:52:11</property>
  <property name="meta.attr.0.stream.language.markup">eng</property>
  <property name="meta.media.1.stream.type">audio</property>
  <property name="meta.media.1.codec.sample_fmt">fltp</property>
  <property name="meta.media.1.codec.sample_rate">48000</property>
  <property name="meta.media.1.codec.channels">2</property>
  <property name="meta.media.1.codec.name">aac</property>
  <property name="meta.media.1.codec.long_name">AAC (Advanced Audio Coding)</property>
  <property name="meta.media.1.codec.bit_rate">252651</property>
  <property name="meta.attr.1.stream.creation_time.markup">2015-09-06 13:52:11</property>
  <property name="meta.attr.1.stream.language.markup">eng</property>
  <property name="meta.attr.major_brand.markup">mp42</property>
  <property name="meta.attr.minor_version.markup">0</property>
  <property name="meta.attr.compatible_brands.markup">isommp42</property>
  <property name="meta.attr.creation_time.markup">2015-09-06 13:52:11</property>
  <property name="seekable">1</property>
  <property name="meta.media.sample_aspect_num">65536</property>
  <property name="meta.media.sample_aspect_den">65536</property>
  <property name="aspect_ratio">1</property>
  <property name="audio_index">1</property>
  <property name="video_index">0</property>
  <property name="mlt_service">avformat</property>
  <property name="meta.media.frame_rate_num">4482000</property>
  <property name="meta.media.frame_rate_den">149359</property>
  <property name="meta.media.colorspace">709</property>
  <property name="meta.media.width">1920</property>
  <property name="meta.media.height">1080</property>
  <property name="meta.media.top_field_first">0</property>
  <property name="meta.media.progressive">1</property>
 </producer>
 <producer in="0" out="1950" id="7_3">
  <property name="mlt_type">producer</property>
  <property name="length">1951</property>
  <property name="eof">pause</property>
  <property name="resource">Videos/EOTR 2015/IMGA0126.MP4</property>
  <property name="meta.media.nb_streams">2</property>
  <property name="meta.media.0.stream.type">video</property>
  <property name="meta.media.0.stream.frame_rate">29.97</property>
  <property name="meta.media.0.stream.sample_aspect_ratio">0</property>
  <property name="meta.media.0.codec.width">1920</property>
  <property name="meta.media.0.codec.height">1080</property>
  <property name="meta.media.0.codec.frame_rate">29.97</property>
  <property name="meta.media.0.codec.pix_fmt">yuvj420p</property>
  <property name="meta.media.0.codec.sample_aspect_ratio">1</property>
  <property name="meta.media.0.codec.colorspace">709</property>
  <property name="meta.media.0.codec.name">h264</property>
  <property name="meta.media.0.codec.long_name">H.264 / AVC / MPEG-4 AVC / MPEG-4 part 10</property>
  <property name="meta.media.0.codec.bit_rate">15834629</property>
  <property name="meta.attr.0.stream.creation_time.markup">2015-09-03 16:25:07</property>
  <property name="meta.attr.0.stream.language.markup">eng</property>
  <property name="meta.media.1.stream.type">audio</property>
  <property name="meta.media.1.codec.sample_fmt">fltp</property>
  <property name="meta.media.1.codec.sample_rate">48000</property>
  <property name="meta.media.1.codec.channels">2</property>
  <property name="meta.media.1.codec.name">aac</property>
  <property name="meta.media.1.codec.long_name">AAC (Advanced Audio Coding)</property>
  <property name="meta.media.1.codec.bit_rate">255336</property>
  <property name="meta.attr.1.stream.creation_time.markup">2015-09-03 16:25:07</property>
  <property name="meta.attr.1.stream.language.markup">eng</property>
  <property name="meta.attr.major_brand.markup">mp42</property>
  <property name="meta.attr.minor_version.markup">1</property>
  <property name="meta.attr.compatible_brands.markup">mp42avc1</property>
  <property name="meta.attr.creation_time.markup">2015-09-03 16:25:07</property>
  <property name="seekable">1</property>
  <property name="meta.media.sample_aspect_num">1</property>
  <property name="meta.media.sample_aspect_den">1</property>
  <property name="aspect_ratio">1</property>
  <property name="audio_index">1</property>
  <property name="video_index">0</property>
  <property name="mlt_service">avformat</property>
  <property name="meta.media.frame_rate_num">30000</property>
  <property name="meta.media.frame_rate_den">1001</property>
  <property name="meta.media.colorspace">709</property>
  <property name="meta.media.width">1920</property>
  <property name="meta.media.height">1080</property>
  <property name="meta.media.top_field_first">0</property>
  <property name="meta.media.progressive">1</property>
 </producer>
 <producer in="0" out="574" id="12_3">
  <property name="mlt_type">producer</property>
  <property name="length">575</property>
  <property name="eof">pause</property>
  <property name="resource">Videos/EOTR 2015/IMGA0131.MP4</property>
  <property name="meta.media.nb_streams">2</property>
  <property name="meta.media.0.stream.type">video</property>
  <property name="meta.media.0.stream.frame_rate">29.97</property>
  <property name="meta.media.0.stream.sample_aspect_ratio">0</property>
  <property name="meta.media.0.codec.width">1920</property>
  <property name="meta.media.0.codec.height">1080</property>
  <property name="meta.media.0.codec.frame_rate">29.97</property>
  <property name="meta.media.0.codec.pix_fmt">yuvj420p</property>
  <property name="meta.media.0.codec.sample_aspect_ratio">1</property>
  <property name="meta.media.0.codec.colorspace">709</property>
  <property name="meta.media.0.codec.name">h264</property>
  <property name="meta.media.0.codec.long_name">H.264 / AVC / MPEG-4 AVC / MPEG-4 part 10</property>
  <property name="meta.media.0.codec.bit_rate">15424147</property>
  <property name="meta.attr.0.stream.creation_time.markup">2015-09-03 17:20:14</property>
  <property name="meta.attr.0.stream.language.markup">eng</property>
  <property name="meta.media.1.stream.type">audio</property>
  <property name="meta.media.1.codec.sample_fmt">fltp</property>
  <property name="meta.media.1.codec.sample_rate">48000</property>
  <property name="meta.media.1.codec.channels">2</property>
  <property name="meta.media.1.codec.name">aac</property>
  <property name="meta.media.1.codec.long_name">AAC (Advanced Audio Coding)</property>
  <property name="meta.media.1.codec.bit_rate">255203</property>
  <property name="meta.attr.1.stream.creation_time.markup">2015-09-03 17:20:14</property>
  <property name="meta.attr.1.stream.language.markup">eng</property>
  <property name="meta.attr.major_brand.markup">mp42</property>
  <property name="meta.attr.minor_version.markup">1</property>
  <property name="meta.attr.compatible_brands.markup">mp42avc1</property>
  <property name="meta.attr.creation_time.markup">2015-09-03 17:20:14</property>
  <property name="seekable">1</property>
  <property name="meta.media.sample_aspect_num">1</property>
  <property name="meta.media.sample_aspect_den">1</property>
  <property name="aspect_ratio">1</property>
  <property name="audio_index">1</property>
  <property name="video_index">0</property>
  <property name="mlt_service">avformat</property>
  <property name="meta.media.frame_rate_num">30000</property>
  <property name="meta.media.frame_rate_den">1001</property>
  <property name="meta.media.colorspace">709</property>
  <property name="meta.media.width">1920</property>
  <property name="meta.media.height">1080</property>
  <property name="meta.media.top_field_first">0</property>
  <property name="meta.media.progressive">1</property>
 </producer>
 <producer in="0" out="499" id="16_3">
  <property name="mlt_type">producer</property>
  <property name="length">500</property>
  <property name="eof">pause</property>
  <property name="resource">Videos/EOTR 2015/IMGA0135.MP4</property>
  <property name="meta.media.nb_streams">2</property>
  <property name="meta.media.0.stream.type">video</property>
  <property name="meta.media.0.stream.frame_rate">29.97</property>
  <property name="meta.media.0.stream.sample_aspect_ratio">0</property>
  <property name="meta.media.0.codec.width">1920</property>
  <property name="meta.media.0.codec.height">1080</property>
  <property name="meta.media.0.codec.frame_rate">29.97</property>
  <property name="meta.media.0.codec.pix_fmt">yuvj420p</property>
  <property name="meta.media.0.codec.sample_aspect_ratio">1</property>
  <property name="meta.media.0.codec.colorspace">709</property>
  <property name="meta.media.0.codec.name">h264</property>
  <property name="meta.media.0.codec.long_name">H.264 / AVC / MPEG-4 AVC / MPEG-4 part 10</property>
  <property name="meta.media.0.codec.bit_rate">15342638</property>
  <property name="meta.attr.0.stream.creation_time.markup">2015-09-03 18:06:10</property>
  <property name="meta.attr.0.stream.language.markup">eng</property>
  <property name="meta.media.1.stream.type">audio</property>
  <property name="meta.media.1.codec.sample_fmt">fltp</property>
  <property name="meta.media.1.codec.sample_rate">48000</property>
  <property name="meta.media.1.codec.channels">2</property>
  <property name="meta.media.1.codec.name">aac</property>
  <property name="meta.media.1.codec.long_name">AAC (Advanced Audio Coding)</property>
  <property name="meta.media.1.codec.bit_rate">255269</property>
  <property name="meta.attr.1.stream.creation_time.markup">2015-09-03 18:06:10</property>
  <property name="meta.attr.1.stream.language.markup">eng</property>
  <property name="meta.attr.major_brand.markup">mp42</property>
  <property name="meta.attr.minor_version.markup">1</property>
  <property name="meta.attr.compatible_brands.markup">mp42avc1</property>
  <property name="meta.attr.creation_time.markup">2015-09-03 18:06:10</property>
  <property name="seekable">1</property>
  <property name="meta.media.sample_aspect_num">1</property>
  <property name="meta.media.sample_aspect_den">1</property>
  <property name="aspect_ratio">1</property>
  <property name="audio_index">1</property>
  <property name="video_index">0</property>
  <property name="mlt_service">avformat</property>
  <property name="meta.media.frame_rate_num">30000</property>
  <property name="meta.media.frame_rate_den">1001</property>
  <property name="meta.media.colorspace">709</property>
  <property name="meta.media.width">1920</property>
  <property name="meta.media.height">1080</property>
 </producer>
 <producer in="0" out="547" id="101_3">
  <property name="mlt_type">producer</property>
  <property name="length">548</property>
  <property name="eof">pause</property>
  <property name="resource">Videos/EOTR 2015/VID_20150903_194620.mp4</property>
  <property name="meta.media.nb_streams">2</property>
  <property name="meta.media.0.stream.type">video</property>
  <property name="meta.media.0.stream.frame_rate">29.6882</property>
  <property name="meta.media.0.stream.sample_aspect_ratio">1</property>
  <property name="meta.media.0.codec.width">1920</property>
  <property name="meta.media.0.codec.height">1080</property>
  <property name="meta.media.0.codec.frame_rate">inf</property>
  <property name="meta.media.0.codec.pix_fmt">yuv420p</property>
  <property name="meta.media.0.codec.sample_aspect_ratio">0</property>
  <property name="meta.media.0.codec.colorspace">709</property>
  <property name="meta.media.0.codec.name">h264</property>
  <property name="meta.media.0.codec.long_name">H.264 / AVC / MPEG-4 AVC / MPEG-4 part 10</property>
  <property name="meta.media.0.codec.bit_rate">19860973</property>
  <property name="meta.attr.0.stream.creation_time.markup">2015-09-03 18:46:43</property>
  <property name="meta.attr.0.stream.language.markup">eng</property>
  <property name="meta.media.1.stream.type">audio</property>
  <property name="meta.media.1.codec.sample_fmt">fltp</property>
  <property name="meta.media.1.codec.sample_rate">48000</property>
  <property name="meta.media.1.codec.channels">2</property>
  <property name="meta.media.1.codec.name">aac</property>
  <property name="meta.media.1.codec.long_name">AAC (Advanced Audio Coding)</property>
  <property name="meta.media.1.codec.bit_rate">254899</property>
  <property name="meta.attr.1.stream.creation_time.markup">2015-09-03 18:46:43</property>
  <property name="meta.attr.1.stream.language.markup">eng</property>
  <property name="meta.attr.major_brand.markup">mp42</property>
  <property name="meta.attr.minor_version.markup">0</property>
  <property name="meta.attr.compatible_brands.markup">isommp42</property>
  <property name="meta.attr.creation_time.markup">2015-09-03 18:46:43</property>
  <property name="seekable">1</property>
  <property name="meta.media.sample_aspect_num">65536</property>
  <property name="meta.media.sample_aspect_den">65536</property>
  <property name="aspect_ratio">1</property>
  <property name="audio_index">1</property>
  <property name="video_index">0</property>
  <property name="mlt_service">avformat</property>
  <property name="meta.media.frame_rate_num">58500000</property>
  <property name="meta.media.frame_rate_den">1970479</property>
  <property name="meta.media.colorspace">709</property>
  <property name="meta.media.width">1920</property>
  <property name="meta.media.height">1080</property>
  <property name="meta.media.top_field_first">0</property>
  <property name="meta.media.progressive">1</property>
 </producer>
 <producer in="0" out="374" id="172_3">
  <property name="mlt_type">producer</property>
  <property name="length">375</property>
  <property name="eof">pause</property>
  <property name="resource">Videos/EOTR 2015/VID_20150906_124603.mp4</property>
  <property name="meta.media.nb_streams">2</property>
  <property name="meta.media.0.stream.type">video</property>
  <property name="meta.media.0.stream.frame_rate">30.008</property>
  <property name="meta.media.0.stream.sample_aspect_ratio">1</property>
  <property name="meta.media.0.codec.width">1920</property>
  <property name="meta.media.0.codec.height">1080</property>
  <property name="meta.media.0.codec.frame_rate">inf</property>
  <property name="meta.media.0.codec.pix_fmt">yuv420p</property>
  <property name="meta.media.0.codec.sample_aspect_ratio">0</property>
  <property name="meta.media.0.codec.colorspace">709</property>
  <property name="meta.media.0.codec.name">h264</property>
  <property name="meta.media.0.codec.long_name">H.264 / AVC / MPEG-4 AVC / MPEG-4 part 10</property>
  <property name="meta.media.0.codec.bit_rate">19785289</property>
  <property name="meta.attr.0.stream.creation_time.markup">2015-09-06 11:46:19</property>
  <property name="meta.attr.0.stream.language.markup">eng</property>
  <property name="meta.media.1.stream.type">audio</property>
  <property name="meta.media.1.codec.sample_fmt">fltp</property>
  <property name="meta.media.1.codec.sample_rate">48000</property>
  <property name="meta.media.1.codec.channels">2</property>
  <property name="meta.media.1.codec.name">aac</property>
  <property name="meta.media.1.codec.long_name">AAC (Advanced Audio Coding)</property>
  <property name="meta.media.1.codec.bit_rate">254078</property>
  <property name="meta.attr.1.stream.creation_time.markup">2015-09-06 11:46:19</property>
  <property name="meta.attr.1.stream.language.markup">eng</property>
  <property name="meta.attr.major_brand.markup">mp42</property>
  <property name="meta.attr.minor_version.markup">0</property>
  <property name="meta.attr.compatible_brands.markup">isommp42</property>
  <property name="meta.attr.creation_time.markup">2015-09-06 11:46:19</property>
  <property name="seekable">1</property>
  <property name="meta.media.sample_aspect_num">65536</property>
  <property name="meta.media.sample_aspect_den">65536</property>
  <property name="aspect_ratio">1</property>
  <property name="audio_index">1</property>
  <property name="video_index">0</property>
  <property name="mlt_service">avformat</property>
  <property name="meta.media.frame_rate_num">20250000</property>
  <property name="meta.media.frame_rate_den">674819</property>
  <property name="meta.media.colorspace">709</property>
  <property name="meta.media.width">1920</property>
  <property name="meta.media.height">1080</property>
  <property name="meta.media.top_field_first">0</property>
  <property name="meta.media.progressive">1</property>
 </producer>
 <producer in="0" out="1175" id="45_3">
  <property name="mlt_type">producer</property>
  <property name="length">1176</property>
  <property name="eof">pause</property>
  <property name="resource">Videos/EOTR 2015/IMGA0164.MP4</property>
  <property name="meta.media.nb_streams">2</property>
  <property name="meta.media.0.stream.type">video</property>
  <property name="meta.media.0.stream.frame_rate">29.97</property>
  <property name="meta.media.0.stream.sample_aspect_ratio">0</property>
  <property name="meta.media.0.codec.width">1280</property>
  <property name="meta.media.0.codec.height">720</property>
  <property name="meta.media.0.codec.frame_rate">29.97</property>
  <property name="meta.media.0.codec.pix_fmt">yuvj420p</property>
  <property name="meta.media.0.codec.sample_aspect_ratio">1</property>
  <property name="meta.media.0.codec.colorspace">709</property>
  <property name="meta.media.0.codec.name">h264</property>
  <property name="meta.media.0.codec.long_name">H.264 / AVC / MPEG-4 AVC / MPEG-4 part 10</property>
  <property name="meta.media.0.codec.bit_rate">9788220</property>
  <property name="meta.attr.0.stream.creation_time.markup">2015-09-04 10:16:09</property>
  <property name="meta.attr.0.stream.language.markup">eng</property>
  <property name="meta.media.1.stream.type">audio</property>
  <property name="meta.media.1.codec.sample_fmt">fltp</property>
  <property name="meta.media.1.codec.sample_rate">48000</property>
  <property name="meta.media.1.codec.channels">2</property>
  <property name="meta.media.1.codec.name">aac</property>
  <property name="meta.media.1.codec.long_name">AAC (Advanced Audio Coding)</property>
  <property name="meta.media.1.codec.bit_rate">255329</property>
  <property name="meta.attr.1.stream.creation_time.markup">2015-09-04 10:16:09</property>
  <property name="meta.attr.1.stream.language.markup">eng</property>
  <property name="meta.attr.major_brand.markup">mp42</property>
  <property name="meta.attr.minor_version.markup">1</property>
  <property name="meta.attr.compatible_brands.markup">mp42avc1</property>
  <property name="meta.attr.creation_time.markup">2015-09-04 10:16:09</property>
  <property name="seekable">1</property>
  <property name="meta.media.sample_aspect_num">1</property>
  <property name="meta.media.sample_aspect_den">1</property>
  <property name="aspect_ratio">1</property>
  <property name="audio_index">1</property>
  <property name="video_index">0</property>
  <property name="mlt_service">avformat</property>
  <property name="meta.media.frame_rate_num">30000</property>
  <property name="meta.media.frame_rate_den">1001</property>
  <property name="meta.media.colorspace">709</property>
  <property name="meta.media.width">1280</property>
  <property name="meta.media.height">720</property>
  <property name="meta.media.top_field_first">0</property>
  <property name="meta.media.progressive">1</property>
 </producer>
 <producer in="0" out="199" id="83_3">
  <property name="mlt_type">producer</property>
  <property name="length">200</property>
  <property name="eof">pause</property>
  <property name="resource">Videos/EOTR 2015/IMGA0202.MP4</property>
  <property name="meta.media.nb_streams">2</property>
  <property name="meta.media.0.stream.type">video</property>
  <property name="meta.media.0.stream.frame_rate">29.97</property>
  <property name="meta.media.0.stream.sample_aspect_ratio">0</property>
  <property name="meta.media.0.codec.width">1280</property>
  <property name="meta.media.0.codec.height">720</property>
  <property name="meta.media.0.codec.frame_rate">29.97</property>
  <property name="meta.media.0.codec.pix_fmt">yuvj420p</property>
  <property name="meta.media.0.codec.sample_aspect_ratio">1</property>
  <property name="meta.media.0.codec.colorspace">709</property>
  <property name="meta.media.0.codec.name">h264</property>
  <property name="meta.media.0.codec.long_name">H.264 / AVC / MPEG-4 AVC / MPEG-4 part 10</property>
  <property name="meta.media.0.codec.bit_rate">9818477</property>
  <property name="meta.attr.0.stream.creation_time.markup">2015-09-05 11:05:45</property>
  <property name="meta.attr.0.stream.language.markup">eng</property>
  <property name="meta.media.1.stream.type">audio</property>
  <property name="meta.media.1.codec.sample_fmt">fltp</property>
  <property name="meta.media.1.codec.sample_rate">48000</property>
  <property name="meta.media.1.codec.channels">2</property>
  <property name="meta.media.1.codec.name">aac</property>
  <property name="meta.media.1.codec.long_name">AAC (Advanced Audio Coding)</property>
  <property name="meta.media.1.codec.bit_rate">255223</property>
  <property name="meta.attr.1.stream.creation_time.markup">2015-09-05 11:05:45</property>
  <property name="meta.attr.1.stream.language.markup">eng</property>
  <property name="meta.attr.major_brand.markup">mp42</property>
  <property name="meta.attr.minor_version.markup">1</property>
  <property name="meta.attr.compatible_brands.markup">mp42avc1</property>
  <property name="meta.attr.creation_time.markup">2015-09-05 11:05:45</property>
  <property name="seekable">1</property>
  <property name="meta.media.sample_aspect_num">1</property>
  <property name="meta.media.sample_aspect_den">1</property>
  <property name="aspect_ratio">1</property>
  <property name="audio_index">1</property>
  <property name="video_index">0</property>
  <property name="mlt_service">avformat</property>
  <property name="meta.media.frame_rate_num">30000</property>
  <property name="meta.media.frame_rate_den">1001</property>
  <property name="meta.media.colorspace">709</property>
  <property name="meta.media.width">1280</property>
  <property name="meta.media.height">720</property>
  <property name="meta.media.top_field_first">0</property>
  <property name="meta.media.progressive">1</property>
 </producer>
 <producer in="0" out="499" id="78_3">
  <property name="mlt_type">producer</property>
  <property name="length">500</property>
  <property name="eof">pause</property>
  <property name="resource">Videos/EOTR 2015/IMGA0197.MP4</property>
  <property name="meta.media.nb_streams">2</property>
  <property name="meta.media.0.stream.type">video</property>
  <property name="meta.media.0.stream.frame_rate">29.97</property>
  <property name="meta.media.0.stream.sample_aspect_ratio">0</property>
  <property name="meta.media.0.codec.width">1280</property>
  <property name="meta.media.0.codec.height">720</property>
  <property name="meta.media.0.codec.frame_rate">29.97</property>
  <property name="meta.media.0.codec.pix_fmt">yuvj420p</property>
  <property name="meta.media.0.codec.sample_aspect_ratio">1</property>
  <property name="meta.media.0.codec.colorspace">709</property>
  <property name="meta.media.0.codec.name">h264</property>
  <property name="meta.media.0.codec.long_name">H.264 / AVC / MPEG-4 AVC / MPEG-4 part 10</property>
  <property name="meta.media.0.codec.bit_rate">9088159</property>
  <property name="meta.attr.0.stream.creation_time.markup">2015-09-05 10:54:02</property>
  <property name="meta.attr.0.stream.language.markup">eng</property>
  <property name="meta.media.1.stream.type">audio</property>
  <property name="meta.media.1.codec.sample_fmt">fltp</property>
  <property name="meta.media.1.codec.sample_rate">48000</property>
  <property name="meta.media.1.codec.channels">2</property>
  <property name="meta.media.1.codec.name">aac</property>
  <property name="meta.media.1.codec.long_name">AAC (Advanced Audio Coding)</property>
  <property name="meta.media.1.codec.bit_rate">255216</property>
  <property name="meta.attr.1.stream.creation_time.markup">2015-09-05 10:54:02</property>
  <property name="meta.attr.1.stream.language.markup">eng</property>
  <property name="meta.attr.major_brand.markup">mp42</property>
  <property name="meta.attr.minor_version.markup">1</property>
  <property name="meta.attr.compatible_brands.markup">mp42avc1</property>
  <property name="meta.attr.creation_time.markup">2015-09-05 10:54:02</property>
  <property name="seekable">1</property>
  <property name="meta.media.sample_aspect_num">1</property>
  <property name="meta.media.sample_aspect_den">1</property>
  <property name="aspect_ratio">1</property>
  <property name="audio_index">1</property>
  <property name="video_index">0</property>
  <property name="mlt_service">avformat</property>
  <property name="meta.media.frame_rate_num">30000</property>
  <property name="meta.media.frame_rate_den">1001</property>
  <property name="meta.media.colorspace">709</property>
  <property name="meta.media.width">1280</property>
  <property name="meta.media.height">720</property>
  <property name="meta.media.top_field_first">0</property>
  <property name="meta.media.progressive">1</property>
 </producer>
 <producer in="0" out="1962" id="190">
  <property name="mlt_type">producer</property>
  <property name="length">1963</property>
  <property name="eof">pause</property>
  <property name="resource">kdenlive/croppy.mp4</property>
  <property name="meta.media.nb_streams">1</property>
  <property name="meta.media.0.stream.type">video</property>
  <property name="meta.media.0.stream.frame_rate">29.97</property>
  <property name="meta.media.0.stream.sample_aspect_ratio">0</property>
  <property name="meta.media.0.codec.width">1920</property>
  <property name="meta.media.0.codec.height">1080</property>
  <property name="meta.media.0.codec.frame_rate">30000</property>
  <property name="meta.media.0.codec.pix_fmt">yuv420p</property>
  <property name="meta.media.0.codec.sample_aspect_ratio">1</property>
  <property name="meta.media.0.codec.colorspace">709</property>
  <property name="meta.media.0.codec.name">mpeg4</property>
  <property name="meta.media.0.codec.long_name">MPEG-4 part 2</property>
  <property name="meta.media.0.codec.bit_rate">12012808</property>
  <property name="meta.attr.major_brand.markup">isom</property>
  <property name="meta.attr.minor_version.markup">512</property>
  <property name="meta.attr.compatible_brands.markup">isomiso2mp41</property>
  <property name="meta.attr.encoder.markup">Lavf54.20.4</property>
  <property name="seekable">1</property>
  <property name="meta.media.sample_aspect_num">1</property>
  <property name="meta.media.sample_aspect_den">1</property>
  <property name="aspect_ratio">1</property>
  <property name="audio_index">-1</property>
  <property name="video_index">0</property>
  <property name="mlt_service">avformat</property>
  <property name="meta.media.frame_rate_num">30000</property>
  <property name="meta.media.frame_rate_den">1001</property>
  <property name="meta.media.colorspace">709</property>
  <property name="meta.media.width">1920</property>
  <property name="meta.media.height">1080</property>
  <property name="meta.media.top_field_first">0</property>
  <property name="meta.media.progressive">0</property>
 </producer>
 <producer in="0" out="382" id="171_3">
  <property name="mlt_type">producer</property>
  <property name="length">383</property>
  <property name="eof">pause</property>
  <property name="resource">Videos/EOTR 2015/VID_20150906_124112.mp4</property>
  <property name="meta.media.nb_streams">2</property>
  <property name="meta.media.0.stream.type">video</property>
  <property name="meta.media.0.stream.frame_rate">30.0084</property>
  <property name="meta.media.0.stream.sample_aspect_ratio">1</property>
  <property name="meta.media.0.codec.width">1920</property>
  <property name="meta.media.0.codec.height">1080</property>
  <property name="meta.media.0.codec.frame_rate">inf</property>
  <property name="meta.media.0.codec.pix_fmt">yuv420p</property>
  <property name="meta.media.0.codec.sample_aspect_ratio">0</property>
  <property name="meta.media.0.codec.colorspace">709</property>
  <property name="meta.media.0.codec.name">h264</property>
  <property name="meta.media.0.codec.long_name">H.264 / AVC / MPEG-4 AVC / MPEG-4 part 10</property>
  <property name="meta.media.0.codec.bit_rate">19953913</property>
  <property name="meta.attr.0.stream.creation_time.markup">2015-09-06 11:41:28</property>
  <property name="meta.attr.0.stream.language.markup">eng</property>
  <property name="meta.media.1.stream.type">audio</property>
  <property name="meta.media.1.codec.sample_fmt">fltp</property>
  <property name="meta.media.1.codec.sample_rate">48000</property>
  <property name="meta.media.1.codec.channels">2</property>
  <property name="meta.media.1.codec.name">aac</property>
  <property name="meta.media.1.codec.long_name">AAC (Advanced Audio Coding)</property>
  <property name="meta.media.1.codec.bit_rate">253886</property>
  <property name="meta.attr.1.stream.creation_time.markup">2015-09-06 11:41:28</property>
  <property name="meta.attr.1.stream.language.markup">eng</property>
  <property name="meta.attr.major_brand.markup">mp42</property>
  <property name="meta.attr.minor_version.markup">0</property>
  <property name="meta.attr.compatible_brands.markup">isommp42</property>
  <property name="meta.attr.creation_time.markup">2015-09-06 11:41:28</property>
  <property name="seekable">1</property>
  <property name="meta.media.sample_aspect_num">65536</property>
  <property name="meta.media.sample_aspect_den">65536</property>
  <property name="aspect_ratio">1</property>
  <property name="audio_index">1</property>
  <property name="video_index">0</property>
  <property name="mlt_service">avformat</property>
  <property name="meta.media.frame_rate_num">20610000</property>
  <property name="meta.media.frame_rate_den">686807</property>
  <property name="meta.media.colorspace">709</property>
  <property name="meta.media.width">1920</property>
  <property name="meta.media.height">1080</property>
  <property name="meta.media.top_field_first">0</property>
  <property name="meta.media.progressive">1</property>
 </producer>
 <playlist id="playlist3">
  <blank length="915"/>
  <entry in="3616" out="4031" producer="96_3"/>
  <blank length="413"/>
  <entry in="0" out="141" producer="181_3">
   <filter id="frei0r.brightness">
    <property name="track">0</property>
    <property name="version">0.2</property>
    <property name="mlt_type">filter</property>
    <property name="mlt_service">frei0r.brightness</property>
    <property name="kdenlive_id">frei0r.brightness</property>
    <property name="tag">frei0r.brightness</property>
    <property name="kdenlive_ix">1</property>
    <property name="Brightness">0.408</property>
    <property name="kdenlive_info"/>
    <property name="disable">1</property>
   </filter>
  </entry>
  <blank length="111"/>
  <entry in="38" out="165" producer="7_3"/>
  <blank length="786"/>
  <entry in="433" out="548" producer="12_3"/>
  <blank length="183"/>
  <entry in="345" out="369" producer="16_3"/>
  <blank length="93"/>
  <entry in="441" out="547" producer="101_3"/>
  <blank length="363"/>
  <entry in="118" out="248" producer="172_3"/>
  <blank length="706"/>
  <entry in="502" out="615" producer="45_3"/>
  <blank length="233"/>
  <entry in="0" out="33" producer="83_3"/>
  <blank length="93"/>
  <entry in="253" out="344" producer="78_3"/>
  <blank length="1404"/>
  <entry in="1627" out="1962" producer="190"/>
  <blank length="824"/>
  <entry in="295" out="382" producer="171_3">
   <filter in="354" out="382" id="fade_to_black">
    <property name="track">0</property>
    <property name="start">1</property>
    <property name="mlt_type">filter</property>
    <property name="mlt_service">brightness</property>
    <property name="kdenlive_id">fade_to_black</property>
    <property name="tag">brightness</property>
    <property name="kdenlive_ix">1</property>
    <property name="end">0</property>
    <property name="kdenlive_info"/>
   </filter>
  </entry>
 </playlist>
 <producer in="0" out="4881" id="96_2">
  <property name="mlt_type">producer</property>
  <property name="length">4882</property>
  <property name="eof">pause</property>
  <property name="resource">Videos/EOTR 2015/VID_20150903_154217.mp4</property>
  <property name="meta.media.nb_streams">2</property>
  <property name="meta.media.0.stream.type">video</property>
  <property name="meta.media.0.stream.frame_rate">30.0085</property>
  <property name="meta.media.0.stream.sample_aspect_ratio">1</property>
  <property name="meta.media.0.codec.width">1920</property>
  <property name="meta.media.0.codec.height">1080</property>
  <property name="meta.media.0.codec.frame_rate">inf</property>
  <property name="meta.media.0.codec.pix_fmt">yuv420p</property>
  <property name="meta.media.0.codec.sample_aspect_ratio">0</property>
  <property name="meta.media.0.codec.colorspace">709</property>
  <property name="meta.media.0.codec.name">h264</property>
  <property name="meta.media.0.codec.long_name">H.264 / AVC / MPEG-4 AVC / MPEG-4 part 10</property>
  <property name="meta.media.0.codec.bit_rate">19992220</property>
  <property name="meta.attr.0.stream.creation_time.markup">2015-09-03 14:45:33</property>
  <property name="meta.attr.0.stream.language.markup">eng</property>
  <property name="meta.media.1.stream.type">audio</property>
  <property name="meta.media.1.codec.sample_fmt">fltp</property>
  <property name="meta.media.1.codec.sample_rate">48000</property>
  <property name="meta.media.1.codec.channels">2</property>
  <property name="meta.media.1.codec.name">aac</property>
  <property name="meta.media.1.codec.long_name">AAC (Advanced Audio Coding)</property>
  <property name="meta.media.1.codec.bit_rate">255864</property>
  <property name="meta.attr.1.stream.creation_time.markup">2015-09-03 14:45:33</property>
  <property name="meta.attr.1.stream.language.markup">eng</property>
  <property name="meta.attr.major_brand.markup">mp42</property>
  <property name="meta.attr.minor_version.markup">0</property>
  <property name="meta.attr.compatible_brands.markup">isommp42</property>
  <property name="meta.attr.creation_time.markup">2015-09-03 14:45:33</property>
  <property name="seekable">1</property>
  <property name="meta.media.sample_aspect_num">65536</property>
  <property name="meta.media.sample_aspect_den">65536</property>
  <property name="aspect_ratio">1</property>
  <property name="audio_index">1</property>
  <property name="video_index">0</property>
  <property name="mlt_service">avformat</property>
  <property name="meta.media.frame_rate_num">2430000</property>
  <property name="meta.media.frame_rate_den">80977</property>
  <property name="meta.media.colorspace">709</property>
  <property name="meta.media.width">1920</property>
  <property name="meta.media.height">1080</property>
  <property name="meta.media.top_field_first">0</property>
  <property name="meta.media.progressive">1</property>
 </producer>
 <producer in="0" out="227" id="98_2">
  <property name="mlt_type">producer</property>
  <property name="length">228</property>
  <property name="eof">pause</property>
  <property name="resource">Videos/EOTR 2015/VID_20150903_161752.mp4</property>
  <property name="meta.media.nb_streams">2</property>
  <property name="meta.media.0.stream.type">video</property>
  <property name="meta.media.0.stream.frame_rate">30.0073</property>
  <property name="meta.media.0.stream.sample_aspect_ratio">1</property>
  <property name="meta.media.0.codec.width">1920</property>
  <property name="meta.media.0.codec.height">1080</property>
  <property name="meta.media.0.codec.frame_rate">inf</property>
  <property name="meta.media.0.codec.pix_fmt">yuv420p</property>
  <property name="meta.media.0.codec.sample_aspect_ratio">0</property>
  <property name="meta.media.0.codec.colorspace">709</property>
  <property name="meta.media.0.codec.name">h264</property>
  <property name="meta.media.0.codec.long_name">H.264 / AVC / MPEG-4 AVC / MPEG-4 part 10</property>
  <property name="meta.media.0.codec.bit_rate">19882698</property>
  <property name="meta.attr.0.stream.creation_time.markup">2015-09-03 15:18:02</property>
  <property name="meta.attr.0.stream.language.markup">eng</property>
  <property name="meta.media.1.stream.type">audio</property>
  <property name="meta.media.1.codec.sample_fmt">fltp</property>
  <property name="meta.media.1.codec.sample_rate">48000</property>
  <property name="meta.media.1.codec.channels">2</property>
  <property name="meta.media.1.codec.name">aac</property>
  <property name="meta.media.1.codec.long_name">AAC (Advanced Audio Coding)</property>
  <property name="meta.media.1.codec.bit_rate">255582</property>
  <property name="meta.attr.1.stream.creation_time.markup">2015-09-03 15:18:02</property>
  <property name="meta.attr.1.stream.language.markup">eng</property>
  <property name="meta.attr.major_brand.markup">mp42</property>
  <property name="meta.attr.minor_version.markup">0</property>
  <property name="meta.attr.compatible_brands.markup">isommp42</property>
  <property name="meta.attr.creation_time.markup">2015-09-03 15:18:02</property>
  <property name="seekable">1</property>
  <property name="meta.media.sample_aspect_num">65536</property>
  <property name="meta.media.sample_aspect_den">65536</property>
  <property name="aspect_ratio">1</property>
  <property name="audio_index">1</property>
  <property name="video_index">0</property>
  <property name="mlt_service">avformat</property>
  <property name="meta.media.frame_rate_num">24390000</property>
  <property name="meta.media.frame_rate_den">812803</property>
  <property name="meta.media.colorspace">709</property>
  <property name="meta.media.width">1920</property>
  <property name="meta.media.height">1080</property>
  <property name="meta.media.top_field_first">0</property>
  <property name="meta.media.progressive">1</property>
 </producer>
 <producer in="0" out="174" id="5_2">
  <property name="mlt_type">producer</property>
  <property name="length">175</property>
  <property name="eof">pause</property>
  <property name="resource">Videos/EOTR 2015/IMGA0124.MP4</property>
  <property name="meta.media.nb_streams">2</property>
  <property name="meta.media.0.stream.type">video</property>
  <property name="meta.media.0.stream.frame_rate">29.97</property>
  <property name="meta.media.0.stream.sample_aspect_ratio">0</property>
  <property name="meta.media.0.codec.width">1920</property>
  <property name="meta.media.0.codec.height">1080</property>
  <property name="meta.media.0.codec.frame_rate">29.97</property>
  <property name="meta.media.0.codec.pix_fmt">yuvj420p</property>
  <property name="meta.media.0.codec.sample_aspect_ratio">1</property>
  <property name="meta.media.0.codec.colorspace">709</property>
  <property name="meta.media.0.codec.name">h264</property>
  <property name="meta.media.0.codec.long_name">H.264 / AVC / MPEG-4 AVC / MPEG-4 part 10</property>
  <property name="meta.media.0.codec.bit_rate">16312912</property>
  <property name="meta.attr.0.stream.creation_time.markup">2015-09-03 15:37:00</property>
  <property name="meta.attr.0.stream.language.markup">eng</property>
  <property name="meta.media.1.stream.type">audio</property>
  <property name="meta.media.1.codec.sample_fmt">fltp</property>
  <property name="meta.media.1.codec.sample_rate">48000</property>
  <property name="meta.media.1.codec.channels">2</property>
  <property name="meta.media.1.codec.name">aac</property>
  <property name="meta.media.1.codec.long_name">AAC (Advanced Audio Coding)</property>
  <property name="meta.media.1.codec.bit_rate">255027</property>
  <property name="meta.attr.1.stream.creation_time.markup">2015-09-03 15:37:00</property>
  <property name="meta.attr.1.stream.language.markup">eng</property>
  <property name="meta.attr.major_brand.markup">mp42</property>
  <property name="meta.attr.minor_version.markup">1</property>
  <property name="meta.attr.compatible_brands.markup">mp42avc1</property>
  <property name="meta.attr.creation_time.markup">2015-09-03 15:37:00</property>
  <property name="seekable">1</property>
  <property name="meta.media.sample_aspect_num">1</property>
  <property name="meta.media.sample_aspect_den">1</property>
  <property name="aspect_ratio">1</property>
  <property name="audio_index">1</property>
  <property name="video_index">0</property>
  <property name="mlt_service">avformat</property>
  <property name="meta.media.frame_rate_num">30000</property>
  <property name="meta.media.frame_rate_den">1001</property>
  <property name="meta.media.colorspace">709</property>
  <property name="meta.media.width">1920</property>
  <property name="meta.media.height">1080</property>
  <property name="meta.media.top_field_first">0</property>
  <property name="meta.media.progressive">1</property>
 </producer>
 <producer in="0" out="690" id="180_2">
  <property name="mlt_type">producer</property>
  <property name="length">691</property>
  <property name="eof">pause</property>
  <property name="resource">Videos/EOTR 2015/VID_20150906_143947.mp4</property>
  <property name="meta.media.nb_streams">2</property>
  <property name="meta.media.0.stream.type">video</property>
  <property name="meta.media.0.stream.frame_rate">30.0086</property>
  <property name="meta.media.0.stream.sample_aspect_ratio">1</property>
  <property name="meta.media.0.codec.width">1920</property>
  <property name="meta.media.0.codec.height">1080</property>
  <property name="meta.media.0.codec.frame_rate">inf</property>
  <property name="meta.media.0.codec.pix_fmt">yuv420p</property>
  <property name="meta.media.0.codec.sample_aspect_ratio">0</property>
  <property name="meta.media.0.codec.colorspace">709</property>
  <property name="meta.media.0.codec.name">h264</property>
  <property name="meta.media.0.codec.long_name">H.264 / AVC / MPEG-4 AVC / MPEG-4 part 10</property>
  <property name="meta.media.0.codec.bit_rate">19916717</property>
  <property name="meta.attr.0.stream.creation_time.markup">2015-09-06 13:40:15</property>
  <property name="meta.attr.0.stream.language.markup">eng</property>
  <property name="meta.media.1.stream.type">audio</property>
  <property name="meta.media.1.codec.sample_fmt">fltp</property>
  <property name="meta.media.1.codec.sample_rate">48000</property>
  <property name="meta.media.1.codec.channels">2</property>
  <property name="meta.media.1.codec.name">aac</property>
  <property name="meta.media.1.codec.long_name">AAC (Advanced Audio Coding)</property>
  <property name="meta.media.1.codec.bit_rate">254698</property>
  <property name="meta.attr.1.stream.creation_time.markup">2015-09-06 13:40:15</property>
  <property name="meta.attr.1.stream.language.markup">eng</property>
  <property name="meta.attr.major_brand.markup">mp42</property>
  <property name="meta.attr.minor_version.markup">0</property>
  <property name="meta.attr.compatible_brands.markup">isommp42</property>
  <property name="meta.attr.creation_time.markup">2015-09-06 13:40:15</property>
  <property name="seekable">1</property>
  <property name="meta.media.sample_aspect_num">65536</property>
  <property name="meta.media.sample_aspect_den">65536</property>
  <property name="aspect_ratio">1</property>
  <property name="audio_index">1</property>
  <property name="video_index">0</property>
  <property name="mlt_service">avformat</property>
  <property name="meta.media.frame_rate_num">14922000</property>
  <property name="meta.media.frame_rate_den">497257</property>
  <property name="meta.media.colorspace">709</property>
  <property name="meta.media.width">1920</property>
  <property name="meta.media.height">1080</property>
  <property name="meta.media.top_field_first">0</property>
  <property name="meta.media.progressive">1</property>
 </producer>
 <producer in="0" out="1162" id="100_2">
  <property name="mlt_type">producer</property>
  <property name="length">1163</property>
  <property name="eof">pause</property>
  <property name="resource">Videos/EOTR 2015/VID_20150903_170750.mp4</property>
  <property name="meta.media.nb_streams">2</property>
  <property name="meta.media.0.stream.type">video</property>
  <property name="meta.media.0.stream.frame_rate">30.0082</property>
  <property name="meta.media.0.stream.sample_aspect_ratio">1</property>
  <property name="meta.media.0.codec.width">1920</property>
  <property name="meta.media.0.codec.height">1080</property>
  <property name="meta.media.0.codec.frame_rate">inf</property>
  <property name="meta.media.0.codec.pix_fmt">yuv420p</property>
  <property name="meta.media.0.codec.sample_aspect_ratio">0</property>
  <property name="meta.media.0.codec.colorspace">709</property>
  <property name="meta.media.0.codec.name">h264</property>
  <property name="meta.media.0.codec.long_name">H.264 / AVC / MPEG-4 AVC / MPEG-4 part 10</property>
  <property name="meta.media.0.codec.bit_rate">19987100</property>
  <property name="meta.attr.0.stream.creation_time.markup">2015-09-03 16:08:37</property>
  <property name="meta.attr.0.stream.language.markup">eng</property>
  <property name="meta.media.1.stream.type">audio</property>
  <property name="meta.media.1.codec.sample_fmt">fltp</property>
  <property name="meta.media.1.codec.sample_rate">48000</property>
  <property name="meta.media.1.codec.channels">2</property>
  <property name="meta.media.1.codec.name">aac</property>
  <property name="meta.media.1.codec.long_name">AAC (Advanced Audio Coding)</property>
  <property name="meta.media.1.codec.bit_rate">255285</property>
  <property name="meta.attr.1.stream.creation_time.markup">2015-09-03 16:08:37</property>
  <property name="meta.attr.1.stream.language.markup">eng</property>
  <property name="meta.attr.major_brand.markup">mp42</property>
  <property name="meta.attr.minor_version.markup">0</property>
  <property name="meta.attr.compatible_brands.markup">isommp42</property>
  <property name="meta.attr.creation_time.markup">2015-09-03 16:08:37</property>
  <property name="seekable">1</property>
  <property name="meta.media.sample_aspect_num">65536</property>
  <property name="meta.media.sample_aspect_den">65536</property>
  <property name="aspect_ratio">1</property>
  <property name="audio_index">1</property>
  <property name="video_index">0</property>
  <property name="mlt_service">avformat</property>
  <property name="meta.media.frame_rate_num">2511000</property>
  <property name="meta.media.frame_rate_den">83677</property>
  <property name="meta.media.colorspace">709</property>
  <property name="meta.media.width">1920</property>
  <property name="meta.media.height">1080</property>
  <property name="meta.media.top_field_first">0</property>
  <property name="meta.media.progressive">1</property>
 </producer>
 <producer in="0" out="1100" id="8_2">
  <property name="mlt_type">producer</property>
  <property name="length">1101</property>
  <property name="eof">pause</property>
  <property name="resource">Videos/EOTR 2015/IMGA0127.MP4</property>
  <property name="meta.media.nb_streams">2</property>
  <property name="meta.media.0.stream.type">video</property>
  <property name="meta.media.0.stream.frame_rate">29.97</property>
  <property name="meta.media.0.stream.sample_aspect_ratio">0</property>
  <property name="meta.media.0.codec.width">1920</property>
  <property name="meta.media.0.codec.height">1080</property>
  <property name="meta.media.0.codec.frame_rate">29.97</property>
  <property name="meta.media.0.codec.pix_fmt">yuvj420p</property>
  <property name="meta.media.0.codec.sample_aspect_ratio">1</property>
  <property name="meta.media.0.codec.colorspace">709</property>
  <property name="meta.media.0.codec.name">h264</property>
  <property name="meta.media.0.codec.long_name">H.264 / AVC / MPEG-4 AVC / MPEG-4 part 10</property>
  <property name="meta.media.0.codec.bit_rate">15182035</property>
  <property name="meta.attr.0.stream.creation_time.markup">2015-09-03 16:32:16</property>
  <property name="meta.attr.0.stream.language.markup">eng</property>
  <property name="meta.media.1.stream.type">audio</property>
  <property name="meta.media.1.codec.sample_fmt">fltp</property>
  <property name="meta.media.1.codec.sample_rate">48000</property>
  <property name="meta.media.1.codec.channels">2</property>
  <property name="meta.media.1.codec.name">aac</property>
  <property name="meta.media.1.codec.long_name">AAC (Advanced Audio Coding)</property>
  <property name="meta.media.1.codec.bit_rate">255320</property>
  <property name="meta.attr.1.stream.creation_time.markup">2015-09-03 16:32:16</property>
  <property name="meta.attr.1.stream.language.markup">eng</property>
  <property name="meta.attr.major_brand.markup">mp42</property>
  <property name="meta.attr.minor_version.markup">1</property>
  <property name="meta.attr.compatible_brands.markup">mp42avc1</property>
  <property name="meta.attr.creation_time.markup">2015-09-03 16:32:16</property>
  <property name="seekable">1</property>
  <property name="meta.media.sample_aspect_num">1</property>
  <property name="meta.media.sample_aspect_den">1</property>
  <property name="aspect_ratio">1</property>
  <property name="audio_index">1</property>
  <property name="video_index">0</property>
  <property name="mlt_service">avformat</property>
  <property name="meta.media.frame_rate_num">30000</property>
  <property name="meta.media.frame_rate_den">1001</property>
  <property name="meta.media.colorspace">709</property>
  <property name="meta.media.width">1920</property>
  <property name="meta.media.height">1080</property>
  <property name="meta.media.top_field_first">0</property>
  <property name="meta.media.progressive">1</property>
 </producer>
 <producer in="0" out="749" id="18_2">
  <property name="mlt_type">producer</property>
  <property name="length">750</property>
  <property name="eof">pause</property>
  <property name="resource">Videos/EOTR 2015/IMGA0137.MP4</property>
  <property name="meta.media.nb_streams">2</property>
  <property name="meta.media.0.stream.type">video</property>
  <property name="meta.media.0.stream.frame_rate">29.97</property>
  <property name="meta.media.0.stream.sample_aspect_ratio">0</property>
  <property name="meta.media.0.codec.width">1920</property>
  <property name="meta.media.0.codec.height">1080</property>
  <property name="meta.media.0.codec.frame_rate">29.97</property>
  <property name="meta.media.0.codec.pix_fmt">yuvj420p</property>
  <property name="meta.media.0.codec.sample_aspect_ratio">1</property>
  <property name="meta.media.0.codec.colorspace">709</property>
  <property name="meta.media.0.codec.name">h264</property>
  <property name="meta.media.0.codec.long_name">H.264 / AVC / MPEG-4 AVC / MPEG-4 part 10</property>
  <property name="meta.media.0.codec.bit_rate">15420860</property>
  <property name="meta.attr.0.stream.creation_time.markup">2015-09-03 18:29:12</property>
  <property name="meta.attr.0.stream.language.markup">eng</property>
  <property name="meta.media.1.stream.type">audio</property>
  <property name="meta.media.1.codec.sample_fmt">fltp</property>
  <property name="meta.media.1.codec.sample_rate">48000</property>
  <property name="meta.media.1.codec.channels">2</property>
  <property name="meta.media.1.codec.name">aac</property>
  <property name="meta.media.1.codec.long_name">AAC (Advanced Audio Coding)</property>
  <property name="meta.media.1.codec.bit_rate">255262</property>
  <property name="meta.attr.1.stream.creation_time.markup">2015-09-03 18:29:12</property>
  <property name="meta.attr.1.stream.language.markup">eng</property>
  <property name="meta.attr.major_brand.markup">mp42</property>
  <property name="meta.attr.minor_version.markup">1</property>
  <property name="meta.attr.compatible_brands.markup">mp42avc1</property>
  <property name="meta.attr.creation_time.markup">2015-09-03 18:29:12</property>
  <property name="seekable">1</property>
  <property name="meta.media.sample_aspect_num">1</property>
  <property name="meta.media.sample_aspect_den">1</property>
  <property name="aspect_ratio">1</property>
  <property name="audio_index">1</property>
  <property name="video_index">0</property>
  <property name="mlt_service">avformat</property>
  <property name="meta.media.frame_rate_num">30000</property>
  <property name="meta.media.frame_rate_den">1001</property>
  <property name="meta.media.colorspace">709</property>
  <property name="meta.media.width">1920</property>
  <property name="meta.media.height">1080</property>
  <property name="meta.media.top_field_first">0</property>
  <property name="meta.media.progressive">1</property>
 </producer>
 <producer in="0" out="1050" id="13_2">
  <property name="mlt_type">producer</property>
  <property name="length">1051</property>
  <property name="eof">pause</property>
  <property name="resource">Videos/EOTR 2015/IMGA0132.MP4</property>
  <property name="meta.media.nb_streams">2</property>
  <property name="meta.media.0.stream.type">video</property>
  <property name="meta.media.0.stream.frame_rate">29.97</property>
  <property name="meta.media.0.stream.sample_aspect_ratio">0</property>
  <property name="meta.media.0.codec.width">1920</property>
  <property name="meta.media.0.codec.height">1080</property>
  <property name="meta.media.0.codec.frame_rate">29.97</property>
  <property name="meta.media.0.codec.pix_fmt">yuvj420p</property>
  <property name="meta.media.0.codec.sample_aspect_ratio">1</property>
  <property name="meta.media.0.codec.colorspace">709</property>
  <property name="meta.media.0.codec.name">h264</property>
  <property name="meta.media.0.codec.long_name">H.264 / AVC / MPEG-4 AVC / MPEG-4 part 10</property>
  <property name="meta.media.0.codec.bit_rate">15609126</property>
  <property name="meta.attr.0.stream.creation_time.markup">2015-09-03 17:29:47</property>
  <property name="meta.attr.0.stream.language.markup">eng</property>
  <property name="meta.media.1.stream.type">audio</property>
  <property name="meta.media.1.codec.sample_fmt">fltp</property>
  <property name="meta.media.1.codec.sample_rate">48000</property>
  <property name="meta.media.1.codec.channels">2</property>
  <property name="meta.media.1.codec.name">aac</property>
  <property name="meta.media.1.codec.long_name">AAC (Advanced Audio Coding)</property>
  <property name="meta.media.1.codec.bit_rate">255335</property>
  <property name="meta.attr.1.stream.creation_time.markup">2015-09-03 17:29:47</property>
  <property name="meta.attr.1.stream.language.markup">eng</property>
  <property name="meta.attr.major_brand.markup">mp42</property>
  <property name="meta.attr.minor_version.markup">1</property>
  <property name="meta.attr.compatible_brands.markup">mp42avc1</property>
  <property name="meta.attr.creation_time.markup">2015-09-03 17:29:47</property>
  <property name="seekable">1</property>
  <property name="meta.media.sample_aspect_num">1</property>
  <property name="meta.media.sample_aspect_den">1</property>
  <property name="aspect_ratio">1</property>
  <property name="audio_index">1</property>
  <property name="video_index">0</property>
  <property name="mlt_service">avformat</property>
  <property name="meta.media.frame_rate_num">30000</property>
  <property name="meta.media.frame_rate_den">1001</property>
  <property name="meta.media.colorspace">709</property>
  <property name="meta.media.width">1920</property>
  <property name="meta.media.height">1080</property>
  <property name="meta.media.top_field_first">0</property>
  <property name="meta.media.progressive">1</property>
 </producer>
 <producer in="0" out="550" id="102_2">
  <property name="mlt_type">producer</property>
  <property name="length">551</property>
  <property name="eof">pause</property>
  <property name="resource">Videos/EOTR 2015/VID_20150903_194837.mp4</property>
  <property name="meta.media.nb_streams">2</property>
  <property name="meta.media.0.stream.type">video</property>
  <property name="meta.media.0.stream.frame_rate">30.0087</property>
  <property name="meta.media.0.stream.sample_aspect_ratio">1</property>
  <property name="meta.media.0.codec.width">1920</property>
  <property name="meta.media.0.codec.height">1080</property>
  <property name="meta.media.0.codec.frame_rate">inf</property>
  <property name="meta.media.0.codec.pix_fmt">yuv420p</property>
  <property name="meta.media.0.codec.sample_aspect_ratio">0</property>
  <property name="meta.media.0.codec.colorspace">709</property>
  <property name="meta.media.0.codec.name">h264</property>
  <property name="meta.media.0.codec.long_name">H.264 / AVC / MPEG-4 AVC / MPEG-4 part 10</property>
  <property name="meta.media.0.codec.bit_rate">19842538</property>
  <property name="meta.attr.0.stream.creation_time.markup">2015-09-03 18:49:00</property>
  <property name="meta.attr.0.stream.language.markup">eng</property>
  <property name="meta.media.1.stream.type">audio</property>
  <property name="meta.media.1.codec.sample_fmt">fltp</property>
  <property name="meta.media.1.codec.sample_rate">48000</property>
  <property name="meta.media.1.codec.channels">2</property>
  <property name="meta.media.1.codec.name">aac</property>
  <property name="meta.media.1.codec.long_name">AAC (Advanced Audio Coding)</property>
  <property name="meta.media.1.codec.bit_rate">254639</property>
  <property name="meta.attr.1.stream.creation_time.markup">2015-09-03 18:49:00</property>
  <property name="meta.attr.1.stream.language.markup">eng</property>
  <property name="meta.attr.major_brand.markup">mp42</property>
  <property name="meta.attr.minor_version.markup">0</property>
  <property name="meta.attr.compatible_brands.markup">isommp42</property>
  <property name="meta.attr.creation_time.markup">2015-09-03 18:49:00</property>
  <property name="seekable">1</property>
  <property name="meta.media.sample_aspect_num">65536</property>
  <property name="meta.media.sample_aspect_den">65536</property>
  <property name="aspect_ratio">1</property>
  <property name="audio_index">1</property>
  <property name="video_index">0</property>
  <property name="mlt_service">avformat</property>
  <property name="meta.media.frame_rate_num">2379600</property>
  <property name="meta.media.frame_rate_den">79297</property>
  <property name="meta.media.colorspace">709</property>
  <property name="meta.media.width">1920</property>
  <property name="meta.media.height">1080</property>
  <property name="meta.media.top_field_first">0</property>
  <property name="meta.media.progressive">1</property>
 </producer>
 <producer in="0" out="290" id="170_2">
  <property name="mlt_type">producer</property>
  <property name="length">291</property>
  <property name="eof">pause</property>
  <property name="resource">Videos/EOTR 2015/VID_20150906_121751.mp4</property>
  <property name="meta.media.nb_streams">2</property>
  <property name="meta.media.0.stream.type">video</property>
  <property name="meta.media.0.stream.frame_rate">30.0081</property>
  <property name="meta.media.0.stream.sample_aspect_ratio">1</property>
  <property name="meta.media.0.codec.width">1920</property>
  <property name="meta.media.0.codec.height">1080</property>
  <property name="meta.media.0.codec.frame_rate">inf</property>
  <property name="meta.media.0.codec.pix_fmt">yuv420p</property>
  <property name="meta.media.0.codec.sample_aspect_ratio">0</property>
  <property name="meta.media.0.codec.colorspace">709</property>
  <property name="meta.media.0.codec.name">h264</property>
  <property name="meta.media.0.codec.long_name">H.264 / AVC / MPEG-4 AVC / MPEG-4 part 10</property>
  <property name="meta.media.0.codec.bit_rate">19960993</property>
  <property name="meta.attr.0.stream.creation_time.markup">2015-09-06 11:18:03</property>
  <property name="meta.attr.0.stream.language.markup">eng</property>
  <property name="meta.media.1.stream.type">audio</property>
  <property name="meta.media.1.codec.sample_fmt">fltp</property>
  <property name="meta.media.1.codec.sample_rate">48000</property>
  <property name="meta.media.1.codec.channels">2</property>
  <property name="meta.media.1.codec.name">aac</property>
  <property name="meta.media.1.codec.long_name">AAC (Advanced Audio Coding)</property>
  <property name="meta.media.1.codec.bit_rate">255020</property>
  <property name="meta.attr.1.stream.creation_time.markup">2015-09-06 11:18:03</property>
  <property name="meta.attr.1.stream.language.markup">eng</property>
  <property name="meta.attr.major_brand.markup">mp42</property>
  <property name="meta.attr.minor_version.markup">0</property>
  <property name="meta.attr.compatible_brands.markup">isommp42</property>
  <property name="meta.attr.creation_time.markup">2015-09-06 11:18:03</property>
  <property name="seekable">1</property>
  <property name="meta.media.sample_aspect_num">65536</property>
  <property name="meta.media.sample_aspect_den">65536</property>
  <property name="aspect_ratio">1</property>
  <property name="audio_index">1</property>
  <property name="video_index">0</property>
  <property name="mlt_service">avformat</property>
  <property name="meta.media.frame_rate_num">31410000</property>
  <property name="meta.media.frame_rate_den">1046717</property>
  <property name="meta.media.colorspace">709</property>
  <property name="meta.media.width">1920</property>
  <property name="meta.media.height">1080</property>
  <property name="meta.media.top_field_first">0</property>
  <property name="meta.media.progressive">1</property>
 </producer>
 <producer in="0" out="684" id="173_2">
  <property name="mlt_type">producer</property>
  <property name="length">685</property>
  <property name="eof">pause</property>
  <property name="resource">Videos/EOTR 2015/VID_20150906_130236.mp4</property>
  <property name="meta.media.nb_streams">2</property>
  <property name="meta.media.0.stream.type">video</property>
  <property name="meta.media.0.stream.frame_rate">30.0083</property>
  <property name="meta.media.0.stream.sample_aspect_ratio">1</property>
  <property name="meta.media.0.codec.width">1920</property>
  <property name="meta.media.0.codec.height">1080</property>
  <property name="meta.media.0.codec.frame_rate">inf</property>
  <property name="meta.media.0.codec.pix_fmt">yuv420p</property>
  <property name="meta.media.0.codec.sample_aspect_ratio">0</property>
  <property name="meta.media.0.codec.colorspace">709</property>
  <property name="meta.media.0.codec.name">h264</property>
  <property name="meta.media.0.codec.long_name">H.264 / AVC / MPEG-4 AVC / MPEG-4 part 10</property>
  <property name="meta.media.0.codec.bit_rate">19889577</property>
  <property name="meta.attr.0.stream.creation_time.markup">2015-09-06 12:03:04</property>
  <property name="meta.attr.0.stream.language.markup">eng</property>
  <property name="meta.media.1.stream.type">audio</property>
  <property name="meta.media.1.codec.sample_fmt">fltp</property>
  <property name="meta.media.1.codec.sample_rate">48000</property>
  <property name="meta.media.1.codec.channels">2</property>
  <property name="meta.media.1.codec.name">aac</property>
  <property name="meta.media.1.codec.long_name">AAC (Advanced Audio Coding)</property>
  <property name="meta.media.1.codec.bit_rate">254938</property>
  <property name="meta.attr.1.stream.creation_time.markup">2015-09-06 12:03:04</property>
  <property name="meta.attr.1.stream.language.markup">eng</property>
  <property name="meta.attr.major_brand.markup">mp42</property>
  <property name="meta.attr.minor_version.markup">0</property>
  <property name="meta.attr.compatible_brands.markup">isommp42</property>
  <property name="meta.attr.creation_time.markup">2015-09-06 12:03:04</property>
  <property name="seekable">1</property>
  <property name="meta.media.sample_aspect_num">65536</property>
  <property name="meta.media.sample_aspect_den">65536</property>
  <property name="aspect_ratio">1</property>
  <property name="audio_index">1</property>
  <property name="video_index">0</property>
  <property name="mlt_service">avformat</property>
  <property name="meta.media.frame_rate_num">6157500</property>
  <property name="meta.media.frame_rate_den">205193</property>
  <property name="meta.media.colorspace">709</property>
  <property name="meta.media.width">1920</property>
  <property name="meta.media.height">1080</property>
  <property name="meta.media.top_field_first">0</property>
  <property name="meta.media.progressive">1</property>
 </producer>
 <producer in="0" out="299" id="29_2">
  <property name="mlt_type">producer</property>
  <property name="length">300</property>
  <property name="eof">pause</property>
  <property name="resource">Videos/EOTR 2015/IMGA0148.MP4</property>
  <property name="meta.media.nb_streams">2</property>
  <property name="meta.media.0.stream.type">video</property>
  <property name="meta.media.0.stream.frame_rate">29.97</property>
  <property name="meta.media.0.stream.sample_aspect_ratio">0</property>
  <property name="meta.media.0.codec.width">1920</property>
  <property name="meta.media.0.codec.height">1080</property>
  <property name="meta.media.0.codec.frame_rate">29.97</property>
  <property name="meta.media.0.codec.pix_fmt">yuvj420p</property>
  <property name="meta.media.0.codec.sample_aspect_ratio">1</property>
  <property name="meta.media.0.codec.colorspace">709</property>
  <property name="meta.media.0.codec.name">h264</property>
  <property name="meta.media.0.codec.long_name">H.264 / AVC / MPEG-4 AVC / MPEG-4 part 10</property>
  <property name="meta.media.0.codec.bit_rate">15442989</property>
  <property name="meta.attr.0.stream.creation_time.markup">2015-09-04 09:25:56</property>
  <property name="meta.attr.0.stream.language.markup">eng</property>
  <property name="meta.media.1.stream.type">audio</property>
  <property name="meta.media.1.codec.sample_fmt">fltp</property>
  <property name="meta.media.1.codec.sample_rate">48000</property>
  <property name="meta.media.1.codec.channels">2</property>
  <property name="meta.media.1.codec.name">aac</property>
  <property name="meta.media.1.codec.long_name">AAC (Advanced Audio Coding)</property>
  <property name="meta.media.1.codec.bit_rate">255138</property>
  <property name="meta.attr.1.stream.creation_time.markup">2015-09-04 09:25:56</property>
  <property name="meta.attr.1.stream.language.markup">eng</property>
  <property name="meta.attr.major_brand.markup">mp42</property>
  <property name="meta.attr.minor_version.markup">1</property>
  <property name="meta.attr.compatible_brands.markup">mp42avc1</property>
  <property name="meta.attr.creation_time.markup">2015-09-04 09:25:56</property>
  <property name="seekable">1</property>
  <property name="meta.media.sample_aspect_num">1</property>
  <property name="meta.media.sample_aspect_den">1</property>
  <property name="aspect_ratio">1</property>
  <property name="audio_index">1</property>
  <property name="video_index">0</property>
  <property name="mlt_service">avformat</property>
  <property name="meta.media.frame_rate_num">30000</property>
  <property name="meta.media.frame_rate_den">1001</property>
  <property name="meta.media.colorspace">709</property>
  <property name="meta.media.width">1920</property>
  <property name="meta.media.height">1080</property>
  <property name="meta.media.top_field_first">0</property>
  <property name="meta.media.progressive">1</property>
 </producer>
 <producer in="0" out="574" id="31_2">
  <property name="mlt_type">producer</property>
  <property name="length">575</property>
  <property name="eof">pause</property>
  <property name="resource">Videos/EOTR 2015/IMGA0150.MP4</property>
  <property name="meta.media.nb_streams">2</property>
  <property name="meta.media.0.stream.type">video</property>
  <property name="meta.media.0.stream.frame_rate">29.97</property>
  <property name="meta.media.0.stream.sample_aspect_ratio">0</property>
  <property name="meta.media.0.codec.width">1920</property>
  <property name="meta.media.0.codec.height">1080</property>
  <property name="meta.media.0.codec.frame_rate">29.97</property>
  <property name="meta.media.0.codec.pix_fmt">yuvj420p</property>
  <property name="meta.media.0.codec.sample_aspect_ratio">1</property>
  <property name="meta.media.0.codec.colorspace">709</property>
  <property name="meta.media.0.codec.name">h264</property>
  <property name="meta.media.0.codec.long_name">H.264 / AVC / MPEG-4 AVC / MPEG-4 part 10</property>
  <property name="meta.media.0.codec.bit_rate">16260564</property>
  <property name="meta.attr.0.stream.creation_time.markup">2015-09-04 09:27:04</property>
  <property name="meta.attr.0.stream.language.markup">eng</property>
  <property name="meta.media.1.stream.type">audio</property>
  <property name="meta.media.1.codec.sample_fmt">fltp</property>
  <property name="meta.media.1.codec.sample_rate">48000</property>
  <property name="meta.media.1.codec.channels">2</property>
  <property name="meta.media.1.codec.name">aac</property>
  <property name="meta.media.1.codec.long_name">AAC (Advanced Audio Coding)</property>
  <property name="meta.media.1.codec.bit_rate">253198</property>
  <property name="meta.attr.1.stream.creation_time.markup">2015-09-04 09:27:04</property>
  <property name="meta.attr.1.stream.language.markup">eng</property>
  <property name="meta.attr.major_brand.markup">mp42</property>
  <property name="meta.attr.minor_version.markup">1</property>
  <property name="meta.attr.compatible_brands.markup">mp42avc1</property>
  <property name="meta.attr.creation_time.markup">2015-09-04 09:27:04</property>
  <property name="seekable">1</property>
  <property name="meta.media.sample_aspect_num">1</property>
  <property name="meta.media.sample_aspect_den">1</property>
  <property name="aspect_ratio">1</property>
  <property name="audio_index">1</property>
  <property name="video_index">0</property>
  <property name="mlt_service">avformat</property>
  <property name="meta.media.frame_rate_num">30000</property>
  <property name="meta.media.frame_rate_den">1001</property>
  <property name="meta.media.colorspace">709</property>
  <property name="meta.media.width">1920</property>
  <property name="meta.media.height">1080</property>
  <property name="meta.media.top_field_first">0</property>
  <property name="meta.media.progressive">1</property>
 </producer>
 <producer in="0" out="174" id="30_2">
  <property name="mlt_type">producer</property>
  <property name="length">175</property>
  <property name="eof">pause</property>
  <property name="resource">Videos/EOTR 2015/IMGA0149.MP4</property>
  <property name="meta.media.nb_streams">2</property>
  <property name="meta.media.0.stream.type">video</property>
  <property name="meta.media.0.stream.frame_rate">29.97</property>
  <property name="meta.media.0.stream.sample_aspect_ratio">0</property>
  <property name="meta.media.0.codec.width">1920</property>
  <property name="meta.media.0.codec.height">1080</property>
  <property name="meta.media.0.codec.frame_rate">29.97</property>
  <property name="meta.media.0.codec.pix_fmt">yuvj420p</property>
  <property name="meta.media.0.codec.sample_aspect_ratio">1</property>
  <property name="meta.media.0.codec.colorspace">709</property>
  <property name="meta.media.0.codec.name">h264</property>
  <property name="meta.media.0.codec.long_name">H.264 / AVC / MPEG-4 AVC / MPEG-4 part 10</property>
  <property name="meta.media.0.codec.bit_rate">15662061</property>
  <property name="meta.attr.0.stream.creation_time.markup">2015-09-04 09:26:31</property>
  <property name="meta.attr.0.stream.language.markup">eng</property>
  <property name="meta.media.1.stream.type">audio</property>
  <property name="meta.media.1.codec.sample_fmt">fltp</property>
  <property name="meta.media.1.codec.sample_rate">48000</property>
  <property name="meta.media.1.codec.channels">2</property>
  <property name="meta.media.1.codec.name">aac</property>
  <property name="meta.media.1.codec.long_name">AAC (Advanced Audio Coding)</property>
  <property name="meta.media.1.codec.bit_rate">252008</property>
  <property name="meta.attr.1.stream.creation_time.markup">2015-09-04 09:26:31</property>
  <property name="meta.attr.1.stream.language.markup">eng</property>
  <property name="meta.attr.major_brand.markup">mp42</property>
  <property name="meta.attr.minor_version.markup">1</property>
  <property name="meta.attr.compatible_brands.markup">mp42avc1</property>
  <property name="meta.attr.creation_time.markup">2015-09-04 09:26:31</property>
  <property name="seekable">1</property>
  <property name="meta.media.sample_aspect_num">1</property>
  <property name="meta.media.sample_aspect_den">1</property>
  <property name="aspect_ratio">1</property>
  <property name="audio_index">1</property>
  <property name="video_index">0</property>
  <property name="mlt_service">avformat</property>
  <property name="meta.media.frame_rate_num">30000</property>
  <property name="meta.media.frame_rate_den">1001</property>
  <property name="meta.media.colorspace">709</property>
  <property name="meta.media.width">1920</property>
  <property name="meta.media.height">1080</property>
  <property name="meta.media.top_field_first">0</property>
  <property name="meta.media.progressive">1</property>
 </producer>
 <producer in="0" out="974" id="62_2">
  <property name="mlt_type">producer</property>
  <property name="length">975</property>
  <property name="eof">pause</property>
  <property name="resource">Videos/EOTR 2015/IMGA0181.MP4</property>
  <property name="meta.media.nb_streams">2</property>
  <property name="meta.media.0.stream.type">video</property>
  <property name="meta.media.0.stream.frame_rate">29.97</property>
  <property name="meta.media.0.stream.sample_aspect_ratio">0</property>
  <property name="meta.media.0.codec.width">1280</property>
  <property name="meta.media.0.codec.height">720</property>
  <property name="meta.media.0.codec.frame_rate">29.97</property>
  <property name="meta.media.0.codec.pix_fmt">yuvj420p</property>
  <property name="meta.media.0.codec.sample_aspect_ratio">1</property>
  <property name="meta.media.0.codec.colorspace">709</property>
  <property name="meta.media.0.codec.name">h264</property>
  <property name="meta.media.0.codec.long_name">H.264 / AVC / MPEG-4 AVC / MPEG-4 part 10</property>
  <property name="meta.media.0.codec.bit_rate">9079140</property>
  <property name="meta.attr.0.stream.creation_time.markup">2015-09-04 12:54:11</property>
  <property name="meta.attr.0.stream.language.markup">eng</property>
  <property name="meta.media.1.stream.type">audio</property>
  <property name="meta.media.1.codec.sample_fmt">fltp</property>
  <property name="meta.media.1.codec.sample_rate">48000</property>
  <property name="meta.media.1.codec.channels">2</property>
  <property name="meta.media.1.codec.name">aac</property>
  <property name="meta.media.1.codec.long_name">AAC (Advanced Audio Coding)</property>
  <property name="meta.media.1.codec.bit_rate">255357</property>
  <property name="meta.attr.1.stream.creation_time.markup">2015-09-04 12:54:11</property>
  <property name="meta.attr.1.stream.language.markup">eng</property>
  <property name="meta.attr.major_brand.markup">mp42</property>
  <property name="meta.attr.minor_version.markup">1</property>
  <property name="meta.attr.compatible_brands.markup">mp42avc1</property>
  <property name="meta.attr.creation_time.markup">2015-09-04 12:54:11</property>
  <property name="seekable">1</property>
  <property name="meta.media.sample_aspect_num">1</property>
  <property name="meta.media.sample_aspect_den">1</property>
  <property name="aspect_ratio">1</property>
  <property name="audio_index">1</property>
  <property name="video_index">0</property>
  <property name="mlt_service">avformat</property>
  <property name="meta.media.frame_rate_num">30000</property>
  <property name="meta.media.frame_rate_den">1001</property>
  <property name="meta.media.colorspace">709</property>
  <property name="meta.media.width">1280</property>
  <property name="meta.media.height">720</property>
  <property name="meta.media.top_field_first">0</property>
  <property name="meta.media.progressive">1</property>
 </producer>
 <producer in="0" out="519" id="115_2">
  <property name="mlt_type">producer</property>
  <property name="length">520</property>
  <property name="eof">pause</property>
  <property name="resource">Videos/EOTR 2015/VID_20150904_192954.mp4</property>
  <property name="meta.media.nb_streams">2</property>
  <property name="meta.media.0.stream.type">video</property>
  <property name="meta.media.0.stream.frame_rate">29.97</property>
  <property name="meta.media.0.stream.sample_aspect_ratio">1</property>
  <property name="meta.media.0.codec.width">1920</property>
  <property name="meta.media.0.codec.height">1080</property>
  <property name="meta.media.0.codec.frame_rate">inf</property>
  <property name="meta.media.0.codec.pix_fmt">yuv420p</property>
  <property name="meta.media.0.codec.sample_aspect_ratio">0</property>
  <property name="meta.media.0.codec.colorspace">709</property>
  <property name="meta.media.0.codec.name">h264</property>
  <property name="meta.media.0.codec.long_name">H.264 / AVC / MPEG-4 AVC / MPEG-4 part 10</property>
  <property name="meta.media.0.codec.bit_rate">19986737</property>
  <property name="meta.attr.0.stream.creation_time.markup">2015-09-04 18:30:15</property>
  <property name="meta.attr.0.stream.language.markup">eng</property>
  <property name="meta.media.1.stream.type">audio</property>
  <property name="meta.media.1.codec.sample_fmt">fltp</property>
  <property name="meta.media.1.codec.sample_rate">48000</property>
  <property name="meta.media.1.codec.channels">2</property>
  <property name="meta.media.1.codec.name">aac</property>
  <property name="meta.media.1.codec.long_name">AAC (Advanced Audio Coding)</property>
  <property name="meta.media.1.codec.bit_rate">256055</property>
  <property name="meta.attr.1.stream.creation_time.markup">2015-09-04 18:30:15</property>
  <property name="meta.attr.1.stream.language.markup">eng</property>
  <property name="meta.attr.major_brand.markup">mp42</property>
  <property name="meta.attr.minor_version.markup">0</property>
  <property name="meta.attr.compatible_brands.markup">isommp42</property>
  <property name="meta.attr.creation_time.markup">2015-09-04 18:30:15</property>
  <property name="seekable">1</property>
  <property name="meta.media.sample_aspect_num">65536</property>
  <property name="meta.media.sample_aspect_den">65536</property>
  <property name="aspect_ratio">1</property>
  <property name="audio_index">1</property>
  <property name="video_index">0</property>
  <property name="mlt_service">avformat</property>
  <property name="meta.media.frame_rate_num">55980000</property>
  <property name="meta.media.frame_rate_den">1867867</property>
  <property name="meta.media.colorspace">709</property>
  <property name="meta.media.width">1920</property>
  <property name="meta.media.height">1080</property>
  <property name="meta.media.top_field_first">0</property>
  <property name="meta.media.progressive">1</property>
 </producer>
 <producer in="0" out="499" id="50_2">
  <property name="mlt_type">producer</property>
  <property name="length">500</property>
  <property name="eof">pause</property>
  <property name="resource">Videos/EOTR 2015/IMGA0169.MP4</property>
  <property name="meta.media.nb_streams">2</property>
  <property name="meta.media.0.stream.type">video</property>
  <property name="meta.media.0.stream.frame_rate">29.97</property>
  <property name="meta.media.0.stream.sample_aspect_ratio">0</property>
  <property name="meta.media.0.codec.width">1280</property>
  <property name="meta.media.0.codec.height">720</property>
  <property name="meta.media.0.codec.frame_rate">29.97</property>
  <property name="meta.media.0.codec.pix_fmt">yuvj420p</property>
  <property name="meta.media.0.codec.sample_aspect_ratio">1</property>
  <property name="meta.media.0.codec.colorspace">709</property>
  <property name="meta.media.0.codec.name">h264</property>
  <property name="meta.media.0.codec.long_name">H.264 / AVC / MPEG-4 AVC / MPEG-4 part 10</property>
  <property name="meta.media.0.codec.bit_rate">9233550</property>
  <property name="meta.attr.0.stream.creation_time.markup">2015-09-04 10:43:29</property>
  <property name="meta.attr.0.stream.language.markup">eng</property>
  <property name="meta.media.1.stream.type">audio</property>
  <property name="meta.media.1.codec.sample_fmt">fltp</property>
  <property name="meta.media.1.codec.sample_rate">48000</property>
  <property name="meta.media.1.codec.channels">2</property>
  <property name="meta.media.1.codec.name">aac</property>
  <property name="meta.media.1.codec.long_name">AAC (Advanced Audio Coding)</property>
  <property name="meta.media.1.codec.bit_rate">255235</property>
  <property name="meta.attr.1.stream.creation_time.markup">2015-09-04 10:43:29</property>
  <property name="meta.attr.1.stream.language.markup">eng</property>
  <property name="meta.attr.major_brand.markup">mp42</property>
  <property name="meta.attr.minor_version.markup">1</property>
  <property name="meta.attr.compatible_brands.markup">mp42avc1</property>
  <property name="meta.attr.creation_time.markup">2015-09-04 10:43:29</property>
  <property name="seekable">1</property>
  <property name="meta.media.sample_aspect_num">1</property>
  <property name="meta.media.sample_aspect_den">1</property>
  <property name="aspect_ratio">1</property>
  <property name="audio_index">1</property>
  <property name="video_index">0</property>
  <property name="mlt_service">avformat</property>
  <property name="meta.media.frame_rate_num">30000</property>
  <property name="meta.media.frame_rate_den">1001</property>
  <property name="meta.media.colorspace">709</property>
  <property name="meta.media.width">1280</property>
  <property name="meta.media.height">720</property>
  <property name="meta.media.top_field_first">0</property>
  <property name="meta.media.progressive">1</property>
 </producer>
 <producer in="0" out="699" id="74_2">
  <property name="mlt_type">producer</property>
  <property name="length">700</property>
  <property name="eof">pause</property>
  <property name="resource">Videos/EOTR 2015/IMGA0193.MP4</property>
  <property name="meta.media.nb_streams">2</property>
  <property name="meta.media.0.stream.type">video</property>
  <property name="meta.media.0.stream.frame_rate">29.97</property>
  <property name="meta.media.0.stream.sample_aspect_ratio">0</property>
  <property name="meta.media.0.codec.width">1280</property>
  <property name="meta.media.0.codec.height">720</property>
  <property name="meta.media.0.codec.frame_rate">29.97</property>
  <property name="meta.media.0.codec.pix_fmt">yuvj420p</property>
  <property name="meta.media.0.codec.sample_aspect_ratio">1</property>
  <property name="meta.media.0.codec.colorspace">709</property>
  <property name="meta.media.0.codec.name">h264</property>
  <property name="meta.media.0.codec.long_name">H.264 / AVC / MPEG-4 AVC / MPEG-4 part 10</property>
  <property name="meta.media.0.codec.bit_rate">9063245</property>
  <property name="meta.attr.0.stream.creation_time.markup">2015-09-05 10:34:39</property>
  <property name="meta.attr.0.stream.language.markup">eng</property>
  <property name="meta.media.1.stream.type">audio</property>
  <property name="meta.media.1.codec.sample_fmt">fltp</property>
  <property name="meta.media.1.codec.sample_rate">48000</property>
  <property name="meta.media.1.codec.channels">2</property>
  <property name="meta.media.1.codec.name">aac</property>
  <property name="meta.media.1.codec.long_name">AAC (Advanced Audio Coding)</property>
  <property name="meta.media.1.codec.bit_rate">255353</property>
  <property name="meta.attr.1.stream.creation_time.markup">2015-09-05 10:34:39</property>
  <property name="meta.attr.1.stream.language.markup">eng</property>
  <property name="meta.attr.major_brand.markup">mp42</property>
  <property name="meta.attr.minor_version.markup">1</property>
  <property name="meta.attr.compatible_brands.markup">mp42avc1</property>
  <property name="meta.attr.creation_time.markup">2015-09-05 10:34:39</property>
  <property name="seekable">1</property>
  <property name="meta.media.sample_aspect_num">1</property>
  <property name="meta.media.sample_aspect_den">1</property>
  <property name="aspect_ratio">1</property>
  <property name="audio_index">1</property>
  <property name="video_index">0</property>
  <property name="mlt_service">avformat</property>
  <property name="meta.media.frame_rate_num">30000</property>
  <property name="meta.media.frame_rate_den">1001</property>
  <property name="meta.media.colorspace">709</property>
  <property name="meta.media.width">1280</property>
  <property name="meta.media.height">720</property>
  <property name="meta.media.top_field_first">0</property>
  <property name="meta.media.progressive">1</property>
 </producer>
 <producer in="0" out="424" id="77_2">
  <property name="mlt_type">producer</property>
  <property name="length">425</property>
  <property name="eof">pause</property>
  <property name="resource">Videos/EOTR 2015/IMGA0196.MP4</property>
  <property name="meta.media.nb_streams">2</property>
  <property name="meta.media.0.stream.type">video</property>
  <property name="meta.media.0.stream.frame_rate">29.97</property>
  <property name="meta.media.0.stream.sample_aspect_ratio">0</property>
  <property name="meta.media.0.codec.width">1280</property>
  <property name="meta.media.0.codec.height">720</property>
  <property name="meta.media.0.codec.frame_rate">29.97</property>
  <property name="meta.media.0.codec.pix_fmt">yuvj420p</property>
  <property name="meta.media.0.codec.sample_aspect_ratio">1</property>
  <property name="meta.media.0.codec.colorspace">709</property>
  <property name="meta.media.0.codec.name">h264</property>
  <property name="meta.media.0.codec.long_name">H.264 / AVC / MPEG-4 AVC / MPEG-4 part 10</property>
  <property name="meta.media.0.codec.bit_rate">9102554</property>
  <property name="meta.attr.0.stream.creation_time.markup">2015-09-05 10:53:33</property>
  <property name="meta.attr.0.stream.language.markup">eng</property>
  <property name="meta.media.1.stream.type">audio</property>
  <property name="meta.media.1.codec.sample_fmt">fltp</property>
  <property name="meta.media.1.codec.sample_rate">48000</property>
  <property name="meta.media.1.codec.channels">2</property>
  <property name="meta.media.1.codec.name">aac</property>
  <property name="meta.media.1.codec.long_name">AAC (Advanced Audio Coding)</property>
  <property name="meta.media.1.codec.bit_rate">255131</property>
  <property name="meta.attr.1.stream.creation_time.markup">2015-09-05 10:53:33</property>
  <property name="meta.attr.1.stream.language.markup">eng</property>
  <property name="meta.attr.major_brand.markup">mp42</property>
  <property name="meta.attr.minor_version.markup">1</property>
  <property name="meta.attr.compatible_brands.markup">mp42avc1</property>
  <property name="meta.attr.creation_time.markup">2015-09-05 10:53:33</property>
  <property name="seekable">1</property>
  <property name="meta.media.sample_aspect_num">1</property>
  <property name="meta.media.sample_aspect_den">1</property>
  <property name="aspect_ratio">1</property>
  <property name="audio_index">1</property>
  <property name="video_index">0</property>
  <property name="mlt_service">avformat</property>
  <property name="meta.media.frame_rate_num">30000</property>
  <property name="meta.media.frame_rate_den">1001</property>
  <property name="meta.media.colorspace">709</property>
  <property name="meta.media.width">1280</property>
  <property name="meta.media.height">720</property>
  <property name="meta.media.top_field_first">0</property>
  <property name="meta.media.progressive">1</property>
 </producer>
 <producer in="0" out="799" id="80_2">
  <property name="mlt_type">producer</property>
  <property name="length">800</property>
  <property name="eof">pause</property>
  <property name="resource">Videos/EOTR 2015/IMGA0199.MP4</property>
  <property name="meta.media.nb_streams">2</property>
  <property name="meta.media.0.stream.type">video</property>
  <property name="meta.media.0.stream.frame_rate">29.97</property>
  <property name="meta.media.0.stream.sample_aspect_ratio">0</property>
  <property name="meta.media.0.codec.width">1280</property>
  <property name="meta.media.0.codec.height">720</property>
  <property name="meta.media.0.codec.frame_rate">29.97</property>
  <property name="meta.media.0.codec.pix_fmt">yuvj420p</property>
  <property name="meta.media.0.codec.sample_aspect_ratio">1</property>
  <property name="meta.media.0.codec.colorspace">709</property>
  <property name="meta.media.0.codec.name">h264</property>
  <property name="meta.media.0.codec.long_name">H.264 / AVC / MPEG-4 AVC / MPEG-4 part 10</property>
  <property name="meta.media.0.codec.bit_rate">9060545</property>
  <property name="meta.attr.0.stream.creation_time.markup">2015-09-05 11:03:08</property>
  <property name="meta.attr.0.stream.language.markup">eng</property>
  <property name="meta.media.1.stream.type">audio</property>
  <property name="meta.media.1.codec.sample_fmt">fltp</property>
  <property name="meta.media.1.codec.sample_rate">48000</property>
  <property name="meta.media.1.codec.channels">2</property>
  <property name="meta.media.1.codec.name">aac</property>
  <property name="meta.media.1.codec.long_name">AAC (Advanced Audio Coding)</property>
  <property name="meta.media.1.codec.bit_rate">255350</property>
  <property name="meta.attr.1.stream.creation_time.markup">2015-09-05 11:03:08</property>
  <property name="meta.attr.1.stream.language.markup">eng</property>
  <property name="meta.attr.major_brand.markup">mp42</property>
  <property name="meta.attr.minor_version.markup">1</property>
  <property name="meta.attr.compatible_brands.markup">mp42avc1</property>
  <property name="meta.attr.creation_time.markup">2015-09-05 11:03:08</property>
  <property name="seekable">1</property>
  <property name="meta.media.sample_aspect_num">1</property>
  <property name="meta.media.sample_aspect_den">1</property>
  <property name="aspect_ratio">1</property>
  <property name="audio_index">1</property>
  <property name="video_index">0</property>
  <property name="mlt_service">avformat</property>
  <property name="meta.media.frame_rate_num">30000</property>
  <property name="meta.media.frame_rate_den">1001</property>
  <property name="meta.media.colorspace">709</property>
  <property name="meta.media.width">1280</property>
  <property name="meta.media.height">720</property>
  <property name="meta.media.top_field_first">0</property>
  <property name="meta.media.progressive">1</property>
 </producer>
 <producer in="0" out="774" id="58_2">
  <property name="mlt_type">producer</property>
  <property name="length">775</property>
  <property name="eof">pause</property>
  <property name="resource">Videos/EOTR 2015/IMGA0177.MP4</property>
  <property name="meta.media.nb_streams">2</property>
  <property name="meta.media.0.stream.type">video</property>
  <property name="meta.media.0.stream.frame_rate">29.97</property>
  <property name="meta.media.0.stream.sample_aspect_ratio">0</property>
  <property name="meta.media.0.codec.width">1280</property>
  <property name="meta.media.0.codec.height">720</property>
  <property name="meta.media.0.codec.frame_rate">29.97</property>
  <property name="meta.media.0.codec.pix_fmt">yuvj420p</property>
  <property name="meta.media.0.codec.sample_aspect_ratio">1</property>
  <property name="meta.media.0.codec.colorspace">709</property>
  <property name="meta.media.0.codec.name">h264</property>
  <property name="meta.media.0.codec.long_name">H.264 / AVC / MPEG-4 AVC / MPEG-4 part 10</property>
  <property name="meta.media.0.codec.bit_rate">9100316</property>
  <property name="meta.attr.0.stream.creation_time.markup">2015-09-04 11:27:16</property>
  <property name="meta.attr.0.stream.language.markup">eng</property>
  <property name="meta.media.1.stream.type">audio</property>
  <property name="meta.media.1.codec.sample_fmt">fltp</property>
  <property name="meta.media.1.codec.sample_rate">48000</property>
  <property name="meta.media.1.codec.channels">2</property>
  <property name="meta.media.1.codec.name">aac</property>
  <property name="meta.media.1.codec.long_name">AAC (Advanced Audio Coding)</property>
  <property name="meta.media.1.codec.bit_rate">255256</property>
  <property name="meta.attr.1.stream.creation_time.markup">2015-09-04 11:27:16</property>
  <property name="meta.attr.1.stream.language.markup">eng</property>
  <property name="meta.attr.major_brand.markup">mp42</property>
  <property name="meta.attr.minor_version.markup">1</property>
  <property name="meta.attr.compatible_brands.markup">mp42avc1</property>
  <property name="meta.attr.creation_time.markup">2015-09-04 11:27:16</property>
  <property name="seekable">1</property>
  <property name="meta.media.sample_aspect_num">1</property>
  <property name="meta.media.sample_aspect_den">1</property>
  <property name="aspect_ratio">1</property>
  <property name="audio_index">1</property>
  <property name="video_index">0</property>
  <property name="mlt_service">avformat</property>
  <property name="meta.media.frame_rate_num">30000</property>
  <property name="meta.media.frame_rate_den">1001</property>
  <property name="meta.media.colorspace">709</property>
  <property name="meta.media.width">1280</property>
  <property name="meta.media.height">720</property>
  <property name="meta.media.top_field_first">0</property>
  <property name="meta.media.progressive">1</property>
 </producer>
 <producer in="0" out="274" id="87_2">
  <property name="mlt_type">producer</property>
  <property name="length">275</property>
  <property name="eof">pause</property>
  <property name="resource">Videos/EOTR 2015/IMGA0206.MP4</property>
  <property name="meta.media.nb_streams">2</property>
  <property name="meta.media.0.stream.type">video</property>
  <property name="meta.media.0.stream.frame_rate">29.97</property>
  <property name="meta.media.0.stream.sample_aspect_ratio">0</property>
  <property name="meta.media.0.codec.width">1280</property>
  <property name="meta.media.0.codec.height">720</property>
  <property name="meta.media.0.codec.frame_rate">29.97</property>
  <property name="meta.media.0.codec.pix_fmt">yuvj420p</property>
  <property name="meta.media.0.codec.sample_aspect_ratio">1</property>
  <property name="meta.media.0.codec.colorspace">709</property>
  <property name="meta.media.0.codec.name">h264</property>
  <property name="meta.media.0.codec.long_name">H.264 / AVC / MPEG-4 AVC / MPEG-4 part 10</property>
  <property name="meta.media.0.codec.bit_rate">9892176</property>
  <property name="meta.attr.0.stream.creation_time.markup">2015-09-05 11:38:55</property>
  <property name="meta.attr.0.stream.language.markup">eng</property>
  <property name="meta.media.1.stream.type">audio</property>
  <property name="meta.media.1.codec.sample_fmt">fltp</property>
  <property name="meta.media.1.codec.sample_rate">48000</property>
  <property name="meta.media.1.codec.channels">2</property>
  <property name="meta.media.1.codec.name">aac</property>
  <property name="meta.media.1.codec.long_name">AAC (Advanced Audio Coding)</property>
  <property name="meta.media.1.codec.bit_rate">255195</property>
  <property name="meta.attr.1.stream.creation_time.markup">2015-09-05 11:38:55</property>
  <property name="meta.attr.1.stream.language.markup">eng</property>
  <property name="meta.attr.major_brand.markup">mp42</property>
  <property name="meta.attr.minor_version.markup">1</property>
  <property name="meta.attr.compatible_brands.markup">mp42avc1</property>
  <property name="meta.attr.creation_time.markup">2015-09-05 11:38:55</property>
  <property name="seekable">1</property>
  <property name="meta.media.sample_aspect_num">1</property>
  <property name="meta.media.sample_aspect_den">1</property>
  <property name="aspect_ratio">1</property>
  <property name="audio_index">1</property>
  <property name="video_index">0</property>
  <property name="mlt_service">avformat</property>
  <property name="meta.media.frame_rate_num">30000</property>
  <property name="meta.media.frame_rate_den">1001</property>
  <property name="meta.media.colorspace">709</property>
  <property name="meta.media.width">1280</property>
  <property name="meta.media.height">720</property>
  <property name="meta.media.top_field_first">0</property>
  <property name="meta.media.progressive">1</property>
 </producer>
 <producer in="0" out="1775" id="55_2">
  <property name="mlt_type">producer</property>
  <property name="length">1776</property>
  <property name="eof">pause</property>
  <property name="resource">Videos/EOTR 2015/IMGA0174.MP4</property>
  <property name="meta.media.nb_streams">2</property>
  <property name="meta.media.0.stream.type">video</property>
  <property name="meta.media.0.stream.frame_rate">29.97</property>
  <property name="meta.media.0.stream.sample_aspect_ratio">0</property>
  <property name="meta.media.0.codec.width">1280</property>
  <property name="meta.media.0.codec.height">720</property>
  <property name="meta.media.0.codec.frame_rate">29.97</property>
  <property name="meta.media.0.codec.pix_fmt">yuvj420p</property>
  <property name="meta.media.0.codec.sample_aspect_ratio">1</property>
  <property name="meta.media.0.codec.colorspace">709</property>
  <property name="meta.media.0.codec.name">h264</property>
  <property name="meta.media.0.codec.long_name">H.264 / AVC / MPEG-4 AVC / MPEG-4 part 10</property>
  <property name="meta.media.0.codec.bit_rate">9598528</property>
  <property name="meta.attr.0.stream.creation_time.markup">2015-09-04 11:16:58</property>
  <property name="meta.attr.0.stream.language.markup">eng</property>
  <property name="meta.media.1.stream.type">audio</property>
  <property name="meta.media.1.codec.sample_fmt">fltp</property>
  <property name="meta.media.1.codec.sample_rate">48000</property>
  <property name="meta.media.1.codec.channels">2</property>
  <property name="meta.media.1.codec.name">aac</property>
  <property name="meta.media.1.codec.long_name">AAC (Advanced Audio Coding)</property>
  <property name="meta.media.1.codec.bit_rate">255336</property>
  <property name="meta.attr.1.stream.creation_time.markup">2015-09-04 11:16:58</property>
  <property name="meta.attr.1.stream.language.markup">eng</property>
  <property name="meta.attr.major_brand.markup">mp42</property>
  <property name="meta.attr.minor_version.markup">1</property>
  <property name="meta.attr.compatible_brands.markup">mp42avc1</property>
  <property name="meta.attr.creation_time.markup">2015-09-04 11:16:58</property>
  <property name="seekable">1</property>
  <property name="meta.media.sample_aspect_num">1</property>
  <property name="meta.media.sample_aspect_den">1</property>
  <property name="aspect_ratio">1</property>
  <property name="audio_index">1</property>
  <property name="video_index">0</property>
  <property name="mlt_service">avformat</property>
  <property name="meta.media.frame_rate_num">30000</property>
  <property name="meta.media.frame_rate_den">1001</property>
  <property name="meta.media.colorspace">709</property>
  <property name="meta.media.width">1280</property>
  <property name="meta.media.height">720</property>
  <property name="meta.media.top_field_first">0</property>
  <property name="meta.media.progressive">1</property>
 </producer>
 <producer in="0" out="299" id="33_2">
  <property name="mlt_type">producer</property>
  <property name="length">300</property>
  <property name="eof">pause</property>
  <property name="resource">Videos/EOTR 2015/IMGA0152.MP4</property>
  <property name="meta.media.nb_streams">2</property>
  <property name="meta.media.0.stream.type">video</property>
  <property name="meta.media.0.stream.frame_rate">29.97</property>
  <property name="meta.media.0.stream.sample_aspect_ratio">0</property>
  <property name="meta.media.0.codec.width">1920</property>
  <property name="meta.media.0.codec.height">1080</property>
  <property name="meta.media.0.codec.frame_rate">29.97</property>
  <property name="meta.media.0.codec.pix_fmt">yuvj420p</property>
  <property name="meta.media.0.codec.sample_aspect_ratio">1</property>
  <property name="meta.media.0.codec.colorspace">709</property>
  <property name="meta.media.0.codec.name">h264</property>
  <property name="meta.media.0.codec.long_name">H.264 / AVC / MPEG-4 AVC / MPEG-4 part 10</property>
  <property name="meta.media.0.codec.bit_rate">16971684</property>
  <property name="meta.attr.0.stream.creation_time.markup">2015-09-04 09:30:09</property>
  <property name="meta.attr.0.stream.language.markup">eng</property>
  <property name="meta.media.1.stream.type">audio</property>
  <property name="meta.media.1.codec.sample_fmt">fltp</property>
  <property name="meta.media.1.codec.sample_rate">48000</property>
  <property name="meta.media.1.codec.channels">2</property>
  <property name="meta.media.1.codec.name">aac</property>
  <property name="meta.media.1.codec.long_name">AAC (Advanced Audio Coding)</property>
  <property name="meta.media.1.codec.bit_rate">255077</property>
  <property name="meta.attr.1.stream.creation_time.markup">2015-09-04 09:30:09</property>
  <property name="meta.attr.1.stream.language.markup">eng</property>
  <property name="meta.attr.major_brand.markup">mp42</property>
  <property name="meta.attr.minor_version.markup">1</property>
  <property name="meta.attr.compatible_brands.markup">mp42avc1</property>
  <property name="meta.attr.creation_time.markup">2015-09-04 09:30:09</property>
  <property name="seekable">1</property>
  <property name="meta.media.sample_aspect_num">1</property>
  <property name="meta.media.sample_aspect_den">1</property>
  <property name="aspect_ratio">1</property>
  <property name="audio_index">1</property>
  <property name="video_index">0</property>
  <property name="mlt_service">avformat</property>
  <property name="meta.media.frame_rate_num">30000</property>
  <property name="meta.media.frame_rate_den">1001</property>
  <property name="meta.media.colorspace">709</property>
  <property name="meta.media.width">1920</property>
  <property name="meta.media.height">1080</property>
  <property name="meta.media.top_field_first">0</property>
  <property name="meta.media.progressive">1</property>
 </producer>
 <producer in="0" out="349" id="40_2">
  <property name="mlt_type">producer</property>
  <property name="length">350</property>
  <property name="eof">pause</property>
  <property name="resource">Videos/EOTR 2015/IMGA0159.MP4</property>
  <property name="meta.media.nb_streams">2</property>
  <property name="meta.media.0.stream.type">video</property>
  <property name="meta.media.0.stream.frame_rate">29.97</property>
  <property name="meta.media.0.stream.sample_aspect_ratio">0</property>
  <property name="meta.media.0.codec.width">1280</property>
  <property name="meta.media.0.codec.height">720</property>
  <property name="meta.media.0.codec.frame_rate">29.97</property>
  <property name="meta.media.0.codec.pix_fmt">yuvj420p</property>
  <property name="meta.media.0.codec.sample_aspect_ratio">1</property>
  <property name="meta.media.0.codec.colorspace">709</property>
  <property name="meta.media.0.codec.name">h264</property>
  <property name="meta.media.0.codec.long_name">H.264 / AVC / MPEG-4 AVC / MPEG-4 part 10</property>
  <property name="meta.media.0.codec.bit_rate">9411854</property>
  <property name="meta.attr.0.stream.creation_time.markup">2015-09-04 09:47:12</property>
  <property name="meta.attr.0.stream.language.markup">eng</property>
  <property name="meta.media.1.stream.type">audio</property>
  <property name="meta.media.1.codec.sample_fmt">fltp</property>
  <property name="meta.media.1.codec.sample_rate">48000</property>
  <property name="meta.media.1.codec.channels">2</property>
  <property name="meta.media.1.codec.name">aac</property>
  <property name="meta.media.1.codec.long_name">AAC (Advanced Audio Coding)</property>
  <property name="meta.media.1.codec.bit_rate">255265</property>
  <property name="meta.attr.1.stream.creation_time.markup">2015-09-04 09:47:12</property>
  <property name="meta.attr.1.stream.language.markup">eng</property>
  <property name="meta.attr.major_brand.markup">mp42</property>
  <property name="meta.attr.minor_version.markup">1</property>
  <property name="meta.attr.compatible_brands.markup">mp42avc1</property>
  <property name="meta.attr.creation_time.markup">2015-09-04 09:47:12</property>
  <property name="seekable">1</property>
  <property name="meta.media.sample_aspect_num">1</property>
  <property name="meta.media.sample_aspect_den">1</property>
  <property name="aspect_ratio">1</property>
  <property name="audio_index">1</property>
  <property name="video_index">0</property>
  <property name="mlt_service">avformat</property>
  <property name="meta.media.frame_rate_num">30000</property>
  <property name="meta.media.frame_rate_den">1001</property>
  <property name="meta.media.colorspace">709</property>
  <property name="meta.media.width">1280</property>
  <property name="meta.media.height">720</property>
  <property name="meta.media.top_field_first">0</property>
  <property name="meta.media.progressive">1</property>
 </producer>
 <producer in="0" out="174" id="44_2">
  <property name="mlt_type">producer</property>
  <property name="length">175</property>
  <property name="eof">pause</property>
  <property name="resource">Videos/EOTR 2015/IMGA0163.MP4</property>
  <property name="meta.media.nb_streams">2</property>
  <property name="meta.media.0.stream.type">video</property>
  <property name="meta.media.0.stream.frame_rate">29.97</property>
  <property name="meta.media.0.stream.sample_aspect_ratio">0</property>
  <property name="meta.media.0.codec.width">1280</property>
  <property name="meta.media.0.codec.height">720</property>
  <property name="meta.media.0.codec.frame_rate">29.97</property>
  <property name="meta.media.0.codec.pix_fmt">yuvj420p</property>
  <property name="meta.media.0.codec.sample_aspect_ratio">1</property>
  <property name="meta.media.0.codec.colorspace">709</property>
  <property name="meta.media.0.codec.name">h264</property>
  <property name="meta.media.0.codec.long_name">H.264 / AVC / MPEG-4 AVC / MPEG-4 part 10</property>
  <property name="meta.media.0.codec.bit_rate">9481709</property>
  <property name="meta.attr.0.stream.creation_time.markup">2015-09-04 10:09:48</property>
  <property name="meta.attr.0.stream.language.markup">eng</property>
  <property name="meta.media.1.stream.type">audio</property>
  <property name="meta.media.1.codec.sample_fmt">fltp</property>
  <property name="meta.media.1.codec.sample_rate">48000</property>
  <property name="meta.media.1.codec.channels">2</property>
  <property name="meta.media.1.codec.name">aac</property>
  <property name="meta.media.1.codec.long_name">AAC (Advanced Audio Coding)</property>
  <property name="meta.media.1.codec.bit_rate">255204</property>
  <property name="meta.attr.1.stream.creation_time.markup">2015-09-04 10:09:48</property>
  <property name="meta.attr.1.stream.language.markup">eng</property>
  <property name="meta.attr.major_brand.markup">mp42</property>
  <property name="meta.attr.minor_version.markup">1</property>
  <property name="meta.attr.compatible_brands.markup">mp42avc1</property>
  <property name="meta.attr.creation_time.markup">2015-09-04 10:09:48</property>
  <property name="seekable">1</property>
  <property name="meta.media.sample_aspect_num">1</property>
  <property name="meta.media.sample_aspect_den">1</property>
  <property name="aspect_ratio">1</property>
  <property name="audio_index">1</property>
  <property name="video_index">0</property>
  <property name="mlt_service">avformat</property>
  <property name="meta.media.frame_rate_num">30000</property>
  <property name="meta.media.frame_rate_den">1001</property>
  <property name="meta.media.colorspace">709</property>
  <property name="meta.media.width">1280</property>
  <property name="meta.media.height">720</property>
  <property name="meta.media.top_field_first">0</property>
  <property name="meta.media.progressive">1</property>
 </producer>
 <producer in="0" out="1416" id="159_2">
  <property name="mlt_type">producer</property>
  <property name="length">1417</property>
  <property name="eof">pause</property>
  <property name="resource">Videos/EOTR 2015/VID_20150905_211351.mp4</property>
  <property name="meta.media.nb_streams">2</property>
  <property name="meta.media.0.stream.type">video</property>
  <property name="meta.media.0.stream.frame_rate">29.9456</property>
  <property name="meta.media.0.stream.sample_aspect_ratio">1</property>
  <property name="meta.media.0.codec.width">1920</property>
  <property name="meta.media.0.codec.height">1080</property>
  <property name="meta.media.0.codec.frame_rate">inf</property>
  <property name="meta.media.0.codec.pix_fmt">yuv420p</property>
  <property name="meta.media.0.codec.sample_aspect_ratio">0</property>
  <property name="meta.media.0.codec.colorspace">709</property>
  <property name="meta.media.0.codec.name">h264</property>
  <property name="meta.media.0.codec.long_name">H.264 / AVC / MPEG-4 AVC / MPEG-4 part 10</property>
  <property name="meta.media.0.codec.bit_rate">19978057</property>
  <property name="meta.attr.0.stream.creation_time.markup">2015-09-05 20:14:48</property>
  <property name="meta.attr.0.stream.language.markup">eng</property>
  <property name="meta.media.1.stream.type">audio</property>
  <property name="meta.media.1.codec.sample_fmt">fltp</property>
  <property name="meta.media.1.codec.sample_rate">48000</property>
  <property name="meta.media.1.codec.channels">2</property>
  <property name="meta.media.1.codec.name">aac</property>
  <property name="meta.media.1.codec.long_name">AAC (Advanced Audio Coding)</property>
  <property name="meta.media.1.codec.bit_rate">256012</property>
  <property name="meta.attr.1.stream.creation_time.markup">2015-09-05 20:14:48</property>
  <property name="meta.attr.1.stream.language.markup">eng</property>
  <property name="meta.attr.major_brand.markup">mp42</property>
  <property name="meta.attr.minor_version.markup">0</property>
  <property name="meta.attr.compatible_brands.markup">isommp42</property>
  <property name="meta.attr.creation_time.markup">2015-09-05 20:14:48</property>
  <property name="seekable">1</property>
  <property name="meta.media.sample_aspect_num">65536</property>
  <property name="meta.media.sample_aspect_den">65536</property>
  <property name="aspect_ratio">1</property>
  <property name="audio_index">1</property>
  <property name="video_index">0</property>
  <property name="mlt_service">avformat</property>
  <property name="meta.media.frame_rate_num">152640000</property>
  <property name="meta.media.frame_rate_den">5097247</property>
  <property name="meta.media.colorspace">709</property>
  <property name="meta.media.width">1920</property>
  <property name="meta.media.height">1080</property>
  <property name="meta.media.top_field_first">0</property>
  <property name="meta.media.progressive">1</property>
 </producer>
 <producer in="0" out="532" id="184_2">
  <property name="mlt_type">producer</property>
  <property name="length">533</property>
  <property name="eof">pause</property>
  <property name="resource">Videos/EOTR 2015/VID_20150906_155215.mp4</property>
  <property name="meta.media.nb_streams">2</property>
  <property name="meta.media.0.stream.type">video</property>
  <property name="meta.media.0.stream.frame_rate">29.6045</property>
  <property name="meta.media.0.stream.sample_aspect_ratio">1</property>
  <property name="meta.media.0.codec.width">1920</property>
  <property name="meta.media.0.codec.height">1080</property>
  <property name="meta.media.0.codec.frame_rate">inf</property>
  <property name="meta.media.0.codec.pix_fmt">yuv420p</property>
  <property name="meta.media.0.codec.sample_aspect_ratio">0</property>
  <property name="meta.media.0.codec.colorspace">709</property>
  <property name="meta.media.0.codec.name">h264</property>
  <property name="meta.media.0.codec.long_name">H.264 / AVC / MPEG-4 AVC / MPEG-4 part 10</property>
  <property name="meta.media.0.codec.bit_rate">19712029</property>
  <property name="meta.attr.0.stream.creation_time.markup">2015-09-06 14:52:37</property>
  <property name="meta.attr.0.stream.language.markup">eng</property>
  <property name="meta.media.1.stream.type">audio</property>
  <property name="meta.media.1.codec.sample_fmt">fltp</property>
  <property name="meta.media.1.codec.sample_rate">48000</property>
  <property name="meta.media.1.codec.channels">2</property>
  <property name="meta.media.1.codec.name">aac</property>
  <property name="meta.media.1.codec.long_name">AAC (Advanced Audio Coding)</property>
  <property name="meta.media.1.codec.bit_rate">256035</property>
  <property name="meta.attr.1.stream.creation_time.markup">2015-09-06 14:52:37</property>
  <property name="meta.attr.1.stream.language.markup">eng</property>
  <property name="meta.attr.major_brand.markup">mp42</property>
  <property name="meta.attr.minor_version.markup">0</property>
  <property name="meta.attr.compatible_brands.markup">isommp42</property>
  <property name="meta.attr.creation_time.markup">2015-09-06 14:52:37</property>
  <property name="seekable">1</property>
  <property name="meta.media.sample_aspect_num">65536</property>
  <property name="meta.media.sample_aspect_den">65536</property>
  <property name="aspect_ratio">1</property>
  <property name="audio_index">1</property>
  <property name="video_index">0</property>
  <property name="mlt_service">avformat</property>
  <property name="meta.media.frame_rate_num">14175000</property>
  <property name="meta.media.frame_rate_den">478813</property>
  <property name="meta.media.colorspace">709</property>
  <property name="meta.media.width">1920</property>
  <property name="meta.media.height">1080</property>
  <property name="meta.media.top_field_first">0</property>
  <property name="meta.media.progressive">1</property>
 </producer>
 <producer in="0" out="749" id="73_2">
  <property name="mlt_type">producer</property>
  <property name="length">750</property>
  <property name="eof">pause</property>
  <property name="resource">Videos/EOTR 2015/IMGA0192.MP4</property>
  <property name="meta.media.nb_streams">2</property>
  <property name="meta.media.0.stream.type">video</property>
  <property name="meta.media.0.stream.frame_rate">29.97</property>
  <property name="meta.media.0.stream.sample_aspect_ratio">0</property>
  <property name="meta.media.0.codec.width">1280</property>
  <property name="meta.media.0.codec.height">720</property>
  <property name="meta.media.0.codec.frame_rate">29.97</property>
  <property name="meta.media.0.codec.pix_fmt">yuvj420p</property>
  <property name="meta.media.0.codec.sample_aspect_ratio">1</property>
  <property name="meta.media.0.codec.colorspace">709</property>
  <property name="meta.media.0.codec.name">h264</property>
  <property name="meta.media.0.codec.long_name">H.264 / AVC / MPEG-4 AVC / MPEG-4 part 10</property>
  <property name="meta.media.0.codec.bit_rate">9325692</property>
  <property name="meta.attr.0.stream.creation_time.markup">2015-09-05 10:00:30</property>
  <property name="meta.attr.0.stream.language.markup">eng</property>
  <property name="meta.media.1.stream.type">audio</property>
  <property name="meta.media.1.codec.sample_fmt">fltp</property>
  <property name="meta.media.1.codec.sample_rate">48000</property>
  <property name="meta.media.1.codec.channels">2</property>
  <property name="meta.media.1.codec.name">aac</property>
  <property name="meta.media.1.codec.long_name">AAC (Advanced Audio Coding)</property>
  <property name="meta.media.1.codec.bit_rate">254937</property>
  <property name="meta.attr.1.stream.creation_time.markup">2015-09-05 10:00:30</property>
  <property name="meta.attr.1.stream.language.markup">eng</property>
  <property name="meta.attr.major_brand.markup">mp42</property>
  <property name="meta.attr.minor_version.markup">1</property>
  <property name="meta.attr.compatible_brands.markup">mp42avc1</property>
  <property name="meta.attr.creation_time.markup">2015-09-05 10:00:30</property>
  <property name="seekable">1</property>
  <property name="meta.media.sample_aspect_num">1</property>
  <property name="meta.media.sample_aspect_den">1</property>
  <property name="aspect_ratio">1</property>
  <property name="audio_index">1</property>
  <property name="video_index">0</property>
  <property name="mlt_service">avformat</property>
  <property name="meta.media.frame_rate_num">30000</property>
  <property name="meta.media.frame_rate_den">1001</property>
  <property name="meta.media.colorspace">709</property>
  <property name="meta.media.width">1280</property>
  <property name="meta.media.height">720</property>
  <property name="meta.media.top_field_first">0</property>
  <property name="meta.media.progressive">1</property>
 </producer>
 <playlist id="playlist4">
  <blank length="822"/>
  <entry in="4696" out="4788" producer="96_2"/>
  <blank length="172"/>
  <entry in="4154" out="4224" producer="96_2"/>
  <blank length="142"/>
  <entry in="2803" out="2897" producer="96_2"/>
  <blank length="92"/>
  <entry in="0" out="72" producer="98_2"/>
  <blank length="77"/>
  <entry in="35" out="174" producer="5_2"/>
  <blank length="109"/>
  <entry in="503" out="613" producer="180_2"/>
  <blank length="128"/>
  <entry in="746" out="931" producer="100_2"/>
  <blank length="278"/>
  <entry in="404" out="574" producer="8_2"/>
  <blank length="75"/>
  <entry in="914" out="989" producer="8_2"/>
  <blank length="113"/>
  <entry in="303" out="406" producer="18_2"/>
  <blank length="71"/>
  <entry in="736" out="864" producer="13_2"/>
  <blank length="40"/>
  <entry in="56" out="265" producer="102_2"/>
  <blank length="126"/>
  <entry in="93" out="186" producer="170_2"/>
  <blank length="131"/>
  <entry in="197" out="293" producer="173_2"/>
  <entry in="76" out="128" producer="29_2"/>
  <entry in="61" out="105" producer="31_2"/>
  <entry in="20" out="78" producer="30_2"/>
  <entry in="585" out="676" producer="62_2"/>
  <blank length="155"/>
  <entry in="84" out="205" producer="115_2"/>
  <blank length="51"/>
  <entry in="268" out="299" producer="50_2"/>
  <blank length="114"/>
  <entry in="195" out="321" producer="74_2"/>
  <blank length="148"/>
  <entry in="35" out="119" producer="77_2"/>
  <blank length="92"/>
  <entry in="333" out="398" producer="80_2"/>
  <blank length="103"/>
  <entry in="335" out="395" producer="58_2"/>
  <blank length="81"/>
  <entry in="0" out="92" producer="87_2"/>
  <blank length="210"/>
  <entry in="442" out="556" producer="55_2"/>
  <blank length="60"/>
  <entry in="91" out="151" producer="33_2"/>
  <blank length="88"/>
  <entry in="0" out="38" producer="40_2"/>
  <blank length="50"/>
  <entry in="116" out="174" producer="44_2"/>
  <blank length="166"/>
  <entry in="820" out="956" producer="159_2"/>
  <blank length="29"/>
  <entry in="0" out="321" producer="184_2"/>
  <blank length="681"/>
  <entry in="502" out="644" producer="73_2"/>
 </playlist>
 <producer in="0" out="1170" id="97_1">
  <property name="mlt_type">producer</property>
  <property name="length">1171</property>
  <property name="eof">pause</property>
  <property name="resource">Videos/EOTR 2015/VID_20150903_154538.mp4</property>
  <property name="meta.media.nb_streams">2</property>
  <property name="meta.media.0.stream.type">video</property>
  <property name="meta.media.0.stream.frame_rate">30.0082</property>
  <property name="meta.media.0.stream.sample_aspect_ratio">1</property>
  <property name="meta.media.0.codec.width">1920</property>
  <property name="meta.media.0.codec.height">1080</property>
  <property name="meta.media.0.codec.frame_rate">inf</property>
  <property name="meta.media.0.codec.pix_fmt">yuv420p</property>
  <property name="meta.media.0.codec.sample_aspect_ratio">0</property>
  <property name="meta.media.0.codec.colorspace">709</property>
  <property name="meta.media.0.codec.name">h264</property>
  <property name="meta.media.0.codec.long_name">H.264 / AVC / MPEG-4 AVC / MPEG-4 part 10</property>
  <property name="meta.media.0.codec.bit_rate">20011767</property>
  <property name="meta.attr.0.stream.creation_time.markup">2015-09-03 14:46:26</property>
  <property name="meta.attr.0.stream.language.markup">eng</property>
  <property name="meta.media.1.stream.type">audio</property>
  <property name="meta.media.1.codec.sample_fmt">fltp</property>
  <property name="meta.media.1.codec.sample_rate">48000</property>
  <property name="meta.media.1.codec.channels">2</property>
  <property name="meta.media.1.codec.name">aac</property>
  <property name="meta.media.1.codec.long_name">AAC (Advanced Audio Coding)</property>
  <property name="meta.media.1.codec.bit_rate">255839</property>
  <property name="meta.attr.1.stream.creation_time.markup">2015-09-03 14:46:26</property>
  <property name="meta.attr.1.stream.language.markup">eng</property>
  <property name="meta.attr.major_brand.markup">mp42</property>
  <property name="meta.attr.minor_version.markup">0</property>
  <property name="meta.attr.compatible_brands.markup">isommp42</property>
  <property name="meta.attr.creation_time.markup">2015-09-03 14:46:26</property>
  <property name="seekable">1</property>
  <property name="meta.media.sample_aspect_num">65536</property>
  <property name="meta.media.sample_aspect_den">65536</property>
  <property name="aspect_ratio">1</property>
  <property name="audio_index">1</property>
  <property name="video_index">0</property>
  <property name="mlt_service">avformat</property>
  <property name="meta.media.frame_rate_num">42120000</property>
  <property name="meta.media.frame_rate_den">1403617</property>
  <property name="meta.media.colorspace">709</property>
  <property name="meta.media.width">1920</property>
  <property name="meta.media.height">1080</property>
  <property name="meta.media.top_field_first">0</property>
  <property name="meta.media.progressive">1</property>
 </producer>
 <producer in="0" out="149" id="4_1">
  <property name="mlt_type">producer</property>
  <property name="length">150</property>
  <property name="eof">pause</property>
  <property name="resource">Videos/EOTR 2015/IMGA0123.MP4</property>
  <property name="meta.media.nb_streams">2</property>
  <property name="meta.media.0.stream.type">video</property>
  <property name="meta.media.0.stream.frame_rate">29.97</property>
  <property name="meta.media.0.stream.sample_aspect_ratio">0</property>
  <property name="meta.media.0.codec.width">1920</property>
  <property name="meta.media.0.codec.height">1080</property>
  <property name="meta.media.0.codec.frame_rate">29.97</property>
  <property name="meta.media.0.codec.pix_fmt">yuvj420p</property>
  <property name="meta.media.0.codec.sample_aspect_ratio">1</property>
  <property name="meta.media.0.codec.colorspace">709</property>
  <property name="meta.media.0.codec.name">h264</property>
  <property name="meta.media.0.codec.long_name">H.264 / AVC / MPEG-4 AVC / MPEG-4 part 10</property>
  <property name="meta.media.0.codec.bit_rate">16023453</property>
  <property name="meta.attr.0.stream.creation_time.markup">2015-09-03 15:36:28</property>
  <property name="meta.attr.0.stream.language.markup">eng</property>
  <property name="meta.media.1.stream.type">audio</property>
  <property name="meta.media.1.codec.sample_fmt">fltp</property>
  <property name="meta.media.1.codec.sample_rate">48000</property>
  <property name="meta.media.1.codec.channels">2</property>
  <property name="meta.media.1.codec.name">aac</property>
  <property name="meta.media.1.codec.long_name">AAC (Advanced Audio Coding)</property>
  <property name="meta.media.1.codec.bit_rate">253952</property>
  <property name="meta.attr.1.stream.creation_time.markup">2015-09-03 15:36:28</property>
  <property name="meta.attr.1.stream.language.markup">eng</property>
  <property name="meta.attr.major_brand.markup">mp42</property>
  <property name="meta.attr.minor_version.markup">1</property>
  <property name="meta.attr.compatible_brands.markup">mp42avc1</property>
  <property name="meta.attr.creation_time.markup">2015-09-03 15:36:28</property>
  <property name="seekable">1</property>
  <property name="meta.media.sample_aspect_num">1</property>
  <property name="meta.media.sample_aspect_den">1</property>
  <property name="aspect_ratio">1</property>
  <property name="audio_index">1</property>
  <property name="video_index">0</property>
  <property name="mlt_service">avformat</property>
  <property name="meta.media.frame_rate_num">30000</property>
  <property name="meta.media.frame_rate_den">1001</property>
  <property name="meta.media.colorspace">709</property>
  <property name="meta.media.width">1920</property>
  <property name="meta.media.height">1080</property>
  <property name="meta.media.top_field_first">0</property>
  <property name="meta.media.progressive">1</property>
 </producer>
 <producer in="0" out="1950" id="7_1">
  <property name="mlt_type">producer</property>
  <property name="length">1951</property>
  <property name="eof">pause</property>
  <property name="resource">Videos/EOTR 2015/IMGA0126.MP4</property>
  <property name="meta.media.nb_streams">2</property>
  <property name="meta.media.0.stream.type">video</property>
  <property name="meta.media.0.stream.frame_rate">29.97</property>
  <property name="meta.media.0.stream.sample_aspect_ratio">0</property>
  <property name="meta.media.0.codec.width">1920</property>
  <property name="meta.media.0.codec.height">1080</property>
  <property name="meta.media.0.codec.frame_rate">29.97</property>
  <property name="meta.media.0.codec.pix_fmt">yuvj420p</property>
  <property name="meta.media.0.codec.sample_aspect_ratio">1</property>
  <property name="meta.media.0.codec.colorspace">709</property>
  <property name="meta.media.0.codec.name">h264</property>
  <property name="meta.media.0.codec.long_name">H.264 / AVC / MPEG-4 AVC / MPEG-4 part 10</property>
  <property name="meta.media.0.codec.bit_rate">15834629</property>
  <property name="meta.attr.0.stream.creation_time.markup">2015-09-03 16:25:07</property>
  <property name="meta.attr.0.stream.language.markup">eng</property>
  <property name="meta.media.1.stream.type">audio</property>
  <property name="meta.media.1.codec.sample_fmt">fltp</property>
  <property name="meta.media.1.codec.sample_rate">48000</property>
  <property name="meta.media.1.codec.channels">2</property>
  <property name="meta.media.1.codec.name">aac</property>
  <property name="meta.media.1.codec.long_name">AAC (Advanced Audio Coding)</property>
  <property name="meta.media.1.codec.bit_rate">255336</property>
  <property name="meta.attr.1.stream.creation_time.markup">2015-09-03 16:25:07</property>
  <property name="meta.attr.1.stream.language.markup">eng</property>
  <property name="meta.attr.major_brand.markup">mp42</property>
  <property name="meta.attr.minor_version.markup">1</property>
  <property name="meta.attr.compatible_brands.markup">mp42avc1</property>
  <property name="meta.attr.creation_time.markup">2015-09-03 16:25:07</property>
  <property name="seekable">1</property>
  <property name="meta.media.sample_aspect_num">1</property>
  <property name="meta.media.sample_aspect_den">1</property>
  <property name="aspect_ratio">1</property>
  <property name="audio_index">1</property>
  <property name="video_index">0</property>
  <property name="mlt_service">avformat</property>
  <property name="meta.media.frame_rate_num">30000</property>
  <property name="meta.media.frame_rate_den">1001</property>
  <property name="meta.media.colorspace">709</property>
  <property name="meta.media.width">1920</property>
  <property name="meta.media.height">1080</property>
  <property name="meta.media.top_field_first">0</property>
  <property name="meta.media.progressive">1</property>
 </producer>
 <producer in="0" out="621" id="130_1">
  <property name="mlt_type">producer</property>
  <property name="length">622</property>
  <property name="eof">pause</property>
  <property name="resource">Videos/EOTR 2015/VID_20150905_092258.mp4</property>
  <property name="meta.media.nb_streams">2</property>
  <property name="meta.media.0.stream.type">video</property>
  <property name="meta.media.0.stream.frame_rate">30.0085</property>
  <property name="meta.media.0.stream.sample_aspect_ratio">1</property>
  <property name="meta.media.0.codec.width">1920</property>
  <property name="meta.media.0.codec.height">1080</property>
  <property name="meta.media.0.codec.frame_rate">inf</property>
  <property name="meta.media.0.codec.pix_fmt">yuv420p</property>
  <property name="meta.media.0.codec.sample_aspect_ratio">0</property>
  <property name="meta.media.0.codec.colorspace">709</property>
  <property name="meta.media.0.codec.name">h264</property>
  <property name="meta.media.0.codec.long_name">H.264 / AVC / MPEG-4 AVC / MPEG-4 part 10</property>
  <property name="meta.media.0.codec.bit_rate">19956100</property>
  <property name="meta.attr.0.stream.creation_time.markup">2015-09-05 08:23:24</property>
  <property name="meta.attr.0.stream.language.markup">eng</property>
  <property name="meta.media.1.stream.type">audio</property>
  <property name="meta.media.1.codec.sample_fmt">fltp</property>
  <property name="meta.media.1.codec.sample_rate">48000</property>
  <property name="meta.media.1.codec.channels">2</property>
  <property name="meta.media.1.codec.name">aac</property>
  <property name="meta.media.1.codec.long_name">AAC (Advanced Audio Coding)</property>
  <property name="meta.media.1.codec.bit_rate">254997</property>
  <property name="meta.attr.1.stream.creation_time.markup">2015-09-05 08:23:24</property>
  <property name="meta.attr.1.stream.language.markup">eng</property>
  <property name="meta.attr.major_brand.markup">mp42</property>
  <property name="meta.attr.minor_version.markup">0</property>
  <property name="meta.attr.compatible_brands.markup">isommp42</property>
  <property name="meta.attr.creation_time.markup">2015-09-05 08:23:24</property>
  <property name="seekable">1</property>
  <property name="meta.media.sample_aspect_num">65536</property>
  <property name="meta.media.sample_aspect_den">65536</property>
  <property name="aspect_ratio">1</property>
  <property name="audio_index">1</property>
  <property name="video_index">0</property>
  <property name="mlt_service">avformat</property>
  <property name="meta.media.frame_rate_num">5602500</property>
  <property name="meta.media.frame_rate_den">186697</property>
  <property name="meta.media.colorspace">709</property>
  <property name="meta.media.width">1920</property>
  <property name="meta.media.height">1080</property>
  <property name="meta.media.top_field_first">0</property>
  <property name="meta.media.progressive">1</property>
 </producer>
 <producer in="0" out="1162" id="100_1">
  <property name="mlt_type">producer</property>
  <property name="length">1163</property>
  <property name="eof">pause</property>
  <property name="resource">Videos/EOTR 2015/VID_20150903_170750.mp4</property>
  <property name="meta.media.nb_streams">2</property>
  <property name="meta.media.0.stream.type">video</property>
  <property name="meta.media.0.stream.frame_rate">30.0082</property>
  <property name="meta.media.0.stream.sample_aspect_ratio">1</property>
  <property name="meta.media.0.codec.width">1920</property>
  <property name="meta.media.0.codec.height">1080</property>
  <property name="meta.media.0.codec.frame_rate">inf</property>
  <property name="meta.media.0.codec.pix_fmt">yuv420p</property>
  <property name="meta.media.0.codec.sample_aspect_ratio">0</property>
  <property name="meta.media.0.codec.colorspace">709</property>
  <property name="meta.media.0.codec.name">h264</property>
  <property name="meta.media.0.codec.long_name">H.264 / AVC / MPEG-4 AVC / MPEG-4 part 10</property>
  <property name="meta.media.0.codec.bit_rate">19987100</property>
  <property name="meta.attr.0.stream.creation_time.markup">2015-09-03 16:08:37</property>
  <property name="meta.attr.0.stream.language.markup">eng</property>
  <property name="meta.media.1.stream.type">audio</property>
  <property name="meta.media.1.codec.sample_fmt">fltp</property>
  <property name="meta.media.1.codec.sample_rate">48000</property>
  <property name="meta.media.1.codec.channels">2</property>
  <property name="meta.media.1.codec.name">aac</property>
  <property name="meta.media.1.codec.long_name">AAC (Advanced Audio Coding)</property>
  <property name="meta.media.1.codec.bit_rate">255285</property>
  <property name="meta.attr.1.stream.creation_time.markup">2015-09-03 16:08:37</property>
  <property name="meta.attr.1.stream.language.markup">eng</property>
  <property name="meta.attr.major_brand.markup">mp42</property>
  <property name="meta.attr.minor_version.markup">0</property>
  <property name="meta.attr.compatible_brands.markup">isommp42</property>
  <property name="meta.attr.creation_time.markup">2015-09-03 16:08:37</property>
  <property name="seekable">1</property>
  <property name="meta.media.sample_aspect_num">65536</property>
  <property name="meta.media.sample_aspect_den">65536</property>
  <property name="aspect_ratio">1</property>
  <property name="audio_index">1</property>
  <property name="video_index">0</property>
  <property name="mlt_service">avformat</property>
  <property name="meta.media.frame_rate_num">2511000</property>
  <property name="meta.media.frame_rate_den">83677</property>
  <property name="meta.media.colorspace">709</property>
  <property name="meta.media.width">1920</property>
  <property name="meta.media.height">1080</property>
  <property name="meta.media.top_field_first">0</property>
  <property name="meta.media.progressive">1</property>
 </producer>
 <producer in="0" out="749" id="18_1">
  <property name="mlt_type">producer</property>
  <property name="length">750</property>
  <property name="eof">pause</property>
  <property name="resource">Videos/EOTR 2015/IMGA0137.MP4</property>
  <property name="meta.media.nb_streams">2</property>
  <property name="meta.media.0.stream.type">video</property>
  <property name="meta.media.0.stream.frame_rate">29.97</property>
  <property name="meta.media.0.stream.sample_aspect_ratio">0</property>
  <property name="meta.media.0.codec.width">1920</property>
  <property name="meta.media.0.codec.height">1080</property>
  <property name="meta.media.0.codec.frame_rate">29.97</property>
  <property name="meta.media.0.codec.pix_fmt">yuvj420p</property>
  <property name="meta.media.0.codec.sample_aspect_ratio">1</property>
  <property name="meta.media.0.codec.colorspace">709</property>
  <property name="meta.media.0.codec.name">h264</property>
  <property name="meta.media.0.codec.long_name">H.264 / AVC / MPEG-4 AVC / MPEG-4 part 10</property>
  <property name="meta.media.0.codec.bit_rate">15420860</property>
  <property name="meta.attr.0.stream.creation_time.markup">2015-09-03 18:29:12</property>
  <property name="meta.attr.0.stream.language.markup">eng</property>
  <property name="meta.media.1.stream.type">audio</property>
  <property name="meta.media.1.codec.sample_fmt">fltp</property>
  <property name="meta.media.1.codec.sample_rate">48000</property>
  <property name="meta.media.1.codec.channels">2</property>
  <property name="meta.media.1.codec.name">aac</property>
  <property name="meta.media.1.codec.long_name">AAC (Advanced Audio Coding)</property>
  <property name="meta.media.1.codec.bit_rate">255262</property>
  <property name="meta.attr.1.stream.creation_time.markup">2015-09-03 18:29:12</property>
  <property name="meta.attr.1.stream.language.markup">eng</property>
  <property name="meta.attr.major_brand.markup">mp42</property>
  <property name="meta.attr.minor_version.markup">1</property>
  <property name="meta.attr.compatible_brands.markup">mp42avc1</property>
  <property name="meta.attr.creation_time.markup">2015-09-03 18:29:12</property>
  <property name="seekable">1</property>
  <property name="meta.media.sample_aspect_num">1</property>
  <property name="meta.media.sample_aspect_den">1</property>
  <property name="aspect_ratio">1</property>
  <property name="audio_index">1</property>
  <property name="video_index">0</property>
  <property name="mlt_service">avformat</property>
  <property name="meta.media.frame_rate_num">30000</property>
  <property name="meta.media.frame_rate_den">1001</property>
  <property name="meta.media.colorspace">709</property>
  <property name="meta.media.width">1920</property>
  <property name="meta.media.height">1080</property>
  <property name="meta.media.top_field_first">0</property>
  <property name="meta.media.progressive">1</property>
 </producer>
 <producer in="0" out="1550" id="107_1">
  <property name="mlt_type">producer</property>
  <property name="length">1551</property>
  <property name="eof">pause</property>
  <property name="resource">Videos/EOTR 2015/VID_20150903_201934.mp4</property>
  <property name="meta.media.nb_streams">2</property>
  <property name="meta.media.0.stream.type">video</property>
  <property name="meta.media.0.stream.frame_rate">30.0086</property>
  <property name="meta.media.0.stream.sample_aspect_ratio">1</property>
  <property name="meta.media.0.codec.width">1920</property>
  <property name="meta.media.0.codec.height">1080</property>
  <property name="meta.media.0.codec.frame_rate">inf</property>
  <property name="meta.media.0.codec.pix_fmt">yuv420p</property>
  <property name="meta.media.0.codec.sample_aspect_ratio">0</property>
  <property name="meta.media.0.codec.colorspace">709</property>
  <property name="meta.media.0.codec.name">h264</property>
  <property name="meta.media.0.codec.long_name">H.264 / AVC / MPEG-4 AVC / MPEG-4 part 10</property>
  <property name="meta.media.0.codec.bit_rate">19997598</property>
  <property name="meta.attr.0.stream.creation_time.markup">2015-09-03 19:20:37</property>
  <property name="meta.attr.0.stream.language.markup">eng</property>
  <property name="meta.media.1.stream.type">audio</property>
  <property name="meta.media.1.codec.sample_fmt">fltp</property>
  <property name="meta.media.1.codec.sample_rate">48000</property>
  <property name="meta.media.1.codec.channels">2</property>
  <property name="meta.media.1.codec.name">aac</property>
  <property name="meta.media.1.codec.long_name">AAC (Advanced Audio Coding)</property>
  <property name="meta.media.1.codec.bit_rate">255399</property>
  <property name="meta.attr.1.stream.creation_time.markup">2015-09-03 19:20:37</property>
  <property name="meta.attr.1.stream.language.markup">eng</property>
  <property name="meta.attr.major_brand.markup">mp42</property>
  <property name="meta.attr.minor_version.markup">0</property>
  <property name="meta.attr.compatible_brands.markup">isommp42</property>
  <property name="meta.attr.creation_time.markup">2015-09-03 19:20:37</property>
  <property name="seekable">1</property>
  <property name="meta.media.sample_aspect_num">65536</property>
  <property name="meta.media.sample_aspect_den">65536</property>
  <property name="aspect_ratio">1</property>
  <property name="audio_index">1</property>
  <property name="video_index">0</property>
  <property name="mlt_service">avformat</property>
  <property name="meta.media.frame_rate_num">83790000</property>
  <property name="meta.media.frame_rate_den">2792197</property>
  <property name="meta.media.colorspace">709</property>
  <property name="meta.media.width">1920</property>
  <property name="meta.media.height">1080</property>
  <property name="meta.media.top_field_first">0</property>
  <property name="meta.media.progressive">1</property>
 </producer>
 <producer in="0" out="1045" id="113_1">
  <property name="mlt_type">producer</property>
  <property name="length">1046</property>
  <property name="eof">pause</property>
  <property name="resource">Videos/EOTR 2015/VID_20150904_181757.mp4</property>
  <property name="meta.media.nb_streams">2</property>
  <property name="meta.media.0.stream.type">video</property>
  <property name="meta.media.0.stream.frame_rate">30.0084</property>
  <property name="meta.media.0.stream.sample_aspect_ratio">1</property>
  <property name="meta.media.0.codec.width">1920</property>
  <property name="meta.media.0.codec.height">1080</property>
  <property name="meta.media.0.codec.frame_rate">inf</property>
  <property name="meta.media.0.codec.pix_fmt">yuv420p</property>
  <property name="meta.media.0.codec.sample_aspect_ratio">0</property>
  <property name="meta.media.0.codec.colorspace">709</property>
  <property name="meta.media.0.codec.name">h264</property>
  <property name="meta.media.0.codec.long_name">H.264 / AVC / MPEG-4 AVC / MPEG-4 part 10</property>
  <property name="meta.media.0.codec.bit_rate">19975376</property>
  <property name="meta.attr.0.stream.creation_time.markup">2015-09-04 17:18:39</property>
  <property name="meta.attr.0.stream.language.markup">eng</property>
  <property name="meta.media.1.stream.type">audio</property>
  <property name="meta.media.1.codec.sample_fmt">fltp</property>
  <property name="meta.media.1.codec.sample_rate">48000</property>
  <property name="meta.media.1.codec.channels">2</property>
  <property name="meta.media.1.codec.name">aac</property>
  <property name="meta.media.1.codec.long_name">AAC (Advanced Audio Coding)</property>
  <property name="meta.media.1.codec.bit_rate">255883</property>
  <property name="meta.attr.1.stream.creation_time.markup">2015-09-04 17:18:39</property>
  <property name="meta.attr.1.stream.language.markup">eng</property>
  <property name="meta.attr.major_brand.markup">mp42</property>
  <property name="meta.attr.minor_version.markup">0</property>
  <property name="meta.attr.compatible_brands.markup">isommp42</property>
  <property name="meta.attr.creation_time.markup">2015-09-04 17:18:39</property>
  <property name="seekable">1</property>
  <property name="meta.media.sample_aspect_num">65536</property>
  <property name="meta.media.sample_aspect_den">65536</property>
  <property name="aspect_ratio">1</property>
  <property name="audio_index">1</property>
  <property name="video_index">0</property>
  <property name="mlt_service">avformat</property>
  <property name="meta.media.frame_rate_num">251200</property>
  <property name="meta.media.frame_rate_den">8371</property>
  <property name="meta.media.colorspace">709</property>
  <property name="meta.media.width">1920</property>
  <property name="meta.media.height">1080</property>
  <property name="meta.media.top_field_first">0</property>
  <property name="meta.media.progressive">1</property>
 </producer>
 <producer in="0" out="417" id="169_1">
  <property name="mlt_type">producer</property>
  <property name="length">418</property>
  <property name="eof">pause</property>
  <property name="resource">Videos/EOTR 2015/VID_20150906_115844.mp4</property>
  <property name="meta.media.nb_streams">2</property>
  <property name="meta.media.0.stream.type">video</property>
  <property name="meta.media.0.stream.frame_rate">30.0086</property>
  <property name="meta.media.0.stream.sample_aspect_ratio">1</property>
  <property name="meta.media.0.codec.width">1920</property>
  <property name="meta.media.0.codec.height">1080</property>
  <property name="meta.media.0.codec.frame_rate">inf</property>
  <property name="meta.media.0.codec.pix_fmt">yuv420p</property>
  <property name="meta.media.0.codec.sample_aspect_ratio">0</property>
  <property name="meta.media.0.codec.colorspace">709</property>
  <property name="meta.media.0.codec.name">h264</property>
  <property name="meta.media.0.codec.long_name">H.264 / AVC / MPEG-4 AVC / MPEG-4 part 10</property>
  <property name="meta.media.0.codec.bit_rate">19989473</property>
  <property name="meta.attr.0.stream.creation_time.markup">2015-09-06 10:59:01</property>
  <property name="meta.attr.0.stream.language.markup">eng</property>
  <property name="meta.media.1.stream.type">audio</property>
  <property name="meta.media.1.codec.sample_fmt">fltp</property>
  <property name="meta.media.1.codec.sample_rate">48000</property>
  <property name="meta.media.1.codec.channels">2</property>
  <property name="meta.media.1.codec.name">aac</property>
  <property name="meta.media.1.codec.long_name">AAC (Advanced Audio Coding)</property>
  <property name="meta.media.1.codec.bit_rate">255381</property>
  <property name="meta.attr.1.stream.creation_time.markup">2015-09-06 10:59:01</property>
  <property name="meta.attr.1.stream.language.markup">eng</property>
  <property name="meta.attr.major_brand.markup">mp42</property>
  <property name="meta.attr.minor_version.markup">0</property>
  <property name="meta.attr.compatible_brands.markup">isommp42</property>
  <property name="meta.attr.creation_time.markup">2015-09-06 10:59:01</property>
  <property name="seekable">1</property>
  <property name="meta.media.sample_aspect_num">65536</property>
  <property name="meta.media.sample_aspect_den">65536</property>
  <property name="aspect_ratio">1</property>
  <property name="audio_index">1</property>
  <property name="video_index">0</property>
  <property name="mlt_service">avformat</property>
  <property name="meta.media.frame_rate_num">45180000</property>
  <property name="meta.media.frame_rate_den">1505567</property>
  <property name="meta.media.colorspace">709</property>
  <property name="meta.media.width">1920</property>
  <property name="meta.media.height">1080</property>
  <property name="meta.media.top_field_first">0</property>
  <property name="meta.media.progressive">1</property>
 </producer>
 <producer in="0" out="1075" id="51_1">
  <property name="mlt_type">producer</property>
  <property name="length">1076</property>
  <property name="eof">pause</property>
  <property name="resource">Videos/EOTR 2015/IMGA0170.MP4</property>
  <property name="meta.media.nb_streams">2</property>
  <property name="meta.media.0.stream.type">video</property>
  <property name="meta.media.0.stream.frame_rate">29.97</property>
  <property name="meta.media.0.stream.sample_aspect_ratio">0</property>
  <property name="meta.media.0.codec.width">1280</property>
  <property name="meta.media.0.codec.height">720</property>
  <property name="meta.media.0.codec.frame_rate">29.97</property>
  <property name="meta.media.0.codec.pix_fmt">yuvj420p</property>
  <property name="meta.media.0.codec.sample_aspect_ratio">1</property>
  <property name="meta.media.0.codec.colorspace">709</property>
  <property name="meta.media.0.codec.name">h264</property>
  <property name="meta.media.0.codec.long_name">H.264 / AVC / MPEG-4 AVC / MPEG-4 part 10</property>
  <property name="meta.media.0.codec.bit_rate">9788892</property>
  <property name="meta.attr.0.stream.creation_time.markup">2015-09-04 11:01:21</property>
  <property name="meta.attr.0.stream.language.markup">eng</property>
  <property name="meta.media.1.stream.type">audio</property>
  <property name="meta.media.1.codec.sample_fmt">fltp</property>
  <property name="meta.media.1.codec.sample_rate">48000</property>
  <property name="meta.media.1.codec.channels">2</property>
  <property name="meta.media.1.codec.name">aac</property>
  <property name="meta.media.1.codec.long_name">AAC (Advanced Audio Coding)</property>
  <property name="meta.media.1.codec.bit_rate">255337</property>
  <property name="meta.attr.1.stream.creation_time.markup">2015-09-04 11:01:21</property>
  <property name="meta.attr.1.stream.language.markup">eng</property>
  <property name="meta.attr.major_brand.markup">mp42</property>
  <property name="meta.attr.minor_version.markup">1</property>
  <property name="meta.attr.compatible_brands.markup">mp42avc1</property>
  <property name="meta.attr.creation_time.markup">2015-09-04 11:01:21</property>
  <property name="seekable">1</property>
  <property name="meta.media.sample_aspect_num">1</property>
  <property name="meta.media.sample_aspect_den">1</property>
  <property name="aspect_ratio">1</property>
  <property name="audio_index">1</property>
  <property name="video_index">0</property>
  <property name="mlt_service">avformat</property>
  <property name="meta.media.frame_rate_num">30000</property>
  <property name="meta.media.frame_rate_den">1001</property>
  <property name="meta.media.colorspace">709</property>
  <property name="meta.media.width">1280</property>
  <property name="meta.media.height">720</property>
  <property name="meta.media.top_field_first">0</property>
  <property name="meta.media.progressive">1</property>
 </producer>
 <producer in="0" out="349" id="85_1">
  <property name="mlt_type">producer</property>
  <property name="length">350</property>
  <property name="eof">pause</property>
  <property name="resource">Videos/EOTR 2015/IMGA0204.MP4</property>
  <property name="meta.media.nb_streams">2</property>
  <property name="meta.media.0.stream.type">video</property>
  <property name="meta.media.0.stream.frame_rate">29.97</property>
  <property name="meta.media.0.stream.sample_aspect_ratio">0</property>
  <property name="meta.media.0.codec.width">1280</property>
  <property name="meta.media.0.codec.height">720</property>
  <property name="meta.media.0.codec.frame_rate">29.97</property>
  <property name="meta.media.0.codec.pix_fmt">yuvj420p</property>
  <property name="meta.media.0.codec.sample_aspect_ratio">1</property>
  <property name="meta.media.0.codec.colorspace">709</property>
  <property name="meta.media.0.codec.name">h264</property>
  <property name="meta.media.0.codec.long_name">H.264 / AVC / MPEG-4 AVC / MPEG-4 part 10</property>
  <property name="meta.media.0.codec.bit_rate">9149949</property>
  <property name="meta.attr.0.stream.creation_time.markup">2015-09-05 11:11:44</property>
  <property name="meta.attr.0.stream.language.markup">eng</property>
  <property name="meta.media.1.stream.type">audio</property>
  <property name="meta.media.1.codec.sample_fmt">fltp</property>
  <property name="meta.media.1.codec.sample_rate">48000</property>
  <property name="meta.media.1.codec.channels">2</property>
  <property name="meta.media.1.codec.name">aac</property>
  <property name="meta.media.1.codec.long_name">AAC (Advanced Audio Coding)</property>
  <property name="meta.media.1.codec.bit_rate">255111</property>
  <property name="meta.attr.1.stream.creation_time.markup">2015-09-05 11:11:44</property>
  <property name="meta.attr.1.stream.language.markup">eng</property>
  <property name="meta.attr.major_brand.markup">mp42</property>
  <property name="meta.attr.minor_version.markup">1</property>
  <property name="meta.attr.compatible_brands.markup">mp42avc1</property>
  <property name="meta.attr.creation_time.markup">2015-09-05 11:11:44</property>
  <property name="seekable">1</property>
  <property name="meta.media.sample_aspect_num">1</property>
  <property name="meta.media.sample_aspect_den">1</property>
  <property name="aspect_ratio">1</property>
  <property name="audio_index">1</property>
  <property name="video_index">0</property>
  <property name="mlt_service">avformat</property>
  <property name="meta.media.frame_rate_num">30000</property>
  <property name="meta.media.frame_rate_den">1001</property>
  <property name="meta.media.colorspace">709</property>
  <property name="meta.media.width">1280</property>
  <property name="meta.media.height">720</property>
  <property name="meta.media.top_field_first">0</property>
  <property name="meta.media.progressive">1</property>
 </producer>
 <producer in="0" out="1775" id="55_1">
  <property name="mlt_type">producer</property>
  <property name="length">1776</property>
  <property name="eof">pause</property>
  <property name="resource">Videos/EOTR 2015/IMGA0174.MP4</property>
  <property name="meta.media.nb_streams">2</property>
  <property name="meta.media.0.stream.type">video</property>
  <property name="meta.media.0.stream.frame_rate">29.97</property>
  <property name="meta.media.0.stream.sample_aspect_ratio">0</property>
  <property name="meta.media.0.codec.width">1280</property>
  <property name="meta.media.0.codec.height">720</property>
  <property name="meta.media.0.codec.frame_rate">29.97</property>
  <property name="meta.media.0.codec.pix_fmt">yuvj420p</property>
  <property name="meta.media.0.codec.sample_aspect_ratio">1</property>
  <property name="meta.media.0.codec.colorspace">709</property>
  <property name="meta.media.0.codec.name">h264</property>
  <property name="meta.media.0.codec.long_name">H.264 / AVC / MPEG-4 AVC / MPEG-4 part 10</property>
  <property name="meta.media.0.codec.bit_rate">9598528</property>
  <property name="meta.attr.0.stream.creation_time.markup">2015-09-04 11:16:58</property>
  <property name="meta.attr.0.stream.language.markup">eng</property>
  <property name="meta.media.1.stream.type">audio</property>
  <property name="meta.media.1.codec.sample_fmt">fltp</property>
  <property name="meta.media.1.codec.sample_rate">48000</property>
  <property name="meta.media.1.codec.channels">2</property>
  <property name="meta.media.1.codec.name">aac</property>
  <property name="meta.media.1.codec.long_name">AAC (Advanced Audio Coding)</property>
  <property name="meta.media.1.codec.bit_rate">255336</property>
  <property name="meta.attr.1.stream.creation_time.markup">2015-09-04 11:16:58</property>
  <property name="meta.attr.1.stream.language.markup">eng</property>
  <property name="meta.attr.major_brand.markup">mp42</property>
  <property name="meta.attr.minor_version.markup">1</property>
  <property name="meta.attr.compatible_brands.markup">mp42avc1</property>
  <property name="meta.attr.creation_time.markup">2015-09-04 11:16:58</property>
  <property name="seekable">1</property>
  <property name="meta.media.sample_aspect_num">1</property>
  <property name="meta.media.sample_aspect_den">1</property>
  <property name="aspect_ratio">1</property>
  <property name="audio_index">1</property>
  <property name="video_index">0</property>
  <property name="mlt_service">avformat</property>
  <property name="meta.media.frame_rate_num">30000</property>
  <property name="meta.media.frame_rate_den">1001</property>
  <property name="meta.media.colorspace">709</property>
  <property name="meta.media.width">1280</property>
  <property name="meta.media.height">720</property>
  <property name="meta.media.top_field_first">0</property>
  <property name="meta.media.progressive">1</property>
 </producer>
 <producer in="0" out="774" id="88_1">
  <property name="mlt_type">producer</property>
  <property name="length">775</property>
  <property name="eof">pause</property>
  <property name="resource">Videos/EOTR 2015/IMGA0207.MP4</property>
  <property name="meta.media.nb_streams">2</property>
  <property name="meta.media.0.stream.type">video</property>
  <property name="meta.media.0.stream.frame_rate">29.97</property>
  <property name="meta.media.0.stream.sample_aspect_ratio">0</property>
  <property name="meta.media.0.codec.width">1280</property>
  <property name="meta.media.0.codec.height">720</property>
  <property name="meta.media.0.codec.frame_rate">29.97</property>
  <property name="meta.media.0.codec.pix_fmt">yuvj420p</property>
  <property name="meta.media.0.codec.sample_aspect_ratio">1</property>
  <property name="meta.media.0.codec.colorspace">709</property>
  <property name="meta.media.0.codec.name">h264</property>
  <property name="meta.media.0.codec.long_name">H.264 / AVC / MPEG-4 AVC / MPEG-4 part 10</property>
  <property name="meta.media.0.codec.bit_rate">9365437</property>
  <property name="meta.attr.0.stream.creation_time.markup">2015-09-05 11:41:47</property>
  <property name="meta.attr.0.stream.language.markup">eng</property>
  <property name="meta.media.1.stream.type">audio</property>
  <property name="meta.media.1.codec.sample_fmt">fltp</property>
  <property name="meta.media.1.codec.sample_rate">48000</property>
  <property name="meta.media.1.codec.channels">2</property>
  <property name="meta.media.1.codec.name">aac</property>
  <property name="meta.media.1.codec.long_name">AAC (Advanced Audio Coding)</property>
  <property name="meta.media.1.codec.bit_rate">255287</property>
  <property name="meta.attr.1.stream.creation_time.markup">2015-09-05 11:41:47</property>
  <property name="meta.attr.1.stream.language.markup">eng</property>
  <property name="meta.attr.major_brand.markup">mp42</property>
  <property name="meta.attr.minor_version.markup">1</property>
  <property name="meta.attr.compatible_brands.markup">mp42avc1</property>
  <property name="meta.attr.creation_time.markup">2015-09-05 11:41:47</property>
  <property name="seekable">1</property>
  <property name="meta.media.sample_aspect_num">1</property>
  <property name="meta.media.sample_aspect_den">1</property>
  <property name="aspect_ratio">1</property>
  <property name="audio_index">1</property>
  <property name="video_index">0</property>
  <property name="mlt_service">avformat</property>
  <property name="meta.media.frame_rate_num">30000</property>
  <property name="meta.media.frame_rate_den">1001</property>
  <property name="meta.media.colorspace">709</property>
  <property name="meta.media.width">1280</property>
  <property name="meta.media.height">720</property>
  <property name="meta.media.top_field_first">0</property>
  <property name="meta.media.progressive">1</property>
 </producer>
 <producer in="0" out="374" id="24_1">
  <property name="mlt_type">producer</property>
  <property name="length">375</property>
  <property name="eof">pause</property>
  <property name="resource">Videos/EOTR 2015/IMGA0143.MP4</property>
  <property name="meta.media.nb_streams">2</property>
  <property name="meta.media.0.stream.type">video</property>
  <property name="meta.media.0.stream.frame_rate">29.97</property>
  <property name="meta.media.0.stream.sample_aspect_ratio">0</property>
  <property name="meta.media.0.codec.width">1920</property>
  <property name="meta.media.0.codec.height">1080</property>
  <property name="meta.media.0.codec.frame_rate">29.97</property>
  <property name="meta.media.0.codec.pix_fmt">yuvj420p</property>
  <property name="meta.media.0.codec.sample_aspect_ratio">1</property>
  <property name="meta.media.0.codec.colorspace">709</property>
  <property name="meta.media.0.codec.name">h264</property>
  <property name="meta.media.0.codec.long_name">H.264 / AVC / MPEG-4 AVC / MPEG-4 part 10</property>
  <property name="meta.media.0.codec.bit_rate">18476793</property>
  <property name="meta.attr.0.stream.creation_time.markup">2015-09-04 09:17:44</property>
  <property name="meta.attr.0.stream.language.markup">eng</property>
  <property name="meta.media.1.stream.type">audio</property>
  <property name="meta.media.1.codec.sample_fmt">fltp</property>
  <property name="meta.media.1.codec.sample_rate">48000</property>
  <property name="meta.media.1.codec.channels">2</property>
  <property name="meta.media.1.codec.name">aac</property>
  <property name="meta.media.1.codec.long_name">AAC (Advanced Audio Coding)</property>
  <property name="meta.media.1.codec.bit_rate">255259</property>
  <property name="meta.attr.1.stream.creation_time.markup">2015-09-04 09:17:44</property>
  <property name="meta.attr.1.stream.language.markup">eng</property>
  <property name="meta.attr.major_brand.markup">mp42</property>
  <property name="meta.attr.minor_version.markup">1</property>
  <property name="meta.attr.compatible_brands.markup">mp42avc1</property>
  <property name="meta.attr.creation_time.markup">2015-09-04 09:17:44</property>
  <property name="seekable">1</property>
  <property name="meta.media.sample_aspect_num">1</property>
  <property name="meta.media.sample_aspect_den">1</property>
  <property name="aspect_ratio">1</property>
  <property name="audio_index">1</property>
  <property name="video_index">0</property>
  <property name="mlt_service">avformat</property>
  <property name="meta.media.frame_rate_num">30000</property>
  <property name="meta.media.frame_rate_den">1001</property>
  <property name="meta.media.colorspace">709</property>
  <property name="meta.media.width">1920</property>
  <property name="meta.media.height">1080</property>
  <property name="meta.media.top_field_first">0</property>
  <property name="meta.media.progressive">1</property>
 </producer>
 <producer in="0" out="701" id="36_1">
  <property name="mlt_type">producer</property>
  <property name="length">702</property>
  <property name="eof">pause</property>
  <property name="resource">Videos/EOTR 2015/IMGA0155.MP4</property>
  <property name="meta.media.nb_streams">2</property>
  <property name="meta.media.0.stream.type">video</property>
  <property name="meta.media.0.stream.frame_rate">29.97</property>
  <property name="meta.media.0.stream.sample_aspect_ratio">0</property>
  <property name="meta.media.0.codec.width">1920</property>
  <property name="meta.media.0.codec.height">1080</property>
  <property name="meta.media.0.codec.frame_rate">29.97</property>
  <property name="meta.media.0.codec.pix_fmt">yuvj420p</property>
  <property name="meta.media.0.codec.sample_aspect_ratio">1</property>
  <property name="meta.media.0.codec.colorspace">709</property>
  <property name="meta.media.0.codec.name">h264</property>
  <property name="meta.media.0.codec.long_name">H.264 / AVC / MPEG-4 AVC / MPEG-4 part 10</property>
  <property name="meta.media.0.codec.bit_rate">16812428</property>
  <property name="meta.attr.0.stream.creation_time.markup">2015-09-04 09:40:24</property>
  <property name="meta.attr.0.stream.language.markup">eng</property>
  <property name="meta.media.1.stream.type">audio</property>
  <property name="meta.media.1.codec.sample_fmt">fltp</property>
  <property name="meta.media.1.codec.sample_rate">48000</property>
  <property name="meta.media.1.codec.channels">2</property>
  <property name="meta.media.1.codec.name">aac</property>
  <property name="meta.media.1.codec.long_name">AAC (Advanced Audio Coding)</property>
  <property name="meta.media.1.codec.bit_rate">255298</property>
  <property name="meta.attr.1.stream.creation_time.markup">2015-09-04 09:40:24</property>
  <property name="meta.attr.1.stream.language.markup">eng</property>
  <property name="meta.attr.major_brand.markup">mp42</property>
  <property name="meta.attr.minor_version.markup">1</property>
  <property name="meta.attr.compatible_brands.markup">mp42avc1</property>
  <property name="meta.attr.creation_time.markup">2015-09-04 09:40:24</property>
  <property name="seekable">1</property>
  <property name="meta.media.sample_aspect_num">1</property>
  <property name="meta.media.sample_aspect_den">1</property>
  <property name="aspect_ratio">1</property>
  <property name="audio_index">1</property>
  <property name="video_index">0</property>
  <property name="mlt_service">avformat</property>
  <property name="meta.media.frame_rate_num">30000</property>
  <property name="meta.media.frame_rate_den">1001</property>
  <property name="meta.media.colorspace">709</property>
  <property name="meta.media.width">1920</property>
  <property name="meta.media.height">1080</property>
  <property name="meta.media.top_field_first">0</property>
  <property name="meta.media.progressive">1</property>
 </producer>
 <producer in="0" out="849" id="43_1">
  <property name="mlt_type">producer</property>
  <property name="length">850</property>
  <property name="eof">pause</property>
  <property name="resource">Videos/EOTR 2015/IMGA0162.MP4</property>
  <property name="meta.media.nb_streams">2</property>
  <property name="meta.media.0.stream.type">video</property>
  <property name="meta.media.0.stream.frame_rate">29.97</property>
  <property name="meta.media.0.stream.sample_aspect_ratio">0</property>
  <property name="meta.media.0.codec.width">1280</property>
  <property name="meta.media.0.codec.height">720</property>
  <property name="meta.media.0.codec.frame_rate">29.97</property>
  <property name="meta.media.0.codec.pix_fmt">yuvj420p</property>
  <property name="meta.media.0.codec.sample_aspect_ratio">1</property>
  <property name="meta.media.0.codec.colorspace">709</property>
  <property name="meta.media.0.codec.name">h264</property>
  <property name="meta.media.0.codec.long_name">H.264 / AVC / MPEG-4 AVC / MPEG-4 part 10</property>
  <property name="meta.media.0.codec.bit_rate">9238452</property>
  <property name="meta.attr.0.stream.creation_time.markup">2015-09-04 10:06:28</property>
  <property name="meta.attr.0.stream.language.markup">eng</property>
  <property name="meta.media.1.stream.type">audio</property>
  <property name="meta.media.1.codec.sample_fmt">fltp</property>
  <property name="meta.media.1.codec.sample_rate">48000</property>
  <property name="meta.media.1.codec.channels">2</property>
  <property name="meta.media.1.codec.name">aac</property>
  <property name="meta.media.1.codec.long_name">AAC (Advanced Audio Coding)</property>
  <property name="meta.media.1.codec.bit_rate">255302</property>
  <property name="meta.attr.1.stream.creation_time.markup">2015-09-04 10:06:28</property>
  <property name="meta.attr.1.stream.language.markup">eng</property>
  <property name="meta.attr.major_brand.markup">mp42</property>
  <property name="meta.attr.minor_version.markup">1</property>
  <property name="meta.attr.compatible_brands.markup">mp42avc1</property>
  <property name="meta.attr.creation_time.markup">2015-09-04 10:06:28</property>
  <property name="seekable">1</property>
  <property name="meta.media.sample_aspect_num">1</property>
  <property name="meta.media.sample_aspect_den">1</property>
  <property name="aspect_ratio">1</property>
  <property name="audio_index">1</property>
  <property name="video_index">0</property>
  <property name="mlt_service">avformat</property>
  <property name="meta.media.frame_rate_num">30000</property>
  <property name="meta.media.frame_rate_den">1001</property>
  <property name="meta.media.colorspace">709</property>
  <property name="meta.media.width">1280</property>
  <property name="meta.media.height">720</property>
  <property name="meta.media.top_field_first">0</property>
  <property name="meta.media.progressive">1</property>
 </producer>
 <producer in="0" out="1725" id="60_1">
  <property name="mlt_type">producer</property>
  <property name="length">1726</property>
  <property name="eof">pause</property>
  <property name="resource">Videos/EOTR 2015/IMGA0179.MP4</property>
  <property name="meta.media.nb_streams">2</property>
  <property name="meta.media.0.stream.type">video</property>
  <property name="meta.media.0.stream.frame_rate">29.97</property>
  <property name="meta.media.0.stream.sample_aspect_ratio">0</property>
  <property name="meta.media.0.codec.width">1280</property>
  <property name="meta.media.0.codec.height">720</property>
  <property name="meta.media.0.codec.frame_rate">29.97</property>
  <property name="meta.media.0.codec.pix_fmt">yuvj420p</property>
  <property name="meta.media.0.codec.sample_aspect_ratio">1</property>
  <property name="meta.media.0.codec.colorspace">709</property>
  <property name="meta.media.0.codec.name">h264</property>
  <property name="meta.media.0.codec.long_name">H.264 / AVC / MPEG-4 AVC / MPEG-4 part 10</property>
  <property name="meta.media.0.codec.bit_rate">9004799</property>
  <property name="meta.attr.0.stream.creation_time.markup">2015-09-04 11:56:23</property>
  <property name="meta.attr.0.stream.language.markup">eng</property>
  <property name="meta.media.1.stream.type">audio</property>
  <property name="meta.media.1.codec.sample_fmt">fltp</property>
  <property name="meta.media.1.codec.sample_rate">48000</property>
  <property name="meta.media.1.codec.channels">2</property>
  <property name="meta.media.1.codec.name">aac</property>
  <property name="meta.media.1.codec.long_name">AAC (Advanced Audio Coding)</property>
  <property name="meta.media.1.codec.bit_rate">255360</property>
  <property name="meta.attr.1.stream.creation_time.markup">2015-09-04 11:56:23</property>
  <property name="meta.attr.1.stream.language.markup">eng</property>
  <property name="meta.attr.major_brand.markup">mp42</property>
  <property name="meta.attr.minor_version.markup">1</property>
  <property name="meta.attr.compatible_brands.markup">mp42avc1</property>
  <property name="meta.attr.creation_time.markup">2015-09-04 11:56:23</property>
  <property name="seekable">1</property>
  <property name="meta.media.sample_aspect_num">1</property>
  <property name="meta.media.sample_aspect_den">1</property>
  <property name="aspect_ratio">1</property>
  <property name="audio_index">1</property>
  <property name="video_index">0</property>
  <property name="mlt_service">avformat</property>
  <property name="meta.media.frame_rate_num">30000</property>
  <property name="meta.media.frame_rate_den">1001</property>
  <property name="meta.media.colorspace">709</property>
  <property name="meta.media.width">1280</property>
  <property name="meta.media.height">720</property>
  <property name="meta.media.top_field_first">0</property>
  <property name="meta.media.progressive">1</property>
 </producer>
 <producer in="0" out="374" id="185_1">
  <property name="mlt_type">producer</property>
  <property name="length">375</property>
  <property name="eof">pause</property>
  <property name="resource">Videos/EOTR 2015/VID_20150906_155558.mp4</property>
  <property name="meta.media.nb_streams">2</property>
  <property name="meta.media.0.stream.type">video</property>
  <property name="meta.media.0.stream.frame_rate">29.5185</property>
  <property name="meta.media.0.stream.sample_aspect_ratio">1</property>
  <property name="meta.media.0.codec.width">1920</property>
  <property name="meta.media.0.codec.height">1080</property>
  <property name="meta.media.0.codec.frame_rate">inf</property>
  <property name="meta.media.0.codec.pix_fmt">yuv420p</property>
  <property name="meta.media.0.codec.sample_aspect_ratio">0</property>
  <property name="meta.media.0.codec.colorspace">709</property>
  <property name="meta.media.0.codec.name">h264</property>
  <property name="meta.media.0.codec.long_name">H.264 / AVC / MPEG-4 AVC / MPEG-4 part 10</property>
  <property name="meta.media.0.codec.bit_rate">19685343</property>
  <property name="meta.attr.0.stream.creation_time.markup">2015-09-06 14:56:14</property>
  <property name="meta.attr.0.stream.language.markup">eng</property>
  <property name="meta.media.1.stream.type">audio</property>
  <property name="meta.media.1.codec.sample_fmt">fltp</property>
  <property name="meta.media.1.codec.sample_rate">48000</property>
  <property name="meta.media.1.codec.channels">2</property>
  <property name="meta.media.1.codec.name">aac</property>
  <property name="meta.media.1.codec.long_name">AAC (Advanced Audio Coding)</property>
  <property name="meta.media.1.codec.bit_rate">256048</property>
  <property name="meta.attr.1.stream.creation_time.markup">2015-09-06 14:56:14</property>
  <property name="meta.attr.1.stream.language.markup">eng</property>
  <property name="meta.attr.major_brand.markup">mp42</property>
  <property name="meta.attr.minor_version.markup">0</property>
  <property name="meta.attr.compatible_brands.markup">isommp42</property>
  <property name="meta.attr.creation_time.markup">2015-09-06 14:56:14</property>
  <property name="seekable">1</property>
  <property name="meta.media.sample_aspect_num">65536</property>
  <property name="meta.media.sample_aspect_den">65536</property>
  <property name="aspect_ratio">1</property>
  <property name="audio_index">1</property>
  <property name="video_index">0</property>
  <property name="mlt_service">avformat</property>
  <property name="meta.media.frame_rate_num">5670000</property>
  <property name="meta.media.frame_rate_den">192083</property>
  <property name="meta.media.colorspace">709</property>
  <property name="meta.media.width">1920</property>
  <property name="meta.media.height">1080</property>
  <property name="meta.media.top_field_first">0</property>
  <property name="meta.media.progressive">1</property>
 </producer>
 <producer in="0" out="525" id="166_1">
  <property name="mlt_type">producer</property>
  <property name="length">526</property>
  <property name="eof">pause</property>
  <property name="resource">Videos/EOTR 2015/VID_20150906_004845.mp4</property>
  <property name="meta.media.nb_streams">2</property>
  <property name="meta.media.0.stream.type">video</property>
  <property name="meta.media.0.stream.frame_rate">29.5828</property>
  <property name="meta.media.0.stream.sample_aspect_ratio">1</property>
  <property name="meta.media.0.codec.width">1920</property>
  <property name="meta.media.0.codec.height">1080</property>
  <property name="meta.media.0.codec.frame_rate">inf</property>
  <property name="meta.media.0.codec.pix_fmt">yuv420p</property>
  <property name="meta.media.0.codec.sample_aspect_ratio">0</property>
  <property name="meta.media.0.codec.colorspace">709</property>
  <property name="meta.media.0.codec.name">h264</property>
  <property name="meta.media.0.codec.long_name">H.264 / AVC / MPEG-4 AVC / MPEG-4 part 10</property>
  <property name="meta.media.0.codec.bit_rate">19774684</property>
  <property name="meta.attr.0.stream.creation_time.markup">2015-09-05 23:49:07</property>
  <property name="meta.attr.0.stream.language.markup">eng</property>
  <property name="meta.media.1.stream.type">audio</property>
  <property name="meta.media.1.codec.sample_fmt">fltp</property>
  <property name="meta.media.1.codec.sample_rate">48000</property>
  <property name="meta.media.1.codec.channels">2</property>
  <property name="meta.media.1.codec.name">aac</property>
  <property name="meta.media.1.codec.long_name">AAC (Advanced Audio Coding)</property>
  <property name="meta.media.1.codec.bit_rate">256021</property>
  <property name="meta.attr.1.stream.creation_time.markup">2015-09-05 23:49:07</property>
  <property name="meta.attr.1.stream.language.markup">eng</property>
  <property name="meta.attr.major_brand.markup">mp42</property>
  <property name="meta.attr.minor_version.markup">0</property>
  <property name="meta.attr.compatible_brands.markup">isommp42</property>
  <property name="meta.attr.creation_time.markup">2015-09-05 23:49:07</property>
  <property name="seekable">1</property>
  <property name="meta.media.sample_aspect_num">65536</property>
  <property name="meta.media.sample_aspect_den">65536</property>
  <property name="aspect_ratio">1</property>
  <property name="audio_index">1</property>
  <property name="video_index">0</property>
  <property name="mlt_service">avformat</property>
  <property name="meta.media.frame_rate_num">55710000</property>
  <property name="meta.media.frame_rate_den">1883189</property>
  <property name="meta.media.colorspace">709</property>
  <property name="meta.media.width">1920</property>
  <property name="meta.media.height">1080</property>
  <property name="meta.media.top_field_first">0</property>
  <property name="meta.media.progressive">1</property>
 </producer>
 <producer in="0" out="952" id="154_1">
  <property name="mlt_type">producer</property>
  <property name="length">953</property>
  <property name="eof">pause</property>
  <property name="resource">Videos/EOTR 2015/VID_20150905_203739.mp4</property>
  <property name="meta.media.nb_streams">2</property>
  <property name="meta.media.0.stream.type">video</property>
  <property name="meta.media.0.stream.frame_rate">29.6849</property>
  <property name="meta.media.0.stream.sample_aspect_ratio">1</property>
  <property name="meta.media.0.codec.width">1920</property>
  <property name="meta.media.0.codec.height">1080</property>
  <property name="meta.media.0.codec.frame_rate">inf</property>
  <property name="meta.media.0.codec.pix_fmt">yuv420p</property>
  <property name="meta.media.0.codec.sample_aspect_ratio">0</property>
  <property name="meta.media.0.codec.colorspace">709</property>
  <property name="meta.media.0.codec.name">h264</property>
  <property name="meta.media.0.codec.long_name">H.264 / AVC / MPEG-4 AVC / MPEG-4 part 10</property>
  <property name="meta.media.0.codec.bit_rate">19865905</property>
  <property name="meta.attr.0.stream.creation_time.markup">2015-09-05 19:38:18</property>
  <property name="meta.attr.0.stream.language.markup">eng</property>
  <property name="meta.media.1.stream.type">audio</property>
  <property name="meta.media.1.codec.sample_fmt">fltp</property>
  <property name="meta.media.1.codec.sample_rate">48000</property>
  <property name="meta.media.1.codec.channels">2</property>
  <property name="meta.media.1.codec.name">aac</property>
  <property name="meta.media.1.codec.long_name">AAC (Advanced Audio Coding)</property>
  <property name="meta.media.1.codec.bit_rate">256029</property>
  <property name="meta.attr.1.stream.creation_time.markup">2015-09-05 19:38:18</property>
  <property name="meta.attr.1.stream.language.markup">eng</property>
  <property name="meta.attr.major_brand.markup">mp42</property>
  <property name="meta.attr.minor_version.markup">0</property>
  <property name="meta.attr.compatible_brands.markup">isommp42</property>
  <property name="meta.attr.creation_time.markup">2015-09-05 19:38:18</property>
  <property name="seekable">1</property>
  <property name="meta.media.sample_aspect_num">65536</property>
  <property name="meta.media.sample_aspect_den">65536</property>
  <property name="aspect_ratio">1</property>
  <property name="audio_index">1</property>
  <property name="video_index">0</property>
  <property name="mlt_service">avformat</property>
  <property name="meta.media.frame_rate_num">50850000</property>
  <property name="meta.media.frame_rate_den">1712993</property>
  <property name="meta.media.colorspace">709</property>
  <property name="meta.media.width">1920</property>
  <property name="meta.media.height">1080</property>
  <property name="meta.media.top_field_first">0</property>
  <property name="meta.media.progressive">1</property>
 </producer>
 <producer in="0" out="1113" id="189_1">
  <property name="mlt_type">producer</property>
  <property name="length">1114</property>
  <property name="eof">pause</property>
  <property name="resource">Videos/EOTR 2015/VID_20150906_223400.mp4</property>
  <property name="meta.media.nb_streams">2</property>
  <property name="meta.media.0.stream.type">video</property>
  <property name="meta.media.0.stream.frame_rate">29.7907</property>
  <property name="meta.media.0.stream.sample_aspect_ratio">1</property>
  <property name="meta.media.0.codec.width">1920</property>
  <property name="meta.media.0.codec.height">1080</property>
  <property name="meta.media.0.codec.frame_rate">inf</property>
  <property name="meta.media.0.codec.pix_fmt">yuv420p</property>
  <property name="meta.media.0.codec.sample_aspect_ratio">0</property>
  <property name="meta.media.0.codec.colorspace">709</property>
  <property name="meta.media.0.codec.name">h264</property>
  <property name="meta.media.0.codec.long_name">H.264 / AVC / MPEG-4 AVC / MPEG-4 part 10</property>
  <property name="meta.media.0.codec.bit_rate">19938990</property>
  <property name="meta.attr.0.stream.creation_time.markup">2015-09-06 21:34:45</property>
  <property name="meta.attr.0.stream.language.markup">eng</property>
  <property name="meta.media.1.stream.type">audio</property>
  <property name="meta.media.1.codec.sample_fmt">fltp</property>
  <property name="meta.media.1.codec.sample_rate">48000</property>
  <property name="meta.media.1.codec.channels">2</property>
  <property name="meta.media.1.codec.name">aac</property>
  <property name="meta.media.1.codec.long_name">AAC (Advanced Audio Coding)</property>
  <property name="meta.media.1.codec.bit_rate">256036</property>
  <property name="meta.attr.1.stream.creation_time.markup">2015-09-06 21:34:45</property>
  <property name="meta.attr.1.stream.language.markup">eng</property>
  <property name="meta.attr.major_brand.markup">mp42</property>
  <property name="meta.attr.minor_version.markup">0</property>
  <property name="meta.attr.compatible_brands.markup">isommp42</property>
  <property name="meta.attr.creation_time.markup">2015-09-06 21:34:45</property>
  <property name="seekable">1</property>
  <property name="meta.media.sample_aspect_num">65536</property>
  <property name="meta.media.sample_aspect_den">65536</property>
  <property name="aspect_ratio">1</property>
  <property name="audio_index">1</property>
  <property name="video_index">0</property>
  <property name="mlt_service">avformat</property>
  <property name="meta.media.frame_rate_num">39780000</property>
  <property name="meta.media.frame_rate_den">1335317</property>
  <property name="meta.media.colorspace">709</property>
  <property name="meta.media.width">1920</property>
  <property name="meta.media.height">1080</property>
  <property name="meta.media.top_field_first">0</property>
  <property name="meta.media.progressive">1</property>
 </producer>
 <producer in="0" out="857" id="188_1">
  <property name="mlt_type">producer</property>
  <property name="length">858</property>
  <property name="eof">pause</property>
  <property name="resource">Videos/EOTR 2015/VID_20150906_215313.mp4</property>
  <property name="meta.media.nb_streams">2</property>
  <property name="meta.media.0.stream.type">video</property>
  <property name="meta.media.0.stream.frame_rate">29.7263</property>
  <property name="meta.media.0.stream.sample_aspect_ratio">1</property>
  <property name="meta.media.0.codec.width">1920</property>
  <property name="meta.media.0.codec.height">1080</property>
  <property name="meta.media.0.codec.frame_rate">inf</property>
  <property name="meta.media.0.codec.pix_fmt">yuv420p</property>
  <property name="meta.media.0.codec.sample_aspect_ratio">0</property>
  <property name="meta.media.0.codec.colorspace">709</property>
  <property name="meta.media.0.codec.name">h264</property>
  <property name="meta.media.0.codec.long_name">H.264 / AVC / MPEG-4 AVC / MPEG-4 part 10</property>
  <property name="meta.media.0.codec.bit_rate">19834193</property>
  <property name="meta.attr.0.stream.creation_time.markup">2015-09-06 20:53:48</property>
  <property name="meta.attr.0.stream.language.markup">eng</property>
  <property name="meta.media.1.stream.type">audio</property>
  <property name="meta.media.1.codec.sample_fmt">fltp</property>
  <property name="meta.media.1.codec.sample_rate">48000</property>
  <property name="meta.media.1.codec.channels">2</property>
  <property name="meta.media.1.codec.name">aac</property>
  <property name="meta.media.1.codec.long_name">AAC (Advanced Audio Coding)</property>
  <property name="meta.media.1.codec.bit_rate">256016</property>
  <property name="meta.attr.1.stream.creation_time.markup">2015-09-06 20:53:48</property>
  <property name="meta.attr.1.stream.language.markup">eng</property>
  <property name="meta.attr.major_brand.markup">mp42</property>
  <property name="meta.attr.minor_version.markup">0</property>
  <property name="meta.attr.compatible_brands.markup">isommp42</property>
  <property name="meta.attr.creation_time.markup">2015-09-06 20:53:48</property>
  <property name="seekable">1</property>
  <property name="meta.media.sample_aspect_num">65536</property>
  <property name="meta.media.sample_aspect_den">65536</property>
  <property name="aspect_ratio">1</property>
  <property name="audio_index">1</property>
  <property name="video_index">0</property>
  <property name="mlt_service">avformat</property>
  <property name="meta.media.frame_rate_num">1020000</property>
  <property name="meta.media.frame_rate_den">34313</property>
  <property name="meta.media.colorspace">709</property>
  <property name="meta.media.width">1920</property>
  <property name="meta.media.height">1080</property>
  <property name="meta.media.top_field_first">0</property>
  <property name="meta.media.progressive">1</property>
 </producer>
 <producer in="0" out="1300" id="32_1">
  <property name="mlt_type">producer</property>
  <property name="length">1301</property>
  <property name="eof">pause</property>
  <property name="resource">Videos/EOTR 2015/IMGA0151.MP4</property>
  <property name="meta.media.nb_streams">2</property>
  <property name="meta.media.0.stream.type">video</property>
  <property name="meta.media.0.stream.frame_rate">29.97</property>
  <property name="meta.media.0.stream.sample_aspect_ratio">0</property>
  <property name="meta.media.0.codec.width">1920</property>
  <property name="meta.media.0.codec.height">1080</property>
  <property name="meta.media.0.codec.frame_rate">29.97</property>
  <property name="meta.media.0.codec.pix_fmt">yuvj420p</property>
  <property name="meta.media.0.codec.sample_aspect_ratio">1</property>
  <property name="meta.media.0.codec.colorspace">709</property>
  <property name="meta.media.0.codec.name">h264</property>
  <property name="meta.media.0.codec.long_name">H.264 / AVC / MPEG-4 AVC / MPEG-4 part 10</property>
  <property name="meta.media.0.codec.bit_rate">15965789</property>
  <property name="meta.attr.0.stream.creation_time.markup">2015-09-04 09:28:23</property>
  <property name="meta.attr.0.stream.language.markup">eng</property>
  <property name="meta.media.1.stream.type">audio</property>
  <property name="meta.media.1.codec.sample_fmt">fltp</property>
  <property name="meta.media.1.codec.sample_rate">48000</property>
  <property name="meta.media.1.codec.channels">2</property>
  <property name="meta.media.1.codec.name">aac</property>
  <property name="meta.media.1.codec.long_name">AAC (Advanced Audio Coding)</property>
  <property name="meta.media.1.codec.bit_rate">255294</property>
  <property name="meta.attr.1.stream.creation_time.markup">2015-09-04 09:28:23</property>
  <property name="meta.attr.1.stream.language.markup">eng</property>
  <property name="meta.attr.major_brand.markup">mp42</property>
  <property name="meta.attr.minor_version.markup">1</property>
  <property name="meta.attr.compatible_brands.markup">mp42avc1</property>
  <property name="meta.attr.creation_time.markup">2015-09-04 09:28:23</property>
  <property name="seekable">1</property>
  <property name="meta.media.sample_aspect_num">1</property>
  <property name="meta.media.sample_aspect_den">1</property>
  <property name="aspect_ratio">1</property>
  <property name="audio_index">1</property>
  <property name="video_index">0</property>
  <property name="mlt_service">avformat</property>
  <property name="meta.media.frame_rate_num">30000</property>
  <property name="meta.media.frame_rate_den">1001</property>
  <property name="meta.media.colorspace">709</property>
  <property name="meta.media.width">1920</property>
  <property name="meta.media.height">1080</property>
  <property name="meta.media.top_field_first">0</property>
  <property name="meta.media.progressive">1</property>
 </producer>
 <producer in="0" out="324" id="3_1">
  <property name="mlt_type">producer</property>
  <property name="length">325</property>
  <property name="eof">pause</property>
  <property name="resource">Videos/EOTR 2015/20150904_105835.mp4</property>
  <property name="meta.media.nb_streams">2</property>
  <property name="meta.media.0.stream.type">video</property>
  <property name="meta.media.0.stream.frame_rate">30.0248</property>
  <property name="meta.media.0.stream.sample_aspect_ratio">0</property>
  <property name="meta.media.0.codec.width">1920</property>
  <property name="meta.media.0.codec.height">1080</property>
  <property name="meta.media.0.codec.frame_rate">inf</property>
  <property name="meta.media.0.codec.pix_fmt">yuv420p</property>
  <property name="meta.media.0.codec.sample_aspect_ratio">0</property>
  <property name="meta.media.0.codec.colorspace">709</property>
  <property name="meta.media.0.codec.name">h264</property>
  <property name="meta.media.0.codec.long_name">H.264 / AVC / MPEG-4 AVC / MPEG-4 part 10</property>
  <property name="meta.media.0.codec.bit_rate">17023926</property>
  <property name="meta.attr.0.stream.creation_time.markup">2015-09-04 09:58:50</property>
  <property name="meta.attr.0.stream.language.markup">eng</property>
  <property name="meta.media.1.stream.type">audio</property>
  <property name="meta.media.1.codec.sample_fmt">fltp</property>
  <property name="meta.media.1.codec.sample_rate">48000</property>
  <property name="meta.media.1.codec.channels">2</property>
  <property name="meta.media.1.codec.name">aac</property>
  <property name="meta.media.1.codec.long_name">AAC (Advanced Audio Coding)</property>
  <property name="meta.media.1.codec.bit_rate">128984</property>
  <property name="meta.attr.1.stream.creation_time.markup">2015-09-04 09:58:50</property>
  <property name="meta.attr.1.stream.language.markup">eng</property>
  <property name="meta.attr.major_brand.markup">isom</property>
  <property name="meta.attr.minor_version.markup">0</property>
  <property name="meta.attr.compatible_brands.markup">isom3gp4</property>
  <property name="meta.attr.creation_time.markup">2015-09-04 09:58:50</property>
  <property name="seekable">1</property>
  <property name="meta.media.sample_aspect_num">1</property>
  <property name="meta.media.sample_aspect_den">1</property>
  <property name="aspect_ratio">1</property>
  <property name="audio_index">1</property>
  <property name="video_index">0</property>
  <property name="mlt_service">avformat</property>
  <property name="meta.media.frame_rate_num">2872500</property>
  <property name="meta.media.frame_rate_den">95671</property>
  <property name="meta.media.colorspace">709</property>
  <property name="meta.media.width">1920</property>
  <property name="meta.media.height">1080</property>
  <property name="meta.media.top_field_first">0</property>
  <property name="meta.media.progressive">1</property>
 </producer>
 <producer in="0" out="1400" id="37_1">
  <property name="mlt_type">producer</property>
  <property name="length">1401</property>
  <property name="eof">pause</property>
  <property name="resource">Videos/EOTR 2015/IMGA0156.MP4</property>
  <property name="meta.media.nb_streams">2</property>
  <property name="meta.media.0.stream.type">video</property>
  <property name="meta.media.0.stream.frame_rate">29.97</property>
  <property name="meta.media.0.stream.sample_aspect_ratio">0</property>
  <property name="meta.media.0.codec.width">1280</property>
  <property name="meta.media.0.codec.height">720</property>
  <property name="meta.media.0.codec.frame_rate">29.97</property>
  <property name="meta.media.0.codec.pix_fmt">yuvj420p</property>
  <property name="meta.media.0.codec.sample_aspect_ratio">1</property>
  <property name="meta.media.0.codec.colorspace">709</property>
  <property name="meta.media.0.codec.name">h264</property>
  <property name="meta.media.0.codec.long_name">H.264 / AVC / MPEG-4 AVC / MPEG-4 part 10</property>
  <property name="meta.media.0.codec.bit_rate">9702118</property>
  <property name="meta.attr.0.stream.creation_time.markup">2015-09-04 09:42:57</property>
  <property name="meta.attr.0.stream.language.markup">eng</property>
  <property name="meta.media.1.stream.type">audio</property>
  <property name="meta.media.1.codec.sample_fmt">fltp</property>
  <property name="meta.media.1.codec.sample_rate">48000</property>
  <property name="meta.media.1.codec.channels">2</property>
  <property name="meta.media.1.codec.name">aac</property>
  <property name="meta.media.1.codec.long_name">AAC (Advanced Audio Coding)</property>
  <property name="meta.media.1.codec.bit_rate">255277</property>
  <property name="meta.attr.1.stream.creation_time.markup">2015-09-04 09:42:57</property>
  <property name="meta.attr.1.stream.language.markup">eng</property>
  <property name="meta.attr.major_brand.markup">mp42</property>
  <property name="meta.attr.minor_version.markup">1</property>
  <property name="meta.attr.compatible_brands.markup">mp42avc1</property>
  <property name="meta.attr.creation_time.markup">2015-09-04 09:42:57</property>
  <property name="seekable">1</property>
  <property name="meta.media.sample_aspect_num">1</property>
  <property name="meta.media.sample_aspect_den">1</property>
  <property name="aspect_ratio">1</property>
  <property name="audio_index">1</property>
  <property name="video_index">0</property>
  <property name="mlt_service">avformat</property>
  <property name="meta.media.frame_rate_num">30000</property>
  <property name="meta.media.frame_rate_den">1001</property>
  <property name="meta.media.colorspace">709</property>
  <property name="meta.media.width">1280</property>
  <property name="meta.media.height">720</property>
  <property name="meta.media.top_field_first">0</property>
  <property name="meta.media.progressive">1</property>
 </producer>
 <producer in="0" out="849" id="72_1">
  <property name="mlt_type">producer</property>
  <property name="length">850</property>
  <property name="eof">pause</property>
  <property name="resource">Videos/EOTR 2015/IMGA0191.MP4</property>
  <property name="meta.media.nb_streams">2</property>
  <property name="meta.media.0.stream.type">video</property>
  <property name="meta.media.0.stream.frame_rate">29.97</property>
  <property name="meta.media.0.stream.sample_aspect_ratio">0</property>
  <property name="meta.media.0.codec.width">1280</property>
  <property name="meta.media.0.codec.height">720</property>
  <property name="meta.media.0.codec.frame_rate">29.97</property>
  <property name="meta.media.0.codec.pix_fmt">yuvj420p</property>
  <property name="meta.media.0.codec.sample_aspect_ratio">1</property>
  <property name="meta.media.0.codec.colorspace">709</property>
  <property name="meta.media.0.codec.name">h264</property>
  <property name="meta.media.0.codec.long_name">H.264 / AVC / MPEG-4 AVC / MPEG-4 part 10</property>
  <property name="meta.media.0.codec.bit_rate">9385099</property>
  <property name="meta.attr.0.stream.creation_time.markup">2015-09-05 09:44:05</property>
  <property name="meta.attr.0.stream.language.markup">eng</property>
  <property name="meta.media.1.stream.type">audio</property>
  <property name="meta.media.1.codec.sample_fmt">fltp</property>
  <property name="meta.media.1.codec.sample_rate">48000</property>
  <property name="meta.media.1.codec.channels">2</property>
  <property name="meta.media.1.codec.name">aac</property>
  <property name="meta.media.1.codec.long_name">AAC (Advanced Audio Coding)</property>
  <property name="meta.media.1.codec.bit_rate">255284</property>
  <property name="meta.attr.1.stream.creation_time.markup">2015-09-05 09:44:05</property>
  <property name="meta.attr.1.stream.language.markup">eng</property>
  <property name="meta.attr.major_brand.markup">mp42</property>
  <property name="meta.attr.minor_version.markup">1</property>
  <property name="meta.attr.compatible_brands.markup">mp42avc1</property>
  <property name="meta.attr.creation_time.markup">2015-09-05 09:44:05</property>
  <property name="seekable">1</property>
  <property name="meta.media.sample_aspect_num">1</property>
  <property name="meta.media.sample_aspect_den">1</property>
  <property name="aspect_ratio">1</property>
  <property name="audio_index">1</property>
  <property name="video_index">0</property>
  <property name="mlt_service">avformat</property>
  <property name="meta.media.frame_rate_num">30000</property>
  <property name="meta.media.frame_rate_den">1001</property>
  <property name="meta.media.colorspace">709</property>
  <property name="meta.media.width">1280</property>
  <property name="meta.media.height">720</property>
  <property name="meta.media.top_field_first">0</property>
  <property name="meta.media.progressive">1</property>
 </producer>
 <producer in="0" out="1725" id="35_1">
  <property name="mlt_type">producer</property>
  <property name="length">1726</property>
  <property name="eof">pause</property>
  <property name="resource">Videos/EOTR 2015/IMGA0154.MP4</property>
  <property name="meta.media.nb_streams">2</property>
  <property name="meta.media.0.stream.type">video</property>
  <property name="meta.media.0.stream.frame_rate">29.97</property>
  <property name="meta.media.0.stream.sample_aspect_ratio">0</property>
  <property name="meta.media.0.codec.width">1920</property>
  <property name="meta.media.0.codec.height">1080</property>
  <property name="meta.media.0.codec.frame_rate">29.97</property>
  <property name="meta.media.0.codec.pix_fmt">yuvj420p</property>
  <property name="meta.media.0.codec.sample_aspect_ratio">1</property>
  <property name="meta.media.0.codec.colorspace">709</property>
  <property name="meta.media.0.codec.name">h264</property>
  <property name="meta.media.0.codec.long_name">H.264 / AVC / MPEG-4 AVC / MPEG-4 part 10</property>
  <property name="meta.media.0.codec.bit_rate">15802327</property>
  <property name="meta.attr.0.stream.creation_time.markup">2015-09-04 09:38:32</property>
  <property name="meta.attr.0.stream.language.markup">eng</property>
  <property name="meta.media.1.stream.type">audio</property>
  <property name="meta.media.1.codec.sample_fmt">fltp</property>
  <property name="meta.media.1.codec.sample_rate">48000</property>
  <property name="meta.media.1.codec.channels">2</property>
  <property name="meta.media.1.codec.name">aac</property>
  <property name="meta.media.1.codec.long_name">AAC (Advanced Audio Coding)</property>
  <property name="meta.media.1.codec.bit_rate">255339</property>
  <property name="meta.attr.1.stream.creation_time.markup">2015-09-04 09:38:32</property>
  <property name="meta.attr.1.stream.language.markup">eng</property>
  <property name="meta.attr.major_brand.markup">mp42</property>
  <property name="meta.attr.minor_version.markup">1</property>
  <property name="meta.attr.compatible_brands.markup">mp42avc1</property>
  <property name="meta.attr.creation_time.markup">2015-09-04 09:38:32</property>
  <property name="seekable">1</property>
  <property name="meta.media.sample_aspect_num">1</property>
  <property name="meta.media.sample_aspect_den">1</property>
  <property name="aspect_ratio">1</property>
  <property name="audio_index">1</property>
  <property name="video_index">0</property>
  <property name="mlt_service">avformat</property>
  <property name="meta.media.frame_rate_num">30000</property>
  <property name="meta.media.frame_rate_den">1001</property>
  <property name="meta.media.colorspace">709</property>
  <property name="meta.media.width">1920</property>
  <property name="meta.media.height">1080</property>
  <property name="meta.media.top_field_first">0</property>
  <property name="meta.media.progressive">1</property>
 </producer>
 <playlist id="playlist5">
  <blank length="1343"/>
  <entry in="506" out="652" producer="97_1"/>
  <blank length="55"/>
  <entry in="0" out="91" producer="4_1"/>
  <blank length="674"/>
  <entry in="1235" out="1409" producer="7_1"/>
  <entry in="169" out="271" producer="130_1"/>
  <blank length="171"/>
  <entry in="636" out="710" producer="100_1"/>
  <blank length="293"/>
  <entry in="622" out="692" producer="18_1"/>
  <blank length="379"/>
  <entry in="629" out="754" producer="107_1"/>
  <blank length="572"/>
  <entry in="660" out="813" producer="113_1"/>
  <blank length="122"/>
  <entry in="926" out="1008" producer="113_1"/>
  <blank length="241"/>
  <entry in="90" out="237" producer="169_1"/>
  <blank length="243"/>
  <entry in="491" out="593" producer="51_1"/>
  <blank length="61"/>
  <entry in="0" out="80" producer="85_1"/>
  <blank length="93"/>
  <entry in="1633" out="1726" producer="55_1"/>
  <entry in="361" out="476" producer="88_1"/>
  <blank length="115"/>
  <entry in="129" out="188" producer="24_1"/>
  <blank length="61"/>
  <entry in="331" out="418" producer="36_1"/>
  <blank length="39"/>
  <entry in="630" out="679" producer="43_1"/>
  <blank length="59"/>
  <entry in="483" out="548" producer="60_1"/>
  <entry in="210" out="309" producer="185_1"/>
  <blank length="137"/>
  <entry in="381" out="426" producer="166_1"/>
  <entry in="705" out="795" producer="154_1"/>
  <entry in="288" out="418" producer="189_1"/>
  <entry in="390" out="482" producer="188_1"/>
  <entry in="250" out="358" producer="32_1"/>
  <entry in="167" out="271" producer="3_1"/>
  <entry in="22" out="152" producer="37_1"/>
  <entry in="743" out="813" producer="72_1"/>
  <entry in="622" out="683" producer="35_1"/>
  <entry in="865" out="916" producer="35_1"/>
  <entry in="1104" out="1156" producer="35_1">
   <filter in="1104" out="1107" id="filter0">
    <property name="track">0</property>
    <property name="window">75</property>
    <property name="max_gain">20dB</property>
    <property name="mlt_type">filter</property>
    <property name="mlt_service">volume</property>
    <property name="kdenlive_id">fadein</property>
    <property name="tag">volume</property>
    <property name="kdenlive_ix">1</property>
    <property name="gain">0</property>
    <property name="end">1</property>
    <property name="kdenlive_info"/>
   </filter>
  </entry>
  <entry in="1461" out="1548" producer="35_1"/>
 </playlist>
 <producer in="0" out="1647" id="95">
  <property name="mlt_type">producer</property>
  <property name="length">1648</property>
  <property name="eof">pause</property>
  <property name="resource">Videos/EOTR 2015/VID_20150903_134237.mp4</property>
  <property name="meta.media.nb_streams">2</property>
  <property name="meta.media.0.stream.type">video</property>
  <property name="meta.media.0.stream.frame_rate">30.0085</property>
  <property name="meta.media.0.stream.sample_aspect_ratio">1</property>
  <property name="meta.media.0.codec.width">1920</property>
  <property name="meta.media.0.codec.height">1080</property>
  <property name="meta.media.0.codec.frame_rate">inf</property>
  <property name="meta.media.0.codec.pix_fmt">yuv420p</property>
  <property name="meta.media.0.codec.sample_aspect_ratio">0</property>
  <property name="meta.media.0.codec.colorspace">709</property>
  <property name="meta.media.0.codec.name">h264</property>
  <property name="meta.media.0.codec.long_name">H.264 / AVC / MPEG-4 AVC / MPEG-4 part 10</property>
  <property name="meta.media.0.codec.bit_rate">19984775</property>
  <property name="meta.attr.0.stream.creation_time.markup">2015-09-03 12:43:44</property>
  <property name="meta.attr.0.stream.language.markup">eng</property>
  <property name="meta.media.1.stream.type">audio</property>
  <property name="meta.media.1.codec.sample_fmt">fltp</property>
  <property name="meta.media.1.codec.sample_rate">48000</property>
  <property name="meta.media.1.codec.channels">2</property>
  <property name="meta.media.1.codec.name">aac</property>
  <property name="meta.media.1.codec.long_name">AAC (Advanced Audio Coding)</property>
  <property name="meta.media.1.codec.bit_rate">255578</property>
  <property name="meta.attr.1.stream.creation_time.markup">2015-09-03 12:43:44</property>
  <property name="meta.attr.1.stream.language.markup">eng</property>
  <property name="meta.attr.major_brand.markup">mp42</property>
  <property name="meta.attr.minor_version.markup">0</property>
  <property name="meta.attr.compatible_brands.markup">isommp42</property>
  <property name="meta.attr.creation_time.markup">2015-09-03 12:43:44</property>
  <property name="seekable">1</property>
  <property name="meta.media.sample_aspect_num">65536</property>
  <property name="meta.media.sample_aspect_den">65536</property>
  <property name="aspect_ratio">1</property>
  <property name="audio_index">1</property>
  <property name="video_index">0</property>
  <property name="mlt_service">avformat</property>
  <property name="meta.media.frame_rate_num">59310000</property>
  <property name="meta.media.frame_rate_den">1976443</property>
  <property name="meta.media.colorspace">709</property>
  <property name="meta.media.width">1920</property>
  <property name="meta.media.height">1080</property>
  <property name="meta.media.top_field_first">0</property>
  <property name="meta.media.progressive">1</property>
 </producer>
 <playlist id="playlist0">
  <blank length="42"/>
  <entry in="42" out="821" producer="95">
   <filter in="42" out="62" id="fade_from_black">
    <property name="track">0</property>
    <property name="start">0</property>
    <property name="mlt_type">filter</property>
    <property name="mlt_service">brightness</property>
    <property name="kdenlive_id">fade_from_black</property>
    <property name="tag">brightness</property>
    <property name="kdenlive_ix">1</property>
    <property name="end">1</property>
    <property name="kdenlive_info"/>
   </filter>
  </entry>
 </playlist>
 <tractor title="Anonymous Submission" global_feed="1" in="0" out="7872" id="maintractor">
  <property name="meta.volume">1</property>
  <track producer="black_track"/>
  <track hide="video" producer="playlist1"/>
  <track hide="video" producer="playlist2"/>
  <track hide="audio" producer="playlist3"/>
  <track hide="audio" producer="playlist4"/>
  <track hide="audio" producer="playlist5"/>
  <track producer="playlist0"/>
  <transition id="transition0">
   <property name="a_track">1</property>
   <property name="b_track">2</property>
   <property name="mlt_type">transition</property>
   <property name="mlt_service">mix</property>
   <property name="always_active">1</property>
   <property name="combine">1</property>
   <property name="internal_added">237</property>
  </transition>
  <transition id="transition1">
   <property name="a_track">1</property>
   <property name="b_track">3</property>
   <property name="mlt_type">transition</property>
   <property name="mlt_service">mix</property>
   <property name="always_active">1</property>
   <property name="combine">1</property>
   <property name="internal_added">237</property>
  </transition>
  <transition id="transition2">
   <property name="a_track">1</property>
   <property name="b_track">4</property>
   <property name="mlt_type">transition</property>
   <property name="mlt_service">mix</property>
   <property name="always_active">1</property>
   <property name="combine">1</property>
   <property name="internal_added">237</property>
  </transition>
  <transition id="transition3">
   <property name="a_track">1</property>
   <property name="b_track">5</property>
   <property name="mlt_type">transition</property>
   <property name="mlt_service">mix</property>
   <property name="always_active">1</property>
   <property name="combine">1</property>
   <property name="internal_added">237</property>
  </transition>
  <transition id="transition4">
   <property name="a_track">1</property>
   <property name="b_track">6</property>
   <property name="mlt_type">transition</property>
   <property name="mlt_service">mix</property>
   <property name="always_active">1</property>
   <property name="internal_added">237</property>
   <property name="combine">1</property>
  </transition>
 </tractor>
 <kdenlivedoc profile="hdv_1080_50i" kdenliveversion="0.9.6" version="0.88" projectfolder="/home/alex/kdenlive">
  <customeffects/>
  <documentproperties documentid="1479589331722" renderdestination="" renderrescalewidth="320" proxyextension="ts" generateproxy="0" proxyimageminsize="2000" rendertctype="0" verticalzoom="1" renderprofile="MPEG-4/MP3" renderrescaleheight="240" zonein="0" renderrescale="0" renderscanning="0" renderurl="/home/alex/kdenlive/untitled.mp4" rendertwopass="0" renderplay="0" position="7872" proxyminsize="1000" renderstartguide="-1" zoom="5" renderratio="0" rendercategory="MPEG-4" zoneout="100" renderzone="0" renderendguide="-1" renderexportaudio="0" proxyparams="-f mpegts -acodec libmp3lame -ac 2 -ab 128k -ar 48000 -vcodec mpeg2video -g 5 -deinterlace -s 480x270 -vb 400k" enableproxy="0" generateimageproxy="0" renderguide="0" rendertcoverlay="0"/>
  <documentmetadata/>
  <documentnotes>&lt;!DOCTYPE HTML PUBLIC "-//W3C//DTD HTML 4.0//EN" "http://www.w3.org/TR/REC-html40/strict.dtd">
&lt;html>&lt;head>&lt;meta name="qrichtext" content="1" />&lt;style type="text/css">
p, li { white-space: pre-wrap; }
&lt;/style>&lt;/head>&lt;body style=" font-family:'Sans Serif'; font-size:8pt; font-weight:400; font-style:normal;">
&lt;p style="-qt-paragraph-type:empty; margin-top:0px; margin-bottom:0px; margin-left:0px; margin-right:0px; -qt-block-indent:0; text-indent:0px;">&lt;br />&lt;/p>&lt;/body>&lt;/html></documentnotes>
  <profileinfo width="1440" display_aspect_den="9" frame_rate_den="1" description="HDV 1440x1080i 25 fps" height="1080" frame_rate_num="25" display_aspect_num="16" progressive="0" sample_aspect_num="4" sample_aspect_den="3"/>
  <tracksinfo>
   <trackinfo blind="1" mute="0" locked="0" trackname="Audio 2" type="audio"/>
   <trackinfo blind="1" mute="0" locked="1" trackname="Audio 1" type="audio"/>
   <trackinfo blind="0" mute="1" locked="0" trackname="Video 4"/>
   <trackinfo blind="0" mute="1" locked="0" trackname="Video 3"/>
   <trackinfo blind="0" mute="1" locked="0" trackname="Video 2"/>
   <trackinfo blind="0" mute="0" locked="0" trackname="Video 1"/>
  </tracksinfo>
  <kdenlive_producer audio_max="63" id="1" pix_fmt="yuvj420p" default_video="1" fps="-nan" analysisdata="" name="08 - Burning.mp3" videocodecid="mjpeg" colorspace="601" videocodec="MJPEG (Motion JPEG)" resource="/home/alex/Videos/EOTR 2015/08 - Burning.mp3" default_audio="0" audiocodec="MP3 (MPEG audio layer 3)" duration="8640" file_hash="44af745b7faebd4420dc5dc1d5ea3841" aspect_ratio="1" channels="2" frequency="44100" video_max="1" progressive="1" type="3" frame_size="500x500" file_size="12329005">
   <metaproperty tool="" name="meta.attr.1.stream.comment">Cover (front)</metaproperty>
   <metaproperty tool="" name="meta.attr.TOPE">The War On Drugs</metaproperty>
   <metaproperty tool="" name="meta.attr.album">Lost In The Dream</metaproperty>
   <metaproperty tool="" name="meta.attr.album_artist">The War On Drugs</metaproperty>
   <metaproperty tool="" name="meta.attr.artist">The War On Drugs</metaproperty>
   <metaproperty tool="" name="meta.attr.composer">Adam Granduciel</metaproperty>
   <metaproperty tool="" name="meta.attr.date">2014</metaproperty>
   <metaproperty tool="" name="meta.attr.disc">1/1</metaproperty>
   <metaproperty tool="" name="meta.attr.encoded_by">db</metaproperty>
   <metaproperty tool="" name="meta.attr.genre">Indie</metaproperty>
   <metaproperty tool="" name="meta.attr.publisher">CAPAJEBO â„— 2014 Secretly Canadian</metaproperty>
   <metaproperty tool="" name="meta.attr.title">Burning</metaproperty>
   <metaproperty tool="" name="meta.attr.track">8/10</metaproperty>
  </kdenlive_producer>
  <kdenlive_producer audio_max="59" id="2" pix_fmt="yuv420p" default_video="0" fps="30.0294" analysisdata="" name="20150903_183603.mp4" videocodecid="h264" colorspace="709" videocodec="H.264 / AVC / MPEG-4 AVC / MPEG-4 part 10" resource="/home/alex/Videos/EOTR 2015/20150903_183603.mp4" default_audio="1" audiocodec="AAC (Advanced Audio Coding)" duration="434" file_hash="cd1a8209ddea0ada7f78ed39f6a8b28f" aspect_ratio="1" channels="2" frequency="48000" video_max="0" progressive="1" type="3" frame_size="1920x1080" file_size="36644466">
   <metaproperty tool="" name="meta.attr.0.stream.creation_time">2015-09-03 17:36:21</metaproperty>
   <metaproperty tool="" name="meta.attr.0.stream.language">eng</metaproperty>
   <metaproperty tool="" name="meta.attr.1.stream.creation_time">2015-09-03 17:36:21</metaproperty>
   <metaproperty tool="" name="meta.attr.1.stream.language">eng</metaproperty>
   <metaproperty tool="" name="meta.attr.compatible_brands">isom3gp4</metaproperty>
   <metaproperty tool="" name="meta.attr.creation_time">2015-09-03 17:36:21</metaproperty>
   <metaproperty tool="" name="meta.attr.major_brand">isom</metaproperty>
   <metaproperty tool="" name="meta.attr.minor_version">0</metaproperty>
  </kdenlive_producer>
  <kdenlive_producer audio_max="63" id="3" pix_fmt="yuv420p" default_video="0" fps="30.0248" analysisdata="" name="20150904_105835.mp4" videocodecid="h264" colorspace="709" videocodec="H.264 / AVC / MPEG-4 AVC / MPEG-4 part 10" resource="/home/alex/Videos/EOTR 2015/20150904_105835.mp4" default_audio="1" audiocodec="AAC (Advanced Audio Coding)" duration="325" file_hash="2184a8cd8b6a50c7404e0bc044c0a305" aspect_ratio="1" channels="2" frequency="48000" video_max="0" progressive="1" type="3" frame_size="1920x1080" file_size="27362022">
   <metaproperty tool="" name="meta.attr.0.stream.creation_time">2015-09-04 09:58:50</metaproperty>
   <metaproperty tool="" name="meta.attr.0.stream.language">eng</metaproperty>
   <metaproperty tool="" name="meta.attr.1.stream.creation_time">2015-09-04 09:58:50</metaproperty>
   <metaproperty tool="" name="meta.attr.1.stream.language">eng</metaproperty>
   <metaproperty tool="" name="meta.attr.compatible_brands">isom3gp4</metaproperty>
   <metaproperty tool="" name="meta.attr.creation_time">2015-09-04 09:58:50</metaproperty>
   <metaproperty tool="" name="meta.attr.major_brand">isom</metaproperty>
   <metaproperty tool="" name="meta.attr.minor_version">0</metaproperty>
  </kdenlive_producer>
  <kdenlive_producer audio_max="28" id="4" pix_fmt="yuvj420p" default_video="0" fps="29.97" analysisdata="" name="IMGA0123.MP4" videocodecid="h264" colorspace="709" videocodec="H.264 / AVC / MPEG-4 AVC / MPEG-4 part 10" resource="/home/alex/Videos/EOTR 2015/IMGA0123.MP4" default_audio="1" audiocodec="AAC (Advanced Audio Coding)" duration="150" file_hash="241eddf7b0b9c45aa4f46fa91b067c25" aspect_ratio="1" channels="2" frequency="48000" video_max="0" progressive="1" type="3" frame_size="1920x1080" file_size="12582912">
   <metaproperty tool="" name="meta.attr.0.stream.creation_time">2015-09-03 15:36:28</metaproperty>
   <metaproperty tool="" name="meta.attr.0.stream.language">eng</metaproperty>
   <metaproperty tool="" name="meta.attr.1.stream.creation_time">2015-09-03 15:36:28</metaproperty>
   <metaproperty tool="" name="meta.attr.1.stream.language">eng</metaproperty>
   <metaproperty tool="" name="meta.attr.compatible_brands">mp42avc1</metaproperty>
   <metaproperty tool="" name="meta.attr.creation_time">2015-09-03 15:36:28</metaproperty>
   <metaproperty tool="" name="meta.attr.major_brand">mp42</metaproperty>
   <metaproperty tool="" name="meta.attr.minor_version">1</metaproperty>
  </kdenlive_producer>
  <kdenlive_producer audio_max="30" id="5" pix_fmt="yuvj420p" default_video="0" fps="29.97" analysisdata="" name="IMGA0124.MP4" videocodecid="h264" colorspace="709" videocodec="H.264 / AVC / MPEG-4 AVC / MPEG-4 part 10" resource="/home/alex/Videos/EOTR 2015/IMGA0124.MP4" default_audio="1" audiocodec="AAC (Advanced Audio Coding)" duration="175" file_hash="970ff9b8241a6d846e7b3af487057e1c" aspect_ratio="1" channels="2" frequency="48000" video_max="0" progressive="1" type="3" frame_size="1920x1080" file_size="14876672">
   <metaproperty tool="" name="meta.attr.0.stream.creation_time">2015-09-03 15:37:00</metaproperty>
   <metaproperty tool="" name="meta.attr.0.stream.language">eng</metaproperty>
   <metaproperty tool="" name="meta.attr.1.stream.creation_time">2015-09-03 15:37:00</metaproperty>
   <metaproperty tool="" name="meta.attr.1.stream.language">eng</metaproperty>
   <metaproperty tool="" name="meta.attr.compatible_brands">mp42avc1</metaproperty>
   <metaproperty tool="" name="meta.attr.creation_time">2015-09-03 15:37:00</metaproperty>
   <metaproperty tool="" name="meta.attr.major_brand">mp42</metaproperty>
   <metaproperty tool="" name="meta.attr.minor_version">1</metaproperty>
  </kdenlive_producer>
  <kdenlive_producer audio_max="53" id="6" pix_fmt="yuvj420p" default_video="0" fps="29.97" analysisdata="" name="IMGA0125.MP4" videocodecid="h264" colorspace="709" videocodec="H.264 / AVC / MPEG-4 AVC / MPEG-4 part 10" resource="/home/alex/Videos/EOTR 2015/IMGA0125.MP4" default_audio="1" audiocodec="AAC (Advanced Audio Coding)" duration="375" file_hash="220ce771b8a243fa8d0c26522b1aadc0" aspect_ratio="1" channels="2" frequency="48000" video_max="0" progressive="1" type="3" frame_size="1920x1080" file_size="30867456">
   <metaproperty tool="" name="meta.attr.0.stream.creation_time">2015-09-03 16:10:18</metaproperty>
   <metaproperty tool="" name="meta.attr.0.stream.language">eng</metaproperty>
   <metaproperty tool="" name="meta.attr.1.stream.creation_time">2015-09-03 16:10:18</metaproperty>
   <metaproperty tool="" name="meta.attr.1.stream.language">eng</metaproperty>
   <metaproperty tool="" name="meta.attr.compatible_brands">mp42avc1</metaproperty>
   <metaproperty tool="" name="meta.attr.creation_time">2015-09-03 16:10:18</metaproperty>
   <metaproperty tool="" name="meta.attr.major_brand">mp42</metaproperty>
   <metaproperty tool="" name="meta.attr.minor_version">1</metaproperty>
  </kdenlive_producer>
  <kdenlive_producer audio_max="51" id="7" pix_fmt="yuvj420p" default_video="0" fps="29.97" analysisdata="" name="IMGA0126.MP4" videocodecid="h264" colorspace="709" videocodec="H.264 / AVC / MPEG-4 AVC / MPEG-4 part 10" resource="/home/alex/Videos/EOTR 2015/IMGA0126.MP4" default_audio="1" audiocodec="AAC (Advanced Audio Coding)" duration="1951" file_hash="6707600ce3c9d22b25ed15903b3ea518" aspect_ratio="1" channels="2" frequency="48000" video_max="0" progressive="1" type="3" frame_size="1920x1080" file_size="158498816">
   <metaproperty tool="" name="meta.attr.0.stream.creation_time">2015-09-03 16:25:07</metaproperty>
   <metaproperty tool="" name="meta.attr.0.stream.language">eng</metaproperty>
   <metaproperty tool="" name="meta.attr.1.stream.creation_time">2015-09-03 16:25:07</metaproperty>
   <metaproperty tool="" name="meta.attr.1.stream.language">eng</metaproperty>
   <metaproperty tool="" name="meta.attr.compatible_brands">mp42avc1</metaproperty>
   <metaproperty tool="" name="meta.attr.creation_time">2015-09-03 16:25:07</metaproperty>
   <metaproperty tool="" name="meta.attr.major_brand">mp42</metaproperty>
   <metaproperty tool="" name="meta.attr.minor_version">1</metaproperty>
  </kdenlive_producer>
  <kdenlive_producer audio_max="56" id="8" pix_fmt="yuvj420p" default_video="0" fps="29.97" analysisdata="" name="IMGA0127.MP4" videocodecid="h264" colorspace="709" videocodec="H.264 / AVC / MPEG-4 AVC / MPEG-4 part 10" resource="/home/alex/Videos/EOTR 2015/IMGA0127.MP4" default_audio="1" audiocodec="AAC (Advanced Audio Coding)" duration="1101" file_hash="8fcfed491214ceb3a4ee7f2090c643c4" aspect_ratio="1" channels="2" frequency="48000" video_max="0" progressive="1" type="3" frame_size="1920x1080" file_size="86016000">
   <metaproperty tool="" name="meta.attr.0.stream.creation_time">2015-09-03 16:32:16</metaproperty>
   <metaproperty tool="" name="meta.attr.0.stream.language">eng</metaproperty>
   <metaproperty tool="" name="meta.attr.1.stream.creation_time">2015-09-03 16:32:16</metaproperty>
   <metaproperty tool="" name="meta.attr.1.stream.language">eng</metaproperty>
   <metaproperty tool="" name="meta.attr.compatible_brands">mp42avc1</metaproperty>
   <metaproperty tool="" name="meta.attr.creation_time">2015-09-03 16:32:16</metaproperty>
   <metaproperty tool="" name="meta.attr.major_brand">mp42</metaproperty>
   <metaproperty tool="" name="meta.attr.minor_version">1</metaproperty>
  </kdenlive_producer>
  <kdenlive_producer audio_max="55" id="9" pix_fmt="yuvj420p" default_video="0" fps="29.97" analysisdata="" name="IMGA0128.MP4" videocodecid="h264" colorspace="709" videocodec="H.264 / AVC / MPEG-4 AVC / MPEG-4 part 10" resource="/home/alex/Videos/EOTR 2015/IMGA0128.MP4" default_audio="1" audiocodec="AAC (Advanced Audio Coding)" duration="2327" file_hash="c574b5b5c4bd33fe50cedc31704aac7e" aspect_ratio="1" channels="2" frequency="48000" video_max="0" progressive="1" type="3" frame_size="1920x1080" file_size="186318848">
   <metaproperty tool="" name="meta.attr.0.stream.creation_time">2015-09-03 17:00:30</metaproperty>
   <metaproperty tool="" name="meta.attr.0.stream.language">eng</metaproperty>
   <metaproperty tool="" name="meta.attr.1.stream.creation_time">2015-09-03 17:00:30</metaproperty>
   <metaproperty tool="" name="meta.attr.1.stream.language">eng</metaproperty>
   <metaproperty tool="" name="meta.attr.compatible_brands">mp42avc1</metaproperty>
   <metaproperty tool="" name="meta.attr.creation_time">2015-09-03 17:00:30</metaproperty>
   <metaproperty tool="" name="meta.attr.major_brand">mp42</metaproperty>
   <metaproperty tool="" name="meta.attr.minor_version">1</metaproperty>
  </kdenlive_producer>
  <kdenlive_producer audio_max="56" id="10" pix_fmt="yuvj420p" default_video="0" fps="29.97" analysisdata="" name="IMGA0129.MP4" videocodecid="h264" colorspace="709" videocodec="H.264 / AVC / MPEG-4 AVC / MPEG-4 part 10" resource="/home/alex/Videos/EOTR 2015/IMGA0129.MP4" default_audio="1" audiocodec="AAC (Advanced Audio Coding)" duration="950" file_hash="5fe641acf34260033674b7779849677b" aspect_ratio="1" channels="2" frequency="48000" video_max="0" progressive="1" type="3" frame_size="1920x1080" file_size="80117760">
   <metaproperty tool="" name="meta.attr.0.stream.creation_time">2015-09-03 17:08:43</metaproperty>
   <metaproperty tool="" name="meta.attr.0.stream.language">eng</metaproperty>
   <metaproperty tool="" name="meta.attr.1.stream.creation_time">2015-09-03 17:08:43</metaproperty>
   <metaproperty tool="" name="meta.attr.1.stream.language">eng</metaproperty>
   <metaproperty tool="" name="meta.attr.compatible_brands">mp42avc1</metaproperty>
   <metaproperty tool="" name="meta.attr.creation_time">2015-09-03 17:08:43</metaproperty>
   <metaproperty tool="" name="meta.attr.major_brand">mp42</metaproperty>
   <metaproperty tool="" name="meta.attr.minor_version">1</metaproperty>
  </kdenlive_producer>
  <kdenlive_producer audio_max="49" id="11" pix_fmt="yuvj420p" default_video="0" fps="29.97" analysisdata="" name="IMGA0130.MP4" videocodecid="h264" colorspace="709" videocodec="H.264 / AVC / MPEG-4 AVC / MPEG-4 part 10" resource="/home/alex/Videos/EOTR 2015/IMGA0130.MP4" default_audio="1" audiocodec="AAC (Advanced Audio Coding)" duration="702" file_hash="cf15857a024ab78ac43ae1fd5741e53e" aspect_ratio="1" channels="2" frequency="48000" video_max="0" progressive="1" type="3" frame_size="1920x1080" file_size="56164352">
   <metaproperty tool="" name="meta.attr.0.stream.creation_time">2015-09-03 17:19:24</metaproperty>
   <metaproperty tool="" name="meta.attr.0.stream.language">eng</metaproperty>
   <metaproperty tool="" name="meta.attr.1.stream.creation_time">2015-09-03 17:19:24</metaproperty>
   <metaproperty tool="" name="meta.attr.1.stream.language">eng</metaproperty>
   <metaproperty tool="" name="meta.attr.compatible_brands">mp42avc1</metaproperty>
   <metaproperty tool="" name="meta.attr.creation_time">2015-09-03 17:19:24</metaproperty>
   <metaproperty tool="" name="meta.attr.major_brand">mp42</metaproperty>
   <metaproperty tool="" name="meta.attr.minor_version">1</metaproperty>
  </kdenlive_producer>
  <kdenlive_producer audio_max="53" id="12" pix_fmt="yuvj420p" default_video="0" fps="29.97" analysisdata="" name="IMGA0131.MP4" videocodecid="h264" colorspace="709" videocodec="H.264 / AVC / MPEG-4 AVC / MPEG-4 part 10" resource="/home/alex/Videos/EOTR 2015/IMGA0131.MP4" default_audio="1" audiocodec="AAC (Advanced Audio Coding)" duration="575" file_hash="0f9fd3c3623c3f3f373078472eccec66" aspect_ratio="1" channels="2" frequency="48000" video_max="0" progressive="1" type="3" frame_size="1920x1080" file_size="45744128">
   <metaproperty tool="" name="meta.attr.0.stream.creation_time">2015-09-03 17:20:14</metaproperty>
   <metaproperty tool="" name="meta.attr.0.stream.language">eng</metaproperty>
   <metaproperty tool="" name="meta.attr.1.stream.creation_time">2015-09-03 17:20:14</metaproperty>
   <metaproperty tool="" name="meta.attr.1.stream.language">eng</metaproperty>
   <metaproperty tool="" name="meta.attr.compatible_brands">mp42avc1</metaproperty>
   <metaproperty tool="" name="meta.attr.creation_time">2015-09-03 17:20:14</metaproperty>
   <metaproperty tool="" name="meta.attr.major_brand">mp42</metaproperty>
   <metaproperty tool="" name="meta.attr.minor_version">1</metaproperty>
  </kdenlive_producer>
  <kdenlive_producer audio_max="57" id="13" pix_fmt="yuvj420p" default_video="0" fps="29.97" analysisdata="" name="IMGA0132.MP4" videocodecid="h264" colorspace="709" videocodec="H.264 / AVC / MPEG-4 AVC / MPEG-4 part 10" resource="/home/alex/Videos/EOTR 2015/IMGA0132.MP4" default_audio="1" audiocodec="AAC (Advanced Audio Coding)" duration="1051" file_hash="8067ad83b0320725c25a8f1ba1aade78" aspect_ratio="1" channels="2" frequency="48000" video_max="0" progressive="1" type="3" frame_size="1920x1080" file_size="84312064">
   <metaproperty tool="" name="meta.attr.0.stream.creation_time">2015-09-03 17:29:47</metaproperty>
   <metaproperty tool="" name="meta.attr.0.stream.language">eng</metaproperty>
   <metaproperty tool="" name="meta.attr.1.stream.creation_time">2015-09-03 17:29:47</metaproperty>
   <metaproperty tool="" name="meta.attr.1.stream.language">eng</metaproperty>
   <metaproperty tool="" name="meta.attr.compatible_brands">mp42avc1</metaproperty>
   <metaproperty tool="" name="meta.attr.creation_time">2015-09-03 17:29:47</metaproperty>
   <metaproperty tool="" name="meta.attr.major_brand">mp42</metaproperty>
   <metaproperty tool="" name="meta.attr.minor_version">1</metaproperty>
  </kdenlive_producer>
  <kdenlive_producer audio_max="55" id="14" pix_fmt="yuvj420p" default_video="0" fps="29.97" analysisdata="" name="IMGA0133.MP4" videocodecid="h264" colorspace="709" videocodec="H.264 / AVC / MPEG-4 AVC / MPEG-4 part 10" resource="/home/alex/Videos/EOTR 2015/IMGA0133.MP4" default_audio="1" audiocodec="AAC (Advanced Audio Coding)" duration="475" file_hash="a853ba0e44cb27e8b969316b78ac4d89" aspect_ratio="1" channels="2" frequency="48000" video_max="0" progressive="1" type="3" frame_size="1920x1080" file_size="39190528">
   <metaproperty tool="" name="meta.attr.0.stream.creation_time">2015-09-03 17:42:46</metaproperty>
   <metaproperty tool="" name="meta.attr.0.stream.language">eng</metaproperty>
   <metaproperty tool="" name="meta.attr.1.stream.creation_time">2015-09-03 17:42:46</metaproperty>
   <metaproperty tool="" name="meta.attr.1.stream.language">eng</metaproperty>
   <metaproperty tool="" name="meta.attr.compatible_brands">mp42avc1</metaproperty>
   <metaproperty tool="" name="meta.attr.creation_time">2015-09-03 17:42:46</metaproperty>
   <metaproperty tool="" name="meta.attr.major_brand">mp42</metaproperty>
   <metaproperty tool="" name="meta.attr.minor_version">1</metaproperty>
  </kdenlive_producer>
  <kdenlive_producer audio_max="42" id="15" pix_fmt="yuvj420p" default_video="0" fps="29.97" analysisdata="" name="IMGA0134.MP4" videocodecid="h264" colorspace="709" videocodec="H.264 / AVC / MPEG-4 AVC / MPEG-4 part 10" resource="/home/alex/Videos/EOTR 2015/IMGA0134.MP4" default_audio="1" audiocodec="AAC (Advanced Audio Coding)" duration="750" file_hash="95f0d2768958dcead6bf3b5a840f8d1b" aspect_ratio="1" channels="2" frequency="48000" video_max="0" progressive="1" type="3" frame_size="1920x1080" file_size="59670528">
   <metaproperty tool="" name="meta.attr.0.stream.creation_time">2015-09-03 18:04:45</metaproperty>
   <metaproperty tool="" name="meta.attr.0.stream.language">eng</metaproperty>
   <metaproperty tool="" name="meta.attr.1.stream.creation_time">2015-09-03 18:04:45</metaproperty>
   <metaproperty tool="" name="meta.attr.1.stream.language">eng</metaproperty>
   <metaproperty tool="" name="meta.attr.compatible_brands">mp42avc1</metaproperty>
   <metaproperty tool="" name="meta.attr.creation_time">2015-09-03 18:04:45</metaproperty>
   <metaproperty tool="" name="meta.attr.major_brand">mp42</metaproperty>
   <metaproperty tool="" name="meta.attr.minor_version">1</metaproperty>
  </kdenlive_producer>
  <kdenlive_producer audio_max="26" id="16" pix_fmt="yuvj420p" default_video="0" fps="29.97" analysisdata="" name="IMGA0135.MP4" videocodecid="h264" colorspace="709" videocodec="H.264 / AVC / MPEG-4 AVC / MPEG-4 part 10" resource="/home/alex/Videos/EOTR 2015/IMGA0135.MP4" default_audio="1" audiocodec="AAC (Advanced Audio Coding)" duration="500" file_hash="c817ca956d8a9932d563be7db72b64ed" aspect_ratio="1" channels="2" frequency="48000" video_max="0" progressive="1" type="3" frame_size="1920x1080" file_size="39616512">
   <metaproperty tool="" name="meta.attr.0.stream.creation_time">2015-09-03 18:06:10</metaproperty>
   <metaproperty tool="" name="meta.attr.0.stream.language">eng</metaproperty>
   <metaproperty tool="" name="meta.attr.1.stream.creation_time">2015-09-03 18:06:10</metaproperty>
   <metaproperty tool="" name="meta.attr.1.stream.language">eng</metaproperty>
   <metaproperty tool="" name="meta.attr.compatible_brands">mp42avc1</metaproperty>
   <metaproperty tool="" name="meta.attr.creation_time">2015-09-03 18:06:10</metaproperty>
   <metaproperty tool="" name="meta.attr.major_brand">mp42</metaproperty>
   <metaproperty tool="" name="meta.attr.minor_version">1</metaproperty>
  </kdenlive_producer>
  <kdenlive_producer audio_max="42" id="17" pix_fmt="yuvj420p" default_video="0" fps="29.97" analysisdata="" name="IMGA0136.MP4" videocodecid="h264" colorspace="709" videocodec="H.264 / AVC / MPEG-4 AVC / MPEG-4 part 10" resource="/home/alex/Videos/EOTR 2015/IMGA0136.MP4" default_audio="1" audiocodec="AAC (Advanced Audio Coding)" duration="700" file_hash="744a308b53d7d12231e7c01c7c15795b" aspect_ratio="1" channels="2" frequency="48000" video_max="0" progressive="1" type="3" frame_size="1920x1080" file_size="54853632">
   <metaproperty tool="" name="meta.attr.0.stream.creation_time">2015-09-03 18:15:01</metaproperty>
   <metaproperty tool="" name="meta.attr.0.stream.language">eng</metaproperty>
   <metaproperty tool="" name="meta.attr.1.stream.creation_time">2015-09-03 18:15:01</metaproperty>
   <metaproperty tool="" name="meta.attr.1.stream.language">eng</metaproperty>
   <metaproperty tool="" name="meta.attr.compatible_brands">mp42avc1</metaproperty>
   <metaproperty tool="" name="meta.attr.creation_time">2015-09-03 18:15:01</metaproperty>
   <metaproperty tool="" name="meta.attr.major_brand">mp42</metaproperty>
   <metaproperty tool="" name="meta.attr.minor_version">1</metaproperty>
  </kdenlive_producer>
  <kdenlive_producer audio_max="48" id="18" pix_fmt="yuvj420p" default_video="0" fps="29.97" analysisdata="" name="IMGA0137.MP4" videocodecid="h264" colorspace="709" videocodec="H.264 / AVC / MPEG-4 AVC / MPEG-4 part 10" resource="/home/alex/Videos/EOTR 2015/IMGA0137.MP4" default_audio="1" audiocodec="AAC (Advanced Audio Coding)" duration="750" file_hash="b95a94b0c7bdd93505218740a408db61" aspect_ratio="1" channels="2" frequency="48000" video_max="0" progressive="1" type="3" frame_size="1920x1080" file_size="59572224">
   <metaproperty tool="" name="meta.attr.0.stream.creation_time">2015-09-03 18:29:12</metaproperty>
   <metaproperty tool="" name="meta.attr.0.stream.language">eng</metaproperty>
   <metaproperty tool="" name="meta.attr.1.stream.creation_time">2015-09-03 18:29:12</metaproperty>
   <metaproperty tool="" name="meta.attr.1.stream.language">eng</metaproperty>
   <metaproperty tool="" name="meta.attr.compatible_brands">mp42avc1</metaproperty>
   <metaproperty tool="" name="meta.attr.creation_time">2015-09-03 18:29:12</metaproperty>
   <metaproperty tool="" name="meta.attr.major_brand">mp42</metaproperty>
   <metaproperty tool="" name="meta.attr.minor_version">1</metaproperty>
  </kdenlive_producer>
  <kdenlive_producer audio_max="55" id="19" pix_fmt="yuvj420p" default_video="0" fps="29.97" analysisdata="" name="IMGA0138.MP4" videocodecid="h264" colorspace="709" videocodec="H.264 / AVC / MPEG-4 AVC / MPEG-4 part 10" resource="/home/alex/Videos/EOTR 2015/IMGA0138.MP4" default_audio="1" audiocodec="AAC (Advanced Audio Coding)" duration="650" file_hash="aae89474f6a76f8b0e68c4351ccef367" aspect_ratio="1" channels="2" frequency="48000" video_max="0" progressive="1" type="3" frame_size="1920x1080" file_size="52494336">
   <metaproperty tool="" name="meta.attr.0.stream.creation_time">2015-09-03 18:32:59</metaproperty>
   <metaproperty tool="" name="meta.attr.0.stream.language">eng</metaproperty>
   <metaproperty tool="" name="meta.attr.1.stream.creation_time">2015-09-03 18:32:59</metaproperty>
   <metaproperty tool="" name="meta.attr.1.stream.language">eng</metaproperty>
   <metaproperty tool="" name="meta.attr.compatible_brands">mp42avc1</metaproperty>
   <metaproperty tool="" name="meta.attr.creation_time">2015-09-03 18:32:59</metaproperty>
   <metaproperty tool="" name="meta.attr.major_brand">mp42</metaproperty>
   <metaproperty tool="" name="meta.attr.minor_version">1</metaproperty>
  </kdenlive_producer>
  <kdenlive_producer audio_max="56" id="20" pix_fmt="yuvj420p" default_video="0" fps="29.97" analysisdata="" name="IMGA0139.MP4" videocodecid="h264" thumbnail="100" colorspace="709" videocodec="H.264 / AVC / MPEG-4 AVC / MPEG-4 part 10" resource="/home/alex/Videos/EOTR 2015/IMGA0139.MP4" default_audio="1" audiocodec="AAC (Advanced Audio Coding)" duration="825" file_hash="09d8d38d25c24f56edf6c13fa0c36e38" aspect_ratio="1" channels="2" frequency="48000" video_max="0" progressive="1" type="3" frame_size="1920x1080" file_size="63635456">
   <metaproperty tool="" name="meta.attr.0.stream.creation_time">2015-09-03 18:40:40</metaproperty>
   <metaproperty tool="" name="meta.attr.0.stream.language">eng</metaproperty>
   <metaproperty tool="" name="meta.attr.1.stream.creation_time">2015-09-03 18:40:40</metaproperty>
   <metaproperty tool="" name="meta.attr.1.stream.language">eng</metaproperty>
   <metaproperty tool="" name="meta.attr.compatible_brands">mp42avc1</metaproperty>
   <metaproperty tool="" name="meta.attr.creation_time">2015-09-03 18:40:40</metaproperty>
   <metaproperty tool="" name="meta.attr.major_brand">mp42</metaproperty>
   <metaproperty tool="" name="meta.attr.minor_version">1</metaproperty>
  </kdenlive_producer>
  <kdenlive_producer audio_max="52" id="21" pix_fmt="yuvj420p" default_video="0" fps="29.97" analysisdata="" name="IMGA0140.MP4" videocodecid="h264" colorspace="709" videocodec="H.264 / AVC / MPEG-4 AVC / MPEG-4 part 10" resource="/home/alex/Videos/EOTR 2015/IMGA0140.MP4" default_audio="1" audiocodec="AAC (Advanced Audio Coding)" duration="575" file_hash="f40d1c5fc0298532f95025379528c3a5" aspect_ratio="1" channels="2" frequency="48000" video_max="0" progressive="1" type="3" frame_size="1920x1080" file_size="45219840">
   <metaproperty tool="" name="meta.attr.0.stream.creation_time">2015-09-03 18:41:27</metaproperty>
   <metaproperty tool="" name="meta.attr.0.stream.language">eng</metaproperty>
   <metaproperty tool="" name="meta.attr.1.stream.creation_time">2015-09-03 18:41:27</metaproperty>
   <metaproperty tool="" name="meta.attr.1.stream.language">eng</metaproperty>
   <metaproperty tool="" name="meta.attr.compatible_brands">mp42avc1</metaproperty>
   <metaproperty tool="" name="meta.attr.creation_time">2015-09-03 18:41:27</metaproperty>
   <metaproperty tool="" name="meta.attr.major_brand">mp42</metaproperty>
   <metaproperty tool="" name="meta.attr.minor_version">1</metaproperty>
  </kdenlive_producer>
  <kdenlive_producer audio_max="57" id="22" pix_fmt="yuvj420p" default_video="0" fps="29.97" analysisdata="" name="IMGA0141.MP4" videocodecid="h264" colorspace="709" videocodec="H.264 / AVC / MPEG-4 AVC / MPEG-4 part 10" resource="/home/alex/Videos/EOTR 2015/IMGA0141.MP4" default_audio="1" audiocodec="AAC (Advanced Audio Coding)" duration="225" file_hash="eee6b76d558d1313fb60af268237fc48" aspect_ratio="1" channels="2" frequency="48000" video_max="0" progressive="1" type="3" frame_size="1920x1080" file_size="18284544">
   <metaproperty tool="" name="meta.attr.0.stream.creation_time">2015-09-03 19:34:42</metaproperty>
   <metaproperty tool="" name="meta.attr.0.stream.language">eng</metaproperty>
   <metaproperty tool="" name="meta.attr.1.stream.creation_time">2015-09-03 19:34:42</metaproperty>
   <metaproperty tool="" name="meta.attr.1.stream.language">eng</metaproperty>
   <metaproperty tool="" name="meta.attr.compatible_brands">mp42avc1</metaproperty>
   <metaproperty tool="" name="meta.attr.creation_time">2015-09-03 19:34:42</metaproperty>
   <metaproperty tool="" name="meta.attr.major_brand">mp42</metaproperty>
   <metaproperty tool="" name="meta.attr.minor_version">1</metaproperty>
  </kdenlive_producer>
  <kdenlive_producer audio_max="50" id="23" pix_fmt="yuvj420p" default_video="0" fps="29.97" analysisdata="" name="IMGA0142.MP4" videocodecid="h264" colorspace="709" videocodec="H.264 / AVC / MPEG-4 AVC / MPEG-4 part 10" resource="/home/alex/Videos/EOTR 2015/IMGA0142.MP4" default_audio="1" audiocodec="AAC (Advanced Audio Coding)" duration="1526" file_hash="f5879efc88c010db00f791532361e1e6" aspect_ratio="1" channels="2" frequency="48000" video_max="0" progressive="1" type="3" frame_size="1920x1080" file_size="121339904">
   <metaproperty tool="" name="meta.attr.0.stream.creation_time">2015-09-04 09:16:09</metaproperty>
   <metaproperty tool="" name="meta.attr.0.stream.language">eng</metaproperty>
   <metaproperty tool="" name="meta.attr.1.stream.creation_time">2015-09-04 09:16:09</metaproperty>
   <metaproperty tool="" name="meta.attr.1.stream.language">eng</metaproperty>
   <metaproperty tool="" name="meta.attr.compatible_brands">mp42avc1</metaproperty>
   <metaproperty tool="" name="meta.attr.creation_time">2015-09-04 09:16:09</metaproperty>
   <metaproperty tool="" name="meta.attr.major_brand">mp42</metaproperty>
   <metaproperty tool="" name="meta.attr.minor_version">1</metaproperty>
  </kdenlive_producer>
  <kdenlive_producer audio_max="27" id="24" pix_fmt="yuvj420p" default_video="0" fps="29.97" analysisdata="" name="IMGA0143.MP4" videocodecid="h264" colorspace="709" videocodec="H.264 / AVC / MPEG-4 AVC / MPEG-4 part 10" resource="/home/alex/Videos/EOTR 2015/IMGA0143.MP4" default_audio="1" audiocodec="AAC (Advanced Audio Coding)" duration="375" file_hash="5b4fa3cdfa1346588c64f58ce7269920" aspect_ratio="1" channels="2" frequency="48000" video_max="0" progressive="1" type="3" frame_size="1920x1080" file_size="35717120">
   <metaproperty tool="" name="meta.attr.0.stream.creation_time">2015-09-04 09:17:44</metaproperty>
   <metaproperty tool="" name="meta.attr.0.stream.language">eng</metaproperty>
   <metaproperty tool="" name="meta.attr.1.stream.creation_time">2015-09-04 09:17:44</metaproperty>
   <metaproperty tool="" name="meta.attr.1.stream.language">eng</metaproperty>
   <metaproperty tool="" name="meta.attr.compatible_brands">mp42avc1</metaproperty>
   <metaproperty tool="" name="meta.attr.creation_time">2015-09-04 09:17:44</metaproperty>
   <metaproperty tool="" name="meta.attr.major_brand">mp42</metaproperty>
   <metaproperty tool="" name="meta.attr.minor_version">1</metaproperty>
  </kdenlive_producer>
  <kdenlive_producer audio_max="27" id="25" pix_fmt="yuvj420p" default_video="0" fps="29.97" analysisdata="" name="IMGA0144.MP4" videocodecid="h264" colorspace="709" videocodec="H.264 / AVC / MPEG-4 AVC / MPEG-4 part 10" resource="/home/alex/Videos/EOTR 2015/IMGA0144.MP4" default_audio="1" audiocodec="AAC (Advanced Audio Coding)" duration="175" file_hash="3e8d83239f0ee3727a7de21e4d8e8a7a" aspect_ratio="1" channels="2" frequency="48000" video_max="0" progressive="1" type="3" frame_size="1920x1080" file_size="14417920">
   <metaproperty tool="" name="meta.attr.0.stream.creation_time">2015-09-04 09:18:04</metaproperty>
   <metaproperty tool="" name="meta.attr.0.stream.language">eng</metaproperty>
   <metaproperty tool="" name="meta.attr.1.stream.creation_time">2015-09-04 09:18:04</metaproperty>
   <metaproperty tool="" name="meta.attr.1.stream.language">eng</metaproperty>
   <metaproperty tool="" name="meta.attr.compatible_brands">mp42avc1</metaproperty>
   <metaproperty tool="" name="meta.attr.creation_time">2015-09-04 09:18:04</metaproperty>
   <metaproperty tool="" name="meta.attr.major_brand">mp42</metaproperty>
   <metaproperty tool="" name="meta.attr.minor_version">1</metaproperty>
  </kdenlive_producer>
  <kdenlive_producer audio_max="30" id="26" pix_fmt="yuvj420p" default_video="0" fps="29.97" analysisdata="" name="IMGA0145.MP4" videocodecid="h264" colorspace="709" videocodec="H.264 / AVC / MPEG-4 AVC / MPEG-4 part 10" resource="/home/alex/Videos/EOTR 2015/IMGA0145.MP4" default_audio="1" audiocodec="AAC (Advanced Audio Coding)" duration="450" file_hash="f9b7c43318b8a16b149c0ee505a63e4e" aspect_ratio="1" channels="2" frequency="48000" video_max="0" progressive="1" type="3" frame_size="1920x1080" file_size="37945344">
   <metaproperty tool="" name="meta.attr.0.stream.creation_time">2015-09-04 09:19:23</metaproperty>
   <metaproperty tool="" name="meta.attr.0.stream.language">eng</metaproperty>
   <metaproperty tool="" name="meta.attr.1.stream.creation_time">2015-09-04 09:19:23</metaproperty>
   <metaproperty tool="" name="meta.attr.1.stream.language">eng</metaproperty>
   <metaproperty tool="" name="meta.attr.compatible_brands">mp42avc1</metaproperty>
   <metaproperty tool="" name="meta.attr.creation_time">2015-09-04 09:19:23</metaproperty>
   <metaproperty tool="" name="meta.attr.major_brand">mp42</metaproperty>
   <metaproperty tool="" name="meta.attr.minor_version">1</metaproperty>
  </kdenlive_producer>
  <kdenlive_producer audio_max="20" id="27" pix_fmt="yuvj420p" default_video="0" fps="29.97" analysisdata="" name="IMGA0146.MP4" videocodecid="h264" colorspace="709" videocodec="H.264 / AVC / MPEG-4 AVC / MPEG-4 part 10" resource="/home/alex/Videos/EOTR 2015/IMGA0146.MP4" default_audio="1" audiocodec="AAC (Advanced Audio Coding)" duration="300" file_hash="319caf4e5e72bcdc8c7027182359500e" aspect_ratio="1" channels="2" frequency="48000" video_max="0" progressive="1" type="3" frame_size="1920x1080" file_size="25657344">
   <metaproperty tool="" name="meta.attr.0.stream.creation_time">2015-09-04 09:20:56</metaproperty>
   <metaproperty tool="" name="meta.attr.0.stream.language">eng</metaproperty>
   <metaproperty tool="" name="meta.attr.1.stream.creation_time">2015-09-04 09:20:56</metaproperty>
   <metaproperty tool="" name="meta.attr.1.stream.language">eng</metaproperty>
   <metaproperty tool="" name="meta.attr.compatible_brands">mp42avc1</metaproperty>
   <metaproperty tool="" name="meta.attr.creation_time">2015-09-04 09:20:56</metaproperty>
   <metaproperty tool="" name="meta.attr.major_brand">mp42</metaproperty>
   <metaproperty tool="" name="meta.attr.minor_version">1</metaproperty>
  </kdenlive_producer>
  <kdenlive_producer audio_max="54" id="28" pix_fmt="yuvj420p" default_video="0" fps="29.97" analysisdata="" name="IMGA0147.MP4" videocodecid="h264" colorspace="709" videocodec="H.264 / AVC / MPEG-4 AVC / MPEG-4 part 10" resource="/home/alex/Videos/EOTR 2015/IMGA0147.MP4" default_audio="1" audiocodec="AAC (Advanced Audio Coding)" duration="4129" file_hash="a6527aff2e00e62012270d94a31f2bc3" aspect_ratio="1" channels="2" frequency="48000" video_max="0" progressive="1" type="3" frame_size="1920x1080" file_size="329973760">
   <metaproperty tool="" name="meta.attr.0.stream.creation_time">2015-09-04 09:21:25</metaproperty>
   <metaproperty tool="" name="meta.attr.0.stream.language">eng</metaproperty>
   <metaproperty tool="" name="meta.attr.1.stream.creation_time">2015-09-04 09:21:25</metaproperty>
   <metaproperty tool="" name="meta.attr.1.stream.language">eng</metaproperty>
   <metaproperty tool="" name="meta.attr.compatible_brands">mp42avc1</metaproperty>
   <metaproperty tool="" name="meta.attr.creation_time">2015-09-04 09:21:25</metaproperty>
   <metaproperty tool="" name="meta.attr.major_brand">mp42</metaproperty>
   <metaproperty tool="" name="meta.attr.minor_version">1</metaproperty>
  </kdenlive_producer>
  <kdenlive_producer audio_max="39" id="29" pix_fmt="yuvj420p" default_video="0" fps="29.97" analysisdata="" name="IMGA0148.MP4" videocodecid="h264" colorspace="709" videocodec="H.264 / AVC / MPEG-4 AVC / MPEG-4 part 10" resource="/home/alex/Videos/EOTR 2015/IMGA0148.MP4" default_audio="1" audiocodec="AAC (Advanced Audio Coding)" duration="300" file_hash="c3b50273be972ec7cb860a75e6191f8e" aspect_ratio="1" channels="2" frequency="48000" video_max="0" progressive="1" type="3" frame_size="1920x1080" file_size="23953408">
   <metaproperty tool="" name="meta.attr.0.stream.creation_time">2015-09-04 09:25:56</metaproperty>
   <metaproperty tool="" name="meta.attr.0.stream.language">eng</metaproperty>
   <metaproperty tool="" name="meta.attr.1.stream.creation_time">2015-09-04 09:25:56</metaproperty>
   <metaproperty tool="" name="meta.attr.1.stream.language">eng</metaproperty>
   <metaproperty tool="" name="meta.attr.compatible_brands">mp42avc1</metaproperty>
   <metaproperty tool="" name="meta.attr.creation_time">2015-09-04 09:25:56</metaproperty>
   <metaproperty tool="" name="meta.attr.major_brand">mp42</metaproperty>
   <metaproperty tool="" name="meta.attr.minor_version">1</metaproperty>
  </kdenlive_producer>
  <kdenlive_producer audio_max="45" id="30" pix_fmt="yuvj420p" default_video="0" fps="29.97" analysisdata="" name="IMGA0149.MP4" videocodecid="h264" colorspace="709" videocodec="H.264 / AVC / MPEG-4 AVC / MPEG-4 part 10" resource="/home/alex/Videos/EOTR 2015/IMGA0149.MP4" default_audio="1" audiocodec="AAC (Advanced Audio Coding)" duration="175" file_hash="9406ebda83446f948afdde1f624e6d05" aspect_ratio="1" channels="2" frequency="48000" video_max="0" progressive="1" type="3" frame_size="1920x1080" file_size="14319616">
   <metaproperty tool="" name="meta.attr.0.stream.creation_time">2015-09-04 09:26:31</metaproperty>
   <metaproperty tool="" name="meta.attr.0.stream.language">eng</metaproperty>
   <metaproperty tool="" name="meta.attr.1.stream.creation_time">2015-09-04 09:26:31</metaproperty>
   <metaproperty tool="" name="meta.attr.1.stream.language">eng</metaproperty>
   <metaproperty tool="" name="meta.attr.compatible_brands">mp42avc1</metaproperty>
   <metaproperty tool="" name="meta.attr.creation_time">2015-09-04 09:26:31</metaproperty>
   <metaproperty tool="" name="meta.attr.major_brand">mp42</metaproperty>
   <metaproperty tool="" name="meta.attr.minor_version">1</metaproperty>
  </kdenlive_producer>
  <kdenlive_producer audio_max="44" id="31" pix_fmt="yuvj420p" default_video="0" fps="29.97" analysisdata="" name="IMGA0150.MP4" videocodecid="h264" colorspace="709" videocodec="H.264 / AVC / MPEG-4 AVC / MPEG-4 part 10" resource="/home/alex/Videos/EOTR 2015/IMGA0150.MP4" default_audio="1" audiocodec="AAC (Advanced Audio Coding)" duration="575" file_hash="ea381d54e3964e3b02a9e88640912999" aspect_ratio="1" channels="2" frequency="48000" video_max="0" progressive="1" type="3" frame_size="1920x1080" file_size="48136192">
   <metaproperty tool="" name="meta.attr.0.stream.creation_time">2015-09-04 09:27:04</metaproperty>
   <metaproperty tool="" name="meta.attr.0.stream.language">eng</metaproperty>
   <metaproperty tool="" name="meta.attr.1.stream.creation_time">2015-09-04 09:27:04</metaproperty>
   <metaproperty tool="" name="meta.attr.1.stream.language">eng</metaproperty>
   <metaproperty tool="" name="meta.attr.compatible_brands">mp42avc1</metaproperty>
   <metaproperty tool="" name="meta.attr.creation_time">2015-09-04 09:27:04</metaproperty>
   <metaproperty tool="" name="meta.attr.major_brand">mp42</metaproperty>
   <metaproperty tool="" name="meta.attr.minor_version">1</metaproperty>
  </kdenlive_producer>
  <kdenlive_producer audio_max="38" id="32" pix_fmt="yuvj420p" default_video="0" fps="29.97" analysisdata="" name="IMGA0151.MP4" videocodecid="h264" colorspace="709" videocodec="H.264 / AVC / MPEG-4 AVC / MPEG-4 part 10" resource="/home/alex/Videos/EOTR 2015/IMGA0151.MP4" default_audio="1" audiocodec="AAC (Advanced Audio Coding)" duration="1301" file_hash="7cbd4d4fe323c2f4552da45f9ee32807" aspect_ratio="1" channels="2" frequency="48000" video_max="0" progressive="1" type="3" frame_size="1920x1080" file_size="106758144">
   <metaproperty tool="" name="meta.attr.0.stream.creation_time">2015-09-04 09:28:23</metaproperty>
   <metaproperty tool="" name="meta.attr.0.stream.language">eng</metaproperty>
   <metaproperty tool="" name="meta.attr.1.stream.creation_time">2015-09-04 09:28:23</metaproperty>
   <metaproperty tool="" name="meta.attr.1.stream.language">eng</metaproperty>
   <metaproperty tool="" name="meta.attr.compatible_brands">mp42avc1</metaproperty>
   <metaproperty tool="" name="meta.attr.creation_time">2015-09-04 09:28:23</metaproperty>
   <metaproperty tool="" name="meta.attr.major_brand">mp42</metaproperty>
   <metaproperty tool="" name="meta.attr.minor_version">1</metaproperty>
  </kdenlive_producer>
  <kdenlive_producer audio_max="23" id="33" pix_fmt="yuvj420p" default_video="0" fps="29.97" analysisdata="" name="IMGA0152.MP4" videocodecid="h264" colorspace="709" videocodec="H.264 / AVC / MPEG-4 AVC / MPEG-4 part 10" resource="/home/alex/Videos/EOTR 2015/IMGA0152.MP4" default_audio="1" audiocodec="AAC (Advanced Audio Coding)" duration="300" file_hash="cccb936b8b64556b6d8ecd5996d15de7" aspect_ratio="1" channels="2" frequency="48000" video_max="0" progressive="1" type="3" frame_size="1920x1080" file_size="26279936">
   <metaproperty tool="" name="meta.attr.0.stream.creation_time">2015-09-04 09:30:09</metaproperty>
   <metaproperty tool="" name="meta.attr.0.stream.language">eng</metaproperty>
   <metaproperty tool="" name="meta.attr.1.stream.creation_time">2015-09-04 09:30:09</metaproperty>
   <metaproperty tool="" name="meta.attr.1.stream.language">eng</metaproperty>
   <metaproperty tool="" name="meta.attr.compatible_brands">mp42avc1</metaproperty>
   <metaproperty tool="" name="meta.attr.creation_time">2015-09-04 09:30:09</metaproperty>
   <metaproperty tool="" name="meta.attr.major_brand">mp42</metaproperty>
   <metaproperty tool="" name="meta.attr.minor_version">1</metaproperty>
  </kdenlive_producer>
  <kdenlive_producer audio_max="28" id="34" pix_fmt="yuvj420p" default_video="0" fps="29.97" analysisdata="" name="IMGA0153.MP4" videocodecid="h264" colorspace="709" videocodec="H.264 / AVC / MPEG-4 AVC / MPEG-4 part 10" resource="/home/alex/Videos/EOTR 2015/IMGA0153.MP4" default_audio="1" audiocodec="AAC (Advanced Audio Coding)" duration="475" file_hash="434ba453cab786357a3f27900218d640" aspect_ratio="1" channels="2" frequency="48000" video_max="0" progressive="1" type="3" frame_size="1920x1080" file_size="42172416">
   <metaproperty tool="" name="meta.attr.0.stream.creation_time">2015-09-04 09:34:06</metaproperty>
   <metaproperty tool="" name="meta.attr.0.stream.language">eng</metaproperty>
   <metaproperty tool="" name="meta.attr.1.stream.creation_time">2015-09-04 09:34:06</metaproperty>
   <metaproperty tool="" name="meta.attr.1.stream.language">eng</metaproperty>
   <metaproperty tool="" name="meta.attr.compatible_brands">mp42avc1</metaproperty>
   <metaproperty tool="" name="meta.attr.creation_time">2015-09-04 09:34:06</metaproperty>
   <metaproperty tool="" name="meta.attr.major_brand">mp42</metaproperty>
   <metaproperty tool="" name="meta.attr.minor_version">1</metaproperty>
  </kdenlive_producer>
  <kdenlive_producer audio_max="54" id="35" pix_fmt="yuvj420p" default_video="0" fps="29.97" analysisdata="" name="IMGA0154.MP4" videocodecid="h264" colorspace="709" videocodec="H.264 / AVC / MPEG-4 AVC / MPEG-4 part 10" resource="/home/alex/Videos/EOTR 2015/IMGA0154.MP4" default_audio="1" audiocodec="AAC (Advanced Audio Coding)" duration="1726" file_hash="9f87637dd8260777a65ac6d306bb33c7" aspect_ratio="1" channels="2" frequency="48000" video_max="0" progressive="1" type="3" frame_size="1920x1080" file_size="140115968">
   <metaproperty tool="" name="meta.attr.0.stream.creation_time">2015-09-04 09:38:32</metaproperty>
   <metaproperty tool="" name="meta.attr.0.stream.language">eng</metaproperty>
   <metaproperty tool="" name="meta.attr.1.stream.creation_time">2015-09-04 09:38:32</metaproperty>
   <metaproperty tool="" name="meta.attr.1.stream.language">eng</metaproperty>
   <metaproperty tool="" name="meta.attr.compatible_brands">mp42avc1</metaproperty>
   <metaproperty tool="" name="meta.attr.creation_time">2015-09-04 09:38:32</metaproperty>
   <metaproperty tool="" name="meta.attr.major_brand">mp42</metaproperty>
   <metaproperty tool="" name="meta.attr.minor_version">1</metaproperty>
  </kdenlive_producer>
  <kdenlive_producer audio_max="52" id="36" pix_fmt="yuvj420p" default_video="0" fps="29.97" analysisdata="" name="IMGA0155.MP4" videocodecid="h264" colorspace="709" videocodec="H.264 / AVC / MPEG-4 AVC / MPEG-4 part 10" resource="/home/alex/Videos/EOTR 2015/IMGA0155.MP4" default_audio="1" audiocodec="AAC (Advanced Audio Coding)" duration="702" file_hash="2a76cd1bfae8f5473f8f1cadf55ad5be" aspect_ratio="1" channels="2" frequency="48000" video_max="0" progressive="1" type="3" frame_size="1920x1080" file_size="60522496">
   <metaproperty tool="" name="meta.attr.0.stream.creation_time">2015-09-04 09:40:24</metaproperty>
   <metaproperty tool="" name="meta.attr.0.stream.language">eng</metaproperty>
   <metaproperty tool="" name="meta.attr.1.stream.creation_time">2015-09-04 09:40:24</metaproperty>
   <metaproperty tool="" name="meta.attr.1.stream.language">eng</metaproperty>
   <metaproperty tool="" name="meta.attr.compatible_brands">mp42avc1</metaproperty>
   <metaproperty tool="" name="meta.attr.creation_time">2015-09-04 09:40:24</metaproperty>
   <metaproperty tool="" name="meta.attr.major_brand">mp42</metaproperty>
   <metaproperty tool="" name="meta.attr.minor_version">1</metaproperty>
  </kdenlive_producer>
  <kdenlive_producer audio_max="48" id="37" pix_fmt="yuvj420p" default_video="0" fps="29.97" analysisdata="" name="IMGA0156.MP4" videocodecid="h264" colorspace="709" videocodec="H.264 / AVC / MPEG-4 AVC / MPEG-4 part 10" resource="/home/alex/Videos/EOTR 2015/IMGA0156.MP4" default_audio="1" audiocodec="AAC (Advanced Audio Coding)" duration="1401" file_hash="590f7ead8e8f94a1c60ef662d9ebe385" aspect_ratio="1" channels="2" frequency="48000" video_max="0" progressive="1" type="3" frame_size="1280x720" file_size="71041024">
   <metaproperty tool="" name="meta.attr.0.stream.creation_time">2015-09-04 09:42:57</metaproperty>
   <metaproperty tool="" name="meta.attr.0.stream.language">eng</metaproperty>
   <metaproperty tool="" name="meta.attr.1.stream.creation_time">2015-09-04 09:42:57</metaproperty>
   <metaproperty tool="" name="meta.attr.1.stream.language">eng</metaproperty>
   <metaproperty tool="" name="meta.attr.compatible_brands">mp42avc1</metaproperty>
   <metaproperty tool="" name="meta.attr.creation_time">2015-09-04 09:42:57</metaproperty>
   <metaproperty tool="" name="meta.attr.major_brand">mp42</metaproperty>
   <metaproperty tool="" name="meta.attr.minor_version">1</metaproperty>
  </kdenlive_producer>
  <kdenlive_producer audio_max="48" id="38" pix_fmt="yuvj420p" default_video="0" fps="29.97" analysisdata="" name="IMGA0157.MP4" videocodecid="h264" colorspace="709" videocodec="H.264 / AVC / MPEG-4 AVC / MPEG-4 part 10" resource="/home/alex/Videos/EOTR 2015/IMGA0157.MP4" default_audio="1" audiocodec="AAC (Advanced Audio Coding)" duration="700" file_hash="7cd541e39b870e9de0f52574dd689417" aspect_ratio="1" channels="2" frequency="48000" video_max="0" progressive="1" type="3" frame_size="1280x720" file_size="33652736">
   <metaproperty tool="" name="meta.attr.0.stream.creation_time">2015-09-04 09:45:50</metaproperty>
   <metaproperty tool="" name="meta.attr.0.stream.language">eng</metaproperty>
   <metaproperty tool="" name="meta.attr.1.stream.creation_time">2015-09-04 09:45:50</metaproperty>
   <metaproperty tool="" name="meta.attr.1.stream.language">eng</metaproperty>
   <metaproperty tool="" name="meta.attr.compatible_brands">mp42avc1</metaproperty>
   <metaproperty tool="" name="meta.attr.creation_time">2015-09-04 09:45:50</metaproperty>
   <metaproperty tool="" name="meta.attr.major_brand">mp42</metaproperty>
   <metaproperty tool="" name="meta.attr.minor_version">1</metaproperty>
  </kdenlive_producer>
  <kdenlive_producer audio_max="63" id="39" pix_fmt="yuvj420p" default_video="0" fps="29.97" analysisdata="" name="IMGA0158.MP4" videocodecid="h264" colorspace="709" videocodec="H.264 / AVC / MPEG-4 AVC / MPEG-4 part 10" resource="/home/alex/Videos/EOTR 2015/IMGA0158.MP4" default_audio="1" audiocodec="AAC (Advanced Audio Coding)" duration="350" file_hash="ba9872f36167aad5b30ead73d86b6843" aspect_ratio="1" channels="2" frequency="48000" video_max="0" progressive="1" type="3" frame_size="1280x720" file_size="16973824">
   <metaproperty tool="" name="meta.attr.0.stream.creation_time">2015-09-04 09:46:41</metaproperty>
   <metaproperty tool="" name="meta.attr.0.stream.language">eng</metaproperty>
   <metaproperty tool="" name="meta.attr.1.stream.creation_time">2015-09-04 09:46:41</metaproperty>
   <metaproperty tool="" name="meta.attr.1.stream.language">eng</metaproperty>
   <metaproperty tool="" name="meta.attr.compatible_brands">mp42avc1</metaproperty>
   <metaproperty tool="" name="meta.attr.creation_time">2015-09-04 09:46:41</metaproperty>
   <metaproperty tool="" name="meta.attr.major_brand">mp42</metaproperty>
   <metaproperty tool="" name="meta.attr.minor_version">1</metaproperty>
  </kdenlive_producer>
  <kdenlive_producer audio_max="40" id="40" pix_fmt="yuvj420p" default_video="0" fps="29.97" analysisdata="" name="IMGA0159.MP4" videocodecid="h264" colorspace="709" videocodec="H.264 / AVC / MPEG-4 AVC / MPEG-4 part 10" resource="/home/alex/Videos/EOTR 2015/IMGA0159.MP4" default_audio="1" audiocodec="AAC (Advanced Audio Coding)" duration="350" file_hash="864e2b191ac4d5b53ffac38f93d22c56" aspect_ratio="1" channels="2" frequency="48000" video_max="0" progressive="1" type="3" frame_size="1280x720" file_size="17432576">
   <metaproperty tool="" name="meta.attr.0.stream.creation_time">2015-09-04 09:47:12</metaproperty>
   <metaproperty tool="" name="meta.attr.0.stream.language">eng</metaproperty>
   <metaproperty tool="" name="meta.attr.1.stream.creation_time">2015-09-04 09:47:12</metaproperty>
   <metaproperty tool="" name="meta.attr.1.stream.language">eng</metaproperty>
   <metaproperty tool="" name="meta.attr.compatible_brands">mp42avc1</metaproperty>
   <metaproperty tool="" name="meta.attr.creation_time">2015-09-04 09:47:12</metaproperty>
   <metaproperty tool="" name="meta.attr.major_brand">mp42</metaproperty>
   <metaproperty tool="" name="meta.attr.minor_version">1</metaproperty>
  </kdenlive_producer>
  <kdenlive_producer audio_max="61" id="41" pix_fmt="yuvj420p" default_video="0" fps="29.97" analysisdata="" name="IMGA0160.MP4" videocodecid="h264" colorspace="709" videocodec="H.264 / AVC / MPEG-4 AVC / MPEG-4 part 10" resource="/home/alex/Videos/EOTR 2015/IMGA0160.MP4" default_audio="1" audiocodec="AAC (Advanced Audio Coding)" duration="800" file_hash="86704b7de86d212b37ec95c82eb28db9" aspect_ratio="1" channels="2" frequency="48000" video_max="0" progressive="1" type="3" frame_size="1280x720" file_size="38502400">
   <metaproperty tool="" name="meta.attr.0.stream.creation_time">2015-09-04 09:48:06</metaproperty>
   <metaproperty tool="" name="meta.attr.0.stream.language">eng</metaproperty>
   <metaproperty tool="" name="meta.attr.1.stream.creation_time">2015-09-04 09:48:06</metaproperty>
   <metaproperty tool="" name="meta.attr.1.stream.language">eng</metaproperty>
   <metaproperty tool="" name="meta.attr.compatible_brands">mp42avc1</metaproperty>
   <metaproperty tool="" name="meta.attr.creation_time">2015-09-04 09:48:06</metaproperty>
   <metaproperty tool="" name="meta.attr.major_brand">mp42</metaproperty>
   <metaproperty tool="" name="meta.attr.minor_version">1</metaproperty>
  </kdenlive_producer>
  <kdenlive_producer audio_max="44" id="42" pix_fmt="yuvj420p" default_video="0" fps="29.97" analysisdata="" name="IMGA0161.MP4" videocodecid="h264" colorspace="709" videocodec="H.264 / AVC / MPEG-4 AVC / MPEG-4 part 10" resource="/home/alex/Videos/EOTR 2015/IMGA0161.MP4" default_audio="1" audiocodec="AAC (Advanced Audio Coding)" duration="150" file_hash="4da530c6a1141f489201fa5643b2ca41" aspect_ratio="1" channels="2" frequency="48000" video_max="0" progressive="1" type="3" frame_size="1280x720" file_size="7503872">
   <metaproperty tool="" name="meta.attr.0.stream.creation_time">2015-09-04 09:49:20</metaproperty>
   <metaproperty tool="" name="meta.attr.0.stream.language">eng</metaproperty>
   <metaproperty tool="" name="meta.attr.1.stream.creation_time">2015-09-04 09:49:20</metaproperty>
   <metaproperty tool="" name="meta.attr.1.stream.language">eng</metaproperty>
   <metaproperty tool="" name="meta.attr.compatible_brands">mp42avc1</metaproperty>
   <metaproperty tool="" name="meta.attr.creation_time">2015-09-04 09:49:20</metaproperty>
   <metaproperty tool="" name="meta.attr.major_brand">mp42</metaproperty>
   <metaproperty tool="" name="meta.attr.minor_version">1</metaproperty>
  </kdenlive_producer>
  <kdenlive_producer audio_max="48" id="43" pix_fmt="yuvj420p" default_video="0" fps="29.97" analysisdata="" name="IMGA0162.MP4" videocodecid="h264" colorspace="709" videocodec="H.264 / AVC / MPEG-4 AVC / MPEG-4 part 10" resource="/home/alex/Videos/EOTR 2015/IMGA0162.MP4" default_audio="1" audiocodec="AAC (Advanced Audio Coding)" duration="850" file_hash="a8997fffeec64c289e13245a1ccf6224" aspect_ratio="1" channels="2" frequency="48000" video_max="0" progressive="1" type="3" frame_size="1280x720" file_size="41189376">
   <metaproperty tool="" name="meta.attr.0.stream.creation_time">2015-09-04 10:06:28</metaproperty>
   <metaproperty tool="" name="meta.attr.0.stream.language">eng</metaproperty>
   <metaproperty tool="" name="meta.attr.1.stream.creation_time">2015-09-04 10:06:28</metaproperty>
   <metaproperty tool="" name="meta.attr.1.stream.language">eng</metaproperty>
   <metaproperty tool="" name="meta.attr.compatible_brands">mp42avc1</metaproperty>
   <metaproperty tool="" name="meta.attr.creation_time">2015-09-04 10:06:28</metaproperty>
   <metaproperty tool="" name="meta.attr.major_brand">mp42</metaproperty>
   <metaproperty tool="" name="meta.attr.minor_version">1</metaproperty>
  </kdenlive_producer>
  <kdenlive_producer audio_max="51" id="44" pix_fmt="yuvj420p" default_video="0" fps="29.97" analysisdata="" name="IMGA0163.MP4" videocodecid="h264" colorspace="709" videocodec="H.264 / AVC / MPEG-4 AVC / MPEG-4 part 10" resource="/home/alex/Videos/EOTR 2015/IMGA0163.MP4" default_audio="1" audiocodec="AAC (Advanced Audio Coding)" duration="175" file_hash="02819e617c668f425334c602eabd26ea" aspect_ratio="1" channels="2" frequency="48000" video_max="0" progressive="1" type="3" frame_size="1280x720" file_size="8912896">
   <metaproperty tool="" name="meta.attr.0.stream.creation_time">2015-09-04 10:09:48</metaproperty>
   <metaproperty tool="" name="meta.attr.0.stream.language">eng</metaproperty>
   <metaproperty tool="" name="meta.attr.1.stream.creation_time">2015-09-04 10:09:48</metaproperty>
   <metaproperty tool="" name="meta.attr.1.stream.language">eng</metaproperty>
   <metaproperty tool="" name="meta.attr.compatible_brands">mp42avc1</metaproperty>
   <metaproperty tool="" name="meta.attr.creation_time">2015-09-04 10:09:48</metaproperty>
   <metaproperty tool="" name="meta.attr.major_brand">mp42</metaproperty>
   <metaproperty tool="" name="meta.attr.minor_version">1</metaproperty>
  </kdenlive_producer>
  <kdenlive_producer audio_max="56" id="45" pix_fmt="yuvj420p" default_video="0" fps="29.97" analysisdata="" name="IMGA0164.MP4" videocodecid="h264" colorspace="709" videocodec="H.264 / AVC / MPEG-4 AVC / MPEG-4 part 10" resource="/home/alex/Videos/EOTR 2015/IMGA0164.MP4" default_audio="1" audiocodec="AAC (Advanced Audio Coding)" duration="1176" file_hash="2535e666f88e94e8f68c8073d893dba0" aspect_ratio="1" channels="2" frequency="48000" video_max="0" progressive="1" type="3" frame_size="1280x720" file_size="60162048">
   <metaproperty tool="" name="meta.attr.0.stream.creation_time">2015-09-04 10:16:09</metaproperty>
   <metaproperty tool="" name="meta.attr.0.stream.language">eng</metaproperty>
   <metaproperty tool="" name="meta.attr.1.stream.creation_time">2015-09-04 10:16:09</metaproperty>
   <metaproperty tool="" name="meta.attr.1.stream.language">eng</metaproperty>
   <metaproperty tool="" name="meta.attr.compatible_brands">mp42avc1</metaproperty>
   <metaproperty tool="" name="meta.attr.creation_time">2015-09-04 10:16:09</metaproperty>
   <metaproperty tool="" name="meta.attr.major_brand">mp42</metaproperty>
   <metaproperty tool="" name="meta.attr.minor_version">1</metaproperty>
  </kdenlive_producer>
  <kdenlive_producer audio_max="34" id="46" pix_fmt="yuvj420p" default_video="0" fps="29.97" analysisdata="" name="IMGA0165.MP4" videocodecid="h264" colorspace="709" videocodec="H.264 / AVC / MPEG-4 AVC / MPEG-4 part 10" resource="/home/alex/Videos/EOTR 2015/IMGA0165.MP4" default_audio="1" audiocodec="AAC (Advanced Audio Coding)" duration="625" file_hash="252db2127ab92d1acbf51e4aa803195b" aspect_ratio="1" channels="2" frequency="48000" video_max="0" progressive="1" type="3" frame_size="1280x720" file_size="30900224">
   <metaproperty tool="" name="meta.attr.0.stream.creation_time">2015-09-04 10:18:02</metaproperty>
   <metaproperty tool="" name="meta.attr.0.stream.language">eng</metaproperty>
   <metaproperty tool="" name="meta.attr.1.stream.creation_time">2015-09-04 10:18:02</metaproperty>
   <metaproperty tool="" name="meta.attr.1.stream.language">eng</metaproperty>
   <metaproperty tool="" name="meta.attr.compatible_brands">mp42avc1</metaproperty>
   <metaproperty tool="" name="meta.attr.creation_time">2015-09-04 10:18:02</metaproperty>
   <metaproperty tool="" name="meta.attr.major_brand">mp42</metaproperty>
   <metaproperty tool="" name="meta.attr.minor_version">1</metaproperty>
  </kdenlive_producer>
  <kdenlive_producer audio_max="46" id="47" pix_fmt="yuvj420p" default_video="0" fps="29.97" analysisdata="" name="IMGA0166.MP4" videocodecid="h264" colorspace="709" videocodec="H.264 / AVC / MPEG-4 AVC / MPEG-4 part 10" resource="/home/alex/Videos/EOTR 2015/IMGA0166.MP4" default_audio="1" audiocodec="AAC (Advanced Audio Coding)" duration="450" file_hash="b6c56147eb608343647cc796eae9f1e0" aspect_ratio="1" channels="2" frequency="48000" video_max="0" progressive="1" type="3" frame_size="1280x720" file_size="23691264">
   <metaproperty tool="" name="meta.attr.0.stream.creation_time">2015-09-04 10:31:47</metaproperty>
   <metaproperty tool="" name="meta.attr.0.stream.language">eng</metaproperty>
   <metaproperty tool="" name="meta.attr.1.stream.creation_time">2015-09-04 10:31:47</metaproperty>
   <metaproperty tool="" name="meta.attr.1.stream.language">eng</metaproperty>
   <metaproperty tool="" name="meta.attr.compatible_brands">mp42avc1</metaproperty>
   <metaproperty tool="" name="meta.attr.creation_time">2015-09-04 10:31:47</metaproperty>
   <metaproperty tool="" name="meta.attr.major_brand">mp42</metaproperty>
   <metaproperty tool="" name="meta.attr.minor_version">1</metaproperty>
  </kdenlive_producer>
  <kdenlive_producer audio_max="42" id="48" pix_fmt="yuvj420p" default_video="0" fps="29.97" analysisdata="" name="IMGA0167.MP4" videocodecid="h264" colorspace="709" videocodec="H.264 / AVC / MPEG-4 AVC / MPEG-4 part 10" resource="/home/alex/Videos/EOTR 2015/IMGA0167.MP4" default_audio="1" audiocodec="AAC (Advanced Audio Coding)" duration="50" file_hash="f2a6232bf5850756ab1c417dcceb58bf" aspect_ratio="1" channels="2" frequency="48000" video_max="0" progressive="1" type="3" frame_size="1280x720" file_size="2949120">
   <metaproperty tool="" name="meta.attr.0.stream.creation_time">2015-09-04 10:34:56</metaproperty>
   <metaproperty tool="" name="meta.attr.0.stream.language">eng</metaproperty>
   <metaproperty tool="" name="meta.attr.1.stream.creation_time">2015-09-04 10:34:56</metaproperty>
   <metaproperty tool="" name="meta.attr.1.stream.language">eng</metaproperty>
   <metaproperty tool="" name="meta.attr.compatible_brands">mp42avc1</metaproperty>
   <metaproperty tool="" name="meta.attr.creation_time">2015-09-04 10:34:56</metaproperty>
   <metaproperty tool="" name="meta.attr.major_brand">mp42</metaproperty>
   <metaproperty tool="" name="meta.attr.minor_version">1</metaproperty>
  </kdenlive_producer>
  <kdenlive_producer audio_max="46" id="49" pix_fmt="yuvj420p" default_video="0" fps="29.97" analysisdata="" name="IMGA0168.MP4" videocodecid="h264" colorspace="709" videocodec="H.264 / AVC / MPEG-4 AVC / MPEG-4 part 10" resource="/home/alex/Videos/EOTR 2015/IMGA0168.MP4" default_audio="1" audiocodec="AAC (Advanced Audio Coding)" duration="125" file_hash="e45f116b3db60e6d7e307041fe024479" aspect_ratio="1" channels="2" frequency="48000" video_max="0" progressive="1" type="3" frame_size="1280x720" file_size="6717440">
   <metaproperty tool="" name="meta.attr.0.stream.creation_time">2015-09-04 10:35:28</metaproperty>
   <metaproperty tool="" name="meta.attr.0.stream.language">eng</metaproperty>
   <metaproperty tool="" name="meta.attr.1.stream.creation_time">2015-09-04 10:35:28</metaproperty>
   <metaproperty tool="" name="meta.attr.1.stream.language">eng</metaproperty>
   <metaproperty tool="" name="meta.attr.compatible_brands">mp42avc1</metaproperty>
   <metaproperty tool="" name="meta.attr.creation_time">2015-09-04 10:35:28</metaproperty>
   <metaproperty tool="" name="meta.attr.major_brand">mp42</metaproperty>
   <metaproperty tool="" name="meta.attr.minor_version">1</metaproperty>
  </kdenlive_producer>
  <kdenlive_producer audio_max="52" id="50" pix_fmt="yuvj420p" default_video="0" fps="29.97" analysisdata="" name="IMGA0169.MP4" videocodecid="h264" colorspace="709" videocodec="H.264 / AVC / MPEG-4 AVC / MPEG-4 part 10" resource="/home/alex/Videos/EOTR 2015/IMGA0169.MP4" default_audio="1" audiocodec="AAC (Advanced Audio Coding)" duration="500" file_hash="fd5c46ea53f84684aed8e370b8fe2560" aspect_ratio="1" channels="2" frequency="48000" video_max="0" progressive="1" type="3" frame_size="1280x720" file_size="24313856">
   <metaproperty tool="" name="meta.attr.0.stream.creation_time">2015-09-04 10:43:29</metaproperty>
   <metaproperty tool="" name="meta.attr.0.stream.language">eng</metaproperty>
   <metaproperty tool="" name="meta.attr.1.stream.creation_time">2015-09-04 10:43:29</metaproperty>
   <metaproperty tool="" name="meta.attr.1.stream.language">eng</metaproperty>
   <metaproperty tool="" name="meta.attr.compatible_brands">mp42avc1</metaproperty>
   <metaproperty tool="" name="meta.attr.creation_time">2015-09-04 10:43:29</metaproperty>
   <metaproperty tool="" name="meta.attr.major_brand">mp42</metaproperty>
   <metaproperty tool="" name="meta.attr.minor_version">1</metaproperty>
  </kdenlive_producer>
  <kdenlive_producer audio_max="54" id="51" pix_fmt="yuvj420p" default_video="0" fps="29.97" analysisdata="" name="IMGA0170.MP4" videocodecid="h264" colorspace="709" videocodec="H.264 / AVC / MPEG-4 AVC / MPEG-4 part 10" resource="/home/alex/Videos/EOTR 2015/IMGA0170.MP4" default_audio="1" audiocodec="AAC (Advanced Audio Coding)" duration="1076" file_hash="4281dd202c20f607b777d9f9d1565891" aspect_ratio="1" channels="2" frequency="48000" video_max="0" progressive="1" type="3" frame_size="1280x720" file_size="54951936">
   <metaproperty tool="" name="meta.attr.0.stream.creation_time">2015-09-04 11:01:21</metaproperty>
   <metaproperty tool="" name="meta.attr.0.stream.language">eng</metaproperty>
   <metaproperty tool="" name="meta.attr.1.stream.creation_time">2015-09-04 11:01:21</metaproperty>
   <metaproperty tool="" name="meta.attr.1.stream.language">eng</metaproperty>
   <metaproperty tool="" name="meta.attr.compatible_brands">mp42avc1</metaproperty>
   <metaproperty tool="" name="meta.attr.creation_time">2015-09-04 11:01:21</metaproperty>
   <metaproperty tool="" name="meta.attr.major_brand">mp42</metaproperty>
   <metaproperty tool="" name="meta.attr.minor_version">1</metaproperty>
  </kdenlive_producer>
  <kdenlive_producer audio_max="47" id="52" pix_fmt="yuvj420p" default_video="0" fps="29.97" analysisdata="" name="IMGA0171.MP4" videocodecid="h264" colorspace="709" videocodec="H.264 / AVC / MPEG-4 AVC / MPEG-4 part 10" resource="/home/alex/Videos/EOTR 2015/IMGA0171.MP4" default_audio="1" audiocodec="AAC (Advanced Audio Coding)" duration="375" file_hash="07f0c05b3125a472abed76c72b5d5686" aspect_ratio="1" channels="2" frequency="48000" video_max="0" progressive="1" type="3" frame_size="1280x720" file_size="18874368">
   <metaproperty tool="" name="meta.attr.0.stream.creation_time">2015-09-04 11:02:10</metaproperty>
   <metaproperty tool="" name="meta.attr.0.stream.language">eng</metaproperty>
   <metaproperty tool="" name="meta.attr.1.stream.creation_time">2015-09-04 11:02:10</metaproperty>
   <metaproperty tool="" name="meta.attr.1.stream.language">eng</metaproperty>
   <metaproperty tool="" name="meta.attr.compatible_brands">mp42avc1</metaproperty>
   <metaproperty tool="" name="meta.attr.creation_time">2015-09-04 11:02:10</metaproperty>
   <metaproperty tool="" name="meta.attr.major_brand">mp42</metaproperty>
   <metaproperty tool="" name="meta.attr.minor_version">1</metaproperty>
  </kdenlive_producer>
  <kdenlive_producer audio_max="52" id="53" pix_fmt="yuvj420p" default_video="0" fps="29.97" analysisdata="" name="IMGA0172.MP4" videocodecid="h264" colorspace="709" videocodec="H.264 / AVC / MPEG-4 AVC / MPEG-4 part 10" resource="/home/alex/Videos/EOTR 2015/IMGA0172.MP4" default_audio="1" audiocodec="AAC (Advanced Audio Coding)" duration="375" file_hash="0ccdf0f7e09c687d2779c1bab4027cea" aspect_ratio="1" channels="2" frequency="48000" video_max="0" progressive="1" type="3" frame_size="1280x720" file_size="18743296">
   <metaproperty tool="" name="meta.attr.0.stream.creation_time">2015-09-04 11:10:45</metaproperty>
   <metaproperty tool="" name="meta.attr.0.stream.language">eng</metaproperty>
   <metaproperty tool="" name="meta.attr.1.stream.creation_time">2015-09-04 11:10:45</metaproperty>
   <metaproperty tool="" name="meta.attr.1.stream.language">eng</metaproperty>
   <metaproperty tool="" name="meta.attr.compatible_brands">mp42avc1</metaproperty>
   <metaproperty tool="" name="meta.attr.creation_time">2015-09-04 11:10:45</metaproperty>
   <metaproperty tool="" name="meta.attr.major_brand">mp42</metaproperty>
   <metaproperty tool="" name="meta.attr.minor_version">1</metaproperty>
  </kdenlive_producer>
  <kdenlive_producer audio_max="56" id="54" pix_fmt="yuvj420p" default_video="0" fps="29.97" analysisdata="" name="IMGA0173.MP4" videocodecid="h264" colorspace="709" videocodec="H.264 / AVC / MPEG-4 AVC / MPEG-4 part 10" resource="/home/alex/Videos/EOTR 2015/IMGA0173.MP4" default_audio="1" audiocodec="AAC (Advanced Audio Coding)" duration="425" file_hash="accfb8aac9483da9dd2e30fce9efe5b8" aspect_ratio="1" channels="2" frequency="48000" video_max="0" progressive="1" type="3" frame_size="1280x720" file_size="21659648">
   <metaproperty tool="" name="meta.attr.0.stream.creation_time">2015-09-04 11:12:26</metaproperty>
   <metaproperty tool="" name="meta.attr.0.stream.language">eng</metaproperty>
   <metaproperty tool="" name="meta.attr.1.stream.creation_time">2015-09-04 11:12:26</metaproperty>
   <metaproperty tool="" name="meta.attr.1.stream.language">eng</metaproperty>
   <metaproperty tool="" name="meta.attr.compatible_brands">mp42avc1</metaproperty>
   <metaproperty tool="" name="meta.attr.creation_time">2015-09-04 11:12:26</metaproperty>
   <metaproperty tool="" name="meta.attr.major_brand">mp42</metaproperty>
   <metaproperty tool="" name="meta.attr.minor_version">1</metaproperty>
  </kdenlive_producer>
  <kdenlive_producer audio_max="63" id="55" pix_fmt="yuvj420p" default_video="0" fps="29.97" analysisdata="" name="IMGA0174.MP4" videocodecid="h264" colorspace="709" videocodec="H.264 / AVC / MPEG-4 AVC / MPEG-4 part 10" resource="/home/alex/Videos/EOTR 2015/IMGA0174.MP4" default_audio="1" audiocodec="AAC (Advanced Audio Coding)" duration="1776" file_hash="21066e929f7c9fd7207a737f64d39ed5" aspect_ratio="1" channels="2" frequency="48000" video_max="0" progressive="1" type="3" frame_size="1280x720" file_size="88899584">
   <metaproperty tool="" name="meta.attr.0.stream.creation_time">2015-09-04 11:16:58</metaproperty>
   <metaproperty tool="" name="meta.attr.0.stream.language">eng</metaproperty>
   <metaproperty tool="" name="meta.attr.1.stream.creation_time">2015-09-04 11:16:58</metaproperty>
   <metaproperty tool="" name="meta.attr.1.stream.language">eng</metaproperty>
   <metaproperty tool="" name="meta.attr.compatible_brands">mp42avc1</metaproperty>
   <metaproperty tool="" name="meta.attr.creation_time">2015-09-04 11:16:58</metaproperty>
   <metaproperty tool="" name="meta.attr.major_brand">mp42</metaproperty>
   <metaproperty tool="" name="meta.attr.minor_version">1</metaproperty>
  </kdenlive_producer>
  <kdenlive_producer audio_max="63" id="56" pix_fmt="yuvj420p" default_video="0" fps="29.97" analysisdata="" name="IMGA0175.MP4" videocodecid="h264" colorspace="709" videocodec="H.264 / AVC / MPEG-4 AVC / MPEG-4 part 10" resource="/home/alex/Videos/EOTR 2015/IMGA0175.MP4" default_audio="1" audiocodec="AAC (Advanced Audio Coding)" duration="1076" file_hash="f41ee213aa1ba206e151fefbef7df60f" aspect_ratio="1" channels="2" frequency="48000" video_max="0" progressive="1" type="3" frame_size="1280x720" file_size="53018624">
   <metaproperty tool="" name="meta.attr.0.stream.creation_time">2015-09-04 11:19:17</metaproperty>
   <metaproperty tool="" name="meta.attr.0.stream.language">eng</metaproperty>
   <metaproperty tool="" name="meta.attr.1.stream.creation_time">2015-09-04 11:19:17</metaproperty>
   <metaproperty tool="" name="meta.attr.1.stream.language">eng</metaproperty>
   <metaproperty tool="" name="meta.attr.compatible_brands">mp42avc1</metaproperty>
   <metaproperty tool="" name="meta.attr.creation_time">2015-09-04 11:19:17</metaproperty>
   <metaproperty tool="" name="meta.attr.major_brand">mp42</metaproperty>
   <metaproperty tool="" name="meta.attr.minor_version">1</metaproperty>
  </kdenlive_producer>
  <kdenlive_producer audio_max="37" id="57" pix_fmt="yuvj420p" default_video="0" fps="29.97" analysisdata="" name="IMGA0176.MP4" videocodecid="h264" colorspace="709" videocodec="H.264 / AVC / MPEG-4 AVC / MPEG-4 part 10" resource="/home/alex/Videos/EOTR 2015/IMGA0176.MP4" default_audio="1" audiocodec="AAC (Advanced Audio Coding)" duration="275" file_hash="99bf3db0bf22de29af844a05d1be018e" aspect_ratio="1" channels="2" frequency="48000" video_max="0" progressive="1" type="3" frame_size="1280x720" file_size="13860864">
   <metaproperty tool="" name="meta.attr.0.stream.creation_time">2015-09-04 11:25:51</metaproperty>
   <metaproperty tool="" name="meta.attr.0.stream.language">eng</metaproperty>
   <metaproperty tool="" name="meta.attr.1.stream.creation_time">2015-09-04 11:25:51</metaproperty>
   <metaproperty tool="" name="meta.attr.1.stream.language">eng</metaproperty>
   <metaproperty tool="" name="meta.attr.compatible_brands">mp42avc1</metaproperty>
   <metaproperty tool="" name="meta.attr.creation_time">2015-09-04 11:25:51</metaproperty>
   <metaproperty tool="" name="meta.attr.major_brand">mp42</metaproperty>
   <metaproperty tool="" name="meta.attr.minor_version">1</metaproperty>
  </kdenlive_producer>
  <kdenlive_producer audio_max="49" id="58" pix_fmt="yuvj420p" default_video="0" fps="29.97" analysisdata="" name="IMGA0177.MP4" videocodecid="h264" colorspace="709" videocodec="H.264 / AVC / MPEG-4 AVC / MPEG-4 part 10" resource="/home/alex/Videos/EOTR 2015/IMGA0177.MP4" default_audio="1" audiocodec="AAC (Advanced Audio Coding)" duration="775" file_hash="9f9525d2a6ce20160148252be8830c5b" aspect_ratio="1" channels="2" frequency="48000" video_max="0" progressive="1" type="3" frame_size="1280x720" file_size="37060608">
   <metaproperty tool="" name="meta.attr.0.stream.creation_time">2015-09-04 11:27:16</metaproperty>
   <metaproperty tool="" name="meta.attr.0.stream.language">eng</metaproperty>
   <metaproperty tool="" name="meta.attr.1.stream.creation_time">2015-09-04 11:27:16</metaproperty>
   <metaproperty tool="" name="meta.attr.1.stream.language">eng</metaproperty>
   <metaproperty tool="" name="meta.attr.compatible_brands">mp42avc1</metaproperty>
   <metaproperty tool="" name="meta.attr.creation_time">2015-09-04 11:27:16</metaproperty>
   <metaproperty tool="" name="meta.attr.major_brand">mp42</metaproperty>
   <metaproperty tool="" name="meta.attr.minor_version">1</metaproperty>
  </kdenlive_producer>
  <kdenlive_producer audio_max="56" id="59" pix_fmt="yuvj420p" default_video="0" fps="29.97" analysisdata="" name="IMGA0178.MP4" videocodecid="h264" colorspace="709" videocodec="H.264 / AVC / MPEG-4 AVC / MPEG-4 part 10" resource="/home/alex/Videos/EOTR 2015/IMGA0178.MP4" default_audio="1" audiocodec="AAC (Advanced Audio Coding)" duration="525" file_hash="dbd781fd878ac0611e2ad9507118a769" aspect_ratio="1" channels="2" frequency="48000" video_max="0" progressive="1" type="3" frame_size="1280x720" file_size="28737536">
   <metaproperty tool="" name="meta.attr.0.stream.creation_time">2015-09-04 11:34:18</metaproperty>
   <metaproperty tool="" name="meta.attr.0.stream.language">eng</metaproperty>
   <metaproperty tool="" name="meta.attr.1.stream.creation_time">2015-09-04 11:34:18</metaproperty>
   <metaproperty tool="" name="meta.attr.1.stream.language">eng</metaproperty>
   <metaproperty tool="" name="meta.attr.compatible_brands">mp42avc1</metaproperty>
   <metaproperty tool="" name="meta.attr.creation_time">2015-09-04 11:34:18</metaproperty>
   <metaproperty tool="" name="meta.attr.major_brand">mp42</metaproperty>
   <metaproperty tool="" name="meta.attr.minor_version">1</metaproperty>
  </kdenlive_producer>
  <kdenlive_producer audio_max="55" id="60" pix_fmt="yuvj420p" default_video="0" fps="29.97" analysisdata="" name="IMGA0179.MP4" videocodecid="h264" colorspace="709" videocodec="H.264 / AVC / MPEG-4 AVC / MPEG-4 part 10" resource="/home/alex/Videos/EOTR 2015/IMGA0179.MP4" default_audio="1" audiocodec="AAC (Advanced Audio Coding)" duration="1726" file_hash="696c27abc2d04a1d04e93f11da47a1d2" aspect_ratio="1" channels="2" frequency="48000" video_max="0" progressive="1" type="3" frame_size="1280x720" file_size="81264640">
   <metaproperty tool="" name="meta.attr.0.stream.creation_time">2015-09-04 11:56:23</metaproperty>
   <metaproperty tool="" name="meta.attr.0.stream.language">eng</metaproperty>
   <metaproperty tool="" name="meta.attr.1.stream.creation_time">2015-09-04 11:56:23</metaproperty>
   <metaproperty tool="" name="meta.attr.1.stream.language">eng</metaproperty>
   <metaproperty tool="" name="meta.attr.compatible_brands">mp42avc1</metaproperty>
   <metaproperty tool="" name="meta.attr.creation_time">2015-09-04 11:56:23</metaproperty>
   <metaproperty tool="" name="meta.attr.major_brand">mp42</metaproperty>
   <metaproperty tool="" name="meta.attr.minor_version">1</metaproperty>
  </kdenlive_producer>
  <kdenlive_producer audio_max="54" id="61" pix_fmt="yuvj420p" default_video="0" fps="29.97" analysisdata="" name="IMGA0180.MP4" videocodecid="h264" colorspace="709" videocodec="H.264 / AVC / MPEG-4 AVC / MPEG-4 part 10" resource="/home/alex/Videos/EOTR 2015/IMGA0180.MP4" default_audio="1" audiocodec="AAC (Advanced Audio Coding)" duration="725" file_hash="ca3a60b36e5ad887219f84aaff56ee6d" aspect_ratio="1" channels="2" frequency="48000" video_max="0" progressive="1" type="3" frame_size="1280x720" file_size="37978112">
   <metaproperty tool="" name="meta.attr.0.stream.creation_time">2015-09-04 12:22:02</metaproperty>
   <metaproperty tool="" name="meta.attr.0.stream.language">eng</metaproperty>
   <metaproperty tool="" name="meta.attr.1.stream.creation_time">2015-09-04 12:22:02</metaproperty>
   <metaproperty tool="" name="meta.attr.1.stream.language">eng</metaproperty>
   <metaproperty tool="" name="meta.attr.compatible_brands">mp42avc1</metaproperty>
   <metaproperty tool="" name="meta.attr.creation_time">2015-09-04 12:22:02</metaproperty>
   <metaproperty tool="" name="meta.attr.major_brand">mp42</metaproperty>
   <metaproperty tool="" name="meta.attr.minor_version">1</metaproperty>
  </kdenlive_producer>
  <kdenlive_producer audio_max="55" id="62" pix_fmt="yuvj420p" default_video="0" fps="29.97" analysisdata="" name="IMGA0181.MP4" videocodecid="h264" colorspace="709" videocodec="H.264 / AVC / MPEG-4 AVC / MPEG-4 part 10" resource="/home/alex/Videos/EOTR 2015/IMGA0181.MP4" default_audio="1" audiocodec="AAC (Advanced Audio Coding)" duration="975" file_hash="13136372f289fef1c090c33affb9638a" aspect_ratio="1" channels="2" frequency="48000" video_max="0" progressive="1" type="3" frame_size="1280x720" file_size="46399488">
   <metaproperty tool="" name="meta.attr.0.stream.creation_time">2015-09-04 12:54:11</metaproperty>
   <metaproperty tool="" name="meta.attr.0.stream.language">eng</metaproperty>
   <metaproperty tool="" name="meta.attr.1.stream.creation_time">2015-09-04 12:54:11</metaproperty>
   <metaproperty tool="" name="meta.attr.1.stream.language">eng</metaproperty>
   <metaproperty tool="" name="meta.attr.compatible_brands">mp42avc1</metaproperty>
   <metaproperty tool="" name="meta.attr.creation_time">2015-09-04 12:54:11</metaproperty>
   <metaproperty tool="" name="meta.attr.major_brand">mp42</metaproperty>
   <metaproperty tool="" name="meta.attr.minor_version">1</metaproperty>
  </kdenlive_producer>
  <kdenlive_producer audio_max="57" id="63" pix_fmt="yuvj420p" default_video="0" fps="29.97" analysisdata="" name="IMGA0182.MP4" videocodecid="h264" colorspace="709" videocodec="H.264 / AVC / MPEG-4 AVC / MPEG-4 part 10" resource="/home/alex/Videos/EOTR 2015/IMGA0182.MP4" default_audio="1" audiocodec="AAC (Advanced Audio Coding)" duration="1101" file_hash="3df23ea7659b58a23cd8baa2ced5f3b9" aspect_ratio="1" channels="2" frequency="48000" video_max="0" progressive="1" type="3" frame_size="1280x720" file_size="52690944">
   <metaproperty tool="" name="meta.attr.0.stream.creation_time">2015-09-04 13:18:45</metaproperty>
   <metaproperty tool="" name="meta.attr.0.stream.language">eng</metaproperty>
   <metaproperty tool="" name="meta.attr.1.stream.creation_time">2015-09-04 13:18:45</metaproperty>
   <metaproperty tool="" name="meta.attr.1.stream.language">eng</metaproperty>
   <metaproperty tool="" name="meta.attr.compatible_brands">mp42avc1</metaproperty>
   <metaproperty tool="" name="meta.attr.creation_time">2015-09-04 13:18:45</metaproperty>
   <metaproperty tool="" name="meta.attr.major_brand">mp42</metaproperty>
   <metaproperty tool="" name="meta.attr.minor_version">1</metaproperty>
  </kdenlive_producer>
  <kdenlive_producer audio_max="51" id="64" pix_fmt="yuvj420p" default_video="0" fps="29.97" analysisdata="" name="IMGA0183.MP4" videocodecid="h264" colorspace="709" videocodec="H.264 / AVC / MPEG-4 AVC / MPEG-4 part 10" resource="/home/alex/Videos/EOTR 2015/IMGA0183.MP4" default_audio="1" audiocodec="AAC (Advanced Audio Coding)" duration="250" file_hash="7077ca8f189237fdeb03fe49a7596a2e" aspect_ratio="1" channels="2" frequency="48000" video_max="0" progressive="1" type="3" frame_size="1280x720" file_size="12255232">
   <metaproperty tool="" name="meta.attr.0.stream.creation_time">2015-09-04 13:28:50</metaproperty>
   <metaproperty tool="" name="meta.attr.0.stream.language">eng</metaproperty>
   <metaproperty tool="" name="meta.attr.1.stream.creation_time">2015-09-04 13:28:50</metaproperty>
   <metaproperty tool="" name="meta.attr.1.stream.language">eng</metaproperty>
   <metaproperty tool="" name="meta.attr.compatible_brands">mp42avc1</metaproperty>
   <metaproperty tool="" name="meta.attr.creation_time">2015-09-04 13:28:50</metaproperty>
   <metaproperty tool="" name="meta.attr.major_brand">mp42</metaproperty>
   <metaproperty tool="" name="meta.attr.minor_version">1</metaproperty>
  </kdenlive_producer>
  <kdenlive_producer audio_max="52" id="65" pix_fmt="yuvj420p" default_video="0" fps="29.97" analysisdata="" name="IMGA0184.MP4" videocodecid="h264" colorspace="709" videocodec="H.264 / AVC / MPEG-4 AVC / MPEG-4 part 10" resource="/home/alex/Videos/EOTR 2015/IMGA0184.MP4" default_audio="1" audiocodec="AAC (Advanced Audio Coding)" duration="525" file_hash="ec42c4c17811ef60cbb2ae828b76beec" aspect_ratio="1" channels="2" frequency="48000" video_max="0" progressive="1" type="3" frame_size="1280x720" file_size="26148864">
   <metaproperty tool="" name="meta.attr.0.stream.creation_time">2015-09-04 13:40:40</metaproperty>
   <metaproperty tool="" name="meta.attr.0.stream.language">eng</metaproperty>
   <metaproperty tool="" name="meta.attr.1.stream.creation_time">2015-09-04 13:40:40</metaproperty>
   <metaproperty tool="" name="meta.attr.1.stream.language">eng</metaproperty>
   <metaproperty tool="" name="meta.attr.compatible_brands">mp42avc1</metaproperty>
   <metaproperty tool="" name="meta.attr.creation_time">2015-09-04 13:40:40</metaproperty>
   <metaproperty tool="" name="meta.attr.major_brand">mp42</metaproperty>
   <metaproperty tool="" name="meta.attr.minor_version">1</metaproperty>
  </kdenlive_producer>
  <kdenlive_producer audio_max="55" id="66" pix_fmt="yuvj420p" default_video="0" fps="29.97" analysisdata="" name="IMGA0185.MP4" videocodecid="h264" colorspace="709" videocodec="H.264 / AVC / MPEG-4 AVC / MPEG-4 part 10" resource="/home/alex/Videos/EOTR 2015/IMGA0185.MP4" default_audio="1" audiocodec="AAC (Advanced Audio Coding)" duration="675" file_hash="1cff7357d1d589c496f780acefee3fca" aspect_ratio="1" channels="2" frequency="48000" video_max="0" progressive="1" type="3" frame_size="1280x720" file_size="32505856">
   <metaproperty tool="" name="meta.attr.0.stream.creation_time">2015-09-04 14:06:18</metaproperty>
   <metaproperty tool="" name="meta.attr.0.stream.language">eng</metaproperty>
   <metaproperty tool="" name="meta.attr.1.stream.creation_time">2015-09-04 14:06:18</metaproperty>
   <metaproperty tool="" name="meta.attr.1.stream.language">eng</metaproperty>
   <metaproperty tool="" name="meta.attr.compatible_brands">mp42avc1</metaproperty>
   <metaproperty tool="" name="meta.attr.creation_time">2015-09-04 14:06:18</metaproperty>
   <metaproperty tool="" name="meta.attr.major_brand">mp42</metaproperty>
   <metaproperty tool="" name="meta.attr.minor_version">1</metaproperty>
  </kdenlive_producer>
  <kdenlive_producer audio_max="55" id="67" pix_fmt="yuvj420p" default_video="0" fps="29.97" analysisdata="" name="IMGA0186.MP4" videocodecid="h264" colorspace="709" videocodec="H.264 / AVC / MPEG-4 AVC / MPEG-4 part 10" resource="/home/alex/Videos/EOTR 2015/IMGA0186.MP4" default_audio="1" audiocodec="AAC (Advanced Audio Coding)" duration="125" file_hash="42975b4e78e7d3c0c162e45128a97b8d" aspect_ratio="1" channels="2" frequency="48000" video_max="0" progressive="1" type="3" frame_size="1280x720" file_size="6389760">
   <metaproperty tool="" name="meta.attr.0.stream.creation_time">2015-09-04 16:31:19</metaproperty>
   <metaproperty tool="" name="meta.attr.0.stream.language">eng</metaproperty>
   <metaproperty tool="" name="meta.attr.1.stream.creation_time">2015-09-04 16:31:19</metaproperty>
   <metaproperty tool="" name="meta.attr.1.stream.language">eng</metaproperty>
   <metaproperty tool="" name="meta.attr.compatible_brands">mp42avc1</metaproperty>
   <metaproperty tool="" name="meta.attr.creation_time">2015-09-04 16:31:19</metaproperty>
   <metaproperty tool="" name="meta.attr.major_brand">mp42</metaproperty>
   <metaproperty tool="" name="meta.attr.minor_version">1</metaproperty>
  </kdenlive_producer>
  <kdenlive_producer audio_max="53" id="68" pix_fmt="yuvj420p" default_video="0" fps="29.97" analysisdata="" name="IMGA0187.MP4" videocodecid="h264" colorspace="709" videocodec="H.264 / AVC / MPEG-4 AVC / MPEG-4 part 10" resource="/home/alex/Videos/EOTR 2015/IMGA0187.MP4" default_audio="1" audiocodec="AAC (Advanced Audio Coding)" duration="300" file_hash="994bd01eb91b57a871e0bb879c356783" aspect_ratio="1" channels="2" frequency="48000" video_max="0" progressive="1" type="3" frame_size="1280x720" file_size="14516224">
   <metaproperty tool="" name="meta.attr.0.stream.creation_time">2015-09-04 16:31:33</metaproperty>
   <metaproperty tool="" name="meta.attr.0.stream.language">eng</metaproperty>
   <metaproperty tool="" name="meta.attr.1.stream.creation_time">2015-09-04 16:31:33</metaproperty>
   <metaproperty tool="" name="meta.attr.1.stream.language">eng</metaproperty>
   <metaproperty tool="" name="meta.attr.compatible_brands">mp42avc1</metaproperty>
   <metaproperty tool="" name="meta.attr.creation_time">2015-09-04 16:31:33</metaproperty>
   <metaproperty tool="" name="meta.attr.major_brand">mp42</metaproperty>
   <metaproperty tool="" name="meta.attr.minor_version">1</metaproperty>
  </kdenlive_producer>
  <kdenlive_producer audio_max="49" id="69" pix_fmt="yuvj420p" default_video="0" fps="29.97" analysisdata="" name="IMGA0188.MP4" videocodecid="h264" thumbnail="100" colorspace="709" videocodec="H.264 / AVC / MPEG-4 AVC / MPEG-4 part 10" resource="/home/alex/Videos/EOTR 2015/IMGA0188.MP4" default_audio="1" audiocodec="AAC (Advanced Audio Coding)" duration="125" file_hash="25e5e1429de9d4ee0fc3f0a45c04994b" aspect_ratio="1" channels="2" frequency="48000" video_max="0" progressive="1" type="3" frame_size="1280x720" file_size="2555904">
   <metaproperty tool="" name="meta.attr.0.stream.creation_time">2015-09-04 20:48:34</metaproperty>
   <metaproperty tool="" name="meta.attr.0.stream.language">eng</metaproperty>
   <metaproperty tool="" name="meta.attr.1.stream.creation_time">2015-09-04 20:48:34</metaproperty>
   <metaproperty tool="" name="meta.attr.1.stream.language">eng</metaproperty>
   <metaproperty tool="" name="meta.attr.compatible_brands">mp42avc1</metaproperty>
   <metaproperty tool="" name="meta.attr.creation_time">2015-09-04 20:48:34</metaproperty>
   <metaproperty tool="" name="meta.attr.major_brand">mp42</metaproperty>
   <metaproperty tool="" name="meta.attr.minor_version">1</metaproperty>
  </kdenlive_producer>
  <kdenlive_producer audio_max="29" id="70" pix_fmt="yuvj420p" default_video="0" fps="29.97" analysisdata="" name="IMGA0189.MP4" videocodecid="h264" colorspace="709" videocodec="H.264 / AVC / MPEG-4 AVC / MPEG-4 part 10" resource="/home/alex/Videos/EOTR 2015/IMGA0189.MP4" default_audio="1" audiocodec="AAC (Advanced Audio Coding)" duration="225" file_hash="371d72d0347ea203eef64a57fb5fa3d9" aspect_ratio="1" channels="2" frequency="48000" video_max="0" progressive="1" type="3" frame_size="1280x720" file_size="11010048">
   <metaproperty tool="" name="meta.attr.0.stream.creation_time">2015-09-05 09:34:11</metaproperty>
   <metaproperty tool="" name="meta.attr.0.stream.language">eng</metaproperty>
   <metaproperty tool="" name="meta.attr.1.stream.creation_time">2015-09-05 09:34:11</metaproperty>
   <metaproperty tool="" name="meta.attr.1.stream.language">eng</metaproperty>
   <metaproperty tool="" name="meta.attr.compatible_brands">mp42avc1</metaproperty>
   <metaproperty tool="" name="meta.attr.creation_time">2015-09-05 09:34:11</metaproperty>
   <metaproperty tool="" name="meta.attr.major_brand">mp42</metaproperty>
   <metaproperty tool="" name="meta.attr.minor_version">1</metaproperty>
  </kdenlive_producer>
  <kdenlive_producer audio_max="52" id="71" pix_fmt="yuvj420p" default_video="0" fps="29.97" analysisdata="" name="IMGA0190.MP4" videocodecid="h264" colorspace="709" videocodec="H.264 / AVC / MPEG-4 AVC / MPEG-4 part 10" resource="/home/alex/Videos/EOTR 2015/IMGA0190.MP4" default_audio="1" audiocodec="AAC (Advanced Audio Coding)" duration="325" file_hash="2d0efaca182e78e5faabdf8864c57473" aspect_ratio="1" channels="2" frequency="48000" video_max="0" progressive="1" type="3" frame_size="1280x720" file_size="15990784">
   <metaproperty tool="" name="meta.attr.0.stream.creation_time">2015-09-05 09:34:42</metaproperty>
   <metaproperty tool="" name="meta.attr.0.stream.language">eng</metaproperty>
   <metaproperty tool="" name="meta.attr.1.stream.creation_time">2015-09-05 09:34:42</metaproperty>
   <metaproperty tool="" name="meta.attr.1.stream.language">eng</metaproperty>
   <metaproperty tool="" name="meta.attr.compatible_brands">mp42avc1</metaproperty>
   <metaproperty tool="" name="meta.attr.creation_time">2015-09-05 09:34:42</metaproperty>
   <metaproperty tool="" name="meta.attr.major_brand">mp42</metaproperty>
   <metaproperty tool="" name="meta.attr.minor_version">1</metaproperty>
  </kdenlive_producer>
  <kdenlive_producer audio_max="55" id="72" pix_fmt="yuvj420p" default_video="0" fps="29.97" analysisdata="" name="IMGA0191.MP4" videocodecid="h264" colorspace="709" videocodec="H.264 / AVC / MPEG-4 AVC / MPEG-4 part 10" resource="/home/alex/Videos/EOTR 2015/IMGA0191.MP4" default_audio="1" audiocodec="AAC (Advanced Audio Coding)" duration="850" file_hash="95bf8ccd609dc0e42fbdf519afed12d9" aspect_ratio="1" channels="2" frequency="48000" video_max="0" progressive="1" type="3" frame_size="1280x720" file_size="41746432">
   <metaproperty tool="" name="meta.attr.0.stream.creation_time">2015-09-05 09:44:05</metaproperty>
   <metaproperty tool="" name="meta.attr.0.stream.language">eng</metaproperty>
   <metaproperty tool="" name="meta.attr.1.stream.creation_time">2015-09-05 09:44:05</metaproperty>
   <metaproperty tool="" name="meta.attr.1.stream.language">eng</metaproperty>
   <metaproperty tool="" name="meta.attr.compatible_brands">mp42avc1</metaproperty>
   <metaproperty tool="" name="meta.attr.creation_time">2015-09-05 09:44:05</metaproperty>
   <metaproperty tool="" name="meta.attr.major_brand">mp42</metaproperty>
   <metaproperty tool="" name="meta.attr.minor_version">1</metaproperty>
  </kdenlive_producer>
  <kdenlive_producer audio_max="22" id="73" pix_fmt="yuvj420p" default_video="0" fps="29.97" analysisdata="" name="IMGA0192.MP4" videocodecid="h264" colorspace="709" videocodec="H.264 / AVC / MPEG-4 AVC / MPEG-4 part 10" resource="/home/alex/Videos/EOTR 2015/IMGA0192.MP4" default_audio="1" audiocodec="AAC (Advanced Audio Coding)" duration="750" file_hash="38ce1a02bc61870c044886aed4e21df8" aspect_ratio="1" channels="2" frequency="48000" video_max="0" progressive="1" type="3" frame_size="1280x720" file_size="36864000">
   <metaproperty tool="" name="meta.attr.0.stream.creation_time">2015-09-05 10:00:30</metaproperty>
   <metaproperty tool="" name="meta.attr.0.stream.language">eng</metaproperty>
   <metaproperty tool="" name="meta.attr.1.stream.creation_time">2015-09-05 10:00:30</metaproperty>
   <metaproperty tool="" name="meta.attr.1.stream.language">eng</metaproperty>
   <metaproperty tool="" name="meta.attr.compatible_brands">mp42avc1</metaproperty>
   <metaproperty tool="" name="meta.attr.creation_time">2015-09-05 10:00:30</metaproperty>
   <metaproperty tool="" name="meta.attr.major_brand">mp42</metaproperty>
   <metaproperty tool="" name="meta.attr.minor_version">1</metaproperty>
  </kdenlive_producer>
  <kdenlive_producer audio_max="56" id="74" pix_fmt="yuvj420p" default_video="0" fps="29.97" analysisdata="" name="IMGA0193.MP4" videocodecid="h264" colorspace="709" videocodec="H.264 / AVC / MPEG-4 AVC / MPEG-4 part 10" resource="/home/alex/Videos/EOTR 2015/IMGA0193.MP4" default_audio="1" audiocodec="AAC (Advanced Audio Coding)" duration="700" file_hash="4a93f94feaf81bee790b5bc9fe2e84f6" aspect_ratio="1" channels="2" frequency="48000" video_max="0" progressive="1" type="3" frame_size="1280x720" file_size="33390592">
   <metaproperty tool="" name="meta.attr.0.stream.creation_time">2015-09-05 10:34:39</metaproperty>
   <metaproperty tool="" name="meta.attr.0.stream.language">eng</metaproperty>
   <metaproperty tool="" name="meta.attr.1.stream.creation_time">2015-09-05 10:34:39</metaproperty>
   <metaproperty tool="" name="meta.attr.1.stream.language">eng</metaproperty>
   <metaproperty tool="" name="meta.attr.compatible_brands">mp42avc1</metaproperty>
   <metaproperty tool="" name="meta.attr.creation_time">2015-09-05 10:34:39</metaproperty>
   <metaproperty tool="" name="meta.attr.major_brand">mp42</metaproperty>
   <metaproperty tool="" name="meta.attr.minor_version">1</metaproperty>
  </kdenlive_producer>
  <kdenlive_producer audio_max="54" id="75" pix_fmt="yuvj420p" default_video="0" fps="29.97" analysisdata="" name="IMGA0194.MP4" videocodecid="h264" colorspace="709" videocodec="H.264 / AVC / MPEG-4 AVC / MPEG-4 part 10" resource="/home/alex/Videos/EOTR 2015/IMGA0194.MP4" default_audio="1" audiocodec="AAC (Advanced Audio Coding)" duration="550" file_hash="9e38824fab123338c3e4f28073cef217" aspect_ratio="1" channels="2" frequency="48000" video_max="0" progressive="1" type="3" frame_size="1280x720" file_size="26312704">
   <metaproperty tool="" name="meta.attr.0.stream.creation_time">2015-09-05 10:36:28</metaproperty>
   <metaproperty tool="" name="meta.attr.0.stream.language">eng</metaproperty>
   <metaproperty tool="" name="meta.attr.1.stream.creation_time">2015-09-05 10:36:28</metaproperty>
   <metaproperty tool="" name="meta.attr.1.stream.language">eng</metaproperty>
   <metaproperty tool="" name="meta.attr.compatible_brands">mp42avc1</metaproperty>
   <metaproperty tool="" name="meta.attr.creation_time">2015-09-05 10:36:28</metaproperty>
   <metaproperty tool="" name="meta.attr.major_brand">mp42</metaproperty>
   <metaproperty tool="" name="meta.attr.minor_version">1</metaproperty>
  </kdenlive_producer>
  <kdenlive_producer audio_max="52" id="76" pix_fmt="yuvj420p" default_video="0" fps="29.97" analysisdata="" name="IMGA0195.MP4" videocodecid="h264" colorspace="709" videocodec="H.264 / AVC / MPEG-4 AVC / MPEG-4 part 10" resource="/home/alex/Videos/EOTR 2015/IMGA0195.MP4" default_audio="1" audiocodec="AAC (Advanced Audio Coding)" duration="225" file_hash="1af93b9000055a227fe716bc7c7c98c3" aspect_ratio="1" channels="2" frequency="48000" video_max="0" progressive="1" type="3" frame_size="1280x720" file_size="11042816">
   <metaproperty tool="" name="meta.attr.0.stream.creation_time">2015-09-05 10:37:00</metaproperty>
   <metaproperty tool="" name="meta.attr.0.stream.language">eng</metaproperty>
   <metaproperty tool="" name="meta.attr.1.stream.creation_time">2015-09-05 10:37:00</metaproperty>
   <metaproperty tool="" name="meta.attr.1.stream.language">eng</metaproperty>
   <metaproperty tool="" name="meta.attr.compatible_brands">mp42avc1</metaproperty>
   <metaproperty tool="" name="meta.attr.creation_time">2015-09-05 10:37:00</metaproperty>
   <metaproperty tool="" name="meta.attr.major_brand">mp42</metaproperty>
   <metaproperty tool="" name="meta.attr.minor_version">1</metaproperty>
  </kdenlive_producer>
  <kdenlive_producer audio_max="45" id="77" pix_fmt="yuvj420p" default_video="0" fps="29.97" analysisdata="" name="IMGA0196.MP4" videocodecid="h264" colorspace="709" videocodec="H.264 / AVC / MPEG-4 AVC / MPEG-4 part 10" resource="/home/alex/Videos/EOTR 2015/IMGA0196.MP4" default_audio="1" audiocodec="AAC (Advanced Audio Coding)" duration="425" file_hash="5f6ff1088a635fc554d2de57da1d4566" aspect_ratio="1" channels="2" frequency="48000" video_max="0" progressive="1" type="3" frame_size="1280x720" file_size="20414464">
   <metaproperty tool="" name="meta.attr.0.stream.creation_time">2015-09-05 10:53:33</metaproperty>
   <metaproperty tool="" name="meta.attr.0.stream.language">eng</metaproperty>
   <metaproperty tool="" name="meta.attr.1.stream.creation_time">2015-09-05 10:53:33</metaproperty>
   <metaproperty tool="" name="meta.attr.1.stream.language">eng</metaproperty>
   <metaproperty tool="" name="meta.attr.compatible_brands">mp42avc1</metaproperty>
   <metaproperty tool="" name="meta.attr.creation_time">2015-09-05 10:53:33</metaproperty>
   <metaproperty tool="" name="meta.attr.major_brand">mp42</metaproperty>
   <metaproperty tool="" name="meta.attr.minor_version">1</metaproperty>
  </kdenlive_producer>
  <kdenlive_producer audio_max="53" id="78" pix_fmt="yuvj420p" default_video="0" fps="29.97" analysisdata="" name="IMGA0197.MP4" videocodecid="h264" colorspace="709" videocodec="H.264 / AVC / MPEG-4 AVC / MPEG-4 part 10" resource="/home/alex/Videos/EOTR 2015/IMGA0197.MP4" default_audio="1" audiocodec="AAC (Advanced Audio Coding)" duration="500" file_hash="3331f67e0b39a99e6d5eeebb3d73dd41" aspect_ratio="1" channels="2" frequency="48000" video_max="0" progressive="1" type="3" frame_size="1280x720" file_size="23986176">
   <metaproperty tool="" name="meta.attr.0.stream.creation_time">2015-09-05 10:54:02</metaproperty>
   <metaproperty tool="" name="meta.attr.0.stream.language">eng</metaproperty>
   <metaproperty tool="" name="meta.attr.1.stream.creation_time">2015-09-05 10:54:02</metaproperty>
   <metaproperty tool="" name="meta.attr.1.stream.language">eng</metaproperty>
   <metaproperty tool="" name="meta.attr.compatible_brands">mp42avc1</metaproperty>
   <metaproperty tool="" name="meta.attr.creation_time">2015-09-05 10:54:02</metaproperty>
   <metaproperty tool="" name="meta.attr.major_brand">mp42</metaproperty>
   <metaproperty tool="" name="meta.attr.minor_version">1</metaproperty>
  </kdenlive_producer>
  <kdenlive_producer audio_max="51" id="79" pix_fmt="yuvj420p" default_video="0" fps="29.97" analysisdata="" name="IMGA0198.MP4" videocodecid="h264" colorspace="709" videocodec="H.264 / AVC / MPEG-4 AVC / MPEG-4 part 10" resource="/home/alex/Videos/EOTR 2015/IMGA0198.MP4" default_audio="1" audiocodec="AAC (Advanced Audio Coding)" duration="250" file_hash="f45554a3de8670bc2ddfb15f1b372bcd" aspect_ratio="1" channels="2" frequency="48000" video_max="0" progressive="1" type="3" frame_size="1280x720" file_size="12189696">
   <metaproperty tool="" name="meta.attr.0.stream.creation_time">2015-09-05 11:00:07</metaproperty>
   <metaproperty tool="" name="meta.attr.0.stream.language">eng</metaproperty>
   <metaproperty tool="" name="meta.attr.1.stream.creation_time">2015-09-05 11:00:07</metaproperty>
   <metaproperty tool="" name="meta.attr.1.stream.language">eng</metaproperty>
   <metaproperty tool="" name="meta.attr.compatible_brands">mp42avc1</metaproperty>
   <metaproperty tool="" name="meta.attr.creation_time">2015-09-05 11:00:07</metaproperty>
   <metaproperty tool="" name="meta.attr.major_brand">mp42</metaproperty>
   <metaproperty tool="" name="meta.attr.minor_version">1</metaproperty>
  </kdenlive_producer>
  <kdenlive_producer audio_max="52" id="80" pix_fmt="yuvj420p" default_video="0" fps="29.97" analysisdata="" name="IMGA0199.MP4" videocodecid="h264" colorspace="709" videocodec="H.264 / AVC / MPEG-4 AVC / MPEG-4 part 10" resource="/home/alex/Videos/EOTR 2015/IMGA0199.MP4" default_audio="1" audiocodec="AAC (Advanced Audio Coding)" duration="800" file_hash="a986ed142994c4153efe6c5a71d6cce5" aspect_ratio="1" channels="2" frequency="48000" video_max="0" progressive="1" type="3" frame_size="1280x720" file_size="38043648">
   <metaproperty tool="" name="meta.attr.0.stream.creation_time">2015-09-05 11:03:08</metaproperty>
   <metaproperty tool="" name="meta.attr.0.stream.language">eng</metaproperty>
   <metaproperty tool="" name="meta.attr.1.stream.creation_time">2015-09-05 11:03:08</metaproperty>
   <metaproperty tool="" name="meta.attr.1.stream.language">eng</metaproperty>
   <metaproperty tool="" name="meta.attr.compatible_brands">mp42avc1</metaproperty>
   <metaproperty tool="" name="meta.attr.creation_time">2015-09-05 11:03:08</metaproperty>
   <metaproperty tool="" name="meta.attr.major_brand">mp42</metaproperty>
   <metaproperty tool="" name="meta.attr.minor_version">1</metaproperty>
  </kdenlive_producer>
  <kdenlive_producer audio_max="37" id="81" pix_fmt="yuvj420p" default_video="0" fps="29.97" analysisdata="" name="IMGA0200.MP4" videocodecid="h264" colorspace="709" videocodec="H.264 / AVC / MPEG-4 AVC / MPEG-4 part 10" resource="/home/alex/Videos/EOTR 2015/IMGA0200.MP4" default_audio="1" audiocodec="AAC (Advanced Audio Coding)" duration="150" file_hash="2d394abf8d428d37b6957155e052fd76" aspect_ratio="1" channels="2" frequency="48000" video_max="0" progressive="1" type="3" frame_size="1280x720" file_size="7733248">
   <metaproperty tool="" name="meta.attr.0.stream.creation_time">2015-09-05 11:05:01</metaproperty>
   <metaproperty tool="" name="meta.attr.0.stream.language">eng</metaproperty>
   <metaproperty tool="" name="meta.attr.1.stream.creation_time">2015-09-05 11:05:01</metaproperty>
   <metaproperty tool="" name="meta.attr.1.stream.language">eng</metaproperty>
   <metaproperty tool="" name="meta.attr.compatible_brands">mp42avc1</metaproperty>
   <metaproperty tool="" name="meta.attr.creation_time">2015-09-05 11:05:01</metaproperty>
   <metaproperty tool="" name="meta.attr.major_brand">mp42</metaproperty>
   <metaproperty tool="" name="meta.attr.minor_version">1</metaproperty>
  </kdenlive_producer>
  <kdenlive_producer audio_max="49" id="82" pix_fmt="yuvj420p" default_video="0" fps="29.97" analysisdata="" name="IMGA0201.MP4" videocodecid="h264" colorspace="709" videocodec="H.264 / AVC / MPEG-4 AVC / MPEG-4 part 10" resource="/home/alex/Videos/EOTR 2015/IMGA0201.MP4" default_audio="1" audiocodec="AAC (Advanced Audio Coding)" duration="200" file_hash="bff74fa78976c1283f97c328257c0211" aspect_ratio="1" channels="2" frequency="48000" video_max="0" progressive="1" type="3" frame_size="1280x720" file_size="10649600">
   <metaproperty tool="" name="meta.attr.0.stream.creation_time">2015-09-05 11:05:17</metaproperty>
   <metaproperty tool="" name="meta.attr.0.stream.language">eng</metaproperty>
   <metaproperty tool="" name="meta.attr.1.stream.creation_time">2015-09-05 11:05:17</metaproperty>
   <metaproperty tool="" name="meta.attr.1.stream.language">eng</metaproperty>
   <metaproperty tool="" name="meta.attr.compatible_brands">mp42avc1</metaproperty>
   <metaproperty tool="" name="meta.attr.creation_time">2015-09-05 11:05:17</metaproperty>
   <metaproperty tool="" name="meta.attr.major_brand">mp42</metaproperty>
   <metaproperty tool="" name="meta.attr.minor_version">1</metaproperty>
  </kdenlive_producer>
  <kdenlive_producer audio_max="47" id="83" pix_fmt="yuvj420p" default_video="0" fps="29.97" analysisdata="" name="IMGA0202.MP4" videocodecid="h264" colorspace="709" videocodec="H.264 / AVC / MPEG-4 AVC / MPEG-4 part 10" resource="/home/alex/Videos/EOTR 2015/IMGA0202.MP4" default_audio="1" audiocodec="AAC (Advanced Audio Coding)" duration="200" file_hash="316978ef8c98d78f6572e0d70fe93e61" aspect_ratio="1" channels="2" frequency="48000" video_max="0" progressive="1" type="3" frame_size="1280x720" file_size="10485760">
   <metaproperty tool="" name="meta.attr.0.stream.creation_time">2015-09-05 11:05:45</metaproperty>
   <metaproperty tool="" name="meta.attr.0.stream.language">eng</metaproperty>
   <metaproperty tool="" name="meta.attr.1.stream.creation_time">2015-09-05 11:05:45</metaproperty>
   <metaproperty tool="" name="meta.attr.1.stream.language">eng</metaproperty>
   <metaproperty tool="" name="meta.attr.compatible_brands">mp42avc1</metaproperty>
   <metaproperty tool="" name="meta.attr.creation_time">2015-09-05 11:05:45</metaproperty>
   <metaproperty tool="" name="meta.attr.major_brand">mp42</metaproperty>
   <metaproperty tool="" name="meta.attr.minor_version">1</metaproperty>
  </kdenlive_producer>
  <kdenlive_producer audio_max="51" id="84" pix_fmt="yuvj420p" default_video="0" fps="29.97" analysisdata="" name="IMGA0203.MP4" videocodecid="h264" colorspace="709" videocodec="H.264 / AVC / MPEG-4 AVC / MPEG-4 part 10" resource="/home/alex/Videos/EOTR 2015/IMGA0203.MP4" default_audio="1" audiocodec="AAC (Advanced Audio Coding)" duration="725" file_hash="83b46cb2d9623a9fa10d19d2f5166adb" aspect_ratio="1" channels="2" frequency="48000" video_max="0" progressive="1" type="3" frame_size="1280x720" file_size="34799616">
   <metaproperty tool="" name="meta.attr.0.stream.creation_time">2015-09-05 11:06:56</metaproperty>
   <metaproperty tool="" name="meta.attr.0.stream.language">eng</metaproperty>
   <metaproperty tool="" name="meta.attr.1.stream.creation_time">2015-09-05 11:06:56</metaproperty>
   <metaproperty tool="" name="meta.attr.1.stream.language">eng</metaproperty>
   <metaproperty tool="" name="meta.attr.compatible_brands">mp42avc1</metaproperty>
   <metaproperty tool="" name="meta.attr.creation_time">2015-09-05 11:06:56</metaproperty>
   <metaproperty tool="" name="meta.attr.major_brand">mp42</metaproperty>
   <metaproperty tool="" name="meta.attr.minor_version">1</metaproperty>
  </kdenlive_producer>
  <kdenlive_producer audio_max="54" id="85" pix_fmt="yuvj420p" default_video="0" fps="29.97" analysisdata="" name="IMGA0204.MP4" videocodecid="h264" colorspace="709" videocodec="H.264 / AVC / MPEG-4 AVC / MPEG-4 part 10" resource="/home/alex/Videos/EOTR 2015/IMGA0204.MP4" default_audio="1" audiocodec="AAC (Advanced Audio Coding)" duration="350" file_hash="beffa83347551f4a029abb0f18548c2c" aspect_ratio="1" channels="2" frequency="48000" video_max="0" progressive="1" type="3" frame_size="1280x720" file_size="16973824">
   <metaproperty tool="" name="meta.attr.0.stream.creation_time">2015-09-05 11:11:44</metaproperty>
   <metaproperty tool="" name="meta.attr.0.stream.language">eng</metaproperty>
   <metaproperty tool="" name="meta.attr.1.stream.creation_time">2015-09-05 11:11:44</metaproperty>
   <metaproperty tool="" name="meta.attr.1.stream.language">eng</metaproperty>
   <metaproperty tool="" name="meta.attr.compatible_brands">mp42avc1</metaproperty>
   <metaproperty tool="" name="meta.attr.creation_time">2015-09-05 11:11:44</metaproperty>
   <metaproperty tool="" name="meta.attr.major_brand">mp42</metaproperty>
   <metaproperty tool="" name="meta.attr.minor_version">1</metaproperty>
  </kdenlive_producer>
  <kdenlive_producer audio_max="54" id="86" pix_fmt="yuvj420p" default_video="0" fps="29.97" analysisdata="" name="IMGA0205.MP4" videocodecid="h264" colorspace="709" videocodec="H.264 / AVC / MPEG-4 AVC / MPEG-4 part 10" resource="/home/alex/Videos/EOTR 2015/IMGA0205.MP4" default_audio="1" audiocodec="AAC (Advanced Audio Coding)" duration="325" file_hash="164c425fe0eed8b3dba0bc9d2a88f54e" aspect_ratio="1" channels="2" frequency="48000" video_max="0" progressive="1" type="3" frame_size="1280x720" file_size="16056320">
   <metaproperty tool="" name="meta.attr.0.stream.creation_time">2015-09-05 11:35:11</metaproperty>
   <metaproperty tool="" name="meta.attr.0.stream.language">eng</metaproperty>
   <metaproperty tool="" name="meta.attr.1.stream.creation_time">2015-09-05 11:35:11</metaproperty>
   <metaproperty tool="" name="meta.attr.1.stream.language">eng</metaproperty>
   <metaproperty tool="" name="meta.attr.compatible_brands">mp42avc1</metaproperty>
   <metaproperty tool="" name="meta.attr.creation_time">2015-09-05 11:35:11</metaproperty>
   <metaproperty tool="" name="meta.attr.major_brand">mp42</metaproperty>
   <metaproperty tool="" name="meta.attr.minor_version">1</metaproperty>
  </kdenlive_producer>
  <kdenlive_producer audio_max="51" id="87" pix_fmt="yuvj420p" default_video="0" fps="29.97" analysisdata="" name="IMGA0206.MP4" videocodecid="h264" colorspace="709" videocodec="H.264 / AVC / MPEG-4 AVC / MPEG-4 part 10" resource="/home/alex/Videos/EOTR 2015/IMGA0206.MP4" default_audio="1" audiocodec="AAC (Advanced Audio Coding)" duration="275" file_hash="9404b0da61a78c3936896dbe44b05c3b" aspect_ratio="1" channels="2" frequency="48000" video_max="0" progressive="1" type="3" frame_size="1280x720" file_size="14417920">
   <metaproperty tool="" name="meta.attr.0.stream.creation_time">2015-09-05 11:38:55</metaproperty>
   <metaproperty tool="" name="meta.attr.0.stream.language">eng</metaproperty>
   <metaproperty tool="" name="meta.attr.1.stream.creation_time">2015-09-05 11:38:55</metaproperty>
   <metaproperty tool="" name="meta.attr.1.stream.language">eng</metaproperty>
   <metaproperty tool="" name="meta.attr.compatible_brands">mp42avc1</metaproperty>
   <metaproperty tool="" name="meta.attr.creation_time">2015-09-05 11:38:55</metaproperty>
   <metaproperty tool="" name="meta.attr.major_brand">mp42</metaproperty>
   <metaproperty tool="" name="meta.attr.minor_version">1</metaproperty>
  </kdenlive_producer>
  <kdenlive_producer audio_max="63" id="88" pix_fmt="yuvj420p" default_video="0" fps="29.97" analysisdata="" name="IMGA0207.MP4" videocodecid="h264" colorspace="709" videocodec="H.264 / AVC / MPEG-4 AVC / MPEG-4 part 10" resource="/home/alex/Videos/EOTR 2015/IMGA0207.MP4" default_audio="1" audiocodec="AAC (Advanced Audio Coding)" duration="775" file_hash="4da6c153f62021190bd3b260f16988ed" aspect_ratio="1" channels="2" frequency="48000" video_max="0" progressive="1" type="3" frame_size="1280x720" file_size="38010880">
   <metaproperty tool="" name="meta.attr.0.stream.creation_time">2015-09-05 11:41:47</metaproperty>
   <metaproperty tool="" name="meta.attr.0.stream.language">eng</metaproperty>
   <metaproperty tool="" name="meta.attr.1.stream.creation_time">2015-09-05 11:41:47</metaproperty>
   <metaproperty tool="" name="meta.attr.1.stream.language">eng</metaproperty>
   <metaproperty tool="" name="meta.attr.compatible_brands">mp42avc1</metaproperty>
   <metaproperty tool="" name="meta.attr.creation_time">2015-09-05 11:41:47</metaproperty>
   <metaproperty tool="" name="meta.attr.major_brand">mp42</metaproperty>
   <metaproperty tool="" name="meta.attr.minor_version">1</metaproperty>
  </kdenlive_producer>
  <kdenlive_producer audio_max="54" id="89" pix_fmt="yuvj420p" default_video="0" fps="29.97" analysisdata="" name="IMGA0208.MP4" videocodecid="h264" colorspace="709" videocodec="H.264 / AVC / MPEG-4 AVC / MPEG-4 part 10" resource="/home/alex/Videos/EOTR 2015/IMGA0208.MP4" default_audio="1" audiocodec="AAC (Advanced Audio Coding)" duration="800" file_hash="9eab8695ab95f60df175102ae84c4860" aspect_ratio="1" channels="2" frequency="48000" video_max="0" progressive="1" type="3" frame_size="1280x720" file_size="39288832">
   <metaproperty tool="" name="meta.attr.0.stream.creation_time">2015-09-05 12:11:25</metaproperty>
   <metaproperty tool="" name="meta.attr.0.stream.language">eng</metaproperty>
   <metaproperty tool="" name="meta.attr.1.stream.creation_time">2015-09-05 12:11:25</metaproperty>
   <metaproperty tool="" name="meta.attr.1.stream.language">eng</metaproperty>
   <metaproperty tool="" name="meta.attr.compatible_brands">mp42avc1</metaproperty>
   <metaproperty tool="" name="meta.attr.creation_time">2015-09-05 12:11:25</metaproperty>
   <metaproperty tool="" name="meta.attr.major_brand">mp42</metaproperty>
   <metaproperty tool="" name="meta.attr.minor_version">1</metaproperty>
  </kdenlive_producer>
  <kdenlive_producer audio_max="57" id="90" pix_fmt="yuvj420p" default_video="0" fps="29.97" analysisdata="" name="IMGA0209.MP4" videocodecid="h264" colorspace="709" videocodec="H.264 / AVC / MPEG-4 AVC / MPEG-4 part 10" resource="/home/alex/Videos/EOTR 2015/IMGA0209.MP4" default_audio="1" audiocodec="AAC (Advanced Audio Coding)" duration="625" file_hash="4d45ea09e03b52f2a8d0aeb20c9322b6" aspect_ratio="1" channels="2" frequency="48000" video_max="0" progressive="1" type="3" frame_size="1280x720" file_size="30048256">
   <metaproperty tool="" name="meta.attr.0.stream.creation_time">2015-09-05 13:56:58</metaproperty>
   <metaproperty tool="" name="meta.attr.0.stream.language">eng</metaproperty>
   <metaproperty tool="" name="meta.attr.1.stream.creation_time">2015-09-05 13:56:58</metaproperty>
   <metaproperty tool="" name="meta.attr.1.stream.language">eng</metaproperty>
   <metaproperty tool="" name="meta.attr.compatible_brands">mp42avc1</metaproperty>
   <metaproperty tool="" name="meta.attr.creation_time">2015-09-05 13:56:58</metaproperty>
   <metaproperty tool="" name="meta.attr.major_brand">mp42</metaproperty>
   <metaproperty tool="" name="meta.attr.minor_version">1</metaproperty>
  </kdenlive_producer>
  <kdenlive_producer audio_max="62" id="91" pix_fmt="yuvj420p" default_video="0" fps="29.97" analysisdata="" name="IMGA0210.MP4" videocodecid="h264" colorspace="709" videocodec="H.264 / AVC / MPEG-4 AVC / MPEG-4 part 10" resource="/home/alex/Videos/EOTR 2015/IMGA0210.MP4" default_audio="1" audiocodec="AAC (Advanced Audio Coding)" duration="975" file_hash="22b4b2c3c556a1acf431164ce681ac09" aspect_ratio="1" channels="2" frequency="48000" video_max="0" progressive="1" type="3" frame_size="1280x720" file_size="47185920">
   <metaproperty tool="" name="meta.attr.0.stream.creation_time">2015-09-05 14:39:32</metaproperty>
   <metaproperty tool="" name="meta.attr.0.stream.language">eng</metaproperty>
   <metaproperty tool="" name="meta.attr.1.stream.creation_time">2015-09-05 14:39:32</metaproperty>
   <metaproperty tool="" name="meta.attr.1.stream.language">eng</metaproperty>
   <metaproperty tool="" name="meta.attr.compatible_brands">mp42avc1</metaproperty>
   <metaproperty tool="" name="meta.attr.creation_time">2015-09-05 14:39:32</metaproperty>
   <metaproperty tool="" name="meta.attr.major_brand">mp42</metaproperty>
   <metaproperty tool="" name="meta.attr.minor_version">1</metaproperty>
  </kdenlive_producer>
  <kdenlive_producer audio_max="55" id="92" pix_fmt="yuvj420p" default_video="0" fps="29.97" analysisdata="" name="IMGA0211.MP4" videocodecid="h264" colorspace="709" videocodec="H.264 / AVC / MPEG-4 AVC / MPEG-4 part 10" resource="/home/alex/Videos/EOTR 2015/IMGA0211.MP4" default_audio="1" audiocodec="AAC (Advanced Audio Coding)" duration="275" file_hash="2565cacd5ee4552064597f32db527dc8" aspect_ratio="1" channels="2" frequency="48000" video_max="0" progressive="1" type="3" frame_size="1280x720" file_size="13598720">
   <metaproperty tool="" name="meta.attr.0.stream.creation_time">2015-09-05 14:59:16</metaproperty>
   <metaproperty tool="" name="meta.attr.0.stream.language">eng</metaproperty>
   <metaproperty tool="" name="meta.attr.1.stream.creation_time">2015-09-05 14:59:16</metaproperty>
   <metaproperty tool="" name="meta.attr.1.stream.language">eng</metaproperty>
   <metaproperty tool="" name="meta.attr.compatible_brands">mp42avc1</metaproperty>
   <metaproperty tool="" name="meta.attr.creation_time">2015-09-05 14:59:16</metaproperty>
   <metaproperty tool="" name="meta.attr.major_brand">mp42</metaproperty>
   <metaproperty tool="" name="meta.attr.minor_version">1</metaproperty>
  </kdenlive_producer>
  <kdenlive_producer audio_max="53" id="93" pix_fmt="yuvj420p" default_video="0" fps="29.97" analysisdata="" name="IMGA0212.MP4" videocodecid="h264" colorspace="709" videocodec="H.264 / AVC / MPEG-4 AVC / MPEG-4 part 10" resource="/home/alex/Videos/EOTR 2015/IMGA0212.MP4" default_audio="1" audiocodec="AAC (Advanced Audio Coding)" duration="600" file_hash="de94cad4842104b2d0337c170e43a25a" aspect_ratio="1" channels="2" frequency="48000" video_max="0" progressive="1" type="3" frame_size="1280x720" file_size="32178176">
   <metaproperty tool="" name="meta.attr.0.stream.creation_time">2015-09-05 15:32:58</metaproperty>
   <metaproperty tool="" name="meta.attr.0.stream.language">eng</metaproperty>
   <metaproperty tool="" name="meta.attr.1.stream.creation_time">2015-09-05 15:32:58</metaproperty>
   <metaproperty tool="" name="meta.attr.1.stream.language">eng</metaproperty>
   <metaproperty tool="" name="meta.attr.compatible_brands">mp42avc1</metaproperty>
   <metaproperty tool="" name="meta.attr.creation_time">2015-09-05 15:32:58</metaproperty>
   <metaproperty tool="" name="meta.attr.major_brand">mp42</metaproperty>
   <metaproperty tool="" name="meta.attr.minor_version">1</metaproperty>
  </kdenlive_producer>
  <kdenlive_producer audio_max="63" id="95" pix_fmt="yuv420p" default_video="0" fps="30.0085" analysisdata="" name="VID_20150903_134237.mp4" videocodecid="h264" colorspace="709" videocodec="H.264 / AVC / MPEG-4 AVC / MPEG-4 part 10" resource="/home/alex/Videos/EOTR 2015/VID_20150903_134237.mp4" default_audio="1" audiocodec="AAC (Advanced Audio Coding)" duration="1648" file_hash="45dc482ce30d8759886390e47f35737b" aspect_ratio="1" channels="2" frequency="48000" video_max="0" progressive="1" type="3" frame_size="1920x1080" file_size="167089359">
   <metaproperty tool="" name="meta.attr.0.stream.creation_time">2015-09-03 12:43:44</metaproperty>
   <metaproperty tool="" name="meta.attr.0.stream.language">eng</metaproperty>
   <metaproperty tool="" name="meta.attr.1.stream.creation_time">2015-09-03 12:43:44</metaproperty>
   <metaproperty tool="" name="meta.attr.1.stream.language">eng</metaproperty>
   <metaproperty tool="" name="meta.attr.compatible_brands">isommp42</metaproperty>
   <metaproperty tool="" name="meta.attr.creation_time">2015-09-03 12:43:44</metaproperty>
   <metaproperty tool="" name="meta.attr.major_brand">mp42</metaproperty>
   <metaproperty tool="" name="meta.attr.minor_version">0</metaproperty>
  </kdenlive_producer>
  <kdenlive_producer audio_max="63" id="96" pix_fmt="yuv420p" default_video="0" fps="30.0085" analysisdata="" name="VID_20150903_154217.mp4" videocodecid="h264" colorspace="709" videocodec="H.264 / AVC / MPEG-4 AVC / MPEG-4 part 10" resource="/home/alex/Videos/EOTR 2015/VID_20150903_154217.mp4" default_audio="1" audiocodec="AAC (Advanced Audio Coding)" duration="4882" file_hash="85ed3b63da0bcf778be1f6b51abd79b0" aspect_ratio="1" channels="2" frequency="48000" video_max="0" progressive="1" type="3" frame_size="1920x1080" file_size="494573015">
   <metaproperty tool="" name="meta.attr.0.stream.creation_time">2015-09-03 14:45:33</metaproperty>
   <metaproperty tool="" name="meta.attr.0.stream.language">eng</metaproperty>
   <metaproperty tool="" name="meta.attr.1.stream.creation_time">2015-09-03 14:45:33</metaproperty>
   <metaproperty tool="" name="meta.attr.1.stream.language">eng</metaproperty>
   <metaproperty tool="" name="meta.attr.compatible_brands">isommp42</metaproperty>
   <metaproperty tool="" name="meta.attr.creation_time">2015-09-03 14:45:33</metaproperty>
   <metaproperty tool="" name="meta.attr.major_brand">mp42</metaproperty>
   <metaproperty tool="" name="meta.attr.minor_version">0</metaproperty>
  </kdenlive_producer>
  <kdenlive_producer audio_max="60" id="97" pix_fmt="yuv420p" default_video="0" fps="30.0082" analysisdata="" name="VID_20150903_154538.mp4" videocodecid="h264" colorspace="709" videocodec="H.264 / AVC / MPEG-4 AVC / MPEG-4 part 10" resource="/home/alex/Videos/EOTR 2015/VID_20150903_154538.mp4" default_audio="1" audiocodec="AAC (Advanced Audio Coding)" duration="1171" file_hash="4fc2feb0d182c70a4c4d3725d882cdaa" aspect_ratio="1" channels="2" frequency="48000" video_max="0" progressive="1" type="3" frame_size="1920x1080" file_size="118940453">
   <metaproperty tool="" name="meta.attr.0.stream.creation_time">2015-09-03 14:46:26</metaproperty>
   <metaproperty tool="" name="meta.attr.0.stream.language">eng</metaproperty>
   <metaproperty tool="" name="meta.attr.1.stream.creation_time">2015-09-03 14:46:26</metaproperty>
   <metaproperty tool="" name="meta.attr.1.stream.language">eng</metaproperty>
   <metaproperty tool="" name="meta.attr.compatible_brands">isommp42</metaproperty>
   <metaproperty tool="" name="meta.attr.creation_time">2015-09-03 14:46:26</metaproperty>
   <metaproperty tool="" name="meta.attr.major_brand">mp42</metaproperty>
   <metaproperty tool="" name="meta.attr.minor_version">0</metaproperty>
  </kdenlive_producer>
  <kdenlive_producer audio_max="18" id="98" pix_fmt="yuv420p" default_video="0" fps="30.0073" analysisdata="" name="VID_20150903_161752.mp4" videocodecid="h264" colorspace="709" videocodec="H.264 / AVC / MPEG-4 AVC / MPEG-4 part 10" resource="/home/alex/Videos/EOTR 2015/VID_20150903_161752.mp4" default_audio="1" audiocodec="AAC (Advanced Audio Coding)" duration="228" file_hash="8bc1229b230b49bdeed61f6dc76feb01" aspect_ratio="1" channels="2" frequency="48000" video_max="0" progressive="1" type="3" frame_size="1920x1080" file_size="23142785">
   <metaproperty tool="" name="meta.attr.0.stream.creation_time">2015-09-03 15:18:02</metaproperty>
   <metaproperty tool="" name="meta.attr.0.stream.language">eng</metaproperty>
   <metaproperty tool="" name="meta.attr.1.stream.creation_time">2015-09-03 15:18:02</metaproperty>
   <metaproperty tool="" name="meta.attr.1.stream.language">eng</metaproperty>
   <metaproperty tool="" name="meta.attr.compatible_brands">isommp42</metaproperty>
   <metaproperty tool="" name="meta.attr.creation_time">2015-09-03 15:18:02</metaproperty>
   <metaproperty tool="" name="meta.attr.major_brand">mp42</metaproperty>
   <metaproperty tool="" name="meta.attr.minor_version">0</metaproperty>
  </kdenlive_producer>
  <kdenlive_producer audio_max="46" id="99" pix_fmt="yuv420p" default_video="0" fps="30.0086" analysisdata="" name="VID_20150903_165419.mp4" videocodecid="h264" colorspace="709" videocodec="H.264 / AVC / MPEG-4 AVC / MPEG-4 part 10" resource="/home/alex/Videos/EOTR 2015/VID_20150903_165419.mp4" default_audio="1" audiocodec="AAC (Advanced Audio Coding)" duration="731" file_hash="2aace13d00ef8aa7d61f3fe5a2b31300" aspect_ratio="1" channels="2" frequency="48000" video_max="0" progressive="1" type="3" frame_size="1920x1080" file_size="74226547">
   <metaproperty tool="" name="meta.attr.0.stream.creation_time">2015-09-03 15:54:50</metaproperty>
   <metaproperty tool="" name="meta.attr.0.stream.language">eng</metaproperty>
   <metaproperty tool="" name="meta.attr.1.stream.creation_time">2015-09-03 15:54:50</metaproperty>
   <metaproperty tool="" name="meta.attr.1.stream.language">eng</metaproperty>
   <metaproperty tool="" name="meta.attr.compatible_brands">isommp42</metaproperty>
   <metaproperty tool="" name="meta.attr.creation_time">2015-09-03 15:54:50</metaproperty>
   <metaproperty tool="" name="meta.attr.major_brand">mp42</metaproperty>
   <metaproperty tool="" name="meta.attr.minor_version">0</metaproperty>
  </kdenlive_producer>
  <kdenlive_producer audio_max="42" id="100" pix_fmt="yuv420p" default_video="0" fps="30.0082" analysisdata="" name="VID_20150903_170750.mp4" videocodecid="h264" colorspace="709" videocodec="H.264 / AVC / MPEG-4 AVC / MPEG-4 part 10" resource="/home/alex/Videos/EOTR 2015/VID_20150903_170750.mp4" default_audio="1" audiocodec="AAC (Advanced Audio Coding)" duration="1163" file_hash="c178e4cf1c361410af4d3c5b00c57ed4" aspect_ratio="1" channels="2" frequency="48000" video_max="0" progressive="1" type="3" frame_size="1920x1080" file_size="118033076">
   <metaproperty tool="" name="meta.attr.0.stream.creation_time">2015-09-03 16:08:37</metaproperty>
   <metaproperty tool="" name="meta.attr.0.stream.language">eng</metaproperty>
   <metaproperty tool="" name="meta.attr.1.stream.creation_time">2015-09-03 16:08:37</metaproperty>
   <metaproperty tool="" name="meta.attr.1.stream.language">eng</metaproperty>
   <metaproperty tool="" name="meta.attr.compatible_brands">isommp42</metaproperty>
   <metaproperty tool="" name="meta.attr.creation_time">2015-09-03 16:08:37</metaproperty>
   <metaproperty tool="" name="meta.attr.major_brand">mp42</metaproperty>
   <metaproperty tool="" name="meta.attr.minor_version">0</metaproperty>
  </kdenlive_producer>
  <kdenlive_producer audio_max="61" id="101" pix_fmt="yuv420p" default_video="0" fps="29.6882" analysisdata="" name="VID_20150903_194620.mp4" videocodecid="h264" thumbnail="100" colorspace="709" videocodec="H.264 / AVC / MPEG-4 AVC / MPEG-4 part 10" resource="/home/alex/Videos/EOTR 2015/VID_20150903_194620.mp4" default_audio="1" audiocodec="AAC (Advanced Audio Coding)" duration="548" file_hash="c676681c8267ebc1b87cb18ea1ddb973" aspect_ratio="1" channels="2" frequency="48000" video_max="0" progressive="1" type="3" frame_size="1920x1080" file_size="55459242">
   <metaproperty tool="" name="meta.attr.0.stream.creation_time">2015-09-03 18:46:43</metaproperty>
   <metaproperty tool="" name="meta.attr.0.stream.language">eng</metaproperty>
   <metaproperty tool="" name="meta.attr.1.stream.creation_time">2015-09-03 18:46:43</metaproperty>
   <metaproperty tool="" name="meta.attr.1.stream.language">eng</metaproperty>
   <metaproperty tool="" name="meta.attr.compatible_brands">isommp42</metaproperty>
   <metaproperty tool="" name="meta.attr.creation_time">2015-09-03 18:46:43</metaproperty>
   <metaproperty tool="" name="meta.attr.major_brand">mp42</metaproperty>
   <metaproperty tool="" name="meta.attr.minor_version">0</metaproperty>
  </kdenlive_producer>
  <kdenlive_producer audio_max="60" id="102" pix_fmt="yuv420p" default_video="0" fps="30.0087" analysisdata="" name="VID_20150903_194837.mp4" videocodecid="h264" colorspace="709" videocodec="H.264 / AVC / MPEG-4 AVC / MPEG-4 part 10" resource="/home/alex/Videos/EOTR 2015/VID_20150903_194837.mp4" default_audio="1" audiocodec="AAC (Advanced Audio Coding)" duration="551" file_hash="afcc5ecdd399dbe686bbe97147831780" aspect_ratio="1" channels="2" frequency="48000" video_max="0" progressive="1" type="3" frame_size="1920x1080" file_size="55740770">
   <metaproperty tool="" name="meta.attr.0.stream.creation_time">2015-09-03 18:49:00</metaproperty>
   <metaproperty tool="" name="meta.attr.0.stream.language">eng</metaproperty>
   <metaproperty tool="" name="meta.attr.1.stream.creation_time">2015-09-03 18:49:00</metaproperty>
   <metaproperty tool="" name="meta.attr.1.stream.language">eng</metaproperty>
   <metaproperty tool="" name="meta.attr.compatible_brands">isommp42</metaproperty>
   <metaproperty tool="" name="meta.attr.creation_time">2015-09-03 18:49:00</metaproperty>
   <metaproperty tool="" name="meta.attr.major_brand">mp42</metaproperty>
   <metaproperty tool="" name="meta.attr.minor_version">0</metaproperty>
  </kdenlive_producer>
  <kdenlive_producer audio_max="53" id="103" pix_fmt="yuv420p" default_video="0" fps="30.0079" analysisdata="" name="VID_20150903_195506.mp4" videocodecid="h264" colorspace="709" videocodec="H.264 / AVC / MPEG-4 AVC / MPEG-4 part 10" resource="/home/alex/Videos/EOTR 2015/VID_20150903_195506.mp4" default_audio="1" audiocodec="AAC (Advanced Audio Coding)" duration="400" file_hash="d7930295a0589224aa6d8949485c855f" aspect_ratio="1" channels="2" frequency="48000" video_max="0" progressive="1" type="3" frame_size="1920x1080" file_size="40520735">
   <metaproperty tool="" name="meta.attr.0.stream.creation_time">2015-09-03 18:55:23</metaproperty>
   <metaproperty tool="" name="meta.attr.0.stream.language">eng</metaproperty>
   <metaproperty tool="" name="meta.attr.1.stream.creation_time">2015-09-03 18:55:23</metaproperty>
   <metaproperty tool="" name="meta.attr.1.stream.language">eng</metaproperty>
   <metaproperty tool="" name="meta.attr.compatible_brands">isommp42</metaproperty>
   <metaproperty tool="" name="meta.attr.creation_time">2015-09-03 18:55:23</metaproperty>
   <metaproperty tool="" name="meta.attr.major_brand">mp42</metaproperty>
   <metaproperty tool="" name="meta.attr.minor_version">0</metaproperty>
  </kdenlive_producer>
  <kdenlive_producer audio_max="62" id="104" pix_fmt="yuv420p" default_video="0" fps="12.5295" analysisdata="" name="VID_20150903_195544.mp4" videocodecid="h264" colorspace="709" videocodec="H.264 / AVC / MPEG-4 AVC / MPEG-4 part 10" resource="/home/alex/Videos/EOTR 2015/VID_20150903_195544.mp4" default_audio="1" audiocodec="AAC (Advanced Audio Coding)" duration="424" file_hash="0b17e1f4b3f20406daa44bd48dc906b6" aspect_ratio="1" channels="2" frequency="48000" video_max="0" progressive="1" type="3" frame_size="1280x720" file_size="30745236">
   <metaproperty tool="" name="meta.attr.0.stream.creation_time">2015-09-03 18:56:01</metaproperty>
   <metaproperty tool="" name="meta.attr.0.stream.language">eng</metaproperty>
   <metaproperty tool="" name="meta.attr.1.stream.creation_time">2015-09-03 18:56:01</metaproperty>
   <metaproperty tool="" name="meta.attr.1.stream.language">eng</metaproperty>
   <metaproperty tool="" name="meta.attr.compatible_brands">isommp42</metaproperty>
   <metaproperty tool="" name="meta.attr.creation_time">2015-09-03 18:56:01</metaproperty>
   <metaproperty tool="" name="meta.attr.major_brand">mp42</metaproperty>
   <metaproperty tool="" name="meta.attr.minor_version">0</metaproperty>
  </kdenlive_producer>
  <kdenlive_producer audio_max="56" id="105" pix_fmt="yuv420p" default_video="0" fps="30.0099" analysisdata="" name="VID_20150903_201422.mp4" videocodecid="h264" thumbnail="100" colorspace="709" videocodec="H.264 / AVC / MPEG-4 AVC / MPEG-4 part 10" resource="/home/alex/Videos/EOTR 2015/VID_20150903_201422.mp4" default_audio="1" audiocodec="AAC (Advanced Audio Coding)" duration="114" file_hash="2dd8d45c37d80514f66a4c144c5504c8" aspect_ratio="1" channels="2" frequency="48000" video_max="0" progressive="1" type="3" frame_size="1920x1080" file_size="11155932">
   <metaproperty tool="" name="meta.attr.0.stream.creation_time">2015-09-03 19:14:28</metaproperty>
   <metaproperty tool="" name="meta.attr.0.stream.language">eng</metaproperty>
   <metaproperty tool="" name="meta.attr.1.stream.creation_time">2015-09-03 19:14:28</metaproperty>
   <metaproperty tool="" name="meta.attr.1.stream.language">eng</metaproperty>
   <metaproperty tool="" name="meta.attr.compatible_brands">isommp42</metaproperty>
   <metaproperty tool="" name="meta.attr.creation_time">2015-09-03 19:14:28</metaproperty>
   <metaproperty tool="" name="meta.attr.major_brand">mp42</metaproperty>
   <metaproperty tool="" name="meta.attr.minor_version">0</metaproperty>
  </kdenlive_producer>
  <kdenlive_producer audio_max="44" id="106" pix_fmt="yuv420p" default_video="0" fps="30.0075" analysisdata="" name="VID_20150903_201657.mp4" videocodecid="h264" thumbnail="100" colorspace="709" videocodec="H.264 / AVC / MPEG-4 AVC / MPEG-4 part 10" resource="/home/alex/Videos/EOTR 2015/VID_20150903_201657.mp4" default_audio="1" audiocodec="AAC (Advanced Audio Coding)" duration="203" file_hash="6d55427184bcd954a62c85d13c3ed1c9" aspect_ratio="1" channels="2" frequency="48000" video_max="0" progressive="1" type="3" frame_size="1920x1080" file_size="20962414">
   <metaproperty tool="" name="meta.attr.0.stream.creation_time">2015-09-03 19:17:06</metaproperty>
   <metaproperty tool="" name="meta.attr.0.stream.language">eng</metaproperty>
   <metaproperty tool="" name="meta.attr.1.stream.creation_time">2015-09-03 19:17:06</metaproperty>
   <metaproperty tool="" name="meta.attr.1.stream.language">eng</metaproperty>
   <metaproperty tool="" name="meta.attr.compatible_brands">isommp42</metaproperty>
   <metaproperty tool="" name="meta.attr.creation_time">2015-09-03 19:17:06</metaproperty>
   <metaproperty tool="" name="meta.attr.major_brand">mp42</metaproperty>
   <metaproperty tool="" name="meta.attr.minor_version">0</metaproperty>
  </kdenlive_producer>
  <kdenlive_producer audio_max="51" id="107" pix_fmt="yuv420p" default_video="0" fps="30.0086" analysisdata="" name="VID_20150903_201934.mp4" videocodecid="h264" colorspace="709" videocodec="H.264 / AVC / MPEG-4 AVC / MPEG-4 part 10" resource="/home/alex/Videos/EOTR 2015/VID_20150903_201934.mp4" default_audio="1" audiocodec="AAC (Advanced Audio Coding)" duration="1551" file_hash="f5e259716f080f9fb36958cb6a163a97" aspect_ratio="1" channels="2" frequency="48000" video_max="0" progressive="1" type="3" frame_size="1920x1080" file_size="157490283">
   <metaproperty tool="" name="meta.attr.0.stream.creation_time">2015-09-03 19:20:37</metaproperty>
   <metaproperty tool="" name="meta.attr.0.stream.language">eng</metaproperty>
   <metaproperty tool="" name="meta.attr.1.stream.creation_time">2015-09-03 19:20:37</metaproperty>
   <metaproperty tool="" name="meta.attr.1.stream.language">eng</metaproperty>
   <metaproperty tool="" name="meta.attr.compatible_brands">isommp42</metaproperty>
   <metaproperty tool="" name="meta.attr.creation_time">2015-09-03 19:20:37</metaproperty>
   <metaproperty tool="" name="meta.attr.major_brand">mp42</metaproperty>
   <metaproperty tool="" name="meta.attr.minor_version">0</metaproperty>
  </kdenlive_producer>
  <kdenlive_producer audio_max="43" id="108" pix_fmt="yuv420p" default_video="0" fps="30.0086" analysisdata="" name="VID_20150903_202635.mp4" videocodecid="h264" colorspace="709" videocodec="H.264 / AVC / MPEG-4 AVC / MPEG-4 part 10" resource="/home/alex/Videos/EOTR 2015/VID_20150903_202635.mp4" default_audio="1" audiocodec="AAC (Advanced Audio Coding)" duration="556" file_hash="b21d22ad8bb12b79982c5513795259d0" aspect_ratio="1" channels="2" frequency="48000" video_max="0" progressive="1" type="3" frame_size="1920x1080" file_size="56654947">
   <metaproperty tool="" name="meta.attr.0.stream.creation_time">2015-09-03 19:26:58</metaproperty>
   <metaproperty tool="" name="meta.attr.0.stream.language">eng</metaproperty>
   <metaproperty tool="" name="meta.attr.1.stream.creation_time">2015-09-03 19:26:58</metaproperty>
   <metaproperty tool="" name="meta.attr.1.stream.language">eng</metaproperty>
   <metaproperty tool="" name="meta.attr.compatible_brands">isommp42</metaproperty>
   <metaproperty tool="" name="meta.attr.creation_time">2015-09-03 19:26:58</metaproperty>
   <metaproperty tool="" name="meta.attr.major_brand">mp42</metaproperty>
   <metaproperty tool="" name="meta.attr.minor_version">0</metaproperty>
  </kdenlive_producer>
  <kdenlive_producer audio_max="33" id="109" pix_fmt="yuv420p" default_video="0" fps="30.0088" analysisdata="" name="VID_20150903_203705.mp4" videocodecid="h264" colorspace="709" videocodec="H.264 / AVC / MPEG-4 AVC / MPEG-4 part 10" resource="/home/alex/Videos/EOTR 2015/VID_20150903_203705.mp4" default_audio="1" audiocodec="AAC (Advanced Audio Coding)" duration="879" file_hash="50225636fda95f3ece65375d0d0b05e2" aspect_ratio="1" channels="2" frequency="48000" video_max="0" progressive="1" type="3" frame_size="1920x1080" file_size="89359739">
   <metaproperty tool="" name="meta.attr.0.stream.creation_time">2015-09-03 19:37:41</metaproperty>
   <metaproperty tool="" name="meta.attr.0.stream.language">eng</metaproperty>
   <metaproperty tool="" name="meta.attr.1.stream.creation_time">2015-09-03 19:37:41</metaproperty>
   <metaproperty tool="" name="meta.attr.1.stream.language">eng</metaproperty>
   <metaproperty tool="" name="meta.attr.compatible_brands">isommp42</metaproperty>
   <metaproperty tool="" name="meta.attr.creation_time">2015-09-03 19:37:41</metaproperty>
   <metaproperty tool="" name="meta.attr.major_brand">mp42</metaproperty>
   <metaproperty tool="" name="meta.attr.minor_version">0</metaproperty>
  </kdenlive_producer>
  <kdenlive_producer audio_max="63" id="110" pix_fmt="yuv420p" default_video="0" fps="30.0159" analysisdata="" name="VID_20150903_222728.mp4" videocodecid="h264" thumbnail="100" colorspace="709" videocodec="H.264 / AVC / MPEG-4 AVC / MPEG-4 part 10" resource="/home/alex/Videos/EOTR 2015/VID_20150903_222728.mp4" default_audio="1" audiocodec="AAC (Advanced Audio Coding)" duration="652" file_hash="936dd6b3a95668057607ab05c4f236b4" aspect_ratio="1" channels="2" frequency="48000" video_max="0" progressive="1" type="3" frame_size="1920x1080" file_size="65440558">
   <metaproperty tool="" name="meta.attr.0.stream.creation_time">2015-09-03 21:27:55</metaproperty>
   <metaproperty tool="" name="meta.attr.0.stream.language">eng</metaproperty>
   <metaproperty tool="" name="meta.attr.1.stream.creation_time">2015-09-03 21:27:55</metaproperty>
   <metaproperty tool="" name="meta.attr.1.stream.language">eng</metaproperty>
   <metaproperty tool="" name="meta.attr.compatible_brands">isommp42</metaproperty>
   <metaproperty tool="" name="meta.attr.creation_time">2015-09-03 21:27:55</metaproperty>
   <metaproperty tool="" name="meta.attr.major_brand">mp42</metaproperty>
   <metaproperty tool="" name="meta.attr.minor_version">0</metaproperty>
  </kdenlive_producer>
  <kdenlive_producer audio_max="60" id="111" pix_fmt="yuv420p" default_video="0" fps="29.7204" analysisdata="" name="VID_20150903_223916.mp4" videocodecid="h264" thumbnail="100" colorspace="709" videocodec="H.264 / AVC / MPEG-4 AVC / MPEG-4 part 10" resource="/home/alex/Videos/EOTR 2015/VID_20150903_223916.mp4" default_audio="1" audiocodec="AAC (Advanced Audio Coding)" duration="597" file_hash="e02c0d1b05b431b2860fef3f5ead34e2" aspect_ratio="1" channels="2" frequency="48000" video_max="0" progressive="1" type="3" frame_size="1920x1080" file_size="60828781">
   <metaproperty tool="" name="meta.attr.0.stream.creation_time">2015-09-03 21:39:40</metaproperty>
   <metaproperty tool="" name="meta.attr.0.stream.language">eng</metaproperty>
   <metaproperty tool="" name="meta.attr.1.stream.creation_time">2015-09-03 21:39:40</metaproperty>
   <metaproperty tool="" name="meta.attr.1.stream.language">eng</metaproperty>
   <metaproperty tool="" name="meta.attr.compatible_brands">isommp42</metaproperty>
   <metaproperty tool="" name="meta.attr.creation_time">2015-09-03 21:39:40</metaproperty>
   <metaproperty tool="" name="meta.attr.major_brand">mp42</metaproperty>
   <metaproperty tool="" name="meta.attr.minor_version">0</metaproperty>
  </kdenlive_producer>
  <kdenlive_producer audio_max="16" id="112" pix_fmt="yuv420p" default_video="0" fps="30.0084" analysisdata="" name="VID_20150904_103908.mp4" videocodecid="h264" colorspace="709" videocodec="H.264 / AVC / MPEG-4 AVC / MPEG-4 part 10" resource="/home/alex/Videos/EOTR 2015/VID_20150904_103908.mp4" default_audio="1" audiocodec="AAC (Advanced Audio Coding)" duration="350" file_hash="aaf62b8c62c58c3649cc7670e9c5b596" aspect_ratio="1" channels="2" frequency="48000" video_max="0" progressive="1" type="3" frame_size="1920x1080" file_size="35556581">
   <metaproperty tool="" name="meta.attr.0.stream.creation_time">2015-09-04 09:39:23</metaproperty>
   <metaproperty tool="" name="meta.attr.0.stream.language">eng</metaproperty>
   <metaproperty tool="" name="meta.attr.1.stream.creation_time">2015-09-04 09:39:23</metaproperty>
   <metaproperty tool="" name="meta.attr.1.stream.language">eng</metaproperty>
   <metaproperty tool="" name="meta.attr.compatible_brands">isommp42</metaproperty>
   <metaproperty tool="" name="meta.attr.creation_time">2015-09-04 09:39:23</metaproperty>
   <metaproperty tool="" name="meta.attr.major_brand">mp42</metaproperty>
   <metaproperty tool="" name="meta.attr.minor_version">0</metaproperty>
  </kdenlive_producer>
  <kdenlive_producer audio_max="60" id="113" pix_fmt="yuv420p" default_video="0" fps="30.0084" analysisdata="" name="VID_20150904_181757.mp4" videocodecid="h264" colorspace="709" videocodec="H.264 / AVC / MPEG-4 AVC / MPEG-4 part 10" resource="/home/alex/Videos/EOTR 2015/VID_20150904_181757.mp4" default_audio="1" audiocodec="AAC (Advanced Audio Coding)" duration="1046" file_hash="ac7078814860e2a2b1dd44e3cba6c583" aspect_ratio="1" channels="2" frequency="48000" video_max="0" progressive="1" type="3" frame_size="1920x1080" file_size="106252489">
   <metaproperty tool="" name="meta.attr.0.stream.creation_time">2015-09-04 17:18:39</metaproperty>
   <metaproperty tool="" name="meta.attr.0.stream.language">eng</metaproperty>
   <metaproperty tool="" name="meta.attr.1.stream.creation_time">2015-09-04 17:18:39</metaproperty>
   <metaproperty tool="" name="meta.attr.1.stream.language">eng</metaproperty>
   <metaproperty tool="" name="meta.attr.compatible_brands">isommp42</metaproperty>
   <metaproperty tool="" name="meta.attr.creation_time">2015-09-04 17:18:39</metaproperty>
   <metaproperty tool="" name="meta.attr.major_brand">mp42</metaproperty>
   <metaproperty tool="" name="meta.attr.minor_version">0</metaproperty>
  </kdenlive_producer>
  <kdenlive_producer audio_max="63" id="114" pix_fmt="yuv420p" default_video="0" fps="29.9981" analysisdata="" name="VID_20150904_192435.mp4" videocodecid="h264" colorspace="709" videocodec="H.264 / AVC / MPEG-4 AVC / MPEG-4 part 10" resource="/home/alex/Videos/EOTR 2015/VID_20150904_192435.mp4" default_audio="1" audiocodec="AAC (Advanced Audio Coding)" duration="417" file_hash="2ecbd26e21a2cb46eb0a33d965e72127" aspect_ratio="1" channels="2" frequency="48000" video_max="0" progressive="1" type="3" frame_size="1920x1080" file_size="42642833">
   <metaproperty tool="" name="meta.attr.0.stream.creation_time">2015-09-04 18:24:52</metaproperty>
   <metaproperty tool="" name="meta.attr.0.stream.language">eng</metaproperty>
   <metaproperty tool="" name="meta.attr.1.stream.creation_time">2015-09-04 18:24:52</metaproperty>
   <metaproperty tool="" name="meta.attr.1.stream.language">eng</metaproperty>
   <metaproperty tool="" name="meta.attr.compatible_brands">isommp42</metaproperty>
   <metaproperty tool="" name="meta.attr.creation_time">2015-09-04 18:24:52</metaproperty>
   <metaproperty tool="" name="meta.attr.major_brand">mp42</metaproperty>
   <metaproperty tool="" name="meta.attr.minor_version">0</metaproperty>
  </kdenlive_producer>
  <kdenlive_producer audio_max="63" id="115" pix_fmt="yuv420p" default_video="0" fps="29.97" analysisdata="" name="VID_20150904_192954.mp4" videocodecid="h264" colorspace="709" videocodec="H.264 / AVC / MPEG-4 AVC / MPEG-4 part 10" resource="/home/alex/Videos/EOTR 2015/VID_20150904_192954.mp4" default_audio="1" audiocodec="AAC (Advanced Audio Coding)" duration="520" file_hash="6a0a9c9a46cee9989157860b2d6d8135" aspect_ratio="1" channels="2" frequency="48000" video_max="0" progressive="1" type="3" frame_size="1920x1080" file_size="52922248">
   <metaproperty tool="" name="meta.attr.0.stream.creation_time">2015-09-04 18:30:15</metaproperty>
   <metaproperty tool="" name="meta.attr.0.stream.language">eng</metaproperty>
   <metaproperty tool="" name="meta.attr.1.stream.creation_time">2015-09-04 18:30:15</metaproperty>
   <metaproperty tool="" name="meta.attr.1.stream.language">eng</metaproperty>
   <metaproperty tool="" name="meta.attr.compatible_brands">isommp42</metaproperty>
   <metaproperty tool="" name="meta.attr.creation_time">2015-09-04 18:30:15</metaproperty>
   <metaproperty tool="" name="meta.attr.major_brand">mp42</metaproperty>
   <metaproperty tool="" name="meta.attr.minor_version">0</metaproperty>
  </kdenlive_producer>
  <kdenlive_producer audio_max="58" id="116" pix_fmt="yuv420p" default_video="0" fps="30.0081" analysisdata="" name="VID_20150904_193047.mp4" videocodecid="h264" colorspace="709" videocodec="H.264 / AVC / MPEG-4 AVC / MPEG-4 part 10" resource="/home/alex/Videos/EOTR 2015/VID_20150904_193047.mp4" default_audio="1" audiocodec="AAC (Advanced Audio Coding)" duration="238" file_hash="852afbb9884e59f668a9c9c6c6fb63d2" aspect_ratio="1" channels="2" frequency="48000" video_max="0" progressive="1" type="3" frame_size="1920x1080" file_size="24234468">
   <metaproperty tool="" name="meta.attr.0.stream.creation_time">2015-09-04 18:30:57</metaproperty>
   <metaproperty tool="" name="meta.attr.0.stream.language">eng</metaproperty>
   <metaproperty tool="" name="meta.attr.1.stream.creation_time">2015-09-04 18:30:57</metaproperty>
   <metaproperty tool="" name="meta.attr.1.stream.language">eng</metaproperty>
   <metaproperty tool="" name="meta.attr.compatible_brands">isommp42</metaproperty>
   <metaproperty tool="" name="meta.attr.creation_time">2015-09-04 18:30:57</metaproperty>
   <metaproperty tool="" name="meta.attr.major_brand">mp42</metaproperty>
   <metaproperty tool="" name="meta.attr.minor_version">0</metaproperty>
  </kdenlive_producer>
  <kdenlive_producer audio_max="54" id="117" pix_fmt="yuv420p" default_video="0" fps="30.0081" analysisdata="" name="VID_20150904_202107.mp4" videocodecid="h264" thumbnail="100" colorspace="709" videocodec="H.264 / AVC / MPEG-4 AVC / MPEG-4 part 10" resource="/home/alex/Videos/EOTR 2015/VID_20150904_202107.mp4" default_audio="1" audiocodec="AAC (Advanced Audio Coding)" duration="294" file_hash="5a32859d536ed85bded874ef4bdc1fba" aspect_ratio="1" channels="2" frequency="48000" video_max="0" progressive="1" type="3" frame_size="1920x1080" file_size="30342096">
   <metaproperty tool="" name="meta.attr.0.stream.creation_time">2015-09-04 19:21:20</metaproperty>
   <metaproperty tool="" name="meta.attr.0.stream.language">eng</metaproperty>
   <metaproperty tool="" name="meta.attr.1.stream.creation_time">2015-09-04 19:21:20</metaproperty>
   <metaproperty tool="" name="meta.attr.1.stream.language">eng</metaproperty>
   <metaproperty tool="" name="meta.attr.compatible_brands">isommp42</metaproperty>
   <metaproperty tool="" name="meta.attr.creation_time">2015-09-04 19:21:20</metaproperty>
   <metaproperty tool="" name="meta.attr.major_brand">mp42</metaproperty>
   <metaproperty tool="" name="meta.attr.minor_version">0</metaproperty>
  </kdenlive_producer>
  <kdenlive_producer audio_max="58" id="118" pix_fmt="yuv420p" default_video="0" fps="30.0085" analysisdata="" name="VID_20150904_202222.mp4" videocodecid="h264" thumbnail="100" colorspace="709" videocodec="H.264 / AVC / MPEG-4 AVC / MPEG-4 part 10" resource="/home/alex/Videos/EOTR 2015/VID_20150904_202222.mp4" default_audio="1" audiocodec="AAC (Advanced Audio Coding)" duration="968" file_hash="d567cf6e58d3e36bed0503c843a9b653" aspect_ratio="1" channels="2" frequency="48000" video_max="0" progressive="1" type="3" frame_size="1920x1080" file_size="98491245">
   <metaproperty tool="" name="meta.attr.0.stream.creation_time">2015-09-04 19:23:01</metaproperty>
   <metaproperty tool="" name="meta.attr.0.stream.language">eng</metaproperty>
   <metaproperty tool="" name="meta.attr.1.stream.creation_time">2015-09-04 19:23:01</metaproperty>
   <metaproperty tool="" name="meta.attr.1.stream.language">eng</metaproperty>
   <metaproperty tool="" name="meta.attr.compatible_brands">isommp42</metaproperty>
   <metaproperty tool="" name="meta.attr.creation_time">2015-09-04 19:23:01</metaproperty>
   <metaproperty tool="" name="meta.attr.major_brand">mp42</metaproperty>
   <metaproperty tool="" name="meta.attr.minor_version">0</metaproperty>
  </kdenlive_producer>
  <kdenlive_producer audio_max="61" id="119" pix_fmt="yuv420p" default_video="0" fps="30.0086" analysisdata="" name="VID_20150904_211826.mp4" videocodecid="h264" thumbnail="100" colorspace="709" videocodec="H.264 / AVC / MPEG-4 AVC / MPEG-4 part 10" resource="/home/alex/Videos/EOTR 2015/VID_20150904_211826.mp4" default_audio="1" audiocodec="AAC (Advanced Audio Coding)" duration="1291" file_hash="d7c2b55ace491052b37cbc7a1ad00696" aspect_ratio="1" channels="2" frequency="48000" video_max="0" progressive="1" type="3" frame_size="1920x1080" file_size="130726342">
   <metaproperty tool="" name="meta.attr.0.stream.creation_time">2015-09-04 20:19:19</metaproperty>
   <metaproperty tool="" name="meta.attr.0.stream.language">eng</metaproperty>
   <metaproperty tool="" name="meta.attr.1.stream.creation_time">2015-09-04 20:19:19</metaproperty>
   <metaproperty tool="" name="meta.attr.1.stream.language">eng</metaproperty>
   <metaproperty tool="" name="meta.attr.compatible_brands">isommp42</metaproperty>
   <metaproperty tool="" name="meta.attr.creation_time">2015-09-04 20:19:19</metaproperty>
   <metaproperty tool="" name="meta.attr.major_brand">mp42</metaproperty>
   <metaproperty tool="" name="meta.attr.minor_version">0</metaproperty>
  </kdenlive_producer>
  <kdenlive_producer audio_max="61" id="120" pix_fmt="yuv420p" default_video="0" fps="30.0089" analysisdata="" name="VID_20150904_211950.mp4" videocodecid="h264" colorspace="709" videocodec="H.264 / AVC / MPEG-4 AVC / MPEG-4 part 10" resource="/home/alex/Videos/EOTR 2015/VID_20150904_211950.mp4" default_audio="1" audiocodec="AAC (Advanced Audio Coding)" duration="156" file_hash="73aca9c4d6a0fd2c44694c4b71780e26" aspect_ratio="1" channels="2" frequency="48000" video_max="0" progressive="1" type="3" frame_size="1920x1080" file_size="16279143">
   <metaproperty tool="" name="meta.attr.0.stream.creation_time">2015-09-04 20:19:57</metaproperty>
   <metaproperty tool="" name="meta.attr.0.stream.language">eng</metaproperty>
   <metaproperty tool="" name="meta.attr.1.stream.creation_time">2015-09-04 20:19:57</metaproperty>
   <metaproperty tool="" name="meta.attr.1.stream.language">eng</metaproperty>
   <metaproperty tool="" name="meta.attr.compatible_brands">isommp42</metaproperty>
   <metaproperty tool="" name="meta.attr.creation_time">2015-09-04 20:19:57</metaproperty>
   <metaproperty tool="" name="meta.attr.major_brand">mp42</metaproperty>
   <metaproperty tool="" name="meta.attr.minor_version">0</metaproperty>
  </kdenlive_producer>
  <kdenlive_producer audio_max="60" id="121" pix_fmt="yuv420p" default_video="0" fps="30.0192" analysisdata="" name="VID_20150904_212009.mp4" videocodecid="h264" thumbnail="100" colorspace="709" videocodec="H.264 / AVC / MPEG-4 AVC / MPEG-4 part 10" resource="/home/alex/Videos/EOTR 2015/VID_20150904_212009.mp4" default_audio="1" audiocodec="AAC (Advanced Audio Coding)" duration="442" file_hash="b7ddc52f573a9b9f79be39a03894291c" aspect_ratio="1" channels="2" frequency="48000" video_max="0" progressive="1" type="3" frame_size="1920x1080" file_size="45203432">
   <metaproperty tool="" name="meta.attr.0.stream.creation_time">2015-09-04 20:20:28</metaproperty>
   <metaproperty tool="" name="meta.attr.0.stream.language">eng</metaproperty>
   <metaproperty tool="" name="meta.attr.1.stream.creation_time">2015-09-04 20:20:28</metaproperty>
   <metaproperty tool="" name="meta.attr.1.stream.language">eng</metaproperty>
   <metaproperty tool="" name="meta.attr.compatible_brands">isommp42</metaproperty>
   <metaproperty tool="" name="meta.attr.creation_time">2015-09-04 20:20:28</metaproperty>
   <metaproperty tool="" name="meta.attr.major_brand">mp42</metaproperty>
   <metaproperty tool="" name="meta.attr.minor_version">0</metaproperty>
  </kdenlive_producer>
  <kdenlive_producer audio_max="30" id="122" pix_fmt="yuv420p" default_video="0" fps="30.006" analysisdata="" name="VID_20150904_214144.mp4" videocodecid="h264" thumbnail="100" colorspace="709" videocodec="H.264 / AVC / MPEG-4 AVC / MPEG-4 part 10" resource="/home/alex/Videos/EOTR 2015/VID_20150904_214144.mp4" default_audio="1" audiocodec="AAC (Advanced Audio Coding)" duration="131" file_hash="b334bb4b878780cf5547d698534290b1" aspect_ratio="1" channels="2" frequency="48000" video_max="0" progressive="1" type="3" frame_size="1920x1080" file_size="13923953">
   <metaproperty tool="" name="meta.attr.0.stream.creation_time">2015-09-04 20:41:50</metaproperty>
   <metaproperty tool="" name="meta.attr.0.stream.language">eng</metaproperty>
   <metaproperty tool="" name="meta.attr.1.stream.creation_time">2015-09-04 20:41:50</metaproperty>
   <metaproperty tool="" name="meta.attr.1.stream.language">eng</metaproperty>
   <metaproperty tool="" name="meta.attr.compatible_brands">isommp42</metaproperty>
   <metaproperty tool="" name="meta.attr.creation_time">2015-09-04 20:41:50</metaproperty>
   <metaproperty tool="" name="meta.attr.major_brand">mp42</metaproperty>
   <metaproperty tool="" name="meta.attr.minor_version">0</metaproperty>
  </kdenlive_producer>
  <kdenlive_producer audio_max="55" id="123" pix_fmt="yuv420p" default_video="0" fps="30.0079" analysisdata="" name="VID_20150904_214934.mp4" videocodecid="h264" thumbnail="100" colorspace="709" videocodec="H.264 / AVC / MPEG-4 AVC / MPEG-4 part 10" resource="/home/alex/Videos/EOTR 2015/VID_20150904_214934.mp4" default_audio="1" audiocodec="AAC (Advanced Audio Coding)" duration="272" file_hash="4e311f93d13f089f9190c9db5abf9fa7" aspect_ratio="1" channels="2" frequency="48000" video_max="0" progressive="1" type="3" frame_size="1920x1080" file_size="27944615">
   <metaproperty tool="" name="meta.attr.0.stream.creation_time">2015-09-04 20:49:46</metaproperty>
   <metaproperty tool="" name="meta.attr.0.stream.language">eng</metaproperty>
   <metaproperty tool="" name="meta.attr.1.stream.creation_time">2015-09-04 20:49:46</metaproperty>
   <metaproperty tool="" name="meta.attr.1.stream.language">eng</metaproperty>
   <metaproperty tool="" name="meta.attr.compatible_brands">isommp42</metaproperty>
   <metaproperty tool="" name="meta.attr.creation_time">2015-09-04 20:49:46</metaproperty>
   <metaproperty tool="" name="meta.attr.major_brand">mp42</metaproperty>
   <metaproperty tool="" name="meta.attr.minor_version">0</metaproperty>
  </kdenlive_producer>
  <kdenlive_producer audio_max="56" id="124" pix_fmt="yuv420p" default_video="0" fps="30.0098" analysisdata="" name="VID_20150904_224235.mp4" videocodecid="h264" thumbnail="100" colorspace="709" videocodec="H.264 / AVC / MPEG-4 AVC / MPEG-4 part 10" resource="/home/alex/Videos/EOTR 2015/VID_20150904_224235.mp4" default_audio="1" audiocodec="AAC (Advanced Audio Coding)" duration="174" file_hash="bd4c77345b6f422a9f381205ee22713c" aspect_ratio="1" channels="2" frequency="48000" video_max="0" progressive="1" type="3" frame_size="1920x1080" file_size="18019780">
   <metaproperty tool="" name="meta.attr.0.stream.creation_time">2015-09-04 21:42:42</metaproperty>
   <metaproperty tool="" name="meta.attr.0.stream.language">eng</metaproperty>
   <metaproperty tool="" name="meta.attr.1.stream.creation_time">2015-09-04 21:42:42</metaproperty>
   <metaproperty tool="" name="meta.attr.1.stream.language">eng</metaproperty>
   <metaproperty tool="" name="meta.attr.compatible_brands">isommp42</metaproperty>
   <metaproperty tool="" name="meta.attr.creation_time">2015-09-04 21:42:42</metaproperty>
   <metaproperty tool="" name="meta.attr.major_brand">mp42</metaproperty>
   <metaproperty tool="" name="meta.attr.minor_version">0</metaproperty>
  </kdenlive_producer>
  <kdenlive_producer audio_max="59" id="125" pix_fmt="yuv420p" default_video="0" fps="29.7943" analysisdata="" name="VID_20150904_224317.mp4" videocodecid="h264" colorspace="709" videocodec="H.264 / AVC / MPEG-4 AVC / MPEG-4 part 10" resource="/home/alex/Videos/EOTR 2015/VID_20150904_224317.mp4" default_audio="1" audiocodec="AAC (Advanced Audio Coding)" duration="1010" file_hash="c4c4997d7a868930a745dc61196bbf70" aspect_ratio="1" channels="2" frequency="48000" video_max="0" progressive="1" type="3" frame_size="1920x1080" file_size="102085508">
   <metaproperty tool="" name="meta.attr.0.stream.creation_time">2015-09-04 21:43:58</metaproperty>
   <metaproperty tool="" name="meta.attr.0.stream.language">eng</metaproperty>
   <metaproperty tool="" name="meta.attr.1.stream.creation_time">2015-09-04 21:43:58</metaproperty>
   <metaproperty tool="" name="meta.attr.1.stream.language">eng</metaproperty>
   <metaproperty tool="" name="meta.attr.compatible_brands">isommp42</metaproperty>
   <metaproperty tool="" name="meta.attr.creation_time">2015-09-04 21:43:58</metaproperty>
   <metaproperty tool="" name="meta.attr.major_brand">mp42</metaproperty>
   <metaproperty tool="" name="meta.attr.minor_version">0</metaproperty>
  </kdenlive_producer>
  <kdenlive_producer audio_max="61" id="126" pix_fmt="yuv420p" default_video="0" fps="29.6519" analysisdata="" name="VID_20150904_234110.mp4" videocodecid="h264" thumbnail="100" colorspace="709" videocodec="H.264 / AVC / MPEG-4 AVC / MPEG-4 part 10" resource="/home/alex/Videos/EOTR 2015/VID_20150904_234110.mp4" default_audio="1" audiocodec="AAC (Advanced Audio Coding)" duration="642" file_hash="91d2c29afad40aabfe05a0d0055997d5" aspect_ratio="1" channels="2" frequency="48000" video_max="0" progressive="1" type="3" frame_size="1920x1080" file_size="64533369">
   <metaproperty tool="" name="meta.attr.0.stream.creation_time">2015-09-04 22:41:37</metaproperty>
   <metaproperty tool="" name="meta.attr.0.stream.language">eng</metaproperty>
   <metaproperty tool="" name="meta.attr.1.stream.creation_time">2015-09-04 22:41:37</metaproperty>
   <metaproperty tool="" name="meta.attr.1.stream.language">eng</metaproperty>
   <metaproperty tool="" name="meta.attr.compatible_brands">isommp42</metaproperty>
   <metaproperty tool="" name="meta.attr.creation_time">2015-09-04 22:41:37</metaproperty>
   <metaproperty tool="" name="meta.attr.major_brand">mp42</metaproperty>
   <metaproperty tool="" name="meta.attr.minor_version">0</metaproperty>
  </kdenlive_producer>
  <kdenlive_producer audio_max="39" id="127" pix_fmt="yuv420p" default_video="0" fps="29.4638" analysisdata="" name="VID_20150905_000915.mp4" videocodecid="h264" colorspace="709" videocodec="H.264 / AVC / MPEG-4 AVC / MPEG-4 part 10" resource="/home/alex/Videos/EOTR 2015/VID_20150905_000915.mp4" default_audio="1" audiocodec="AAC (Advanced Audio Coding)" duration="419" file_hash="82f7e24a6b3d6a0bb61ff36c2684ad03" aspect_ratio="1" channels="2" frequency="48000" video_max="0" progressive="1" type="3" frame_size="1920x1080" file_size="41951885">
   <metaproperty tool="" name="meta.attr.0.stream.creation_time">2015-09-04 23:09:33</metaproperty>
   <metaproperty tool="" name="meta.attr.0.stream.language">eng</metaproperty>
   <metaproperty tool="" name="meta.attr.1.stream.creation_time">2015-09-04 23:09:33</metaproperty>
   <metaproperty tool="" name="meta.attr.1.stream.language">eng</metaproperty>
   <metaproperty tool="" name="meta.attr.compatible_brands">isommp42</metaproperty>
   <metaproperty tool="" name="meta.attr.creation_time">2015-09-04 23:09:33</metaproperty>
   <metaproperty tool="" name="meta.attr.major_brand">mp42</metaproperty>
   <metaproperty tool="" name="meta.attr.minor_version">0</metaproperty>
  </kdenlive_producer>
  <kdenlive_producer audio_max="62" id="128" pix_fmt="yuv420p" default_video="0" fps="29.627" analysisdata="" name="VID_20150905_005019.mp4" videocodecid="h264" colorspace="709" videocodec="H.264 / AVC / MPEG-4 AVC / MPEG-4 part 10" resource="/home/alex/Videos/EOTR 2015/VID_20150905_005019.mp4" default_audio="1" audiocodec="AAC (Advanced Audio Coding)" duration="611" file_hash="40c831cebd89e476674385dfed0a2464" aspect_ratio="1" channels="2" frequency="48000" video_max="0" progressive="1" type="3" frame_size="1920x1080" file_size="61129486">
   <metaproperty tool="" name="meta.attr.0.stream.creation_time">2015-09-04 23:50:44</metaproperty>
   <metaproperty tool="" name="meta.attr.0.stream.language">eng</metaproperty>
   <metaproperty tool="" name="meta.attr.1.stream.creation_time">2015-09-04 23:50:44</metaproperty>
   <metaproperty tool="" name="meta.attr.1.stream.language">eng</metaproperty>
   <metaproperty tool="" name="meta.attr.compatible_brands">isommp42</metaproperty>
   <metaproperty tool="" name="meta.attr.creation_time">2015-09-04 23:50:44</metaproperty>
   <metaproperty tool="" name="meta.attr.major_brand">mp42</metaproperty>
   <metaproperty tool="" name="meta.attr.minor_version">0</metaproperty>
  </kdenlive_producer>
  <kdenlive_producer audio_max="14" id="129" pix_fmt="yuv420p" default_video="0" fps="30.0087" analysisdata="" name="VID_20150905_092227.mp4" videocodecid="h264" colorspace="709" videocodec="H.264 / AVC / MPEG-4 AVC / MPEG-4 part 10" resource="/home/alex/Videos/EOTR 2015/VID_20150905_092227.mp4" default_audio="1" audiocodec="AAC (Advanced Audio Coding)" duration="365" file_hash="8dca3c2e84afe119cdb23fe2dd48e550" aspect_ratio="1" channels="2" frequency="48000" video_max="0" progressive="1" type="3" frame_size="1920x1080" file_size="37206186">
   <metaproperty tool="" name="meta.attr.0.stream.creation_time">2015-09-05 08:22:42</metaproperty>
   <metaproperty tool="" name="meta.attr.0.stream.language">eng</metaproperty>
   <metaproperty tool="" name="meta.attr.1.stream.creation_time">2015-09-05 08:22:42</metaproperty>
   <metaproperty tool="" name="meta.attr.1.stream.language">eng</metaproperty>
   <metaproperty tool="" name="meta.attr.compatible_brands">isommp42</metaproperty>
   <metaproperty tool="" name="meta.attr.creation_time">2015-09-05 08:22:42</metaproperty>
   <metaproperty tool="" name="meta.attr.major_brand">mp42</metaproperty>
   <metaproperty tool="" name="meta.attr.minor_version">0</metaproperty>
  </kdenlive_producer>
  <kdenlive_producer audio_max="29" id="130" pix_fmt="yuv420p" default_video="0" fps="30.0085" analysisdata="" name="VID_20150905_092258.mp4" videocodecid="h264" colorspace="709" videocodec="H.264 / AVC / MPEG-4 AVC / MPEG-4 part 10" resource="/home/alex/Videos/EOTR 2015/VID_20150905_092258.mp4" default_audio="1" audiocodec="AAC (Advanced Audio Coding)" duration="622" file_hash="ae1247abe47a7e216b95d7f7fcac807f" aspect_ratio="1" channels="2" frequency="48000" video_max="0" progressive="1" type="3" frame_size="1920x1080" file_size="63294811">
   <metaproperty tool="" name="meta.attr.0.stream.creation_time">2015-09-05 08:23:24</metaproperty>
   <metaproperty tool="" name="meta.attr.0.stream.language">eng</metaproperty>
   <metaproperty tool="" name="meta.attr.1.stream.creation_time">2015-09-05 08:23:24</metaproperty>
   <metaproperty tool="" name="meta.attr.1.stream.language">eng</metaproperty>
   <metaproperty tool="" name="meta.attr.compatible_brands">isommp42</metaproperty>
   <metaproperty tool="" name="meta.attr.creation_time">2015-09-05 08:23:24</metaproperty>
   <metaproperty tool="" name="meta.attr.major_brand">mp42</metaproperty>
   <metaproperty tool="" name="meta.attr.minor_version">0</metaproperty>
  </kdenlive_producer>
  <kdenlive_producer audio_max="21" id="131" pix_fmt="yuv420p" default_video="0" fps="30.0086" analysisdata="" name="VID_20150905_100411.mp4" videocodecid="h264" colorspace="709" videocodec="H.264 / AVC / MPEG-4 AVC / MPEG-4 part 10" resource="/home/alex/Videos/EOTR 2015/VID_20150905_100411.mp4" default_audio="1" audiocodec="AAC (Advanced Audio Coding)" duration="585" file_hash="0522b0e77f8fb4d345e2e6b0d0dacce0" aspect_ratio="1" channels="2" frequency="48000" video_max="0" progressive="1" type="3" frame_size="1920x1080" file_size="59322539">
   <metaproperty tool="" name="meta.attr.0.stream.creation_time">2015-09-05 09:04:35</metaproperty>
   <metaproperty tool="" name="meta.attr.0.stream.language">eng</metaproperty>
   <metaproperty tool="" name="meta.attr.1.stream.creation_time">2015-09-05 09:04:35</metaproperty>
   <metaproperty tool="" name="meta.attr.1.stream.language">eng</metaproperty>
   <metaproperty tool="" name="meta.attr.compatible_brands">isommp42</metaproperty>
   <metaproperty tool="" name="meta.attr.creation_time">2015-09-05 09:04:35</metaproperty>
   <metaproperty tool="" name="meta.attr.major_brand">mp42</metaproperty>
   <metaproperty tool="" name="meta.attr.minor_version">0</metaproperty>
  </kdenlive_producer>
  <kdenlive_producer audio_max="10" id="132" pix_fmt="yuv420p" default_video="0" fps="30.0062" analysisdata="" name="VID_20150905_103150.mp4" videocodecid="h264" colorspace="709" videocodec="H.264 / AVC / MPEG-4 AVC / MPEG-4 part 10" resource="/home/alex/Videos/EOTR 2015/VID_20150905_103150.mp4" default_audio="1" audiocodec="AAC (Advanced Audio Coding)" duration="125" file_hash="d4f0f27dcc2210fc9987ebe5dfc7943a" aspect_ratio="1" channels="2" frequency="48000" video_max="0" progressive="1" type="3" frame_size="1920x1080" file_size="12547514">
   <metaproperty tool="" name="meta.attr.0.stream.creation_time">2015-09-05 09:31:56</metaproperty>
   <metaproperty tool="" name="meta.attr.0.stream.language">eng</metaproperty>
   <metaproperty tool="" name="meta.attr.1.stream.creation_time">2015-09-05 09:31:56</metaproperty>
   <metaproperty tool="" name="meta.attr.1.stream.language">eng</metaproperty>
   <metaproperty tool="" name="meta.attr.compatible_brands">isommp42</metaproperty>
   <metaproperty tool="" name="meta.attr.creation_time">2015-09-05 09:31:56</metaproperty>
   <metaproperty tool="" name="meta.attr.major_brand">mp42</metaproperty>
   <metaproperty tool="" name="meta.attr.minor_version">0</metaproperty>
  </kdenlive_producer>
  <kdenlive_producer audio_max="23" id="133" pix_fmt="yuv420p" default_video="0" fps="30.0084" analysisdata="" name="VID_20150905_112156.mp4" videocodecid="h264" colorspace="709" videocodec="H.264 / AVC / MPEG-4 AVC / MPEG-4 part 10" resource="/home/alex/Videos/EOTR 2015/VID_20150905_112156.mp4" default_audio="1" audiocodec="AAC (Advanced Audio Coding)" duration="399" file_hash="7cd62556500ce1422ca176fe69d9df6f" aspect_ratio="1" channels="2" frequency="48000" video_max="0" progressive="1" type="3" frame_size="1920x1080" file_size="40607107">
   <metaproperty tool="" name="meta.attr.0.stream.creation_time">2015-09-05 10:22:12</metaproperty>
   <metaproperty tool="" name="meta.attr.0.stream.language">eng</metaproperty>
   <metaproperty tool="" name="meta.attr.1.stream.creation_time">2015-09-05 10:22:12</metaproperty>
   <metaproperty tool="" name="meta.attr.1.stream.language">eng</metaproperty>
   <metaproperty tool="" name="meta.attr.compatible_brands">isommp42</metaproperty>
   <metaproperty tool="" name="meta.attr.creation_time">2015-09-05 10:22:12</metaproperty>
   <metaproperty tool="" name="meta.attr.major_brand">mp42</metaproperty>
   <metaproperty tool="" name="meta.attr.minor_version">0</metaproperty>
  </kdenlive_producer>
  <kdenlive_producer audio_max="38" id="134" pix_fmt="yuv420p" default_video="0" fps="30.0079" analysisdata="" name="VID_20150905_122000.mp4" videocodecid="h264" colorspace="709" videocodec="H.264 / AVC / MPEG-4 AVC / MPEG-4 part 10" resource="/home/alex/Videos/EOTR 2015/VID_20150905_122000.mp4" default_audio="1" audiocodec="AAC (Advanced Audio Coding)" duration="390" file_hash="1861586eadd4352811dc25240d7eb79f" aspect_ratio="1" channels="2" frequency="48000" video_max="0" progressive="1" type="3" frame_size="1920x1080" file_size="39521970">
   <metaproperty tool="" name="meta.attr.0.stream.creation_time">2015-09-05 11:20:17</metaproperty>
   <metaproperty tool="" name="meta.attr.0.stream.language">eng</metaproperty>
   <metaproperty tool="" name="meta.attr.1.stream.creation_time">2015-09-05 11:20:17</metaproperty>
   <metaproperty tool="" name="meta.attr.1.stream.language">eng</metaproperty>
   <metaproperty tool="" name="meta.attr.compatible_brands">isommp42</metaproperty>
   <metaproperty tool="" name="meta.attr.creation_time">2015-09-05 11:20:17</metaproperty>
   <metaproperty tool="" name="meta.attr.major_brand">mp42</metaproperty>
   <metaproperty tool="" name="meta.attr.minor_version">0</metaproperty>
  </kdenlive_producer>
  <kdenlive_producer audio_max="59" id="135" pix_fmt="yuv420p" default_video="0" fps="30.0085" analysisdata="" name="VID_20150905_124435.mp4" videocodecid="h264" colorspace="709" videocodec="H.264 / AVC / MPEG-4 AVC / MPEG-4 part 10" resource="/home/alex/Videos/EOTR 2015/VID_20150905_124435.mp4" default_audio="1" audiocodec="AAC (Advanced Audio Coding)" duration="315" file_hash="4fa9decb404759fa1f7d05f8bf0ee46f" aspect_ratio="1" channels="2" frequency="48000" video_max="0" progressive="1" type="3" frame_size="1920x1080" file_size="32107053">
   <metaproperty tool="" name="meta.attr.0.stream.creation_time">2015-09-05 11:44:48</metaproperty>
   <metaproperty tool="" name="meta.attr.0.stream.language">eng</metaproperty>
   <metaproperty tool="" name="meta.attr.1.stream.creation_time">2015-09-05 11:44:48</metaproperty>
   <metaproperty tool="" name="meta.attr.1.stream.language">eng</metaproperty>
   <metaproperty tool="" name="meta.attr.compatible_brands">isommp42</metaproperty>
   <metaproperty tool="" name="meta.attr.creation_time">2015-09-05 11:44:48</metaproperty>
   <metaproperty tool="" name="meta.attr.major_brand">mp42</metaproperty>
   <metaproperty tool="" name="meta.attr.minor_version">0</metaproperty>
  </kdenlive_producer>
  <kdenlive_producer audio_max="62" id="136" pix_fmt="yuv420p" default_video="0" fps="30.0089" analysisdata="" name="VID_20150905_124631.mp4" videocodecid="h264" colorspace="709" videocodec="H.264 / AVC / MPEG-4 AVC / MPEG-4 part 10" resource="/home/alex/Videos/EOTR 2015/VID_20150905_124631.mp4" default_audio="1" audiocodec="AAC (Advanced Audio Coding)" duration="364" file_hash="7fa9b91a85e179d3132f765ddcf033a1" aspect_ratio="1" channels="2" frequency="48000" video_max="0" progressive="1" type="3" frame_size="1920x1080" file_size="37144856">
   <metaproperty tool="" name="meta.attr.0.stream.creation_time">2015-09-05 11:46:46</metaproperty>
   <metaproperty tool="" name="meta.attr.0.stream.language">eng</metaproperty>
   <metaproperty tool="" name="meta.attr.1.stream.creation_time">2015-09-05 11:46:46</metaproperty>
   <metaproperty tool="" name="meta.attr.1.stream.language">eng</metaproperty>
   <metaproperty tool="" name="meta.attr.compatible_brands">isommp42</metaproperty>
   <metaproperty tool="" name="meta.attr.creation_time">2015-09-05 11:46:46</metaproperty>
   <metaproperty tool="" name="meta.attr.major_brand">mp42</metaproperty>
   <metaproperty tool="" name="meta.attr.minor_version">0</metaproperty>
  </kdenlive_producer>
  <kdenlive_producer audio_max="43" id="137" pix_fmt="yuv420p" default_video="0" fps="30.0089" analysisdata="" name="VID_20150905_124705.mp4" videocodecid="h264" colorspace="709" videocodec="H.264 / AVC / MPEG-4 AVC / MPEG-4 part 10" resource="/home/alex/Videos/EOTR 2015/VID_20150905_124705.mp4" default_audio="1" audiocodec="AAC (Advanced Audio Coding)" duration="241" file_hash="61597056bdbef2dc77210782ef96e743" aspect_ratio="1" channels="2" frequency="48000" video_max="0" progressive="1" type="3" frame_size="1920x1080" file_size="24594290">
   <metaproperty tool="" name="meta.attr.0.stream.creation_time">2015-09-05 11:47:15</metaproperty>
   <metaproperty tool="" name="meta.attr.0.stream.language">eng</metaproperty>
   <metaproperty tool="" name="meta.attr.1.stream.creation_time">2015-09-05 11:47:15</metaproperty>
   <metaproperty tool="" name="meta.attr.1.stream.language">eng</metaproperty>
   <metaproperty tool="" name="meta.attr.compatible_brands">isommp42</metaproperty>
   <metaproperty tool="" name="meta.attr.creation_time">2015-09-05 11:47:15</metaproperty>
   <metaproperty tool="" name="meta.attr.major_brand">mp42</metaproperty>
   <metaproperty tool="" name="meta.attr.minor_version">0</metaproperty>
  </kdenlive_producer>
  <kdenlive_producer audio_max="43" id="138" pix_fmt="yuv420p" default_video="0" fps="30.0094" analysisdata="" name="VID_20150905_131649.mp4" videocodecid="h264" colorspace="709" videocodec="H.264 / AVC / MPEG-4 AVC / MPEG-4 part 10" resource="/home/alex/Videos/EOTR 2015/VID_20150905_131649.mp4" default_audio="1" audiocodec="AAC (Advanced Audio Coding)" duration="358" file_hash="1f46b9f7134714286fa16b899ba4d774" aspect_ratio="1" channels="2" frequency="48000" video_max="0" progressive="1" type="3" frame_size="1920x1080" file_size="36408046">
   <metaproperty tool="" name="meta.attr.0.stream.creation_time">2015-09-05 12:17:04</metaproperty>
   <metaproperty tool="" name="meta.attr.0.stream.language">eng</metaproperty>
   <metaproperty tool="" name="meta.attr.1.stream.creation_time">2015-09-05 12:17:04</metaproperty>
   <metaproperty tool="" name="meta.attr.1.stream.language">eng</metaproperty>
   <metaproperty tool="" name="meta.attr.compatible_brands">isommp42</metaproperty>
   <metaproperty tool="" name="meta.attr.creation_time">2015-09-05 12:17:04</metaproperty>
   <metaproperty tool="" name="meta.attr.major_brand">mp42</metaproperty>
   <metaproperty tool="" name="meta.attr.minor_version">0</metaproperty>
  </kdenlive_producer>
  <kdenlive_producer audio_max="21" id="139" pix_fmt="yuv420p" default_video="0" fps="30.0088" analysisdata="" name="VID_20150905_134356.mp4" videocodecid="h264" colorspace="709" videocodec="H.264 / AVC / MPEG-4 AVC / MPEG-4 part 10" resource="/home/alex/Videos/EOTR 2015/VID_20150905_134356.mp4" default_audio="1" audiocodec="AAC (Advanced Audio Coding)" duration="434" file_hash="0c989da3031259752897ea2dcc50de40" aspect_ratio="1" channels="2" frequency="48000" video_max="0" progressive="1" type="3" frame_size="1920x1080" file_size="44067341">
   <metaproperty tool="" name="meta.attr.0.stream.creation_time">2015-09-05 12:44:14</metaproperty>
   <metaproperty tool="" name="meta.attr.0.stream.language">eng</metaproperty>
   <metaproperty tool="" name="meta.attr.1.stream.creation_time">2015-09-05 12:44:14</metaproperty>
   <metaproperty tool="" name="meta.attr.1.stream.language">eng</metaproperty>
   <metaproperty tool="" name="meta.attr.compatible_brands">isommp42</metaproperty>
   <metaproperty tool="" name="meta.attr.creation_time">2015-09-05 12:44:14</metaproperty>
   <metaproperty tool="" name="meta.attr.major_brand">mp42</metaproperty>
   <metaproperty tool="" name="meta.attr.minor_version">0</metaproperty>
  </kdenlive_producer>
  <kdenlive_producer audio_max="31" id="140" pix_fmt="yuv420p" default_video="0" fps="30.0074" analysisdata="" name="VID_20150905_134908.mp4" videocodecid="h264" colorspace="709" videocodec="H.264 / AVC / MPEG-4 AVC / MPEG-4 part 10" resource="/home/alex/Videos/EOTR 2015/VID_20150905_134908.mp4" default_audio="1" audiocodec="AAC (Advanced Audio Coding)" duration="315" file_hash="18f11050177707cbee1608d55f87b515" aspect_ratio="1" channels="2" frequency="48000" video_max="0" progressive="1" type="3" frame_size="1920x1080" file_size="32181875">
   <metaproperty tool="" name="meta.attr.0.stream.creation_time">2015-09-05 12:49:21</metaproperty>
   <metaproperty tool="" name="meta.attr.0.stream.language">eng</metaproperty>
   <metaproperty tool="" name="meta.attr.1.stream.creation_time">2015-09-05 12:49:21</metaproperty>
   <metaproperty tool="" name="meta.attr.1.stream.language">eng</metaproperty>
   <metaproperty tool="" name="meta.attr.compatible_brands">isommp42</metaproperty>
   <metaproperty tool="" name="meta.attr.creation_time">2015-09-05 12:49:21</metaproperty>
   <metaproperty tool="" name="meta.attr.major_brand">mp42</metaproperty>
   <metaproperty tool="" name="meta.attr.minor_version">0</metaproperty>
  </kdenlive_producer>
  <kdenlive_producer audio_max="55" id="141" pix_fmt="yuv420p" default_video="0" fps="30.0083" analysisdata="" name="VID_20150905_162617.mp4" videocodecid="h264" colorspace="709" videocodec="H.264 / AVC / MPEG-4 AVC / MPEG-4 part 10" resource="/home/alex/Videos/EOTR 2015/VID_20150905_162617.mp4" default_audio="1" audiocodec="AAC (Advanced Audio Coding)" duration="491" file_hash="24317d23e3ac3dd7128b5ce838365e9e" aspect_ratio="1" channels="2" frequency="48000" video_max="0" progressive="1" type="3" frame_size="1920x1080" file_size="50101215">
   <metaproperty tool="" name="meta.attr.0.stream.creation_time">2015-09-05 15:26:37</metaproperty>
   <metaproperty tool="" name="meta.attr.0.stream.language">eng</metaproperty>
   <metaproperty tool="" name="meta.attr.1.stream.creation_time">2015-09-05 15:26:37</metaproperty>
   <metaproperty tool="" name="meta.attr.1.stream.language">eng</metaproperty>
   <metaproperty tool="" name="meta.attr.compatible_brands">isommp42</metaproperty>
   <metaproperty tool="" name="meta.attr.creation_time">2015-09-05 15:26:37</metaproperty>
   <metaproperty tool="" name="meta.attr.major_brand">mp42</metaproperty>
   <metaproperty tool="" name="meta.attr.minor_version">0</metaproperty>
  </kdenlive_producer>
  <kdenlive_producer audio_max="62" id="142" pix_fmt="yuv420p" default_video="0" fps="30.0085" analysisdata="" name="VID_20150905_162652.mp4" videocodecid="h264" colorspace="709" videocodec="H.264 / AVC / MPEG-4 AVC / MPEG-4 part 10" resource="/home/alex/Videos/EOTR 2015/VID_20150905_162652.mp4" default_audio="1" audiocodec="AAC (Advanced Audio Coding)" duration="1269" file_hash="ad3cbe44f915cb4c9422599076f49943" aspect_ratio="1" channels="2" frequency="48000" video_max="0" progressive="1" type="3" frame_size="1920x1080" file_size="128709400">
   <metaproperty tool="" name="meta.attr.0.stream.creation_time">2015-09-05 15:27:44</metaproperty>
   <metaproperty tool="" name="meta.attr.0.stream.language">eng</metaproperty>
   <metaproperty tool="" name="meta.attr.1.stream.creation_time">2015-09-05 15:27:44</metaproperty>
   <metaproperty tool="" name="meta.attr.1.stream.language">eng</metaproperty>
   <metaproperty tool="" name="meta.attr.compatible_brands">isommp42</metaproperty>
   <metaproperty tool="" name="meta.attr.creation_time">2015-09-05 15:27:44</metaproperty>
   <metaproperty tool="" name="meta.attr.major_brand">mp42</metaproperty>
   <metaproperty tool="" name="meta.attr.minor_version">0</metaproperty>
  </kdenlive_producer>
  <kdenlive_producer audio_max="62" id="143" pix_fmt="yuv420p" default_video="0" fps="30.0086" analysisdata="" name="VID_20150905_163610.mp4" videocodecid="h264" colorspace="709" videocodec="H.264 / AVC / MPEG-4 AVC / MPEG-4 part 10" resource="/home/alex/Videos/EOTR 2015/VID_20150905_163610.mp4" default_audio="1" audiocodec="AAC (Advanced Audio Coding)" duration="617" file_hash="d16203dd3a19c54344d3d0c9006b3525" aspect_ratio="1" channels="2" frequency="48000" video_max="0" progressive="1" type="3" frame_size="1920x1080" file_size="62774237">
   <metaproperty tool="" name="meta.attr.0.stream.creation_time">2015-09-05 15:36:36</metaproperty>
   <metaproperty tool="" name="meta.attr.0.stream.language">eng</metaproperty>
   <metaproperty tool="" name="meta.attr.1.stream.creation_time">2015-09-05 15:36:36</metaproperty>
   <metaproperty tool="" name="meta.attr.1.stream.language">eng</metaproperty>
   <metaproperty tool="" name="meta.attr.compatible_brands">isommp42</metaproperty>
   <metaproperty tool="" name="meta.attr.creation_time">2015-09-05 15:36:36</metaproperty>
   <metaproperty tool="" name="meta.attr.major_brand">mp42</metaproperty>
   <metaproperty tool="" name="meta.attr.minor_version">0</metaproperty>
  </kdenlive_producer>
  <kdenlive_producer audio_max="60" id="144" pix_fmt="yuv420p" default_video="0" fps="30.0096" analysisdata="" name="VID_20150905_163955.mp4" videocodecid="h264" colorspace="709" videocodec="H.264 / AVC / MPEG-4 AVC / MPEG-4 part 10" resource="/home/alex/Videos/EOTR 2015/VID_20150905_163955.mp4" default_audio="1" audiocodec="AAC (Advanced Audio Coding)" duration="304" file_hash="941c2cd8c7b5b4724fc88c8d7f64ae86" aspect_ratio="1" channels="2" frequency="48000" video_max="0" progressive="1" type="3" frame_size="1920x1080" file_size="31479578">
   <metaproperty tool="" name="meta.attr.0.stream.creation_time">2015-09-05 15:40:08</metaproperty>
   <metaproperty tool="" name="meta.attr.0.stream.language">eng</metaproperty>
   <metaproperty tool="" name="meta.attr.1.stream.creation_time">2015-09-05 15:40:08</metaproperty>
   <metaproperty tool="" name="meta.attr.1.stream.language">eng</metaproperty>
   <metaproperty tool="" name="meta.attr.compatible_brands">isommp42</metaproperty>
   <metaproperty tool="" name="meta.attr.creation_time">2015-09-05 15:40:08</metaproperty>
   <metaproperty tool="" name="meta.attr.major_brand">mp42</metaproperty>
   <metaproperty tool="" name="meta.attr.minor_version">0</metaproperty>
  </kdenlive_producer>
  <kdenlive_producer audio_max="46" id="145" pix_fmt="yuv420p" default_video="0" fps="30.0084" analysisdata="" name="VID_20150905_171427.mp4" videocodecid="h264" colorspace="709" videocodec="H.264 / AVC / MPEG-4 AVC / MPEG-4 part 10" resource="/home/alex/Videos/EOTR 2015/VID_20150905_171427.mp4" default_audio="1" audiocodec="AAC (Advanced Audio Coding)" duration="498" file_hash="b00f13860e7d169d40034eb5dc54cdb4" aspect_ratio="1" channels="2" frequency="48000" video_max="0" progressive="1" type="3" frame_size="1920x1080" file_size="50496973">
   <metaproperty tool="" name="meta.attr.0.stream.creation_time">2015-09-05 16:14:48</metaproperty>
   <metaproperty tool="" name="meta.attr.0.stream.language">eng</metaproperty>
   <metaproperty tool="" name="meta.attr.1.stream.creation_time">2015-09-05 16:14:48</metaproperty>
   <metaproperty tool="" name="meta.attr.1.stream.language">eng</metaproperty>
   <metaproperty tool="" name="meta.attr.compatible_brands">isommp42</metaproperty>
   <metaproperty tool="" name="meta.attr.creation_time">2015-09-05 16:14:48</metaproperty>
   <metaproperty tool="" name="meta.attr.major_brand">mp42</metaproperty>
   <metaproperty tool="" name="meta.attr.minor_version">0</metaproperty>
  </kdenlive_producer>
  <kdenlive_producer audio_max="40" id="146" pix_fmt="yuv420p" default_video="0" fps="28.5495" analysisdata="" name="VID_20150905_184737.mp4" videocodecid="h264" colorspace="709" videocodec="H.264 / AVC / MPEG-4 AVC / MPEG-4 part 10" resource="/home/alex/Videos/EOTR 2015/VID_20150905_184737.mp4" default_audio="1" audiocodec="AAC (Advanced Audio Coding)" duration="909" file_hash="771d20e0d276db0427261a148752db95" aspect_ratio="1" channels="2" frequency="48000" video_max="0" progressive="1" type="3" frame_size="1920x1080" file_size="92200977">
   <metaproperty tool="" name="meta.attr.0.stream.creation_time">2015-09-05 17:48:14</metaproperty>
   <metaproperty tool="" name="meta.attr.0.stream.language">eng</metaproperty>
   <metaproperty tool="" name="meta.attr.1.stream.creation_time">2015-09-05 17:48:14</metaproperty>
   <metaproperty tool="" name="meta.attr.1.stream.language">eng</metaproperty>
   <metaproperty tool="" name="meta.attr.compatible_brands">isommp42</metaproperty>
   <metaproperty tool="" name="meta.attr.creation_time">2015-09-05 17:48:14</metaproperty>
   <metaproperty tool="" name="meta.attr.major_brand">mp42</metaproperty>
   <metaproperty tool="" name="meta.attr.minor_version">0</metaproperty>
  </kdenlive_producer>
  <kdenlive_producer audio_max="44" id="147" pix_fmt="yuv420p" default_video="0" fps="30.0084" analysisdata="" name="VID_20150905_184822.mp4" videocodecid="h264" colorspace="709" videocodec="H.264 / AVC / MPEG-4 AVC / MPEG-4 part 10" resource="/home/alex/Videos/EOTR 2015/VID_20150905_184822.mp4" default_audio="1" audiocodec="AAC (Advanced Audio Coding)" duration="444" file_hash="d2e93230813e871a65e9727f98a7b77a" aspect_ratio="1" channels="2" frequency="48000" video_max="0" progressive="1" type="3" frame_size="1920x1080" file_size="45093643">
   <metaproperty tool="" name="meta.attr.0.stream.creation_time">2015-09-05 17:48:40</metaproperty>
   <metaproperty tool="" name="meta.attr.0.stream.language">eng</metaproperty>
   <metaproperty tool="" name="meta.attr.1.stream.creation_time">2015-09-05 17:48:40</metaproperty>
   <metaproperty tool="" name="meta.attr.1.stream.language">eng</metaproperty>
   <metaproperty tool="" name="meta.attr.compatible_brands">isommp42</metaproperty>
   <metaproperty tool="" name="meta.attr.creation_time">2015-09-05 17:48:40</metaproperty>
   <metaproperty tool="" name="meta.attr.major_brand">mp42</metaproperty>
   <metaproperty tool="" name="meta.attr.minor_version">0</metaproperty>
  </kdenlive_producer>
  <kdenlive_producer audio_max="28" id="148" pix_fmt="yuv420p" default_video="0" fps="30.0077" analysisdata="" name="VID_20150905_191816.mp4" videocodecid="h264" colorspace="709" videocodec="H.264 / AVC / MPEG-4 AVC / MPEG-4 part 10" resource="/home/alex/Videos/EOTR 2015/VID_20150905_191816.mp4" default_audio="1" audiocodec="AAC (Advanced Audio Coding)" duration="166" file_hash="f5f86e7c77b0e2310e57f7454b57de94" aspect_ratio="1" channels="2" frequency="48000" video_max="0" progressive="1" type="3" frame_size="1920x1080" file_size="17025989">
   <metaproperty tool="" name="meta.attr.0.stream.creation_time">2015-09-05 18:18:23</metaproperty>
   <metaproperty tool="" name="meta.attr.0.stream.language">eng</metaproperty>
   <metaproperty tool="" name="meta.attr.1.stream.creation_time">2015-09-05 18:18:23</metaproperty>
   <metaproperty tool="" name="meta.attr.1.stream.language">eng</metaproperty>
   <metaproperty tool="" name="meta.attr.compatible_brands">isommp42</metaproperty>
   <metaproperty tool="" name="meta.attr.creation_time">2015-09-05 18:18:23</metaproperty>
   <metaproperty tool="" name="meta.attr.major_brand">mp42</metaproperty>
   <metaproperty tool="" name="meta.attr.minor_version">0</metaproperty>
  </kdenlive_producer>
  <kdenlive_producer audio_max="59" id="149" pix_fmt="yuv420p" default_video="0" fps="29.5713" analysisdata="" name="VID_20150905_194051.mp4" videocodecid="h264" thumbnail="100" colorspace="709" videocodec="H.264 / AVC / MPEG-4 AVC / MPEG-4 part 10" resource="/home/alex/Videos/EOTR 2015/VID_20150905_194051.mp4" default_audio="1" audiocodec="AAC (Advanced Audio Coding)" duration="529" file_hash="e53daa2a910b928095f3c23d1e9cb089" aspect_ratio="1" channels="2" frequency="48000" video_max="0" progressive="1" type="3" frame_size="1920x1080" file_size="53224517">
   <metaproperty tool="" name="meta.attr.0.stream.creation_time">2015-09-05 18:41:13</metaproperty>
   <metaproperty tool="" name="meta.attr.0.stream.language">eng</metaproperty>
   <metaproperty tool="" name="meta.attr.1.stream.creation_time">2015-09-05 18:41:13</metaproperty>
   <metaproperty tool="" name="meta.attr.1.stream.language">eng</metaproperty>
   <metaproperty tool="" name="meta.attr.compatible_brands">isommp42</metaproperty>
   <metaproperty tool="" name="meta.attr.creation_time">2015-09-05 18:41:13</metaproperty>
   <metaproperty tool="" name="meta.attr.major_brand">mp42</metaproperty>
   <metaproperty tool="" name="meta.attr.minor_version">0</metaproperty>
  </kdenlive_producer>
  <kdenlive_producer audio_max="47" id="150" pix_fmt="yuv420p" default_video="0" fps="30.009" analysisdata="" name="VID_20150905_195248.mp4" videocodecid="h264" colorspace="709" videocodec="H.264 / AVC / MPEG-4 AVC / MPEG-4 part 10" resource="/home/alex/Videos/EOTR 2015/VID_20150905_195248.mp4" default_audio="1" audiocodec="AAC (Advanced Audio Coding)" duration="460" file_hash="f4a373ef6a05ecebee0dae8911396fe9" aspect_ratio="1" channels="2" frequency="48000" video_max="0" progressive="1" type="3" frame_size="1920x1080" file_size="46799894">
   <metaproperty tool="" name="meta.attr.0.stream.creation_time">2015-09-05 18:53:07</metaproperty>
   <metaproperty tool="" name="meta.attr.0.stream.language">eng</metaproperty>
   <metaproperty tool="" name="meta.attr.1.stream.creation_time">2015-09-05 18:53:07</metaproperty>
   <metaproperty tool="" name="meta.attr.1.stream.language">eng</metaproperty>
   <metaproperty tool="" name="meta.attr.compatible_brands">isommp42</metaproperty>
   <metaproperty tool="" name="meta.attr.creation_time">2015-09-05 18:53:07</metaproperty>
   <metaproperty tool="" name="meta.attr.major_brand">mp42</metaproperty>
   <metaproperty tool="" name="meta.attr.minor_version">0</metaproperty>
  </kdenlive_producer>
  <kdenlive_producer audio_max="60" id="151" pix_fmt="yuv420p" default_video="0" fps="29.1822" analysisdata="" name="VID_20150905_201145.mp4" videocodecid="h264" colorspace="709" videocodec="H.264 / AVC / MPEG-4 AVC / MPEG-4 part 10" resource="/home/alex/Videos/EOTR 2015/VID_20150905_201145.mp4" default_audio="1" audiocodec="AAC (Advanced Audio Coding)" duration="286" file_hash="5965bbf1ae6e54418279ce49fb8cd636" aspect_ratio="1" channels="2" frequency="48000" video_max="0" progressive="1" type="3" frame_size="1920x1080" file_size="28737342">
   <metaproperty tool="" name="meta.attr.0.stream.creation_time">2015-09-05 19:11:57</metaproperty>
   <metaproperty tool="" name="meta.attr.0.stream.language">eng</metaproperty>
   <metaproperty tool="" name="meta.attr.1.stream.creation_time">2015-09-05 19:11:57</metaproperty>
   <metaproperty tool="" name="meta.attr.1.stream.language">eng</metaproperty>
   <metaproperty tool="" name="meta.attr.compatible_brands">isommp42</metaproperty>
   <metaproperty tool="" name="meta.attr.creation_time">2015-09-05 19:11:57</metaproperty>
   <metaproperty tool="" name="meta.attr.major_brand">mp42</metaproperty>
   <metaproperty tool="" name="meta.attr.minor_version">0</metaproperty>
  </kdenlive_producer>
  <kdenlive_producer audio_max="57" id="152" pix_fmt="yuv420p" default_video="0" fps="29.4465" analysisdata="" name="VID_20150905_202147.mp4" videocodecid="h264" colorspace="709" videocodec="H.264 / AVC / MPEG-4 AVC / MPEG-4 part 10" resource="/home/alex/Videos/EOTR 2015/VID_20150905_202147.mp4" default_audio="1" audiocodec="AAC (Advanced Audio Coding)" duration="403" file_hash="c80f029556e8bcb34687e75e31c14903" aspect_ratio="1" channels="2" frequency="48000" video_max="0" progressive="1" type="3" frame_size="1920x1080" file_size="40374399">
   <metaproperty tool="" name="meta.attr.0.stream.creation_time">2015-09-05 19:22:04</metaproperty>
   <metaproperty tool="" name="meta.attr.0.stream.language">eng</metaproperty>
   <metaproperty tool="" name="meta.attr.1.stream.creation_time">2015-09-05 19:22:04</metaproperty>
   <metaproperty tool="" name="meta.attr.1.stream.language">eng</metaproperty>
   <metaproperty tool="" name="meta.attr.compatible_brands">isommp42</metaproperty>
   <metaproperty tool="" name="meta.attr.creation_time">2015-09-05 19:22:04</metaproperty>
   <metaproperty tool="" name="meta.attr.major_brand">mp42</metaproperty>
   <metaproperty tool="" name="meta.attr.minor_version">0</metaproperty>
  </kdenlive_producer>
  <kdenlive_producer audio_max="31" id="153" pix_fmt="yuv420p" default_video="0" fps="29.3466" analysisdata="" name="VID_20150905_202321.mp4" videocodecid="h264" colorspace="709" videocodec="H.264 / AVC / MPEG-4 AVC / MPEG-4 part 10" resource="/home/alex/Videos/EOTR 2015/VID_20150905_202321.mp4" default_audio="1" audiocodec="AAC (Advanced Audio Coding)" duration="351" file_hash="d9ce8f6d6b17a95af0635109e786d790" aspect_ratio="1" channels="2" frequency="48000" video_max="0" progressive="1" type="3" frame_size="1920x1080" file_size="35319190">
   <metaproperty tool="" name="meta.attr.0.stream.creation_time">2015-09-05 19:23:36</metaproperty>
   <metaproperty tool="" name="meta.attr.0.stream.language">eng</metaproperty>
   <metaproperty tool="" name="meta.attr.1.stream.creation_time">2015-09-05 19:23:36</metaproperty>
   <metaproperty tool="" name="meta.attr.1.stream.language">eng</metaproperty>
   <metaproperty tool="" name="meta.attr.compatible_brands">isommp42</metaproperty>
   <metaproperty tool="" name="meta.attr.creation_time">2015-09-05 19:23:36</metaproperty>
   <metaproperty tool="" name="meta.attr.major_brand">mp42</metaproperty>
   <metaproperty tool="" name="meta.attr.minor_version">0</metaproperty>
  </kdenlive_producer>
  <kdenlive_producer audio_max="62" id="154" pix_fmt="yuv420p" default_video="0" fps="29.6849" analysisdata="" name="VID_20150905_203739.mp4" videocodecid="h264" thumbnail="100" colorspace="709" videocodec="H.264 / AVC / MPEG-4 AVC / MPEG-4 part 10" resource="/home/alex/Videos/EOTR 2015/VID_20150905_203739.mp4" default_audio="1" audiocodec="AAC (Advanced Audio Coding)" duration="953" file_hash="ac4414dcb2beaeda874fbdf762b40da9" aspect_ratio="1" channels="2" frequency="48000" video_max="0" progressive="1" type="3" frame_size="1920x1080" file_size="96153993">
   <metaproperty tool="" name="meta.attr.0.stream.creation_time">2015-09-05 19:38:18</metaproperty>
   <metaproperty tool="" name="meta.attr.0.stream.language">eng</metaproperty>
   <metaproperty tool="" name="meta.attr.1.stream.creation_time">2015-09-05 19:38:18</metaproperty>
   <metaproperty tool="" name="meta.attr.1.stream.language">eng</metaproperty>
   <metaproperty tool="" name="meta.attr.compatible_brands">isommp42</metaproperty>
   <metaproperty tool="" name="meta.attr.creation_time">2015-09-05 19:38:18</metaproperty>
   <metaproperty tool="" name="meta.attr.major_brand">mp42</metaproperty>
   <metaproperty tool="" name="meta.attr.minor_version">0</metaproperty>
  </kdenlive_producer>
  <kdenlive_producer audio_max="46" id="155" pix_fmt="yuv420p" default_video="0" fps="28.8812" analysisdata="" name="VID_20150905_210111.mp4" videocodecid="h264" colorspace="709" videocodec="H.264 / AVC / MPEG-4 AVC / MPEG-4 part 10" resource="/home/alex/Videos/EOTR 2015/VID_20150905_210111.mp4" default_audio="1" audiocodec="AAC (Advanced Audio Coding)" duration="206" file_hash="73a1fa5fbb1f196b55d662f418d78766" aspect_ratio="1" channels="2" frequency="48000" video_max="0" progressive="1" type="3" frame_size="1920x1080" file_size="20644062">
   <metaproperty tool="" name="meta.attr.0.stream.creation_time">2015-09-05 20:01:20</metaproperty>
   <metaproperty tool="" name="meta.attr.0.stream.language">eng</metaproperty>
   <metaproperty tool="" name="meta.attr.1.stream.creation_time">2015-09-05 20:01:20</metaproperty>
   <metaproperty tool="" name="meta.attr.1.stream.language">eng</metaproperty>
   <metaproperty tool="" name="meta.attr.compatible_brands">isommp42</metaproperty>
   <metaproperty tool="" name="meta.attr.creation_time">2015-09-05 20:01:20</metaproperty>
   <metaproperty tool="" name="meta.attr.major_brand">mp42</metaproperty>
   <metaproperty tool="" name="meta.attr.minor_version">0</metaproperty>
  </kdenlive_producer>
  <kdenlive_producer audio_max="25" id="156" pix_fmt="yuv420p" default_video="0" fps="29.5247" analysisdata="" name="VID_20150905_210144.mp4" videocodecid="h264" colorspace="709" videocodec="H.264 / AVC / MPEG-4 AVC / MPEG-4 part 10" resource="/home/alex/Videos/EOTR 2015/VID_20150905_210144.mp4" default_audio="1" audiocodec="AAC (Advanced Audio Coding)" duration="497" file_hash="62c7adb43ad194ba934478fe40da30c6" aspect_ratio="1" channels="2" frequency="48000" video_max="0" progressive="1" type="3" frame_size="1920x1080" file_size="50043490">
   <metaproperty tool="" name="meta.attr.0.stream.creation_time">2015-09-05 20:02:05</metaproperty>
   <metaproperty tool="" name="meta.attr.0.stream.language">eng</metaproperty>
   <metaproperty tool="" name="meta.attr.1.stream.creation_time">2015-09-05 20:02:05</metaproperty>
   <metaproperty tool="" name="meta.attr.1.stream.language">eng</metaproperty>
   <metaproperty tool="" name="meta.attr.compatible_brands">isommp42</metaproperty>
   <metaproperty tool="" name="meta.attr.creation_time">2015-09-05 20:02:05</metaproperty>
   <metaproperty tool="" name="meta.attr.major_brand">mp42</metaproperty>
   <metaproperty tool="" name="meta.attr.minor_version">0</metaproperty>
  </kdenlive_producer>
  <kdenlive_producer audio_max="32" id="157" pix_fmt="yuv420p" default_video="0" fps="29.5258" analysisdata="" name="VID_20150905_210355.mp4" videocodecid="h264" colorspace="709" videocodec="H.264 / AVC / MPEG-4 AVC / MPEG-4 part 10" resource="/home/alex/Videos/EOTR 2015/VID_20150905_210355.mp4" default_audio="1" audiocodec="AAC (Advanced Audio Coding)" duration="483" file_hash="e184a66f8700fe4f6d28efd05c90f7bb" aspect_ratio="1" channels="2" frequency="48000" video_max="0" progressive="1" type="3" frame_size="1920x1080" file_size="48562274">
   <metaproperty tool="" name="meta.attr.0.stream.creation_time">2015-09-05 20:04:15</metaproperty>
   <metaproperty tool="" name="meta.attr.0.stream.language">eng</metaproperty>
   <metaproperty tool="" name="meta.attr.1.stream.creation_time">2015-09-05 20:04:15</metaproperty>
   <metaproperty tool="" name="meta.attr.1.stream.language">eng</metaproperty>
   <metaproperty tool="" name="meta.attr.compatible_brands">isommp42</metaproperty>
   <metaproperty tool="" name="meta.attr.creation_time">2015-09-05 20:04:15</metaproperty>
   <metaproperty tool="" name="meta.attr.major_brand">mp42</metaproperty>
   <metaproperty tool="" name="meta.attr.minor_version">0</metaproperty>
  </kdenlive_producer>
  <kdenlive_producer audio_max="23" id="158" pix_fmt="yuv420p" default_video="0" fps="28.8199" analysisdata="" name="VID_20150905_210535.mp4" videocodecid="h264" colorspace="709" videocodec="H.264 / AVC / MPEG-4 AVC / MPEG-4 part 10" resource="/home/alex/Videos/EOTR 2015/VID_20150905_210535.mp4" default_audio="1" audiocodec="AAC (Advanced Audio Coding)" duration="388" file_hash="f5780566cb334cb7f7d5c76e00267600" aspect_ratio="1" channels="2" frequency="48000" video_max="0" progressive="1" type="3" frame_size="1920x1080" file_size="38842687">
   <metaproperty tool="" name="meta.attr.0.stream.creation_time">2015-09-05 20:05:52</metaproperty>
   <metaproperty tool="" name="meta.attr.0.stream.language">eng</metaproperty>
   <metaproperty tool="" name="meta.attr.1.stream.creation_time">2015-09-05 20:05:52</metaproperty>
   <metaproperty tool="" name="meta.attr.1.stream.language">eng</metaproperty>
   <metaproperty tool="" name="meta.attr.compatible_brands">isommp42</metaproperty>
   <metaproperty tool="" name="meta.attr.creation_time">2015-09-05 20:05:52</metaproperty>
   <metaproperty tool="" name="meta.attr.major_brand">mp42</metaproperty>
   <metaproperty tool="" name="meta.attr.minor_version">0</metaproperty>
  </kdenlive_producer>
  <kdenlive_producer audio_max="62" id="159" pix_fmt="yuv420p" default_video="0" fps="29.9456" analysisdata="" name="VID_20150905_211351.mp4" videocodecid="h264" colorspace="709" videocodec="H.264 / AVC / MPEG-4 AVC / MPEG-4 part 10" resource="/home/alex/Videos/EOTR 2015/VID_20150905_211351.mp4" default_audio="1" audiocodec="AAC (Advanced Audio Coding)" duration="1417" file_hash="881220840e8653f6d10a71cc1017cb85" aspect_ratio="1" channels="2" frequency="48000" video_max="0" progressive="1" type="3" frame_size="1920x1080" file_size="143654500">
   <metaproperty tool="" name="meta.attr.0.stream.creation_time">2015-09-05 20:14:48</metaproperty>
   <metaproperty tool="" name="meta.attr.0.stream.language">eng</metaproperty>
   <metaproperty tool="" name="meta.attr.1.stream.creation_time">2015-09-05 20:14:48</metaproperty>
   <metaproperty tool="" name="meta.attr.1.stream.language">eng</metaproperty>
   <metaproperty tool="" name="meta.attr.compatible_brands">isommp42</metaproperty>
   <metaproperty tool="" name="meta.attr.creation_time">2015-09-05 20:14:48</metaproperty>
   <metaproperty tool="" name="meta.attr.major_brand">mp42</metaproperty>
   <metaproperty tool="" name="meta.attr.minor_version">0</metaproperty>
  </kdenlive_producer>
  <kdenlive_producer audio_max="60" id="160" pix_fmt="yuv420p" default_video="0" fps="29.9425" analysisdata="" name="VID_20150905_211832.mp4" videocodecid="h264" colorspace="709" videocodec="H.264 / AVC / MPEG-4 AVC / MPEG-4 part 10" resource="/home/alex/Videos/EOTR 2015/VID_20150905_211832.mp4" default_audio="1" audiocodec="AAC (Advanced Audio Coding)" duration="360" file_hash="b9452e0b16c427e490b3cf12de6aaff4" aspect_ratio="1" channels="2" frequency="48000" video_max="0" progressive="1" type="3" frame_size="1920x1080" file_size="36611483">
   <metaproperty tool="" name="meta.attr.0.stream.creation_time">2015-09-05 20:18:48</metaproperty>
   <metaproperty tool="" name="meta.attr.0.stream.language">eng</metaproperty>
   <metaproperty tool="" name="meta.attr.1.stream.creation_time">2015-09-05 20:18:48</metaproperty>
   <metaproperty tool="" name="meta.attr.1.stream.language">eng</metaproperty>
   <metaproperty tool="" name="meta.attr.compatible_brands">isommp42</metaproperty>
   <metaproperty tool="" name="meta.attr.creation_time">2015-09-05 20:18:48</metaproperty>
   <metaproperty tool="" name="meta.attr.major_brand">mp42</metaproperty>
   <metaproperty tool="" name="meta.attr.minor_version">0</metaproperty>
  </kdenlive_producer>
  <kdenlive_producer audio_max="61" id="161" pix_fmt="yuv420p" default_video="0" fps="29.5292" analysisdata="" name="VID_20150905_220809.mp4" videocodecid="h264" colorspace="709" videocodec="H.264 / AVC / MPEG-4 AVC / MPEG-4 part 10" resource="/home/alex/Videos/EOTR 2015/VID_20150905_220809.mp4" default_audio="1" audiocodec="AAC (Advanced Audio Coding)" duration="443" file_hash="64a61f0947baa0dc6cad028521c350e7" aspect_ratio="1" channels="2" frequency="48000" video_max="0" progressive="1" type="3" frame_size="1920x1080" file_size="44657153">
   <metaproperty tool="" name="meta.attr.0.stream.creation_time">2015-09-05 21:08:28</metaproperty>
   <metaproperty tool="" name="meta.attr.0.stream.language">eng</metaproperty>
   <metaproperty tool="" name="meta.attr.1.stream.creation_time">2015-09-05 21:08:28</metaproperty>
   <metaproperty tool="" name="meta.attr.1.stream.language">eng</metaproperty>
   <metaproperty tool="" name="meta.attr.compatible_brands">isommp42</metaproperty>
   <metaproperty tool="" name="meta.attr.creation_time">2015-09-05 21:08:28</metaproperty>
   <metaproperty tool="" name="meta.attr.major_brand">mp42</metaproperty>
   <metaproperty tool="" name="meta.attr.minor_version">0</metaproperty>
  </kdenlive_producer>
  <kdenlive_producer audio_max="56" id="162" pix_fmt="yuv420p" default_video="0" fps="29.5692" analysisdata="" name="VID_20150905_221651.mp4" videocodecid="h264" thumbnail="100" colorspace="709" videocodec="H.264 / AVC / MPEG-4 AVC / MPEG-4 part 10" resource="/home/alex/Videos/EOTR 2015/VID_20150905_221651.mp4" default_audio="1" audiocodec="AAC (Advanced Audio Coding)" duration="485" file_hash="5f641eecbbeeb96a5dcc763fe6620011" aspect_ratio="1" channels="2" frequency="48000" video_max="0" progressive="1" type="3" frame_size="1920x1080" file_size="48918233">
   <metaproperty tool="" name="meta.attr.0.stream.creation_time">2015-09-05 21:17:11</metaproperty>
   <metaproperty tool="" name="meta.attr.0.stream.language">eng</metaproperty>
   <metaproperty tool="" name="meta.attr.1.stream.creation_time">2015-09-05 21:17:11</metaproperty>
   <metaproperty tool="" name="meta.attr.1.stream.language">eng</metaproperty>
   <metaproperty tool="" name="meta.attr.compatible_brands">isommp42</metaproperty>
   <metaproperty tool="" name="meta.attr.creation_time">2015-09-05 21:17:11</metaproperty>
   <metaproperty tool="" name="meta.attr.major_brand">mp42</metaproperty>
   <metaproperty tool="" name="meta.attr.minor_version">0</metaproperty>
  </kdenlive_producer>
  <kdenlive_producer audio_max="58" id="163" pix_fmt="yuv420p" default_video="0" fps="29.0753" analysisdata="" name="VID_20150905_233635.mp4" videocodecid="h264" thumbnail="100" colorspace="709" videocodec="H.264 / AVC / MPEG-4 AVC / MPEG-4 part 10" resource="/home/alex/Videos/EOTR 2015/VID_20150905_233635.mp4" default_audio="1" audiocodec="AAC (Advanced Audio Coding)" duration="265" file_hash="64dd46c31d9d56713a5873f9fad032d0" aspect_ratio="1" channels="2" frequency="48000" video_max="0" progressive="1" type="3" frame_size="1920x1080" file_size="26299111">
   <metaproperty tool="" name="meta.attr.0.stream.creation_time">2015-09-05 22:36:46</metaproperty>
   <metaproperty tool="" name="meta.attr.0.stream.language">eng</metaproperty>
   <metaproperty tool="" name="meta.attr.1.stream.creation_time">2015-09-05 22:36:46</metaproperty>
   <metaproperty tool="" name="meta.attr.1.stream.language">eng</metaproperty>
   <metaproperty tool="" name="meta.attr.compatible_brands">isommp42</metaproperty>
   <metaproperty tool="" name="meta.attr.creation_time">2015-09-05 22:36:46</metaproperty>
   <metaproperty tool="" name="meta.attr.major_brand">mp42</metaproperty>
   <metaproperty tool="" name="meta.attr.minor_version">0</metaproperty>
  </kdenlive_producer>
  <kdenlive_producer audio_max="58" id="164" pix_fmt="yuv420p" default_video="0" fps="29.5024" analysisdata="" name="VID_20150905_235317.mp4" videocodecid="h264" thumbnail="100" colorspace="709" videocodec="H.264 / AVC / MPEG-4 AVC / MPEG-4 part 10" resource="/home/alex/Videos/EOTR 2015/VID_20150905_235317.mp4" default_audio="1" audiocodec="AAC (Advanced Audio Coding)" duration="453" file_hash="6433c8c604e1512adf91a11c241b73b6" aspect_ratio="1" channels="2" frequency="48000" video_max="0" progressive="1" type="3" frame_size="1920x1080" file_size="45551825">
   <metaproperty tool="" name="meta.attr.0.stream.creation_time">2015-09-05 22:53:36</metaproperty>
   <metaproperty tool="" name="meta.attr.0.stream.language">eng</metaproperty>
   <metaproperty tool="" name="meta.attr.1.stream.creation_time">2015-09-05 22:53:36</metaproperty>
   <metaproperty tool="" name="meta.attr.1.stream.language">eng</metaproperty>
   <metaproperty tool="" name="meta.attr.compatible_brands">isommp42</metaproperty>
   <metaproperty tool="" name="meta.attr.creation_time">2015-09-05 22:53:36</metaproperty>
   <metaproperty tool="" name="meta.attr.major_brand">mp42</metaproperty>
   <metaproperty tool="" name="meta.attr.minor_version">0</metaproperty>
  </kdenlive_producer>
  <kdenlive_producer audio_max="63" id="165" pix_fmt="yuv420p" default_video="0" fps="29.8321" analysisdata="" name="VID_20150906_002427.mp4" videocodecid="h264" colorspace="709" videocodec="H.264 / AVC / MPEG-4 AVC / MPEG-4 part 10" resource="/home/alex/Videos/EOTR 2015/VID_20150906_002427.mp4" default_audio="1" audiocodec="AAC (Advanced Audio Coding)" duration="1224" file_hash="e669915a067ea701bd65998c53faa020" aspect_ratio="1" channels="2" frequency="48000" video_max="0" progressive="1" type="3" frame_size="1920x1080" file_size="123532984">
   <metaproperty tool="" name="meta.attr.0.stream.creation_time">2015-09-05 23:25:17</metaproperty>
   <metaproperty tool="" name="meta.attr.0.stream.language">eng</metaproperty>
   <metaproperty tool="" name="meta.attr.1.stream.creation_time">2015-09-05 23:25:17</metaproperty>
   <metaproperty tool="" name="meta.attr.1.stream.language">eng</metaproperty>
   <metaproperty tool="" name="meta.attr.compatible_brands">isommp42</metaproperty>
   <metaproperty tool="" name="meta.attr.creation_time">2015-09-05 23:25:17</metaproperty>
   <metaproperty tool="" name="meta.attr.major_brand">mp42</metaproperty>
   <metaproperty tool="" name="meta.attr.minor_version">0</metaproperty>
  </kdenlive_producer>
  <kdenlive_producer audio_max="35" id="166" pix_fmt="yuv420p" default_video="0" fps="29.5828" analysisdata="" name="VID_20150906_004845.mp4" videocodecid="h264" thumbnail="100" colorspace="709" videocodec="H.264 / AVC / MPEG-4 AVC / MPEG-4 part 10" resource="/home/alex/Videos/EOTR 2015/VID_20150906_004845.mp4" default_audio="1" audiocodec="AAC (Advanced Audio Coding)" duration="526" file_hash="1121ac389593166fc8222262e54f8ae8" aspect_ratio="1" channels="2" frequency="48000" video_max="0" progressive="1" type="3" frame_size="1920x1080" file_size="52800366">
   <metaproperty tool="" name="meta.attr.0.stream.creation_time">2015-09-05 23:49:07</metaproperty>
   <metaproperty tool="" name="meta.attr.0.stream.language">eng</metaproperty>
   <metaproperty tool="" name="meta.attr.1.stream.creation_time">2015-09-05 23:49:07</metaproperty>
   <metaproperty tool="" name="meta.attr.1.stream.language">eng</metaproperty>
   <metaproperty tool="" name="meta.attr.compatible_brands">isommp42</metaproperty>
   <metaproperty tool="" name="meta.attr.creation_time">2015-09-05 23:49:07</metaproperty>
   <metaproperty tool="" name="meta.attr.major_brand">mp42</metaproperty>
   <metaproperty tool="" name="meta.attr.minor_version">0</metaproperty>
  </kdenlive_producer>
  <kdenlive_producer audio_max="16" id="167" pix_fmt="yuv420p" default_video="0" fps="30.0082" analysisdata="" name="VID_20150906_115018.mp4" videocodecid="h264" colorspace="709" videocodec="H.264 / AVC / MPEG-4 AVC / MPEG-4 part 10" resource="/home/alex/Videos/EOTR 2015/VID_20150906_115018.mp4" default_audio="1" audiocodec="AAC (Advanced Audio Coding)" duration="193" file_hash="fbde7f9a7532a71bcabe7e2dfbbf161e" aspect_ratio="1" channels="2" frequency="48000" video_max="0" progressive="1" type="3" frame_size="1920x1080" file_size="19666825">
   <metaproperty tool="" name="meta.attr.0.stream.creation_time">2015-09-06 10:50:27</metaproperty>
   <metaproperty tool="" name="meta.attr.0.stream.language">eng</metaproperty>
   <metaproperty tool="" name="meta.attr.1.stream.creation_time">2015-09-06 10:50:27</metaproperty>
   <metaproperty tool="" name="meta.attr.1.stream.language">eng</metaproperty>
   <metaproperty tool="" name="meta.attr.compatible_brands">isommp42</metaproperty>
   <metaproperty tool="" name="meta.attr.creation_time">2015-09-06 10:50:27</metaproperty>
   <metaproperty tool="" name="meta.attr.major_brand">mp42</metaproperty>
   <metaproperty tool="" name="meta.attr.minor_version">0</metaproperty>
  </kdenlive_producer>
  <kdenlive_producer audio_max="12" id="168" pix_fmt="yuv420p" default_video="0" fps="30.0078" analysisdata="" name="VID_20150906_115029.mp4" videocodecid="h264" colorspace="709" videocodec="H.264 / AVC / MPEG-4 AVC / MPEG-4 part 10" resource="/home/alex/Videos/EOTR 2015/VID_20150906_115029.mp4" default_audio="1" audiocodec="AAC (Advanced Audio Coding)" duration="161" file_hash="5d8ec7368cc757f88c89226b53cc5cf4" aspect_ratio="1" channels="2" frequency="48000" video_max="0" progressive="1" type="3" frame_size="1920x1080" file_size="16543932">
   <metaproperty tool="" name="meta.attr.0.stream.creation_time">2015-09-06 10:50:37</metaproperty>
   <metaproperty tool="" name="meta.attr.0.stream.language">eng</metaproperty>
   <metaproperty tool="" name="meta.attr.1.stream.creation_time">2015-09-06 10:50:37</metaproperty>
   <metaproperty tool="" name="meta.attr.1.stream.language">eng</metaproperty>
   <metaproperty tool="" name="meta.attr.compatible_brands">isommp42</metaproperty>
   <metaproperty tool="" name="meta.attr.creation_time">2015-09-06 10:50:37</metaproperty>
   <metaproperty tool="" name="meta.attr.major_brand">mp42</metaproperty>
   <metaproperty tool="" name="meta.attr.minor_version">0</metaproperty>
  </kdenlive_producer>
  <kdenlive_producer audio_max="61" id="169" pix_fmt="yuv420p" default_video="0" fps="30.0086" analysisdata="" name="VID_20150906_115844.mp4" videocodecid="h264" colorspace="709" videocodec="H.264 / AVC / MPEG-4 AVC / MPEG-4 part 10" resource="/home/alex/Videos/EOTR 2015/VID_20150906_115844.mp4" default_audio="1" audiocodec="AAC (Advanced Audio Coding)" duration="418" file_hash="2486dc136c68f63f6f122b47fb4df412" aspect_ratio="1" channels="2" frequency="48000" video_max="0" progressive="1" type="3" frame_size="1920x1080" file_size="42738982">
   <metaproperty tool="" name="meta.attr.0.stream.creation_time">2015-09-06 10:59:01</metaproperty>
   <metaproperty tool="" name="meta.attr.0.stream.language">eng</metaproperty>
   <metaproperty tool="" name="meta.attr.1.stream.creation_time">2015-09-06 10:59:01</metaproperty>
   <metaproperty tool="" name="meta.attr.1.stream.language">eng</metaproperty>
   <metaproperty tool="" name="meta.attr.compatible_brands">isommp42</metaproperty>
   <metaproperty tool="" name="meta.attr.creation_time">2015-09-06 10:59:01</metaproperty>
   <metaproperty tool="" name="meta.attr.major_brand">mp42</metaproperty>
   <metaproperty tool="" name="meta.attr.minor_version">0</metaproperty>
  </kdenlive_producer>
  <kdenlive_producer audio_max="53" id="170" pix_fmt="yuv420p" default_video="0" fps="30.0081" analysisdata="" name="VID_20150906_121751.mp4" videocodecid="h264" colorspace="709" videocodec="H.264 / AVC / MPEG-4 AVC / MPEG-4 part 10" resource="/home/alex/Videos/EOTR 2015/VID_20150906_121751.mp4" default_audio="1" audiocodec="AAC (Advanced Audio Coding)" duration="291" file_hash="76ed204be0e089cbd9db2176e81b978b" aspect_ratio="1" channels="2" frequency="48000" video_max="0" progressive="1" type="3" frame_size="1920x1080" file_size="29795294">
   <metaproperty tool="" name="meta.attr.0.stream.creation_time">2015-09-06 11:18:03</metaproperty>
   <metaproperty tool="" name="meta.attr.0.stream.language">eng</metaproperty>
   <metaproperty tool="" name="meta.attr.1.stream.creation_time">2015-09-06 11:18:03</metaproperty>
   <metaproperty tool="" name="meta.attr.1.stream.language">eng</metaproperty>
   <metaproperty tool="" name="meta.attr.compatible_brands">isommp42</metaproperty>
   <metaproperty tool="" name="meta.attr.creation_time">2015-09-06 11:18:03</metaproperty>
   <metaproperty tool="" name="meta.attr.major_brand">mp42</metaproperty>
   <metaproperty tool="" name="meta.attr.minor_version">0</metaproperty>
  </kdenlive_producer>
  <kdenlive_producer audio_max="60" id="171" pix_fmt="yuv420p" default_video="0" fps="30.0084" analysisdata="" name="VID_20150906_124112.mp4" videocodecid="h264" colorspace="709" videocodec="H.264 / AVC / MPEG-4 AVC / MPEG-4 part 10" resource="/home/alex/Videos/EOTR 2015/VID_20150906_124112.mp4" default_audio="1" audiocodec="AAC (Advanced Audio Coding)" duration="383" file_hash="775ff05338331dc36ee58a4e0a18cd19" aspect_ratio="1" channels="2" frequency="48000" video_max="0" progressive="1" type="3" frame_size="1920x1080" file_size="38959929">
   <metaproperty tool="" name="meta.attr.0.stream.creation_time">2015-09-06 11:41:28</metaproperty>
   <metaproperty tool="" name="meta.attr.0.stream.language">eng</metaproperty>
   <metaproperty tool="" name="meta.attr.1.stream.creation_time">2015-09-06 11:41:28</metaproperty>
   <metaproperty tool="" name="meta.attr.1.stream.language">eng</metaproperty>
   <metaproperty tool="" name="meta.attr.compatible_brands">isommp42</metaproperty>
   <metaproperty tool="" name="meta.attr.creation_time">2015-09-06 11:41:28</metaproperty>
   <metaproperty tool="" name="meta.attr.major_brand">mp42</metaproperty>
   <metaproperty tool="" name="meta.attr.minor_version">0</metaproperty>
  </kdenlive_producer>
  <kdenlive_producer audio_max="59" id="172" pix_fmt="yuv420p" default_video="0" fps="30.008" analysisdata="" name="VID_20150906_124603.mp4" videocodecid="h264" colorspace="709" videocodec="H.264 / AVC / MPEG-4 AVC / MPEG-4 part 10" resource="/home/alex/Videos/EOTR 2015/VID_20150906_124603.mp4" default_audio="1" audiocodec="AAC (Advanced Audio Coding)" duration="375" file_hash="275b8046aa260f90cc6f4f702ba604dc" aspect_ratio="1" channels="2" frequency="48000" video_max="0" progressive="1" type="3" frame_size="1920x1080" file_size="37969772">
   <metaproperty tool="" name="meta.attr.0.stream.creation_time">2015-09-06 11:46:19</metaproperty>
   <metaproperty tool="" name="meta.attr.0.stream.language">eng</metaproperty>
   <metaproperty tool="" name="meta.attr.1.stream.creation_time">2015-09-06 11:46:19</metaproperty>
   <metaproperty tool="" name="meta.attr.1.stream.language">eng</metaproperty>
   <metaproperty tool="" name="meta.attr.compatible_brands">isommp42</metaproperty>
   <metaproperty tool="" name="meta.attr.creation_time">2015-09-06 11:46:19</metaproperty>
   <metaproperty tool="" name="meta.attr.major_brand">mp42</metaproperty>
   <metaproperty tool="" name="meta.attr.minor_version">0</metaproperty>
  </kdenlive_producer>
  <kdenlive_producer audio_max="56" id="173" pix_fmt="yuv420p" default_video="0" fps="30.0083" analysisdata="" name="VID_20150906_130236.mp4" videocodecid="h264" colorspace="709" videocodec="H.264 / AVC / MPEG-4 AVC / MPEG-4 part 10" resource="/home/alex/Videos/EOTR 2015/VID_20150906_130236.mp4" default_audio="1" audiocodec="AAC (Advanced Audio Coding)" duration="685" file_hash="e6f60708eeda4e3383f1f4ce58a6d0b5" aspect_ratio="1" channels="2" frequency="48000" video_max="0" progressive="1" type="3" frame_size="1920x1080" file_size="69298948">
   <metaproperty tool="" name="meta.attr.0.stream.creation_time">2015-09-06 12:03:04</metaproperty>
   <metaproperty tool="" name="meta.attr.0.stream.language">eng</metaproperty>
   <metaproperty tool="" name="meta.attr.1.stream.creation_time">2015-09-06 12:03:04</metaproperty>
   <metaproperty tool="" name="meta.attr.1.stream.language">eng</metaproperty>
   <metaproperty tool="" name="meta.attr.compatible_brands">isommp42</metaproperty>
   <metaproperty tool="" name="meta.attr.creation_time">2015-09-06 12:03:04</metaproperty>
   <metaproperty tool="" name="meta.attr.major_brand">mp42</metaproperty>
   <metaproperty tool="" name="meta.attr.minor_version">0</metaproperty>
  </kdenlive_producer>
  <kdenlive_producer audio_max="58" id="174" pix_fmt="yuv420p" default_video="0" fps="30.0089" analysisdata="" name="VID_20150906_130545.mp4" videocodecid="h264" colorspace="709" videocodec="H.264 / AVC / MPEG-4 AVC / MPEG-4 part 10" resource="/home/alex/Videos/EOTR 2015/VID_20150906_130545.mp4" default_audio="1" audiocodec="AAC (Advanced Audio Coding)" duration="768" file_hash="11e5772732dfb11ce0fdbaf3f8e74434" aspect_ratio="1" channels="2" frequency="48000" video_max="0" progressive="1" type="3" frame_size="1920x1080" file_size="77545080">
   <metaproperty tool="" name="meta.attr.0.stream.creation_time">2015-09-06 12:06:16</metaproperty>
   <metaproperty tool="" name="meta.attr.0.stream.language">eng</metaproperty>
   <metaproperty tool="" name="meta.attr.1.stream.creation_time">2015-09-06 12:06:16</metaproperty>
   <metaproperty tool="" name="meta.attr.1.stream.language">eng</metaproperty>
   <metaproperty tool="" name="meta.attr.compatible_brands">isommp42</metaproperty>
   <metaproperty tool="" name="meta.attr.creation_time">2015-09-06 12:06:16</metaproperty>
   <metaproperty tool="" name="meta.attr.major_brand">mp42</metaproperty>
   <metaproperty tool="" name="meta.attr.minor_version">0</metaproperty>
  </kdenlive_producer>
  <kdenlive_producer audio_max="57" id="175" pix_fmt="yuv420p" default_video="0" fps="30.0077" analysisdata="" name="VID_20150906_130636.mp4" videocodecid="h264" colorspace="709" videocodec="H.264 / AVC / MPEG-4 AVC / MPEG-4 part 10" resource="/home/alex/Videos/EOTR 2015/VID_20150906_130636.mp4" default_audio="1" audiocodec="AAC (Advanced Audio Coding)" duration="410" file_hash="79c773b6f918a14ec9fdf6e12c07c6a7" aspect_ratio="1" channels="2" frequency="48000" video_max="0" progressive="1" type="3" frame_size="1920x1080" file_size="41425267">
   <metaproperty tool="" name="meta.attr.0.stream.creation_time">2015-09-06 12:06:53</metaproperty>
   <metaproperty tool="" name="meta.attr.0.stream.language">eng</metaproperty>
   <metaproperty tool="" name="meta.attr.1.stream.creation_time">2015-09-06 12:06:53</metaproperty>
   <metaproperty tool="" name="meta.attr.1.stream.language">eng</metaproperty>
   <metaproperty tool="" name="meta.attr.compatible_brands">isommp42</metaproperty>
   <metaproperty tool="" name="meta.attr.creation_time">2015-09-06 12:06:53</metaproperty>
   <metaproperty tool="" name="meta.attr.major_brand">mp42</metaproperty>
   <metaproperty tool="" name="meta.attr.minor_version">0</metaproperty>
  </kdenlive_producer>
  <kdenlive_producer audio_max="40" id="176" pix_fmt="yuv420p" default_video="0" fps="30.0089" analysisdata="" name="VID_20150906_131116.mp4" videocodecid="h264" colorspace="709" videocodec="H.264 / AVC / MPEG-4 AVC / MPEG-4 part 10" resource="/home/alex/Videos/EOTR 2015/VID_20150906_131116.mp4" default_audio="1" audiocodec="AAC (Advanced Audio Coding)" duration="261" file_hash="99b4ff6a1684146004809b7898256144" aspect_ratio="1" channels="2" frequency="48000" video_max="0" progressive="1" type="3" frame_size="1920x1080" file_size="26958294">
   <metaproperty tool="" name="meta.attr.0.stream.creation_time">2015-09-06 12:11:27</metaproperty>
   <metaproperty tool="" name="meta.attr.0.stream.language">eng</metaproperty>
   <metaproperty tool="" name="meta.attr.1.stream.creation_time">2015-09-06 12:11:27</metaproperty>
   <metaproperty tool="" name="meta.attr.1.stream.language">eng</metaproperty>
   <metaproperty tool="" name="meta.attr.compatible_brands">isommp42</metaproperty>
   <metaproperty tool="" name="meta.attr.creation_time">2015-09-06 12:11:27</metaproperty>
   <metaproperty tool="" name="meta.attr.major_brand">mp42</metaproperty>
   <metaproperty tool="" name="meta.attr.minor_version">0</metaproperty>
  </kdenlive_producer>
  <kdenlive_producer audio_max="38" id="177" pix_fmt="yuv420p" default_video="0" fps="30.0083" analysisdata="" name="VID_20150906_133658.mp4" videocodecid="h264" thumbnail="100" colorspace="709" videocodec="H.264 / AVC / MPEG-4 AVC / MPEG-4 part 10" resource="/home/alex/Videos/EOTR 2015/VID_20150906_133658.mp4" default_audio="1" audiocodec="AAC (Advanced Audio Coding)" duration="411" file_hash="113ab27c3fdaf31cfebac5d523678d11" aspect_ratio="1" channels="2" frequency="48000" video_max="0" progressive="1" type="3" frame_size="1920x1080" file_size="41730496">
   <metaproperty tool="" name="meta.attr.0.stream.creation_time">2015-09-06 12:37:16</metaproperty>
   <metaproperty tool="" name="meta.attr.0.stream.language">eng</metaproperty>
   <metaproperty tool="" name="meta.attr.1.stream.creation_time">2015-09-06 12:37:16</metaproperty>
   <metaproperty tool="" name="meta.attr.1.stream.language">eng</metaproperty>
   <metaproperty tool="" name="meta.attr.compatible_brands">isommp42</metaproperty>
   <metaproperty tool="" name="meta.attr.creation_time">2015-09-06 12:37:16</metaproperty>
   <metaproperty tool="" name="meta.attr.major_brand">mp42</metaproperty>
   <metaproperty tool="" name="meta.attr.minor_version">0</metaproperty>
  </kdenlive_producer>
  <kdenlive_producer audio_max="58" id="178" pix_fmt="yuv420p" default_video="0" fps="30.0087" analysisdata="" name="VID_20150906_141238.mp4" videocodecid="h264" colorspace="709" videocodec="H.264 / AVC / MPEG-4 AVC / MPEG-4 part 10" resource="/home/alex/Videos/EOTR 2015/VID_20150906_141238.mp4" default_audio="1" audiocodec="AAC (Advanced Audio Coding)" duration="1044" file_hash="17333efe047cf411d6cebfc3a5e89ae6" aspect_ratio="1" channels="2" frequency="48000" video_max="0" progressive="1" type="3" frame_size="1920x1080" file_size="105915060">
   <metaproperty tool="" name="meta.attr.0.stream.creation_time">2015-09-06 13:13:21</metaproperty>
   <metaproperty tool="" name="meta.attr.0.stream.language">eng</metaproperty>
   <metaproperty tool="" name="meta.attr.1.stream.creation_time">2015-09-06 13:13:21</metaproperty>
   <metaproperty tool="" name="meta.attr.1.stream.language">eng</metaproperty>
   <metaproperty tool="" name="meta.attr.compatible_brands">isommp42</metaproperty>
   <metaproperty tool="" name="meta.attr.creation_time">2015-09-06 13:13:21</metaproperty>
   <metaproperty tool="" name="meta.attr.major_brand">mp42</metaproperty>
   <metaproperty tool="" name="meta.attr.minor_version">0</metaproperty>
  </kdenlive_producer>
  <kdenlive_producer audio_max="61" id="179" pix_fmt="yuv420p" default_video="0" fps="30.0083" analysisdata="" name="VID_20150906_141815.mp4" videocodecid="h264" thumbnail="100" colorspace="709" videocodec="H.264 / AVC / MPEG-4 AVC / MPEG-4 part 10" resource="/home/alex/Videos/EOTR 2015/VID_20150906_141815.mp4" default_audio="1" audiocodec="AAC (Advanced Audio Coding)" duration="1323" file_hash="15306856818752cb315f61af353d159e" aspect_ratio="1" channels="2" frequency="48000" video_max="0" progressive="1" type="3" frame_size="1920x1080" file_size="134321946">
   <metaproperty tool="" name="meta.attr.0.stream.creation_time">2015-09-06 13:19:08</metaproperty>
   <metaproperty tool="" name="meta.attr.0.stream.language">eng</metaproperty>
   <metaproperty tool="" name="meta.attr.1.stream.creation_time">2015-09-06 13:19:08</metaproperty>
   <metaproperty tool="" name="meta.attr.1.stream.language">eng</metaproperty>
   <metaproperty tool="" name="meta.attr.compatible_brands">isommp42</metaproperty>
   <metaproperty tool="" name="meta.attr.creation_time">2015-09-06 13:19:08</metaproperty>
   <metaproperty tool="" name="meta.attr.major_brand">mp42</metaproperty>
   <metaproperty tool="" name="meta.attr.minor_version">0</metaproperty>
  </kdenlive_producer>
  <kdenlive_producer audio_max="49" id="180" pix_fmt="yuv420p" default_video="0" fps="30.0086" analysisdata="" name="VID_20150906_143947.mp4" videocodecid="h264" colorspace="709" videocodec="H.264 / AVC / MPEG-4 AVC / MPEG-4 part 10" resource="/home/alex/Videos/EOTR 2015/VID_20150906_143947.mp4" default_audio="1" audiocodec="AAC (Advanced Audio Coding)" duration="691" file_hash="d9117fc1050b1c9438cf2113035208bc" aspect_ratio="1" channels="2" frequency="48000" video_max="0" progressive="1" type="3" frame_size="1920x1080" file_size="70061647">
   <metaproperty tool="" name="meta.attr.0.stream.creation_time">2015-09-06 13:40:15</metaproperty>
   <metaproperty tool="" name="meta.attr.0.stream.language">eng</metaproperty>
   <metaproperty tool="" name="meta.attr.1.stream.creation_time">2015-09-06 13:40:15</metaproperty>
   <metaproperty tool="" name="meta.attr.1.stream.language">eng</metaproperty>
   <metaproperty tool="" name="meta.attr.compatible_brands">isommp42</metaproperty>
   <metaproperty tool="" name="meta.attr.creation_time">2015-09-06 13:40:15</metaproperty>
   <metaproperty tool="" name="meta.attr.major_brand">mp42</metaproperty>
   <metaproperty tool="" name="meta.attr.minor_version">0</metaproperty>
  </kdenlive_producer>
  <kdenlive_producer audio_max="62" id="181" pix_fmt="yuv420p" default_video="0" fps="30.0082" analysisdata="" name="VID_20150906_145202.mp4" videocodecid="h264" colorspace="709" videocodec="H.264 / AVC / MPEG-4 AVC / MPEG-4 part 10" resource="/home/alex/Videos/EOTR 2015/VID_20150906_145202.mp4" default_audio="1" audiocodec="AAC (Advanced Audio Coding)" duration="208" file_hash="6c6ee8c5548eea48389920d8c80949ad" aspect_ratio="1" channels="2" frequency="48000" video_max="0" progressive="1" type="3" frame_size="1920x1080" file_size="21346433">
   <metaproperty tool="" name="meta.attr.0.stream.creation_time">2015-09-06 13:52:11</metaproperty>
   <metaproperty tool="" name="meta.attr.0.stream.language">eng</metaproperty>
   <metaproperty tool="" name="meta.attr.1.stream.creation_time">2015-09-06 13:52:11</metaproperty>
   <metaproperty tool="" name="meta.attr.1.stream.language">eng</metaproperty>
   <metaproperty tool="" name="meta.attr.compatible_brands">isommp42</metaproperty>
   <metaproperty tool="" name="meta.attr.creation_time">2015-09-06 13:52:11</metaproperty>
   <metaproperty tool="" name="meta.attr.major_brand">mp42</metaproperty>
   <metaproperty tool="" name="meta.attr.minor_version">0</metaproperty>
  </kdenlive_producer>
  <kdenlive_producer audio_max="60" id="182" pix_fmt="yuv420p" default_video="0" fps="30.0073" analysisdata="" name="VID_20150906_155027.mp4" videocodecid="h264" colorspace="709" videocodec="H.264 / AVC / MPEG-4 AVC / MPEG-4 part 10" resource="/home/alex/Videos/EOTR 2015/VID_20150906_155027.mp4" default_audio="1" audiocodec="AAC (Advanced Audio Coding)" duration="613" file_hash="ad1c82d94e3442a953c2afb04de7b87c" aspect_ratio="1" channels="2" frequency="48000" video_max="0" progressive="1" type="3" frame_size="1920x1080" file_size="62164477">
   <metaproperty tool="" name="meta.attr.0.stream.creation_time">2015-09-06 14:50:52</metaproperty>
   <metaproperty tool="" name="meta.attr.0.stream.language">eng</metaproperty>
   <metaproperty tool="" name="meta.attr.1.stream.creation_time">2015-09-06 14:50:52</metaproperty>
   <metaproperty tool="" name="meta.attr.1.stream.language">eng</metaproperty>
   <metaproperty tool="" name="meta.attr.compatible_brands">isommp42</metaproperty>
   <metaproperty tool="" name="meta.attr.creation_time">2015-09-06 14:50:52</metaproperty>
   <metaproperty tool="" name="meta.attr.major_brand">mp42</metaproperty>
   <metaproperty tool="" name="meta.attr.minor_version">0</metaproperty>
  </kdenlive_producer>
  <kdenlive_producer audio_max="58" id="183" pix_fmt="yuv420p" default_video="0" fps="30.0084" analysisdata="" name="VID_20150906_155154.mp4" videocodecid="h264" colorspace="709" videocodec="H.264 / AVC / MPEG-4 AVC / MPEG-4 part 10" resource="/home/alex/Videos/EOTR 2015/VID_20150906_155154.mp4" default_audio="1" audiocodec="AAC (Advanced Audio Coding)" duration="293" file_hash="f0258d2c55d82c85e878ac86977da552" aspect_ratio="1" channels="2" frequency="48000" video_max="0" progressive="1" type="3" frame_size="1920x1080" file_size="29751300">
   <metaproperty tool="" name="meta.attr.0.stream.creation_time">2015-09-06 14:52:07</metaproperty>
   <metaproperty tool="" name="meta.attr.0.stream.language">eng</metaproperty>
   <metaproperty tool="" name="meta.attr.1.stream.creation_time">2015-09-06 14:52:07</metaproperty>
   <metaproperty tool="" name="meta.attr.1.stream.language">eng</metaproperty>
   <metaproperty tool="" name="meta.attr.compatible_brands">isommp42</metaproperty>
   <metaproperty tool="" name="meta.attr.creation_time">2015-09-06 14:52:07</metaproperty>
   <metaproperty tool="" name="meta.attr.major_brand">mp42</metaproperty>
   <metaproperty tool="" name="meta.attr.minor_version">0</metaproperty>
  </kdenlive_producer>
  <kdenlive_producer audio_max="60" id="184" pix_fmt="yuv420p" default_video="0" fps="29.6045" analysisdata="" name="VID_20150906_155215.mp4" videocodecid="h264" colorspace="709" videocodec="H.264 / AVC / MPEG-4 AVC / MPEG-4 part 10" resource="/home/alex/Videos/EOTR 2015/VID_20150906_155215.mp4" default_audio="1" audiocodec="AAC (Advanced Audio Coding)" duration="533" file_hash="74dabeec31c41a9ebaf090e64bc84891" aspect_ratio="1" channels="2" frequency="48000" video_max="0" progressive="1" type="3" frame_size="1920x1080" file_size="53523899">
   <metaproperty tool="" name="meta.attr.0.stream.creation_time">2015-09-06 14:52:37</metaproperty>
   <metaproperty tool="" name="meta.attr.0.stream.language">eng</metaproperty>
   <metaproperty tool="" name="meta.attr.1.stream.creation_time">2015-09-06 14:52:37</metaproperty>
   <metaproperty tool="" name="meta.attr.1.stream.language">eng</metaproperty>
   <metaproperty tool="" name="meta.attr.compatible_brands">isommp42</metaproperty>
   <metaproperty tool="" name="meta.attr.creation_time">2015-09-06 14:52:37</metaproperty>
   <metaproperty tool="" name="meta.attr.major_brand">mp42</metaproperty>
   <metaproperty tool="" name="meta.attr.minor_version">0</metaproperty>
  </kdenlive_producer>
  <kdenlive_producer audio_max="60" id="185" pix_fmt="yuv420p" default_video="0" fps="29.5185" analysisdata="" name="VID_20150906_155558.mp4" videocodecid="h264" colorspace="709" videocodec="H.264 / AVC / MPEG-4 AVC / MPEG-4 part 10" resource="/home/alex/Videos/EOTR 2015/VID_20150906_155558.mp4" default_audio="1" audiocodec="AAC (Advanced Audio Coding)" duration="375" file_hash="654a88702cb103e1093e71c44f7b1fea" aspect_ratio="1" channels="2" frequency="48000" video_max="0" progressive="1" type="3" frame_size="1920x1080" file_size="37647579">
   <metaproperty tool="" name="meta.attr.0.stream.creation_time">2015-09-06 14:56:14</metaproperty>
   <metaproperty tool="" name="meta.attr.0.stream.language">eng</metaproperty>
   <metaproperty tool="" name="meta.attr.1.stream.creation_time">2015-09-06 14:56:14</metaproperty>
   <metaproperty tool="" name="meta.attr.1.stream.language">eng</metaproperty>
   <metaproperty tool="" name="meta.attr.compatible_brands">isommp42</metaproperty>
   <metaproperty tool="" name="meta.attr.creation_time">2015-09-06 14:56:14</metaproperty>
   <metaproperty tool="" name="meta.attr.major_brand">mp42</metaproperty>
   <metaproperty tool="" name="meta.attr.minor_version">0</metaproperty>
  </kdenlive_producer>
  <kdenlive_producer audio_max="50" id="186" pix_fmt="yuv420p" default_video="0" fps="29.9193" analysisdata="" name="VID_20150906_171754.mp4" videocodecid="h264" colorspace="709" videocodec="H.264 / AVC / MPEG-4 AVC / MPEG-4 part 10" resource="/home/alex/Videos/EOTR 2015/VID_20150906_171754.mp4" default_audio="1" audiocodec="AAC (Advanced Audio Coding)" duration="1963" file_hash="0b3a5c798764c65af2dbafa7b78976f0" aspect_ratio="1" channels="2" frequency="48000" video_max="0" progressive="1" type="3" frame_size="1920x1080" file_size="199037115">
   <metaproperty tool="" name="meta.attr.0.stream.creation_time">2015-09-06 16:19:13</metaproperty>
   <metaproperty tool="" name="meta.attr.0.stream.language">eng</metaproperty>
   <metaproperty tool="" name="meta.attr.1.stream.creation_time">2015-09-06 16:19:13</metaproperty>
   <metaproperty tool="" name="meta.attr.1.stream.language">eng</metaproperty>
   <metaproperty tool="" name="meta.attr.compatible_brands">isommp42</metaproperty>
   <metaproperty tool="" name="meta.attr.creation_time">2015-09-06 16:19:13</metaproperty>
   <metaproperty tool="" name="meta.attr.major_brand">mp42</metaproperty>
   <metaproperty tool="" name="meta.attr.minor_version">0</metaproperty>
  </kdenlive_producer>
  <kdenlive_producer audio_max="63" id="187" pix_fmt="yuv420p" default_video="0" fps="30.0084" analysisdata="" name="VID_20150906_174209.mp4" videocodecid="h264" colorspace="709" videocodec="H.264 / AVC / MPEG-4 AVC / MPEG-4 part 10" resource="/home/alex/Videos/EOTR 2015/VID_20150906_174209.mp4" default_audio="1" audiocodec="AAC (Advanced Audio Coding)" duration="486" file_hash="b0b48fcbca00ebc361487a23945836d5" aspect_ratio="1" channels="2" frequency="48000" video_max="0" progressive="1" type="3" frame_size="1920x1080" file_size="49301169">
   <metaproperty tool="" name="meta.attr.0.stream.creation_time">2015-09-06 16:42:29</metaproperty>
   <metaproperty tool="" name="meta.attr.0.stream.language">eng</metaproperty>
   <metaproperty tool="" name="meta.attr.1.stream.creation_time">2015-09-06 16:42:29</metaproperty>
   <metaproperty tool="" name="meta.attr.1.stream.language">eng</metaproperty>
   <metaproperty tool="" name="meta.attr.compatible_brands">isommp42</metaproperty>
   <metaproperty tool="" name="meta.attr.creation_time">2015-09-06 16:42:29</metaproperty>
   <metaproperty tool="" name="meta.attr.major_brand">mp42</metaproperty>
   <metaproperty tool="" name="meta.attr.minor_version">0</metaproperty>
  </kdenlive_producer>
  <kdenlive_producer audio_max="61" id="188" pix_fmt="yuv420p" default_video="0" fps="29.7263" analysisdata="" name="VID_20150906_215313.mp4" videocodecid="h264" thumbnail="100" colorspace="709" videocodec="H.264 / AVC / MPEG-4 AVC / MPEG-4 part 10" resource="/home/alex/Videos/EOTR 2015/VID_20150906_215313.mp4" default_audio="1" audiocodec="AAC (Advanced Audio Coding)" duration="858" file_hash="1fceed4605693df42c7cb1a777d48878" aspect_ratio="1" channels="2" frequency="48000" video_max="0" progressive="1" type="3" frame_size="1920x1080" file_size="86575531">
   <metaproperty tool="" name="meta.attr.0.stream.creation_time">2015-09-06 20:53:48</metaproperty>
   <metaproperty tool="" name="meta.attr.0.stream.language">eng</metaproperty>
   <metaproperty tool="" name="meta.attr.1.stream.creation_time">2015-09-06 20:53:48</metaproperty>
   <metaproperty tool="" name="meta.attr.1.stream.language">eng</metaproperty>
   <metaproperty tool="" name="meta.attr.compatible_brands">isommp42</metaproperty>
   <metaproperty tool="" name="meta.attr.creation_time">2015-09-06 20:53:48</metaproperty>
   <metaproperty tool="" name="meta.attr.major_brand">mp42</metaproperty>
   <metaproperty tool="" name="meta.attr.minor_version">0</metaproperty>
  </kdenlive_producer>
  <kdenlive_producer audio_max="61" id="189" pix_fmt="yuv420p" default_video="0" fps="29.7907" analysisdata="" name="VID_20150906_223400.mp4" videocodecid="h264" thumbnail="100" colorspace="709" videocodec="H.264 / AVC / MPEG-4 AVC / MPEG-4 part 10" resource="/home/alex/Videos/EOTR 2015/VID_20150906_223400.mp4" default_audio="1" audiocodec="AAC (Advanced Audio Coding)" duration="1114" file_hash="52eadf8775b52af33c1e6d35657eef5e" aspect_ratio="1" channels="2" frequency="48000" video_max="0" progressive="1" type="3" frame_size="1920x1080" file_size="112768298">
   <metaproperty tool="" name="meta.attr.0.stream.creation_time">2015-09-06 21:34:45</metaproperty>
   <metaproperty tool="" name="meta.attr.0.stream.language">eng</metaproperty>
   <metaproperty tool="" name="meta.attr.1.stream.creation_time">2015-09-06 21:34:45</metaproperty>
   <metaproperty tool="" name="meta.attr.1.stream.language">eng</metaproperty>
   <metaproperty tool="" name="meta.attr.compatible_brands">isommp42</metaproperty>
   <metaproperty tool="" name="meta.attr.creation_time">2015-09-06 21:34:45</metaproperty>
   <metaproperty tool="" name="meta.attr.major_brand">mp42</metaproperty>
   <metaproperty tool="" name="meta.attr.minor_version">0</metaproperty>
  </kdenlive_producer>
  <kdenlive_producer audio_max="0" id="190" pix_fmt="yuv420p" default_video="0" fps="29.97" analysisdata="" name="croppy.mp4" videocodecid="mpeg4" colorspace="709" videocodec="MPEG-4 part 2" resource="/home/alex/kdenlive/croppy.mp4" default_audio="-1" duration="1963" file_hash="eb38377335b27851efbe42ee6f308276" aspect_ratio="1" video_max="0" progressive="0" type="2" frame_size="1920x1080" file_size="117963931">
   <metaproperty tool="" name="meta.attr.compatible_brands">isomiso2mp41</metaproperty>
   <metaproperty tool="" name="meta.attr.encoder">Lavf54.20.4</metaproperty>
   <metaproperty tool="" name="meta.attr.major_brand">isom</metaproperty>
   <metaproperty tool="" name="meta.attr.minor_version">512</metaproperty>
  </kdenlive_producer>
  <markers/>
  <groups/>
 </kdenlivedoc>
</mlt>
