<?xml version='1.0' encoding='utf-8'?>
<mlt title="Anonymous Submission" version="0.9.0" root="/home/alex" LC_NUMERIC="en_GB.UTF-8">
 <profile width="1920" display_aspect_den="9" colorspace="709" frame_rate_den="1001" description="HD 1080i 29.97 fps" height="1080" display_aspect_num="16" frame_rate_num="30000" progressive="0" sample_aspect_num="1" sample_aspect_den="1"/>
 <producer in="0" out="500" id="black">
  <property name="mlt_type">producer</property>
  <property name="length">15000</property>
  <property name="eof">pause</property>
  <property name="resource">black</property>
  <property name="aspect_ratio">0</property>
  <property name="mlt_service">colour</property>
 </producer>
 <playlist id="black_track">
  <entry in="0" out="7449" producer="black"/>
 </playlist>
 <producer in="0" out="7449" id="186_3">
  <property name="mlt_type">producer</property>
  <property name="length">7450</property>
  <property name="eof">pause</property>
  <property name="resource">Downloads/The Soft Bulletin Complete/Remixes/2-01 Race for the Prize (Remix).flac</property>
  <property name="meta.media.nb_streams">1</property>
  <property name="meta.media.0.stream.type">audio</property>
  <property name="meta.media.0.codec.sample_fmt">s16</property>
  <property name="meta.media.0.codec.sample_rate">44100</property>
  <property name="meta.media.0.codec.channels">2</property>
  <property name="meta.media.0.codec.name">flac</property>
  <property name="meta.media.0.codec.long_name">FLAC (Free Lossless Audio Codec)</property>
  <property name="meta.media.0.codec.bit_rate">0</property>
  <property name="meta.attr.ENCODER.markup">X Lossless Decoder 20140504</property>
  <property name="meta.attr.TITLE.markup">Race for the Prize (Remix)</property>
  <property name="meta.attr.ARTIST.markup">The Flaming Lips</property>
  <property name="meta.attr.ALBUM.markup">The Soft Bulletin</property>
  <property name="meta.attr.GENRE.markup">Psychedelic Pop</property>
  <property name="meta.attr.track.markup">1</property>
  <property name="meta.attr.disc.markup">2</property>
  <property name="meta.attr.DATE.markup">1999</property>
  <property name="seekable">1</property>
  <property name="audio_index">0</property>
  <property name="video_index">-1</property>
  <property name="mlt_service">avformat</property>
 </producer>
 <playlist id="playlist1">
  <entry in="0" out="7449" producer="186_3"/>
 </playlist>
 <producer in="0" out="359" id="2_2">
  <property name="mlt_type">producer</property>
  <property name="length">360</property>
  <property name="eof">pause</property>
  <property name="resource">Videos/EOTR Footage/20140828_133532.mp4</property>
  <property name="meta.media.nb_streams">2</property>
  <property name="meta.media.0.stream.type">video</property>
  <property name="meta.media.0.stream.frame_rate">30.0205</property>
  <property name="meta.media.0.stream.sample_aspect_ratio">0</property>
  <property name="meta.media.0.codec.width">1920</property>
  <property name="meta.media.0.codec.height">1080</property>
  <property name="meta.media.0.codec.frame_rate">inf</property>
  <property name="meta.media.0.codec.pix_fmt">yuv420p</property>
  <property name="meta.media.0.codec.sample_aspect_ratio">0</property>
  <property name="meta.media.0.codec.colorspace">709</property>
  <property name="meta.media.0.codec.name">h264</property>
  <property name="meta.media.0.codec.long_name">H.264 / AVC / MPEG-4 AVC / MPEG-4 part 10</property>
  <property name="meta.media.0.codec.bit_rate">17032429</property>
  <property name="meta.attr.0.stream.creation_time.markup">2014-08-28 12:35:45</property>
  <property name="meta.attr.0.stream.language.markup">eng</property>
  <property name="meta.media.1.stream.type">audio</property>
  <property name="meta.media.1.codec.sample_fmt">fltp</property>
  <property name="meta.media.1.codec.sample_rate">48000</property>
  <property name="meta.media.1.codec.channels">2</property>
  <property name="meta.media.1.codec.name">aac</property>
  <property name="meta.media.1.codec.long_name">AAC (Advanced Audio Coding)</property>
  <property name="meta.media.1.codec.bit_rate">124166</property>
  <property name="meta.attr.1.stream.creation_time.markup">2014-08-28 12:35:45</property>
  <property name="meta.attr.1.stream.language.markup">eng</property>
  <property name="meta.attr.major_brand.markup">isom</property>
  <property name="meta.attr.minor_version.markup">0</property>
  <property name="meta.attr.compatible_brands.markup">isom3gp4</property>
  <property name="meta.attr.creation_time.markup">2014-08-28 12:35:45</property>
  <property name="seekable">1</property>
  <property name="meta.media.sample_aspect_num">1</property>
  <property name="meta.media.sample_aspect_den">1</property>
  <property name="aspect_ratio">1</property>
  <property name="audio_index">1</property>
  <property name="video_index">0</property>
  <property name="mlt_service">avformat</property>
  <property name="meta.media.frame_rate_num">1274400</property>
  <property name="meta.media.frame_rate_den">42451</property>
  <property name="meta.media.colorspace">709</property>
  <property name="meta.media.width">1920</property>
  <property name="meta.media.height">1080</property>
  <property name="meta.media.top_field_first">0</property>
  <property name="meta.media.progressive">1</property>
 </producer>
 <producer in="0" out="898" id="29_2">
  <property name="mlt_type">producer</property>
  <property name="length">899</property>
  <property name="eof">pause</property>
  <property name="resource">Videos/EOTR Footage/IMGA0066.MP4</property>
  <property name="meta.media.nb_streams">2</property>
  <property name="meta.media.0.stream.type">video</property>
  <property name="meta.media.0.stream.frame_rate">29.97</property>
  <property name="meta.media.0.stream.sample_aspect_ratio">0</property>
  <property name="meta.media.0.codec.width">1920</property>
  <property name="meta.media.0.codec.height">1080</property>
  <property name="meta.media.0.codec.frame_rate">29.97</property>
  <property name="meta.media.0.codec.pix_fmt">yuvj420p</property>
  <property name="meta.media.0.codec.sample_aspect_ratio">1</property>
  <property name="meta.media.0.codec.colorspace">709</property>
  <property name="meta.media.0.codec.name">h264</property>
  <property name="meta.media.0.codec.long_name">H.264 / AVC / MPEG-4 AVC / MPEG-4 part 10</property>
  <property name="meta.media.0.codec.bit_rate">15944369</property>
  <property name="meta.attr.0.stream.creation_time.markup">2014-08-28 14:03:45</property>
  <property name="meta.attr.0.stream.language.markup">eng</property>
  <property name="meta.media.1.stream.type">audio</property>
  <property name="meta.media.1.codec.sample_fmt">fltp</property>
  <property name="meta.media.1.codec.sample_rate">48000</property>
  <property name="meta.media.1.codec.channels">2</property>
  <property name="meta.media.1.codec.name">aac</property>
  <property name="meta.media.1.codec.long_name">AAC (Advanced Audio Coding)</property>
  <property name="meta.media.1.codec.bit_rate">254150</property>
  <property name="meta.attr.1.stream.creation_time.markup">2014-08-28 14:03:45</property>
  <property name="meta.attr.1.stream.language.markup">eng</property>
  <property name="meta.attr.major_brand.markup">mp42</property>
  <property name="meta.attr.minor_version.markup">1</property>
  <property name="meta.attr.compatible_brands.markup">mp42avc1</property>
  <property name="meta.attr.creation_time.markup">2014-08-28 14:03:45</property>
  <property name="seekable">1</property>
  <property name="meta.media.sample_aspect_num">1</property>
  <property name="meta.media.sample_aspect_den">1</property>
  <property name="aspect_ratio">1</property>
  <property name="audio_index">1</property>
  <property name="video_index">0</property>
  <property name="mlt_service">avformat</property>
  <property name="meta.media.frame_rate_num">30000</property>
  <property name="meta.media.frame_rate_den">1001</property>
  <property name="meta.media.colorspace">709</property>
  <property name="meta.media.width">1920</property>
  <property name="meta.media.height">1080</property>
  <property name="meta.media.top_field_first">0</property>
  <property name="meta.media.progressive">1</property>
 </producer>
 <producer in="0" out="1679" id="34_2">
  <property name="mlt_type">producer</property>
  <property name="length">1680</property>
  <property name="eof">pause</property>
  <property name="resource">Videos/EOTR Footage/IMGA0071.MP4</property>
  <property name="meta.media.nb_streams">2</property>
  <property name="meta.media.0.stream.type">video</property>
  <property name="meta.media.0.stream.frame_rate">29.97</property>
  <property name="meta.media.0.stream.sample_aspect_ratio">0</property>
  <property name="meta.media.0.codec.width">1920</property>
  <property name="meta.media.0.codec.height">1080</property>
  <property name="meta.media.0.codec.frame_rate">29.97</property>
  <property name="meta.media.0.codec.pix_fmt">yuvj420p</property>
  <property name="meta.media.0.codec.sample_aspect_ratio">1</property>
  <property name="meta.media.0.codec.colorspace">709</property>
  <property name="meta.media.0.codec.name">h264</property>
  <property name="meta.media.0.codec.long_name">H.264 / AVC / MPEG-4 AVC / MPEG-4 part 10</property>
  <property name="meta.media.0.codec.bit_rate">16174355</property>
  <property name="meta.attr.0.stream.creation_time.markup">2014-08-28 15:19:04</property>
  <property name="meta.attr.0.stream.language.markup">eng</property>
  <property name="meta.media.1.stream.type">audio</property>
  <property name="meta.media.1.codec.sample_fmt">fltp</property>
  <property name="meta.media.1.codec.sample_rate">48000</property>
  <property name="meta.media.1.codec.channels">2</property>
  <property name="meta.media.1.codec.name">aac</property>
  <property name="meta.media.1.codec.long_name">AAC (Advanced Audio Coding)</property>
  <property name="meta.media.1.codec.bit_rate">255330</property>
  <property name="meta.attr.1.stream.creation_time.markup">2014-08-28 15:19:04</property>
  <property name="meta.attr.1.stream.language.markup">eng</property>
  <property name="meta.attr.major_brand.markup">mp42</property>
  <property name="meta.attr.minor_version.markup">1</property>
  <property name="meta.attr.compatible_brands.markup">mp42avc1</property>
  <property name="meta.attr.creation_time.markup">2014-08-28 15:19:04</property>
  <property name="seekable">1</property>
  <property name="meta.media.sample_aspect_num">1</property>
  <property name="meta.media.sample_aspect_den">1</property>
  <property name="aspect_ratio">1</property>
  <property name="audio_index">1</property>
  <property name="video_index">0</property>
  <property name="mlt_service">avformat</property>
  <property name="meta.media.frame_rate_num">30000</property>
  <property name="meta.media.frame_rate_den">1001</property>
  <property name="meta.media.colorspace">709</property>
  <property name="meta.media.width">1920</property>
  <property name="meta.media.height">1080</property>
  <property name="meta.media.top_field_first">0</property>
  <property name="meta.media.progressive">1</property>
 </producer>
 <producer in="0" out="1019" id="39_2">
  <property name="mlt_type">producer</property>
  <property name="length">1020</property>
  <property name="eof">pause</property>
  <property name="resource">Videos/EOTR Footage/IMGA0076.MP4</property>
  <property name="meta.media.nb_streams">2</property>
  <property name="meta.media.0.stream.type">video</property>
  <property name="meta.media.0.stream.frame_rate">29.97</property>
  <property name="meta.media.0.stream.sample_aspect_ratio">0</property>
  <property name="meta.media.0.codec.width">1920</property>
  <property name="meta.media.0.codec.height">1080</property>
  <property name="meta.media.0.codec.frame_rate">29.97</property>
  <property name="meta.media.0.codec.pix_fmt">yuvj420p</property>
  <property name="meta.media.0.codec.sample_aspect_ratio">1</property>
  <property name="meta.media.0.codec.colorspace">709</property>
  <property name="meta.media.0.codec.name">h264</property>
  <property name="meta.media.0.codec.long_name">H.264 / AVC / MPEG-4 AVC / MPEG-4 part 10</property>
  <property name="meta.media.0.codec.bit_rate">15736073</property>
  <property name="meta.attr.0.stream.creation_time.markup">2014-08-28 15:50:58</property>
  <property name="meta.attr.0.stream.language.markup">eng</property>
  <property name="meta.media.1.stream.type">audio</property>
  <property name="meta.media.1.codec.sample_fmt">fltp</property>
  <property name="meta.media.1.codec.sample_rate">48000</property>
  <property name="meta.media.1.codec.channels">2</property>
  <property name="meta.media.1.codec.name">aac</property>
  <property name="meta.media.1.codec.long_name">AAC (Advanced Audio Coding)</property>
  <property name="meta.media.1.codec.bit_rate">255239</property>
  <property name="meta.attr.1.stream.creation_time.markup">2014-08-28 15:50:58</property>
  <property name="meta.attr.1.stream.language.markup">eng</property>
  <property name="meta.attr.major_brand.markup">mp42</property>
  <property name="meta.attr.minor_version.markup">1</property>
  <property name="meta.attr.compatible_brands.markup">mp42avc1</property>
  <property name="meta.attr.creation_time.markup">2014-08-28 15:50:58</property>
  <property name="seekable">1</property>
  <property name="meta.media.sample_aspect_num">1</property>
  <property name="meta.media.sample_aspect_den">1</property>
  <property name="aspect_ratio">1</property>
  <property name="audio_index">1</property>
  <property name="video_index">0</property>
  <property name="mlt_service">avformat</property>
  <property name="meta.media.frame_rate_num">30000</property>
  <property name="meta.media.frame_rate_den">1001</property>
  <property name="meta.media.colorspace">709</property>
  <property name="meta.media.width">1920</property>
  <property name="meta.media.height">1080</property>
  <property name="meta.media.top_field_first">0</property>
  <property name="meta.media.progressive">1</property>
 </producer>
 <producer in="0" out="2129" id="40_2">
  <property name="mlt_type">producer</property>
  <property name="length">2130</property>
  <property name="eof">pause</property>
  <property name="resource">Videos/EOTR Footage/IMGA0077.MP4</property>
  <property name="meta.media.nb_streams">2</property>
  <property name="meta.media.0.stream.type">video</property>
  <property name="meta.media.0.stream.frame_rate">29.97</property>
  <property name="meta.media.0.stream.sample_aspect_ratio">0</property>
  <property name="meta.media.0.codec.width">1920</property>
  <property name="meta.media.0.codec.height">1080</property>
  <property name="meta.media.0.codec.frame_rate">29.97</property>
  <property name="meta.media.0.codec.pix_fmt">yuvj420p</property>
  <property name="meta.media.0.codec.sample_aspect_ratio">1</property>
  <property name="meta.media.0.codec.colorspace">709</property>
  <property name="meta.media.0.codec.name">h264</property>
  <property name="meta.media.0.codec.long_name">H.264 / AVC / MPEG-4 AVC / MPEG-4 part 10</property>
  <property name="meta.media.0.codec.bit_rate">15974066</property>
  <property name="meta.attr.0.stream.creation_time.markup">2014-08-28 15:56:35</property>
  <property name="meta.attr.0.stream.language.markup">eng</property>
  <property name="meta.media.1.stream.type">audio</property>
  <property name="meta.media.1.codec.sample_fmt">fltp</property>
  <property name="meta.media.1.codec.sample_rate">48000</property>
  <property name="meta.media.1.codec.channels">2</property>
  <property name="meta.media.1.codec.name">aac</property>
  <property name="meta.media.1.codec.long_name">AAC (Advanced Audio Coding)</property>
  <property name="meta.media.1.codec.bit_rate">255353</property>
  <property name="meta.attr.1.stream.creation_time.markup">2014-08-28 15:56:35</property>
  <property name="meta.attr.1.stream.language.markup">eng</property>
  <property name="meta.attr.major_brand.markup">mp42</property>
  <property name="meta.attr.minor_version.markup">1</property>
  <property name="meta.attr.compatible_brands.markup">mp42avc1</property>
  <property name="meta.attr.creation_time.markup">2014-08-28 15:56:35</property>
  <property name="seekable">1</property>
  <property name="meta.media.sample_aspect_num">1</property>
  <property name="meta.media.sample_aspect_den">1</property>
  <property name="aspect_ratio">1</property>
  <property name="audio_index">1</property>
  <property name="video_index">0</property>
  <property name="mlt_service">avformat</property>
  <property name="meta.media.frame_rate_num">30000</property>
  <property name="meta.media.frame_rate_den">1001</property>
  <property name="meta.media.colorspace">709</property>
  <property name="meta.media.width">1920</property>
  <property name="meta.media.height">1080</property>
  <property name="meta.media.top_field_first">0</property>
  <property name="meta.media.progressive">1</property>
 </producer>
 <producer in="0" out="448" id="47_2">
  <property name="mlt_type">producer</property>
  <property name="length">449</property>
  <property name="eof">pause</property>
  <property name="resource">Videos/EOTR Footage/IMGA0084.MP4</property>
  <property name="meta.media.nb_streams">2</property>
  <property name="meta.media.0.stream.type">video</property>
  <property name="meta.media.0.stream.frame_rate">29.97</property>
  <property name="meta.media.0.stream.sample_aspect_ratio">0</property>
  <property name="meta.media.0.codec.width">1920</property>
  <property name="meta.media.0.codec.height">1080</property>
  <property name="meta.media.0.codec.frame_rate">29.97</property>
  <property name="meta.media.0.codec.pix_fmt">yuvj420p</property>
  <property name="meta.media.0.codec.sample_aspect_ratio">1</property>
  <property name="meta.media.0.codec.colorspace">709</property>
  <property name="meta.media.0.codec.name">h264</property>
  <property name="meta.media.0.codec.long_name">H.264 / AVC / MPEG-4 AVC / MPEG-4 part 10</property>
  <property name="meta.media.0.codec.bit_rate">17056057</property>
  <property name="meta.attr.0.stream.creation_time.markup">2014-08-28 16:52:11</property>
  <property name="meta.attr.0.stream.language.markup">eng</property>
  <property name="meta.media.1.stream.type">audio</property>
  <property name="meta.media.1.codec.sample_fmt">fltp</property>
  <property name="meta.media.1.codec.sample_rate">48000</property>
  <property name="meta.media.1.codec.channels">2</property>
  <property name="meta.media.1.codec.name">aac</property>
  <property name="meta.media.1.codec.long_name">AAC (Advanced Audio Coding)</property>
  <property name="meta.media.1.codec.bit_rate">255192</property>
  <property name="meta.attr.1.stream.creation_time.markup">2014-08-28 16:52:11</property>
  <property name="meta.attr.1.stream.language.markup">eng</property>
  <property name="meta.attr.major_brand.markup">mp42</property>
  <property name="meta.attr.minor_version.markup">1</property>
  <property name="meta.attr.compatible_brands.markup">mp42avc1</property>
  <property name="meta.attr.creation_time.markup">2014-08-28 16:52:11</property>
  <property name="seekable">1</property>
  <property name="meta.media.sample_aspect_num">1</property>
  <property name="meta.media.sample_aspect_den">1</property>
  <property name="aspect_ratio">1</property>
  <property name="audio_index">1</property>
  <property name="video_index">0</property>
  <property name="mlt_service">avformat</property>
  <property name="meta.media.frame_rate_num">30000</property>
  <property name="meta.media.frame_rate_den">1001</property>
  <property name="meta.media.colorspace">709</property>
  <property name="meta.media.width">1920</property>
  <property name="meta.media.height">1080</property>
  <property name="meta.media.top_field_first">0</property>
  <property name="meta.media.progressive">1</property>
 </producer>
 <producer in="0" out="869" id="51_2">
  <property name="mlt_type">producer</property>
  <property name="length">870</property>
  <property name="eof">pause</property>
  <property name="resource">Videos/EOTR Footage/IMGA0088.MP4</property>
  <property name="meta.media.nb_streams">2</property>
  <property name="meta.media.0.stream.type">video</property>
  <property name="meta.media.0.stream.frame_rate">29.97</property>
  <property name="meta.media.0.stream.sample_aspect_ratio">0</property>
  <property name="meta.media.0.codec.width">1920</property>
  <property name="meta.media.0.codec.height">1080</property>
  <property name="meta.media.0.codec.frame_rate">29.97</property>
  <property name="meta.media.0.codec.pix_fmt">yuvj420p</property>
  <property name="meta.media.0.codec.sample_aspect_ratio">1</property>
  <property name="meta.media.0.codec.colorspace">709</property>
  <property name="meta.media.0.codec.name">h264</property>
  <property name="meta.media.0.codec.long_name">H.264 / AVC / MPEG-4 AVC / MPEG-4 part 10</property>
  <property name="meta.media.0.codec.bit_rate">16914250</property>
  <property name="meta.attr.0.stream.creation_time.markup">2014-08-28 17:33:19</property>
  <property name="meta.attr.0.stream.language.markup">eng</property>
  <property name="meta.media.1.stream.type">audio</property>
  <property name="meta.media.1.codec.sample_fmt">fltp</property>
  <property name="meta.media.1.codec.sample_rate">48000</property>
  <property name="meta.media.1.codec.channels">2</property>
  <property name="meta.media.1.codec.name">aac</property>
  <property name="meta.media.1.codec.long_name">AAC (Advanced Audio Coding)</property>
  <property name="meta.media.1.codec.bit_rate">255298</property>
  <property name="meta.attr.1.stream.creation_time.markup">2014-08-28 17:33:19</property>
  <property name="meta.attr.1.stream.language.markup">eng</property>
  <property name="meta.attr.major_brand.markup">mp42</property>
  <property name="meta.attr.minor_version.markup">1</property>
  <property name="meta.attr.compatible_brands.markup">mp42avc1</property>
  <property name="meta.attr.creation_time.markup">2014-08-28 17:33:19</property>
  <property name="seekable">1</property>
  <property name="meta.media.sample_aspect_num">1</property>
  <property name="meta.media.sample_aspect_den">1</property>
  <property name="aspect_ratio">1</property>
  <property name="audio_index">1</property>
  <property name="video_index">0</property>
  <property name="mlt_service">avformat</property>
  <property name="meta.media.frame_rate_num">30000</property>
  <property name="meta.media.frame_rate_den">1001</property>
  <property name="meta.media.colorspace">709</property>
  <property name="meta.media.width">1920</property>
  <property name="meta.media.height">1080</property>
  <property name="meta.media.top_field_first">0</property>
  <property name="meta.media.progressive">1</property>
 </producer>
 <producer in="0" out="882" id="174_2">
  <property name="mlt_type">producer</property>
  <property name="length">883</property>
  <property name="eof">pause</property>
  <property name="resource">Videos/EOTR Footage/video-2014-08-31-17-52-09.mp4</property>
  <property name="meta.media.nb_streams">2</property>
  <property name="meta.media.0.stream.type">video</property>
  <property name="meta.media.0.stream.frame_rate">30.0431</property>
  <property name="meta.media.0.stream.sample_aspect_ratio">0</property>
  <property name="meta.media.0.codec.width">1920</property>
  <property name="meta.media.0.codec.height">1080</property>
  <property name="meta.media.0.codec.frame_rate">inf</property>
  <property name="meta.media.0.codec.pix_fmt">yuv420p</property>
  <property name="meta.media.0.codec.sample_aspect_ratio">0</property>
  <property name="meta.media.0.codec.colorspace">709</property>
  <property name="meta.media.0.codec.name">h264</property>
  <property name="meta.media.0.codec.long_name">H.264 / AVC / MPEG-4 AVC / MPEG-4 part 10</property>
  <property name="meta.media.0.codec.bit_rate">17000456</property>
  <property name="meta.attr.0.stream.language.markup">eng</property>
  <property name="meta.media.1.stream.type">audio</property>
  <property name="meta.media.1.codec.sample_fmt">fltp</property>
  <property name="meta.media.1.codec.sample_rate">16000</property>
  <property name="meta.media.1.codec.channels">1</property>
  <property name="meta.media.1.codec.name">aac</property>
  <property name="meta.media.1.codec.long_name">AAC (Advanced Audio Coding)</property>
  <property name="meta.media.1.codec.bit_rate">61196</property>
  <property name="meta.attr.1.stream.language.markup">eng</property>
  <property name="meta.attr.major_brand.markup">3gp4</property>
  <property name="meta.attr.minor_version.markup">768</property>
  <property name="meta.attr.compatible_brands.markup">3gp43gp6</property>
  <property name="seekable">1</property>
  <property name="meta.media.sample_aspect_num">1</property>
  <property name="meta.media.sample_aspect_den">1</property>
  <property name="aspect_ratio">1</property>
  <property name="audio_index">1</property>
  <property name="video_index">0</property>
  <property name="mlt_service">avformat</property>
  <property name="meta.media.frame_rate_num">691</property>
  <property name="meta.media.frame_rate_den">23</property>
  <property name="meta.media.colorspace">709</property>
  <property name="meta.media.width">1920</property>
  <property name="meta.media.height">1080</property>
  <property name="meta.media.top_field_first">0</property>
  <property name="meta.media.progressive">1</property>
 </producer>
 <producer in="0" out="883" id="6_2">
  <property name="mlt_type">producer</property>
  <property name="length">884</property>
  <property name="eof">pause</property>
  <property name="resource">Videos/EOTR Footage/20140829_102708.mp4</property>
  <property name="meta.media.nb_streams">2</property>
  <property name="meta.media.0.stream.type">video</property>
  <property name="meta.media.0.stream.frame_rate">29.8145</property>
  <property name="meta.media.0.stream.sample_aspect_ratio">0</property>
  <property name="meta.media.0.codec.width">1920</property>
  <property name="meta.media.0.codec.height">1080</property>
  <property name="meta.media.0.codec.frame_rate">inf</property>
  <property name="meta.media.0.codec.pix_fmt">yuv420p</property>
  <property name="meta.media.0.codec.sample_aspect_ratio">0</property>
  <property name="meta.media.0.codec.colorspace">709</property>
  <property name="meta.media.0.codec.name">h264</property>
  <property name="meta.media.0.codec.long_name">H.264 / AVC / MPEG-4 AVC / MPEG-4 part 10</property>
  <property name="meta.media.0.codec.bit_rate">16948505</property>
  <property name="meta.attr.0.stream.creation_time.markup">2014-08-29 09:27:38</property>
  <property name="meta.attr.0.stream.language.markup">eng</property>
  <property name="meta.media.1.stream.type">audio</property>
  <property name="meta.media.1.codec.sample_fmt">fltp</property>
  <property name="meta.media.1.codec.sample_rate">48000</property>
  <property name="meta.media.1.codec.channels">2</property>
  <property name="meta.media.1.codec.name">aac</property>
  <property name="meta.media.1.codec.long_name">AAC (Advanced Audio Coding)</property>
  <property name="meta.media.1.codec.bit_rate">128421</property>
  <property name="meta.attr.1.stream.creation_time.markup">2014-08-29 09:27:39</property>
  <property name="meta.attr.1.stream.language.markup">eng</property>
  <property name="meta.attr.major_brand.markup">isom</property>
  <property name="meta.attr.minor_version.markup">0</property>
  <property name="meta.attr.compatible_brands.markup">isom3gp4</property>
  <property name="meta.attr.creation_time.markup">2014-08-29 09:27:38</property>
  <property name="seekable">1</property>
  <property name="meta.media.sample_aspect_num">1</property>
  <property name="meta.media.sample_aspect_den">1</property>
  <property name="aspect_ratio">1</property>
  <property name="audio_index">1</property>
  <property name="video_index">0</property>
  <property name="mlt_service">avformat</property>
  <property name="meta.media.frame_rate_num">78210000</property>
  <property name="meta.media.frame_rate_den">2623217</property>
  <property name="meta.media.colorspace">709</property>
  <property name="meta.media.width">1920</property>
  <property name="meta.media.height">1080</property>
  <property name="meta.media.top_field_first">0</property>
  <property name="meta.media.progressive">1</property>
 </producer>
 <producer in="0" out="2012" id="9_2">
  <property name="mlt_type">producer</property>
  <property name="length">2013</property>
  <property name="eof">pause</property>
  <property name="resource">Videos/EOTR Footage/20140829_104453.mp4</property>
  <property name="meta.media.nb_streams">2</property>
  <property name="meta.media.0.stream.type">video</property>
  <property name="meta.media.0.stream.frame_rate">29.8012</property>
  <property name="meta.media.0.stream.sample_aspect_ratio">0</property>
  <property name="meta.media.0.codec.width">1920</property>
  <property name="meta.media.0.codec.height">1080</property>
  <property name="meta.media.0.codec.frame_rate">inf</property>
  <property name="meta.media.0.codec.pix_fmt">yuv420p</property>
  <property name="meta.media.0.codec.sample_aspect_ratio">0</property>
  <property name="meta.media.0.codec.colorspace">709</property>
  <property name="meta.media.0.codec.name">h264</property>
  <property name="meta.media.0.codec.long_name">H.264 / AVC / MPEG-4 AVC / MPEG-4 part 10</property>
  <property name="meta.media.0.codec.bit_rate">16939981</property>
  <property name="meta.attr.0.stream.creation_time.markup">2014-08-29 09:46:02</property>
  <property name="meta.attr.0.stream.language.markup">eng</property>
  <property name="meta.media.1.stream.type">audio</property>
  <property name="meta.media.1.codec.sample_fmt">fltp</property>
  <property name="meta.media.1.codec.sample_rate">48000</property>
  <property name="meta.media.1.codec.channels">2</property>
  <property name="meta.media.1.codec.name">aac</property>
  <property name="meta.media.1.codec.long_name">AAC (Advanced Audio Coding)</property>
  <property name="meta.media.1.codec.bit_rate">127696</property>
  <property name="meta.attr.1.stream.creation_time.markup">2014-08-29 09:46:02</property>
  <property name="meta.attr.1.stream.language.markup">eng</property>
  <property name="meta.attr.major_brand.markup">isom</property>
  <property name="meta.attr.minor_version.markup">0</property>
  <property name="meta.attr.compatible_brands.markup">isom3gp4</property>
  <property name="meta.attr.creation_time.markup">2014-08-29 09:46:02</property>
  <property name="seekable">1</property>
  <property name="meta.media.sample_aspect_num">1</property>
  <property name="meta.media.sample_aspect_den">1</property>
  <property name="aspect_ratio">1</property>
  <property name="audio_index">1</property>
  <property name="video_index">0</property>
  <property name="mlt_service">avformat</property>
  <property name="meta.media.frame_rate_num">3592800</property>
  <property name="meta.media.frame_rate_den">120559</property>
  <property name="meta.media.colorspace">709</property>
  <property name="meta.media.width">1920</property>
  <property name="meta.media.height">1080</property>
  <property name="meta.media.top_field_first">0</property>
  <property name="meta.media.progressive">1</property>
 </producer>
 <producer in="0" out="965" id="27_2">
  <property name="mlt_type">producer</property>
  <property name="length">966</property>
  <property name="eof">pause</property>
  <property name="resource">Videos/EOTR Footage/20140830_220831.mp4</property>
  <property name="meta.media.nb_streams">2</property>
  <property name="meta.media.0.stream.type">video</property>
  <property name="meta.media.0.stream.frame_rate">29.7949</property>
  <property name="meta.media.0.stream.sample_aspect_ratio">0</property>
  <property name="meta.media.0.codec.width">1920</property>
  <property name="meta.media.0.codec.height">1080</property>
  <property name="meta.media.0.codec.frame_rate">inf</property>
  <property name="meta.media.0.codec.pix_fmt">yuv420p</property>
  <property name="meta.media.0.codec.sample_aspect_ratio">0</property>
  <property name="meta.media.0.codec.colorspace">709</property>
  <property name="meta.media.0.codec.name">h264</property>
  <property name="meta.media.0.codec.long_name">H.264 / AVC / MPEG-4 AVC / MPEG-4 part 10</property>
  <property name="meta.media.0.codec.bit_rate">16817655</property>
  <property name="meta.attr.0.stream.creation_time.markup">2014-08-30 21:09:04</property>
  <property name="meta.attr.0.stream.language.markup">eng</property>
  <property name="meta.media.1.stream.type">audio</property>
  <property name="meta.media.1.codec.sample_fmt">fltp</property>
  <property name="meta.media.1.codec.sample_rate">48000</property>
  <property name="meta.media.1.codec.channels">2</property>
  <property name="meta.media.1.codec.name">aac</property>
  <property name="meta.media.1.codec.long_name">AAC (Advanced Audio Coding)</property>
  <property name="meta.media.1.codec.bit_rate">128210</property>
  <property name="meta.attr.1.stream.creation_time.markup">2014-08-30 21:09:04</property>
  <property name="meta.attr.1.stream.language.markup">eng</property>
  <property name="meta.attr.major_brand.markup">isom</property>
  <property name="meta.attr.minor_version.markup">0</property>
  <property name="meta.attr.compatible_brands.markup">isom3gp4</property>
  <property name="meta.attr.creation_time.markup">2014-08-30 21:09:04</property>
  <property name="seekable">1</property>
  <property name="meta.media.sample_aspect_num">1</property>
  <property name="meta.media.sample_aspect_den">1</property>
  <property name="aspect_ratio">1</property>
  <property name="audio_index">1</property>
  <property name="video_index">0</property>
  <property name="mlt_service">avformat</property>
  <property name="meta.media.frame_rate_num">17100000</property>
  <property name="meta.media.frame_rate_den">573923</property>
  <property name="meta.media.colorspace">709</property>
  <property name="meta.media.width">1920</property>
  <property name="meta.media.height">1080</property>
  <property name="meta.media.top_field_first">0</property>
  <property name="meta.media.progressive">1</property>
 </producer>
 <producer in="0" out="993" id="184_2">
  <property name="mlt_type">producer</property>
  <property name="length">994</property>
  <property name="eof">pause</property>
  <property name="resource">Videos/EOTR Footage/video-2014-08-31-20-51-30.mp4</property>
  <property name="meta.media.nb_streams">2</property>
  <property name="meta.media.0.stream.type">audio</property>
  <property name="meta.media.0.codec.sample_fmt">fltp</property>
  <property name="meta.media.0.codec.sample_rate">16000</property>
  <property name="meta.media.0.codec.channels">1</property>
  <property name="meta.media.0.codec.name">aac</property>
  <property name="meta.media.0.codec.long_name">AAC (Advanced Audio Coding)</property>
  <property name="meta.media.0.codec.bit_rate">62117</property>
  <property name="meta.attr.0.stream.language.markup">eng</property>
  <property name="meta.media.1.stream.type">video</property>
  <property name="meta.media.1.stream.frame_rate">24.1807</property>
  <property name="meta.media.1.stream.sample_aspect_ratio">0</property>
  <property name="meta.media.1.codec.width">1920</property>
  <property name="meta.media.1.codec.height">1080</property>
  <property name="meta.media.1.codec.frame_rate">inf</property>
  <property name="meta.media.1.codec.pix_fmt">yuv420p</property>
  <property name="meta.media.1.codec.sample_aspect_ratio">0</property>
  <property name="meta.media.1.codec.colorspace">709</property>
  <property name="meta.media.1.codec.name">h264</property>
  <property name="meta.media.1.codec.long_name">H.264 / AVC / MPEG-4 AVC / MPEG-4 part 10</property>
  <property name="meta.media.1.codec.bit_rate">13560260</property>
  <property name="meta.attr.1.stream.language.markup">eng</property>
  <property name="meta.attr.major_brand.markup">3gp4</property>
  <property name="meta.attr.minor_version.markup">768</property>
  <property name="meta.attr.compatible_brands.markup">3gp43gp6</property>
  <property name="seekable">1</property>
  <property name="meta.media.sample_aspect_num">1</property>
  <property name="meta.media.sample_aspect_den">1</property>
  <property name="aspect_ratio">1</property>
  <property name="audio_index">0</property>
  <property name="video_index">1</property>
  <property name="mlt_service">avformat</property>
  <property name="meta.media.frame_rate_num">266</property>
  <property name="meta.media.frame_rate_den">11</property>
  <property name="meta.media.colorspace">709</property>
  <property name="meta.media.width">1920</property>
  <property name="meta.media.height">1080</property>
  <property name="meta.media.top_field_first">0</property>
  <property name="meta.media.progressive">1</property>
 </producer>
 <producer in="0" out="395" id="113_2">
  <property name="mlt_type">producer</property>
  <property name="length">396</property>
  <property name="eof">pause</property>
  <property name="resource">Videos/EOTR Footage/video-2014-08-30-12-48-17.mp4</property>
  <property name="meta.media.nb_streams">2</property>
  <property name="meta.media.0.stream.type">video</property>
  <property name="meta.media.0.stream.frame_rate">30.0468</property>
  <property name="meta.media.0.stream.sample_aspect_ratio">0</property>
  <property name="meta.media.0.codec.width">1920</property>
  <property name="meta.media.0.codec.height">1080</property>
  <property name="meta.media.0.codec.frame_rate">inf</property>
  <property name="meta.media.0.codec.pix_fmt">yuv420p</property>
  <property name="meta.media.0.codec.sample_aspect_ratio">0</property>
  <property name="meta.media.0.codec.colorspace">709</property>
  <property name="meta.media.0.codec.name">h264</property>
  <property name="meta.media.0.codec.long_name">H.264 / AVC / MPEG-4 AVC / MPEG-4 part 10</property>
  <property name="meta.media.0.codec.bit_rate">17011038</property>
  <property name="meta.attr.0.stream.language.markup">eng</property>
  <property name="meta.media.1.stream.type">audio</property>
  <property name="meta.media.1.codec.sample_fmt">fltp</property>
  <property name="meta.media.1.codec.sample_rate">16000</property>
  <property name="meta.media.1.codec.channels">1</property>
  <property name="meta.media.1.codec.name">aac</property>
  <property name="meta.media.1.codec.long_name">AAC (Advanced Audio Coding)</property>
  <property name="meta.media.1.codec.bit_rate">59322</property>
  <property name="meta.attr.1.stream.language.markup">eng</property>
  <property name="meta.attr.major_brand.markup">3gp4</property>
  <property name="meta.attr.minor_version.markup">768</property>
  <property name="meta.attr.compatible_brands.markup">3gp43gp6</property>
  <property name="seekable">1</property>
  <property name="meta.media.sample_aspect_num">1</property>
  <property name="meta.media.sample_aspect_den">1</property>
  <property name="aspect_ratio">1</property>
  <property name="audio_index">1</property>
  <property name="video_index">0</property>
  <property name="mlt_service">avformat</property>
  <property name="meta.media.frame_rate_num">631</property>
  <property name="meta.media.frame_rate_den">21</property>
  <property name="meta.media.colorspace">709</property>
  <property name="meta.media.width">1920</property>
  <property name="meta.media.height">1080</property>
  <property name="meta.media.top_field_first">0</property>
  <property name="meta.media.progressive">1</property>
 </producer>
 <producer in="0" out="369" id="13_2">
  <property name="mlt_type">producer</property>
  <property name="length">370</property>
  <property name="eof">pause</property>
  <property name="resource">Videos/EOTR Footage/20140829_111824.mp4</property>
  <property name="meta.media.nb_streams">2</property>
  <property name="meta.media.0.stream.type">video</property>
  <property name="meta.media.0.stream.frame_rate">29.5201</property>
  <property name="meta.media.0.stream.sample_aspect_ratio">0</property>
  <property name="meta.media.0.codec.width">1920</property>
  <property name="meta.media.0.codec.height">1080</property>
  <property name="meta.media.0.codec.frame_rate">inf</property>
  <property name="meta.media.0.codec.pix_fmt">yuv420p</property>
  <property name="meta.media.0.codec.sample_aspect_ratio">0</property>
  <property name="meta.media.0.codec.colorspace">709</property>
  <property name="meta.media.0.codec.name">h264</property>
  <property name="meta.media.0.codec.long_name">H.264 / AVC / MPEG-4 AVC / MPEG-4 part 10</property>
  <property name="meta.media.0.codec.bit_rate">16845776</property>
  <property name="meta.attr.0.stream.creation_time.markup">2014-08-29 10:18:38</property>
  <property name="meta.attr.0.stream.language.markup">eng</property>
  <property name="meta.media.1.stream.type">audio</property>
  <property name="meta.media.1.codec.sample_fmt">fltp</property>
  <property name="meta.media.1.codec.sample_rate">48000</property>
  <property name="meta.media.1.codec.channels">2</property>
  <property name="meta.media.1.codec.name">aac</property>
  <property name="meta.media.1.codec.long_name">AAC (Advanced Audio Coding)</property>
  <property name="meta.media.1.codec.bit_rate">122690</property>
  <property name="meta.attr.1.stream.creation_time.markup">2014-08-29 10:18:38</property>
  <property name="meta.attr.1.stream.language.markup">eng</property>
  <property name="meta.attr.major_brand.markup">isom</property>
  <property name="meta.attr.minor_version.markup">0</property>
  <property name="meta.attr.compatible_brands.markup">isom3gp4</property>
  <property name="meta.attr.creation_time.markup">2014-08-29 10:18:38</property>
  <property name="seekable">1</property>
  <property name="meta.media.sample_aspect_num">1</property>
  <property name="meta.media.sample_aspect_den">1</property>
  <property name="aspect_ratio">1</property>
  <property name="audio_index">1</property>
  <property name="video_index">0</property>
  <property name="mlt_service">avformat</property>
  <property name="meta.media.frame_rate_num">15930000</property>
  <property name="meta.media.frame_rate_den">539633</property>
  <property name="meta.media.colorspace">709</property>
  <property name="meta.media.width">1920</property>
  <property name="meta.media.height">1080</property>
  <property name="meta.media.top_field_first">0</property>
  <property name="meta.media.progressive">1</property>
 </producer>
 <playlist id="playlist2">
  <entry in="0" out="67" producer="2_2">
   <filter out="34" id="fadein">
    <property name="track">0</property>
    <property name="window">75</property>
    <property name="max_gain">20dB</property>
    <property name="mlt_type">filter</property>
    <property name="mlt_service">volume</property>
    <property name="kdenlive_id">fadein</property>
    <property name="tag">volume</property>
    <property name="kdenlive_ix">1</property>
    <property name="gain">0</property>
    <property name="end">1</property>
   </filter>
  </entry>
  <blank length="213"/>
  <entry in="420" out="497" producer="29_2"/>
  <blank length="116"/>
  <entry in="950" out="1003" producer="34_2"/>
  <blank length="176"/>
  <entry in="125" out="262" producer="39_2"/>
  <blank length="61"/>
  <entry in="1027" out="1103" producer="40_2"/>
  <blank length="556"/>
  <entry in="59" out="168" producer="47_2"/>
  <blank length="323"/>
  <entry in="336" out="405" producer="51_2"/>
  <blank length="1286"/>
  <entry in="778" out="867" producer="174_2"/>
  <blank length="309"/>
  <entry in="181" out="223" producer="6_2"/>
  <blank length="171"/>
  <entry in="8" out="141" producer="9_2"/>
  <blank length="602"/>
  <entry in="127" out="212" producer="27_2"/>
  <blank length="193"/>
  <entry in="47" out="133" producer="184_2"/>
  <blank length="257"/>
  <entry in="193" out="252" producer="113_2"/>
  <blank length="222"/>
  <entry in="0" out="93" producer="13_2"/>
 </playlist>
 <producer in="0" out="359" id="2_1">
  <property name="mlt_type">producer</property>
  <property name="length">360</property>
  <property name="eof">pause</property>
  <property name="resource">Videos/EOTR Footage/20140828_133532.mp4</property>
  <property name="meta.media.nb_streams">2</property>
  <property name="meta.media.0.stream.type">video</property>
  <property name="meta.media.0.stream.frame_rate">30.0205</property>
  <property name="meta.media.0.stream.sample_aspect_ratio">0</property>
  <property name="meta.media.0.codec.width">1920</property>
  <property name="meta.media.0.codec.height">1080</property>
  <property name="meta.media.0.codec.frame_rate">inf</property>
  <property name="meta.media.0.codec.pix_fmt">yuv420p</property>
  <property name="meta.media.0.codec.sample_aspect_ratio">0</property>
  <property name="meta.media.0.codec.colorspace">709</property>
  <property name="meta.media.0.codec.name">h264</property>
  <property name="meta.media.0.codec.long_name">H.264 / AVC / MPEG-4 AVC / MPEG-4 part 10</property>
  <property name="meta.media.0.codec.bit_rate">17032429</property>
  <property name="meta.attr.0.stream.creation_time.markup">2014-08-28 12:35:45</property>
  <property name="meta.attr.0.stream.language.markup">eng</property>
  <property name="meta.media.1.stream.type">audio</property>
  <property name="meta.media.1.codec.sample_fmt">fltp</property>
  <property name="meta.media.1.codec.sample_rate">48000</property>
  <property name="meta.media.1.codec.channels">2</property>
  <property name="meta.media.1.codec.name">aac</property>
  <property name="meta.media.1.codec.long_name">AAC (Advanced Audio Coding)</property>
  <property name="meta.media.1.codec.bit_rate">124166</property>
  <property name="meta.attr.1.stream.creation_time.markup">2014-08-28 12:35:45</property>
  <property name="meta.attr.1.stream.language.markup">eng</property>
  <property name="meta.attr.major_brand.markup">isom</property>
  <property name="meta.attr.minor_version.markup">0</property>
  <property name="meta.attr.compatible_brands.markup">isom3gp4</property>
  <property name="meta.attr.creation_time.markup">2014-08-28 12:35:45</property>
  <property name="seekable">1</property>
  <property name="meta.media.sample_aspect_num">1</property>
  <property name="meta.media.sample_aspect_den">1</property>
  <property name="aspect_ratio">1</property>
  <property name="audio_index">1</property>
  <property name="video_index">0</property>
  <property name="mlt_service">avformat</property>
  <property name="meta.media.frame_rate_num">1274400</property>
  <property name="meta.media.frame_rate_den">42451</property>
  <property name="meta.media.colorspace">709</property>
  <property name="meta.media.width">1920</property>
  <property name="meta.media.height">1080</property>
  <property name="meta.media.top_field_first">0</property>
  <property name="meta.media.progressive">1</property>
 </producer>
 <producer in="0" out="1770" id="3_1">
  <property name="mlt_type">producer</property>
  <property name="length">1771</property>
  <property name="eof">pause</property>
  <property name="resource">Videos/EOTR Footage/20140828_143343.mp4</property>
  <property name="meta.media.nb_streams">2</property>
  <property name="meta.media.0.stream.type">video</property>
  <property name="meta.media.0.stream.frame_rate">29.8497</property>
  <property name="meta.media.0.stream.sample_aspect_ratio">0</property>
  <property name="meta.media.0.codec.width">1920</property>
  <property name="meta.media.0.codec.height">1080</property>
  <property name="meta.media.0.codec.frame_rate">inf</property>
  <property name="meta.media.0.codec.pix_fmt">yuv420p</property>
  <property name="meta.media.0.codec.sample_aspect_ratio">0</property>
  <property name="meta.media.0.codec.colorspace">709</property>
  <property name="meta.media.0.codec.name">h264</property>
  <property name="meta.media.0.codec.long_name">H.264 / AVC / MPEG-4 AVC / MPEG-4 part 10</property>
  <property name="meta.media.0.codec.bit_rate">16957604</property>
  <property name="meta.attr.0.stream.creation_time.markup">2014-08-28 13:34:43</property>
  <property name="meta.attr.0.stream.language.markup">eng</property>
  <property name="meta.media.1.stream.type">audio</property>
  <property name="meta.media.1.codec.sample_fmt">fltp</property>
  <property name="meta.media.1.codec.sample_rate">48000</property>
  <property name="meta.media.1.codec.channels">2</property>
  <property name="meta.media.1.codec.name">aac</property>
  <property name="meta.media.1.codec.long_name">AAC (Advanced Audio Coding)</property>
  <property name="meta.media.1.codec.bit_rate">126187</property>
  <property name="meta.attr.1.stream.creation_time.markup">2014-08-28 13:34:43</property>
  <property name="meta.attr.1.stream.language.markup">eng</property>
  <property name="meta.attr.major_brand.markup">isom</property>
  <property name="meta.attr.minor_version.markup">0</property>
  <property name="meta.attr.compatible_brands.markup">isom3gp4</property>
  <property name="meta.attr.creation_time.markup">2014-08-28 13:34:43</property>
  <property name="seekable">1</property>
  <property name="meta.media.sample_aspect_num">1</property>
  <property name="meta.media.sample_aspect_den">1</property>
  <property name="aspect_ratio">1</property>
  <property name="audio_index">1</property>
  <property name="video_index">0</property>
  <property name="mlt_service">avformat</property>
  <property name="meta.media.frame_rate_num">2469375</property>
  <property name="meta.media.frame_rate_den">82727</property>
  <property name="meta.media.colorspace">709</property>
  <property name="meta.media.width">1920</property>
  <property name="meta.media.height">1080</property>
  <property name="meta.media.top_field_first">0</property>
  <property name="meta.media.progressive">1</property>
 </producer>
 <producer in="0" out="1348" id="33_1">
  <property name="mlt_type">producer</property>
  <property name="length">1349</property>
  <property name="eof">pause</property>
  <property name="resource">Videos/EOTR Footage/IMGA0070.MP4</property>
  <property name="meta.media.nb_streams">2</property>
  <property name="meta.media.0.stream.type">video</property>
  <property name="meta.media.0.stream.frame_rate">29.97</property>
  <property name="meta.media.0.stream.sample_aspect_ratio">0</property>
  <property name="meta.media.0.codec.width">1920</property>
  <property name="meta.media.0.codec.height">1080</property>
  <property name="meta.media.0.codec.frame_rate">29.97</property>
  <property name="meta.media.0.codec.pix_fmt">yuvj420p</property>
  <property name="meta.media.0.codec.sample_aspect_ratio">1</property>
  <property name="meta.media.0.codec.colorspace">709</property>
  <property name="meta.media.0.codec.name">h264</property>
  <property name="meta.media.0.codec.long_name">H.264 / AVC / MPEG-4 AVC / MPEG-4 part 10</property>
  <property name="meta.media.0.codec.bit_rate">15736125</property>
  <property name="meta.attr.0.stream.creation_time.markup">2014-08-28 14:55:05</property>
  <property name="meta.attr.0.stream.language.markup">eng</property>
  <property name="meta.media.1.stream.type">audio</property>
  <property name="meta.media.1.codec.sample_fmt">fltp</property>
  <property name="meta.media.1.codec.sample_rate">48000</property>
  <property name="meta.media.1.codec.channels">2</property>
  <property name="meta.media.1.codec.name">aac</property>
  <property name="meta.media.1.codec.long_name">AAC (Advanced Audio Coding)</property>
  <property name="meta.media.1.codec.bit_rate">255332</property>
  <property name="meta.attr.1.stream.creation_time.markup">2014-08-28 14:55:05</property>
  <property name="meta.attr.1.stream.language.markup">eng</property>
  <property name="meta.attr.major_brand.markup">mp42</property>
  <property name="meta.attr.minor_version.markup">1</property>
  <property name="meta.attr.compatible_brands.markup">mp42avc1</property>
  <property name="meta.attr.creation_time.markup">2014-08-28 14:55:05</property>
  <property name="seekable">1</property>
  <property name="meta.media.sample_aspect_num">1</property>
  <property name="meta.media.sample_aspect_den">1</property>
  <property name="aspect_ratio">1</property>
  <property name="audio_index">1</property>
  <property name="video_index">0</property>
  <property name="mlt_service">avformat</property>
  <property name="meta.media.frame_rate_num">30000</property>
  <property name="meta.media.frame_rate_den">1001</property>
  <property name="meta.media.colorspace">709</property>
  <property name="meta.media.width">1920</property>
  <property name="meta.media.height">1080</property>
  <property name="meta.media.top_field_first">0</property>
  <property name="meta.media.progressive">1</property>
 </producer>
 <producer in="0" out="1679" id="34_1">
  <property name="mlt_type">producer</property>
  <property name="length">1680</property>
  <property name="eof">pause</property>
  <property name="resource">Videos/EOTR Footage/IMGA0071.MP4</property>
  <property name="meta.media.nb_streams">2</property>
  <property name="meta.media.0.stream.type">video</property>
  <property name="meta.media.0.stream.frame_rate">29.97</property>
  <property name="meta.media.0.stream.sample_aspect_ratio">0</property>
  <property name="meta.media.0.codec.width">1920</property>
  <property name="meta.media.0.codec.height">1080</property>
  <property name="meta.media.0.codec.frame_rate">29.97</property>
  <property name="meta.media.0.codec.pix_fmt">yuvj420p</property>
  <property name="meta.media.0.codec.sample_aspect_ratio">1</property>
  <property name="meta.media.0.codec.colorspace">709</property>
  <property name="meta.media.0.codec.name">h264</property>
  <property name="meta.media.0.codec.long_name">H.264 / AVC / MPEG-4 AVC / MPEG-4 part 10</property>
  <property name="meta.media.0.codec.bit_rate">16174355</property>
  <property name="meta.attr.0.stream.creation_time.markup">2014-08-28 15:19:04</property>
  <property name="meta.attr.0.stream.language.markup">eng</property>
  <property name="meta.media.1.stream.type">audio</property>
  <property name="meta.media.1.codec.sample_fmt">fltp</property>
  <property name="meta.media.1.codec.sample_rate">48000</property>
  <property name="meta.media.1.codec.channels">2</property>
  <property name="meta.media.1.codec.name">aac</property>
  <property name="meta.media.1.codec.long_name">AAC (Advanced Audio Coding)</property>
  <property name="meta.media.1.codec.bit_rate">255330</property>
  <property name="meta.attr.1.stream.creation_time.markup">2014-08-28 15:19:04</property>
  <property name="meta.attr.1.stream.language.markup">eng</property>
  <property name="meta.attr.major_brand.markup">mp42</property>
  <property name="meta.attr.minor_version.markup">1</property>
  <property name="meta.attr.compatible_brands.markup">mp42avc1</property>
  <property name="meta.attr.creation_time.markup">2014-08-28 15:19:04</property>
  <property name="seekable">1</property>
  <property name="meta.media.sample_aspect_num">1</property>
  <property name="meta.media.sample_aspect_den">1</property>
  <property name="aspect_ratio">1</property>
  <property name="audio_index">1</property>
  <property name="video_index">0</property>
  <property name="mlt_service">avformat</property>
  <property name="meta.media.frame_rate_num">30000</property>
  <property name="meta.media.frame_rate_den">1001</property>
  <property name="meta.media.colorspace">709</property>
  <property name="meta.media.width">1920</property>
  <property name="meta.media.height">1080</property>
  <property name="meta.media.top_field_first">0</property>
  <property name="meta.media.progressive">1</property>
 </producer>
 <producer in="0" out="2129" id="40_1">
  <property name="mlt_type">producer</property>
  <property name="length">2130</property>
  <property name="eof">pause</property>
  <property name="resource">Videos/EOTR Footage/IMGA0077.MP4</property>
  <property name="meta.media.nb_streams">2</property>
  <property name="meta.media.0.stream.type">video</property>
  <property name="meta.media.0.stream.frame_rate">29.97</property>
  <property name="meta.media.0.stream.sample_aspect_ratio">0</property>
  <property name="meta.media.0.codec.width">1920</property>
  <property name="meta.media.0.codec.height">1080</property>
  <property name="meta.media.0.codec.frame_rate">29.97</property>
  <property name="meta.media.0.codec.pix_fmt">yuvj420p</property>
  <property name="meta.media.0.codec.sample_aspect_ratio">1</property>
  <property name="meta.media.0.codec.colorspace">709</property>
  <property name="meta.media.0.codec.name">h264</property>
  <property name="meta.media.0.codec.long_name">H.264 / AVC / MPEG-4 AVC / MPEG-4 part 10</property>
  <property name="meta.media.0.codec.bit_rate">15974066</property>
  <property name="meta.attr.0.stream.creation_time.markup">2014-08-28 15:56:35</property>
  <property name="meta.attr.0.stream.language.markup">eng</property>
  <property name="meta.media.1.stream.type">audio</property>
  <property name="meta.media.1.codec.sample_fmt">fltp</property>
  <property name="meta.media.1.codec.sample_rate">48000</property>
  <property name="meta.media.1.codec.channels">2</property>
  <property name="meta.media.1.codec.name">aac</property>
  <property name="meta.media.1.codec.long_name">AAC (Advanced Audio Coding)</property>
  <property name="meta.media.1.codec.bit_rate">255353</property>
  <property name="meta.attr.1.stream.creation_time.markup">2014-08-28 15:56:35</property>
  <property name="meta.attr.1.stream.language.markup">eng</property>
  <property name="meta.attr.major_brand.markup">mp42</property>
  <property name="meta.attr.minor_version.markup">1</property>
  <property name="meta.attr.compatible_brands.markup">mp42avc1</property>
  <property name="meta.attr.creation_time.markup">2014-08-28 15:56:35</property>
  <property name="seekable">1</property>
  <property name="meta.media.sample_aspect_num">1</property>
  <property name="meta.media.sample_aspect_den">1</property>
  <property name="aspect_ratio">1</property>
  <property name="audio_index">1</property>
  <property name="video_index">0</property>
  <property name="mlt_service">avformat</property>
  <property name="meta.media.frame_rate_num">30000</property>
  <property name="meta.media.frame_rate_den">1001</property>
  <property name="meta.media.colorspace">709</property>
  <property name="meta.media.width">1920</property>
  <property name="meta.media.height">1080</property>
  <property name="meta.media.top_field_first">0</property>
  <property name="meta.media.progressive">1</property>
 </producer>
 <producer in="0" out="568" id="41_1">
  <property name="mlt_type">producer</property>
  <property name="length">569</property>
  <property name="eof">pause</property>
  <property name="resource">Videos/EOTR Footage/IMGA0078.MP4</property>
  <property name="meta.media.nb_streams">2</property>
  <property name="meta.media.0.stream.type">video</property>
  <property name="meta.media.0.stream.frame_rate">29.97</property>
  <property name="meta.media.0.stream.sample_aspect_ratio">0</property>
  <property name="meta.media.0.codec.width">1920</property>
  <property name="meta.media.0.codec.height">1080</property>
  <property name="meta.media.0.codec.frame_rate">29.97</property>
  <property name="meta.media.0.codec.pix_fmt">yuvj420p</property>
  <property name="meta.media.0.codec.sample_aspect_ratio">1</property>
  <property name="meta.media.0.codec.colorspace">709</property>
  <property name="meta.media.0.codec.name">h264</property>
  <property name="meta.media.0.codec.long_name">H.264 / AVC / MPEG-4 AVC / MPEG-4 part 10</property>
  <property name="meta.media.0.codec.bit_rate">16164712</property>
  <property name="meta.attr.0.stream.creation_time.markup">2014-08-28 16:02:41</property>
  <property name="meta.attr.0.stream.language.markup">eng</property>
  <property name="meta.media.1.stream.type">audio</property>
  <property name="meta.media.1.codec.sample_fmt">fltp</property>
  <property name="meta.media.1.codec.sample_rate">48000</property>
  <property name="meta.media.1.codec.channels">2</property>
  <property name="meta.media.1.codec.name">aac</property>
  <property name="meta.media.1.codec.long_name">AAC (Advanced Audio Coding)</property>
  <property name="meta.media.1.codec.bit_rate">255284</property>
  <property name="meta.attr.1.stream.creation_time.markup">2014-08-28 16:02:41</property>
  <property name="meta.attr.1.stream.language.markup">eng</property>
  <property name="meta.attr.major_brand.markup">mp42</property>
  <property name="meta.attr.minor_version.markup">1</property>
  <property name="meta.attr.compatible_brands.markup">mp42avc1</property>
  <property name="meta.attr.creation_time.markup">2014-08-28 16:02:41</property>
  <property name="seekable">1</property>
  <property name="meta.media.sample_aspect_num">1</property>
  <property name="meta.media.sample_aspect_den">1</property>
  <property name="aspect_ratio">1</property>
  <property name="audio_index">1</property>
  <property name="video_index">0</property>
  <property name="mlt_service">avformat</property>
  <property name="meta.media.frame_rate_num">30000</property>
  <property name="meta.media.frame_rate_den">1001</property>
  <property name="meta.media.colorspace">709</property>
  <property name="meta.media.width">1920</property>
  <property name="meta.media.height">1080</property>
  <property name="meta.media.top_field_first">0</property>
  <property name="meta.media.progressive">1</property>
 </producer>
 <producer in="0" out="1348" id="43_1">
  <property name="mlt_type">producer</property>
  <property name="length">1349</property>
  <property name="eof">pause</property>
  <property name="resource">Videos/EOTR Footage/IMGA0080.MP4</property>
  <property name="meta.media.nb_streams">2</property>
  <property name="meta.media.0.stream.type">video</property>
  <property name="meta.media.0.stream.frame_rate">29.97</property>
  <property name="meta.media.0.stream.sample_aspect_ratio">0</property>
  <property name="meta.media.0.codec.width">1920</property>
  <property name="meta.media.0.codec.height">1080</property>
  <property name="meta.media.0.codec.frame_rate">29.97</property>
  <property name="meta.media.0.codec.pix_fmt">yuvj420p</property>
  <property name="meta.media.0.codec.sample_aspect_ratio">1</property>
  <property name="meta.media.0.codec.colorspace">709</property>
  <property name="meta.media.0.codec.name">h264</property>
  <property name="meta.media.0.codec.long_name">H.264 / AVC / MPEG-4 AVC / MPEG-4 part 10</property>
  <property name="meta.media.0.codec.bit_rate">15936653</property>
  <property name="meta.attr.0.stream.creation_time.markup">2014-08-28 16:14:01</property>
  <property name="meta.attr.0.stream.language.markup">eng</property>
  <property name="meta.media.1.stream.type">audio</property>
  <property name="meta.media.1.codec.sample_fmt">fltp</property>
  <property name="meta.media.1.codec.sample_rate">48000</property>
  <property name="meta.media.1.codec.channels">2</property>
  <property name="meta.media.1.codec.name">aac</property>
  <property name="meta.media.1.codec.long_name">AAC (Advanced Audio Coding)</property>
  <property name="meta.media.1.codec.bit_rate">255314</property>
  <property name="meta.attr.1.stream.creation_time.markup">2014-08-28 16:14:01</property>
  <property name="meta.attr.1.stream.language.markup">eng</property>
  <property name="meta.attr.major_brand.markup">mp42</property>
  <property name="meta.attr.minor_version.markup">1</property>
  <property name="meta.attr.compatible_brands.markup">mp42avc1</property>
  <property name="meta.attr.creation_time.markup">2014-08-28 16:14:01</property>
  <property name="seekable">1</property>
  <property name="meta.media.sample_aspect_num">1</property>
  <property name="meta.media.sample_aspect_den">1</property>
  <property name="aspect_ratio">1</property>
  <property name="audio_index">1</property>
  <property name="video_index">0</property>
  <property name="mlt_service">avformat</property>
  <property name="meta.media.frame_rate_num">30000</property>
  <property name="meta.media.frame_rate_den">1001</property>
  <property name="meta.media.colorspace">709</property>
  <property name="meta.media.width">1920</property>
  <property name="meta.media.height">1080</property>
  <property name="meta.media.top_field_first">0</property>
  <property name="meta.media.progressive">1</property>
 </producer>
 <producer in="0" out="389" id="46_1">
  <property name="mlt_type">producer</property>
  <property name="length">390</property>
  <property name="eof">pause</property>
  <property name="resource">Videos/EOTR Footage/IMGA0083.MP4</property>
  <property name="meta.media.nb_streams">2</property>
  <property name="meta.media.0.stream.type">video</property>
  <property name="meta.media.0.stream.frame_rate">29.97</property>
  <property name="meta.media.0.stream.sample_aspect_ratio">0</property>
  <property name="meta.media.0.codec.width">1920</property>
  <property name="meta.media.0.codec.height">1080</property>
  <property name="meta.media.0.codec.frame_rate">29.97</property>
  <property name="meta.media.0.codec.pix_fmt">yuvj420p</property>
  <property name="meta.media.0.codec.sample_aspect_ratio">1</property>
  <property name="meta.media.0.codec.colorspace">709</property>
  <property name="meta.media.0.codec.name">h264</property>
  <property name="meta.media.0.codec.long_name">H.264 / AVC / MPEG-4 AVC / MPEG-4 part 10</property>
  <property name="meta.media.0.codec.bit_rate">16661157</property>
  <property name="meta.attr.0.stream.creation_time.markup">2014-08-28 16:30:34</property>
  <property name="meta.attr.0.stream.language.markup">eng</property>
  <property name="meta.media.1.stream.type">audio</property>
  <property name="meta.media.1.codec.sample_fmt">fltp</property>
  <property name="meta.media.1.codec.sample_rate">48000</property>
  <property name="meta.media.1.codec.channels">2</property>
  <property name="meta.media.1.codec.name">aac</property>
  <property name="meta.media.1.codec.long_name">AAC (Advanced Audio Coding)</property>
  <property name="meta.media.1.codec.bit_rate">255080</property>
  <property name="meta.attr.1.stream.creation_time.markup">2014-08-28 16:30:34</property>
  <property name="meta.attr.1.stream.language.markup">eng</property>
  <property name="meta.attr.major_brand.markup">mp42</property>
  <property name="meta.attr.minor_version.markup">1</property>
  <property name="meta.attr.compatible_brands.markup">mp42avc1</property>
  <property name="meta.attr.creation_time.markup">2014-08-28 16:30:34</property>
  <property name="seekable">1</property>
  <property name="meta.media.sample_aspect_num">1</property>
  <property name="meta.media.sample_aspect_den">1</property>
  <property name="aspect_ratio">1</property>
  <property name="audio_index">1</property>
  <property name="video_index">0</property>
  <property name="mlt_service">avformat</property>
  <property name="meta.media.frame_rate_num">30000</property>
  <property name="meta.media.frame_rate_den">1001</property>
  <property name="meta.media.colorspace">709</property>
  <property name="meta.media.width">1920</property>
  <property name="meta.media.height">1080</property>
  <property name="meta.media.top_field_first">0</property>
  <property name="meta.media.progressive">1</property>
 </producer>
 <producer in="0" out="258" id="132_1">
  <property name="mlt_type">producer</property>
  <property name="length">259</property>
  <property name="eof">pause</property>
  <property name="resource">Videos/EOTR Footage/video-2014-08-30-16-54-03.mp4</property>
  <property name="meta.media.nb_streams">2</property>
  <property name="meta.media.0.stream.type">video</property>
  <property name="meta.media.0.stream.frame_rate">30.037</property>
  <property name="meta.media.0.stream.sample_aspect_ratio">0</property>
  <property name="meta.media.0.codec.width">1920</property>
  <property name="meta.media.0.codec.height">1080</property>
  <property name="meta.media.0.codec.frame_rate">inf</property>
  <property name="meta.media.0.codec.pix_fmt">yuv420p</property>
  <property name="meta.media.0.codec.sample_aspect_ratio">0</property>
  <property name="meta.media.0.codec.colorspace">709</property>
  <property name="meta.media.0.codec.name">h264</property>
  <property name="meta.media.0.codec.long_name">H.264 / AVC / MPEG-4 AVC / MPEG-4 part 10</property>
  <property name="meta.media.0.codec.bit_rate">16920183</property>
  <property name="meta.attr.0.stream.language.markup">eng</property>
  <property name="meta.media.1.stream.type">audio</property>
  <property name="meta.media.1.codec.sample_fmt">fltp</property>
  <property name="meta.media.1.codec.sample_rate">16000</property>
  <property name="meta.media.1.codec.channels">1</property>
  <property name="meta.media.1.codec.name">aac</property>
  <property name="meta.media.1.codec.long_name">AAC (Advanced Audio Coding)</property>
  <property name="meta.media.1.codec.bit_rate">58182</property>
  <property name="meta.attr.1.stream.language.markup">eng</property>
  <property name="meta.attr.major_brand.markup">3gp4</property>
  <property name="meta.attr.minor_version.markup">768</property>
  <property name="meta.attr.compatible_brands.markup">3gp43gp6</property>
  <property name="seekable">1</property>
  <property name="meta.media.sample_aspect_num">1</property>
  <property name="meta.media.sample_aspect_den">1</property>
  <property name="aspect_ratio">1</property>
  <property name="audio_index">1</property>
  <property name="video_index">0</property>
  <property name="mlt_service">avformat</property>
  <property name="meta.media.frame_rate_num">811</property>
  <property name="meta.media.frame_rate_den">27</property>
  <property name="meta.media.colorspace">709</property>
  <property name="meta.media.width">1920</property>
  <property name="meta.media.height">1080</property>
  <property name="meta.media.top_field_first">0</property>
  <property name="meta.media.progressive">1</property>
 </producer>
 <producer in="0" out="299" id="48_1">
  <property name="mlt_type">producer</property>
  <property name="length">300</property>
  <property name="eof">pause</property>
  <property name="resource">Videos/EOTR Footage/IMGA0085.MP4</property>
  <property name="meta.media.nb_streams">2</property>
  <property name="meta.media.0.stream.type">video</property>
  <property name="meta.media.0.stream.frame_rate">29.97</property>
  <property name="meta.media.0.stream.sample_aspect_ratio">0</property>
  <property name="meta.media.0.codec.width">1920</property>
  <property name="meta.media.0.codec.height">1080</property>
  <property name="meta.media.0.codec.frame_rate">29.97</property>
  <property name="meta.media.0.codec.pix_fmt">yuvj420p</property>
  <property name="meta.media.0.codec.sample_aspect_ratio">1</property>
  <property name="meta.media.0.codec.colorspace">709</property>
  <property name="meta.media.0.codec.name">h264</property>
  <property name="meta.media.0.codec.long_name">H.264 / AVC / MPEG-4 AVC / MPEG-4 part 10</property>
  <property name="meta.media.0.codec.bit_rate">16588947</property>
  <property name="meta.attr.0.stream.creation_time.markup">2014-08-28 16:56:26</property>
  <property name="meta.attr.0.stream.language.markup">eng</property>
  <property name="meta.media.1.stream.type">audio</property>
  <property name="meta.media.1.codec.sample_fmt">fltp</property>
  <property name="meta.media.1.codec.sample_rate">48000</property>
  <property name="meta.media.1.codec.channels">2</property>
  <property name="meta.media.1.codec.name">aac</property>
  <property name="meta.media.1.codec.long_name">AAC (Advanced Audio Coding)</property>
  <property name="meta.media.1.codec.bit_rate">255136</property>
  <property name="meta.attr.1.stream.creation_time.markup">2014-08-28 16:56:26</property>
  <property name="meta.attr.1.stream.language.markup">eng</property>
  <property name="meta.attr.major_brand.markup">mp42</property>
  <property name="meta.attr.minor_version.markup">1</property>
  <property name="meta.attr.compatible_brands.markup">mp42avc1</property>
  <property name="meta.attr.creation_time.markup">2014-08-28 16:56:26</property>
  <property name="seekable">1</property>
  <property name="meta.media.sample_aspect_num">1</property>
  <property name="meta.media.sample_aspect_den">1</property>
  <property name="aspect_ratio">1</property>
  <property name="audio_index">1</property>
  <property name="video_index">0</property>
  <property name="mlt_service">avformat</property>
  <property name="meta.media.frame_rate_num">30000</property>
  <property name="meta.media.frame_rate_den">1001</property>
  <property name="meta.media.colorspace">709</property>
  <property name="meta.media.width">1920</property>
  <property name="meta.media.height">1080</property>
  <property name="meta.media.top_field_first">0</property>
  <property name="meta.media.progressive">1</property>
 </producer>
 <producer in="0" out="1259" id="50_1">
  <property name="mlt_type">producer</property>
  <property name="length">1260</property>
  <property name="eof">pause</property>
  <property name="resource">Videos/EOTR Footage/IMGA0087.MP4</property>
  <property name="meta.media.nb_streams">2</property>
  <property name="meta.media.0.stream.type">video</property>
  <property name="meta.media.0.stream.frame_rate">29.97</property>
  <property name="meta.media.0.stream.sample_aspect_ratio">0</property>
  <property name="meta.media.0.codec.width">1920</property>
  <property name="meta.media.0.codec.height">1080</property>
  <property name="meta.media.0.codec.frame_rate">29.97</property>
  <property name="meta.media.0.codec.pix_fmt">yuvj420p</property>
  <property name="meta.media.0.codec.sample_aspect_ratio">1</property>
  <property name="meta.media.0.codec.colorspace">709</property>
  <property name="meta.media.0.codec.name">h264</property>
  <property name="meta.media.0.codec.long_name">H.264 / AVC / MPEG-4 AVC / MPEG-4 part 10</property>
  <property name="meta.media.0.codec.bit_rate">15193973</property>
  <property name="meta.attr.0.stream.creation_time.markup">2014-08-28 17:25:13</property>
  <property name="meta.attr.0.stream.language.markup">eng</property>
  <property name="meta.media.1.stream.type">audio</property>
  <property name="meta.media.1.codec.sample_fmt">fltp</property>
  <property name="meta.media.1.codec.sample_rate">48000</property>
  <property name="meta.media.1.codec.channels">2</property>
  <property name="meta.media.1.codec.name">aac</property>
  <property name="meta.media.1.codec.long_name">AAC (Advanced Audio Coding)</property>
  <property name="meta.media.1.codec.bit_rate">255310</property>
  <property name="meta.attr.1.stream.creation_time.markup">2014-08-28 17:25:13</property>
  <property name="meta.attr.1.stream.language.markup">eng</property>
  <property name="meta.attr.major_brand.markup">mp42</property>
  <property name="meta.attr.minor_version.markup">1</property>
  <property name="meta.attr.compatible_brands.markup">mp42avc1</property>
  <property name="meta.attr.creation_time.markup">2014-08-28 17:25:13</property>
  <property name="seekable">1</property>
  <property name="meta.media.sample_aspect_num">1</property>
  <property name="meta.media.sample_aspect_den">1</property>
  <property name="aspect_ratio">1</property>
  <property name="audio_index">1</property>
  <property name="video_index">0</property>
  <property name="mlt_service">avformat</property>
  <property name="meta.media.frame_rate_num">30000</property>
  <property name="meta.media.frame_rate_den">1001</property>
  <property name="meta.media.colorspace">709</property>
  <property name="meta.media.width">1920</property>
  <property name="meta.media.height">1080</property>
  <property name="meta.media.top_field_first">0</property>
  <property name="meta.media.progressive">1</property>
 </producer>
 <producer in="0" out="689" id="52_1">
  <property name="mlt_type">producer</property>
  <property name="length">690</property>
  <property name="eof">pause</property>
  <property name="resource">Videos/EOTR Footage/IMGA0089.MP4</property>
  <property name="meta.media.nb_streams">2</property>
  <property name="meta.media.0.stream.type">video</property>
  <property name="meta.media.0.stream.frame_rate">29.97</property>
  <property name="meta.media.0.stream.sample_aspect_ratio">0</property>
  <property name="meta.media.0.codec.width">1920</property>
  <property name="meta.media.0.codec.height">1080</property>
  <property name="meta.media.0.codec.frame_rate">29.97</property>
  <property name="meta.media.0.codec.pix_fmt">yuvj420p</property>
  <property name="meta.media.0.codec.sample_aspect_ratio">1</property>
  <property name="meta.media.0.codec.colorspace">709</property>
  <property name="meta.media.0.codec.name">h264</property>
  <property name="meta.media.0.codec.long_name">H.264 / AVC / MPEG-4 AVC / MPEG-4 part 10</property>
  <property name="meta.media.0.codec.bit_rate">15131562</property>
  <property name="meta.attr.0.stream.creation_time.markup">2014-08-28 18:07:47</property>
  <property name="meta.attr.0.stream.language.markup">eng</property>
  <property name="meta.media.1.stream.type">audio</property>
  <property name="meta.media.1.codec.sample_fmt">fltp</property>
  <property name="meta.media.1.codec.sample_rate">48000</property>
  <property name="meta.media.1.codec.channels">2</property>
  <property name="meta.media.1.codec.name">aac</property>
  <property name="meta.media.1.codec.long_name">AAC (Advanced Audio Coding)</property>
  <property name="meta.media.1.codec.bit_rate">255270</property>
  <property name="meta.attr.1.stream.creation_time.markup">2014-08-28 18:07:47</property>
  <property name="meta.attr.1.stream.language.markup">eng</property>
  <property name="meta.attr.major_brand.markup">mp42</property>
  <property name="meta.attr.minor_version.markup">1</property>
  <property name="meta.attr.compatible_brands.markup">mp42avc1</property>
  <property name="meta.attr.creation_time.markup">2014-08-28 18:07:47</property>
  <property name="seekable">1</property>
  <property name="meta.media.sample_aspect_num">1</property>
  <property name="meta.media.sample_aspect_den">1</property>
  <property name="aspect_ratio">1</property>
  <property name="audio_index">1</property>
  <property name="video_index">0</property>
  <property name="mlt_service">avformat</property>
  <property name="meta.media.frame_rate_num">30000</property>
  <property name="meta.media.frame_rate_den">1001</property>
  <property name="meta.media.colorspace">709</property>
  <property name="meta.media.width">1920</property>
  <property name="meta.media.height">1080</property>
  <property name="meta.media.top_field_first">0</property>
  <property name="meta.media.progressive">1</property>
 </producer>
 <producer in="0" out="1679" id="54_1">
  <property name="mlt_type">producer</property>
  <property name="length">1680</property>
  <property name="eof">pause</property>
  <property name="resource">Videos/EOTR Footage/IMGA0091.MP4</property>
  <property name="meta.media.nb_streams">2</property>
  <property name="meta.media.0.stream.type">video</property>
  <property name="meta.media.0.stream.frame_rate">29.97</property>
  <property name="meta.media.0.stream.sample_aspect_ratio">0</property>
  <property name="meta.media.0.codec.width">1920</property>
  <property name="meta.media.0.codec.height">1080</property>
  <property name="meta.media.0.codec.frame_rate">29.97</property>
  <property name="meta.media.0.codec.pix_fmt">yuvj420p</property>
  <property name="meta.media.0.codec.sample_aspect_ratio">1</property>
  <property name="meta.media.0.codec.colorspace">709</property>
  <property name="meta.media.0.codec.name">h264</property>
  <property name="meta.media.0.codec.long_name">H.264 / AVC / MPEG-4 AVC / MPEG-4 part 10</property>
  <property name="meta.media.0.codec.bit_rate">15716292</property>
  <property name="meta.attr.0.stream.creation_time.markup">2014-08-28 18:49:01</property>
  <property name="meta.attr.0.stream.language.markup">eng</property>
  <property name="meta.media.1.stream.type">audio</property>
  <property name="meta.media.1.codec.sample_fmt">fltp</property>
  <property name="meta.media.1.codec.sample_rate">48000</property>
  <property name="meta.media.1.codec.channels">2</property>
  <property name="meta.media.1.codec.name">aac</property>
  <property name="meta.media.1.codec.long_name">AAC (Advanced Audio Coding)</property>
  <property name="meta.media.1.codec.bit_rate">255336</property>
  <property name="meta.attr.1.stream.creation_time.markup">2014-08-28 18:49:01</property>
  <property name="meta.attr.1.stream.language.markup">eng</property>
  <property name="meta.attr.major_brand.markup">mp42</property>
  <property name="meta.attr.minor_version.markup">1</property>
  <property name="meta.attr.compatible_brands.markup">mp42avc1</property>
  <property name="meta.attr.creation_time.markup">2014-08-28 18:49:01</property>
  <property name="seekable">1</property>
  <property name="meta.media.sample_aspect_num">1</property>
  <property name="meta.media.sample_aspect_den">1</property>
  <property name="aspect_ratio">1</property>
  <property name="audio_index">1</property>
  <property name="video_index">0</property>
  <property name="mlt_service">avformat</property>
  <property name="meta.media.frame_rate_num">30000</property>
  <property name="meta.media.frame_rate_den">1001</property>
  <property name="meta.media.colorspace">709</property>
  <property name="meta.media.width">1920</property>
  <property name="meta.media.height">1080</property>
  <property name="meta.media.top_field_first">0</property>
  <property name="meta.media.progressive">1</property>
 </producer>
 <producer in="0" out="2278" id="56_1">
  <property name="mlt_type">producer</property>
  <property name="length">2279</property>
  <property name="eof">pause</property>
  <property name="resource">Videos/EOTR Footage/IMGA0093.MP4</property>
  <property name="meta.media.nb_streams">2</property>
  <property name="meta.media.0.stream.type">video</property>
  <property name="meta.media.0.stream.frame_rate">29.97</property>
  <property name="meta.media.0.stream.sample_aspect_ratio">0</property>
  <property name="meta.media.0.codec.width">1920</property>
  <property name="meta.media.0.codec.height">1080</property>
  <property name="meta.media.0.codec.frame_rate">29.97</property>
  <property name="meta.media.0.codec.pix_fmt">yuvj420p</property>
  <property name="meta.media.0.codec.sample_aspect_ratio">1</property>
  <property name="meta.media.0.codec.colorspace">709</property>
  <property name="meta.media.0.codec.name">h264</property>
  <property name="meta.media.0.codec.long_name">H.264 / AVC / MPEG-4 AVC / MPEG-4 part 10</property>
  <property name="meta.media.0.codec.bit_rate">15424098</property>
  <property name="meta.attr.0.stream.creation_time.markup">2014-08-28 19:23:46</property>
  <property name="meta.attr.0.stream.language.markup">eng</property>
  <property name="meta.media.1.stream.type">audio</property>
  <property name="meta.media.1.codec.sample_fmt">fltp</property>
  <property name="meta.media.1.codec.sample_rate">48000</property>
  <property name="meta.media.1.codec.channels">2</property>
  <property name="meta.media.1.codec.name">aac</property>
  <property name="meta.media.1.codec.long_name">AAC (Advanced Audio Coding)</property>
  <property name="meta.media.1.codec.bit_rate">255327</property>
  <property name="meta.attr.1.stream.creation_time.markup">2014-08-28 19:23:46</property>
  <property name="meta.attr.1.stream.language.markup">eng</property>
  <property name="meta.attr.major_brand.markup">mp42</property>
  <property name="meta.attr.minor_version.markup">1</property>
  <property name="meta.attr.compatible_brands.markup">mp42avc1</property>
  <property name="meta.attr.creation_time.markup">2014-08-28 19:23:46</property>
  <property name="seekable">1</property>
  <property name="meta.media.sample_aspect_num">1</property>
  <property name="meta.media.sample_aspect_den">1</property>
  <property name="aspect_ratio">1</property>
  <property name="audio_index">1</property>
  <property name="video_index">0</property>
  <property name="mlt_service">avformat</property>
  <property name="meta.media.frame_rate_num">30000</property>
  <property name="meta.media.frame_rate_den">1001</property>
  <property name="meta.media.colorspace">709</property>
  <property name="meta.media.width">1920</property>
  <property name="meta.media.height">1080</property>
  <property name="meta.media.top_field_first">0</property>
  <property name="meta.media.progressive">1</property>
 </producer>
 <producer in="0" out="958" id="57_1">
  <property name="mlt_type">producer</property>
  <property name="length">959</property>
  <property name="eof">pause</property>
  <property name="resource">Videos/EOTR Footage/IMGA0094.MP4</property>
  <property name="meta.media.nb_streams">2</property>
  <property name="meta.media.0.stream.type">video</property>
  <property name="meta.media.0.stream.frame_rate">29.97</property>
  <property name="meta.media.0.stream.sample_aspect_ratio">0</property>
  <property name="meta.media.0.codec.width">1920</property>
  <property name="meta.media.0.codec.height">1080</property>
  <property name="meta.media.0.codec.frame_rate">29.97</property>
  <property name="meta.media.0.codec.pix_fmt">yuvj420p</property>
  <property name="meta.media.0.codec.sample_aspect_ratio">1</property>
  <property name="meta.media.0.codec.colorspace">709</property>
  <property name="meta.media.0.codec.name">h264</property>
  <property name="meta.media.0.codec.long_name">H.264 / AVC / MPEG-4 AVC / MPEG-4 part 10</property>
  <property name="meta.media.0.codec.bit_rate">15187794</property>
  <property name="meta.attr.0.stream.creation_time.markup">2014-08-28 19:26:49</property>
  <property name="meta.attr.0.stream.language.markup">eng</property>
  <property name="meta.media.1.stream.type">audio</property>
  <property name="meta.media.1.codec.sample_fmt">fltp</property>
  <property name="meta.media.1.codec.sample_rate">48000</property>
  <property name="meta.media.1.codec.channels">2</property>
  <property name="meta.media.1.codec.name">aac</property>
  <property name="meta.media.1.codec.long_name">AAC (Advanced Audio Coding)</property>
  <property name="meta.media.1.codec.bit_rate">255316</property>
  <property name="meta.attr.1.stream.creation_time.markup">2014-08-28 19:26:49</property>
  <property name="meta.attr.1.stream.language.markup">eng</property>
  <property name="meta.attr.major_brand.markup">mp42</property>
  <property name="meta.attr.minor_version.markup">1</property>
  <property name="meta.attr.compatible_brands.markup">mp42avc1</property>
  <property name="meta.attr.creation_time.markup">2014-08-28 19:26:49</property>
  <property name="seekable">1</property>
  <property name="meta.media.sample_aspect_num">1</property>
  <property name="meta.media.sample_aspect_den">1</property>
  <property name="aspect_ratio">1</property>
  <property name="audio_index">1</property>
  <property name="video_index">0</property>
  <property name="mlt_service">avformat</property>
  <property name="meta.media.frame_rate_num">30000</property>
  <property name="meta.media.frame_rate_den">1001</property>
  <property name="meta.media.colorspace">709</property>
  <property name="meta.media.width">1920</property>
  <property name="meta.media.height">1080</property>
  <property name="meta.media.top_field_first">0</property>
  <property name="meta.media.progressive">1</property>
 </producer>
 <producer in="0" out="1309" id="84_1">
  <property name="mlt_type">producer</property>
  <property name="length">1310</property>
  <property name="eof">pause</property>
  <property name="resource">Videos/EOTR Footage/video-2014-08-29-20-18-05.mp4</property>
  <property name="meta.media.nb_streams">2</property>
  <property name="meta.media.0.stream.type">video</property>
  <property name="meta.media.0.stream.frame_rate">23.5047</property>
  <property name="meta.media.0.stream.sample_aspect_ratio">0</property>
  <property name="meta.media.0.codec.width">1920</property>
  <property name="meta.media.0.codec.height">1080</property>
  <property name="meta.media.0.codec.frame_rate">inf</property>
  <property name="meta.media.0.codec.pix_fmt">yuv420p</property>
  <property name="meta.media.0.codec.sample_aspect_ratio">0</property>
  <property name="meta.media.0.codec.colorspace">709</property>
  <property name="meta.media.0.codec.name">h264</property>
  <property name="meta.media.0.codec.long_name">H.264 / AVC / MPEG-4 AVC / MPEG-4 part 10</property>
  <property name="meta.media.0.codec.bit_rate">13278631</property>
  <property name="meta.attr.0.stream.language.markup">eng</property>
  <property name="meta.media.1.stream.type">audio</property>
  <property name="meta.media.1.codec.sample_fmt">fltp</property>
  <property name="meta.media.1.codec.sample_rate">16000</property>
  <property name="meta.media.1.codec.channels">1</property>
  <property name="meta.media.1.codec.name">aac</property>
  <property name="meta.media.1.codec.long_name">AAC (Advanced Audio Coding)</property>
  <property name="meta.media.1.codec.bit_rate">61020</property>
  <property name="meta.attr.1.stream.language.markup">eng</property>
  <property name="meta.attr.major_brand.markup">3gp4</property>
  <property name="meta.attr.minor_version.markup">768</property>
  <property name="meta.attr.compatible_brands.markup">3gp43gp6</property>
  <property name="seekable">1</property>
  <property name="meta.media.sample_aspect_num">1</property>
  <property name="meta.media.sample_aspect_den">1</property>
  <property name="aspect_ratio">1</property>
  <property name="audio_index">1</property>
  <property name="video_index">0</property>
  <property name="mlt_service">avformat</property>
  <property name="meta.media.frame_rate_num">128500</property>
  <property name="meta.media.frame_rate_den">5467</property>
  <property name="meta.media.colorspace">709</property>
  <property name="meta.media.width">1920</property>
  <property name="meta.media.height">1080</property>
  <property name="meta.media.top_field_first">0</property>
  <property name="meta.media.progressive">1</property>
 </producer>
 <producer in="0" out="1655" id="82_1">
  <property name="mlt_type">producer</property>
  <property name="length">1656</property>
  <property name="eof">pause</property>
  <property name="resource">Videos/EOTR Footage/video-2014-08-29-20-09-17.mp4</property>
  <property name="meta.media.nb_streams">2</property>
  <property name="meta.media.0.stream.type">video</property>
  <property name="meta.media.0.stream.frame_rate">23.008</property>
  <property name="meta.media.0.stream.sample_aspect_ratio">0</property>
  <property name="meta.media.0.codec.width">1920</property>
  <property name="meta.media.0.codec.height">1080</property>
  <property name="meta.media.0.codec.frame_rate">inf</property>
  <property name="meta.media.0.codec.pix_fmt">yuv420p</property>
  <property name="meta.media.0.codec.sample_aspect_ratio">0</property>
  <property name="meta.media.0.codec.colorspace">709</property>
  <property name="meta.media.0.codec.name">h264</property>
  <property name="meta.media.0.codec.long_name">H.264 / AVC / MPEG-4 AVC / MPEG-4 part 10</property>
  <property name="meta.media.0.codec.bit_rate">13029776</property>
  <property name="meta.attr.0.stream.language.markup">eng</property>
  <property name="meta.media.1.stream.type">audio</property>
  <property name="meta.media.1.codec.sample_fmt">fltp</property>
  <property name="meta.media.1.codec.sample_rate">16000</property>
  <property name="meta.media.1.codec.channels">1</property>
  <property name="meta.media.1.codec.name">aac</property>
  <property name="meta.media.1.codec.long_name">AAC (Advanced Audio Coding)</property>
  <property name="meta.media.1.codec.bit_rate">60678</property>
  <property name="meta.attr.1.stream.language.markup">eng</property>
  <property name="meta.attr.major_brand.markup">3gp4</property>
  <property name="meta.attr.minor_version.markup">768</property>
  <property name="meta.attr.compatible_brands.markup">3gp43gp6</property>
  <property name="seekable">1</property>
  <property name="meta.media.sample_aspect_num">1</property>
  <property name="meta.media.sample_aspect_den">1</property>
  <property name="aspect_ratio">1</property>
  <property name="audio_index">1</property>
  <property name="video_index">0</property>
  <property name="mlt_service">avformat</property>
  <property name="meta.media.frame_rate_num">254400</property>
  <property name="meta.media.frame_rate_den">11057</property>
  <property name="meta.media.colorspace">709</property>
  <property name="meta.media.width">1920</property>
  <property name="meta.media.height">1080</property>
  <property name="meta.media.top_field_first">0</property>
  <property name="meta.media.progressive">1</property>
 </producer>
 <producer in="0" out="1913" id="88_1">
  <property name="mlt_type">producer</property>
  <property name="length">1914</property>
  <property name="eof">pause</property>
  <property name="resource">Videos/EOTR Footage/video-2014-08-29-21-05-43.mp4</property>
  <property name="meta.media.nb_streams">2</property>
  <property name="meta.media.0.stream.type">audio</property>
  <property name="meta.media.0.codec.sample_fmt">fltp</property>
  <property name="meta.media.0.codec.sample_rate">16000</property>
  <property name="meta.media.0.codec.channels">1</property>
  <property name="meta.media.0.codec.name">aac</property>
  <property name="meta.media.0.codec.long_name">AAC (Advanced Audio Coding)</property>
  <property name="meta.media.0.codec.bit_rate">60610</property>
  <property name="meta.attr.0.stream.language.markup">eng</property>
  <property name="meta.media.1.stream.type">video</property>
  <property name="meta.media.1.stream.frame_rate">24.4998</property>
  <property name="meta.media.1.stream.sample_aspect_ratio">0</property>
  <property name="meta.media.1.codec.width">1920</property>
  <property name="meta.media.1.codec.height">1080</property>
  <property name="meta.media.1.codec.frame_rate">inf</property>
  <property name="meta.media.1.codec.pix_fmt">yuv420p</property>
  <property name="meta.media.1.codec.sample_aspect_ratio">0</property>
  <property name="meta.media.1.codec.colorspace">709</property>
  <property name="meta.media.1.codec.name">h264</property>
  <property name="meta.media.1.codec.long_name">H.264 / AVC / MPEG-4 AVC / MPEG-4 part 10</property>
  <property name="meta.media.1.codec.bit_rate">13767810</property>
  <property name="meta.attr.1.stream.language.markup">eng</property>
  <property name="meta.attr.major_brand.markup">3gp4</property>
  <property name="meta.attr.minor_version.markup">768</property>
  <property name="meta.attr.compatible_brands.markup">3gp43gp6</property>
  <property name="seekable">1</property>
  <property name="meta.media.sample_aspect_num">1</property>
  <property name="meta.media.sample_aspect_den">1</property>
  <property name="aspect_ratio">1</property>
  <property name="audio_index">0</property>
  <property name="video_index">1</property>
  <property name="mlt_service">avformat</property>
  <property name="meta.media.frame_rate_num">49</property>
  <property name="meta.media.frame_rate_den">2</property>
  <property name="meta.media.colorspace">709</property>
  <property name="meta.media.width">1920</property>
  <property name="meta.media.height">1080</property>
  <property name="meta.media.top_field_first">0</property>
  <property name="meta.media.progressive">1</property>
 </producer>
 <producer in="0" out="956" id="87_1">
  <property name="mlt_type">producer</property>
  <property name="length">957</property>
  <property name="eof">pause</property>
  <property name="resource">Videos/EOTR Footage/video-2014-08-29-20-59-05.mp4</property>
  <property name="meta.media.nb_streams">2</property>
  <property name="meta.media.0.stream.type">video</property>
  <property name="meta.media.0.stream.frame_rate">23.9609</property>
  <property name="meta.media.0.stream.sample_aspect_ratio">0</property>
  <property name="meta.media.0.codec.width">1920</property>
  <property name="meta.media.0.codec.height">1080</property>
  <property name="meta.media.0.codec.frame_rate">inf</property>
  <property name="meta.media.0.codec.pix_fmt">yuv420p</property>
  <property name="meta.media.0.codec.sample_aspect_ratio">0</property>
  <property name="meta.media.0.codec.colorspace">709</property>
  <property name="meta.media.0.codec.name">h264</property>
  <property name="meta.media.0.codec.long_name">H.264 / AVC / MPEG-4 AVC / MPEG-4 part 10</property>
  <property name="meta.media.0.codec.bit_rate">13532172</property>
  <property name="meta.attr.0.stream.language.markup">eng</property>
  <property name="meta.media.1.stream.type">audio</property>
  <property name="meta.media.1.codec.sample_fmt">fltp</property>
  <property name="meta.media.1.codec.sample_rate">16000</property>
  <property name="meta.media.1.codec.channels">1</property>
  <property name="meta.media.1.codec.name">aac</property>
  <property name="meta.media.1.codec.long_name">AAC (Advanced Audio Coding)</property>
  <property name="meta.media.1.codec.bit_rate">60571</property>
  <property name="meta.attr.1.stream.language.markup">eng</property>
  <property name="meta.attr.major_brand.markup">3gp4</property>
  <property name="meta.attr.minor_version.markup">768</property>
  <property name="meta.attr.compatible_brands.markup">3gp43gp6</property>
  <property name="seekable">1</property>
  <property name="meta.media.sample_aspect_num">1</property>
  <property name="meta.media.sample_aspect_den">1</property>
  <property name="aspect_ratio">1</property>
  <property name="audio_index">1</property>
  <property name="video_index">0</property>
  <property name="mlt_service">avformat</property>
  <property name="meta.media.frame_rate_num">623</property>
  <property name="meta.media.frame_rate_den">26</property>
  <property name="meta.media.colorspace">709</property>
  <property name="meta.media.width">1920</property>
  <property name="meta.media.height">1080</property>
  <property name="meta.media.top_field_first">0</property>
  <property name="meta.media.progressive">1</property>
 </producer>
 <producer in="0" out="1310" id="5_1">
  <property name="mlt_type">producer</property>
  <property name="length">1311</property>
  <property name="eof">pause</property>
  <property name="resource">Videos/EOTR Footage/20140829_102404.mp4</property>
  <property name="meta.media.nb_streams">2</property>
  <property name="meta.media.0.stream.type">video</property>
  <property name="meta.media.0.stream.frame_rate">29.9811</property>
  <property name="meta.media.0.stream.sample_aspect_ratio">0</property>
  <property name="meta.media.0.codec.width">1920</property>
  <property name="meta.media.0.codec.height">1080</property>
  <property name="meta.media.0.codec.frame_rate">inf</property>
  <property name="meta.media.0.codec.pix_fmt">yuv420p</property>
  <property name="meta.media.0.codec.sample_aspect_ratio">0</property>
  <property name="meta.media.0.codec.colorspace">709</property>
  <property name="meta.media.0.codec.name">h264</property>
  <property name="meta.media.0.codec.long_name">H.264 / AVC / MPEG-4 AVC / MPEG-4 part 10</property>
  <property name="meta.media.0.codec.bit_rate">17001535</property>
  <property name="meta.attr.0.stream.creation_time.markup">2014-08-29 09:24:49</property>
  <property name="meta.attr.0.stream.language.markup">eng</property>
  <property name="meta.media.1.stream.type">audio</property>
  <property name="meta.media.1.codec.sample_fmt">fltp</property>
  <property name="meta.media.1.codec.sample_rate">48000</property>
  <property name="meta.media.1.codec.channels">2</property>
  <property name="meta.media.1.codec.name">aac</property>
  <property name="meta.media.1.codec.long_name">AAC (Advanced Audio Coding)</property>
  <property name="meta.media.1.codec.bit_rate">125940</property>
  <property name="meta.attr.1.stream.creation_time.markup">2014-08-29 09:24:49</property>
  <property name="meta.attr.1.stream.language.markup">eng</property>
  <property name="meta.attr.major_brand.markup">isom</property>
  <property name="meta.attr.minor_version.markup">0</property>
  <property name="meta.attr.compatible_brands.markup">isom3gp4</property>
  <property name="meta.attr.creation_time.markup">2014-08-29 09:24:49</property>
  <property name="seekable">1</property>
  <property name="meta.media.sample_aspect_num">1</property>
  <property name="meta.media.sample_aspect_den">1</property>
  <property name="aspect_ratio">1</property>
  <property name="audio_index">1</property>
  <property name="video_index">0</property>
  <property name="mlt_service">avformat</property>
  <property name="meta.media.frame_rate_num">23418000</property>
  <property name="meta.media.frame_rate_den">781091</property>
  <property name="meta.media.colorspace">709</property>
  <property name="meta.media.width">1920</property>
  <property name="meta.media.height">1080</property>
  <property name="meta.media.top_field_first">0</property>
  <property name="meta.media.progressive">1</property>
 </producer>
 <producer in="0" out="340" id="10_1">
  <property name="mlt_type">producer</property>
  <property name="length">341</property>
  <property name="eof">pause</property>
  <property name="resource">Videos/EOTR Footage/20140829_110125.mp4</property>
  <property name="meta.media.nb_streams">2</property>
  <property name="meta.media.0.stream.type">video</property>
  <property name="meta.media.0.stream.frame_rate">29.9305</property>
  <property name="meta.media.0.stream.sample_aspect_ratio">0</property>
  <property name="meta.media.0.codec.width">1920</property>
  <property name="meta.media.0.codec.height">1080</property>
  <property name="meta.media.0.codec.frame_rate">inf</property>
  <property name="meta.media.0.codec.pix_fmt">yuv420p</property>
  <property name="meta.media.0.codec.sample_aspect_ratio">0</property>
  <property name="meta.media.0.codec.colorspace">709</property>
  <property name="meta.media.0.codec.name">h264</property>
  <property name="meta.media.0.codec.long_name">H.264 / AVC / MPEG-4 AVC / MPEG-4 part 10</property>
  <property name="meta.media.0.codec.bit_rate">17030994</property>
  <property name="meta.attr.0.stream.creation_time.markup">2014-08-29 10:01:37</property>
  <property name="meta.attr.0.stream.language.markup">eng</property>
  <property name="meta.media.1.stream.type">audio</property>
  <property name="meta.media.1.codec.sample_fmt">fltp</property>
  <property name="meta.media.1.codec.sample_rate">48000</property>
  <property name="meta.media.1.codec.channels">2</property>
  <property name="meta.media.1.codec.name">aac</property>
  <property name="meta.media.1.codec.long_name">AAC (Advanced Audio Coding)</property>
  <property name="meta.media.1.codec.bit_rate">127312</property>
  <property name="meta.attr.1.stream.creation_time.markup">2014-08-29 10:01:37</property>
  <property name="meta.attr.1.stream.language.markup">eng</property>
  <property name="meta.attr.major_brand.markup">isom</property>
  <property name="meta.attr.minor_version.markup">0</property>
  <property name="meta.attr.compatible_brands.markup">isom3gp4</property>
  <property name="meta.attr.creation_time.markup">2014-08-29 10:01:37</property>
  <property name="seekable">1</property>
  <property name="meta.media.sample_aspect_num">1</property>
  <property name="meta.media.sample_aspect_den">1</property>
  <property name="aspect_ratio">1</property>
  <property name="audio_index">1</property>
  <property name="video_index">0</property>
  <property name="mlt_service">avformat</property>
  <property name="meta.media.frame_rate_num">9960000</property>
  <property name="meta.media.frame_rate_den">332771</property>
  <property name="meta.media.colorspace">709</property>
  <property name="meta.media.width">1920</property>
  <property name="meta.media.height">1080</property>
  <property name="meta.media.top_field_first">0</property>
  <property name="meta.media.progressive">1</property>
 </producer>
 <producer in="0" out="892" id="7_1">
  <property name="mlt_type">producer</property>
  <property name="length">893</property>
  <property name="eof">pause</property>
  <property name="resource">Videos/EOTR Footage/20140829_103128.mp4</property>
  <property name="meta.media.nb_streams">2</property>
  <property name="meta.media.0.stream.type">video</property>
  <property name="meta.media.0.stream.frame_rate">29.7737</property>
  <property name="meta.media.0.stream.sample_aspect_ratio">0</property>
  <property name="meta.media.0.codec.width">1920</property>
  <property name="meta.media.0.codec.height">1080</property>
  <property name="meta.media.0.codec.frame_rate">inf</property>
  <property name="meta.media.0.codec.pix_fmt">yuv420p</property>
  <property name="meta.media.0.codec.sample_aspect_ratio">0</property>
  <property name="meta.media.0.codec.colorspace">709</property>
  <property name="meta.media.0.codec.name">h264</property>
  <property name="meta.media.0.codec.long_name">H.264 / AVC / MPEG-4 AVC / MPEG-4 part 10</property>
  <property name="meta.media.0.codec.bit_rate">16938433</property>
  <property name="meta.attr.0.stream.creation_time.markup">2014-08-29 09:31:59</property>
  <property name="meta.attr.0.stream.language.markup">eng</property>
  <property name="meta.media.1.stream.type">audio</property>
  <property name="meta.media.1.codec.sample_fmt">fltp</property>
  <property name="meta.media.1.codec.sample_rate">48000</property>
  <property name="meta.media.1.codec.channels">2</property>
  <property name="meta.media.1.codec.name">aac</property>
  <property name="meta.media.1.codec.long_name">AAC (Advanced Audio Coding)</property>
  <property name="meta.media.1.codec.bit_rate">128771</property>
  <property name="meta.attr.1.stream.creation_time.markup">2014-08-29 09:31:59</property>
  <property name="meta.attr.1.stream.language.markup">eng</property>
  <property name="meta.attr.major_brand.markup">isom</property>
  <property name="meta.attr.minor_version.markup">0</property>
  <property name="meta.attr.compatible_brands.markup">isom3gp4</property>
  <property name="meta.attr.creation_time.markup">2014-08-29 09:31:59</property>
  <property name="seekable">1</property>
  <property name="meta.media.sample_aspect_num">1</property>
  <property name="meta.media.sample_aspect_den">1</property>
  <property name="aspect_ratio">1</property>
  <property name="audio_index">1</property>
  <property name="video_index">0</property>
  <property name="mlt_service">avformat</property>
  <property name="meta.media.frame_rate_num">196000</property>
  <property name="meta.media.frame_rate_den">6583</property>
  <property name="meta.media.colorspace">709</property>
  <property name="meta.media.width">1920</property>
  <property name="meta.media.height">1080</property>
  <property name="meta.media.top_field_first">0</property>
  <property name="meta.media.progressive">1</property>
 </producer>
 <producer in="0" out="2012" id="9_1">
  <property name="mlt_type">producer</property>
  <property name="length">2013</property>
  <property name="eof">pause</property>
  <property name="resource">Videos/EOTR Footage/20140829_104453.mp4</property>
  <property name="meta.media.nb_streams">2</property>
  <property name="meta.media.0.stream.type">video</property>
  <property name="meta.media.0.stream.frame_rate">29.8012</property>
  <property name="meta.media.0.stream.sample_aspect_ratio">0</property>
  <property name="meta.media.0.codec.width">1920</property>
  <property name="meta.media.0.codec.height">1080</property>
  <property name="meta.media.0.codec.frame_rate">inf</property>
  <property name="meta.media.0.codec.pix_fmt">yuv420p</property>
  <property name="meta.media.0.codec.sample_aspect_ratio">0</property>
  <property name="meta.media.0.codec.colorspace">709</property>
  <property name="meta.media.0.codec.name">h264</property>
  <property name="meta.media.0.codec.long_name">H.264 / AVC / MPEG-4 AVC / MPEG-4 part 10</property>
  <property name="meta.media.0.codec.bit_rate">16939981</property>
  <property name="meta.attr.0.stream.creation_time.markup">2014-08-29 09:46:02</property>
  <property name="meta.attr.0.stream.language.markup">eng</property>
  <property name="meta.media.1.stream.type">audio</property>
  <property name="meta.media.1.codec.sample_fmt">fltp</property>
  <property name="meta.media.1.codec.sample_rate">48000</property>
  <property name="meta.media.1.codec.channels">2</property>
  <property name="meta.media.1.codec.name">aac</property>
  <property name="meta.media.1.codec.long_name">AAC (Advanced Audio Coding)</property>
  <property name="meta.media.1.codec.bit_rate">127696</property>
  <property name="meta.attr.1.stream.creation_time.markup">2014-08-29 09:46:02</property>
  <property name="meta.attr.1.stream.language.markup">eng</property>
  <property name="meta.attr.major_brand.markup">isom</property>
  <property name="meta.attr.minor_version.markup">0</property>
  <property name="meta.attr.compatible_brands.markup">isom3gp4</property>
  <property name="meta.attr.creation_time.markup">2014-08-29 09:46:02</property>
  <property name="seekable">1</property>
  <property name="meta.media.sample_aspect_num">1</property>
  <property name="meta.media.sample_aspect_den">1</property>
  <property name="aspect_ratio">1</property>
  <property name="audio_index">1</property>
  <property name="video_index">0</property>
  <property name="mlt_service">avformat</property>
  <property name="meta.media.frame_rate_num">3592800</property>
  <property name="meta.media.frame_rate_den">120559</property>
  <property name="meta.media.colorspace">709</property>
  <property name="meta.media.width">1920</property>
  <property name="meta.media.height">1080</property>
  <property name="meta.media.top_field_first">0</property>
  <property name="meta.media.progressive">1</property>
 </producer>
 <producer in="0" out="1448" id="141_1">
  <property name="mlt_type">producer</property>
  <property name="length">1449</property>
  <property name="eof">pause</property>
  <property name="resource">Videos/EOTR Footage/video-2014-08-30-19-33-57.mp4</property>
  <property name="meta.media.nb_streams">2</property>
  <property name="meta.media.0.stream.type">video</property>
  <property name="meta.media.0.stream.frame_rate">30.0424</property>
  <property name="meta.media.0.stream.sample_aspect_ratio">0</property>
  <property name="meta.media.0.codec.width">1920</property>
  <property name="meta.media.0.codec.height">1080</property>
  <property name="meta.media.0.codec.frame_rate">inf</property>
  <property name="meta.media.0.codec.pix_fmt">yuv420p</property>
  <property name="meta.media.0.codec.sample_aspect_ratio">0</property>
  <property name="meta.media.0.codec.colorspace">709</property>
  <property name="meta.media.0.codec.name">h264</property>
  <property name="meta.media.0.codec.long_name">H.264 / AVC / MPEG-4 AVC / MPEG-4 part 10</property>
  <property name="meta.media.0.codec.bit_rate">17011513</property>
  <property name="meta.attr.0.stream.language.markup">eng</property>
  <property name="meta.media.1.stream.type">audio</property>
  <property name="meta.media.1.codec.sample_fmt">fltp</property>
  <property name="meta.media.1.codec.sample_rate">16000</property>
  <property name="meta.media.1.codec.channels">1</property>
  <property name="meta.media.1.codec.name">aac</property>
  <property name="meta.media.1.codec.long_name">AAC (Advanced Audio Coding)</property>
  <property name="meta.media.1.codec.bit_rate">61658</property>
  <property name="meta.attr.1.stream.language.markup">eng</property>
  <property name="meta.attr.major_brand.markup">3gp4</property>
  <property name="meta.attr.minor_version.markup">768</property>
  <property name="meta.attr.compatible_brands.markup">3gp43gp6</property>
  <property name="seekable">1</property>
  <property name="meta.media.sample_aspect_num">1</property>
  <property name="meta.media.sample_aspect_den">1</property>
  <property name="aspect_ratio">1</property>
  <property name="audio_index">1</property>
  <property name="video_index">0</property>
  <property name="mlt_service">avformat</property>
  <property name="meta.media.frame_rate_num">721</property>
  <property name="meta.media.frame_rate_den">24</property>
  <property name="meta.media.colorspace">709</property>
  <property name="meta.media.width">1920</property>
  <property name="meta.media.height">1080</property>
  <property name="meta.media.top_field_first">0</property>
  <property name="meta.media.progressive">1</property>
 </producer>
 <producer in="0" out="452" id="142_1">
  <property name="mlt_type">producer</property>
  <property name="length">453</property>
  <property name="eof">pause</property>
  <property name="resource">Videos/EOTR Footage/video-2014-08-30-19-34-55.mp4</property>
  <property name="meta.media.nb_streams">2</property>
  <property name="meta.media.0.stream.type">video</property>
  <property name="meta.media.0.stream.frame_rate">29.9749</property>
  <property name="meta.media.0.stream.sample_aspect_ratio">0</property>
  <property name="meta.media.0.codec.width">1920</property>
  <property name="meta.media.0.codec.height">1080</property>
  <property name="meta.media.0.codec.frame_rate">inf</property>
  <property name="meta.media.0.codec.pix_fmt">yuv420p</property>
  <property name="meta.media.0.codec.sample_aspect_ratio">0</property>
  <property name="meta.media.0.codec.colorspace">709</property>
  <property name="meta.media.0.codec.name">h264</property>
  <property name="meta.media.0.codec.long_name">H.264 / AVC / MPEG-4 AVC / MPEG-4 part 10</property>
  <property name="meta.media.0.codec.bit_rate">16895161</property>
  <property name="meta.attr.0.stream.language.markup">eng</property>
  <property name="meta.media.1.stream.type">audio</property>
  <property name="meta.media.1.codec.sample_fmt">fltp</property>
  <property name="meta.media.1.codec.sample_rate">16000</property>
  <property name="meta.media.1.codec.channels">1</property>
  <property name="meta.media.1.codec.name">aac</property>
  <property name="meta.media.1.codec.long_name">AAC (Advanced Audio Coding)</property>
  <property name="meta.media.1.codec.bit_rate">58593</property>
  <property name="meta.attr.1.stream.language.markup">eng</property>
  <property name="meta.attr.major_brand.markup">3gp4</property>
  <property name="meta.attr.minor_version.markup">768</property>
  <property name="meta.attr.compatible_brands.markup">3gp43gp6</property>
  <property name="seekable">1</property>
  <property name="meta.media.sample_aspect_num">1</property>
  <property name="meta.media.sample_aspect_den">1</property>
  <property name="aspect_ratio">1</property>
  <property name="audio_index">1</property>
  <property name="video_index">0</property>
  <property name="mlt_service">avformat</property>
  <property name="meta.media.frame_rate_num">1019</property>
  <property name="meta.media.frame_rate_den">34</property>
  <property name="meta.media.colorspace">709</property>
  <property name="meta.media.width">1920</property>
  <property name="meta.media.height">1080</property>
  <property name="meta.media.top_field_first">0</property>
  <property name="meta.media.progressive">1</property>
 </producer>
 <producer in="0" out="1028" id="25_1">
  <property name="mlt_type">producer</property>
  <property name="length">1029</property>
  <property name="eof">pause</property>
  <property name="resource">Videos/EOTR Footage/20140830_212105.mp4</property>
  <property name="meta.media.nb_streams">2</property>
  <property name="meta.media.0.stream.type">video</property>
  <property name="meta.media.0.stream.frame_rate">29.9417</property>
  <property name="meta.media.0.stream.sample_aspect_ratio">0</property>
  <property name="meta.media.0.codec.width">1920</property>
  <property name="meta.media.0.codec.height">1080</property>
  <property name="meta.media.0.codec.frame_rate">inf</property>
  <property name="meta.media.0.codec.pix_fmt">yuv420p</property>
  <property name="meta.media.0.codec.sample_aspect_ratio">0</property>
  <property name="meta.media.0.codec.colorspace">709</property>
  <property name="meta.media.0.codec.name">h264</property>
  <property name="meta.media.0.codec.long_name">H.264 / AVC / MPEG-4 AVC / MPEG-4 part 10</property>
  <property name="meta.media.0.codec.bit_rate">16966740</property>
  <property name="meta.attr.0.stream.creation_time.markup">2014-08-30 20:21:41</property>
  <property name="meta.attr.0.stream.language.markup">eng</property>
  <property name="meta.media.1.stream.type">audio</property>
  <property name="meta.media.1.codec.sample_fmt">fltp</property>
  <property name="meta.media.1.codec.sample_rate">48000</property>
  <property name="meta.media.1.codec.channels">2</property>
  <property name="meta.media.1.codec.name">aac</property>
  <property name="meta.media.1.codec.long_name">AAC (Advanced Audio Coding)</property>
  <property name="meta.media.1.codec.bit_rate">124136</property>
  <property name="meta.attr.1.stream.creation_time.markup">2014-08-30 20:21:41</property>
  <property name="meta.attr.1.stream.language.markup">eng</property>
  <property name="meta.attr.major_brand.markup">isom</property>
  <property name="meta.attr.minor_version.markup">0</property>
  <property name="meta.attr.compatible_brands.markup">isom3gp4</property>
  <property name="meta.attr.creation_time.markup">2014-08-30 20:21:41</property>
  <property name="seekable">1</property>
  <property name="meta.media.sample_aspect_num">1</property>
  <property name="meta.media.sample_aspect_den">1</property>
  <property name="aspect_ratio">1</property>
  <property name="audio_index">1</property>
  <property name="video_index">0</property>
  <property name="mlt_service">avformat</property>
  <property name="meta.media.frame_rate_num">92070000</property>
  <property name="meta.media.frame_rate_den">3074977</property>
  <property name="meta.media.colorspace">709</property>
  <property name="meta.media.width">1920</property>
  <property name="meta.media.height">1080</property>
  <property name="meta.media.top_field_first">0</property>
  <property name="meta.media.progressive">1</property>
 </producer>
 <producer in="0" out="1060" id="28_1">
  <property name="mlt_type">producer</property>
  <property name="length">1061</property>
  <property name="eof">pause</property>
  <property name="resource">Videos/EOTR Footage/20140830_221326.mp4</property>
  <property name="meta.media.nb_streams">2</property>
  <property name="meta.media.0.stream.type">video</property>
  <property name="meta.media.0.stream.frame_rate">29.7969</property>
  <property name="meta.media.0.stream.sample_aspect_ratio">0</property>
  <property name="meta.media.0.codec.width">1920</property>
  <property name="meta.media.0.codec.height">1080</property>
  <property name="meta.media.0.codec.frame_rate">inf</property>
  <property name="meta.media.0.codec.pix_fmt">yuv420p</property>
  <property name="meta.media.0.codec.sample_aspect_ratio">0</property>
  <property name="meta.media.0.codec.colorspace">709</property>
  <property name="meta.media.0.codec.name">h264</property>
  <property name="meta.media.0.codec.long_name">H.264 / AVC / MPEG-4 AVC / MPEG-4 part 10</property>
  <property name="meta.media.0.codec.bit_rate">16929361</property>
  <property name="meta.attr.0.stream.creation_time.markup">2014-08-30 21:14:19</property>
  <property name="meta.attr.0.stream.language.markup">eng</property>
  <property name="meta.media.1.stream.type">audio</property>
  <property name="meta.media.1.codec.sample_fmt">fltp</property>
  <property name="meta.media.1.codec.sample_rate">48000</property>
  <property name="meta.media.1.codec.channels">2</property>
  <property name="meta.media.1.codec.name">aac</property>
  <property name="meta.media.1.codec.long_name">AAC (Advanced Audio Coding)</property>
  <property name="meta.media.1.codec.bit_rate">128540</property>
  <property name="meta.attr.1.stream.creation_time.markup">2014-08-30 21:14:19</property>
  <property name="meta.attr.1.stream.language.markup">eng</property>
  <property name="meta.attr.major_brand.markup">isom</property>
  <property name="meta.attr.minor_version.markup">0</property>
  <property name="meta.attr.compatible_brands.markup">isom3gp4</property>
  <property name="meta.attr.creation_time.markup">2014-08-30 21:14:19</property>
  <property name="seekable">1</property>
  <property name="meta.media.sample_aspect_num">1</property>
  <property name="meta.media.sample_aspect_den">1</property>
  <property name="aspect_ratio">1</property>
  <property name="audio_index">1</property>
  <property name="video_index">0</property>
  <property name="mlt_service">avformat</property>
  <property name="meta.media.frame_rate_num">3780000</property>
  <property name="meta.media.frame_rate_den">126859</property>
  <property name="meta.media.colorspace">709</property>
  <property name="meta.media.width">1920</property>
  <property name="meta.media.height">1080</property>
  <property name="meta.media.top_field_first">0</property>
  <property name="meta.media.progressive">1</property>
 </producer>
 <producer in="0" out="993" id="184_1">
  <property name="mlt_type">producer</property>
  <property name="length">994</property>
  <property name="eof">pause</property>
  <property name="resource">Videos/EOTR Footage/video-2014-08-31-20-51-30.mp4</property>
  <property name="meta.media.nb_streams">2</property>
  <property name="meta.media.0.stream.type">audio</property>
  <property name="meta.media.0.codec.sample_fmt">fltp</property>
  <property name="meta.media.0.codec.sample_rate">16000</property>
  <property name="meta.media.0.codec.channels">1</property>
  <property name="meta.media.0.codec.name">aac</property>
  <property name="meta.media.0.codec.long_name">AAC (Advanced Audio Coding)</property>
  <property name="meta.media.0.codec.bit_rate">62117</property>
  <property name="meta.attr.0.stream.language.markup">eng</property>
  <property name="meta.media.1.stream.type">video</property>
  <property name="meta.media.1.stream.frame_rate">24.1807</property>
  <property name="meta.media.1.stream.sample_aspect_ratio">0</property>
  <property name="meta.media.1.codec.width">1920</property>
  <property name="meta.media.1.codec.height">1080</property>
  <property name="meta.media.1.codec.frame_rate">inf</property>
  <property name="meta.media.1.codec.pix_fmt">yuv420p</property>
  <property name="meta.media.1.codec.sample_aspect_ratio">0</property>
  <property name="meta.media.1.codec.colorspace">709</property>
  <property name="meta.media.1.codec.name">h264</property>
  <property name="meta.media.1.codec.long_name">H.264 / AVC / MPEG-4 AVC / MPEG-4 part 10</property>
  <property name="meta.media.1.codec.bit_rate">13560260</property>
  <property name="meta.attr.1.stream.language.markup">eng</property>
  <property name="meta.attr.major_brand.markup">3gp4</property>
  <property name="meta.attr.minor_version.markup">768</property>
  <property name="meta.attr.compatible_brands.markup">3gp43gp6</property>
  <property name="seekable">1</property>
  <property name="meta.media.sample_aspect_num">1</property>
  <property name="meta.media.sample_aspect_den">1</property>
  <property name="aspect_ratio">1</property>
  <property name="audio_index">0</property>
  <property name="video_index">1</property>
  <property name="mlt_service">avformat</property>
  <property name="meta.media.frame_rate_num">266</property>
  <property name="meta.media.frame_rate_den">11</property>
  <property name="meta.media.colorspace">709</property>
  <property name="meta.media.width">1920</property>
  <property name="meta.media.height">1080</property>
  <property name="meta.media.top_field_first">0</property>
  <property name="meta.media.progressive">1</property>
 </producer>
 <producer in="0" out="1183" id="109_1">
  <property name="mlt_type">producer</property>
  <property name="length">1184</property>
  <property name="eof">pause</property>
  <property name="resource">Videos/EOTR Footage/video-2014-08-30-12-28-01.mp4</property>
  <property name="meta.media.nb_streams">2</property>
  <property name="meta.media.0.stream.type">video</property>
  <property name="meta.media.0.stream.frame_rate">30.0415</property>
  <property name="meta.media.0.stream.sample_aspect_ratio">0</property>
  <property name="meta.media.0.codec.width">1920</property>
  <property name="meta.media.0.codec.height">1080</property>
  <property name="meta.media.0.codec.frame_rate">inf</property>
  <property name="meta.media.0.codec.pix_fmt">yuv420p</property>
  <property name="meta.media.0.codec.sample_aspect_ratio">0</property>
  <property name="meta.media.0.codec.colorspace">709</property>
  <property name="meta.media.0.codec.name">h264</property>
  <property name="meta.media.0.codec.long_name">H.264 / AVC / MPEG-4 AVC / MPEG-4 part 10</property>
  <property name="meta.media.0.codec.bit_rate">17011462</property>
  <property name="meta.attr.0.stream.language.markup">eng</property>
  <property name="meta.media.1.stream.type">audio</property>
  <property name="meta.media.1.codec.sample_fmt">fltp</property>
  <property name="meta.media.1.codec.sample_rate">16000</property>
  <property name="meta.media.1.codec.channels">1</property>
  <property name="meta.media.1.codec.name">aac</property>
  <property name="meta.media.1.codec.long_name">AAC (Advanced Audio Coding)</property>
  <property name="meta.media.1.codec.bit_rate">61341</property>
  <property name="meta.attr.1.stream.language.markup">eng</property>
  <property name="meta.attr.major_brand.markup">3gp4</property>
  <property name="meta.attr.minor_version.markup">768</property>
  <property name="meta.attr.compatible_brands.markup">3gp43gp6</property>
  <property name="seekable">1</property>
  <property name="meta.media.sample_aspect_num">1</property>
  <property name="meta.media.sample_aspect_den">1</property>
  <property name="aspect_ratio">1</property>
  <property name="audio_index">1</property>
  <property name="video_index">0</property>
  <property name="mlt_service">avformat</property>
  <property name="meta.media.frame_rate_num">721</property>
  <property name="meta.media.frame_rate_den">24</property>
  <property name="meta.media.colorspace">709</property>
  <property name="meta.media.width">1920</property>
  <property name="meta.media.height">1080</property>
  <property name="meta.media.top_field_first">0</property>
  <property name="meta.media.progressive">1</property>
 </producer>
 <producer in="0" out="3270" id="114_1">
  <property name="mlt_type">producer</property>
  <property name="length">3271</property>
  <property name="eof">pause</property>
  <property name="resource">Videos/EOTR Footage/video-2014-08-30-12-52-33.mp4</property>
  <property name="meta.media.nb_streams">2</property>
  <property name="meta.media.0.stream.type">video</property>
  <property name="meta.media.0.stream.frame_rate">30.0426</property>
  <property name="meta.media.0.stream.sample_aspect_ratio">0</property>
  <property name="meta.media.0.codec.width">1920</property>
  <property name="meta.media.0.codec.height">1080</property>
  <property name="meta.media.0.codec.frame_rate">inf</property>
  <property name="meta.media.0.codec.pix_fmt">yuv420p</property>
  <property name="meta.media.0.codec.sample_aspect_ratio">0</property>
  <property name="meta.media.0.codec.colorspace">709</property>
  <property name="meta.media.0.codec.name">h264</property>
  <property name="meta.media.0.codec.long_name">H.264 / AVC / MPEG-4 AVC / MPEG-4 part 10</property>
  <property name="meta.media.0.codec.bit_rate">17020287</property>
  <property name="meta.attr.0.stream.language.markup">eng</property>
  <property name="meta.media.1.stream.type">audio</property>
  <property name="meta.media.1.codec.sample_fmt">fltp</property>
  <property name="meta.media.1.codec.sample_rate">16000</property>
  <property name="meta.media.1.codec.channels">1</property>
  <property name="meta.media.1.codec.name">aac</property>
  <property name="meta.media.1.codec.long_name">AAC (Advanced Audio Coding)</property>
  <property name="meta.media.1.codec.bit_rate">62229</property>
  <property name="meta.attr.1.stream.language.markup">eng</property>
  <property name="meta.attr.major_brand.markup">3gp4</property>
  <property name="meta.attr.minor_version.markup">768</property>
  <property name="meta.attr.compatible_brands.markup">3gp43gp6</property>
  <property name="seekable">1</property>
  <property name="meta.media.sample_aspect_num">1</property>
  <property name="meta.media.sample_aspect_den">1</property>
  <property name="aspect_ratio">1</property>
  <property name="audio_index">1</property>
  <property name="video_index">0</property>
  <property name="mlt_service">avformat</property>
  <property name="meta.media.frame_rate_num">691</property>
  <property name="meta.media.frame_rate_den">23</property>
  <property name="meta.media.colorspace">709</property>
  <property name="meta.media.width">1920</property>
  <property name="meta.media.height">1080</property>
  <property name="meta.media.top_field_first">0</property>
  <property name="meta.media.progressive">1</property>
 </producer>
 <producer in="0" out="388" id="150_1">
  <property name="mlt_type">producer</property>
  <property name="length">389</property>
  <property name="eof">pause</property>
  <property name="resource">Videos/EOTR Footage/video-2014-08-31-11-50-16.mp4</property>
  <property name="meta.media.nb_streams">2</property>
  <property name="meta.media.0.stream.type">video</property>
  <property name="meta.media.0.stream.frame_rate">30.0439</property>
  <property name="meta.media.0.stream.sample_aspect_ratio">0</property>
  <property name="meta.media.0.codec.width">1920</property>
  <property name="meta.media.0.codec.height">1080</property>
  <property name="meta.media.0.codec.frame_rate">inf</property>
  <property name="meta.media.0.codec.pix_fmt">yuv420p</property>
  <property name="meta.media.0.codec.sample_aspect_ratio">0</property>
  <property name="meta.media.0.codec.colorspace">709</property>
  <property name="meta.media.0.codec.name">h264</property>
  <property name="meta.media.0.codec.long_name">H.264 / AVC / MPEG-4 AVC / MPEG-4 part 10</property>
  <property name="meta.media.0.codec.bit_rate">16940953</property>
  <property name="meta.attr.0.stream.language.markup">eng</property>
  <property name="meta.media.1.stream.type">audio</property>
  <property name="meta.media.1.codec.sample_fmt">fltp</property>
  <property name="meta.media.1.codec.sample_rate">16000</property>
  <property name="meta.media.1.codec.channels">1</property>
  <property name="meta.media.1.codec.name">aac</property>
  <property name="meta.media.1.codec.long_name">AAC (Advanced Audio Coding)</property>
  <property name="meta.media.1.codec.bit_rate">59475</property>
  <property name="meta.attr.1.stream.language.markup">eng</property>
  <property name="meta.attr.major_brand.markup">3gp4</property>
  <property name="meta.attr.minor_version.markup">768</property>
  <property name="meta.attr.compatible_brands.markup">3gp43gp6</property>
  <property name="seekable">1</property>
  <property name="meta.media.sample_aspect_num">1</property>
  <property name="meta.media.sample_aspect_den">1</property>
  <property name="aspect_ratio">1</property>
  <property name="audio_index">1</property>
  <property name="video_index">0</property>
  <property name="mlt_service">avformat</property>
  <property name="meta.media.frame_rate_num">691</property>
  <property name="meta.media.frame_rate_den">23</property>
  <property name="meta.media.colorspace">709</property>
  <property name="meta.media.width">1920</property>
  <property name="meta.media.height">1080</property>
  <property name="meta.media.top_field_first">0</property>
  <property name="meta.media.progressive">1</property>
 </producer>
 <producer in="0" out="1092" id="153_1">
  <property name="mlt_type">producer</property>
  <property name="length">1093</property>
  <property name="eof">pause</property>
  <property name="resource">Videos/EOTR Footage/video-2014-08-31-11-55-42.mp4</property>
  <property name="meta.media.nb_streams">2</property>
  <property name="meta.media.0.stream.type">video</property>
  <property name="meta.media.0.stream.frame_rate">30.0455</property>
  <property name="meta.media.0.stream.sample_aspect_ratio">0</property>
  <property name="meta.media.0.codec.width">1920</property>
  <property name="meta.media.0.codec.height">1080</property>
  <property name="meta.media.0.codec.frame_rate">inf</property>
  <property name="meta.media.0.codec.pix_fmt">yuv420p</property>
  <property name="meta.media.0.codec.sample_aspect_ratio">0</property>
  <property name="meta.media.0.codec.colorspace">709</property>
  <property name="meta.media.0.codec.name">h264</property>
  <property name="meta.media.0.codec.long_name">H.264 / AVC / MPEG-4 AVC / MPEG-4 part 10</property>
  <property name="meta.media.0.codec.bit_rate">17013177</property>
  <property name="meta.attr.0.stream.language.markup">eng</property>
  <property name="meta.media.1.stream.type">audio</property>
  <property name="meta.media.1.codec.sample_fmt">fltp</property>
  <property name="meta.media.1.codec.sample_rate">16000</property>
  <property name="meta.media.1.codec.channels">1</property>
  <property name="meta.media.1.codec.name">aac</property>
  <property name="meta.media.1.codec.long_name">AAC (Advanced Audio Coding)</property>
  <property name="meta.media.1.codec.bit_rate">60225</property>
  <property name="meta.attr.1.stream.language.markup">eng</property>
  <property name="meta.attr.major_brand.markup">3gp4</property>
  <property name="meta.attr.minor_version.markup">768</property>
  <property name="meta.attr.compatible_brands.markup">3gp43gp6</property>
  <property name="seekable">1</property>
  <property name="meta.media.sample_aspect_num">1</property>
  <property name="meta.media.sample_aspect_den">1</property>
  <property name="aspect_ratio">1</property>
  <property name="audio_index">1</property>
  <property name="video_index">0</property>
  <property name="mlt_service">avformat</property>
  <property name="meta.media.frame_rate_num">661</property>
  <property name="meta.media.frame_rate_den">22</property>
  <property name="meta.media.colorspace">709</property>
  <property name="meta.media.width">1920</property>
  <property name="meta.media.height">1080</property>
  <property name="meta.media.top_field_first">0</property>
  <property name="meta.media.progressive">1</property>
 </producer>
 <playlist id="playlist3">
  <blank length="68"/>
  <entry in="186" out="278" producer="2_1"/>
  <blank length="74"/>
  <entry in="0" out="45" producer="3_1"/>
  <blank length="132"/>
  <entry in="920" out="985" producer="33_1"/>
  <blank length="40"/>
  <entry in="864" out="951" producer="3_1"/>
  <blank length="39"/>
  <entry in="1385" out="1443" producer="34_1"/>
  <blank length="132"/>
  <entry in="864" out="944" producer="40_1"/>
  <blank length="63"/>
  <entry in="79" out="175" producer="41_1"/>
  <blank length="117"/>
  <entry in="271" out="376" producer="43_1"/>
  <blank length="92"/>
  <entry in="315" out="389" producer="46_1"/>
  <entry in="80" out="148" producer="132_1"/>
  <blank length="110"/>
  <entry in="88" out="197" producer="48_1"/>
  <blank length="89"/>
  <entry in="899" out="1022" producer="50_1"/>
  <blank length="70"/>
  <entry in="197" out="287" producer="52_1"/>
  <entry in="122" out="262" producer="54_1"/>
  <entry in="21" out="129" producer="56_1"/>
  <blank length="128"/>
  <entry in="0" out="161" producer="57_1"/>
  <blank length="114"/>
  <entry in="1084" out="1134" producer="84_1"/>
  <entry in="721" out="819" producer="82_1"/>
  <entry in="434" out="496" producer="88_1"/>
  <entry in="379" out="563" producer="87_1"/>
  <blank length="233"/>
  <entry in="0" out="39" producer="5_1"/>
  <entry in="1231" out="1258" producer="5_1"/>
  <blank length="94"/>
  <entry in="65" out="211" producer="10_1"/>
  <blank length="108"/>
  <entry in="429" out="534" producer="7_1"/>
  <blank length="226"/>
  <entry in="662" out="723" producer="9_1"/>
  <blank length="135"/>
  <entry in="161" out="274" producer="141_1"/>
  <blank length="163"/>
  <entry in="234" out="269" producer="142_1"/>
  <blank length="86"/>
  <entry in="223" out="293" producer="25_1"/>
  <blank length="64"/>
  <entry in="602" out="659" producer="28_1"/>
  <blank length="87"/>
  <entry in="469" out="569" producer="184_1"/>
  <blank length="57"/>
  <entry in="533" out="631" producer="109_1"/>
  <blank length="60"/>
  <entry in="306" out="383" producer="114_1"/>
  <blank length="63"/>
  <entry in="162" out="242" producer="150_1"/>
  <blank length="94"/>
  <entry in="52" out="138" producer="153_1"/>
 </playlist>
 <producer in="0" out="1708" id="30">
  <property name="mlt_type">producer</property>
  <property name="length">1709</property>
  <property name="eof">pause</property>
  <property name="resource">Videos/EOTR Footage/IMGA0067.MP4</property>
  <property name="meta.media.nb_streams">2</property>
  <property name="meta.media.0.stream.type">video</property>
  <property name="meta.media.0.stream.frame_rate">29.97</property>
  <property name="meta.media.0.stream.sample_aspect_ratio">0</property>
  <property name="meta.media.0.codec.width">1920</property>
  <property name="meta.media.0.codec.height">1080</property>
  <property name="meta.media.0.codec.frame_rate">29.97</property>
  <property name="meta.media.0.codec.pix_fmt">yuvj420p</property>
  <property name="meta.media.0.codec.sample_aspect_ratio">1</property>
  <property name="meta.media.0.codec.colorspace">709</property>
  <property name="meta.media.0.codec.name">h264</property>
  <property name="meta.media.0.codec.long_name">H.264 / AVC / MPEG-4 AVC / MPEG-4 part 10</property>
  <property name="meta.media.0.codec.bit_rate">15940177</property>
  <property name="meta.attr.0.stream.creation_time.markup">2014-08-28 14:28:05</property>
  <property name="meta.attr.0.stream.language.markup">eng</property>
  <property name="meta.media.1.stream.type">audio</property>
  <property name="meta.media.1.codec.sample_fmt">fltp</property>
  <property name="meta.media.1.codec.sample_rate">48000</property>
  <property name="meta.media.1.codec.channels">2</property>
  <property name="meta.media.1.codec.name">aac</property>
  <property name="meta.media.1.codec.long_name">AAC (Advanced Audio Coding)</property>
  <property name="meta.media.1.codec.bit_rate">255346</property>
  <property name="meta.attr.1.stream.creation_time.markup">2014-08-28 14:28:05</property>
  <property name="meta.attr.1.stream.language.markup">eng</property>
  <property name="meta.attr.major_brand.markup">mp42</property>
  <property name="meta.attr.minor_version.markup">1</property>
  <property name="meta.attr.compatible_brands.markup">mp42avc1</property>
  <property name="meta.attr.creation_time.markup">2014-08-28 14:28:05</property>
  <property name="seekable">1</property>
  <property name="meta.media.sample_aspect_num">1</property>
  <property name="meta.media.sample_aspect_den">1</property>
  <property name="aspect_ratio">1</property>
  <property name="audio_index">1</property>
  <property name="video_index">0</property>
  <property name="mlt_service">avformat</property>
  <property name="meta.media.frame_rate_num">30000</property>
  <property name="meta.media.frame_rate_den">1001</property>
  <property name="meta.media.colorspace">709</property>
  <property name="meta.media.width">1920</property>
  <property name="meta.media.height">1080</property>
  <property name="meta.media.top_field_first">0</property>
  <property name="meta.media.progressive">1</property>
 </producer>
 <producer in="0" out="869" id="32">
  <property name="mlt_type">producer</property>
  <property name="length">870</property>
  <property name="eof">pause</property>
  <property name="resource">Videos/EOTR Footage/IMGA0069.MP4</property>
  <property name="meta.media.nb_streams">2</property>
  <property name="meta.media.0.stream.type">video</property>
  <property name="meta.media.0.stream.frame_rate">29.97</property>
  <property name="meta.media.0.stream.sample_aspect_ratio">0</property>
  <property name="meta.media.0.codec.width">1920</property>
  <property name="meta.media.0.codec.height">1080</property>
  <property name="meta.media.0.codec.frame_rate">29.97</property>
  <property name="meta.media.0.codec.pix_fmt">yuvj420p</property>
  <property name="meta.media.0.codec.sample_aspect_ratio">1</property>
  <property name="meta.media.0.codec.colorspace">709</property>
  <property name="meta.media.0.codec.name">h264</property>
  <property name="meta.media.0.codec.long_name">H.264 / AVC / MPEG-4 AVC / MPEG-4 part 10</property>
  <property name="meta.media.0.codec.bit_rate">15175286</property>
  <property name="meta.attr.0.stream.creation_time.markup">2014-08-28 14:53:48</property>
  <property name="meta.attr.0.stream.language.markup">eng</property>
  <property name="meta.media.1.stream.type">audio</property>
  <property name="meta.media.1.codec.sample_fmt">fltp</property>
  <property name="meta.media.1.codec.sample_rate">48000</property>
  <property name="meta.media.1.codec.channels">2</property>
  <property name="meta.media.1.codec.name">aac</property>
  <property name="meta.media.1.codec.long_name">AAC (Advanced Audio Coding)</property>
  <property name="meta.media.1.codec.bit_rate">255305</property>
  <property name="meta.attr.1.stream.creation_time.markup">2014-08-28 14:53:48</property>
  <property name="meta.attr.1.stream.language.markup">eng</property>
  <property name="meta.attr.major_brand.markup">mp42</property>
  <property name="meta.attr.minor_version.markup">1</property>
  <property name="meta.attr.compatible_brands.markup">mp42avc1</property>
  <property name="meta.attr.creation_time.markup">2014-08-28 14:53:48</property>
  <property name="seekable">1</property>
  <property name="meta.media.sample_aspect_num">1</property>
  <property name="meta.media.sample_aspect_den">1</property>
  <property name="aspect_ratio">1</property>
  <property name="audio_index">1</property>
  <property name="video_index">0</property>
  <property name="mlt_service">avformat</property>
  <property name="meta.media.frame_rate_num">30000</property>
  <property name="meta.media.frame_rate_den">1001</property>
  <property name="meta.media.colorspace">709</property>
  <property name="meta.media.width">1920</property>
  <property name="meta.media.height">1080</property>
  <property name="meta.media.top_field_first">0</property>
  <property name="meta.media.progressive">1</property>
 </producer>
 <producer in="0" out="1079" id="36">
  <property name="mlt_type">producer</property>
  <property name="length">1080</property>
  <property name="eof">pause</property>
  <property name="resource">Videos/EOTR Footage/IMGA0073.MP4</property>
  <property name="meta.media.nb_streams">2</property>
  <property name="meta.media.0.stream.type">video</property>
  <property name="meta.media.0.stream.frame_rate">29.97</property>
  <property name="meta.media.0.stream.sample_aspect_ratio">0</property>
  <property name="meta.media.0.codec.width">1920</property>
  <property name="meta.media.0.codec.height">1080</property>
  <property name="meta.media.0.codec.frame_rate">29.97</property>
  <property name="meta.media.0.codec.pix_fmt">yuvj420p</property>
  <property name="meta.media.0.codec.sample_aspect_ratio">1</property>
  <property name="meta.media.0.codec.colorspace">709</property>
  <property name="meta.media.0.codec.name">h264</property>
  <property name="meta.media.0.codec.long_name">H.264 / AVC / MPEG-4 AVC / MPEG-4 part 10</property>
  <property name="meta.media.0.codec.bit_rate">16644928</property>
  <property name="meta.attr.0.stream.creation_time.markup">2014-08-28 15:24:54</property>
  <property name="meta.attr.0.stream.language.markup">eng</property>
  <property name="meta.media.1.stream.type">audio</property>
  <property name="meta.media.1.codec.sample_fmt">fltp</property>
  <property name="meta.media.1.codec.sample_rate">48000</property>
  <property name="meta.media.1.codec.channels">2</property>
  <property name="meta.media.1.codec.name">aac</property>
  <property name="meta.media.1.codec.long_name">AAC (Advanced Audio Coding)</property>
  <property name="meta.media.1.codec.bit_rate">255330</property>
  <property name="meta.attr.1.stream.creation_time.markup">2014-08-28 15:24:54</property>
  <property name="meta.attr.1.stream.language.markup">eng</property>
  <property name="meta.attr.major_brand.markup">mp42</property>
  <property name="meta.attr.minor_version.markup">1</property>
  <property name="meta.attr.compatible_brands.markup">mp42avc1</property>
  <property name="meta.attr.creation_time.markup">2014-08-28 15:24:54</property>
  <property name="seekable">1</property>
  <property name="meta.media.sample_aspect_num">1</property>
  <property name="meta.media.sample_aspect_den">1</property>
  <property name="aspect_ratio">1</property>
  <property name="audio_index">1</property>
  <property name="video_index">0</property>
  <property name="mlt_service">avformat</property>
  <property name="meta.media.frame_rate_num">30000</property>
  <property name="meta.media.frame_rate_den">1001</property>
  <property name="meta.media.colorspace">709</property>
  <property name="meta.media.width">1920</property>
  <property name="meta.media.height">1080</property>
  <property name="meta.media.top_field_first">0</property>
  <property name="meta.media.progressive">1</property>
 </producer>
 <producer in="0" out="331" id="42">
  <property name="mlt_type">producer</property>
  <property name="length">332</property>
  <property name="eof">pause</property>
  <property name="resource">Videos/EOTR Footage/IMGA0079.MP4</property>
  <property name="meta.media.nb_streams">2</property>
  <property name="meta.media.0.stream.type">video</property>
  <property name="meta.media.0.stream.frame_rate">29.97</property>
  <property name="meta.media.0.stream.sample_aspect_ratio">0</property>
  <property name="meta.media.0.codec.width">1920</property>
  <property name="meta.media.0.codec.height">1080</property>
  <property name="meta.media.0.codec.frame_rate">29.97</property>
  <property name="meta.media.0.codec.pix_fmt">yuvj420p</property>
  <property name="meta.media.0.codec.sample_aspect_ratio">1</property>
  <property name="meta.media.0.codec.colorspace">709</property>
  <property name="meta.media.0.codec.name">h264</property>
  <property name="meta.media.0.codec.long_name">H.264 / AVC / MPEG-4 AVC / MPEG-4 part 10</property>
  <property name="meta.media.0.codec.bit_rate">15727603</property>
  <property name="meta.attr.0.stream.creation_time.markup">2014-08-28 16:06:36</property>
  <property name="meta.attr.0.stream.language.markup">eng</property>
  <property name="meta.media.1.stream.type">audio</property>
  <property name="meta.media.1.codec.sample_fmt">fltp</property>
  <property name="meta.media.1.codec.sample_rate">48000</property>
  <property name="meta.media.1.codec.channels">2</property>
  <property name="meta.media.1.codec.name">aac</property>
  <property name="meta.media.1.codec.long_name">AAC (Advanced Audio Coding)</property>
  <property name="meta.media.1.codec.bit_rate">255133</property>
  <property name="meta.attr.1.stream.creation_time.markup">2014-08-28 16:06:36</property>
  <property name="meta.attr.1.stream.language.markup">eng</property>
  <property name="meta.attr.major_brand.markup">mp42</property>
  <property name="meta.attr.minor_version.markup">1</property>
  <property name="meta.attr.compatible_brands.markup">mp42avc1</property>
  <property name="meta.attr.creation_time.markup">2014-08-28 16:06:36</property>
  <property name="seekable">1</property>
  <property name="meta.media.sample_aspect_num">1</property>
  <property name="meta.media.sample_aspect_den">1</property>
  <property name="aspect_ratio">1</property>
  <property name="audio_index">1</property>
  <property name="video_index">0</property>
  <property name="mlt_service">avformat</property>
  <property name="meta.media.frame_rate_num">30000</property>
  <property name="meta.media.frame_rate_den">1001</property>
  <property name="meta.media.colorspace">709</property>
  <property name="meta.media.width">1920</property>
  <property name="meta.media.height">1080</property>
  <property name="meta.media.top_field_first">0</property>
  <property name="meta.media.progressive">1</property>
 </producer>
 <producer in="0" out="658" id="44">
  <property name="mlt_type">producer</property>
  <property name="length">659</property>
  <property name="eof">pause</property>
  <property name="resource">Videos/EOTR Footage/IMGA0081.MP4</property>
  <property name="meta.media.nb_streams">2</property>
  <property name="meta.media.0.stream.type">video</property>
  <property name="meta.media.0.stream.frame_rate">29.97</property>
  <property name="meta.media.0.stream.sample_aspect_ratio">0</property>
  <property name="meta.media.0.codec.width">1920</property>
  <property name="meta.media.0.codec.height">1080</property>
  <property name="meta.media.0.codec.frame_rate">29.97</property>
  <property name="meta.media.0.codec.pix_fmt">yuvj420p</property>
  <property name="meta.media.0.codec.sample_aspect_ratio">1</property>
  <property name="meta.media.0.codec.colorspace">709</property>
  <property name="meta.media.0.codec.name">h264</property>
  <property name="meta.media.0.codec.long_name">H.264 / AVC / MPEG-4 AVC / MPEG-4 part 10</property>
  <property name="meta.media.0.codec.bit_rate">17028193</property>
  <property name="meta.attr.0.stream.creation_time.markup">2014-08-28 16:17:19</property>
  <property name="meta.attr.0.stream.language.markup">eng</property>
  <property name="meta.media.1.stream.type">audio</property>
  <property name="meta.media.1.codec.sample_fmt">fltp</property>
  <property name="meta.media.1.codec.sample_rate">48000</property>
  <property name="meta.media.1.codec.channels">2</property>
  <property name="meta.media.1.codec.name">aac</property>
  <property name="meta.media.1.codec.long_name">AAC (Advanced Audio Coding)</property>
  <property name="meta.media.1.codec.bit_rate">255253</property>
  <property name="meta.attr.1.stream.creation_time.markup">2014-08-28 16:17:19</property>
  <property name="meta.attr.1.stream.language.markup">eng</property>
  <property name="meta.attr.major_brand.markup">mp42</property>
  <property name="meta.attr.minor_version.markup">1</property>
  <property name="meta.attr.compatible_brands.markup">mp42avc1</property>
  <property name="meta.attr.creation_time.markup">2014-08-28 16:17:19</property>
  <property name="seekable">1</property>
  <property name="meta.media.sample_aspect_num">1</property>
  <property name="meta.media.sample_aspect_den">1</property>
  <property name="aspect_ratio">1</property>
  <property name="audio_index">1</property>
  <property name="video_index">0</property>
  <property name="mlt_service">avformat</property>
  <property name="meta.media.frame_rate_num">30000</property>
  <property name="meta.media.frame_rate_den">1001</property>
  <property name="meta.media.colorspace">709</property>
  <property name="meta.media.width">1920</property>
  <property name="meta.media.height">1080</property>
  <property name="meta.media.top_field_first">0</property>
  <property name="meta.media.progressive">1</property>
 </producer>
 <producer in="0" out="299" id="49">
  <property name="mlt_type">producer</property>
  <property name="length">300</property>
  <property name="eof">pause</property>
  <property name="resource">Videos/EOTR Footage/IMGA0086.MP4</property>
  <property name="meta.media.nb_streams">2</property>
  <property name="meta.media.0.stream.type">video</property>
  <property name="meta.media.0.stream.frame_rate">29.97</property>
  <property name="meta.media.0.stream.sample_aspect_ratio">0</property>
  <property name="meta.media.0.codec.width">1920</property>
  <property name="meta.media.0.codec.height">1080</property>
  <property name="meta.media.0.codec.frame_rate">29.97</property>
  <property name="meta.media.0.codec.pix_fmt">yuvj420p</property>
  <property name="meta.media.0.codec.sample_aspect_ratio">1</property>
  <property name="meta.media.0.codec.colorspace">709</property>
  <property name="meta.media.0.codec.name">h264</property>
  <property name="meta.media.0.codec.long_name">H.264 / AVC / MPEG-4 AVC / MPEG-4 part 10</property>
  <property name="meta.media.0.codec.bit_rate">15613615</property>
  <property name="meta.attr.0.stream.creation_time.markup">2014-08-28 16:58:53</property>
  <property name="meta.attr.0.stream.language.markup">eng</property>
  <property name="meta.media.1.stream.type">audio</property>
  <property name="meta.media.1.codec.sample_fmt">fltp</property>
  <property name="meta.media.1.codec.sample_rate">48000</property>
  <property name="meta.media.1.codec.channels">2</property>
  <property name="meta.media.1.codec.name">aac</property>
  <property name="meta.media.1.codec.long_name">AAC (Advanced Audio Coding)</property>
  <property name="meta.media.1.codec.bit_rate">255019</property>
  <property name="meta.attr.1.stream.creation_time.markup">2014-08-28 16:58:53</property>
  <property name="meta.attr.1.stream.language.markup">eng</property>
  <property name="meta.attr.major_brand.markup">mp42</property>
  <property name="meta.attr.minor_version.markup">1</property>
  <property name="meta.attr.compatible_brands.markup">mp42avc1</property>
  <property name="meta.attr.creation_time.markup">2014-08-28 16:58:53</property>
  <property name="seekable">1</property>
  <property name="meta.media.sample_aspect_num">1</property>
  <property name="meta.media.sample_aspect_den">1</property>
  <property name="aspect_ratio">1</property>
  <property name="audio_index">1</property>
  <property name="video_index">0</property>
  <property name="mlt_service">avformat</property>
  <property name="meta.media.frame_rate_num">30000</property>
  <property name="meta.media.frame_rate_den">1001</property>
  <property name="meta.media.colorspace">709</property>
  <property name="meta.media.width">1920</property>
  <property name="meta.media.height">1080</property>
  <property name="meta.media.top_field_first">0</property>
  <property name="meta.media.progressive">1</property>
 </producer>
 <producer in="0" out="1169" id="58">
  <property name="mlt_type">producer</property>
  <property name="length">1170</property>
  <property name="eof">pause</property>
  <property name="resource">Videos/EOTR Footage/IMGA0095.MP4</property>
  <property name="meta.media.nb_streams">2</property>
  <property name="meta.media.0.stream.type">video</property>
  <property name="meta.media.0.stream.frame_rate">29.97</property>
  <property name="meta.media.0.stream.sample_aspect_ratio">0</property>
  <property name="meta.media.0.codec.width">1920</property>
  <property name="meta.media.0.codec.height">1080</property>
  <property name="meta.media.0.codec.frame_rate">29.97</property>
  <property name="meta.media.0.codec.pix_fmt">yuvj420p</property>
  <property name="meta.media.0.codec.sample_aspect_ratio">1</property>
  <property name="meta.media.0.codec.colorspace">709</property>
  <property name="meta.media.0.codec.name">h264</property>
  <property name="meta.media.0.codec.long_name">H.264 / AVC / MPEG-4 AVC / MPEG-4 part 10</property>
  <property name="meta.media.0.codec.bit_rate">15175900</property>
  <property name="meta.attr.0.stream.creation_time.markup">2014-08-28 19:42:03</property>
  <property name="meta.attr.0.stream.language.markup">eng</property>
  <property name="meta.media.1.stream.type">audio</property>
  <property name="meta.media.1.codec.sample_fmt">fltp</property>
  <property name="meta.media.1.codec.sample_rate">48000</property>
  <property name="meta.media.1.codec.channels">2</property>
  <property name="meta.media.1.codec.name">aac</property>
  <property name="meta.media.1.codec.long_name">AAC (Advanced Audio Coding)</property>
  <property name="meta.media.1.codec.bit_rate">255368</property>
  <property name="meta.attr.1.stream.creation_time.markup">2014-08-28 19:42:03</property>
  <property name="meta.attr.1.stream.language.markup">eng</property>
  <property name="meta.attr.major_brand.markup">mp42</property>
  <property name="meta.attr.minor_version.markup">1</property>
  <property name="meta.attr.compatible_brands.markup">mp42avc1</property>
  <property name="meta.attr.creation_time.markup">2014-08-28 19:42:03</property>
  <property name="seekable">1</property>
  <property name="meta.media.sample_aspect_num">1</property>
  <property name="meta.media.sample_aspect_den">1</property>
  <property name="aspect_ratio">1</property>
  <property name="audio_index">1</property>
  <property name="video_index">0</property>
  <property name="mlt_service">avformat</property>
  <property name="meta.media.frame_rate_num">30000</property>
  <property name="meta.media.frame_rate_den">1001</property>
  <property name="meta.media.colorspace">709</property>
  <property name="meta.media.width">1920</property>
  <property name="meta.media.height">1080</property>
  <property name="meta.media.top_field_first">0</property>
  <property name="meta.media.progressive">1</property>
 </producer>
 <producer in="0" out="3177" id="86">
  <property name="mlt_type">producer</property>
  <property name="length">3178</property>
  <property name="eof">pause</property>
  <property name="resource">Videos/EOTR Footage/video-2014-08-29-20-53-11.mp4</property>
  <property name="meta.media.nb_streams">2</property>
  <property name="meta.media.0.stream.type">video</property>
  <property name="meta.media.0.stream.frame_rate">24.5075</property>
  <property name="meta.media.0.stream.sample_aspect_ratio">0</property>
  <property name="meta.media.0.codec.width">1920</property>
  <property name="meta.media.0.codec.height">1080</property>
  <property name="meta.media.0.codec.frame_rate">inf</property>
  <property name="meta.media.0.codec.pix_fmt">yuv420p</property>
  <property name="meta.media.0.codec.sample_aspect_ratio">0</property>
  <property name="meta.media.0.codec.colorspace">709</property>
  <property name="meta.media.0.codec.name">h264</property>
  <property name="meta.media.0.codec.long_name">H.264 / AVC / MPEG-4 AVC / MPEG-4 part 10</property>
  <property name="meta.media.0.codec.bit_rate">13881881</property>
  <property name="meta.attr.0.stream.language.markup">eng</property>
  <property name="meta.media.1.stream.type">audio</property>
  <property name="meta.media.1.codec.sample_fmt">fltp</property>
  <property name="meta.media.1.codec.sample_rate">16000</property>
  <property name="meta.media.1.codec.channels">1</property>
  <property name="meta.media.1.codec.name">aac</property>
  <property name="meta.media.1.codec.long_name">AAC (Advanced Audio Coding)</property>
  <property name="meta.media.1.codec.bit_rate">62155</property>
  <property name="meta.attr.1.stream.language.markup">eng</property>
  <property name="meta.attr.major_brand.markup">3gp4</property>
  <property name="meta.attr.minor_version.markup">768</property>
  <property name="meta.attr.compatible_brands.markup">3gp43gp6</property>
  <property name="seekable">1</property>
  <property name="meta.media.sample_aspect_num">1</property>
  <property name="meta.media.sample_aspect_den">1</property>
  <property name="aspect_ratio">1</property>
  <property name="audio_index">1</property>
  <property name="video_index">0</property>
  <property name="mlt_service">avformat</property>
  <property name="meta.media.frame_rate_num">1005</property>
  <property name="meta.media.frame_rate_den">41</property>
  <property name="meta.media.colorspace">709</property>
  <property name="meta.media.width">1920</property>
  <property name="meta.media.height">1080</property>
  <property name="meta.media.top_field_first">0</property>
  <property name="meta.media.progressive">1</property>
 </producer>
 <producer in="0" out="389" id="67">
  <property name="mlt_type">producer</property>
  <property name="length">390</property>
  <property name="eof">pause</property>
  <property name="resource">Videos/EOTR Footage/IMGA0106.MP4</property>
  <property name="meta.media.nb_streams">2</property>
  <property name="meta.media.0.stream.type">video</property>
  <property name="meta.media.0.stream.frame_rate">29.97</property>
  <property name="meta.media.0.stream.sample_aspect_ratio">0</property>
  <property name="meta.media.0.codec.width">1920</property>
  <property name="meta.media.0.codec.height">1080</property>
  <property name="meta.media.0.codec.frame_rate">29.97</property>
  <property name="meta.media.0.codec.pix_fmt">yuvj420p</property>
  <property name="meta.media.0.codec.sample_aspect_ratio">1</property>
  <property name="meta.media.0.codec.colorspace">709</property>
  <property name="meta.media.0.codec.name">h264</property>
  <property name="meta.media.0.codec.long_name">H.264 / AVC / MPEG-4 AVC / MPEG-4 part 10</property>
  <property name="meta.media.0.codec.bit_rate">16267188</property>
  <property name="meta.attr.0.stream.creation_time.markup">2014-08-29 09:29:43</property>
  <property name="meta.attr.0.stream.language.markup">eng</property>
  <property name="meta.media.1.stream.type">audio</property>
  <property name="meta.media.1.codec.sample_fmt">fltp</property>
  <property name="meta.media.1.codec.sample_rate">48000</property>
  <property name="meta.media.1.codec.channels">2</property>
  <property name="meta.media.1.codec.name">aac</property>
  <property name="meta.media.1.codec.long_name">AAC (Advanced Audio Coding)</property>
  <property name="meta.media.1.codec.bit_rate">255217</property>
  <property name="meta.attr.1.stream.creation_time.markup">2014-08-29 09:29:43</property>
  <property name="meta.attr.1.stream.language.markup">eng</property>
  <property name="meta.attr.major_brand.markup">mp42</property>
  <property name="meta.attr.minor_version.markup">1</property>
  <property name="meta.attr.compatible_brands.markup">mp42avc1</property>
  <property name="meta.attr.creation_time.markup">2014-08-29 09:29:43</property>
  <property name="seekable">1</property>
  <property name="meta.media.sample_aspect_num">1</property>
  <property name="meta.media.sample_aspect_den">1</property>
  <property name="aspect_ratio">1</property>
  <property name="audio_index">1</property>
  <property name="video_index">0</property>
  <property name="mlt_service">avformat</property>
  <property name="meta.media.frame_rate_num">30000</property>
  <property name="meta.media.frame_rate_den">1001</property>
  <property name="meta.media.colorspace">709</property>
  <property name="meta.media.width">1920</property>
  <property name="meta.media.height">1080</property>
  <property name="meta.media.top_field_first">0</property>
  <property name="meta.media.progressive">1</property>
 </producer>
 <producer in="0" out="883" id="6">
  <property name="mlt_type">producer</property>
  <property name="length">884</property>
  <property name="eof">pause</property>
  <property name="resource">Videos/EOTR Footage/20140829_102708.mp4</property>
  <property name="meta.media.nb_streams">2</property>
  <property name="meta.media.0.stream.type">video</property>
  <property name="meta.media.0.stream.frame_rate">29.8145</property>
  <property name="meta.media.0.stream.sample_aspect_ratio">0</property>
  <property name="meta.media.0.codec.width">1920</property>
  <property name="meta.media.0.codec.height">1080</property>
  <property name="meta.media.0.codec.frame_rate">inf</property>
  <property name="meta.media.0.codec.pix_fmt">yuv420p</property>
  <property name="meta.media.0.codec.sample_aspect_ratio">0</property>
  <property name="meta.media.0.codec.colorspace">709</property>
  <property name="meta.media.0.codec.name">h264</property>
  <property name="meta.media.0.codec.long_name">H.264 / AVC / MPEG-4 AVC / MPEG-4 part 10</property>
  <property name="meta.media.0.codec.bit_rate">16948505</property>
  <property name="meta.attr.0.stream.creation_time.markup">2014-08-29 09:27:38</property>
  <property name="meta.attr.0.stream.language.markup">eng</property>
  <property name="meta.media.1.stream.type">audio</property>
  <property name="meta.media.1.codec.sample_fmt">fltp</property>
  <property name="meta.media.1.codec.sample_rate">48000</property>
  <property name="meta.media.1.codec.channels">2</property>
  <property name="meta.media.1.codec.name">aac</property>
  <property name="meta.media.1.codec.long_name">AAC (Advanced Audio Coding)</property>
  <property name="meta.media.1.codec.bit_rate">128421</property>
  <property name="meta.attr.1.stream.creation_time.markup">2014-08-29 09:27:39</property>
  <property name="meta.attr.1.stream.language.markup">eng</property>
  <property name="meta.attr.major_brand.markup">isom</property>
  <property name="meta.attr.minor_version.markup">0</property>
  <property name="meta.attr.compatible_brands.markup">isom3gp4</property>
  <property name="meta.attr.creation_time.markup">2014-08-29 09:27:38</property>
  <property name="seekable">1</property>
  <property name="meta.media.sample_aspect_num">1</property>
  <property name="meta.media.sample_aspect_den">1</property>
  <property name="aspect_ratio">1</property>
  <property name="audio_index">1</property>
  <property name="video_index">0</property>
  <property name="mlt_service">avformat</property>
  <property name="meta.media.frame_rate_num">78210000</property>
  <property name="meta.media.frame_rate_den">2623217</property>
  <property name="meta.media.colorspace">709</property>
  <property name="meta.media.width">1920</property>
  <property name="meta.media.height">1080</property>
  <property name="meta.media.top_field_first">0</property>
  <property name="meta.media.progressive">1</property>
 </producer>
 <producer in="0" out="1134" id="8">
  <property name="mlt_type">producer</property>
  <property name="length">1135</property>
  <property name="eof">pause</property>
  <property name="resource">Videos/EOTR Footage/20140829_103717.mp4</property>
  <property name="meta.media.nb_streams">2</property>
  <property name="meta.media.0.stream.type">video</property>
  <property name="meta.media.0.stream.frame_rate">29.8196</property>
  <property name="meta.media.0.stream.sample_aspect_ratio">0</property>
  <property name="meta.media.0.codec.width">1920</property>
  <property name="meta.media.0.codec.height">1080</property>
  <property name="meta.media.0.codec.frame_rate">inf</property>
  <property name="meta.media.0.codec.pix_fmt">yuv420p</property>
  <property name="meta.media.0.codec.sample_aspect_ratio">0</property>
  <property name="meta.media.0.codec.colorspace">709</property>
  <property name="meta.media.0.codec.name">h264</property>
  <property name="meta.media.0.codec.long_name">H.264 / AVC / MPEG-4 AVC / MPEG-4 part 10</property>
  <property name="meta.media.0.codec.bit_rate">16952960</property>
  <property name="meta.attr.0.stream.creation_time.markup">2014-08-29 09:37:55</property>
  <property name="meta.attr.0.stream.language.markup">eng</property>
  <property name="meta.media.1.stream.type">audio</property>
  <property name="meta.media.1.codec.sample_fmt">fltp</property>
  <property name="meta.media.1.codec.sample_rate">48000</property>
  <property name="meta.media.1.codec.channels">2</property>
  <property name="meta.media.1.codec.name">aac</property>
  <property name="meta.media.1.codec.long_name">AAC (Advanced Audio Coding)</property>
  <property name="meta.media.1.codec.bit_rate">128703</property>
  <property name="meta.attr.1.stream.creation_time.markup">2014-08-29 09:37:55</property>
  <property name="meta.attr.1.stream.language.markup">eng</property>
  <property name="meta.attr.major_brand.markup">isom</property>
  <property name="meta.attr.minor_version.markup">0</property>
  <property name="meta.attr.compatible_brands.markup">isom3gp4</property>
  <property name="meta.attr.creation_time.markup">2014-08-29 09:37:55</property>
  <property name="seekable">1</property>
  <property name="meta.media.sample_aspect_num">1</property>
  <property name="meta.media.sample_aspect_den">1</property>
  <property name="aspect_ratio">1</property>
  <property name="audio_index">1</property>
  <property name="video_index">0</property>
  <property name="mlt_service">avformat</property>
  <property name="meta.media.frame_rate_num">11190000</property>
  <property name="meta.media.frame_rate_den">375257</property>
  <property name="meta.media.colorspace">709</property>
  <property name="meta.media.width">1920</property>
  <property name="meta.media.height">1080</property>
  <property name="meta.media.top_field_first">0</property>
  <property name="meta.media.progressive">1</property>
 </producer>
 <producer in="0" out="1310" id="5_0">
  <property name="mlt_type">producer</property>
  <property name="length">1311</property>
  <property name="eof">pause</property>
  <property name="resource">Videos/EOTR Footage/20140829_102404.mp4</property>
  <property name="meta.media.nb_streams">2</property>
  <property name="meta.media.0.stream.type">video</property>
  <property name="meta.media.0.stream.frame_rate">29.9811</property>
  <property name="meta.media.0.stream.sample_aspect_ratio">0</property>
  <property name="meta.media.0.codec.width">1920</property>
  <property name="meta.media.0.codec.height">1080</property>
  <property name="meta.media.0.codec.frame_rate">inf</property>
  <property name="meta.media.0.codec.pix_fmt">yuv420p</property>
  <property name="meta.media.0.codec.sample_aspect_ratio">0</property>
  <property name="meta.media.0.codec.colorspace">709</property>
  <property name="meta.media.0.codec.name">h264</property>
  <property name="meta.media.0.codec.long_name">H.264 / AVC / MPEG-4 AVC / MPEG-4 part 10</property>
  <property name="meta.media.0.codec.bit_rate">17001535</property>
  <property name="meta.attr.0.stream.creation_time.markup">2014-08-29 09:24:49</property>
  <property name="meta.attr.0.stream.language.markup">eng</property>
  <property name="meta.media.1.stream.type">audio</property>
  <property name="meta.media.1.codec.sample_fmt">fltp</property>
  <property name="meta.media.1.codec.sample_rate">48000</property>
  <property name="meta.media.1.codec.channels">2</property>
  <property name="meta.media.1.codec.name">aac</property>
  <property name="meta.media.1.codec.long_name">AAC (Advanced Audio Coding)</property>
  <property name="meta.media.1.codec.bit_rate">125940</property>
  <property name="meta.attr.1.stream.creation_time.markup">2014-08-29 09:24:49</property>
  <property name="meta.attr.1.stream.language.markup">eng</property>
  <property name="meta.attr.major_brand.markup">isom</property>
  <property name="meta.attr.minor_version.markup">0</property>
  <property name="meta.attr.compatible_brands.markup">isom3gp4</property>
  <property name="meta.attr.creation_time.markup">2014-08-29 09:24:49</property>
  <property name="seekable">1</property>
  <property name="meta.media.sample_aspect_num">1</property>
  <property name="meta.media.sample_aspect_den">1</property>
  <property name="aspect_ratio">1</property>
  <property name="audio_index">1</property>
  <property name="video_index">0</property>
  <property name="mlt_service">avformat</property>
  <property name="meta.media.frame_rate_num">23418000</property>
  <property name="meta.media.frame_rate_den">781091</property>
  <property name="meta.media.colorspace">709</property>
  <property name="meta.media.width">1920</property>
  <property name="meta.media.height">1080</property>
  <property name="meta.media.top_field_first">0</property>
  <property name="meta.media.progressive">1</property>
 </producer>
 <producer in="0" out="2012" id="9_0">
  <property name="mlt_type">producer</property>
  <property name="length">2013</property>
  <property name="eof">pause</property>
  <property name="resource">Videos/EOTR Footage/20140829_104453.mp4</property>
  <property name="meta.media.nb_streams">2</property>
  <property name="meta.media.0.stream.type">video</property>
  <property name="meta.media.0.stream.frame_rate">29.8012</property>
  <property name="meta.media.0.stream.sample_aspect_ratio">0</property>
  <property name="meta.media.0.codec.width">1920</property>
  <property name="meta.media.0.codec.height">1080</property>
  <property name="meta.media.0.codec.frame_rate">inf</property>
  <property name="meta.media.0.codec.pix_fmt">yuv420p</property>
  <property name="meta.media.0.codec.sample_aspect_ratio">0</property>
  <property name="meta.media.0.codec.colorspace">709</property>
  <property name="meta.media.0.codec.name">h264</property>
  <property name="meta.media.0.codec.long_name">H.264 / AVC / MPEG-4 AVC / MPEG-4 part 10</property>
  <property name="meta.media.0.codec.bit_rate">16939981</property>
  <property name="meta.attr.0.stream.creation_time.markup">2014-08-29 09:46:02</property>
  <property name="meta.attr.0.stream.language.markup">eng</property>
  <property name="meta.media.1.stream.type">audio</property>
  <property name="meta.media.1.codec.sample_fmt">fltp</property>
  <property name="meta.media.1.codec.sample_rate">48000</property>
  <property name="meta.media.1.codec.channels">2</property>
  <property name="meta.media.1.codec.name">aac</property>
  <property name="meta.media.1.codec.long_name">AAC (Advanced Audio Coding)</property>
  <property name="meta.media.1.codec.bit_rate">127696</property>
  <property name="meta.attr.1.stream.creation_time.markup">2014-08-29 09:46:02</property>
  <property name="meta.attr.1.stream.language.markup">eng</property>
  <property name="meta.attr.major_brand.markup">isom</property>
  <property name="meta.attr.minor_version.markup">0</property>
  <property name="meta.attr.compatible_brands.markup">isom3gp4</property>
  <property name="meta.attr.creation_time.markup">2014-08-29 09:46:02</property>
  <property name="seekable">1</property>
  <property name="meta.media.sample_aspect_num">1</property>
  <property name="meta.media.sample_aspect_den">1</property>
  <property name="aspect_ratio">1</property>
  <property name="audio_index">1</property>
  <property name="video_index">0</property>
  <property name="mlt_service">avformat</property>
  <property name="meta.media.frame_rate_num">3592800</property>
  <property name="meta.media.frame_rate_den">120559</property>
  <property name="meta.media.colorspace">709</property>
  <property name="meta.media.width">1920</property>
  <property name="meta.media.height">1080</property>
  <property name="meta.media.top_field_first">0</property>
  <property name="meta.media.progressive">1</property>
 </producer>
 <producer in="0" out="487" id="73">
  <property name="mlt_type">producer</property>
  <property name="length">488</property>
  <property name="eof">pause</property>
  <property name="resource">Videos/EOTR Footage/video-2014-08-29-16-51-13.mp4</property>
  <property name="meta.media.nb_streams">2</property>
  <property name="meta.media.0.stream.type">video</property>
  <property name="meta.media.0.stream.frame_rate">30.0392</property>
  <property name="meta.media.0.stream.sample_aspect_ratio">0</property>
  <property name="meta.media.0.codec.width">1920</property>
  <property name="meta.media.0.codec.height">1080</property>
  <property name="meta.media.0.codec.frame_rate">inf</property>
  <property name="meta.media.0.codec.pix_fmt">yuv420p</property>
  <property name="meta.media.0.codec.sample_aspect_ratio">0</property>
  <property name="meta.media.0.codec.colorspace">709</property>
  <property name="meta.media.0.codec.name">h264</property>
  <property name="meta.media.0.codec.long_name">H.264 / AVC / MPEG-4 AVC / MPEG-4 part 10</property>
  <property name="meta.media.0.codec.bit_rate">17013727</property>
  <property name="meta.attr.0.stream.language.markup">eng</property>
  <property name="meta.media.1.stream.type">audio</property>
  <property name="meta.media.1.codec.sample_fmt">fltp</property>
  <property name="meta.media.1.codec.sample_rate">16000</property>
  <property name="meta.media.1.codec.channels">1</property>
  <property name="meta.media.1.codec.name">aac</property>
  <property name="meta.media.1.codec.long_name">AAC (Advanced Audio Coding)</property>
  <property name="meta.media.1.codec.bit_rate">58618</property>
  <property name="meta.attr.1.stream.language.markup">eng</property>
  <property name="meta.attr.major_brand.markup">3gp4</property>
  <property name="meta.attr.minor_version.markup">768</property>
  <property name="meta.attr.compatible_brands.markup">3gp43gp6</property>
  <property name="seekable">1</property>
  <property name="meta.media.sample_aspect_num">1</property>
  <property name="meta.media.sample_aspect_den">1</property>
  <property name="aspect_ratio">1</property>
  <property name="audio_index">1</property>
  <property name="video_index">0</property>
  <property name="mlt_service">avformat</property>
  <property name="meta.media.frame_rate_num">751</property>
  <property name="meta.media.frame_rate_den">25</property>
  <property name="meta.media.colorspace">709</property>
  <property name="meta.media.width">1920</property>
  <property name="meta.media.height">1080</property>
  <property name="meta.media.top_field_first">0</property>
  <property name="meta.media.progressive">1</property>
 </producer>
 <producer in="0" out="595" id="74_0">
  <property name="mlt_type">producer</property>
  <property name="length">596</property>
  <property name="eof">pause</property>
  <property name="resource">Videos/EOTR Footage/video-2014-08-29-16-52-19.mp4</property>
  <property name="meta.media.nb_streams">2</property>
  <property name="meta.media.0.stream.type">video</property>
  <property name="meta.media.0.stream.frame_rate">27.8308</property>
  <property name="meta.media.0.stream.sample_aspect_ratio">0</property>
  <property name="meta.media.0.codec.width">1920</property>
  <property name="meta.media.0.codec.height">1080</property>
  <property name="meta.media.0.codec.frame_rate">inf</property>
  <property name="meta.media.0.codec.pix_fmt">yuv420p</property>
  <property name="meta.media.0.codec.sample_aspect_ratio">0</property>
  <property name="meta.media.0.codec.colorspace">709</property>
  <property name="meta.media.0.codec.name">h264</property>
  <property name="meta.media.0.codec.long_name">H.264 / AVC / MPEG-4 AVC / MPEG-4 part 10</property>
  <property name="meta.media.0.codec.bit_rate">15732967</property>
  <property name="meta.attr.0.stream.language.markup">eng</property>
  <property name="meta.media.1.stream.type">audio</property>
  <property name="meta.media.1.codec.sample_fmt">fltp</property>
  <property name="meta.media.1.codec.sample_rate">16000</property>
  <property name="meta.media.1.codec.channels">1</property>
  <property name="meta.media.1.codec.name">aac</property>
  <property name="meta.media.1.codec.long_name">AAC (Advanced Audio Coding)</property>
  <property name="meta.media.1.codec.bit_rate">59212</property>
  <property name="meta.attr.1.stream.language.markup">eng</property>
  <property name="meta.attr.major_brand.markup">3gp4</property>
  <property name="meta.attr.minor_version.markup">768</property>
  <property name="meta.attr.compatible_brands.markup">3gp43gp6</property>
  <property name="seekable">1</property>
  <property name="meta.media.sample_aspect_num">1</property>
  <property name="meta.media.sample_aspect_den">1</property>
  <property name="aspect_ratio">1</property>
  <property name="audio_index">1</property>
  <property name="video_index">0</property>
  <property name="mlt_service">avformat</property>
  <property name="meta.media.frame_rate_num">974</property>
  <property name="meta.media.frame_rate_den">35</property>
  <property name="meta.media.colorspace">709</property>
  <property name="meta.media.width">1920</property>
  <property name="meta.media.height">1080</property>
  <property name="meta.media.top_field_first">0</property>
  <property name="meta.media.progressive">1</property>
 </producer>
 <producer in="0" out="1081" id="118">
  <property name="mlt_type">producer</property>
  <property name="length">1082</property>
  <property name="eof">pause</property>
  <property name="resource">Videos/EOTR Footage/video-2014-08-30-13-38-19.mp4</property>
  <property name="meta.media.nb_streams">2</property>
  <property name="meta.media.0.stream.type">video</property>
  <property name="meta.media.0.stream.frame_rate">23.8405</property>
  <property name="meta.media.0.stream.sample_aspect_ratio">0</property>
  <property name="meta.media.0.codec.width">1920</property>
  <property name="meta.media.0.codec.height">1080</property>
  <property name="meta.media.0.codec.frame_rate">inf</property>
  <property name="meta.media.0.codec.pix_fmt">yuv420p</property>
  <property name="meta.media.0.codec.sample_aspect_ratio">0</property>
  <property name="meta.media.0.codec.colorspace">709</property>
  <property name="meta.media.0.codec.name">h264</property>
  <property name="meta.media.0.codec.long_name">H.264 / AVC / MPEG-4 AVC / MPEG-4 part 10</property>
  <property name="meta.media.0.codec.bit_rate">13407309</property>
  <property name="meta.attr.0.stream.language.markup">eng</property>
  <property name="meta.media.1.stream.type">audio</property>
  <property name="meta.media.1.codec.sample_fmt">fltp</property>
  <property name="meta.media.1.codec.sample_rate">16000</property>
  <property name="meta.media.1.codec.channels">1</property>
  <property name="meta.media.1.codec.name">aac</property>
  <property name="meta.media.1.codec.long_name">AAC (Advanced Audio Coding)</property>
  <property name="meta.media.1.codec.bit_rate">60684</property>
  <property name="meta.attr.1.stream.language.markup">eng</property>
  <property name="meta.attr.major_brand.markup">3gp4</property>
  <property name="meta.attr.minor_version.markup">768</property>
  <property name="meta.attr.compatible_brands.markup">3gp43gp6</property>
  <property name="seekable">1</property>
  <property name="meta.media.sample_aspect_num">1</property>
  <property name="meta.media.sample_aspect_den">1</property>
  <property name="aspect_ratio">1</property>
  <property name="audio_index">1</property>
  <property name="video_index">0</property>
  <property name="mlt_service">avformat</property>
  <property name="meta.media.frame_rate_num">596</property>
  <property name="meta.media.frame_rate_den">25</property>
  <property name="meta.media.colorspace">709</property>
  <property name="meta.media.width">1920</property>
  <property name="meta.media.height">1080</property>
  <property name="meta.media.top_field_first">0</property>
  <property name="meta.media.progressive">1</property>
 </producer>
 <producer in="0" out="736" id="77">
  <property name="mlt_type">producer</property>
  <property name="length">737</property>
  <property name="eof">pause</property>
  <property name="resource">Videos/EOTR Footage/video-2014-08-29-17-23-47.mp4</property>
  <property name="meta.media.nb_streams">2</property>
  <property name="meta.media.0.stream.type">video</property>
  <property name="meta.media.0.stream.frame_rate">23.8696</property>
  <property name="meta.media.0.stream.sample_aspect_ratio">0</property>
  <property name="meta.media.0.codec.width">1920</property>
  <property name="meta.media.0.codec.height">1080</property>
  <property name="meta.media.0.codec.frame_rate">inf</property>
  <property name="meta.media.0.codec.pix_fmt">yuv420p</property>
  <property name="meta.media.0.codec.sample_aspect_ratio">0</property>
  <property name="meta.media.0.codec.colorspace">709</property>
  <property name="meta.media.0.codec.name">h264</property>
  <property name="meta.media.0.codec.long_name">H.264 / AVC / MPEG-4 AVC / MPEG-4 part 10</property>
  <property name="meta.media.0.codec.bit_rate">13492919</property>
  <property name="meta.attr.0.stream.language.markup">eng</property>
  <property name="meta.media.1.stream.type">audio</property>
  <property name="meta.media.1.codec.sample_fmt">fltp</property>
  <property name="meta.media.1.codec.sample_rate">16000</property>
  <property name="meta.media.1.codec.channels">1</property>
  <property name="meta.media.1.codec.name">aac</property>
  <property name="meta.media.1.codec.long_name">AAC (Advanced Audio Coding)</property>
  <property name="meta.media.1.codec.bit_rate">59428</property>
  <property name="meta.attr.1.stream.language.markup">eng</property>
  <property name="meta.attr.major_brand.markup">3gp4</property>
  <property name="meta.attr.minor_version.markup">768</property>
  <property name="meta.attr.compatible_brands.markup">3gp43gp6</property>
  <property name="seekable">1</property>
  <property name="meta.media.sample_aspect_num">1</property>
  <property name="meta.media.sample_aspect_den">1</property>
  <property name="aspect_ratio">1</property>
  <property name="audio_index">1</property>
  <property name="video_index">0</property>
  <property name="mlt_service">avformat</property>
  <property name="meta.media.frame_rate_num">549</property>
  <property name="meta.media.frame_rate_den">23</property>
  <property name="meta.media.colorspace">709</property>
  <property name="meta.media.width">1920</property>
  <property name="meta.media.height">1080</property>
  <property name="meta.media.top_field_first">0</property>
  <property name="meta.media.progressive">1</property>
 </producer>
 <producer in="0" out="521" id="182">
  <property name="mlt_type">producer</property>
  <property name="length">522</property>
  <property name="eof">pause</property>
  <property name="resource">Videos/EOTR Footage/video-2014-08-31-20-29-22.mp4</property>
  <property name="meta.media.nb_streams">2</property>
  <property name="meta.media.0.stream.type">video</property>
  <property name="meta.media.0.stream.frame_rate">24.0445</property>
  <property name="meta.media.0.stream.sample_aspect_ratio">0</property>
  <property name="meta.media.0.codec.width">1920</property>
  <property name="meta.media.0.codec.height">1080</property>
  <property name="meta.media.0.codec.frame_rate">inf</property>
  <property name="meta.media.0.codec.pix_fmt">yuv420p</property>
  <property name="meta.media.0.codec.sample_aspect_ratio">0</property>
  <property name="meta.media.0.codec.colorspace">709</property>
  <property name="meta.media.0.codec.name">h264</property>
  <property name="meta.media.0.codec.long_name">H.264 / AVC / MPEG-4 AVC / MPEG-4 part 10</property>
  <property name="meta.media.0.codec.bit_rate">13287255</property>
  <property name="meta.attr.0.stream.language.markup">eng</property>
  <property name="meta.media.1.stream.type">audio</property>
  <property name="meta.media.1.codec.sample_fmt">fltp</property>
  <property name="meta.media.1.codec.sample_rate">16000</property>
  <property name="meta.media.1.codec.channels">1</property>
  <property name="meta.media.1.codec.name">aac</property>
  <property name="meta.media.1.codec.long_name">AAC (Advanced Audio Coding)</property>
  <property name="meta.media.1.codec.bit_rate">58739</property>
  <property name="meta.attr.1.stream.language.markup">eng</property>
  <property name="meta.attr.major_brand.markup">3gp4</property>
  <property name="meta.attr.minor_version.markup">768</property>
  <property name="meta.attr.compatible_brands.markup">3gp43gp6</property>
  <property name="seekable">1</property>
  <property name="meta.media.sample_aspect_num">1</property>
  <property name="meta.media.sample_aspect_den">1</property>
  <property name="aspect_ratio">1</property>
  <property name="audio_index">1</property>
  <property name="video_index">0</property>
  <property name="mlt_service">avformat</property>
  <property name="meta.media.frame_rate_num">529</property>
  <property name="meta.media.frame_rate_den">22</property>
  <property name="meta.media.colorspace">709</property>
  <property name="meta.media.width">1920</property>
  <property name="meta.media.height">1080</property>
  <property name="meta.media.top_field_first">0</property>
  <property name="meta.media.progressive">1</property>
 </producer>
 <producer in="0" out="256" id="110">
  <property name="mlt_type">producer</property>
  <property name="length">257</property>
  <property name="eof">pause</property>
  <property name="resource">Videos/EOTR Footage/video-2014-08-30-12-31-11.mp4</property>
  <property name="meta.media.nb_streams">2</property>
  <property name="meta.media.0.stream.type">video</property>
  <property name="meta.media.0.stream.frame_rate">30.0454</property>
  <property name="meta.media.0.stream.sample_aspect_ratio">0</property>
  <property name="meta.media.0.codec.width">1920</property>
  <property name="meta.media.0.codec.height">1080</property>
  <property name="meta.media.0.codec.frame_rate">inf</property>
  <property name="meta.media.0.codec.pix_fmt">yuv420p</property>
  <property name="meta.media.0.codec.sample_aspect_ratio">0</property>
  <property name="meta.media.0.codec.colorspace">709</property>
  <property name="meta.media.0.codec.name">h264</property>
  <property name="meta.media.0.codec.long_name">H.264 / AVC / MPEG-4 AVC / MPEG-4 part 10</property>
  <property name="meta.media.0.codec.bit_rate">16934228</property>
  <property name="meta.attr.0.stream.language.markup">eng</property>
  <property name="meta.media.1.stream.type">audio</property>
  <property name="meta.media.1.codec.sample_fmt">fltp</property>
  <property name="meta.media.1.codec.sample_rate">16000</property>
  <property name="meta.media.1.codec.channels">1</property>
  <property name="meta.media.1.codec.name">aac</property>
  <property name="meta.media.1.codec.long_name">AAC (Advanced Audio Coding)</property>
  <property name="meta.media.1.codec.bit_rate">59193</property>
  <property name="meta.attr.1.stream.language.markup">eng</property>
  <property name="meta.attr.major_brand.markup">3gp4</property>
  <property name="meta.attr.minor_version.markup">768</property>
  <property name="meta.attr.compatible_brands.markup">3gp43gp6</property>
  <property name="seekable">1</property>
  <property name="meta.media.sample_aspect_num">1</property>
  <property name="meta.media.sample_aspect_den">1</property>
  <property name="aspect_ratio">1</property>
  <property name="audio_index">1</property>
  <property name="video_index">0</property>
  <property name="mlt_service">avformat</property>
  <property name="meta.media.frame_rate_num">661</property>
  <property name="meta.media.frame_rate_den">22</property>
  <property name="meta.media.colorspace">709</property>
  <property name="meta.media.width">1920</property>
  <property name="meta.media.height">1080</property>
  <property name="meta.media.top_field_first">0</property>
  <property name="meta.media.progressive">1</property>
 </producer>
 <producer in="0" out="1256" id="115">
  <property name="mlt_type">producer</property>
  <property name="length">1257</property>
  <property name="eof">pause</property>
  <property name="resource">Videos/EOTR Footage/video-2014-08-30-12-55-51.mp4</property>
  <property name="meta.media.nb_streams">2</property>
  <property name="meta.media.0.stream.type">video</property>
  <property name="meta.media.0.stream.frame_rate">30.0424</property>
  <property name="meta.media.0.stream.sample_aspect_ratio">0</property>
  <property name="meta.media.0.codec.width">1920</property>
  <property name="meta.media.0.codec.height">1080</property>
  <property name="meta.media.0.codec.frame_rate">inf</property>
  <property name="meta.media.0.codec.pix_fmt">yuv420p</property>
  <property name="meta.media.0.codec.sample_aspect_ratio">0</property>
  <property name="meta.media.0.codec.colorspace">709</property>
  <property name="meta.media.0.codec.name">h264</property>
  <property name="meta.media.0.codec.long_name">H.264 / AVC / MPEG-4 AVC / MPEG-4 part 10</property>
  <property name="meta.media.0.codec.bit_rate">17026211</property>
  <property name="meta.attr.0.stream.language.markup">eng</property>
  <property name="meta.media.1.stream.type">audio</property>
  <property name="meta.media.1.codec.sample_fmt">fltp</property>
  <property name="meta.media.1.codec.sample_rate">16000</property>
  <property name="meta.media.1.codec.channels">1</property>
  <property name="meta.media.1.codec.name">aac</property>
  <property name="meta.media.1.codec.long_name">AAC (Advanced Audio Coding)</property>
  <property name="meta.media.1.codec.bit_rate">62364</property>
  <property name="meta.attr.1.stream.language.markup">eng</property>
  <property name="meta.attr.major_brand.markup">3gp4</property>
  <property name="meta.attr.minor_version.markup">768</property>
  <property name="meta.attr.compatible_brands.markup">3gp43gp6</property>
  <property name="seekable">1</property>
  <property name="meta.media.sample_aspect_num">1</property>
  <property name="meta.media.sample_aspect_den">1</property>
  <property name="aspect_ratio">1</property>
  <property name="audio_index">1</property>
  <property name="video_index">0</property>
  <property name="mlt_service">avformat</property>
  <property name="meta.media.frame_rate_num">721</property>
  <property name="meta.media.frame_rate_den">24</property>
  <property name="meta.media.colorspace">709</property>
  <property name="meta.media.width">1920</property>
  <property name="meta.media.height">1080</property>
  <property name="meta.media.top_field_first">0</property>
  <property name="meta.media.progressive">1</property>
 </producer>
 <producer in="0" out="1813" id="11">
  <property name="mlt_type">producer</property>
  <property name="length">1814</property>
  <property name="eof">pause</property>
  <property name="resource">Videos/EOTR Footage/20140829_111423.mp4</property>
  <property name="meta.media.nb_streams">2</property>
  <property name="meta.media.0.stream.type">video</property>
  <property name="meta.media.0.stream.frame_rate">29.6717</property>
  <property name="meta.media.0.stream.sample_aspect_ratio">0</property>
  <property name="meta.media.0.codec.width">1920</property>
  <property name="meta.media.0.codec.height">1080</property>
  <property name="meta.media.0.codec.frame_rate">inf</property>
  <property name="meta.media.0.codec.pix_fmt">yuv420p</property>
  <property name="meta.media.0.codec.sample_aspect_ratio">0</property>
  <property name="meta.media.0.codec.colorspace">709</property>
  <property name="meta.media.0.codec.name">h264</property>
  <property name="meta.media.0.codec.long_name">H.264 / AVC / MPEG-4 AVC / MPEG-4 part 10</property>
  <property name="meta.media.0.codec.bit_rate">16898863</property>
  <property name="meta.attr.0.stream.creation_time.markup">2014-08-29 10:15:25</property>
  <property name="meta.attr.0.stream.language.markup">eng</property>
  <property name="meta.media.1.stream.type">audio</property>
  <property name="meta.media.1.codec.sample_fmt">fltp</property>
  <property name="meta.media.1.codec.sample_rate">48000</property>
  <property name="meta.media.1.codec.channels">2</property>
  <property name="meta.media.1.codec.name">aac</property>
  <property name="meta.media.1.codec.long_name">AAC (Advanced Audio Coding)</property>
  <property name="meta.media.1.codec.bit_rate">125827</property>
  <property name="meta.attr.1.stream.creation_time.markup">2014-08-29 10:15:25</property>
  <property name="meta.attr.1.stream.language.markup">eng</property>
  <property name="meta.attr.major_brand.markup">isom</property>
  <property name="meta.attr.minor_version.markup">0</property>
  <property name="meta.attr.compatible_brands.markup">isom3gp4</property>
  <property name="meta.attr.creation_time.markup">2014-08-29 10:15:25</property>
  <property name="seekable">1</property>
  <property name="meta.media.sample_aspect_num">1</property>
  <property name="meta.media.sample_aspect_den">1</property>
  <property name="aspect_ratio">1</property>
  <property name="audio_index">1</property>
  <property name="video_index">0</property>
  <property name="mlt_service">avformat</property>
  <property name="meta.media.frame_rate_num">32256000</property>
  <property name="meta.media.frame_rate_den">1087097</property>
  <property name="meta.media.colorspace">709</property>
  <property name="meta.media.width">1920</property>
  <property name="meta.media.height">1080</property>
  <property name="meta.media.top_field_first">0</property>
  <property name="meta.media.progressive">1</property>
 </producer>
 <playlist id="playlist4">
  <blank length="141"/>
  <entry in="582" out="674" producer="30"/>
  <blank length="125"/>
  <entry in="170" out="227" producer="32"/>
  <blank length="190"/>
  <entry in="646" out="684" producer="36"/>
  <blank length="432"/>
  <entry in="8" out="124" producer="42"/>
  <blank length="106"/>
  <entry in="89" out="180" producer="44"/>
  <blank length="364"/>
  <entry in="211" out="299" producer="49"/>
  <blank length="535"/>
  <entry in="173" out="300" producer="58"/>
  <blank length="162"/>
  <entry in="512" out="625" producer="58"/>
  <blank length="398"/>
  <entry in="1579" out="1721" producer="86"/>
  <blank length="158"/>
  <entry in="46" out="139" producer="67"/>
  <blank length="190"/>
  <entry in="409" out="473" producer="6"/>
  <blank length="240"/>
  <entry in="0" out="91" producer="8"/>
  <blank length="62"/>
  <entry in="509" out="573" producer="5_0"/>
  <entry in="787" out="856" producer="9_0"/>
  <blank length="96"/>
  <entry in="153" out="181" producer="73"/>
  <entry in="277" out="299" producer="74_0"/>
  <entry in="0" out="49" producer="118"/>
  <entry in="564" out="642" producer="77"/>
  <blank length="193"/>
  <entry in="385" out="448" producer="182"/>
  <blank length="246"/>
  <entry in="36" out="92" producer="110"/>
  <blank length="237"/>
  <entry in="165" out="227" producer="115"/>
  <blank length="262"/>
  <entry in="168" out="236" producer="11"/>
 </playlist>
 <tractor title="Anonymous Submission" global_feed="1" in="0" out="7449" id="maintractor">
  <property name="meta.volume">1</property>
  <track producer="black_track"/>
  <track hide="video" producer="playlist1"/>
  <track hide="audio" producer="playlist2"/>
  <track hide="audio" producer="playlist3"/>
  <track hide="audio" producer="playlist4"/>
  <transition id="transition0">
   <property name="a_track">1</property>
   <property name="b_track">2</property>
   <property name="mlt_type">transition</property>
   <property name="mlt_service">mix</property>
   <property name="always_active">1</property>
   <property name="combine">1</property>
   <property name="internal_added">237</property>
  </transition>
  <transition id="transition1">
   <property name="a_track">1</property>
   <property name="b_track">3</property>
   <property name="mlt_type">transition</property>
   <property name="mlt_service">mix</property>
   <property name="always_active">1</property>
   <property name="combine">1</property>
   <property name="internal_added">237</property>
  </transition>
  <transition id="transition2">
   <property name="a_track">1</property>
   <property name="b_track">4</property>
   <property name="mlt_type">transition</property>
   <property name="mlt_service">mix</property>
   <property name="always_active">1</property>
   <property name="combine">1</property>
   <property name="internal_added">237</property>
  </transition>
 </tractor>
 <kdenlivedoc profile="atsc_1080i_5994" kdenliveversion="0.9.6" version="0.88" projectfolder="/home/alex/kdenlive">
  <customeffects/>
  <documentproperties documentid="1425503265102" renderdestination="" renderrescalewidth="320" proxyextension="ts" generateproxy="0" proxyimageminsize="2000" rendertctype="0" verticalzoom="1" renderprofile="MPEG-4/AAC" renderrescaleheight="240" zonein="0" renderrescale="0" renderscanning="0" renderurl="/home/alex/kdenlive/eotr2014.mp4" rendertwopass="0" renderplay="0" position="5924" proxyminsize="1000" renderstartguide="-1" zoom="5" renderratio="0" rendercategory="MPEG-4" zoneout="1798" renderzone="0" renderendguide="-1" renderexportaudio="0" proxyparams="-f mpegts -acodec libmp3lame -ac 2 -ab 128k -ar 48000 -vcodec mpeg2video -g 5 -deinterlace -s 480x270 -vb 400k" enableproxy="0" generateimageproxy="0" renderguide="0" rendertcoverlay="0"/>
  <documentmetadata/>
  <documentnotes>&lt;!DOCTYPE HTML PUBLIC "-//W3C//DTD HTML 4.0//EN" "http://www.w3.org/TR/REC-html40/strict.dtd">
&lt;html>&lt;head>&lt;meta name="qrichtext" content="1" />&lt;style type="text/css">
p, li { white-space: pre-wrap; }
&lt;/style>&lt;/head>&lt;body style=" font-family:'Sans Serif'; font-size:8pt; font-weight:400; font-style:normal;">
&lt;p style="-qt-paragraph-type:empty; margin-top:0px; margin-bottom:0px; margin-left:0px; margin-right:0px; -qt-block-indent:0; text-indent:0px;">&lt;br />&lt;/p>&lt;/body>&lt;/html></documentnotes>
  <profileinfo width="1920" display_aspect_den="9" frame_rate_den="1001" description="HD 1080i 29.97 fps" height="1080" frame_rate_num="30000" display_aspect_num="16" progressive="0" sample_aspect_num="1" sample_aspect_den="1"/>
  <tracksinfo>
   <trackinfo blind="1" mute="0" locked="0" trackname="Audio 1" type="audio"/>
   <trackinfo blind="0" mute="1" locked="0" trackname="Video 3"/>
   <trackinfo blind="0" mute="1" locked="0" trackname="Video 2"/>
   <trackinfo blind="0" mute="1" locked="0" trackname="Video 1"/>
  </tracksinfo>
  <kdenlive_producer audio_max="57" id="2" pix_fmt="yuv420p" default_video="0" fps="30.0205" analysisdata="" name="20140828_133532.mp4" videocodecid="h264" colorspace="709" videocodec="H.264 / AVC / MPEG-4 AVC / MPEG-4 part 10" resource="/home/alex/Videos/EOTR Footage/20140828_133532.mp4" default_audio="1" audiocodec="AAC (Advanced Audio Coding)" duration="360" file_hash="76ad7a702c62d5892e50786451840119" aspect_ratio="1" channels="2" frequency="48000" video_max="0" progressive="1" type="3" frame_size="1920x1080" file_size="25300245">
   <metaproperty tool="" name="meta.attr.0.stream.creation_time">2014-08-28 12:35:45</metaproperty>
   <metaproperty tool="" name="meta.attr.0.stream.language">eng</metaproperty>
   <metaproperty tool="" name="meta.attr.1.stream.creation_time">2014-08-28 12:35:45</metaproperty>
   <metaproperty tool="" name="meta.attr.1.stream.language">eng</metaproperty>
   <metaproperty tool="" name="meta.attr.compatible_brands">isom3gp4</metaproperty>
   <metaproperty tool="" name="meta.attr.creation_time">2014-08-28 12:35:45</metaproperty>
   <metaproperty tool="" name="meta.attr.major_brand">isom</metaproperty>
   <metaproperty tool="" name="meta.attr.minor_version">0</metaproperty>
  </kdenlive_producer>
  <kdenlive_producer audio_max="62" id="3" pix_fmt="yuv420p" default_video="0" fps="29.8497" analysisdata="" name="20140828_143343.mp4" videocodecid="h264" colorspace="709" videocodec="H.264 / AVC / MPEG-4 AVC / MPEG-4 part 10" resource="/home/alex/Videos/EOTR Footage/20140828_143343.mp4" default_audio="1" audiocodec="AAC (Advanced Audio Coding)" duration="1771" file_hash="6bc966828a9d27dd460d2becab9deead" aspect_ratio="1" channels="2" frequency="48000" video_max="0" progressive="1" type="3" frame_size="1920x1080" file_size="125663445">
   <metaproperty tool="" name="meta.attr.0.stream.creation_time">2014-08-28 13:34:43</metaproperty>
   <metaproperty tool="" name="meta.attr.0.stream.language">eng</metaproperty>
   <metaproperty tool="" name="meta.attr.1.stream.creation_time">2014-08-28 13:34:43</metaproperty>
   <metaproperty tool="" name="meta.attr.1.stream.language">eng</metaproperty>
   <metaproperty tool="" name="meta.attr.compatible_brands">isom3gp4</metaproperty>
   <metaproperty tool="" name="meta.attr.creation_time">2014-08-28 13:34:43</metaproperty>
   <metaproperty tool="" name="meta.attr.major_brand">isom</metaproperty>
   <metaproperty tool="" name="meta.attr.minor_version">0</metaproperty>
  </kdenlive_producer>
  <kdenlive_producer audio_max="55" id="4" pix_fmt="yuv420p" default_video="0" fps="29.6277" analysisdata="" name="20140828_203157.mp4" videocodecid="h264" colorspace="709" videocodec="H.264 / AVC / MPEG-4 AVC / MPEG-4 part 10" resource="/home/alex/Videos/EOTR Footage/20140828_203157.mp4" default_audio="1" audiocodec="AAC (Advanced Audio Coding)" duration="700" file_hash="b979ecfb02a4eabbe85cf5a30c70c0b0" aspect_ratio="1" channels="2" frequency="48000" video_max="0" progressive="1" type="3" frame_size="1920x1080" file_size="49318589">
   <metaproperty tool="" name="meta.attr.0.stream.creation_time">2014-08-28 19:32:21</metaproperty>
   <metaproperty tool="" name="meta.attr.0.stream.language">eng</metaproperty>
   <metaproperty tool="" name="meta.attr.1.stream.creation_time">2014-08-28 19:32:21</metaproperty>
   <metaproperty tool="" name="meta.attr.1.stream.language">eng</metaproperty>
   <metaproperty tool="" name="meta.attr.compatible_brands">isom3gp4</metaproperty>
   <metaproperty tool="" name="meta.attr.creation_time">2014-08-28 19:32:21</metaproperty>
   <metaproperty tool="" name="meta.attr.major_brand">isom</metaproperty>
   <metaproperty tool="" name="meta.attr.minor_version">0</metaproperty>
  </kdenlive_producer>
  <kdenlive_producer audio_max="49" id="5" pix_fmt="yuv420p" default_video="0" fps="29.9811" analysisdata="" name="20140829_102404.mp4" videocodecid="h264" colorspace="709" videocodec="H.264 / AVC / MPEG-4 AVC / MPEG-4 part 10" resource="/home/alex/Videos/EOTR Footage/20140829_102404.mp4" default_audio="1" audiocodec="AAC (Advanced Audio Coding)" duration="1311" file_hash="a46cf619779b5eb3509972d2e2f12e06" aspect_ratio="1" channels="2" frequency="48000" video_max="0" progressive="1" type="3" frame_size="1920x1080" file_size="92934244">
   <metaproperty tool="" name="meta.attr.0.stream.creation_time">2014-08-29 09:24:49</metaproperty>
   <metaproperty tool="" name="meta.attr.0.stream.language">eng</metaproperty>
   <metaproperty tool="" name="meta.attr.1.stream.creation_time">2014-08-29 09:24:49</metaproperty>
   <metaproperty tool="" name="meta.attr.1.stream.language">eng</metaproperty>
   <metaproperty tool="" name="meta.attr.compatible_brands">isom3gp4</metaproperty>
   <metaproperty tool="" name="meta.attr.creation_time">2014-08-29 09:24:49</metaproperty>
   <metaproperty tool="" name="meta.attr.major_brand">isom</metaproperty>
   <metaproperty tool="" name="meta.attr.minor_version">0</metaproperty>
  </kdenlive_producer>
  <kdenlive_producer audio_max="53" id="6" pix_fmt="yuv420p" default_video="0" fps="29.8145" analysisdata="" name="20140829_102708.mp4" videocodecid="h264" colorspace="709" videocodec="H.264 / AVC / MPEG-4 AVC / MPEG-4 part 10" resource="/home/alex/Videos/EOTR Footage/20140829_102708.mp4" default_audio="1" audiocodec="AAC (Advanced Audio Coding)" duration="884" file_hash="f37518d519e226cb126a51c777558aeb" aspect_ratio="1" channels="2" frequency="48000" video_max="0" progressive="1" type="3" frame_size="1920x1080" file_size="62240269">
   <metaproperty tool="" name="meta.attr.0.stream.creation_time">2014-08-29 09:27:38</metaproperty>
   <metaproperty tool="" name="meta.attr.0.stream.language">eng</metaproperty>
   <metaproperty tool="" name="meta.attr.1.stream.creation_time">2014-08-29 09:27:39</metaproperty>
   <metaproperty tool="" name="meta.attr.1.stream.language">eng</metaproperty>
   <metaproperty tool="" name="meta.attr.compatible_brands">isom3gp4</metaproperty>
   <metaproperty tool="" name="meta.attr.creation_time">2014-08-29 09:27:38</metaproperty>
   <metaproperty tool="" name="meta.attr.major_brand">isom</metaproperty>
   <metaproperty tool="" name="meta.attr.minor_version">0</metaproperty>
  </kdenlive_producer>
  <kdenlive_producer audio_max="56" id="7" pix_fmt="yuv420p" default_video="0" fps="29.7737" analysisdata="" name="20140829_103128.mp4" videocodecid="h264" colorspace="709" videocodec="H.264 / AVC / MPEG-4 AVC / MPEG-4 part 10" resource="/home/alex/Videos/EOTR Footage/20140829_103128.mp4" default_audio="1" audiocodec="AAC (Advanced Audio Coding)" duration="893" file_hash="0f5c5086ee3f37900dab07fe4e3fc612" aspect_ratio="1" channels="2" frequency="48000" video_max="0" progressive="1" type="3" frame_size="1920x1080" file_size="63219315">
   <metaproperty tool="" name="meta.attr.0.stream.creation_time">2014-08-29 09:31:59</metaproperty>
   <metaproperty tool="" name="meta.attr.0.stream.language">eng</metaproperty>
   <metaproperty tool="" name="meta.attr.1.stream.creation_time">2014-08-29 09:31:59</metaproperty>
   <metaproperty tool="" name="meta.attr.1.stream.language">eng</metaproperty>
   <metaproperty tool="" name="meta.attr.compatible_brands">isom3gp4</metaproperty>
   <metaproperty tool="" name="meta.attr.creation_time">2014-08-29 09:31:59</metaproperty>
   <metaproperty tool="" name="meta.attr.major_brand">isom</metaproperty>
   <metaproperty tool="" name="meta.attr.minor_version">0</metaproperty>
  </kdenlive_producer>
  <kdenlive_producer audio_max="62" id="8" pix_fmt="yuv420p" default_video="0" fps="29.8196" analysisdata="" name="20140829_103717.mp4" videocodecid="h264" colorspace="709" videocodec="H.264 / AVC / MPEG-4 AVC / MPEG-4 part 10" resource="/home/alex/Videos/EOTR Footage/20140829_103717.mp4" default_audio="1" audiocodec="AAC (Advanced Audio Coding)" duration="1135" file_hash="d4fdbec613ed7cffac25526cfc2237eb" aspect_ratio="1" channels="2" frequency="48000" video_max="0" progressive="1" type="3" frame_size="1920x1080" file_size="80152492">
   <metaproperty tool="" name="meta.attr.0.stream.creation_time">2014-08-29 09:37:55</metaproperty>
   <metaproperty tool="" name="meta.attr.0.stream.language">eng</metaproperty>
   <metaproperty tool="" name="meta.attr.1.stream.creation_time">2014-08-29 09:37:55</metaproperty>
   <metaproperty tool="" name="meta.attr.1.stream.language">eng</metaproperty>
   <metaproperty tool="" name="meta.attr.compatible_brands">isom3gp4</metaproperty>
   <metaproperty tool="" name="meta.attr.creation_time">2014-08-29 09:37:55</metaproperty>
   <metaproperty tool="" name="meta.attr.major_brand">isom</metaproperty>
   <metaproperty tool="" name="meta.attr.minor_version">0</metaproperty>
  </kdenlive_producer>
  <kdenlive_producer audio_max="59" id="9" pix_fmt="yuv420p" default_video="0" fps="29.8012" analysisdata="" name="20140829_104453.mp4" videocodecid="h264" colorspace="709" videocodec="H.264 / AVC / MPEG-4 AVC / MPEG-4 part 10" resource="/home/alex/Videos/EOTR Footage/20140829_104453.mp4" default_audio="1" audiocodec="AAC (Advanced Audio Coding)" duration="2013" file_hash="0c5e341611441bd7500120fe204c7dc2" aspect_ratio="1" channels="2" frequency="48000" video_max="0" progressive="1" type="3" frame_size="1920x1080" file_size="142933942">
   <metaproperty tool="" name="meta.attr.0.stream.creation_time">2014-08-29 09:46:02</metaproperty>
   <metaproperty tool="" name="meta.attr.0.stream.language">eng</metaproperty>
   <metaproperty tool="" name="meta.attr.1.stream.creation_time">2014-08-29 09:46:02</metaproperty>
   <metaproperty tool="" name="meta.attr.1.stream.language">eng</metaproperty>
   <metaproperty tool="" name="meta.attr.compatible_brands">isom3gp4</metaproperty>
   <metaproperty tool="" name="meta.attr.creation_time">2014-08-29 09:46:02</metaproperty>
   <metaproperty tool="" name="meta.attr.major_brand">isom</metaproperty>
   <metaproperty tool="" name="meta.attr.minor_version">0</metaproperty>
  </kdenlive_producer>
  <kdenlive_producer audio_max="55" id="10" pix_fmt="yuv420p" default_video="0" fps="29.9305" analysisdata="" name="20140829_110125.mp4" videocodecid="h264" thumbnail="100" colorspace="709" videocodec="H.264 / AVC / MPEG-4 AVC / MPEG-4 part 10" resource="/home/alex/Videos/EOTR Footage/20140829_110125.mp4" default_audio="1" audiocodec="AAC (Advanced Audio Coding)" duration="341" file_hash="0b4e15c18b188a1cc861a1cbc1daf681" aspect_ratio="1" channels="2" frequency="48000" video_max="0" progressive="1" type="3" frame_size="1920x1080" file_size="23802918">
   <metaproperty tool="" name="meta.attr.0.stream.creation_time">2014-08-29 10:01:37</metaproperty>
   <metaproperty tool="" name="meta.attr.0.stream.language">eng</metaproperty>
   <metaproperty tool="" name="meta.attr.1.stream.creation_time">2014-08-29 10:01:37</metaproperty>
   <metaproperty tool="" name="meta.attr.1.stream.language">eng</metaproperty>
   <metaproperty tool="" name="meta.attr.compatible_brands">isom3gp4</metaproperty>
   <metaproperty tool="" name="meta.attr.creation_time">2014-08-29 10:01:37</metaproperty>
   <metaproperty tool="" name="meta.attr.major_brand">isom</metaproperty>
   <metaproperty tool="" name="meta.attr.minor_version">0</metaproperty>
  </kdenlive_producer>
  <kdenlive_producer audio_max="61" id="11" pix_fmt="yuv420p" default_video="0" fps="29.6717" analysisdata="" name="20140829_111423.mp4" videocodecid="h264" colorspace="709" videocodec="H.264 / AVC / MPEG-4 AVC / MPEG-4 part 10" resource="/home/alex/Videos/EOTR Footage/20140829_111423.mp4" default_audio="1" audiocodec="AAC (Advanced Audio Coding)" duration="1814" file_hash="918cda9cce477f21ad01bcce9d5ee1eb" aspect_ratio="1" channels="2" frequency="48000" video_max="0" progressive="1" type="3" frame_size="1920x1080" file_size="128560478">
   <metaproperty tool="" name="meta.attr.0.stream.creation_time">2014-08-29 10:15:25</metaproperty>
   <metaproperty tool="" name="meta.attr.0.stream.language">eng</metaproperty>
   <metaproperty tool="" name="meta.attr.1.stream.creation_time">2014-08-29 10:15:25</metaproperty>
   <metaproperty tool="" name="meta.attr.1.stream.language">eng</metaproperty>
   <metaproperty tool="" name="meta.attr.compatible_brands">isom3gp4</metaproperty>
   <metaproperty tool="" name="meta.attr.creation_time">2014-08-29 10:15:25</metaproperty>
   <metaproperty tool="" name="meta.attr.major_brand">isom</metaproperty>
   <metaproperty tool="" name="meta.attr.minor_version">0</metaproperty>
  </kdenlive_producer>
  <kdenlive_producer audio_max="57" id="12" pix_fmt="yuv420p" default_video="0" fps="29.6624" analysisdata="" name="20140829_111704.mp4" videocodecid="h264" colorspace="709" videocodec="H.264 / AVC / MPEG-4 AVC / MPEG-4 part 10" resource="/home/alex/Videos/EOTR Footage/20140829_111704.mp4" default_audio="1" audiocodec="AAC (Advanced Audio Coding)" duration="1510" file_hash="1d90c66e025e33c633fc64498bb75a33" aspect_ratio="1" channels="2" frequency="48000" video_max="0" progressive="1" type="3" frame_size="1920x1080" file_size="107046472">
   <metaproperty tool="" name="meta.attr.0.stream.creation_time">2014-08-29 10:17:56</metaproperty>
   <metaproperty tool="" name="meta.attr.0.stream.language">eng</metaproperty>
   <metaproperty tool="" name="meta.attr.1.stream.creation_time">2014-08-29 10:17:56</metaproperty>
   <metaproperty tool="" name="meta.attr.1.stream.language">eng</metaproperty>
   <metaproperty tool="" name="meta.attr.compatible_brands">isom3gp4</metaproperty>
   <metaproperty tool="" name="meta.attr.creation_time">2014-08-29 10:17:56</metaproperty>
   <metaproperty tool="" name="meta.attr.major_brand">isom</metaproperty>
   <metaproperty tool="" name="meta.attr.minor_version">0</metaproperty>
  </kdenlive_producer>
  <kdenlive_producer audio_max="37" id="13" pix_fmt="yuv420p" default_video="0" fps="29.5201" analysisdata="" name="20140829_111824.mp4" videocodecid="h264" colorspace="709" videocodec="H.264 / AVC / MPEG-4 AVC / MPEG-4 part 10" resource="/home/alex/Videos/EOTR Footage/20140829_111824.mp4" default_audio="1" audiocodec="AAC (Advanced Audio Coding)" duration="370" file_hash="5d5258fbd7cad49a67c2e970cdcbbe60" aspect_ratio="1" channels="2" frequency="48000" video_max="0" progressive="1" type="3" frame_size="1920x1080" file_size="25448673">
   <metaproperty tool="" name="meta.attr.0.stream.creation_time">2014-08-29 10:18:38</metaproperty>
   <metaproperty tool="" name="meta.attr.0.stream.language">eng</metaproperty>
   <metaproperty tool="" name="meta.attr.1.stream.creation_time">2014-08-29 10:18:38</metaproperty>
   <metaproperty tool="" name="meta.attr.1.stream.language">eng</metaproperty>
   <metaproperty tool="" name="meta.attr.compatible_brands">isom3gp4</metaproperty>
   <metaproperty tool="" name="meta.attr.creation_time">2014-08-29 10:18:38</metaproperty>
   <metaproperty tool="" name="meta.attr.major_brand">isom</metaproperty>
   <metaproperty tool="" name="meta.attr.minor_version">0</metaproperty>
  </kdenlive_producer>
  <kdenlive_producer audio_max="63" id="14" pix_fmt="yuv420p" default_video="0" fps="29.74" analysisdata="" name="20140829_111848.mp4" videocodecid="h264" colorspace="709" videocodec="H.264 / AVC / MPEG-4 AVC / MPEG-4 part 10" resource="/home/alex/Videos/EOTR Footage/20140829_111848.mp4" default_audio="1" audiocodec="AAC (Advanced Audio Coding)" duration="906" file_hash="1bdecf6cef9d0d06dc2be24716a03773" aspect_ratio="1" channels="2" frequency="48000" video_max="0" progressive="1" type="3" frame_size="1920x1080" file_size="64221244">
   <metaproperty tool="" name="meta.attr.0.stream.creation_time">2014-08-29 10:19:19</metaproperty>
   <metaproperty tool="" name="meta.attr.0.stream.language">eng</metaproperty>
   <metaproperty tool="" name="meta.attr.1.stream.creation_time">2014-08-29 10:19:19</metaproperty>
   <metaproperty tool="" name="meta.attr.1.stream.language">eng</metaproperty>
   <metaproperty tool="" name="meta.attr.compatible_brands">isom3gp4</metaproperty>
   <metaproperty tool="" name="meta.attr.creation_time">2014-08-29 10:19:19</metaproperty>
   <metaproperty tool="" name="meta.attr.major_brand">isom</metaproperty>
   <metaproperty tool="" name="meta.attr.minor_version">0</metaproperty>
  </kdenlive_producer>
  <kdenlive_producer audio_max="61" id="15" pix_fmt="yuv420p" default_video="0" fps="29.8363" analysisdata="" name="20140829_112114.mp4" videocodecid="h264" colorspace="709" videocodec="H.264 / AVC / MPEG-4 AVC / MPEG-4 part 10" resource="/home/alex/Videos/EOTR Footage/20140829_112114.mp4" default_audio="1" audiocodec="AAC (Advanced Audio Coding)" duration="989" file_hash="6b97214caf629a90e936fe3420677e2f" aspect_ratio="1" channels="2" frequency="48000" video_max="0" progressive="1" type="3" frame_size="1920x1080" file_size="70220958">
   <metaproperty tool="" name="meta.attr.0.stream.creation_time">2014-08-29 10:21:48</metaproperty>
   <metaproperty tool="" name="meta.attr.0.stream.language">eng</metaproperty>
   <metaproperty tool="" name="meta.attr.1.stream.creation_time">2014-08-29 10:21:48</metaproperty>
   <metaproperty tool="" name="meta.attr.1.stream.language">eng</metaproperty>
   <metaproperty tool="" name="meta.attr.compatible_brands">isom3gp4</metaproperty>
   <metaproperty tool="" name="meta.attr.creation_time">2014-08-29 10:21:48</metaproperty>
   <metaproperty tool="" name="meta.attr.major_brand">isom</metaproperty>
   <metaproperty tool="" name="meta.attr.minor_version">0</metaproperty>
  </kdenlive_producer>
  <kdenlive_producer audio_max="59" id="16" pix_fmt="yuv420p" default_video="0" fps="29.8894" analysisdata="" name="20140829_115033.mp4" videocodecid="h264" colorspace="709" videocodec="H.264 / AVC / MPEG-4 AVC / MPEG-4 part 10" resource="/home/alex/Videos/EOTR Footage/20140829_115033.mp4" default_audio="1" audiocodec="AAC (Advanced Audio Coding)" duration="534" file_hash="59b4ae8b804ca585e7f3e2f246be8232" aspect_ratio="1" channels="2" frequency="48000" video_max="0" progressive="1" type="3" frame_size="1920x1080" file_size="37479402">
   <metaproperty tool="" name="meta.attr.0.stream.creation_time">2014-08-29 10:50:51</metaproperty>
   <metaproperty tool="" name="meta.attr.0.stream.language">eng</metaproperty>
   <metaproperty tool="" name="meta.attr.1.stream.creation_time">2014-08-29 10:50:51</metaproperty>
   <metaproperty tool="" name="meta.attr.1.stream.language">eng</metaproperty>
   <metaproperty tool="" name="meta.attr.compatible_brands">isom3gp4</metaproperty>
   <metaproperty tool="" name="meta.attr.creation_time">2014-08-29 10:50:51</metaproperty>
   <metaproperty tool="" name="meta.attr.major_brand">isom</metaproperty>
   <metaproperty tool="" name="meta.attr.minor_version">0</metaproperty>
  </kdenlive_producer>
  <kdenlive_producer audio_max="59" id="17" pix_fmt="yuv420p" default_video="0" fps="29.6011" analysisdata="" name="20140829_121502.mp4" videocodecid="h264" colorspace="709" videocodec="H.264 / AVC / MPEG-4 AVC / MPEG-4 part 10" resource="/home/alex/Videos/EOTR Footage/20140829_121502.mp4" default_audio="1" audiocodec="AAC (Advanced Audio Coding)" duration="1007" file_hash="2780c77a3b73b4f6adbfecdd00353d3b" aspect_ratio="1" channels="2" frequency="48000" video_max="0" progressive="1" type="3" frame_size="1920x1080" file_size="70890833">
   <metaproperty tool="" name="meta.attr.0.stream.creation_time">2014-08-29 11:15:37</metaproperty>
   <metaproperty tool="" name="meta.attr.0.stream.language">eng</metaproperty>
   <metaproperty tool="" name="meta.attr.1.stream.creation_time">2014-08-29 11:15:37</metaproperty>
   <metaproperty tool="" name="meta.attr.1.stream.language">eng</metaproperty>
   <metaproperty tool="" name="meta.attr.compatible_brands">isom3gp4</metaproperty>
   <metaproperty tool="" name="meta.attr.creation_time">2014-08-29 11:15:37</metaproperty>
   <metaproperty tool="" name="meta.attr.major_brand">isom</metaproperty>
   <metaproperty tool="" name="meta.attr.minor_version">0</metaproperty>
  </kdenlive_producer>
  <kdenlive_producer audio_max="58" id="18" pix_fmt="yuv420p" default_video="0" fps="29.6423" analysisdata="" name="20140829_122156.mp4" videocodecid="h264" colorspace="709" videocodec="H.264 / AVC / MPEG-4 AVC / MPEG-4 part 10" resource="/home/alex/Videos/EOTR Footage/20140829_122156.mp4" default_audio="1" audiocodec="AAC (Advanced Audio Coding)" duration="563" file_hash="fe9a83ed278feff282513dd4211d71a4" aspect_ratio="1" channels="2" frequency="48000" video_max="0" progressive="1" type="3" frame_size="1920x1080" file_size="39619150">
   <metaproperty tool="" name="meta.attr.0.stream.creation_time">2014-08-29 11:22:16</metaproperty>
   <metaproperty tool="" name="meta.attr.0.stream.language">eng</metaproperty>
   <metaproperty tool="" name="meta.attr.1.stream.creation_time">2014-08-29 11:22:16</metaproperty>
   <metaproperty tool="" name="meta.attr.1.stream.language">eng</metaproperty>
   <metaproperty tool="" name="meta.attr.compatible_brands">isom3gp4</metaproperty>
   <metaproperty tool="" name="meta.attr.creation_time">2014-08-29 11:22:16</metaproperty>
   <metaproperty tool="" name="meta.attr.major_brand">isom</metaproperty>
   <metaproperty tool="" name="meta.attr.minor_version">0</metaproperty>
  </kdenlive_producer>
  <kdenlive_producer audio_max="58" id="19" pix_fmt="yuv420p" default_video="0" fps="29.9768" analysisdata="" name="20140829_135026.mp4" videocodecid="h264" colorspace="709" videocodec="H.264 / AVC / MPEG-4 AVC / MPEG-4 part 10" resource="/home/alex/Videos/EOTR Footage/20140829_135026.mp4" default_audio="1" audiocodec="AAC (Advanced Audio Coding)" duration="355" file_hash="5f05be54e2eab817e4f2e2665790a08b" aspect_ratio="1" channels="2" frequency="48000" video_max="0" progressive="1" type="3" frame_size="1920x1080" file_size="24966260">
   <metaproperty tool="" name="meta.attr.0.stream.creation_time">2014-08-29 12:50:39</metaproperty>
   <metaproperty tool="" name="meta.attr.0.stream.language">eng</metaproperty>
   <metaproperty tool="" name="meta.attr.1.stream.creation_time">2014-08-29 12:50:39</metaproperty>
   <metaproperty tool="" name="meta.attr.1.stream.language">eng</metaproperty>
   <metaproperty tool="" name="meta.attr.compatible_brands">isom3gp4</metaproperty>
   <metaproperty tool="" name="meta.attr.creation_time">2014-08-29 12:50:39</metaproperty>
   <metaproperty tool="" name="meta.attr.major_brand">isom</metaproperty>
   <metaproperty tool="" name="meta.attr.minor_version">0</metaproperty>
  </kdenlive_producer>
  <kdenlive_producer audio_max="62" id="20" pix_fmt="yuv420p" default_video="0" fps="29.9605" analysisdata="" name="20140829_142252.mp4" videocodecid="h264" colorspace="709" videocodec="H.264 / AVC / MPEG-4 AVC / MPEG-4 part 10" resource="/home/alex/Videos/EOTR Footage/20140829_142252.mp4" default_audio="1" audiocodec="AAC (Advanced Audio Coding)" duration="532" file_hash="a4d9158cd4fddbefa87eaa0d36de5a3a" aspect_ratio="1" channels="2" frequency="48000" video_max="0" progressive="1" type="3" frame_size="1920x1080" file_size="37207857">
   <metaproperty tool="" name="meta.attr.0.stream.creation_time">2014-08-29 13:23:11</metaproperty>
   <metaproperty tool="" name="meta.attr.0.stream.language">eng</metaproperty>
   <metaproperty tool="" name="meta.attr.1.stream.creation_time">2014-08-29 13:23:11</metaproperty>
   <metaproperty tool="" name="meta.attr.1.stream.language">eng</metaproperty>
   <metaproperty tool="" name="meta.attr.compatible_brands">isom3gp4</metaproperty>
   <metaproperty tool="" name="meta.attr.creation_time">2014-08-29 13:23:11</metaproperty>
   <metaproperty tool="" name="meta.attr.major_brand">isom</metaproperty>
   <metaproperty tool="" name="meta.attr.minor_version">0</metaproperty>
  </kdenlive_producer>
  <kdenlive_producer audio_max="57" id="21" pix_fmt="yuv420p" default_video="0" fps="29.7486" analysisdata="" name="20140829_142524.mp4" videocodecid="h264" colorspace="709" videocodec="H.264 / AVC / MPEG-4 AVC / MPEG-4 part 10" resource="/home/alex/Videos/EOTR Footage/20140829_142524.mp4" default_audio="1" audiocodec="AAC (Advanced Audio Coding)" duration="686" file_hash="b84a067035d3250598ac181a0d95b06c" aspect_ratio="1" channels="2" frequency="48000" video_max="0" progressive="1" type="3" frame_size="1920x1080" file_size="48411476">
   <metaproperty tool="" name="meta.attr.0.stream.creation_time">2014-08-29 13:25:48</metaproperty>
   <metaproperty tool="" name="meta.attr.0.stream.language">eng</metaproperty>
   <metaproperty tool="" name="meta.attr.1.stream.creation_time">2014-08-29 13:25:48</metaproperty>
   <metaproperty tool="" name="meta.attr.1.stream.language">eng</metaproperty>
   <metaproperty tool="" name="meta.attr.compatible_brands">isom3gp4</metaproperty>
   <metaproperty tool="" name="meta.attr.creation_time">2014-08-29 13:25:48</metaproperty>
   <metaproperty tool="" name="meta.attr.major_brand">isom</metaproperty>
   <metaproperty tool="" name="meta.attr.minor_version">0</metaproperty>
  </kdenlive_producer>
  <kdenlive_producer audio_max="61" id="22" pix_fmt="yuv420p" default_video="0" fps="29.8067" analysisdata="" name="20140830_172227.mp4" videocodecid="h264" colorspace="709" videocodec="H.264 / AVC / MPEG-4 AVC / MPEG-4 part 10" resource="/home/alex/Videos/EOTR Footage/20140830_172227.mp4" default_audio="1" audiocodec="AAC (Advanced Audio Coding)" duration="506" file_hash="fa87fc2601f7de35db95d3556a24cfe5" aspect_ratio="1" channels="2" frequency="48000" video_max="0" progressive="1" type="3" frame_size="1920x1080" file_size="35247742">
   <metaproperty tool="" name="meta.attr.0.stream.creation_time">2014-08-30 16:22:45</metaproperty>
   <metaproperty tool="" name="meta.attr.0.stream.language">eng</metaproperty>
   <metaproperty tool="" name="meta.attr.1.stream.creation_time">2014-08-30 16:22:45</metaproperty>
   <metaproperty tool="" name="meta.attr.1.stream.language">eng</metaproperty>
   <metaproperty tool="" name="meta.attr.compatible_brands">isom3gp4</metaproperty>
   <metaproperty tool="" name="meta.attr.creation_time">2014-08-30 16:22:45</metaproperty>
   <metaproperty tool="" name="meta.attr.major_brand">isom</metaproperty>
   <metaproperty tool="" name="meta.attr.minor_version">0</metaproperty>
  </kdenlive_producer>
  <kdenlive_producer audio_max="61" id="23" pix_fmt="yuv420p" default_video="0" fps="29.9376" analysisdata="" name="20140830_190841.mp4" videocodecid="h264" colorspace="709" videocodec="H.264 / AVC / MPEG-4 AVC / MPEG-4 part 10" resource="/home/alex/Videos/EOTR Footage/20140830_190841.mp4" default_audio="1" audiocodec="AAC (Advanced Audio Coding)" duration="733" file_hash="e13777b0e3adda7ede99c9d5eb3793db" aspect_ratio="1" channels="2" frequency="48000" video_max="0" progressive="1" type="3" frame_size="1920x1080" file_size="51683483">
   <metaproperty tool="" name="meta.attr.0.stream.creation_time">2014-08-30 18:09:07</metaproperty>
   <metaproperty tool="" name="meta.attr.0.stream.language">eng</metaproperty>
   <metaproperty tool="" name="meta.attr.1.stream.creation_time">2014-08-30 18:09:07</metaproperty>
   <metaproperty tool="" name="meta.attr.1.stream.language">eng</metaproperty>
   <metaproperty tool="" name="meta.attr.compatible_brands">isom3gp4</metaproperty>
   <metaproperty tool="" name="meta.attr.creation_time">2014-08-30 18:09:07</metaproperty>
   <metaproperty tool="" name="meta.attr.major_brand">isom</metaproperty>
   <metaproperty tool="" name="meta.attr.minor_version">0</metaproperty>
  </kdenlive_producer>
  <kdenlive_producer audio_max="60" id="24" pix_fmt="yuv420p" default_video="0" fps="29.3682" analysisdata="" name="20140830_205003.mp4" videocodecid="h264" colorspace="709" videocodec="H.264 / AVC / MPEG-4 AVC / MPEG-4 part 10" resource="/home/alex/Videos/EOTR Footage/20140830_205003.mp4" default_audio="1" audiocodec="AAC (Advanced Audio Coding)" duration="928" file_hash="e1c6d7b7ad02ca5cd0298714aa15cf4c" aspect_ratio="1" channels="2" frequency="48000" video_max="0" progressive="1" type="3" frame_size="1920x1080" file_size="64905731">
   <metaproperty tool="" name="meta.attr.0.stream.creation_time">2014-08-30 19:50:36</metaproperty>
   <metaproperty tool="" name="meta.attr.0.stream.language">eng</metaproperty>
   <metaproperty tool="" name="meta.attr.1.stream.creation_time">2014-08-30 19:50:36</metaproperty>
   <metaproperty tool="" name="meta.attr.1.stream.language">eng</metaproperty>
   <metaproperty tool="" name="meta.attr.compatible_brands">isom3gp4</metaproperty>
   <metaproperty tool="" name="meta.attr.creation_time">2014-08-30 19:50:36</metaproperty>
   <metaproperty tool="" name="meta.attr.major_brand">isom</metaproperty>
   <metaproperty tool="" name="meta.attr.minor_version">0</metaproperty>
  </kdenlive_producer>
  <kdenlive_producer audio_max="62" id="25" pix_fmt="yuv420p" default_video="0" fps="29.9417" analysisdata="" name="20140830_212105.mp4" videocodecid="h264" colorspace="709" videocodec="H.264 / AVC / MPEG-4 AVC / MPEG-4 part 10" resource="/home/alex/Videos/EOTR Footage/20140830_212105.mp4" default_audio="1" audiocodec="AAC (Advanced Audio Coding)" duration="1029" file_hash="8499e19eb8e0c293992bf0211395d247" aspect_ratio="1" channels="2" frequency="48000" video_max="0" progressive="1" type="3" frame_size="1920x1080" file_size="73014138">
   <metaproperty tool="" name="meta.attr.0.stream.creation_time">2014-08-30 20:21:41</metaproperty>
   <metaproperty tool="" name="meta.attr.0.stream.language">eng</metaproperty>
   <metaproperty tool="" name="meta.attr.1.stream.creation_time">2014-08-30 20:21:41</metaproperty>
   <metaproperty tool="" name="meta.attr.1.stream.language">eng</metaproperty>
   <metaproperty tool="" name="meta.attr.compatible_brands">isom3gp4</metaproperty>
   <metaproperty tool="" name="meta.attr.creation_time">2014-08-30 20:21:41</metaproperty>
   <metaproperty tool="" name="meta.attr.major_brand">isom</metaproperty>
   <metaproperty tool="" name="meta.attr.minor_version">0</metaproperty>
  </kdenlive_producer>
  <kdenlive_producer audio_max="60" id="26" pix_fmt="yuv420p" default_video="0" fps="29.5001" analysisdata="" name="20140830_212330.mp4" videocodecid="h264" colorspace="709" videocodec="H.264 / AVC / MPEG-4 AVC / MPEG-4 part 10" resource="/home/alex/Videos/EOTR Footage/20140830_212330.mp4" default_audio="1" audiocodec="AAC (Advanced Audio Coding)" duration="796" file_hash="fdcdc78fe0bedbc88358c7935a7895bb" aspect_ratio="1" channels="2" frequency="48000" video_max="0" progressive="1" type="3" frame_size="1920x1080" file_size="55879988">
   <metaproperty tool="" name="meta.attr.0.stream.creation_time">2014-08-30 20:23:58</metaproperty>
   <metaproperty tool="" name="meta.attr.0.stream.language">eng</metaproperty>
   <metaproperty tool="" name="meta.attr.1.stream.creation_time">2014-08-30 20:23:58</metaproperty>
   <metaproperty tool="" name="meta.attr.1.stream.language">eng</metaproperty>
   <metaproperty tool="" name="meta.attr.compatible_brands">isom3gp4</metaproperty>
   <metaproperty tool="" name="meta.attr.creation_time">2014-08-30 20:23:58</metaproperty>
   <metaproperty tool="" name="meta.attr.major_brand">isom</metaproperty>
   <metaproperty tool="" name="meta.attr.minor_version">0</metaproperty>
  </kdenlive_producer>
  <kdenlive_producer audio_max="62" id="27" pix_fmt="yuv420p" default_video="0" fps="29.7949" analysisdata="" name="20140830_220831.mp4" videocodecid="h264" thumbnail="100" colorspace="709" videocodec="H.264 / AVC / MPEG-4 AVC / MPEG-4 part 10" resource="/home/alex/Videos/EOTR Footage/20140830_220831.mp4" default_audio="1" audiocodec="AAC (Advanced Audio Coding)" duration="966" file_hash="69f42f4b7126c725c5fa27f41cb95249" aspect_ratio="1" channels="2" frequency="48000" video_max="0" progressive="1" type="3" frame_size="1920x1080" file_size="67563314">
   <metaproperty tool="" name="meta.attr.0.stream.creation_time">2014-08-30 21:09:04</metaproperty>
   <metaproperty tool="" name="meta.attr.0.stream.language">eng</metaproperty>
   <metaproperty tool="" name="meta.attr.1.stream.creation_time">2014-08-30 21:09:04</metaproperty>
   <metaproperty tool="" name="meta.attr.1.stream.language">eng</metaproperty>
   <metaproperty tool="" name="meta.attr.compatible_brands">isom3gp4</metaproperty>
   <metaproperty tool="" name="meta.attr.creation_time">2014-08-30 21:09:04</metaproperty>
   <metaproperty tool="" name="meta.attr.major_brand">isom</metaproperty>
   <metaproperty tool="" name="meta.attr.minor_version">0</metaproperty>
  </kdenlive_producer>
  <kdenlive_producer audio_max="62" id="28" pix_fmt="yuv420p" default_video="0" fps="29.7969" analysisdata="" name="20140830_221326.mp4" videocodecid="h264" colorspace="709" videocodec="H.264 / AVC / MPEG-4 AVC / MPEG-4 part 10" resource="/home/alex/Videos/EOTR Footage/20140830_221326.mp4" default_audio="1" audiocodec="AAC (Advanced Audio Coding)" duration="1061" file_hash="1c9c9cda127ea4d30a4906118015594b" aspect_ratio="1" channels="2" frequency="48000" video_max="0" progressive="1" type="3" frame_size="1920x1080" file_size="75160380">
   <metaproperty tool="" name="meta.attr.0.stream.creation_time">2014-08-30 21:14:19</metaproperty>
   <metaproperty tool="" name="meta.attr.0.stream.language">eng</metaproperty>
   <metaproperty tool="" name="meta.attr.1.stream.creation_time">2014-08-30 21:14:19</metaproperty>
   <metaproperty tool="" name="meta.attr.1.stream.language">eng</metaproperty>
   <metaproperty tool="" name="meta.attr.compatible_brands">isom3gp4</metaproperty>
   <metaproperty tool="" name="meta.attr.creation_time">2014-08-30 21:14:19</metaproperty>
   <metaproperty tool="" name="meta.attr.major_brand">isom</metaproperty>
   <metaproperty tool="" name="meta.attr.minor_version">0</metaproperty>
  </kdenlive_producer>
  <kdenlive_producer audio_max="52" id="29" pix_fmt="yuvj420p" default_video="0" fps="29.97" analysisdata="" name="IMGA0066.MP4" videocodecid="h264" colorspace="709" videocodec="H.264 / AVC / MPEG-4 AVC / MPEG-4 part 10" resource="/home/alex/Videos/EOTR Footage/IMGA0066.MP4" default_audio="1" audiocodec="AAC (Advanced Audio Coding)" duration="899" file_hash="8eaaa6e372e0b89fef2a341adb971f1e" aspect_ratio="1" channels="2" frequency="48000" video_max="0" progressive="1" type="3" frame_size="1920x1080" file_size="61636608">
   <metaproperty tool="" name="meta.attr.0.stream.creation_time">2014-08-28 14:03:45</metaproperty>
   <metaproperty tool="" name="meta.attr.0.stream.language">eng</metaproperty>
   <metaproperty tool="" name="meta.attr.1.stream.creation_time">2014-08-28 14:03:45</metaproperty>
   <metaproperty tool="" name="meta.attr.1.stream.language">eng</metaproperty>
   <metaproperty tool="" name="meta.attr.compatible_brands">mp42avc1</metaproperty>
   <metaproperty tool="" name="meta.attr.creation_time">2014-08-28 14:03:45</metaproperty>
   <metaproperty tool="" name="meta.attr.major_brand">mp42</metaproperty>
   <metaproperty tool="" name="meta.attr.minor_version">1</metaproperty>
  </kdenlive_producer>
  <kdenlive_producer audio_max="58" id="30" pix_fmt="yuvj420p" default_video="0" fps="29.97" analysisdata="" name="IMGA0067.MP4" videocodecid="h264" colorspace="709" videocodec="H.264 / AVC / MPEG-4 AVC / MPEG-4 part 10" resource="/home/alex/Videos/EOTR Footage/IMGA0067.MP4" default_audio="1" audiocodec="AAC (Advanced Audio Coding)" duration="1709" file_hash="58f846c0c4c2244ea7cbb74cd72f4de1" aspect_ratio="1" channels="2" frequency="48000" video_max="0" progressive="1" type="3" frame_size="1920x1080" file_size="116752384">
   <metaproperty tool="" name="meta.attr.0.stream.creation_time">2014-08-28 14:28:05</metaproperty>
   <metaproperty tool="" name="meta.attr.0.stream.language">eng</metaproperty>
   <metaproperty tool="" name="meta.attr.1.stream.creation_time">2014-08-28 14:28:05</metaproperty>
   <metaproperty tool="" name="meta.attr.1.stream.language">eng</metaproperty>
   <metaproperty tool="" name="meta.attr.compatible_brands">mp42avc1</metaproperty>
   <metaproperty tool="" name="meta.attr.creation_time">2014-08-28 14:28:05</metaproperty>
   <metaproperty tool="" name="meta.attr.major_brand">mp42</metaproperty>
   <metaproperty tool="" name="meta.attr.minor_version">1</metaproperty>
  </kdenlive_producer>
  <kdenlive_producer audio_max="58" id="31" pix_fmt="yuvj420p" default_video="0" fps="29.97" analysisdata="" name="IMGA0068.MP4" videocodecid="h264" colorspace="709" videocodec="H.264 / AVC / MPEG-4 AVC / MPEG-4 part 10" resource="/home/alex/Videos/EOTR Footage/IMGA0068.MP4" default_audio="1" audiocodec="AAC (Advanced Audio Coding)" duration="1290" file_hash="f0146af14f36af26c573c08c725fa932" aspect_ratio="1" channels="2" frequency="48000" video_max="0" progressive="1" type="3" frame_size="1920x1080" file_size="88604672">
   <metaproperty tool="" name="meta.attr.0.stream.creation_time">2014-08-28 14:51:44</metaproperty>
   <metaproperty tool="" name="meta.attr.0.stream.language">eng</metaproperty>
   <metaproperty tool="" name="meta.attr.1.stream.creation_time">2014-08-28 14:51:44</metaproperty>
   <metaproperty tool="" name="meta.attr.1.stream.language">eng</metaproperty>
   <metaproperty tool="" name="meta.attr.compatible_brands">mp42avc1</metaproperty>
   <metaproperty tool="" name="meta.attr.creation_time">2014-08-28 14:51:44</metaproperty>
   <metaproperty tool="" name="meta.attr.major_brand">mp42</metaproperty>
   <metaproperty tool="" name="meta.attr.minor_version">1</metaproperty>
  </kdenlive_producer>
  <kdenlive_producer audio_max="57" id="32" pix_fmt="yuvj420p" default_video="0" fps="29.97" analysisdata="" name="IMGA0069.MP4" videocodecid="h264" colorspace="709" videocodec="H.264 / AVC / MPEG-4 AVC / MPEG-4 part 10" resource="/home/alex/Videos/EOTR Footage/IMGA0069.MP4" default_audio="1" audiocodec="AAC (Advanced Audio Coding)" duration="870" file_hash="3b0f9d41dbc332ba8f2511b8a80f3287" aspect_ratio="1" channels="2" frequency="48000" video_max="0" progressive="1" type="3" frame_size="1920x1080" file_size="56754176">
   <metaproperty tool="" name="meta.attr.0.stream.creation_time">2014-08-28 14:53:48</metaproperty>
   <metaproperty tool="" name="meta.attr.0.stream.language">eng</metaproperty>
   <metaproperty tool="" name="meta.attr.1.stream.creation_time">2014-08-28 14:53:48</metaproperty>
   <metaproperty tool="" name="meta.attr.1.stream.language">eng</metaproperty>
   <metaproperty tool="" name="meta.attr.compatible_brands">mp42avc1</metaproperty>
   <metaproperty tool="" name="meta.attr.creation_time">2014-08-28 14:53:48</metaproperty>
   <metaproperty tool="" name="meta.attr.major_brand">mp42</metaproperty>
   <metaproperty tool="" name="meta.attr.minor_version">1</metaproperty>
  </kdenlive_producer>
  <kdenlive_producer audio_max="63" id="33" pix_fmt="yuvj420p" default_video="0" fps="29.97" analysisdata="" name="IMGA0070.MP4" videocodecid="h264" colorspace="709" videocodec="H.264 / AVC / MPEG-4 AVC / MPEG-4 part 10" resource="/home/alex/Videos/EOTR Footage/IMGA0070.MP4" default_audio="1" audiocodec="AAC (Advanced Audio Coding)" duration="1349" file_hash="2d971a30d5b0883bce0006bd7bb98342" aspect_ratio="1" channels="2" frequency="48000" video_max="0" progressive="1" type="3" frame_size="1920x1080" file_size="90996736">
   <metaproperty tool="" name="meta.attr.0.stream.creation_time">2014-08-28 14:55:05</metaproperty>
   <metaproperty tool="" name="meta.attr.0.stream.language">eng</metaproperty>
   <metaproperty tool="" name="meta.attr.1.stream.creation_time">2014-08-28 14:55:05</metaproperty>
   <metaproperty tool="" name="meta.attr.1.stream.language">eng</metaproperty>
   <metaproperty tool="" name="meta.attr.compatible_brands">mp42avc1</metaproperty>
   <metaproperty tool="" name="meta.attr.creation_time">2014-08-28 14:55:05</metaproperty>
   <metaproperty tool="" name="meta.attr.major_brand">mp42</metaproperty>
   <metaproperty tool="" name="meta.attr.minor_version">1</metaproperty>
  </kdenlive_producer>
  <kdenlive_producer audio_max="55" id="34" pix_fmt="yuvj420p" default_video="0" fps="29.97" analysisdata="" name="IMGA0071.MP4" videocodecid="h264" colorspace="709" videocodec="H.264 / AVC / MPEG-4 AVC / MPEG-4 part 10" resource="/home/alex/Videos/EOTR Footage/IMGA0071.MP4" default_audio="1" audiocodec="AAC (Advanced Audio Coding)" duration="1680" file_hash="bd1ab08d4fa8a974ff83c6f8a09b66e8" aspect_ratio="1" channels="2" frequency="48000" video_max="0" progressive="1" type="3" frame_size="1920x1080" file_size="116228096">
   <metaproperty tool="" name="meta.attr.0.stream.creation_time">2014-08-28 15:19:04</metaproperty>
   <metaproperty tool="" name="meta.attr.0.stream.language">eng</metaproperty>
   <metaproperty tool="" name="meta.attr.1.stream.creation_time">2014-08-28 15:19:04</metaproperty>
   <metaproperty tool="" name="meta.attr.1.stream.language">eng</metaproperty>
   <metaproperty tool="" name="meta.attr.compatible_brands">mp42avc1</metaproperty>
   <metaproperty tool="" name="meta.attr.creation_time">2014-08-28 15:19:04</metaproperty>
   <metaproperty tool="" name="meta.attr.major_brand">mp42</metaproperty>
   <metaproperty tool="" name="meta.attr.minor_version">1</metaproperty>
  </kdenlive_producer>
  <kdenlive_producer audio_max="56" id="35" pix_fmt="yuvj420p" default_video="0" fps="29.97" analysisdata="" name="IMGA0072.MP4" videocodecid="h264" colorspace="709" videocodec="H.264 / AVC / MPEG-4 AVC / MPEG-4 part 10" resource="/home/alex/Videos/EOTR Footage/IMGA0072.MP4" default_audio="1" audiocodec="AAC (Advanced Audio Coding)" duration="780" file_hash="bcb4292d14ce4ea13581e631a66ac7d9" aspect_ratio="1" channels="2" frequency="48000" video_max="0" progressive="1" type="3" frame_size="1920x1080" file_size="56557568">
   <metaproperty tool="" name="meta.attr.0.stream.creation_time">2014-08-28 15:21:51</metaproperty>
   <metaproperty tool="" name="meta.attr.0.stream.language">eng</metaproperty>
   <metaproperty tool="" name="meta.attr.1.stream.creation_time">2014-08-28 15:21:51</metaproperty>
   <metaproperty tool="" name="meta.attr.1.stream.language">eng</metaproperty>
   <metaproperty tool="" name="meta.attr.compatible_brands">mp42avc1</metaproperty>
   <metaproperty tool="" name="meta.attr.creation_time">2014-08-28 15:21:51</metaproperty>
   <metaproperty tool="" name="meta.attr.major_brand">mp42</metaproperty>
   <metaproperty tool="" name="meta.attr.minor_version">1</metaproperty>
  </kdenlive_producer>
  <kdenlive_producer audio_max="55" id="36" pix_fmt="yuvj420p" default_video="0" fps="29.97" analysisdata="" name="IMGA0073.MP4" videocodecid="h264" colorspace="709" videocodec="H.264 / AVC / MPEG-4 AVC / MPEG-4 part 10" resource="/home/alex/Videos/EOTR Footage/IMGA0073.MP4" default_audio="1" audiocodec="AAC (Advanced Audio Coding)" duration="1080" file_hash="ecfaed0da20c95aaa6b0801182f4d454" aspect_ratio="1" channels="2" frequency="48000" video_max="0" progressive="1" type="3" frame_size="1920x1080" file_size="76906496">
   <metaproperty tool="" name="meta.attr.0.stream.creation_time">2014-08-28 15:24:54</metaproperty>
   <metaproperty tool="" name="meta.attr.0.stream.language">eng</metaproperty>
   <metaproperty tool="" name="meta.attr.1.stream.creation_time">2014-08-28 15:24:54</metaproperty>
   <metaproperty tool="" name="meta.attr.1.stream.language">eng</metaproperty>
   <metaproperty tool="" name="meta.attr.compatible_brands">mp42avc1</metaproperty>
   <metaproperty tool="" name="meta.attr.creation_time">2014-08-28 15:24:54</metaproperty>
   <metaproperty tool="" name="meta.attr.major_brand">mp42</metaproperty>
   <metaproperty tool="" name="meta.attr.minor_version">1</metaproperty>
  </kdenlive_producer>
  <kdenlive_producer audio_max="52" id="38" pix_fmt="yuvj420p" default_video="0" fps="29.97" analysisdata="" name="IMGA0075.MP4" videocodecid="h264" colorspace="709" videocodec="H.264 / AVC / MPEG-4 AVC / MPEG-4 part 10" resource="/home/alex/Videos/EOTR Footage/IMGA0075.MP4" default_audio="1" audiocodec="AAC (Advanced Audio Coding)" duration="359" file_hash="3874f31a9dc93f0141f18788d4565a2d" aspect_ratio="1" channels="2" frequency="48000" video_max="0" progressive="1" type="3" frame_size="1920x1080" file_size="27590656">
   <metaproperty tool="" name="meta.attr.0.stream.creation_time">2014-08-28 15:49:33</metaproperty>
   <metaproperty tool="" name="meta.attr.0.stream.language">eng</metaproperty>
   <metaproperty tool="" name="meta.attr.1.stream.creation_time">2014-08-28 15:49:33</metaproperty>
   <metaproperty tool="" name="meta.attr.1.stream.language">eng</metaproperty>
   <metaproperty tool="" name="meta.attr.compatible_brands">mp42avc1</metaproperty>
   <metaproperty tool="" name="meta.attr.creation_time">2014-08-28 15:49:33</metaproperty>
   <metaproperty tool="" name="meta.attr.major_brand">mp42</metaproperty>
   <metaproperty tool="" name="meta.attr.minor_version">1</metaproperty>
  </kdenlive_producer>
  <kdenlive_producer audio_max="51" id="39" pix_fmt="yuvj420p" default_video="0" fps="29.97" analysisdata="" name="IMGA0076.MP4" videocodecid="h264" thumbnail="100" colorspace="709" videocodec="H.264 / AVC / MPEG-4 AVC / MPEG-4 part 10" resource="/home/alex/Videos/EOTR Footage/IMGA0076.MP4" default_audio="1" audiocodec="AAC (Advanced Audio Coding)" duration="1020" file_hash="857bbfdfa604e8563da51c8e2b5acf1e" aspect_ratio="1" channels="2" frequency="48000" video_max="0" progressive="1" type="3" frame_size="1920x1080" file_size="68812800">
   <metaproperty tool="" name="meta.attr.0.stream.creation_time">2014-08-28 15:50:58</metaproperty>
   <metaproperty tool="" name="meta.attr.0.stream.language">eng</metaproperty>
   <metaproperty tool="" name="meta.attr.1.stream.creation_time">2014-08-28 15:50:58</metaproperty>
   <metaproperty tool="" name="meta.attr.1.stream.language">eng</metaproperty>
   <metaproperty tool="" name="meta.attr.compatible_brands">mp42avc1</metaproperty>
   <metaproperty tool="" name="meta.attr.creation_time">2014-08-28 15:50:58</metaproperty>
   <metaproperty tool="" name="meta.attr.major_brand">mp42</metaproperty>
   <metaproperty tool="" name="meta.attr.minor_version">1</metaproperty>
  </kdenlive_producer>
  <kdenlive_producer audio_max="58" id="40" pix_fmt="yuvj420p" default_video="0" fps="29.97" analysisdata="" name="IMGA0077.MP4" videocodecid="h264" colorspace="709" videocodec="H.264 / AVC / MPEG-4 AVC / MPEG-4 part 10" resource="/home/alex/Videos/EOTR Footage/IMGA0077.MP4" default_audio="1" audiocodec="AAC (Advanced Audio Coding)" duration="2130" file_hash="1281d1932f2dea50b2c0ceb06c3a0db1" aspect_ratio="1" channels="2" frequency="48000" video_max="0" progressive="1" type="3" frame_size="1920x1080" file_size="145391616">
   <metaproperty tool="" name="meta.attr.0.stream.creation_time">2014-08-28 15:56:35</metaproperty>
   <metaproperty tool="" name="meta.attr.0.stream.language">eng</metaproperty>
   <metaproperty tool="" name="meta.attr.1.stream.creation_time">2014-08-28 15:56:35</metaproperty>
   <metaproperty tool="" name="meta.attr.1.stream.language">eng</metaproperty>
   <metaproperty tool="" name="meta.attr.compatible_brands">mp42avc1</metaproperty>
   <metaproperty tool="" name="meta.attr.creation_time">2014-08-28 15:56:35</metaproperty>
   <metaproperty tool="" name="meta.attr.major_brand">mp42</metaproperty>
   <metaproperty tool="" name="meta.attr.minor_version">1</metaproperty>
  </kdenlive_producer>
  <kdenlive_producer audio_max="51" id="41" pix_fmt="yuvj420p" default_video="0" fps="29.97" analysisdata="" name="IMGA0078.MP4" videocodecid="h264" colorspace="709" videocodec="H.264 / AVC / MPEG-4 AVC / MPEG-4 part 10" resource="/home/alex/Videos/EOTR Footage/IMGA0078.MP4" default_audio="1" audiocodec="AAC (Advanced Audio Coding)" duration="569" file_hash="cb14f5f322b5fec88aedf7cd1eb965f6" aspect_ratio="1" channels="2" frequency="48000" video_max="0" progressive="1" type="3" frame_size="1920x1080" file_size="39550976">
   <metaproperty tool="" name="meta.attr.0.stream.creation_time">2014-08-28 16:02:41</metaproperty>
   <metaproperty tool="" name="meta.attr.0.stream.language">eng</metaproperty>
   <metaproperty tool="" name="meta.attr.1.stream.creation_time">2014-08-28 16:02:41</metaproperty>
   <metaproperty tool="" name="meta.attr.1.stream.language">eng</metaproperty>
   <metaproperty tool="" name="meta.attr.compatible_brands">mp42avc1</metaproperty>
   <metaproperty tool="" name="meta.attr.creation_time">2014-08-28 16:02:41</metaproperty>
   <metaproperty tool="" name="meta.attr.major_brand">mp42</metaproperty>
   <metaproperty tool="" name="meta.attr.minor_version">1</metaproperty>
  </kdenlive_producer>
  <kdenlive_producer audio_max="53" id="42" pix_fmt="yuvj420p" default_video="0" fps="29.97" analysisdata="" name="IMGA0079.MP4" videocodecid="h264" colorspace="709" videocodec="H.264 / AVC / MPEG-4 AVC / MPEG-4 part 10" resource="/home/alex/Videos/EOTR Footage/IMGA0079.MP4" default_audio="1" audiocodec="AAC (Advanced Audio Coding)" duration="332" file_hash="6f6d27b8e202f2655688e98055f96982" aspect_ratio="1" channels="2" frequency="48000" video_max="0" progressive="1" type="3" frame_size="1920x1080" file_size="22413312">
   <metaproperty tool="" name="meta.attr.0.stream.creation_time">2014-08-28 16:06:36</metaproperty>
   <metaproperty tool="" name="meta.attr.0.stream.language">eng</metaproperty>
   <metaproperty tool="" name="meta.attr.1.stream.creation_time">2014-08-28 16:06:36</metaproperty>
   <metaproperty tool="" name="meta.attr.1.stream.language">eng</metaproperty>
   <metaproperty tool="" name="meta.attr.compatible_brands">mp42avc1</metaproperty>
   <metaproperty tool="" name="meta.attr.creation_time">2014-08-28 16:06:36</metaproperty>
   <metaproperty tool="" name="meta.attr.major_brand">mp42</metaproperty>
   <metaproperty tool="" name="meta.attr.minor_version">1</metaproperty>
  </kdenlive_producer>
  <kdenlive_producer audio_max="63" id="43" pix_fmt="yuvj420p" default_video="0" fps="29.97" analysisdata="" name="IMGA0080.MP4" videocodecid="h264" colorspace="709" videocodec="H.264 / AVC / MPEG-4 AVC / MPEG-4 part 10" resource="/home/alex/Videos/EOTR Footage/IMGA0080.MP4" default_audio="1" audiocodec="AAC (Advanced Audio Coding)" duration="1349" file_hash="152f77b1bcd09d0a327a42b6d9387d79" aspect_ratio="1" channels="2" frequency="48000" video_max="0" progressive="1" type="3" frame_size="1920x1080" file_size="92209152">
   <metaproperty tool="" name="meta.attr.0.stream.creation_time">2014-08-28 16:14:01</metaproperty>
   <metaproperty tool="" name="meta.attr.0.stream.language">eng</metaproperty>
   <metaproperty tool="" name="meta.attr.1.stream.creation_time">2014-08-28 16:14:01</metaproperty>
   <metaproperty tool="" name="meta.attr.1.stream.language">eng</metaproperty>
   <metaproperty tool="" name="meta.attr.compatible_brands">mp42avc1</metaproperty>
   <metaproperty tool="" name="meta.attr.creation_time">2014-08-28 16:14:01</metaproperty>
   <metaproperty tool="" name="meta.attr.major_brand">mp42</metaproperty>
   <metaproperty tool="" name="meta.attr.minor_version">1</metaproperty>
  </kdenlive_producer>
  <kdenlive_producer audio_max="46" id="44" pix_fmt="yuvj420p" default_video="0" fps="29.97" analysisdata="" name="IMGA0081.MP4" videocodecid="h264" colorspace="709" videocodec="H.264 / AVC / MPEG-4 AVC / MPEG-4 part 10" resource="/home/alex/Videos/EOTR Footage/IMGA0081.MP4" default_audio="1" audiocodec="AAC (Advanced Audio Coding)" duration="659" file_hash="e3906f3ea9b492afb855d4cf6b2cbf8d" aspect_ratio="1" channels="2" frequency="48000" video_max="0" progressive="1" type="3" frame_size="1920x1080" file_size="48234496">
   <metaproperty tool="" name="meta.attr.0.stream.creation_time">2014-08-28 16:17:19</metaproperty>
   <metaproperty tool="" name="meta.attr.0.stream.language">eng</metaproperty>
   <metaproperty tool="" name="meta.attr.1.stream.creation_time">2014-08-28 16:17:19</metaproperty>
   <metaproperty tool="" name="meta.attr.1.stream.language">eng</metaproperty>
   <metaproperty tool="" name="meta.attr.compatible_brands">mp42avc1</metaproperty>
   <metaproperty tool="" name="meta.attr.creation_time">2014-08-28 16:17:19</metaproperty>
   <metaproperty tool="" name="meta.attr.major_brand">mp42</metaproperty>
   <metaproperty tool="" name="meta.attr.minor_version">1</metaproperty>
  </kdenlive_producer>
  <kdenlive_producer audio_max="54" id="45" pix_fmt="yuvj420p" default_video="0" fps="29.97" analysisdata="" name="IMGA0082.MP4" videocodecid="h264" colorspace="709" videocodec="H.264 / AVC / MPEG-4 AVC / MPEG-4 part 10" resource="/home/alex/Videos/EOTR Footage/IMGA0082.MP4" default_audio="1" audiocodec="AAC (Advanced Audio Coding)" duration="540" file_hash="6644f22c1cc1c233c564a0784ed3ff6b" aspect_ratio="1" channels="2" frequency="48000" video_max="0" progressive="1" type="3" frame_size="1920x1080" file_size="40861696">
   <metaproperty tool="" name="meta.attr.0.stream.creation_time">2014-08-28 16:23:31</metaproperty>
   <metaproperty tool="" name="meta.attr.0.stream.language">eng</metaproperty>
   <metaproperty tool="" name="meta.attr.1.stream.creation_time">2014-08-28 16:23:31</metaproperty>
   <metaproperty tool="" name="meta.attr.1.stream.language">eng</metaproperty>
   <metaproperty tool="" name="meta.attr.compatible_brands">mp42avc1</metaproperty>
   <metaproperty tool="" name="meta.attr.creation_time">2014-08-28 16:23:31</metaproperty>
   <metaproperty tool="" name="meta.attr.major_brand">mp42</metaproperty>
   <metaproperty tool="" name="meta.attr.minor_version">1</metaproperty>
  </kdenlive_producer>
  <kdenlive_producer audio_max="47" id="46" pix_fmt="yuvj420p" default_video="0" fps="29.97" analysisdata="" name="IMGA0083.MP4" videocodecid="h264" colorspace="709" videocodec="H.264 / AVC / MPEG-4 AVC / MPEG-4 part 10" resource="/home/alex/Videos/EOTR Footage/IMGA0083.MP4" default_audio="1" audiocodec="AAC (Advanced Audio Coding)" duration="390" file_hash="03b0c839fec3c198883d7cf0e06d0e3e" aspect_ratio="1" channels="2" frequency="48000" video_max="0" progressive="1" type="3" frame_size="1920x1080" file_size="28016640">
   <metaproperty tool="" name="meta.attr.0.stream.creation_time">2014-08-28 16:30:34</metaproperty>
   <metaproperty tool="" name="meta.attr.0.stream.language">eng</metaproperty>
   <metaproperty tool="" name="meta.attr.1.stream.creation_time">2014-08-28 16:30:34</metaproperty>
   <metaproperty tool="" name="meta.attr.1.stream.language">eng</metaproperty>
   <metaproperty tool="" name="meta.attr.compatible_brands">mp42avc1</metaproperty>
   <metaproperty tool="" name="meta.attr.creation_time">2014-08-28 16:30:34</metaproperty>
   <metaproperty tool="" name="meta.attr.major_brand">mp42</metaproperty>
   <metaproperty tool="" name="meta.attr.minor_version">1</metaproperty>
  </kdenlive_producer>
  <kdenlive_producer audio_max="29" id="47" pix_fmt="yuvj420p" default_video="0" fps="29.97" analysisdata="" name="IMGA0084.MP4" videocodecid="h264" colorspace="709" videocodec="H.264 / AVC / MPEG-4 AVC / MPEG-4 part 10" resource="/home/alex/Videos/EOTR Footage/IMGA0084.MP4" default_audio="1" audiocodec="AAC (Advanced Audio Coding)" duration="449" file_hash="7bc0dd5ff392017958c7cfaba8b5f7ef" aspect_ratio="1" channels="2" frequency="48000" video_max="0" progressive="1" type="3" frame_size="1920x1080" file_size="32964608">
   <metaproperty tool="" name="meta.attr.0.stream.creation_time">2014-08-28 16:52:11</metaproperty>
   <metaproperty tool="" name="meta.attr.0.stream.language">eng</metaproperty>
   <metaproperty tool="" name="meta.attr.1.stream.creation_time">2014-08-28 16:52:11</metaproperty>
   <metaproperty tool="" name="meta.attr.1.stream.language">eng</metaproperty>
   <metaproperty tool="" name="meta.attr.compatible_brands">mp42avc1</metaproperty>
   <metaproperty tool="" name="meta.attr.creation_time">2014-08-28 16:52:11</metaproperty>
   <metaproperty tool="" name="meta.attr.major_brand">mp42</metaproperty>
   <metaproperty tool="" name="meta.attr.minor_version">1</metaproperty>
  </kdenlive_producer>
  <kdenlive_producer audio_max="55" id="48" pix_fmt="yuvj420p" default_video="0" fps="29.97" analysisdata="" name="IMGA0085.MP4" videocodecid="h264" colorspace="709" videocodec="H.264 / AVC / MPEG-4 AVC / MPEG-4 part 10" resource="/home/alex/Videos/EOTR Footage/IMGA0085.MP4" default_audio="1" audiocodec="AAC (Advanced Audio Coding)" duration="300" file_hash="0140c01877da29a8e11fbf82d05b9158" aspect_ratio="1" channels="2" frequency="48000" video_max="0" progressive="1" type="3" frame_size="1920x1080" file_size="21495808">
   <metaproperty tool="" name="meta.attr.0.stream.creation_time">2014-08-28 16:56:26</metaproperty>
   <metaproperty tool="" name="meta.attr.0.stream.language">eng</metaproperty>
   <metaproperty tool="" name="meta.attr.1.stream.creation_time">2014-08-28 16:56:26</metaproperty>
   <metaproperty tool="" name="meta.attr.1.stream.language">eng</metaproperty>
   <metaproperty tool="" name="meta.attr.compatible_brands">mp42avc1</metaproperty>
   <metaproperty tool="" name="meta.attr.creation_time">2014-08-28 16:56:26</metaproperty>
   <metaproperty tool="" name="meta.attr.major_brand">mp42</metaproperty>
   <metaproperty tool="" name="meta.attr.minor_version">1</metaproperty>
  </kdenlive_producer>
  <kdenlive_producer audio_max="40" id="49" pix_fmt="yuvj420p" default_video="0" fps="29.97" analysisdata="" name="IMGA0086.MP4" videocodecid="h264" colorspace="709" videocodec="H.264 / AVC / MPEG-4 AVC / MPEG-4 part 10" resource="/home/alex/Videos/EOTR Footage/IMGA0086.MP4" default_audio="1" audiocodec="AAC (Advanced Audio Coding)" duration="300" file_hash="b13ba2ac6254e78470279711bf88f0a9" aspect_ratio="1" channels="2" frequency="48000" video_max="0" progressive="1" type="3" frame_size="1920x1080" file_size="20250624">
   <metaproperty tool="" name="meta.attr.0.stream.creation_time">2014-08-28 16:58:53</metaproperty>
   <metaproperty tool="" name="meta.attr.0.stream.language">eng</metaproperty>
   <metaproperty tool="" name="meta.attr.1.stream.creation_time">2014-08-28 16:58:53</metaproperty>
   <metaproperty tool="" name="meta.attr.1.stream.language">eng</metaproperty>
   <metaproperty tool="" name="meta.attr.compatible_brands">mp42avc1</metaproperty>
   <metaproperty tool="" name="meta.attr.creation_time">2014-08-28 16:58:53</metaproperty>
   <metaproperty tool="" name="meta.attr.major_brand">mp42</metaproperty>
   <metaproperty tool="" name="meta.attr.minor_version">1</metaproperty>
  </kdenlive_producer>
  <kdenlive_producer audio_max="58" id="50" pix_fmt="yuvj420p" default_video="0" fps="29.97" analysisdata="" name="IMGA0087.MP4" videocodecid="h264" colorspace="709" videocodec="H.264 / AVC / MPEG-4 AVC / MPEG-4 part 10" resource="/home/alex/Videos/EOTR Footage/IMGA0087.MP4" default_audio="1" audiocodec="AAC (Advanced Audio Coding)" duration="1260" file_hash="7f7bf0477d2bb255e4e5cd8c97a7e38d" aspect_ratio="1" channels="2" frequency="48000" video_max="0" progressive="1" type="3" frame_size="1920x1080" file_size="82116608">
   <metaproperty tool="" name="meta.attr.0.stream.creation_time">2014-08-28 17:25:13</metaproperty>
   <metaproperty tool="" name="meta.attr.0.stream.language">eng</metaproperty>
   <metaproperty tool="" name="meta.attr.1.stream.creation_time">2014-08-28 17:25:13</metaproperty>
   <metaproperty tool="" name="meta.attr.1.stream.language">eng</metaproperty>
   <metaproperty tool="" name="meta.attr.compatible_brands">mp42avc1</metaproperty>
   <metaproperty tool="" name="meta.attr.creation_time">2014-08-28 17:25:13</metaproperty>
   <metaproperty tool="" name="meta.attr.major_brand">mp42</metaproperty>
   <metaproperty tool="" name="meta.attr.minor_version">1</metaproperty>
  </kdenlive_producer>
  <kdenlive_producer audio_max="37" id="51" pix_fmt="yuvj420p" default_video="0" fps="29.97" analysisdata="" name="IMGA0088.MP4" videocodecid="h264" zone_out="456" colorspace="709" videocodec="H.264 / AVC / MPEG-4 AVC / MPEG-4 part 10" resource="/home/alex/Videos/EOTR Footage/IMGA0088.MP4" default_audio="1" audiocodec="AAC (Advanced Audio Coding)" duration="870" file_hash="f893fcfb6dabf59d7c051140346a7eca" aspect_ratio="1" channels="2" frequency="48000" video_max="0" progressive="1" type="3" zone_in="406" frame_size="1920x1080" file_size="63111168">
   <metaproperty tool="" name="meta.attr.0.stream.creation_time">2014-08-28 17:33:19</metaproperty>
   <metaproperty tool="" name="meta.attr.0.stream.language">eng</metaproperty>
   <metaproperty tool="" name="meta.attr.1.stream.creation_time">2014-08-28 17:33:19</metaproperty>
   <metaproperty tool="" name="meta.attr.1.stream.language">eng</metaproperty>
   <metaproperty tool="" name="meta.attr.compatible_brands">mp42avc1</metaproperty>
   <metaproperty tool="" name="meta.attr.creation_time">2014-08-28 17:33:19</metaproperty>
   <metaproperty tool="" name="meta.attr.major_brand">mp42</metaproperty>
   <metaproperty tool="" name="meta.attr.minor_version">1</metaproperty>
  </kdenlive_producer>
  <kdenlive_producer audio_max="50" id="52" pix_fmt="yuvj420p" default_video="0" fps="29.97" analysisdata="" name="IMGA0089.MP4" videocodecid="h264" colorspace="709" videocodec="H.264 / AVC / MPEG-4 AVC / MPEG-4 part 10" resource="/home/alex/Videos/EOTR Footage/IMGA0089.MP4" default_audio="1" audiocodec="AAC (Advanced Audio Coding)" duration="690" file_hash="cae40f05c654648ea335a48bebc0f875" aspect_ratio="1" channels="2" frequency="48000" video_max="0" progressive="1" type="3" frame_size="1920x1080" file_size="44957696">
   <metaproperty tool="" name="meta.attr.0.stream.creation_time">2014-08-28 18:07:47</metaproperty>
   <metaproperty tool="" name="meta.attr.0.stream.language">eng</metaproperty>
   <metaproperty tool="" name="meta.attr.1.stream.creation_time">2014-08-28 18:07:47</metaproperty>
   <metaproperty tool="" name="meta.attr.1.stream.language">eng</metaproperty>
   <metaproperty tool="" name="meta.attr.compatible_brands">mp42avc1</metaproperty>
   <metaproperty tool="" name="meta.attr.creation_time">2014-08-28 18:07:47</metaproperty>
   <metaproperty tool="" name="meta.attr.major_brand">mp42</metaproperty>
   <metaproperty tool="" name="meta.attr.minor_version">1</metaproperty>
  </kdenlive_producer>
  <kdenlive_producer audio_max="51" id="53" pix_fmt="yuvj420p" default_video="0" fps="29.97" analysisdata="" name="IMGA0090.MP4" videocodecid="h264" colorspace="709" videocodec="H.264 / AVC / MPEG-4 AVC / MPEG-4 part 10" resource="/home/alex/Videos/EOTR Footage/IMGA0090.MP4" default_audio="1" audiocodec="AAC (Advanced Audio Coding)" duration="569" file_hash="49e6b1b47a4f17accf2fd281740b932f" aspect_ratio="1" channels="2" frequency="48000" video_max="0" progressive="1" type="3" frame_size="1920x1080" file_size="37617664">
   <metaproperty tool="" name="meta.attr.0.stream.creation_time">2014-08-28 18:21:22</metaproperty>
   <metaproperty tool="" name="meta.attr.0.stream.language">eng</metaproperty>
   <metaproperty tool="" name="meta.attr.1.stream.creation_time">2014-08-28 18:21:22</metaproperty>
   <metaproperty tool="" name="meta.attr.1.stream.language">eng</metaproperty>
   <metaproperty tool="" name="meta.attr.compatible_brands">mp42avc1</metaproperty>
   <metaproperty tool="" name="meta.attr.creation_time">2014-08-28 18:21:22</metaproperty>
   <metaproperty tool="" name="meta.attr.major_brand">mp42</metaproperty>
   <metaproperty tool="" name="meta.attr.minor_version">1</metaproperty>
  </kdenlive_producer>
  <kdenlive_producer audio_max="49" id="54" pix_fmt="yuvj420p" default_video="0" fps="29.97" analysisdata="" name="IMGA0091.MP4" videocodecid="h264" colorspace="709" videocodec="H.264 / AVC / MPEG-4 AVC / MPEG-4 part 10" resource="/home/alex/Videos/EOTR Footage/IMGA0091.MP4" default_audio="1" audiocodec="AAC (Advanced Audio Coding)" duration="1680" file_hash="c8cb87f13483d6e8d1bb3176d6aac0c9" aspect_ratio="1" channels="2" frequency="48000" video_max="0" progressive="1" type="3" frame_size="1920x1080" file_size="113115136">
   <metaproperty tool="" name="meta.attr.0.stream.creation_time">2014-08-28 18:49:01</metaproperty>
   <metaproperty tool="" name="meta.attr.0.stream.language">eng</metaproperty>
   <metaproperty tool="" name="meta.attr.1.stream.creation_time">2014-08-28 18:49:01</metaproperty>
   <metaproperty tool="" name="meta.attr.1.stream.language">eng</metaproperty>
   <metaproperty tool="" name="meta.attr.compatible_brands">mp42avc1</metaproperty>
   <metaproperty tool="" name="meta.attr.creation_time">2014-08-28 18:49:01</metaproperty>
   <metaproperty tool="" name="meta.attr.major_brand">mp42</metaproperty>
   <metaproperty tool="" name="meta.attr.minor_version">1</metaproperty>
  </kdenlive_producer>
  <kdenlive_producer audio_max="53" id="55" pix_fmt="yuvj420p" default_video="0" fps="29.97" analysisdata="" name="IMGA0092.MP4" videocodecid="h264" colorspace="709" videocodec="H.264 / AVC / MPEG-4 AVC / MPEG-4 part 10" resource="/home/alex/Videos/EOTR Footage/IMGA0092.MP4" default_audio="1" audiocodec="AAC (Advanced Audio Coding)" duration="270" file_hash="01a2f84f5a3e2cbf333b6632ea59856d" aspect_ratio="1" channels="2" frequency="48000" video_max="0" progressive="1" type="3" frame_size="1920x1080" file_size="18317312">
   <metaproperty tool="" name="meta.attr.0.stream.creation_time">2014-08-28 18:53:21</metaproperty>
   <metaproperty tool="" name="meta.attr.0.stream.language">eng</metaproperty>
   <metaproperty tool="" name="meta.attr.1.stream.creation_time">2014-08-28 18:53:21</metaproperty>
   <metaproperty tool="" name="meta.attr.1.stream.language">eng</metaproperty>
   <metaproperty tool="" name="meta.attr.compatible_brands">mp42avc1</metaproperty>
   <metaproperty tool="" name="meta.attr.creation_time">2014-08-28 18:53:21</metaproperty>
   <metaproperty tool="" name="meta.attr.major_brand">mp42</metaproperty>
   <metaproperty tool="" name="meta.attr.minor_version">1</metaproperty>
  </kdenlive_producer>
  <kdenlive_producer audio_max="56" id="56" pix_fmt="yuvj420p" default_video="0" fps="29.97" analysisdata="" name="IMGA0093.MP4" videocodecid="h264" colorspace="709" videocodec="H.264 / AVC / MPEG-4 AVC / MPEG-4 part 10" resource="/home/alex/Videos/EOTR Footage/IMGA0093.MP4" default_audio="1" audiocodec="AAC (Advanced Audio Coding)" duration="2279" file_hash="4630d07d5f5a34aea329c3925de5dda4" aspect_ratio="1" channels="2" frequency="48000" video_max="0" progressive="1" type="3" frame_size="1920x1080" file_size="150601728">
   <metaproperty tool="" name="meta.attr.0.stream.creation_time">2014-08-28 19:23:46</metaproperty>
   <metaproperty tool="" name="meta.attr.0.stream.language">eng</metaproperty>
   <metaproperty tool="" name="meta.attr.1.stream.creation_time">2014-08-28 19:23:46</metaproperty>
   <metaproperty tool="" name="meta.attr.1.stream.language">eng</metaproperty>
   <metaproperty tool="" name="meta.attr.compatible_brands">mp42avc1</metaproperty>
   <metaproperty tool="" name="meta.attr.creation_time">2014-08-28 19:23:46</metaproperty>
   <metaproperty tool="" name="meta.attr.major_brand">mp42</metaproperty>
   <metaproperty tool="" name="meta.attr.minor_version">1</metaproperty>
  </kdenlive_producer>
  <kdenlive_producer audio_max="49" id="57" pix_fmt="yuvj420p" default_video="0" fps="29.97" analysisdata="" name="IMGA0094.MP4" videocodecid="h264" colorspace="709" videocodec="H.264 / AVC / MPEG-4 AVC / MPEG-4 part 10" resource="/home/alex/Videos/EOTR Footage/IMGA0094.MP4" default_audio="1" audiocodec="AAC (Advanced Audio Coding)" duration="959" file_hash="ca6de8727e9740c2bf81ad9f5547dac7" aspect_ratio="1" channels="2" frequency="48000" video_max="0" progressive="1" type="3" frame_size="1920x1080" file_size="62521344">
   <metaproperty tool="" name="meta.attr.0.stream.creation_time">2014-08-28 19:26:49</metaproperty>
   <metaproperty tool="" name="meta.attr.0.stream.language">eng</metaproperty>
   <metaproperty tool="" name="meta.attr.1.stream.creation_time">2014-08-28 19:26:49</metaproperty>
   <metaproperty tool="" name="meta.attr.1.stream.language">eng</metaproperty>
   <metaproperty tool="" name="meta.attr.compatible_brands">mp42avc1</metaproperty>
   <metaproperty tool="" name="meta.attr.creation_time">2014-08-28 19:26:49</metaproperty>
   <metaproperty tool="" name="meta.attr.major_brand">mp42</metaproperty>
   <metaproperty tool="" name="meta.attr.minor_version">1</metaproperty>
  </kdenlive_producer>
  <kdenlive_producer audio_max="52" id="58" pix_fmt="yuvj420p" default_video="0" fps="29.97" analysisdata="" name="IMGA0095.MP4" videocodecid="h264" colorspace="709" videocodec="H.264 / AVC / MPEG-4 AVC / MPEG-4 part 10" resource="/home/alex/Videos/EOTR Footage/IMGA0095.MP4" default_audio="1" audiocodec="AAC (Advanced Audio Coding)" duration="1170" file_hash="11e6cd36a08c3bb9a238b022a5fd5909" aspect_ratio="1" channels="2" frequency="48000" video_max="0" progressive="1" type="3" frame_size="1920x1080" file_size="76185600">
   <metaproperty tool="" name="meta.attr.0.stream.creation_time">2014-08-28 19:42:03</metaproperty>
   <metaproperty tool="" name="meta.attr.0.stream.language">eng</metaproperty>
   <metaproperty tool="" name="meta.attr.1.stream.creation_time">2014-08-28 19:42:03</metaproperty>
   <metaproperty tool="" name="meta.attr.1.stream.language">eng</metaproperty>
   <metaproperty tool="" name="meta.attr.compatible_brands">mp42avc1</metaproperty>
   <metaproperty tool="" name="meta.attr.creation_time">2014-08-28 19:42:03</metaproperty>
   <metaproperty tool="" name="meta.attr.major_brand">mp42</metaproperty>
   <metaproperty tool="" name="meta.attr.minor_version">1</metaproperty>
  </kdenlive_producer>
  <kdenlive_producer audio_max="53" id="59" pix_fmt="yuvj420p" default_video="0" fps="29.97" analysisdata="" name="IMGA0096.MP4" videocodecid="h264" colorspace="709" videocodec="H.264 / AVC / MPEG-4 AVC / MPEG-4 part 10" resource="/home/alex/Videos/EOTR Footage/IMGA0096.MP4" default_audio="1" audiocodec="AAC (Advanced Audio Coding)" duration="659" file_hash="7cc5e9cc1db22e444481e0195ed66420" aspect_ratio="1" channels="2" frequency="48000" video_max="0" progressive="1" type="3" frame_size="1920x1080" file_size="44105728">
   <metaproperty tool="" name="meta.attr.0.stream.creation_time">2014-08-28 19:54:14</metaproperty>
   <metaproperty tool="" name="meta.attr.0.stream.language">eng</metaproperty>
   <metaproperty tool="" name="meta.attr.1.stream.creation_time">2014-08-28 19:54:14</metaproperty>
   <metaproperty tool="" name="meta.attr.1.stream.language">eng</metaproperty>
   <metaproperty tool="" name="meta.attr.compatible_brands">mp42avc1</metaproperty>
   <metaproperty tool="" name="meta.attr.creation_time">2014-08-28 19:54:14</metaproperty>
   <metaproperty tool="" name="meta.attr.major_brand">mp42</metaproperty>
   <metaproperty tool="" name="meta.attr.minor_version">1</metaproperty>
  </kdenlive_producer>
  <kdenlive_producer audio_max="58" id="60" pix_fmt="yuvj420p" default_video="0" fps="29.97" analysisdata="" name="IMGA0097.MP4" videocodecid="h264" colorspace="709" videocodec="H.264 / AVC / MPEG-4 AVC / MPEG-4 part 10" resource="/home/alex/Videos/EOTR Footage/IMGA0097.MP4" default_audio="1" audiocodec="AAC (Advanced Audio Coding)" duration="390" file_hash="c8f6d2c18e79ae5dae9d6b384b40c614" aspect_ratio="1" channels="2" frequency="48000" video_max="0" progressive="1" type="3" frame_size="1920x1080" file_size="23691264">
   <metaproperty tool="" name="meta.attr.0.stream.creation_time">2014-08-28 20:05:14</metaproperty>
   <metaproperty tool="" name="meta.attr.0.stream.language">eng</metaproperty>
   <metaproperty tool="" name="meta.attr.1.stream.creation_time">2014-08-28 20:05:14</metaproperty>
   <metaproperty tool="" name="meta.attr.1.stream.language">eng</metaproperty>
   <metaproperty tool="" name="meta.attr.compatible_brands">mp42avc1</metaproperty>
   <metaproperty tool="" name="meta.attr.creation_time">2014-08-28 20:05:14</metaproperty>
   <metaproperty tool="" name="meta.attr.major_brand">mp42</metaproperty>
   <metaproperty tool="" name="meta.attr.minor_version">1</metaproperty>
  </kdenlive_producer>
  <kdenlive_producer audio_max="56" id="61" pix_fmt="yuvj420p" default_video="0" fps="29.97" analysisdata="" name="IMGA0098.MP4" videocodecid="h264" colorspace="709" videocodec="H.264 / AVC / MPEG-4 AVC / MPEG-4 part 10" resource="/home/alex/Videos/EOTR Footage/IMGA0098.MP4" default_audio="1" audiocodec="AAC (Advanced Audio Coding)" duration="329" file_hash="f9c0e1831cc31becb57db65d67351daf" aspect_ratio="1" channels="2" frequency="48000" video_max="0" progressive="1" type="3" frame_size="1920x1080" file_size="21495808">
   <metaproperty tool="" name="meta.attr.0.stream.creation_time">2014-08-28 20:05:32</metaproperty>
   <metaproperty tool="" name="meta.attr.0.stream.language">eng</metaproperty>
   <metaproperty tool="" name="meta.attr.1.stream.creation_time">2014-08-28 20:05:32</metaproperty>
   <metaproperty tool="" name="meta.attr.1.stream.language">eng</metaproperty>
   <metaproperty tool="" name="meta.attr.compatible_brands">mp42avc1</metaproperty>
   <metaproperty tool="" name="meta.attr.creation_time">2014-08-28 20:05:32</metaproperty>
   <metaproperty tool="" name="meta.attr.major_brand">mp42</metaproperty>
   <metaproperty tool="" name="meta.attr.minor_version">1</metaproperty>
  </kdenlive_producer>
  <kdenlive_producer audio_max="49" id="62" pix_fmt="yuvj420p" default_video="0" fps="29.97" analysisdata="" name="IMGA0100.MP4" videocodecid="h264" colorspace="709" videocodec="H.264 / AVC / MPEG-4 AVC / MPEG-4 part 10" resource="/home/alex/Videos/EOTR Footage/IMGA0100.MP4" default_audio="1" audiocodec="AAC (Advanced Audio Coding)" duration="2369" file_hash="480ebdb3ab068b278d32fe41eeba56f3" aspect_ratio="1" channels="2" frequency="48000" video_max="0" progressive="1" type="3" frame_size="1920x1080" file_size="161153024">
   <metaproperty tool="" name="meta.attr.0.stream.creation_time">2014-08-29 08:00:36</metaproperty>
   <metaproperty tool="" name="meta.attr.0.stream.language">eng</metaproperty>
   <metaproperty tool="" name="meta.attr.1.stream.creation_time">2014-08-29 08:00:36</metaproperty>
   <metaproperty tool="" name="meta.attr.1.stream.language">eng</metaproperty>
   <metaproperty tool="" name="meta.attr.compatible_brands">mp42avc1</metaproperty>
   <metaproperty tool="" name="meta.attr.creation_time">2014-08-29 08:00:36</metaproperty>
   <metaproperty tool="" name="meta.attr.major_brand">mp42</metaproperty>
   <metaproperty tool="" name="meta.attr.minor_version">1</metaproperty>
  </kdenlive_producer>
  <kdenlive_producer audio_max="63" id="63" pix_fmt="yuvj420p" default_video="0" fps="29.97" analysisdata="" name="IMGA0101.MP4" videocodecid="h264" colorspace="709" videocodec="H.264 / AVC / MPEG-4 AVC / MPEG-4 part 10" resource="/home/alex/Videos/EOTR Footage/IMGA0101.MP4" default_audio="1" audiocodec="AAC (Advanced Audio Coding)" duration="56910" file_hash="2c16539b8152e460573150d92d88b8e1" aspect_ratio="1" channels="2" frequency="48000" video_max="0" progressive="1" type="3" frame_size="1920x1080" file_size="1521418240">
   <metaproperty tool="" name="meta.attr.0.stream.creation_time">2014-08-29 08:09:09</metaproperty>
   <metaproperty tool="" name="meta.attr.0.stream.language">eng</metaproperty>
   <metaproperty tool="" name="meta.attr.1.stream.creation_time">2014-08-29 08:09:09</metaproperty>
   <metaproperty tool="" name="meta.attr.1.stream.language">eng</metaproperty>
   <metaproperty tool="" name="meta.attr.compatible_brands">mp42avc1</metaproperty>
   <metaproperty tool="" name="meta.attr.creation_time">2014-08-29 08:09:09</metaproperty>
   <metaproperty tool="" name="meta.attr.major_brand">mp42</metaproperty>
   <metaproperty tool="" name="meta.attr.minor_version">1</metaproperty>
  </kdenlive_producer>
  <kdenlive_producer audio_max="48" id="64" pix_fmt="yuvj420p" default_video="0" fps="29.97" analysisdata="" name="IMGA0103.MP4" videocodecid="h264" colorspace="709" videocodec="H.264 / AVC / MPEG-4 AVC / MPEG-4 part 10" resource="/home/alex/Videos/EOTR Footage/IMGA0103.MP4" default_audio="1" audiocodec="AAC (Advanced Audio Coding)" duration="809" file_hash="a87ba7948df23321ccf4b096b72c0f9e" aspect_ratio="1" channels="2" frequency="48000" video_max="0" progressive="1" type="3" frame_size="1920x1080" file_size="59047936">
   <metaproperty tool="" name="meta.attr.0.stream.creation_time">2014-08-29 08:47:30</metaproperty>
   <metaproperty tool="" name="meta.attr.0.stream.language">eng</metaproperty>
   <metaproperty tool="" name="meta.attr.1.stream.creation_time">2014-08-29 08:47:30</metaproperty>
   <metaproperty tool="" name="meta.attr.1.stream.language">eng</metaproperty>
   <metaproperty tool="" name="meta.attr.compatible_brands">mp42avc1</metaproperty>
   <metaproperty tool="" name="meta.attr.creation_time">2014-08-29 08:47:30</metaproperty>
   <metaproperty tool="" name="meta.attr.major_brand">mp42</metaproperty>
   <metaproperty tool="" name="meta.attr.minor_version">1</metaproperty>
  </kdenlive_producer>
  <kdenlive_producer audio_max="50" id="65" pix_fmt="yuvj420p" default_video="0" fps="29.97" analysisdata="" name="IMGA0104.MP4" videocodecid="h264" colorspace="709" videocodec="H.264 / AVC / MPEG-4 AVC / MPEG-4 part 10" resource="/home/alex/Videos/EOTR Footage/IMGA0104.MP4" default_audio="1" audiocodec="AAC (Advanced Audio Coding)" duration="359" file_hash="cd115416cb92f2ac5d2d7aa8c7b6b5b9" aspect_ratio="1" channels="2" frequency="48000" video_max="0" progressive="1" type="3" frame_size="1920x1080" file_size="24051712">
   <metaproperty tool="" name="meta.attr.0.stream.creation_time">2014-08-29 09:10:48</metaproperty>
   <metaproperty tool="" name="meta.attr.0.stream.language">eng</metaproperty>
   <metaproperty tool="" name="meta.attr.1.stream.creation_time">2014-08-29 09:10:48</metaproperty>
   <metaproperty tool="" name="meta.attr.1.stream.language">eng</metaproperty>
   <metaproperty tool="" name="meta.attr.compatible_brands">mp42avc1</metaproperty>
   <metaproperty tool="" name="meta.attr.creation_time">2014-08-29 09:10:48</metaproperty>
   <metaproperty tool="" name="meta.attr.major_brand">mp42</metaproperty>
   <metaproperty tool="" name="meta.attr.minor_version">1</metaproperty>
  </kdenlive_producer>
  <kdenlive_producer audio_max="63" id="66" pix_fmt="yuvj420p" default_video="0" fps="29.97" analysisdata="" name="IMGA0105.MP4" videocodecid="h264" colorspace="709" videocodec="H.264 / AVC / MPEG-4 AVC / MPEG-4 part 10" resource="/home/alex/Videos/EOTR Footage/IMGA0105.MP4" default_audio="1" audiocodec="AAC (Advanced Audio Coding)" duration="2400" file_hash="7c4d7ce80e1b6de782cbf31058aa0345" aspect_ratio="1" channels="2" frequency="48000" video_max="0" progressive="1" type="3" frame_size="1920x1080" file_size="160071680">
   <metaproperty tool="" name="meta.attr.0.stream.creation_time">2014-08-29 09:20:51</metaproperty>
   <metaproperty tool="" name="meta.attr.0.stream.language">eng</metaproperty>
   <metaproperty tool="" name="meta.attr.1.stream.creation_time">2014-08-29 09:20:51</metaproperty>
   <metaproperty tool="" name="meta.attr.1.stream.language">eng</metaproperty>
   <metaproperty tool="" name="meta.attr.compatible_brands">mp42avc1</metaproperty>
   <metaproperty tool="" name="meta.attr.creation_time">2014-08-29 09:20:51</metaproperty>
   <metaproperty tool="" name="meta.attr.major_brand">mp42</metaproperty>
   <metaproperty tool="" name="meta.attr.minor_version">1</metaproperty>
  </kdenlive_producer>
  <kdenlive_producer audio_max="51" id="67" pix_fmt="yuvj420p" default_video="0" fps="29.97" analysisdata="" name="IMGA0106.MP4" videocodecid="h264" colorspace="709" videocodec="H.264 / AVC / MPEG-4 AVC / MPEG-4 part 10" resource="/home/alex/Videos/EOTR Footage/IMGA0106.MP4" default_audio="1" audiocodec="AAC (Advanced Audio Coding)" duration="390" file_hash="50b47751499b8747555d52dd8a4c7722" aspect_ratio="1" channels="2" frequency="48000" video_max="0" progressive="1" type="3" frame_size="1920x1080" file_size="27394048">
   <metaproperty tool="" name="meta.attr.0.stream.creation_time">2014-08-29 09:29:43</metaproperty>
   <metaproperty tool="" name="meta.attr.0.stream.language">eng</metaproperty>
   <metaproperty tool="" name="meta.attr.1.stream.creation_time">2014-08-29 09:29:43</metaproperty>
   <metaproperty tool="" name="meta.attr.1.stream.language">eng</metaproperty>
   <metaproperty tool="" name="meta.attr.compatible_brands">mp42avc1</metaproperty>
   <metaproperty tool="" name="meta.attr.creation_time">2014-08-29 09:29:43</metaproperty>
   <metaproperty tool="" name="meta.attr.major_brand">mp42</metaproperty>
   <metaproperty tool="" name="meta.attr.minor_version">1</metaproperty>
  </kdenlive_producer>
  <kdenlive_producer audio_max="63" id="68" pix_fmt="yuv420p" default_video="0" fps="30.0427" analysisdata="" name="video-2000-01-01-00-03-33.mp4" videocodecid="h264" colorspace="709" videocodec="H.264 / AVC / MPEG-4 AVC / MPEG-4 part 10" resource="/home/alex/Videos/EOTR Footage/video-2000-01-01-00-03-33.mp4" default_audio="1" audiocodec="AAC (Advanced Audio Coding)" duration="1353" file_hash="93d6a619d55165fac777c5aaa388b0b5" aspect_ratio="1" channels="1" frequency="16000" video_max="0" progressive="1" type="3" frame_size="1920x1080" file_size="96435954">
   <metaproperty tool="" name="meta.attr.0.stream.language">eng</metaproperty>
   <metaproperty tool="" name="meta.attr.1.stream.language">eng</metaproperty>
   <metaproperty tool="" name="meta.attr.compatible_brands">3gp43gp6</metaproperty>
   <metaproperty tool="" name="meta.attr.major_brand">3gp4</metaproperty>
   <metaproperty tool="" name="meta.attr.minor_version">768</metaproperty>
  </kdenlive_producer>
  <kdenlive_producer audio_max="63" id="69" pix_fmt="yuv420p" default_video="0" fps="30.0427" analysisdata="" name="video-2014-08-29-15-14-39.mp4" videocodecid="h264" colorspace="709" videocodec="H.264 / AVC / MPEG-4 AVC / MPEG-4 part 10" resource="/home/alex/Videos/EOTR Footage/video-2014-08-29-15-14-39.mp4" default_audio="1" audiocodec="AAC (Advanced Audio Coding)" duration="1395" file_hash="e263ebfd19419ddf17867866eb47efa5" aspect_ratio="1" channels="1" frequency="16000" video_max="0" progressive="1" type="3" frame_size="1920x1080" file_size="99374078">
   <metaproperty tool="" name="meta.attr.0.stream.language">eng</metaproperty>
   <metaproperty tool="" name="meta.attr.1.stream.language">eng</metaproperty>
   <metaproperty tool="" name="meta.attr.compatible_brands">3gp43gp6</metaproperty>
   <metaproperty tool="" name="meta.attr.major_brand">3gp4</metaproperty>
   <metaproperty tool="" name="meta.attr.minor_version">768</metaproperty>
  </kdenlive_producer>
  <kdenlive_producer audio_max="63" id="70" pix_fmt="yuv420p" default_video="0" fps="30.045" analysisdata="" name="video-2014-08-29-15-26-33.mp4" videocodecid="h264" colorspace="709" videocodec="H.264 / AVC / MPEG-4 AVC / MPEG-4 part 10" resource="/home/alex/Videos/EOTR Footage/video-2014-08-29-15-26-33.mp4" default_audio="1" audiocodec="AAC (Advanced Audio Coding)" duration="858" file_hash="fafc58791667dd1c6317330404106989" aspect_ratio="1" channels="1" frequency="16000" video_max="0" progressive="1" type="3" frame_size="1920x1080" file_size="61149493">
   <metaproperty tool="" name="meta.attr.0.stream.language">eng</metaproperty>
   <metaproperty tool="" name="meta.attr.1.stream.language">eng</metaproperty>
   <metaproperty tool="" name="meta.attr.compatible_brands">3gp43gp6</metaproperty>
   <metaproperty tool="" name="meta.attr.major_brand">3gp4</metaproperty>
   <metaproperty tool="" name="meta.attr.minor_version">768</metaproperty>
  </kdenlive_producer>
  <kdenlive_producer audio_max="63" id="71" pix_fmt="yuv420p" default_video="0" fps="30.0422" analysisdata="" name="video-2014-08-29-15-38-14.mp4" videocodecid="h264" colorspace="709" videocodec="H.264 / AVC / MPEG-4 AVC / MPEG-4 part 10" resource="/home/alex/Videos/EOTR Footage/video-2014-08-29-15-38-14.mp4" default_audio="1" audiocodec="AAC (Advanced Audio Coding)" duration="1953" file_hash="5338e111d8adbd5b989a6609393f4792" aspect_ratio="1" channels="1" frequency="16000" video_max="0" progressive="1" type="3" frame_size="1920x1080" file_size="139251832">
   <metaproperty tool="" name="meta.attr.0.stream.language">eng</metaproperty>
   <metaproperty tool="" name="meta.attr.1.stream.language">eng</metaproperty>
   <metaproperty tool="" name="meta.attr.compatible_brands">3gp43gp6</metaproperty>
   <metaproperty tool="" name="meta.attr.major_brand">3gp4</metaproperty>
   <metaproperty tool="" name="meta.attr.minor_version">768</metaproperty>
  </kdenlive_producer>
  <kdenlive_producer audio_max="63" id="72" pix_fmt="yuv420p" default_video="0" fps="29.8202" analysisdata="" name="video-2014-08-29-16-20-14.mp4" videocodecid="h264" colorspace="709" videocodec="H.264 / AVC / MPEG-4 AVC / MPEG-4 part 10" resource="/home/alex/Videos/EOTR Footage/video-2014-08-29-16-20-14.mp4" default_audio="1" audiocodec="AAC (Advanced Audio Coding)" duration="673" file_hash="34017212c4c675f89b14fe86da65bf52" aspect_ratio="1" channels="1" frequency="16000" video_max="0" progressive="1" type="3" frame_size="1920x1080" file_size="43570673">
   <metaproperty tool="" name="meta.attr.0.stream.language">eng</metaproperty>
   <metaproperty tool="" name="meta.attr.1.stream.language">eng</metaproperty>
   <metaproperty tool="" name="meta.attr.compatible_brands">3gp43gp6</metaproperty>
   <metaproperty tool="" name="meta.attr.major_brand">3gp4</metaproperty>
   <metaproperty tool="" name="meta.attr.minor_version">768</metaproperty>
  </kdenlive_producer>
  <kdenlive_producer audio_max="63" id="73" pix_fmt="yuv420p" default_video="0" fps="30.0392" analysisdata="" name="video-2014-08-29-16-51-13.mp4" videocodecid="h264" colorspace="709" videocodec="H.264 / AVC / MPEG-4 AVC / MPEG-4 part 10" resource="/home/alex/Videos/EOTR Footage/video-2014-08-29-16-51-13.mp4" default_audio="1" audiocodec="AAC (Advanced Audio Coding)" duration="488" file_hash="baa6071781cf40e99d6e18bd9f939eb7" aspect_ratio="1" channels="1" frequency="16000" video_max="0" progressive="1" type="3" frame_size="1920x1080" file_size="34820537">
   <metaproperty tool="" name="meta.attr.0.stream.language">eng</metaproperty>
   <metaproperty tool="" name="meta.attr.1.stream.language">eng</metaproperty>
   <metaproperty tool="" name="meta.attr.compatible_brands">3gp43gp6</metaproperty>
   <metaproperty tool="" name="meta.attr.major_brand">3gp4</metaproperty>
   <metaproperty tool="" name="meta.attr.minor_version">768</metaproperty>
  </kdenlive_producer>
  <kdenlive_producer audio_max="63" id="74" pix_fmt="yuv420p" default_video="0" fps="27.8308" analysisdata="" name="video-2014-08-29-16-52-19.mp4" videocodecid="h264" colorspace="709" videocodec="H.264 / AVC / MPEG-4 AVC / MPEG-4 part 10" resource="/home/alex/Videos/EOTR Footage/video-2014-08-29-16-52-19.mp4" default_audio="1" audiocodec="AAC (Advanced Audio Coding)" duration="596" file_hash="3788a1cd2b50ba188785eede4d531329" aspect_ratio="1" channels="1" frequency="16000" video_max="0" progressive="1" type="3" frame_size="1920x1080" file_size="39306735">
   <metaproperty tool="" name="meta.attr.0.stream.language">eng</metaproperty>
   <metaproperty tool="" name="meta.attr.1.stream.language">eng</metaproperty>
   <metaproperty tool="" name="meta.attr.compatible_brands">3gp43gp6</metaproperty>
   <metaproperty tool="" name="meta.attr.major_brand">3gp4</metaproperty>
   <metaproperty tool="" name="meta.attr.minor_version">768</metaproperty>
  </kdenlive_producer>
  <kdenlive_producer audio_max="63" id="75" pix_fmt="yuv420p" default_video="0" fps="23.8888" analysisdata="" name="video-2014-08-29-16-54-11.mp4" videocodecid="h264" colorspace="709" videocodec="H.264 / AVC / MPEG-4 AVC / MPEG-4 part 10" resource="/home/alex/Videos/EOTR Footage/video-2014-08-29-16-54-11.mp4" default_audio="1" audiocodec="AAC (Advanced Audio Coding)" duration="414" file_hash="27545817d777c1052bada7e2a3fb3bb6" aspect_ratio="1" channels="1" frequency="16000" video_max="0" progressive="1" type="3" frame_size="1920x1080" file_size="23356381">
   <metaproperty tool="" name="meta.attr.0.stream.language">eng</metaproperty>
   <metaproperty tool="" name="meta.attr.1.stream.language">eng</metaproperty>
   <metaproperty tool="" name="meta.attr.compatible_brands">3gp43gp6</metaproperty>
   <metaproperty tool="" name="meta.attr.major_brand">3gp4</metaproperty>
   <metaproperty tool="" name="meta.attr.minor_version">768</metaproperty>
  </kdenlive_producer>
  <kdenlive_producer audio_max="63" id="76" pix_fmt="yuv420p" default_video="0" fps="23.4121" analysisdata="" name="video-2014-08-29-17-03-54.mp4" videocodecid="h264" colorspace="709" videocodec="H.264 / AVC / MPEG-4 AVC / MPEG-4 part 10" resource="/home/alex/Videos/EOTR Footage/video-2014-08-29-17-03-54.mp4" default_audio="1" audiocodec="AAC (Advanced Audio Coding)" duration="535" file_hash="a12fa77a47305a2f784944faabe4dc0a" aspect_ratio="1" channels="1" frequency="16000" video_max="0" progressive="1" type="3" frame_size="1920x1080" file_size="29615934">
   <metaproperty tool="" name="meta.attr.0.stream.language">eng</metaproperty>
   <metaproperty tool="" name="meta.attr.1.stream.language">eng</metaproperty>
   <metaproperty tool="" name="meta.attr.compatible_brands">3gp43gp6</metaproperty>
   <metaproperty tool="" name="meta.attr.major_brand">3gp4</metaproperty>
   <metaproperty tool="" name="meta.attr.minor_version">768</metaproperty>
  </kdenlive_producer>
  <kdenlive_producer audio_max="63" id="77" pix_fmt="yuv420p" default_video="0" fps="23.8696" analysisdata="" name="video-2014-08-29-17-23-47.mp4" videocodecid="h264" colorspace="709" videocodec="H.264 / AVC / MPEG-4 AVC / MPEG-4 part 10" resource="/home/alex/Videos/EOTR Footage/video-2014-08-29-17-23-47.mp4" default_audio="1" audiocodec="AAC (Advanced Audio Coding)" duration="737" file_hash="f702724841015166cad0787f968d8d3e" aspect_ratio="1" channels="1" frequency="16000" video_max="0" progressive="1" type="3" frame_size="1920x1080" file_size="41672989">
   <metaproperty tool="" name="meta.attr.0.stream.language">eng</metaproperty>
   <metaproperty tool="" name="meta.attr.1.stream.language">eng</metaproperty>
   <metaproperty tool="" name="meta.attr.compatible_brands">3gp43gp6</metaproperty>
   <metaproperty tool="" name="meta.attr.major_brand">3gp4</metaproperty>
   <metaproperty tool="" name="meta.attr.minor_version">768</metaproperty>
  </kdenlive_producer>
  <kdenlive_producer audio_max="60" id="78" pix_fmt="yuv420p" default_video="0" fps="30.0449" analysisdata="" name="video-2014-08-29-17-48-30.mp4" videocodecid="h264" colorspace="709" videocodec="H.264 / AVC / MPEG-4 AVC / MPEG-4 part 10" resource="/home/alex/Videos/EOTR Footage/video-2014-08-29-17-48-30.mp4" default_audio="1" audiocodec="AAC (Advanced Audio Coding)" duration="454" file_hash="3cbce5b229c82677b0b34c3ea19f5700" aspect_ratio="1" channels="1" frequency="16000" video_max="0" progressive="1" type="3" frame_size="1920x1080" file_size="32382963">
   <metaproperty tool="" name="meta.attr.0.stream.language">eng</metaproperty>
   <metaproperty tool="" name="meta.attr.1.stream.language">eng</metaproperty>
   <metaproperty tool="" name="meta.attr.compatible_brands">3gp43gp6</metaproperty>
   <metaproperty tool="" name="meta.attr.major_brand">3gp4</metaproperty>
   <metaproperty tool="" name="meta.attr.minor_version">768</metaproperty>
  </kdenlive_producer>
  <kdenlive_producer audio_max="63" id="79" pix_fmt="yuv420p" default_video="0" fps="30.043" analysisdata="" name="video-2014-08-29-18-11-19.mp4" videocodecid="h264" colorspace="709" videocodec="H.264 / AVC / MPEG-4 AVC / MPEG-4 part 10" resource="/home/alex/Videos/EOTR Footage/video-2014-08-29-18-11-19.mp4" default_audio="1" audiocodec="AAC (Advanced Audio Coding)" duration="1177" file_hash="9f793f412e0591778e30fdabef0e73f3" aspect_ratio="1" channels="1" frequency="16000" video_max="0" progressive="1" type="3" frame_size="1920x1080" file_size="83869129">
   <metaproperty tool="" name="meta.attr.0.stream.language">eng</metaproperty>
   <metaproperty tool="" name="meta.attr.1.stream.language">eng</metaproperty>
   <metaproperty tool="" name="meta.attr.compatible_brands">3gp43gp6</metaproperty>
   <metaproperty tool="" name="meta.attr.major_brand">3gp4</metaproperty>
   <metaproperty tool="" name="meta.attr.minor_version">768</metaproperty>
  </kdenlive_producer>
  <kdenlive_producer audio_max="63" id="80" pix_fmt="yuv420p" default_video="0" fps="30.0456" analysisdata="" name="video-2014-08-29-18-21-22.mp4" videocodecid="h264" colorspace="709" videocodec="H.264 / AVC / MPEG-4 AVC / MPEG-4 part 10" resource="/home/alex/Videos/EOTR Footage/video-2014-08-29-18-21-22.mp4" default_audio="1" audiocodec="AAC (Advanced Audio Coding)" duration="709" file_hash="881b9a3a79614454ead5af318849e094" aspect_ratio="1" channels="1" frequency="16000" video_max="0" progressive="1" type="3" frame_size="1920x1080" file_size="50434324">
   <metaproperty tool="" name="meta.attr.0.stream.language">eng</metaproperty>
   <metaproperty tool="" name="meta.attr.1.stream.language">eng</metaproperty>
   <metaproperty tool="" name="meta.attr.compatible_brands">3gp43gp6</metaproperty>
   <metaproperty tool="" name="meta.attr.major_brand">3gp4</metaproperty>
   <metaproperty tool="" name="meta.attr.minor_version">768</metaproperty>
  </kdenlive_producer>
  <kdenlive_producer audio_max="63" id="81" pix_fmt="yuv420p" default_video="0" fps="29.8132" analysisdata="" name="video-2014-08-29-19-40-45.mp4" videocodecid="h264" colorspace="709" videocodec="H.264 / AVC / MPEG-4 AVC / MPEG-4 part 10" resource="/home/alex/Videos/EOTR Footage/video-2014-08-29-19-40-45.mp4" default_audio="1" audiocodec="AAC (Advanced Audio Coding)" duration="988" file_hash="e783aabac463558452a86399529de50a" aspect_ratio="1" channels="1" frequency="16000" video_max="0" progressive="1" type="3" frame_size="1920x1080" file_size="69774351">
   <metaproperty tool="" name="meta.attr.0.stream.language">eng</metaproperty>
   <metaproperty tool="" name="meta.attr.1.stream.language">eng</metaproperty>
   <metaproperty tool="" name="meta.attr.compatible_brands">3gp43gp6</metaproperty>
   <metaproperty tool="" name="meta.attr.major_brand">3gp4</metaproperty>
   <metaproperty tool="" name="meta.attr.minor_version">768</metaproperty>
  </kdenlive_producer>
  <kdenlive_producer audio_max="63" id="82" pix_fmt="yuv420p" default_video="0" fps="23.008" analysisdata="" name="video-2014-08-29-20-09-17.mp4" videocodecid="h264" colorspace="709" videocodec="H.264 / AVC / MPEG-4 AVC / MPEG-4 part 10" resource="/home/alex/Videos/EOTR Footage/video-2014-08-29-20-09-17.mp4" default_audio="1" audiocodec="AAC (Advanced Audio Coding)" duration="1656" file_hash="17c6cea225617b431bb0aa30a25cb542" aspect_ratio="1" channels="1" frequency="16000" video_max="0" progressive="1" type="3" frame_size="1920x1080" file_size="90490652">
   <metaproperty tool="" name="meta.attr.0.stream.language">eng</metaproperty>
   <metaproperty tool="" name="meta.attr.1.stream.language">eng</metaproperty>
   <metaproperty tool="" name="meta.attr.compatible_brands">3gp43gp6</metaproperty>
   <metaproperty tool="" name="meta.attr.major_brand">3gp4</metaproperty>
   <metaproperty tool="" name="meta.attr.minor_version">768</metaproperty>
  </kdenlive_producer>
  <kdenlive_producer audio_max="63" id="83" pix_fmt="yuv420p" default_video="1" fps="24.22" analysisdata="" name="video-2014-08-29-20-16-56.mp4" videocodecid="h264" colorspace="709" videocodec="H.264 / AVC / MPEG-4 AVC / MPEG-4 part 10" resource="/home/alex/Videos/EOTR Footage/video-2014-08-29-20-16-56.mp4" default_audio="0" audiocodec="AAC (Advanced Audio Coding)" duration="1468" file_hash="7fce7ee310bbbd20fcae8d943f2a610b" aspect_ratio="1" channels="1" frequency="16000" video_max="1" progressive="1" type="3" frame_size="1920x1080" file_size="84374473">
   <metaproperty tool="" name="meta.attr.0.stream.language">eng</metaproperty>
   <metaproperty tool="" name="meta.attr.1.stream.language">eng</metaproperty>
   <metaproperty tool="" name="meta.attr.compatible_brands">3gp43gp6</metaproperty>
   <metaproperty tool="" name="meta.attr.major_brand">3gp4</metaproperty>
   <metaproperty tool="" name="meta.attr.minor_version">768</metaproperty>
  </kdenlive_producer>
  <kdenlive_producer audio_max="63" id="84" pix_fmt="yuv420p" default_video="0" fps="23.5047" analysisdata="" name="video-2014-08-29-20-18-05.mp4" videocodecid="h264" thumbnail="100" colorspace="709" videocodec="H.264 / AVC / MPEG-4 AVC / MPEG-4 part 10" resource="/home/alex/Videos/EOTR Footage/video-2014-08-29-20-18-05.mp4" default_audio="1" audiocodec="AAC (Advanced Audio Coding)" duration="1310" file_hash="b67aafe9af01dcf26abff5e0b8bc1318" aspect_ratio="1" channels="1" frequency="16000" video_max="0" progressive="1" type="3" frame_size="1920x1080" file_size="72950181">
   <metaproperty tool="" name="meta.attr.0.stream.language">eng</metaproperty>
   <metaproperty tool="" name="meta.attr.1.stream.language">eng</metaproperty>
   <metaproperty tool="" name="meta.attr.compatible_brands">3gp43gp6</metaproperty>
   <metaproperty tool="" name="meta.attr.major_brand">3gp4</metaproperty>
   <metaproperty tool="" name="meta.attr.minor_version">768</metaproperty>
  </kdenlive_producer>
  <kdenlive_producer audio_max="63" id="85" pix_fmt="yuv420p" default_video="1" fps="20.8997" analysisdata="" name="video-2014-08-29-20-35-54.mp4" videocodecid="h264" thumbnail="100" colorspace="709" videocodec="H.264 / AVC / MPEG-4 AVC / MPEG-4 part 10" resource="/home/alex/Videos/EOTR Footage/video-2014-08-29-20-35-54.mp4" default_audio="0" audiocodec="AAC (Advanced Audio Coding)" duration="301" file_hash="e9ef165ac167c0c6197e6fe2f82d57af" aspect_ratio="1" channels="1" frequency="16000" video_max="1" progressive="1" type="3" frame_size="1920x1080" file_size="14590005">
   <metaproperty tool="" name="meta.attr.0.stream.language">eng</metaproperty>
   <metaproperty tool="" name="meta.attr.1.stream.language">eng</metaproperty>
   <metaproperty tool="" name="meta.attr.compatible_brands">3gp43gp6</metaproperty>
   <metaproperty tool="" name="meta.attr.major_brand">3gp4</metaproperty>
   <metaproperty tool="" name="meta.attr.minor_version">768</metaproperty>
  </kdenlive_producer>
  <kdenlive_producer audio_max="63" id="86" pix_fmt="yuv420p" default_video="0" fps="24.5075" analysisdata="" name="video-2014-08-29-20-53-11.mp4" videocodecid="h264" colorspace="709" videocodec="H.264 / AVC / MPEG-4 AVC / MPEG-4 part 10" resource="/home/alex/Videos/EOTR Footage/video-2014-08-29-20-53-11.mp4" default_audio="1" audiocodec="AAC (Advanced Audio Coding)" duration="3178" file_hash="be5d059b185c8d158f6c470fd526ab2b" aspect_ratio="1" channels="1" frequency="16000" video_max="0" progressive="1" type="3" frame_size="1920x1080" file_size="184897668">
   <metaproperty tool="" name="meta.attr.0.stream.language">eng</metaproperty>
   <metaproperty tool="" name="meta.attr.1.stream.language">eng</metaproperty>
   <metaproperty tool="" name="meta.attr.compatible_brands">3gp43gp6</metaproperty>
   <metaproperty tool="" name="meta.attr.major_brand">3gp4</metaproperty>
   <metaproperty tool="" name="meta.attr.minor_version">768</metaproperty>
  </kdenlive_producer>
  <kdenlive_producer audio_max="63" id="87" pix_fmt="yuv420p" default_video="0" fps="23.9609" analysisdata="" name="video-2014-08-29-20-59-05.mp4" videocodecid="h264" colorspace="709" videocodec="H.264 / AVC / MPEG-4 AVC / MPEG-4 part 10" resource="/home/alex/Videos/EOTR Footage/video-2014-08-29-20-59-05.mp4" default_audio="1" audiocodec="AAC (Advanced Audio Coding)" duration="957" file_hash="c874c38b9d00359d4003548371bf5972" aspect_ratio="1" channels="1" frequency="16000" video_max="0" progressive="1" type="3" frame_size="1920x1080" file_size="54263988">
   <metaproperty tool="" name="meta.attr.0.stream.language">eng</metaproperty>
   <metaproperty tool="" name="meta.attr.1.stream.language">eng</metaproperty>
   <metaproperty tool="" name="meta.attr.compatible_brands">3gp43gp6</metaproperty>
   <metaproperty tool="" name="meta.attr.major_brand">3gp4</metaproperty>
   <metaproperty tool="" name="meta.attr.minor_version">768</metaproperty>
  </kdenlive_producer>
  <kdenlive_producer audio_max="63" id="88" pix_fmt="yuv420p" default_video="1" fps="24.4998" analysisdata="" name="video-2014-08-29-21-05-43.mp4" videocodecid="h264" colorspace="709" videocodec="H.264 / AVC / MPEG-4 AVC / MPEG-4 part 10" resource="/home/alex/Videos/EOTR Footage/video-2014-08-29-21-05-43.mp4" default_audio="0" audiocodec="AAC (Advanced Audio Coding)" duration="1914" file_hash="2b3da73c4ef7b67a4942fb14d2bfbf7b" aspect_ratio="1" channels="1" frequency="16000" video_max="1" progressive="1" type="3" frame_size="1920x1080" file_size="110449663">
   <metaproperty tool="" name="meta.attr.0.stream.language">eng</metaproperty>
   <metaproperty tool="" name="meta.attr.1.stream.language">eng</metaproperty>
   <metaproperty tool="" name="meta.attr.compatible_brands">3gp43gp6</metaproperty>
   <metaproperty tool="" name="meta.attr.major_brand">3gp4</metaproperty>
   <metaproperty tool="" name="meta.attr.minor_version">768</metaproperty>
  </kdenlive_producer>
  <kdenlive_producer audio_max="63" id="89" pix_fmt="yuv420p" default_video="0" fps="25.436" analysisdata="" name="video-2014-08-29-21-09-09.mp4" videocodecid="h264" colorspace="709" videocodec="H.264 / AVC / MPEG-4 AVC / MPEG-4 part 10" resource="/home/alex/Videos/EOTR Footage/video-2014-08-29-21-09-09.mp4" default_audio="1" audiocodec="AAC (Advanced Audio Coding)" duration="847" file_hash="211a33048f33208ff108212bc3475d8f" aspect_ratio="1" channels="1" frequency="16000" video_max="0" progressive="1" type="3" frame_size="1920x1080" file_size="51027436">
   <metaproperty tool="" name="meta.attr.0.stream.language">eng</metaproperty>
   <metaproperty tool="" name="meta.attr.1.stream.language">eng</metaproperty>
   <metaproperty tool="" name="meta.attr.compatible_brands">3gp43gp6</metaproperty>
   <metaproperty tool="" name="meta.attr.major_brand">3gp4</metaproperty>
   <metaproperty tool="" name="meta.attr.minor_version">768</metaproperty>
  </kdenlive_producer>
  <kdenlive_producer audio_max="63" id="90" pix_fmt="yuv420p" default_video="0" fps="23.708" analysisdata="" name="video-2014-08-29-21-22-52.mp4" videocodecid="h264" thumbnail="100" colorspace="709" videocodec="H.264 / AVC / MPEG-4 AVC / MPEG-4 part 10" resource="/home/alex/Videos/EOTR Footage/video-2014-08-29-21-22-52.mp4" default_audio="1" audiocodec="AAC (Advanced Audio Coding)" duration="351" file_hash="afc995739953b8411eba6f0c4fc2c007" aspect_ratio="1" channels="1" frequency="16000" video_max="0" progressive="1" type="3" frame_size="1920x1080" file_size="18826739">
   <metaproperty tool="" name="meta.attr.0.stream.language">eng</metaproperty>
   <metaproperty tool="" name="meta.attr.1.stream.language">eng</metaproperty>
   <metaproperty tool="" name="meta.attr.compatible_brands">3gp43gp6</metaproperty>
   <metaproperty tool="" name="meta.attr.major_brand">3gp4</metaproperty>
   <metaproperty tool="" name="meta.attr.minor_version">768</metaproperty>
  </kdenlive_producer>
  <kdenlive_producer audio_max="32" id="91" pix_fmt="yuv420p" default_video="0" fps="23.3393" analysisdata="" name="video-2014-08-29-21-24-51.mp4" videocodecid="h264" colorspace="709" videocodec="H.264 / AVC / MPEG-4 AVC / MPEG-4 part 10" resource="/home/alex/Videos/EOTR Footage/video-2014-08-29-21-24-51.mp4" default_audio="1" audiocodec="AAC (Advanced Audio Coding)" duration="250" file_hash="de6859343c0eb049caa42f266231fbb3" aspect_ratio="1" channels="1" frequency="16000" video_max="0" progressive="1" type="3" frame_size="1920x1080" file_size="13755092">
   <metaproperty tool="" name="meta.attr.0.stream.language">eng</metaproperty>
   <metaproperty tool="" name="meta.attr.1.stream.language">eng</metaproperty>
   <metaproperty tool="" name="meta.attr.compatible_brands">3gp43gp6</metaproperty>
   <metaproperty tool="" name="meta.attr.major_brand">3gp4</metaproperty>
   <metaproperty tool="" name="meta.attr.minor_version">768</metaproperty>
  </kdenlive_producer>
  <kdenlive_producer audio_max="39" id="92" pix_fmt="yuv420p" default_video="0" fps="23.3324" analysisdata="" name="video-2014-08-29-21-27-44.mp4" videocodecid="h264" thumbnail="100" colorspace="709" videocodec="H.264 / AVC / MPEG-4 AVC / MPEG-4 part 10" resource="/home/alex/Videos/EOTR Footage/video-2014-08-29-21-27-44.mp4" default_audio="1" audiocodec="AAC (Advanced Audio Coding)" duration="427" file_hash="cbcafccd3bc65f4ea96d03f6728f8a51" aspect_ratio="1" channels="1" frequency="16000" video_max="0" progressive="1" type="3" frame_size="1920x1080" file_size="22919928">
   <metaproperty tool="" name="meta.attr.0.stream.language">eng</metaproperty>
   <metaproperty tool="" name="meta.attr.1.stream.language">eng</metaproperty>
   <metaproperty tool="" name="meta.attr.compatible_brands">3gp43gp6</metaproperty>
   <metaproperty tool="" name="meta.attr.major_brand">3gp4</metaproperty>
   <metaproperty tool="" name="meta.attr.minor_version">768</metaproperty>
  </kdenlive_producer>
  <kdenlive_producer audio_max="63" id="93" pix_fmt="yuv420p" default_video="0" fps="23.4698" analysisdata="" name="video-2014-08-29-22-04-19.mp4" videocodecid="h264" colorspace="709" videocodec="H.264 / AVC / MPEG-4 AVC / MPEG-4 part 10" resource="/home/alex/Videos/EOTR Footage/video-2014-08-29-22-04-19.mp4" default_audio="1" audiocodec="AAC (Advanced Audio Coding)" duration="478" file_hash="37aabcfee20e26b56a7b11e94841550a" aspect_ratio="1" channels="1" frequency="16000" video_max="0" progressive="1" type="3" frame_size="1920x1080" file_size="26396759">
   <metaproperty tool="" name="meta.attr.0.stream.language">eng</metaproperty>
   <metaproperty tool="" name="meta.attr.1.stream.language">eng</metaproperty>
   <metaproperty tool="" name="meta.attr.compatible_brands">3gp43gp6</metaproperty>
   <metaproperty tool="" name="meta.attr.major_brand">3gp4</metaproperty>
   <metaproperty tool="" name="meta.attr.minor_version">768</metaproperty>
  </kdenlive_producer>
  <kdenlive_producer audio_max="63" id="94" pix_fmt="yuv420p" default_video="0" fps="30.0428" analysisdata="" name="video-2014-08-30-11-23-21.mp4" videocodecid="h264" colorspace="709" videocodec="H.264 / AVC / MPEG-4 AVC / MPEG-4 part 10" resource="/home/alex/Videos/EOTR Footage/video-2014-08-30-11-23-21.mp4" default_audio="1" audiocodec="AAC (Advanced Audio Coding)" duration="792" file_hash="f8fca0f1a060ff562a22cbe3aca3c27b" aspect_ratio="1" channels="1" frequency="16000" video_max="0" progressive="1" type="3" frame_size="1920x1080" file_size="56482306">
   <metaproperty tool="" name="meta.attr.0.stream.language">eng</metaproperty>
   <metaproperty tool="" name="meta.attr.1.stream.language">eng</metaproperty>
   <metaproperty tool="" name="meta.attr.compatible_brands">3gp43gp6</metaproperty>
   <metaproperty tool="" name="meta.attr.major_brand">3gp4</metaproperty>
   <metaproperty tool="" name="meta.attr.minor_version">768</metaproperty>
  </kdenlive_producer>
  <kdenlive_producer audio_max="63" id="95" pix_fmt="yuv420p" default_video="0" fps="30.0418" analysisdata="" name="video-2014-08-30-11-24-40.mp4" videocodecid="h264" colorspace="709" videocodec="H.264 / AVC / MPEG-4 AVC / MPEG-4 part 10" resource="/home/alex/Videos/EOTR Footage/video-2014-08-30-11-24-40.mp4" default_audio="1" audiocodec="AAC (Advanced Audio Coding)" duration="1220" file_hash="54d9cde872da461756c30dc08a576fdd" aspect_ratio="1" channels="1" frequency="16000" video_max="0" progressive="1" type="3" frame_size="1920x1080" file_size="86925137">
   <metaproperty tool="" name="meta.attr.0.stream.language">eng</metaproperty>
   <metaproperty tool="" name="meta.attr.1.stream.language">eng</metaproperty>
   <metaproperty tool="" name="meta.attr.compatible_brands">3gp43gp6</metaproperty>
   <metaproperty tool="" name="meta.attr.major_brand">3gp4</metaproperty>
   <metaproperty tool="" name="meta.attr.minor_version">768</metaproperty>
  </kdenlive_producer>
  <kdenlive_producer audio_max="63" id="96" pix_fmt="yuv420p" default_video="0" fps="30.0426" analysisdata="" name="video-2014-08-30-11-28-12.mp4" videocodecid="h264" colorspace="709" videocodec="H.264 / AVC / MPEG-4 AVC / MPEG-4 part 10" resource="/home/alex/Videos/EOTR Footage/video-2014-08-30-11-28-12.mp4" default_audio="1" audiocodec="AAC (Advanced Audio Coding)" duration="1314" file_hash="09715515a78354e6da050f36fa1c60a0" aspect_ratio="1" channels="1" frequency="16000" video_max="0" progressive="1" type="3" frame_size="1920x1080" file_size="93628120">
   <metaproperty tool="" name="meta.attr.0.stream.language">eng</metaproperty>
   <metaproperty tool="" name="meta.attr.1.stream.language">eng</metaproperty>
   <metaproperty tool="" name="meta.attr.compatible_brands">3gp43gp6</metaproperty>
   <metaproperty tool="" name="meta.attr.major_brand">3gp4</metaproperty>
   <metaproperty tool="" name="meta.attr.minor_version">768</metaproperty>
  </kdenlive_producer>
  <kdenlive_producer audio_max="63" id="97" pix_fmt="yuv420p" default_video="0" fps="30.0406" analysisdata="" name="video-2014-08-30-11-32-16.mp4" videocodecid="h264" colorspace="709" videocodec="H.264 / AVC / MPEG-4 AVC / MPEG-4 part 10" resource="/home/alex/Videos/EOTR Footage/video-2014-08-30-11-32-16.mp4" default_audio="1" audiocodec="AAC (Advanced Audio Coding)" duration="848" file_hash="5076f74e84a477883720e6c512ee06ab" aspect_ratio="1" channels="1" frequency="16000" video_max="0" progressive="1" type="3" frame_size="1920x1080" file_size="60577692">
   <metaproperty tool="" name="meta.attr.0.stream.language">eng</metaproperty>
   <metaproperty tool="" name="meta.attr.1.stream.language">eng</metaproperty>
   <metaproperty tool="" name="meta.attr.compatible_brands">3gp43gp6</metaproperty>
   <metaproperty tool="" name="meta.attr.major_brand">3gp4</metaproperty>
   <metaproperty tool="" name="meta.attr.minor_version">768</metaproperty>
  </kdenlive_producer>
  <kdenlive_producer audio_max="63" id="98" pix_fmt="yuv420p" default_video="0" fps="30.0426" analysisdata="" name="video-2014-08-30-11-35-22.mp4" videocodecid="h264" colorspace="709" videocodec="H.264 / AVC / MPEG-4 AVC / MPEG-4 part 10" resource="/home/alex/Videos/EOTR Footage/video-2014-08-30-11-35-22.mp4" default_audio="1" audiocodec="AAC (Advanced Audio Coding)" duration="352" file_hash="dad59d9ab73356a89717f92e58240c34" aspect_ratio="1" channels="1" frequency="16000" video_max="0" progressive="1" type="3" frame_size="1920x1080" file_size="25014765">
   <metaproperty tool="" name="meta.attr.0.stream.language">eng</metaproperty>
   <metaproperty tool="" name="meta.attr.1.stream.language">eng</metaproperty>
   <metaproperty tool="" name="meta.attr.compatible_brands">3gp43gp6</metaproperty>
   <metaproperty tool="" name="meta.attr.major_brand">3gp4</metaproperty>
   <metaproperty tool="" name="meta.attr.minor_version">768</metaproperty>
  </kdenlive_producer>
  <kdenlive_producer audio_max="63" id="99" pix_fmt="yuv420p" default_video="0" fps="30.0417" analysisdata="" name="video-2014-08-30-11-44-15.mp4" videocodecid="h264" colorspace="709" videocodec="H.264 / AVC / MPEG-4 AVC / MPEG-4 part 10" resource="/home/alex/Videos/EOTR Footage/video-2014-08-30-11-44-15.mp4" default_audio="1" audiocodec="AAC (Advanced Audio Coding)" duration="417" file_hash="2a232f26b3cbb513f8e0ef9964dd6665" aspect_ratio="1" channels="1" frequency="16000" video_max="0" progressive="1" type="3" frame_size="1920x1080" file_size="29699625">
   <metaproperty tool="" name="meta.attr.0.stream.language">eng</metaproperty>
   <metaproperty tool="" name="meta.attr.1.stream.language">eng</metaproperty>
   <metaproperty tool="" name="meta.attr.compatible_brands">3gp43gp6</metaproperty>
   <metaproperty tool="" name="meta.attr.major_brand">3gp4</metaproperty>
   <metaproperty tool="" name="meta.attr.minor_version">768</metaproperty>
  </kdenlive_producer>
  <kdenlive_producer audio_max="63" id="100" pix_fmt="yuv420p" default_video="0" fps="30.0415" analysisdata="" name="video-2014-08-30-11-46-36.mp4" videocodecid="h264" colorspace="709" videocodec="H.264 / AVC / MPEG-4 AVC / MPEG-4 part 10" resource="/home/alex/Videos/EOTR Footage/video-2014-08-30-11-46-36.mp4" default_audio="1" audiocodec="AAC (Advanced Audio Coding)" duration="1927" file_hash="c16d0cf31200dce5b66cf9cc2e35ac92" aspect_ratio="1" channels="1" frequency="16000" video_max="0" progressive="1" type="3" frame_size="1920x1080" file_size="137310739">
   <metaproperty tool="" name="meta.attr.0.stream.language">eng</metaproperty>
   <metaproperty tool="" name="meta.attr.1.stream.language">eng</metaproperty>
   <metaproperty tool="" name="meta.attr.compatible_brands">3gp43gp6</metaproperty>
   <metaproperty tool="" name="meta.attr.major_brand">3gp4</metaproperty>
   <metaproperty tool="" name="meta.attr.minor_version">768</metaproperty>
  </kdenlive_producer>
  <kdenlive_producer audio_max="63" id="101" pix_fmt="yuv420p" default_video="0" fps="29.0499" analysisdata="" name="video-2014-08-30-11-50-22.mp4" videocodecid="h264" colorspace="709" videocodec="H.264 / AVC / MPEG-4 AVC / MPEG-4 part 10" resource="/home/alex/Videos/EOTR Footage/video-2014-08-30-11-50-22.mp4" default_audio="1" audiocodec="AAC (Advanced Audio Coding)" duration="1132" file_hash="20f2c7ba0ddaa13767d5968b623327f5" aspect_ratio="1" channels="1" frequency="16000" video_max="0" progressive="1" type="3" frame_size="1920x1080" file_size="78023620">
   <metaproperty tool="" name="meta.attr.0.stream.language">eng</metaproperty>
   <metaproperty tool="" name="meta.attr.1.stream.language">eng</metaproperty>
   <metaproperty tool="" name="meta.attr.compatible_brands">3gp43gp6</metaproperty>
   <metaproperty tool="" name="meta.attr.major_brand">3gp4</metaproperty>
   <metaproperty tool="" name="meta.attr.minor_version">768</metaproperty>
  </kdenlive_producer>
  <kdenlive_producer audio_max="63" id="102" pix_fmt="yuv420p" default_video="0" fps="30.0428" analysisdata="" name="video-2014-08-30-11-52-18.mp4" videocodecid="h264" colorspace="709" videocodec="H.264 / AVC / MPEG-4 AVC / MPEG-4 part 10" resource="/home/alex/Videos/EOTR Footage/video-2014-08-30-11-52-18.mp4" default_audio="1" audiocodec="AAC (Advanced Audio Coding)" duration="1050" file_hash="608975ca7be1fea3bc75f687bf1a416b" aspect_ratio="1" channels="1" frequency="16000" video_max="0" progressive="1" type="3" frame_size="1920x1080" file_size="74863677">
   <metaproperty tool="" name="meta.attr.0.stream.language">eng</metaproperty>
   <metaproperty tool="" name="meta.attr.1.stream.language">eng</metaproperty>
   <metaproperty tool="" name="meta.attr.compatible_brands">3gp43gp6</metaproperty>
   <metaproperty tool="" name="meta.attr.major_brand">3gp4</metaproperty>
   <metaproperty tool="" name="meta.attr.minor_version">768</metaproperty>
  </kdenlive_producer>
  <kdenlive_producer audio_max="63" id="103" pix_fmt="yuv420p" default_video="0" fps="30.0417" analysisdata="" name="video-2014-08-30-12-04-18.mp4" videocodecid="h264" colorspace="709" videocodec="H.264 / AVC / MPEG-4 AVC / MPEG-4 part 10" resource="/home/alex/Videos/EOTR Footage/video-2014-08-30-12-04-18.mp4" default_audio="1" audiocodec="AAC (Advanced Audio Coding)" duration="1595" file_hash="af020f9a8bbaa7117c833b85743dd94f" aspect_ratio="1" channels="1" frequency="16000" video_max="0" progressive="1" type="3" frame_size="1920x1080" file_size="113647890">
   <metaproperty tool="" name="meta.attr.0.stream.language">eng</metaproperty>
   <metaproperty tool="" name="meta.attr.1.stream.language">eng</metaproperty>
   <metaproperty tool="" name="meta.attr.compatible_brands">3gp43gp6</metaproperty>
   <metaproperty tool="" name="meta.attr.major_brand">3gp4</metaproperty>
   <metaproperty tool="" name="meta.attr.minor_version">768</metaproperty>
  </kdenlive_producer>
  <kdenlive_producer audio_max="63" id="104" pix_fmt="yuv420p" default_video="1" fps="26.9288" analysisdata="" name="video-2014-08-30-12-13-28.mp4" videocodecid="h264" colorspace="709" videocodec="H.264 / AVC / MPEG-4 AVC / MPEG-4 part 10" resource="/home/alex/Videos/EOTR Footage/video-2014-08-30-12-13-28.mp4" default_audio="0" audiocodec="AAC (Advanced Audio Coding)" duration="1459" file_hash="66430fa063c2496272fd05b09c52f62e" aspect_ratio="1" channels="1" frequency="16000" video_max="1" progressive="1" type="3" frame_size="1920x1080" file_size="92041388">
   <metaproperty tool="" name="meta.attr.0.stream.language">eng</metaproperty>
   <metaproperty tool="" name="meta.attr.1.stream.language">eng</metaproperty>
   <metaproperty tool="" name="meta.attr.compatible_brands">3gp43gp6</metaproperty>
   <metaproperty tool="" name="meta.attr.major_brand">3gp4</metaproperty>
   <metaproperty tool="" name="meta.attr.minor_version">768</metaproperty>
  </kdenlive_producer>
  <kdenlive_producer audio_max="63" id="105" pix_fmt="yuv420p" default_video="0" fps="26.642" analysisdata="" name="video-2014-08-30-12-15-49.mp4" videocodecid="h264" colorspace="709" videocodec="H.264 / AVC / MPEG-4 AVC / MPEG-4 part 10" resource="/home/alex/Videos/EOTR Footage/video-2014-08-30-12-15-49.mp4" default_audio="1" audiocodec="AAC (Advanced Audio Coding)" duration="986" file_hash="76aa868e44a18a82ac435a1e1924764c" aspect_ratio="1" channels="1" frequency="16000" video_max="0" progressive="1" type="3" frame_size="1920x1080" file_size="62403364">
   <metaproperty tool="" name="meta.attr.0.stream.language">eng</metaproperty>
   <metaproperty tool="" name="meta.attr.1.stream.language">eng</metaproperty>
   <metaproperty tool="" name="meta.attr.compatible_brands">3gp43gp6</metaproperty>
   <metaproperty tool="" name="meta.attr.major_brand">3gp4</metaproperty>
   <metaproperty tool="" name="meta.attr.minor_version">768</metaproperty>
  </kdenlive_producer>
  <kdenlive_producer audio_max="63" id="106" pix_fmt="yuv420p" default_video="0" fps="29.5041" analysisdata="" name="video-2014-08-30-12-16-54.mp4" videocodecid="h264" colorspace="709" videocodec="H.264 / AVC / MPEG-4 AVC / MPEG-4 part 10" resource="/home/alex/Videos/EOTR Footage/video-2014-08-30-12-16-54.mp4" default_audio="1" audiocodec="AAC (Advanced Audio Coding)" duration="1517" file_hash="e90a5d373d549dbb48300ec951d9e6ca" aspect_ratio="1" channels="1" frequency="16000" video_max="0" progressive="1" type="3" frame_size="1920x1080" file_size="106171285">
   <metaproperty tool="" name="meta.attr.0.stream.language">eng</metaproperty>
   <metaproperty tool="" name="meta.attr.1.stream.language">eng</metaproperty>
   <metaproperty tool="" name="meta.attr.compatible_brands">3gp43gp6</metaproperty>
   <metaproperty tool="" name="meta.attr.major_brand">3gp4</metaproperty>
   <metaproperty tool="" name="meta.attr.minor_version">768</metaproperty>
  </kdenlive_producer>
  <kdenlive_producer audio_max="63" id="107" pix_fmt="yuv420p" default_video="0" fps="28.1203" analysisdata="" name="video-2014-08-30-12-22-31.mp4" videocodecid="h264" colorspace="709" videocodec="H.264 / AVC / MPEG-4 AVC / MPEG-4 part 10" resource="/home/alex/Videos/EOTR Footage/video-2014-08-30-12-22-31.mp4" default_audio="1" audiocodec="AAC (Advanced Audio Coding)" duration="459" file_hash="dd324855466851ed8d76edac9d9ee4f2" aspect_ratio="1" channels="1" frequency="16000" video_max="0" progressive="1" type="3" frame_size="1920x1080" file_size="30603172">
   <metaproperty tool="" name="meta.attr.0.stream.language">eng</metaproperty>
   <metaproperty tool="" name="meta.attr.1.stream.language">eng</metaproperty>
   <metaproperty tool="" name="meta.attr.compatible_brands">3gp43gp6</metaproperty>
   <metaproperty tool="" name="meta.attr.major_brand">3gp4</metaproperty>
   <metaproperty tool="" name="meta.attr.minor_version">768</metaproperty>
  </kdenlive_producer>
  <kdenlive_producer audio_max="63" id="108" pix_fmt="yuv420p" default_video="0" fps="26.9081" analysisdata="" name="video-2014-08-30-12-23-11.mp4" videocodecid="h264" colorspace="709" videocodec="H.264 / AVC / MPEG-4 AVC / MPEG-4 part 10" resource="/home/alex/Videos/EOTR Footage/video-2014-08-30-12-23-11.mp4" default_audio="1" audiocodec="AAC (Advanced Audio Coding)" duration="708" file_hash="b5a9dd58b637e42d549e75bc761f0991" aspect_ratio="1" channels="1" frequency="16000" video_max="0" progressive="1" type="3" frame_size="1920x1080" file_size="45248890">
   <metaproperty tool="" name="meta.attr.0.stream.language">eng</metaproperty>
   <metaproperty tool="" name="meta.attr.1.stream.language">eng</metaproperty>
   <metaproperty tool="" name="meta.attr.compatible_brands">3gp43gp6</metaproperty>
   <metaproperty tool="" name="meta.attr.major_brand">3gp4</metaproperty>
   <metaproperty tool="" name="meta.attr.minor_version">768</metaproperty>
  </kdenlive_producer>
  <kdenlive_producer audio_max="63" id="109" pix_fmt="yuv420p" default_video="0" fps="30.0415" analysisdata="" name="video-2014-08-30-12-28-01.mp4" videocodecid="h264" colorspace="709" videocodec="H.264 / AVC / MPEG-4 AVC / MPEG-4 part 10" resource="/home/alex/Videos/EOTR Footage/video-2014-08-30-12-28-01.mp4" default_audio="1" audiocodec="AAC (Advanced Audio Coding)" duration="1184" file_hash="b9f5974f49bacb4fcf9c4aac0a2b9c3d" aspect_ratio="1" channels="1" frequency="16000" video_max="0" progressive="1" type="3" frame_size="1920x1080" file_size="84345666">
   <metaproperty tool="" name="meta.attr.0.stream.language">eng</metaproperty>
   <metaproperty tool="" name="meta.attr.1.stream.language">eng</metaproperty>
   <metaproperty tool="" name="meta.attr.compatible_brands">3gp43gp6</metaproperty>
   <metaproperty tool="" name="meta.attr.major_brand">3gp4</metaproperty>
   <metaproperty tool="" name="meta.attr.minor_version">768</metaproperty>
  </kdenlive_producer>
  <kdenlive_producer audio_max="62" id="110" pix_fmt="yuv420p" default_video="0" fps="30.0454" analysisdata="" name="video-2014-08-30-12-31-11.mp4" videocodecid="h264" colorspace="709" videocodec="H.264 / AVC / MPEG-4 AVC / MPEG-4 part 10" resource="/home/alex/Videos/EOTR Footage/video-2014-08-30-12-31-11.mp4" default_audio="1" audiocodec="AAC (Advanced Audio Coding)" duration="257" file_hash="1586f37620ed7bbdea69fb2684d8bb2c" aspect_ratio="1" channels="1" frequency="16000" video_max="0" progressive="1" type="3" frame_size="1920x1080" file_size="18246182">
   <metaproperty tool="" name="meta.attr.0.stream.language">eng</metaproperty>
   <metaproperty tool="" name="meta.attr.1.stream.language">eng</metaproperty>
   <metaproperty tool="" name="meta.attr.compatible_brands">3gp43gp6</metaproperty>
   <metaproperty tool="" name="meta.attr.major_brand">3gp4</metaproperty>
   <metaproperty tool="" name="meta.attr.minor_version">768</metaproperty>
  </kdenlive_producer>
  <kdenlive_producer audio_max="63" id="111" pix_fmt="yuv420p" default_video="0" fps="30.0439" analysisdata="" name="video-2014-08-30-12-31-46.mp4" videocodecid="h264" colorspace="709" videocodec="H.264 / AVC / MPEG-4 AVC / MPEG-4 part 10" resource="/home/alex/Videos/EOTR Footage/video-2014-08-30-12-31-46.mp4" default_audio="1" audiocodec="AAC (Advanced Audio Coding)" duration="1132" file_hash="2e4422fb1e452b1c13780ff172be2655" aspect_ratio="1" channels="1" frequency="16000" video_max="0" progressive="1" type="3" frame_size="1920x1080" file_size="80651126">
   <metaproperty tool="" name="meta.attr.0.stream.language">eng</metaproperty>
   <metaproperty tool="" name="meta.attr.1.stream.language">eng</metaproperty>
   <metaproperty tool="" name="meta.attr.compatible_brands">3gp43gp6</metaproperty>
   <metaproperty tool="" name="meta.attr.major_brand">3gp4</metaproperty>
   <metaproperty tool="" name="meta.attr.minor_version">768</metaproperty>
  </kdenlive_producer>
  <kdenlive_producer audio_max="63" id="112" pix_fmt="yuv420p" default_video="0" fps="30.0424" analysisdata="" name="video-2014-08-30-12-40-36.mp4" videocodecid="h264" colorspace="709" videocodec="H.264 / AVC / MPEG-4 AVC / MPEG-4 part 10" resource="/home/alex/Videos/EOTR Footage/video-2014-08-30-12-40-36.mp4" default_audio="1" audiocodec="AAC (Advanced Audio Coding)" duration="2083" file_hash="9c29fbebb69b8fe84aaca1a06726b59e" aspect_ratio="1" channels="1" frequency="16000" video_max="0" progressive="1" type="3" frame_size="1920x1080" file_size="148494662">
   <metaproperty tool="" name="meta.attr.0.stream.language">eng</metaproperty>
   <metaproperty tool="" name="meta.attr.1.stream.language">eng</metaproperty>
   <metaproperty tool="" name="meta.attr.compatible_brands">3gp43gp6</metaproperty>
   <metaproperty tool="" name="meta.attr.major_brand">3gp4</metaproperty>
   <metaproperty tool="" name="meta.attr.minor_version">768</metaproperty>
  </kdenlive_producer>
  <kdenlive_producer audio_max="63" id="113" pix_fmt="yuv420p" default_video="0" fps="30.0468" analysisdata="" name="video-2014-08-30-12-48-17.mp4" videocodecid="h264" colorspace="709" videocodec="H.264 / AVC / MPEG-4 AVC / MPEG-4 part 10" resource="/home/alex/Videos/EOTR Footage/video-2014-08-30-12-48-17.mp4" default_audio="1" audiocodec="AAC (Advanced Audio Coding)" duration="396" file_hash="90838a7e7a7b90482fda745ed8d39910" aspect_ratio="1" channels="1" frequency="16000" video_max="0" progressive="1" type="3" frame_size="1920x1080" file_size="28272413">
   <metaproperty tool="" name="meta.attr.0.stream.language">eng</metaproperty>
   <metaproperty tool="" name="meta.attr.1.stream.language">eng</metaproperty>
   <metaproperty tool="" name="meta.attr.compatible_brands">3gp43gp6</metaproperty>
   <metaproperty tool="" name="meta.attr.major_brand">3gp4</metaproperty>
   <metaproperty tool="" name="meta.attr.minor_version">768</metaproperty>
  </kdenlive_producer>
  <kdenlive_producer audio_max="63" id="114" pix_fmt="yuv420p" default_video="0" fps="30.0426" analysisdata="" name="video-2014-08-30-12-52-33.mp4" videocodecid="h264" colorspace="709" videocodec="H.264 / AVC / MPEG-4 AVC / MPEG-4 part 10" resource="/home/alex/Videos/EOTR Footage/video-2014-08-30-12-52-33.mp4" default_audio="1" audiocodec="AAC (Advanced Audio Coding)" duration="3271" file_hash="610f87b6f71475d63ae6a2f00716676c" aspect_ratio="1" channels="1" frequency="16000" video_max="0" progressive="1" type="3" frame_size="1920x1080" file_size="233122043">
   <metaproperty tool="" name="meta.attr.0.stream.language">eng</metaproperty>
   <metaproperty tool="" name="meta.attr.1.stream.language">eng</metaproperty>
   <metaproperty tool="" name="meta.attr.compatible_brands">3gp43gp6</metaproperty>
   <metaproperty tool="" name="meta.attr.major_brand">3gp4</metaproperty>
   <metaproperty tool="" name="meta.attr.minor_version">768</metaproperty>
  </kdenlive_producer>
  <kdenlive_producer audio_max="63" id="115" pix_fmt="yuv420p" default_video="0" fps="30.0424" analysisdata="" name="video-2014-08-30-12-55-51.mp4" videocodecid="h264" colorspace="709" videocodec="H.264 / AVC / MPEG-4 AVC / MPEG-4 part 10" resource="/home/alex/Videos/EOTR Footage/video-2014-08-30-12-55-51.mp4" default_audio="1" audiocodec="AAC (Advanced Audio Coding)" duration="1257" file_hash="6ab3c76c279e1a6bda8c69996c75cc00" aspect_ratio="1" channels="1" frequency="16000" video_max="0" progressive="1" type="3" frame_size="1920x1080" file_size="89684070">
   <metaproperty tool="" name="meta.attr.0.stream.language">eng</metaproperty>
   <metaproperty tool="" name="meta.attr.1.stream.language">eng</metaproperty>
   <metaproperty tool="" name="meta.attr.compatible_brands">3gp43gp6</metaproperty>
   <metaproperty tool="" name="meta.attr.major_brand">3gp4</metaproperty>
   <metaproperty tool="" name="meta.attr.minor_version">768</metaproperty>
  </kdenlive_producer>
  <kdenlive_producer audio_max="63" id="116" pix_fmt="yuv420p" default_video="0" fps="23.6464" analysisdata="" name="video-2014-08-30-13-22-55.mp4" videocodecid="h264" colorspace="709" videocodec="H.264 / AVC / MPEG-4 AVC / MPEG-4 part 10" resource="/home/alex/Videos/EOTR Footage/video-2014-08-30-13-22-55.mp4" default_audio="1" audiocodec="AAC (Advanced Audio Coding)" duration="822" file_hash="c021f9e0b22443294513166b86480b0f" aspect_ratio="1" channels="1" frequency="16000" video_max="0" progressive="1" type="3" frame_size="1920x1080" file_size="46121431">
   <metaproperty tool="" name="meta.attr.0.stream.language">eng</metaproperty>
   <metaproperty tool="" name="meta.attr.1.stream.language">eng</metaproperty>
   <metaproperty tool="" name="meta.attr.compatible_brands">3gp43gp6</metaproperty>
   <metaproperty tool="" name="meta.attr.major_brand">3gp4</metaproperty>
   <metaproperty tool="" name="meta.attr.minor_version">768</metaproperty>
  </kdenlive_producer>
  <kdenlive_producer audio_max="63" id="117" pix_fmt="yuv420p" default_video="1" fps="23.7121" analysisdata="" name="video-2014-08-30-13-34-17.mp4" videocodecid="h264" colorspace="709" videocodec="H.264 / AVC / MPEG-4 AVC / MPEG-4 part 10" resource="/home/alex/Videos/EOTR Footage/video-2014-08-30-13-34-17.mp4" default_audio="0" audiocodec="AAC (Advanced Audio Coding)" duration="432" file_hash="a580f80e508c65672cbd98f4da7e8c52" aspect_ratio="1" channels="1" frequency="16000" video_max="1" progressive="1" type="3" frame_size="1920x1080" file_size="24285540">
   <metaproperty tool="" name="meta.attr.0.stream.language">eng</metaproperty>
   <metaproperty tool="" name="meta.attr.1.stream.language">eng</metaproperty>
   <metaproperty tool="" name="meta.attr.compatible_brands">3gp43gp6</metaproperty>
   <metaproperty tool="" name="meta.attr.major_brand">3gp4</metaproperty>
   <metaproperty tool="" name="meta.attr.minor_version">768</metaproperty>
  </kdenlive_producer>
  <kdenlive_producer audio_max="63" id="118" pix_fmt="yuv420p" default_video="0" fps="23.8405" analysisdata="" name="video-2014-08-30-13-38-19.mp4" videocodecid="h264" colorspace="709" videocodec="H.264 / AVC / MPEG-4 AVC / MPEG-4 part 10" resource="/home/alex/Videos/EOTR Footage/video-2014-08-30-13-38-19.mp4" default_audio="1" audiocodec="AAC (Advanced Audio Coding)" duration="1082" file_hash="652318a8e7c395eeec56a9107357c331" aspect_ratio="1" channels="1" frequency="16000" video_max="0" progressive="1" type="3" frame_size="1920x1080" file_size="60818319">
   <metaproperty tool="" name="meta.attr.0.stream.language">eng</metaproperty>
   <metaproperty tool="" name="meta.attr.1.stream.language">eng</metaproperty>
   <metaproperty tool="" name="meta.attr.compatible_brands">3gp43gp6</metaproperty>
   <metaproperty tool="" name="meta.attr.major_brand">3gp4</metaproperty>
   <metaproperty tool="" name="meta.attr.minor_version">768</metaproperty>
  </kdenlive_producer>
  <kdenlive_producer audio_max="63" id="119" pix_fmt="yuv420p" default_video="0" fps="30.0435" analysisdata="" name="video-2014-08-30-14-05-07.mp4" videocodecid="h264" colorspace="709" videocodec="H.264 / AVC / MPEG-4 AVC / MPEG-4 part 10" resource="/home/alex/Videos/EOTR Footage/video-2014-08-30-14-05-07.mp4" default_audio="1" audiocodec="AAC (Advanced Audio Coding)" duration="965" file_hash="7bc49840a41bf0c56fd57da39361bc3a" aspect_ratio="1" channels="1" frequency="16000" video_max="0" progressive="1" type="3" frame_size="1920x1080" file_size="68779986">
   <metaproperty tool="" name="meta.attr.0.stream.language">eng</metaproperty>
   <metaproperty tool="" name="meta.attr.1.stream.language">eng</metaproperty>
   <metaproperty tool="" name="meta.attr.compatible_brands">3gp43gp6</metaproperty>
   <metaproperty tool="" name="meta.attr.major_brand">3gp4</metaproperty>
   <metaproperty tool="" name="meta.attr.minor_version">768</metaproperty>
  </kdenlive_producer>
  <kdenlive_producer audio_max="63" id="120" pix_fmt="yuv420p" default_video="0" fps="30.0409" analysisdata="" name="video-2014-08-30-14-17-14.mp4" videocodecid="h264" colorspace="709" videocodec="H.264 / AVC / MPEG-4 AVC / MPEG-4 part 10" resource="/home/alex/Videos/EOTR Footage/video-2014-08-30-14-17-14.mp4" default_audio="1" audiocodec="AAC (Advanced Audio Coding)" duration="623" file_hash="d11c5f0e1a249d854a1c257dd8049e19" aspect_ratio="1" channels="1" frequency="16000" video_max="0" progressive="1" type="3" frame_size="1920x1080" file_size="44307558">
   <metaproperty tool="" name="meta.attr.0.stream.language">eng</metaproperty>
   <metaproperty tool="" name="meta.attr.1.stream.language">eng</metaproperty>
   <metaproperty tool="" name="meta.attr.compatible_brands">3gp43gp6</metaproperty>
   <metaproperty tool="" name="meta.attr.major_brand">3gp4</metaproperty>
   <metaproperty tool="" name="meta.attr.minor_version">768</metaproperty>
  </kdenlive_producer>
  <kdenlive_producer audio_max="63" id="121" pix_fmt="yuv420p" default_video="0" fps="30.0458" analysisdata="" name="video-2014-08-30-14-17-44.mp4" videocodecid="h264" colorspace="709" videocodec="H.264 / AVC / MPEG-4 AVC / MPEG-4 part 10" resource="/home/alex/Videos/EOTR Footage/video-2014-08-30-14-17-44.mp4" default_audio="1" audiocodec="AAC (Advanced Audio Coding)" duration="307" file_hash="47e267c44e84646950d5b21152aec90c" aspect_ratio="1" channels="1" frequency="16000" video_max="0" progressive="1" type="3" frame_size="1920x1080" file_size="21841777">
   <metaproperty tool="" name="meta.attr.0.stream.language">eng</metaproperty>
   <metaproperty tool="" name="meta.attr.1.stream.language">eng</metaproperty>
   <metaproperty tool="" name="meta.attr.compatible_brands">3gp43gp6</metaproperty>
   <metaproperty tool="" name="meta.attr.major_brand">3gp4</metaproperty>
   <metaproperty tool="" name="meta.attr.minor_version">768</metaproperty>
  </kdenlive_producer>
  <kdenlive_producer audio_max="63" id="122" pix_fmt="yuv420p" default_video="0" fps="30.0425" analysisdata="" name="video-2014-08-30-14-55-38.mp4" videocodecid="h264" colorspace="709" videocodec="H.264 / AVC / MPEG-4 AVC / MPEG-4 part 10" resource="/home/alex/Videos/EOTR Footage/video-2014-08-30-14-55-38.mp4" default_audio="1" audiocodec="AAC (Advanced Audio Coding)" duration="951" file_hash="5e5a0207daa46f589fc8147b5213041e" aspect_ratio="1" channels="1" frequency="16000" video_max="0" progressive="1" type="3" frame_size="1920x1080" file_size="67743590">
   <metaproperty tool="" name="meta.attr.0.stream.language">eng</metaproperty>
   <metaproperty tool="" name="meta.attr.1.stream.language">eng</metaproperty>
   <metaproperty tool="" name="meta.attr.compatible_brands">3gp43gp6</metaproperty>
   <metaproperty tool="" name="meta.attr.major_brand">3gp4</metaproperty>
   <metaproperty tool="" name="meta.attr.minor_version">768</metaproperty>
  </kdenlive_producer>
  <kdenlive_producer audio_max="63" id="123" pix_fmt="yuv420p" default_video="0" fps="30.0416" analysisdata="" name="video-2014-08-30-15-21-06.mp4" videocodecid="h264" colorspace="709" videocodec="H.264 / AVC / MPEG-4 AVC / MPEG-4 part 10" resource="/home/alex/Videos/EOTR Footage/video-2014-08-30-15-21-06.mp4" default_audio="1" audiocodec="AAC (Advanced Audio Coding)" duration="1347" file_hash="31ac45f70a0a4b1ace2c1bcd376874a2" aspect_ratio="1" channels="1" frequency="16000" video_max="0" progressive="1" type="3" frame_size="1920x1080" file_size="96036897">
   <metaproperty tool="" name="meta.attr.0.stream.language">eng</metaproperty>
   <metaproperty tool="" name="meta.attr.1.stream.language">eng</metaproperty>
   <metaproperty tool="" name="meta.attr.compatible_brands">3gp43gp6</metaproperty>
   <metaproperty tool="" name="meta.attr.major_brand">3gp4</metaproperty>
   <metaproperty tool="" name="meta.attr.minor_version">768</metaproperty>
  </kdenlive_producer>
  <kdenlive_producer audio_max="58" id="124" pix_fmt="yuv420p" default_video="0" fps="29.9591" analysisdata="" name="video-2014-08-30-15-29-20.mp4" videocodecid="h264" colorspace="709" videocodec="H.264 / AVC / MPEG-4 AVC / MPEG-4 part 10" resource="/home/alex/Videos/EOTR Footage/video-2014-08-30-15-29-20.mp4" default_audio="1" audiocodec="AAC (Advanced Audio Coding)" duration="359" file_hash="a8a40fe8425cb2af4c232ad624d3b99a" aspect_ratio="1" channels="1" frequency="16000" video_max="0" progressive="1" type="3" frame_size="1920x1080" file_size="25437482">
   <metaproperty tool="" name="meta.attr.0.stream.language">eng</metaproperty>
   <metaproperty tool="" name="meta.attr.1.stream.language">eng</metaproperty>
   <metaproperty tool="" name="meta.attr.compatible_brands">3gp43gp6</metaproperty>
   <metaproperty tool="" name="meta.attr.major_brand">3gp4</metaproperty>
   <metaproperty tool="" name="meta.attr.minor_version">768</metaproperty>
  </kdenlive_producer>
  <kdenlive_producer audio_max="63" id="125" pix_fmt="yuv420p" default_video="0" fps="29.953" analysisdata="" name="video-2014-08-30-15-42-19.mp4" videocodecid="h264" colorspace="709" videocodec="H.264 / AVC / MPEG-4 AVC / MPEG-4 part 10" resource="/home/alex/Videos/EOTR Footage/video-2014-08-30-15-42-19.mp4" default_audio="1" audiocodec="AAC (Advanced Audio Coding)" duration="1684" file_hash="1cbc07b4d9300259bd437812938e5534" aspect_ratio="1" channels="1" frequency="16000" video_max="0" progressive="1" type="3" frame_size="1920x1080" file_size="119624753">
   <metaproperty tool="" name="meta.attr.0.stream.language">eng</metaproperty>
   <metaproperty tool="" name="meta.attr.1.stream.language">eng</metaproperty>
   <metaproperty tool="" name="meta.attr.compatible_brands">3gp43gp6</metaproperty>
   <metaproperty tool="" name="meta.attr.major_brand">3gp4</metaproperty>
   <metaproperty tool="" name="meta.attr.minor_version">768</metaproperty>
  </kdenlive_producer>
  <kdenlive_producer audio_max="63" id="126" pix_fmt="yuv420p" default_video="0" fps="29.9866" analysisdata="" name="video-2014-08-30-15-48-05.mp4" videocodecid="h264" colorspace="709" videocodec="H.264 / AVC / MPEG-4 AVC / MPEG-4 part 10" resource="/home/alex/Videos/EOTR Footage/video-2014-08-30-15-48-05.mp4" default_audio="1" audiocodec="AAC (Advanced Audio Coding)" duration="1073" file_hash="c3ecb7d6342391f71869585882ed0975" aspect_ratio="1" channels="1" frequency="16000" video_max="0" progressive="1" type="3" frame_size="1920x1080" file_size="73645114">
   <metaproperty tool="" name="meta.attr.0.stream.language">eng</metaproperty>
   <metaproperty tool="" name="meta.attr.1.stream.language">eng</metaproperty>
   <metaproperty tool="" name="meta.attr.compatible_brands">3gp43gp6</metaproperty>
   <metaproperty tool="" name="meta.attr.major_brand">3gp4</metaproperty>
   <metaproperty tool="" name="meta.attr.minor_version">768</metaproperty>
  </kdenlive_producer>
  <kdenlive_producer audio_max="63" id="127" pix_fmt="yuv420p" default_video="0" fps="30.0413" analysisdata="" name="video-2014-08-30-15-53-56.mp4" videocodecid="h264" colorspace="709" videocodec="H.264 / AVC / MPEG-4 AVC / MPEG-4 part 10" resource="/home/alex/Videos/EOTR Footage/video-2014-08-30-15-53-56.mp4" default_audio="1" audiocodec="AAC (Advanced Audio Coding)" duration="857" file_hash="913e2423240304cf51fa2dd7addaa350" aspect_ratio="1" channels="1" frequency="16000" video_max="0" progressive="1" type="3" frame_size="1920x1080" file_size="60967522">
   <metaproperty tool="" name="meta.attr.0.stream.language">eng</metaproperty>
   <metaproperty tool="" name="meta.attr.1.stream.language">eng</metaproperty>
   <metaproperty tool="" name="meta.attr.compatible_brands">3gp43gp6</metaproperty>
   <metaproperty tool="" name="meta.attr.major_brand">3gp4</metaproperty>
   <metaproperty tool="" name="meta.attr.minor_version">768</metaproperty>
  </kdenlive_producer>
  <kdenlive_producer audio_max="63" id="128" pix_fmt="yuv420p" default_video="0" fps="30.0405" analysisdata="" name="video-2014-08-30-15-59-39.mp4" videocodecid="h264" colorspace="709" videocodec="H.264 / AVC / MPEG-4 AVC / MPEG-4 part 10" resource="/home/alex/Videos/EOTR Footage/video-2014-08-30-15-59-39.mp4" default_audio="1" audiocodec="AAC (Advanced Audio Coding)" duration="837" file_hash="3fc5b7ad7a6f1cb130fe445f5b7bc74a" aspect_ratio="1" channels="1" frequency="16000" video_max="0" progressive="1" type="3" frame_size="1920x1080" file_size="59505260">
   <metaproperty tool="" name="meta.attr.0.stream.language">eng</metaproperty>
   <metaproperty tool="" name="meta.attr.1.stream.language">eng</metaproperty>
   <metaproperty tool="" name="meta.attr.compatible_brands">3gp43gp6</metaproperty>
   <metaproperty tool="" name="meta.attr.major_brand">3gp4</metaproperty>
   <metaproperty tool="" name="meta.attr.minor_version">768</metaproperty>
  </kdenlive_producer>
  <kdenlive_producer audio_max="63" id="129" pix_fmt="yuv420p" default_video="0" fps="30.0422" analysisdata="" name="video-2014-08-30-16-19-28.mp4" videocodecid="h264" colorspace="709" videocodec="H.264 / AVC / MPEG-4 AVC / MPEG-4 part 10" resource="/home/alex/Videos/EOTR Footage/video-2014-08-30-16-19-28.mp4" default_audio="1" audiocodec="AAC (Advanced Audio Coding)" duration="3844" file_hash="d3b8ecff0e9f2620a4ec83d7639a29f8" aspect_ratio="1" channels="1" frequency="16000" video_max="0" progressive="1" type="3" frame_size="1920x1080" file_size="273994105">
   <metaproperty tool="" name="meta.attr.0.stream.language">eng</metaproperty>
   <metaproperty tool="" name="meta.attr.1.stream.language">eng</metaproperty>
   <metaproperty tool="" name="meta.attr.compatible_brands">3gp43gp6</metaproperty>
   <metaproperty tool="" name="meta.attr.major_brand">3gp4</metaproperty>
   <metaproperty tool="" name="meta.attr.minor_version">768</metaproperty>
  </kdenlive_producer>
  <kdenlive_producer audio_max="41" id="130" pix_fmt="yuv420p" default_video="0" fps="30.0432" analysisdata="" name="video-2014-08-30-16-25-20.mp4" videocodecid="h264" colorspace="709" videocodec="H.264 / AVC / MPEG-4 AVC / MPEG-4 part 10" resource="/home/alex/Videos/EOTR Footage/video-2014-08-30-16-25-20.mp4" default_audio="1" audiocodec="AAC (Advanced Audio Coding)" duration="457" file_hash="987bbaa6331589aabc3a58941152ad32" aspect_ratio="1" channels="1" frequency="16000" video_max="0" progressive="1" type="3" frame_size="1920x1080" file_size="32642073">
   <metaproperty tool="" name="meta.attr.0.stream.language">eng</metaproperty>
   <metaproperty tool="" name="meta.attr.1.stream.language">eng</metaproperty>
   <metaproperty tool="" name="meta.attr.compatible_brands">3gp43gp6</metaproperty>
   <metaproperty tool="" name="meta.attr.major_brand">3gp4</metaproperty>
   <metaproperty tool="" name="meta.attr.minor_version">768</metaproperty>
  </kdenlive_producer>
  <kdenlive_producer audio_max="63" id="131" pix_fmt="yuv420p" default_video="0" fps="30.0417" analysisdata="" name="video-2014-08-30-16-25-41.mp4" videocodecid="h264" colorspace="709" videocodec="H.264 / AVC / MPEG-4 AVC / MPEG-4 part 10" resource="/home/alex/Videos/EOTR Footage/video-2014-08-30-16-25-41.mp4" default_audio="1" audiocodec="AAC (Advanced Audio Coding)" duration="934" file_hash="b94fe4a7819818967107001e931fa856" aspect_ratio="1" channels="1" frequency="16000" video_max="0" progressive="1" type="3" frame_size="1920x1080" file_size="66580892">
   <metaproperty tool="" name="meta.attr.0.stream.language">eng</metaproperty>
   <metaproperty tool="" name="meta.attr.1.stream.language">eng</metaproperty>
   <metaproperty tool="" name="meta.attr.compatible_brands">3gp43gp6</metaproperty>
   <metaproperty tool="" name="meta.attr.major_brand">3gp4</metaproperty>
   <metaproperty tool="" name="meta.attr.minor_version">768</metaproperty>
  </kdenlive_producer>
  <kdenlive_producer audio_max="63" id="132" pix_fmt="yuv420p" default_video="0" fps="30.037" analysisdata="" name="video-2014-08-30-16-54-03.mp4" videocodecid="h264" colorspace="709" videocodec="H.264 / AVC / MPEG-4 AVC / MPEG-4 part 10" resource="/home/alex/Videos/EOTR Footage/video-2014-08-30-16-54-03.mp4" default_audio="1" audiocodec="AAC (Advanced Audio Coding)" duration="259" file_hash="7d40ed199f8520beac391c07a518f308" aspect_ratio="1" channels="1" frequency="16000" video_max="0" progressive="1" type="3" frame_size="1920x1080" file_size="18376498">
   <metaproperty tool="" name="meta.attr.0.stream.language">eng</metaproperty>
   <metaproperty tool="" name="meta.attr.1.stream.language">eng</metaproperty>
   <metaproperty tool="" name="meta.attr.compatible_brands">3gp43gp6</metaproperty>
   <metaproperty tool="" name="meta.attr.major_brand">3gp4</metaproperty>
   <metaproperty tool="" name="meta.attr.minor_version">768</metaproperty>
  </kdenlive_producer>
  <kdenlive_producer audio_max="63" id="133" pix_fmt="yuv420p" default_video="0" fps="23.237" analysisdata="" name="video-2014-08-30-17-10-06.mp4" videocodecid="h264" colorspace="709" videocodec="H.264 / AVC / MPEG-4 AVC / MPEG-4 part 10" resource="/home/alex/Videos/EOTR Footage/video-2014-08-30-17-10-06.mp4" default_audio="1" audiocodec="AAC (Advanced Audio Coding)" duration="222" file_hash="8811cea7425b5b1b06ddf16eb19ddf37" aspect_ratio="1" channels="1" frequency="16000" video_max="0" progressive="1" type="3" frame_size="1920x1080" file_size="12132431">
   <metaproperty tool="" name="meta.attr.0.stream.language">eng</metaproperty>
   <metaproperty tool="" name="meta.attr.1.stream.language">eng</metaproperty>
   <metaproperty tool="" name="meta.attr.compatible_brands">3gp43gp6</metaproperty>
   <metaproperty tool="" name="meta.attr.major_brand">3gp4</metaproperty>
   <metaproperty tool="" name="meta.attr.minor_version">768</metaproperty>
  </kdenlive_producer>
  <kdenlive_producer audio_max="63" id="134" pix_fmt="yuv420p" default_video="0" fps="24.9163" analysisdata="" name="video-2014-08-30-17-10-16.mp4" videocodecid="h264" colorspace="709" videocodec="H.264 / AVC / MPEG-4 AVC / MPEG-4 part 10" resource="/home/alex/Videos/EOTR Footage/video-2014-08-30-17-10-16.mp4" default_audio="1" audiocodec="AAC (Advanced Audio Coding)" duration="564" file_hash="f89af961437aaf7bd673b8fe68767784" aspect_ratio="1" channels="1" frequency="16000" video_max="0" progressive="1" type="3" frame_size="1920x1080" file_size="33276052">
   <metaproperty tool="" name="meta.attr.0.stream.language">eng</metaproperty>
   <metaproperty tool="" name="meta.attr.1.stream.language">eng</metaproperty>
   <metaproperty tool="" name="meta.attr.compatible_brands">3gp43gp6</metaproperty>
   <metaproperty tool="" name="meta.attr.major_brand">3gp4</metaproperty>
   <metaproperty tool="" name="meta.attr.minor_version">768</metaproperty>
  </kdenlive_producer>
  <kdenlive_producer audio_max="63" id="135" pix_fmt="yuv420p" default_video="0" fps="22.3438" analysisdata="" name="video-2014-08-30-17-10-51.mp4" videocodecid="h264" colorspace="709" videocodec="H.264 / AVC / MPEG-4 AVC / MPEG-4 part 10" resource="/home/alex/Videos/EOTR Footage/video-2014-08-30-17-10-51.mp4" default_audio="1" audiocodec="AAC (Advanced Audio Coding)" duration="257" file_hash="acd5bf6f9a137db50462199058511f6c" aspect_ratio="1" channels="1" frequency="16000" video_max="0" progressive="1" type="3" frame_size="1920x1080" file_size="13606740">
   <metaproperty tool="" name="meta.attr.0.stream.language">eng</metaproperty>
   <metaproperty tool="" name="meta.attr.1.stream.language">eng</metaproperty>
   <metaproperty tool="" name="meta.attr.compatible_brands">3gp43gp6</metaproperty>
   <metaproperty tool="" name="meta.attr.major_brand">3gp4</metaproperty>
   <metaproperty tool="" name="meta.attr.minor_version">768</metaproperty>
  </kdenlive_producer>
  <kdenlive_producer audio_max="63" id="136" pix_fmt="yuv420p" default_video="0" fps="24.6876" analysisdata="" name="video-2014-08-30-17-34-10.mp4" videocodecid="h264" colorspace="709" videocodec="H.264 / AVC / MPEG-4 AVC / MPEG-4 part 10" resource="/home/alex/Videos/EOTR Footage/video-2014-08-30-17-34-10.mp4" default_audio="1" audiocodec="AAC (Advanced Audio Coding)" duration="1384" file_hash="3ba5a203308a555cfe43dd6c840fb5e8" aspect_ratio="1" channels="1" frequency="16000" video_max="0" progressive="1" type="3" frame_size="1920x1080" file_size="80681230">
   <metaproperty tool="" name="meta.attr.0.stream.language">eng</metaproperty>
   <metaproperty tool="" name="meta.attr.1.stream.language">eng</metaproperty>
   <metaproperty tool="" name="meta.attr.compatible_brands">3gp43gp6</metaproperty>
   <metaproperty tool="" name="meta.attr.major_brand">3gp4</metaproperty>
   <metaproperty tool="" name="meta.attr.minor_version">768</metaproperty>
  </kdenlive_producer>
  <kdenlive_producer audio_max="63" id="137" pix_fmt="yuv420p" default_video="0" fps="22.5754" analysisdata="" name="video-2014-08-30-17-38-51.mp4" videocodecid="h264" colorspace="709" videocodec="H.264 / AVC / MPEG-4 AVC / MPEG-4 part 10" resource="/home/alex/Videos/EOTR Footage/video-2014-08-30-17-38-51.mp4" default_audio="1" audiocodec="AAC (Advanced Audio Coding)" duration="331" file_hash="97f5ea2162669f8c457c232951ef4417" aspect_ratio="1" channels="1" frequency="16000" video_max="0" progressive="1" type="3" frame_size="1920x1080" file_size="17739355">
   <metaproperty tool="" name="meta.attr.0.stream.language">eng</metaproperty>
   <metaproperty tool="" name="meta.attr.1.stream.language">eng</metaproperty>
   <metaproperty tool="" name="meta.attr.compatible_brands">3gp43gp6</metaproperty>
   <metaproperty tool="" name="meta.attr.major_brand">3gp4</metaproperty>
   <metaproperty tool="" name="meta.attr.minor_version">768</metaproperty>
  </kdenlive_producer>
  <kdenlive_producer audio_max="63" id="138" pix_fmt="yuv420p" default_video="0" fps="24.588" analysisdata="" name="video-2014-08-30-17-39-05.mp4" videocodecid="h264" colorspace="709" videocodec="H.264 / AVC / MPEG-4 AVC / MPEG-4 part 10" resource="/home/alex/Videos/EOTR Footage/video-2014-08-30-17-39-05.mp4" default_audio="1" audiocodec="AAC (Advanced Audio Coding)" duration="340" file_hash="db61e72e66cdc6a37b1045cb2a8ca1dd" aspect_ratio="1" channels="1" frequency="16000" video_max="0" progressive="1" type="3" frame_size="1920x1080" file_size="19795883">
   <metaproperty tool="" name="meta.attr.0.stream.language">eng</metaproperty>
   <metaproperty tool="" name="meta.attr.1.stream.language">eng</metaproperty>
   <metaproperty tool="" name="meta.attr.compatible_brands">3gp43gp6</metaproperty>
   <metaproperty tool="" name="meta.attr.major_brand">3gp4</metaproperty>
   <metaproperty tool="" name="meta.attr.minor_version">768</metaproperty>
  </kdenlive_producer>
  <kdenlive_producer audio_max="63" id="139" pix_fmt="yuv420p" default_video="0" fps="30.0389" analysisdata="" name="video-2014-08-30-18-53-21.mp4" videocodecid="h264" colorspace="709" videocodec="H.264 / AVC / MPEG-4 AVC / MPEG-4 part 10" resource="/home/alex/Videos/EOTR Footage/video-2014-08-30-18-53-21.mp4" default_audio="1" audiocodec="AAC (Advanced Audio Coding)" duration="1447" file_hash="312d64b0080271d720e013c522568bc0" aspect_ratio="1" channels="1" frequency="16000" video_max="0" progressive="1" type="3" frame_size="1920x1080" file_size="103113360">
   <metaproperty tool="" name="meta.attr.0.stream.language">eng</metaproperty>
   <metaproperty tool="" name="meta.attr.1.stream.language">eng</metaproperty>
   <metaproperty tool="" name="meta.attr.compatible_brands">3gp43gp6</metaproperty>
   <metaproperty tool="" name="meta.attr.major_brand">3gp4</metaproperty>
   <metaproperty tool="" name="meta.attr.minor_version">768</metaproperty>
  </kdenlive_producer>
  <kdenlive_producer audio_max="63" id="140" pix_fmt="yuv420p" default_video="0" fps="30.0428" analysisdata="" name="video-2014-08-30-19-02-35.mp4" videocodecid="h264" colorspace="709" videocodec="H.264 / AVC / MPEG-4 AVC / MPEG-4 part 10" resource="/home/alex/Videos/EOTR Footage/video-2014-08-30-19-02-35.mp4" default_audio="1" audiocodec="AAC (Advanced Audio Coding)" duration="1898" file_hash="0e0830ed9011154897c93b1ec73604fd" aspect_ratio="1" channels="1" frequency="16000" video_max="0" progressive="1" type="3" frame_size="1920x1080" file_size="135219344">
   <metaproperty tool="" name="meta.attr.0.stream.language">eng</metaproperty>
   <metaproperty tool="" name="meta.attr.1.stream.language">eng</metaproperty>
   <metaproperty tool="" name="meta.attr.compatible_brands">3gp43gp6</metaproperty>
   <metaproperty tool="" name="meta.attr.major_brand">3gp4</metaproperty>
   <metaproperty tool="" name="meta.attr.minor_version">768</metaproperty>
  </kdenlive_producer>
  <kdenlive_producer audio_max="63" id="141" pix_fmt="yuv420p" default_video="0" fps="30.0424" analysisdata="" name="video-2014-08-30-19-33-57.mp4" videocodecid="h264" colorspace="709" videocodec="H.264 / AVC / MPEG-4 AVC / MPEG-4 part 10" resource="/home/alex/Videos/EOTR Footage/video-2014-08-30-19-33-57.mp4" default_audio="1" audiocodec="AAC (Advanced Audio Coding)" duration="1449" file_hash="8b3a0134daceef50ee375b866d2dc793" aspect_ratio="1" channels="1" frequency="16000" video_max="0" progressive="1" type="3" frame_size="1920x1080" file_size="103246455">
   <metaproperty tool="" name="meta.attr.0.stream.language">eng</metaproperty>
   <metaproperty tool="" name="meta.attr.1.stream.language">eng</metaproperty>
   <metaproperty tool="" name="meta.attr.compatible_brands">3gp43gp6</metaproperty>
   <metaproperty tool="" name="meta.attr.major_brand">3gp4</metaproperty>
   <metaproperty tool="" name="meta.attr.minor_version">768</metaproperty>
  </kdenlive_producer>
  <kdenlive_producer audio_max="63" id="142" pix_fmt="yuv420p" default_video="0" fps="29.9749" analysisdata="" name="video-2014-08-30-19-34-55.mp4" videocodecid="h264" colorspace="709" videocodec="H.264 / AVC / MPEG-4 AVC / MPEG-4 part 10" resource="/home/alex/Videos/EOTR Footage/video-2014-08-30-19-34-55.mp4" default_audio="1" audiocodec="AAC (Advanced Audio Coding)" duration="453" file_hash="dc717db7315e62a23b9d5e1dae2983cd" aspect_ratio="1" channels="1" frequency="16000" video_max="0" progressive="1" type="3" frame_size="1920x1080" file_size="32107079">
   <metaproperty tool="" name="meta.attr.0.stream.language">eng</metaproperty>
   <metaproperty tool="" name="meta.attr.1.stream.language">eng</metaproperty>
   <metaproperty tool="" name="meta.attr.compatible_brands">3gp43gp6</metaproperty>
   <metaproperty tool="" name="meta.attr.major_brand">3gp4</metaproperty>
   <metaproperty tool="" name="meta.attr.minor_version">768</metaproperty>
  </kdenlive_producer>
  <kdenlive_producer audio_max="63" id="143" pix_fmt="yuv420p" default_video="0" fps="30.0443" analysisdata="" name="video-2014-08-30-19-41-09.mp4" videocodecid="h264" colorspace="709" videocodec="H.264 / AVC / MPEG-4 AVC / MPEG-4 part 10" resource="/home/alex/Videos/EOTR Footage/video-2014-08-30-19-41-09.mp4" default_audio="1" audiocodec="AAC (Advanced Audio Coding)" duration="845" file_hash="8921c02bfe8a7b8f1fd9333343bfe07c" aspect_ratio="1" channels="1" frequency="16000" video_max="0" progressive="1" type="3" frame_size="1920x1080" file_size="60246333">
   <metaproperty tool="" name="meta.attr.0.stream.language">eng</metaproperty>
   <metaproperty tool="" name="meta.attr.1.stream.language">eng</metaproperty>
   <metaproperty tool="" name="meta.attr.compatible_brands">3gp43gp6</metaproperty>
   <metaproperty tool="" name="meta.attr.major_brand">3gp4</metaproperty>
   <metaproperty tool="" name="meta.attr.minor_version">768</metaproperty>
  </kdenlive_producer>
  <kdenlive_producer audio_max="63" id="144" pix_fmt="yuv420p" default_video="0" fps="27.6789" analysisdata="" name="video-2014-08-30-19-47-36.mp4" videocodecid="h264" colorspace="709" videocodec="H.264 / AVC / MPEG-4 AVC / MPEG-4 part 10" resource="/home/alex/Videos/EOTR Footage/video-2014-08-30-19-47-36.mp4" default_audio="1" audiocodec="AAC (Advanced Audio Coding)" duration="1784" file_hash="54c3e054a762619e74022c16d75b1176" aspect_ratio="1" channels="1" frequency="16000" video_max="0" progressive="1" type="3" frame_size="1920x1080" file_size="117090855">
   <metaproperty tool="" name="meta.attr.0.stream.language">eng</metaproperty>
   <metaproperty tool="" name="meta.attr.1.stream.language">eng</metaproperty>
   <metaproperty tool="" name="meta.attr.compatible_brands">3gp43gp6</metaproperty>
   <metaproperty tool="" name="meta.attr.major_brand">3gp4</metaproperty>
   <metaproperty tool="" name="meta.attr.minor_version">768</metaproperty>
  </kdenlive_producer>
  <kdenlive_producer audio_max="63" id="145" pix_fmt="yuv420p" default_video="0" fps="30.0401" analysisdata="" name="video-2014-08-30-19-57-12.mp4" videocodecid="h264" colorspace="709" videocodec="H.264 / AVC / MPEG-4 AVC / MPEG-4 part 10" resource="/home/alex/Videos/EOTR Footage/video-2014-08-30-19-57-12.mp4" default_audio="1" audiocodec="AAC (Advanced Audio Coding)" duration="314" file_hash="d1ccff63c30e8c4242fad8158b4f7297" aspect_ratio="1" channels="1" frequency="16000" video_max="0" progressive="1" type="3" frame_size="1920x1080" file_size="22303284">
   <metaproperty tool="" name="meta.attr.0.stream.language">eng</metaproperty>
   <metaproperty tool="" name="meta.attr.1.stream.language">eng</metaproperty>
   <metaproperty tool="" name="meta.attr.compatible_brands">3gp43gp6</metaproperty>
   <metaproperty tool="" name="meta.attr.major_brand">3gp4</metaproperty>
   <metaproperty tool="" name="meta.attr.minor_version">768</metaproperty>
  </kdenlive_producer>
  <kdenlive_producer audio_max="61" id="146" pix_fmt="yuv420p" default_video="0" fps="24.3637" analysisdata="" name="video-2014-08-30-22-44-48.mp4" videocodecid="h264" colorspace="709" videocodec="H.264 / AVC / MPEG-4 AVC / MPEG-4 part 10" resource="/home/alex/Videos/EOTR Footage/video-2014-08-30-22-44-48.mp4" default_audio="1" audiocodec="AAC (Advanced Audio Coding)" duration="1323" file_hash="fc57404b6e535f0796abe28216231b2f" aspect_ratio="1" channels="1" frequency="16000" video_max="0" progressive="1" type="3" frame_size="1920x1080" file_size="72572940">
   <metaproperty tool="" name="meta.attr.0.stream.language">eng</metaproperty>
   <metaproperty tool="" name="meta.attr.1.stream.language">eng</metaproperty>
   <metaproperty tool="" name="meta.attr.compatible_brands">3gp43gp6</metaproperty>
   <metaproperty tool="" name="meta.attr.major_brand">3gp4</metaproperty>
   <metaproperty tool="" name="meta.attr.minor_version">768</metaproperty>
  </kdenlive_producer>
  <kdenlive_producer audio_max="34" id="147" pix_fmt="yuv420p" default_video="1" fps="22.4898" analysisdata="" name="video-2014-08-30-22-48-14.mp4" videocodecid="h264" thumbnail="100" colorspace="709" videocodec="H.264 / AVC / MPEG-4 AVC / MPEG-4 part 10" resource="/home/alex/Videos/EOTR Footage/video-2014-08-30-22-48-14.mp4" default_audio="0" audiocodec="AAC (Advanced Audio Coding)" duration="471" file_hash="a2e1ab3043a9b39858855bae125697ca" aspect_ratio="1" channels="1" frequency="16000" video_max="1" progressive="1" type="3" frame_size="1920x1080" file_size="24838951">
   <metaproperty tool="" name="meta.attr.0.stream.language">eng</metaproperty>
   <metaproperty tool="" name="meta.attr.1.stream.language">eng</metaproperty>
   <metaproperty tool="" name="meta.attr.compatible_brands">3gp43gp6</metaproperty>
   <metaproperty tool="" name="meta.attr.major_brand">3gp4</metaproperty>
   <metaproperty tool="" name="meta.attr.minor_version">768</metaproperty>
  </kdenlive_producer>
  <kdenlive_producer audio_max="63" id="148" pix_fmt="yuv420p" default_video="0" fps="24.6142" analysisdata="" name="video-2014-08-30-23-51-27.mp4" videocodecid="h264" colorspace="709" videocodec="H.264 / AVC / MPEG-4 AVC / MPEG-4 part 10" resource="/home/alex/Videos/EOTR Footage/video-2014-08-30-23-51-27.mp4" default_audio="1" audiocodec="AAC (Advanced Audio Coding)" duration="675" file_hash="4aa8d2c758dd0a25fcff6c6b101c935a" aspect_ratio="1" channels="1" frequency="16000" video_max="0" progressive="1" type="3" frame_size="1920x1080" file_size="39444013">
   <metaproperty tool="" name="meta.attr.0.stream.language">eng</metaproperty>
   <metaproperty tool="" name="meta.attr.1.stream.language">eng</metaproperty>
   <metaproperty tool="" name="meta.attr.compatible_brands">3gp43gp6</metaproperty>
   <metaproperty tool="" name="meta.attr.major_brand">3gp4</metaproperty>
   <metaproperty tool="" name="meta.attr.minor_version">768</metaproperty>
  </kdenlive_producer>
  <kdenlive_producer audio_max="63" id="149" pix_fmt="yuv420p" default_video="0" fps="30.0426" analysisdata="" name="video-2014-08-31-11-30-43.mp4" videocodecid="h264" colorspace="709" videocodec="H.264 / AVC / MPEG-4 AVC / MPEG-4 part 10" resource="/home/alex/Videos/EOTR Footage/video-2014-08-31-11-30-43.mp4" default_audio="1" audiocodec="AAC (Advanced Audio Coding)" duration="725" file_hash="a2df123a220ddd0f96e5502c7b53c3cc" aspect_ratio="1" channels="1" frequency="16000" video_max="0" progressive="1" type="3" frame_size="1920x1080" file_size="50989537">
   <metaproperty tool="" name="meta.attr.0.stream.language">eng</metaproperty>
   <metaproperty tool="" name="meta.attr.1.stream.language">eng</metaproperty>
   <metaproperty tool="" name="meta.attr.compatible_brands">3gp43gp6</metaproperty>
   <metaproperty tool="" name="meta.attr.major_brand">3gp4</metaproperty>
   <metaproperty tool="" name="meta.attr.minor_version">768</metaproperty>
  </kdenlive_producer>
  <kdenlive_producer audio_max="63" id="150" pix_fmt="yuv420p" default_video="0" fps="30.0439" analysisdata="" name="video-2014-08-31-11-50-16.mp4" videocodecid="h264" colorspace="709" videocodec="H.264 / AVC / MPEG-4 AVC / MPEG-4 part 10" resource="/home/alex/Videos/EOTR Footage/video-2014-08-31-11-50-16.mp4" default_audio="1" audiocodec="AAC (Advanced Audio Coding)" duration="389" file_hash="3caaefdc9a61af4b96907acca72b24f9" aspect_ratio="1" channels="1" frequency="16000" video_max="0" progressive="1" type="3" frame_size="1920x1080" file_size="27593413">
   <metaproperty tool="" name="meta.attr.0.stream.language">eng</metaproperty>
   <metaproperty tool="" name="meta.attr.1.stream.language">eng</metaproperty>
   <metaproperty tool="" name="meta.attr.compatible_brands">3gp43gp6</metaproperty>
   <metaproperty tool="" name="meta.attr.major_brand">3gp4</metaproperty>
   <metaproperty tool="" name="meta.attr.minor_version">768</metaproperty>
  </kdenlive_producer>
  <kdenlive_producer audio_max="54" id="151" pix_fmt="yuv420p" default_video="0" fps="30.0434" analysisdata="" name="video-2014-08-31-11-52-58.mp4" videocodecid="h264" colorspace="709" videocodec="H.264 / AVC / MPEG-4 AVC / MPEG-4 part 10" resource="/home/alex/Videos/EOTR Footage/video-2014-08-31-11-52-58.mp4" default_audio="1" audiocodec="AAC (Advanced Audio Coding)" duration="566" file_hash="f7027df2b78289bcb256c1f12f869239" aspect_ratio="1" channels="1" frequency="16000" video_max="0" progressive="1" type="3" frame_size="1920x1080" file_size="40272024">
   <metaproperty tool="" name="meta.attr.0.stream.language">eng</metaproperty>
   <metaproperty tool="" name="meta.attr.1.stream.language">eng</metaproperty>
   <metaproperty tool="" name="meta.attr.compatible_brands">3gp43gp6</metaproperty>
   <metaproperty tool="" name="meta.attr.major_brand">3gp4</metaproperty>
   <metaproperty tool="" name="meta.attr.minor_version">768</metaproperty>
  </kdenlive_producer>
  <kdenlive_producer audio_max="63" id="152" pix_fmt="yuv420p" default_video="0" fps="30.0321" analysisdata="" name="video-2014-08-31-11-54-58.mp4" videocodecid="h264" colorspace="709" videocodec="H.264 / AVC / MPEG-4 AVC / MPEG-4 part 10" resource="/home/alex/Videos/EOTR Footage/video-2014-08-31-11-54-58.mp4" default_audio="1" audiocodec="AAC (Advanced Audio Coding)" duration="710" file_hash="26a43cb7925d0bc5504b3d3b2072f9a1" aspect_ratio="1" channels="1" frequency="16000" video_max="0" progressive="1" type="3" frame_size="1920x1080" file_size="50526655">
   <metaproperty tool="" name="meta.attr.0.stream.language">eng</metaproperty>
   <metaproperty tool="" name="meta.attr.1.stream.language">eng</metaproperty>
   <metaproperty tool="" name="meta.attr.compatible_brands">3gp43gp6</metaproperty>
   <metaproperty tool="" name="meta.attr.major_brand">3gp4</metaproperty>
   <metaproperty tool="" name="meta.attr.minor_version">768</metaproperty>
  </kdenlive_producer>
  <kdenlive_producer audio_max="63" id="153" pix_fmt="yuv420p" default_video="0" fps="30.0455" analysisdata="" name="video-2014-08-31-11-55-42.mp4" videocodecid="h264" colorspace="709" videocodec="H.264 / AVC / MPEG-4 AVC / MPEG-4 part 10" resource="/home/alex/Videos/EOTR Footage/video-2014-08-31-11-55-42.mp4" default_audio="1" audiocodec="AAC (Advanced Audio Coding)" duration="1093" file_hash="4134f314a2ff292cd74887792f375bf3" aspect_ratio="1" channels="1" frequency="16000" video_max="0" progressive="1" type="3" frame_size="1920x1080" file_size="77871937">
   <metaproperty tool="" name="meta.attr.0.stream.language">eng</metaproperty>
   <metaproperty tool="" name="meta.attr.1.stream.language">eng</metaproperty>
   <metaproperty tool="" name="meta.attr.compatible_brands">3gp43gp6</metaproperty>
   <metaproperty tool="" name="meta.attr.major_brand">3gp4</metaproperty>
   <metaproperty tool="" name="meta.attr.minor_version">768</metaproperty>
  </kdenlive_producer>
  <kdenlive_producer audio_max="62" id="154" pix_fmt="yuv420p" default_video="0" fps="29.9808" analysisdata="" name="video-2014-08-31-11-59-28.mp4" videocodecid="h264" colorspace="709" videocodec="H.264 / AVC / MPEG-4 AVC / MPEG-4 part 10" resource="/home/alex/Videos/EOTR Footage/video-2014-08-31-11-59-28.mp4" default_audio="1" audiocodec="AAC (Advanced Audio Coding)" duration="498" file_hash="69200561b3ac55214ea33e60eb8b81c6" aspect_ratio="1" channels="1" frequency="16000" video_max="0" progressive="1" type="3" frame_size="1920x1080" file_size="35419050">
   <metaproperty tool="" name="meta.attr.0.stream.language">eng</metaproperty>
   <metaproperty tool="" name="meta.attr.1.stream.language">eng</metaproperty>
   <metaproperty tool="" name="meta.attr.compatible_brands">3gp43gp6</metaproperty>
   <metaproperty tool="" name="meta.attr.major_brand">3gp4</metaproperty>
   <metaproperty tool="" name="meta.attr.minor_version">768</metaproperty>
  </kdenlive_producer>
  <kdenlive_producer audio_max="63" id="155" pix_fmt="yuv420p" default_video="0" fps="30.0428" analysisdata="" name="video-2014-08-31-12-12-08.mp4" videocodecid="h264" colorspace="709" videocodec="H.264 / AVC / MPEG-4 AVC / MPEG-4 part 10" resource="/home/alex/Videos/EOTR Footage/video-2014-08-31-12-12-08.mp4" default_audio="1" audiocodec="AAC (Advanced Audio Coding)" duration="1190" file_hash="5af27fcaf76e39774117117e8abf752f" aspect_ratio="1" channels="1" frequency="16000" video_max="0" progressive="1" type="3" frame_size="1920x1080" file_size="84771450">
   <metaproperty tool="" name="meta.attr.0.stream.language">eng</metaproperty>
   <metaproperty tool="" name="meta.attr.1.stream.language">eng</metaproperty>
   <metaproperty tool="" name="meta.attr.compatible_brands">3gp43gp6</metaproperty>
   <metaproperty tool="" name="meta.attr.major_brand">3gp4</metaproperty>
   <metaproperty tool="" name="meta.attr.minor_version">768</metaproperty>
  </kdenlive_producer>
  <kdenlive_producer audio_max="63" id="156" pix_fmt="yuv420p" default_video="0" fps="29.9978" analysisdata="" name="video-2014-08-31-12-13-31.mp4" videocodecid="h264" colorspace="709" videocodec="H.264 / AVC / MPEG-4 AVC / MPEG-4 part 10" resource="/home/alex/Videos/EOTR Footage/video-2014-08-31-12-13-31.mp4" default_audio="1" audiocodec="AAC (Advanced Audio Coding)" duration="693" file_hash="7651e7fe96cb046b7eb2e818fe5b228a" aspect_ratio="1" channels="1" frequency="16000" video_max="0" progressive="1" type="3" frame_size="1920x1080" file_size="49332388">
   <metaproperty tool="" name="meta.attr.0.stream.language">eng</metaproperty>
   <metaproperty tool="" name="meta.attr.1.stream.language">eng</metaproperty>
   <metaproperty tool="" name="meta.attr.compatible_brands">3gp43gp6</metaproperty>
   <metaproperty tool="" name="meta.attr.major_brand">3gp4</metaproperty>
   <metaproperty tool="" name="meta.attr.minor_version">768</metaproperty>
  </kdenlive_producer>
  <kdenlive_producer audio_max="58" id="157" pix_fmt="yuv420p" default_video="0" fps="30.0522" analysisdata="" name="video-2014-08-31-12-15-13.mp4" videocodecid="h264" colorspace="709" videocodec="H.264 / AVC / MPEG-4 AVC / MPEG-4 part 10" resource="/home/alex/Videos/EOTR Footage/video-2014-08-31-12-15-13.mp4" default_audio="1" audiocodec="AAC (Advanced Audio Coding)" duration="333" file_hash="f705d894c0dcf14613419dad213626c2" aspect_ratio="1" channels="1" frequency="16000" video_max="0" progressive="1" type="3" frame_size="1920x1080" file_size="23729190">
   <metaproperty tool="" name="meta.attr.0.stream.language">eng</metaproperty>
   <metaproperty tool="" name="meta.attr.1.stream.language">eng</metaproperty>
   <metaproperty tool="" name="meta.attr.compatible_brands">3gp43gp6</metaproperty>
   <metaproperty tool="" name="meta.attr.major_brand">3gp4</metaproperty>
   <metaproperty tool="" name="meta.attr.minor_version">768</metaproperty>
  </kdenlive_producer>
  <kdenlive_producer audio_max="63" id="158" pix_fmt="yuv420p" default_video="0" fps="30.0482" analysisdata="" name="video-2014-08-31-12-15-32.mp4" videocodecid="h264" colorspace="709" videocodec="H.264 / AVC / MPEG-4 AVC / MPEG-4 part 10" resource="/home/alex/Videos/EOTR Footage/video-2014-08-31-12-15-32.mp4" default_audio="1" audiocodec="AAC (Advanced Audio Coding)" duration="441" file_hash="f4ad66aca7e29256935c47c844e42e7a" aspect_ratio="1" channels="1" frequency="16000" video_max="0" progressive="1" type="3" frame_size="1920x1080" file_size="31453716">
   <metaproperty tool="" name="meta.attr.0.stream.language">eng</metaproperty>
   <metaproperty tool="" name="meta.attr.1.stream.language">eng</metaproperty>
   <metaproperty tool="" name="meta.attr.compatible_brands">3gp43gp6</metaproperty>
   <metaproperty tool="" name="meta.attr.major_brand">3gp4</metaproperty>
   <metaproperty tool="" name="meta.attr.minor_version">768</metaproperty>
  </kdenlive_producer>
  <kdenlive_producer audio_max="63" id="159" pix_fmt="yuv420p" default_video="0" fps="30.0429" analysisdata="" name="video-2014-08-31-12-19-27.mp4" videocodecid="h264" colorspace="709" videocodec="H.264 / AVC / MPEG-4 AVC / MPEG-4 part 10" resource="/home/alex/Videos/EOTR Footage/video-2014-08-31-12-19-27.mp4" default_audio="1" audiocodec="AAC (Advanced Audio Coding)" duration="1986" file_hash="70ca52d19ff6597c802e8f94933075c7" aspect_ratio="1" channels="1" frequency="16000" video_max="0" progressive="1" type="3" frame_size="1920x1080" file_size="141537338">
   <metaproperty tool="" name="meta.attr.0.stream.language">eng</metaproperty>
   <metaproperty tool="" name="meta.attr.1.stream.language">eng</metaproperty>
   <metaproperty tool="" name="meta.attr.compatible_brands">3gp43gp6</metaproperty>
   <metaproperty tool="" name="meta.attr.major_brand">3gp4</metaproperty>
   <metaproperty tool="" name="meta.attr.minor_version">768</metaproperty>
  </kdenlive_producer>
  <kdenlive_producer audio_max="51" id="160" pix_fmt="yuv420p" default_video="0" fps="30.0425" analysisdata="" name="video-2014-08-31-12-24-18.mp4" videocodecid="h264" colorspace="709" videocodec="H.264 / AVC / MPEG-4 AVC / MPEG-4 part 10" resource="/home/alex/Videos/EOTR Footage/video-2014-08-31-12-24-18.mp4" default_audio="1" audiocodec="AAC (Advanced Audio Coding)" duration="662" file_hash="757f00cef8c7b64ad2d106a79d248394" aspect_ratio="1" channels="1" frequency="16000" video_max="0" progressive="1" type="3" frame_size="1920x1080" file_size="47180237">
   <metaproperty tool="" name="meta.attr.0.stream.language">eng</metaproperty>
   <metaproperty tool="" name="meta.attr.1.stream.language">eng</metaproperty>
   <metaproperty tool="" name="meta.attr.compatible_brands">3gp43gp6</metaproperty>
   <metaproperty tool="" name="meta.attr.major_brand">3gp4</metaproperty>
   <metaproperty tool="" name="meta.attr.minor_version">768</metaproperty>
  </kdenlive_producer>
  <kdenlive_producer audio_max="63" id="161" pix_fmt="yuv420p" default_video="0" fps="30.0459" analysisdata="" name="video-2014-08-31-13-15-14.mp4" videocodecid="h264" colorspace="709" videocodec="H.264 / AVC / MPEG-4 AVC / MPEG-4 part 10" resource="/home/alex/Videos/EOTR Footage/video-2014-08-31-13-15-14.mp4" default_audio="1" audiocodec="AAC (Advanced Audio Coding)" duration="476" file_hash="f422f57b38758e474b1091be7a3e73bb" aspect_ratio="1" channels="1" frequency="16000" video_max="0" progressive="1" type="3" frame_size="1920x1080" file_size="33846869">
   <metaproperty tool="" name="meta.attr.0.stream.language">eng</metaproperty>
   <metaproperty tool="" name="meta.attr.1.stream.language">eng</metaproperty>
   <metaproperty tool="" name="meta.attr.compatible_brands">3gp43gp6</metaproperty>
   <metaproperty tool="" name="meta.attr.major_brand">3gp4</metaproperty>
   <metaproperty tool="" name="meta.attr.minor_version">768</metaproperty>
  </kdenlive_producer>
  <kdenlive_producer audio_max="63" id="162" pix_fmt="yuv420p" default_video="0" fps="30.0251" analysisdata="" name="video-2014-08-31-13-15-34.mp4" videocodecid="h264" colorspace="709" videocodec="H.264 / AVC / MPEG-4 AVC / MPEG-4 part 10" resource="/home/alex/Videos/EOTR Footage/video-2014-08-31-13-15-34.mp4" default_audio="1" audiocodec="AAC (Advanced Audio Coding)" duration="238" file_hash="080e451e96ebc06764376f6e6e34117f" aspect_ratio="1" channels="1" frequency="16000" video_max="0" progressive="1" type="3" frame_size="1920x1080" file_size="16835322">
   <metaproperty tool="" name="meta.attr.0.stream.language">eng</metaproperty>
   <metaproperty tool="" name="meta.attr.1.stream.language">eng</metaproperty>
   <metaproperty tool="" name="meta.attr.compatible_brands">3gp43gp6</metaproperty>
   <metaproperty tool="" name="meta.attr.major_brand">3gp4</metaproperty>
   <metaproperty tool="" name="meta.attr.minor_version">768</metaproperty>
  </kdenlive_producer>
  <kdenlive_producer audio_max="63" id="163" pix_fmt="yuv420p" default_video="0" fps="30.0406" analysisdata="" name="video-2014-08-31-13-16-11.mp4" videocodecid="h264" colorspace="709" videocodec="H.264 / AVC / MPEG-4 AVC / MPEG-4 part 10" resource="/home/alex/Videos/EOTR Footage/video-2014-08-31-13-16-11.mp4" default_audio="1" audiocodec="AAC (Advanced Audio Coding)" duration="494" file_hash="0a138df18e711c23feb91faa6c0634dc" aspect_ratio="1" channels="1" frequency="16000" video_max="0" progressive="1" type="3" frame_size="1920x1080" file_size="35185060">
   <metaproperty tool="" name="meta.attr.0.stream.language">eng</metaproperty>
   <metaproperty tool="" name="meta.attr.1.stream.language">eng</metaproperty>
   <metaproperty tool="" name="meta.attr.compatible_brands">3gp43gp6</metaproperty>
   <metaproperty tool="" name="meta.attr.major_brand">3gp4</metaproperty>
   <metaproperty tool="" name="meta.attr.minor_version">768</metaproperty>
  </kdenlive_producer>
  <kdenlive_producer audio_max="63" id="164" pix_fmt="yuv420p" default_video="0" fps="30.0406" analysisdata="" name="video-2014-08-31-13-34-19.mp4" videocodecid="h264" colorspace="709" videocodec="H.264 / AVC / MPEG-4 AVC / MPEG-4 part 10" resource="/home/alex/Videos/EOTR Footage/video-2014-08-31-13-34-19.mp4" default_audio="1" audiocodec="AAC (Advanced Audio Coding)" duration="619" file_hash="a852a6b4507165feaa55aff8935840ce" aspect_ratio="1" channels="1" frequency="16000" video_max="0" progressive="1" type="3" frame_size="1920x1080" file_size="44056446">
   <metaproperty tool="" name="meta.attr.0.stream.language">eng</metaproperty>
   <metaproperty tool="" name="meta.attr.1.stream.language">eng</metaproperty>
   <metaproperty tool="" name="meta.attr.compatible_brands">3gp43gp6</metaproperty>
   <metaproperty tool="" name="meta.attr.major_brand">3gp4</metaproperty>
   <metaproperty tool="" name="meta.attr.minor_version">768</metaproperty>
  </kdenlive_producer>
  <kdenlive_producer audio_max="29" id="165" pix_fmt="yuv420p" default_video="0" fps="30.035" analysisdata="" name="video-2014-08-31-14-01-16.mp4" videocodecid="h264" colorspace="709" videocodec="H.264 / AVC / MPEG-4 AVC / MPEG-4 part 10" resource="/home/alex/Videos/EOTR Footage/video-2014-08-31-14-01-16.mp4" default_audio="1" audiocodec="AAC (Advanced Audio Coding)" duration="162" file_hash="abd462340a94403015b29580aa4e8273" aspect_ratio="1" channels="1" frequency="16000" video_max="0" progressive="1" type="3" frame_size="1920x1080" file_size="11523477">
   <metaproperty tool="" name="meta.attr.0.stream.language">eng</metaproperty>
   <metaproperty tool="" name="meta.attr.1.stream.language">eng</metaproperty>
   <metaproperty tool="" name="meta.attr.compatible_brands">3gp43gp6</metaproperty>
   <metaproperty tool="" name="meta.attr.major_brand">3gp4</metaproperty>
   <metaproperty tool="" name="meta.attr.minor_version">768</metaproperty>
  </kdenlive_producer>
  <kdenlive_producer audio_max="44" id="166" pix_fmt="yuv420p" default_video="0" fps="29.4954" analysisdata="" name="video-2014-08-31-14-04-47.mp4" videocodecid="h264" colorspace="709" videocodec="H.264 / AVC / MPEG-4 AVC / MPEG-4 part 10" resource="/home/alex/Videos/EOTR Footage/video-2014-08-31-14-04-47.mp4" default_audio="1" audiocodec="AAC (Advanced Audio Coding)" duration="1064" file_hash="706cfc3e8cf82c0189f189045e9fb2b4" aspect_ratio="1" channels="1" frequency="16000" video_max="0" progressive="1" type="3" frame_size="1920x1080" file_size="74430731">
   <metaproperty tool="" name="meta.attr.0.stream.language">eng</metaproperty>
   <metaproperty tool="" name="meta.attr.1.stream.language">eng</metaproperty>
   <metaproperty tool="" name="meta.attr.compatible_brands">3gp43gp6</metaproperty>
   <metaproperty tool="" name="meta.attr.major_brand">3gp4</metaproperty>
   <metaproperty tool="" name="meta.attr.minor_version">768</metaproperty>
  </kdenlive_producer>
  <kdenlive_producer audio_max="63" id="167" pix_fmt="yuv420p" default_video="0" fps="30.0469" analysisdata="" name="video-2014-08-31-14-24-52.mp4" videocodecid="h264" colorspace="709" videocodec="H.264 / AVC / MPEG-4 AVC / MPEG-4 part 10" resource="/home/alex/Videos/EOTR Footage/video-2014-08-31-14-24-52.mp4" default_audio="1" audiocodec="AAC (Advanced Audio Coding)" duration="510" file_hash="2ad60117ac30edf8fe2b175bee3ce47b" aspect_ratio="1" channels="1" frequency="16000" video_max="0" progressive="1" type="3" frame_size="1920x1080" file_size="36386838">
   <metaproperty tool="" name="meta.attr.0.stream.language">eng</metaproperty>
   <metaproperty tool="" name="meta.attr.1.stream.language">eng</metaproperty>
   <metaproperty tool="" name="meta.attr.compatible_brands">3gp43gp6</metaproperty>
   <metaproperty tool="" name="meta.attr.major_brand">3gp4</metaproperty>
   <metaproperty tool="" name="meta.attr.minor_version">768</metaproperty>
  </kdenlive_producer>
  <kdenlive_producer audio_max="63" id="168" pix_fmt="yuv420p" default_video="0" fps="30.0435" analysisdata="" name="video-2014-08-31-15-30-37.mp4" videocodecid="h264" colorspace="709" videocodec="H.264 / AVC / MPEG-4 AVC / MPEG-4 part 10" resource="/home/alex/Videos/EOTR Footage/video-2014-08-31-15-30-37.mp4" default_audio="1" audiocodec="AAC (Advanced Audio Coding)" duration="213" file_hash="afdf8ac6a709cbd4d9f61c683a3d86ae" aspect_ratio="1" channels="1" frequency="16000" video_max="0" progressive="1" type="3" frame_size="1920x1080" file_size="15165691">
   <metaproperty tool="" name="meta.attr.0.stream.language">eng</metaproperty>
   <metaproperty tool="" name="meta.attr.1.stream.language">eng</metaproperty>
   <metaproperty tool="" name="meta.attr.compatible_brands">3gp43gp6</metaproperty>
   <metaproperty tool="" name="meta.attr.major_brand">3gp4</metaproperty>
   <metaproperty tool="" name="meta.attr.minor_version">768</metaproperty>
  </kdenlive_producer>
  <kdenlive_producer audio_max="63" id="169" pix_fmt="yuv420p" default_video="0" fps="30.0408" analysisdata="" name="video-2014-08-31-15-36-21.mp4" videocodecid="h264" colorspace="709" videocodec="H.264 / AVC / MPEG-4 AVC / MPEG-4 part 10" resource="/home/alex/Videos/EOTR Footage/video-2014-08-31-15-36-21.mp4" default_audio="1" audiocodec="AAC (Advanced Audio Coding)" duration="741" file_hash="8c1856362224f76b0d266f6d2a2c634c" aspect_ratio="1" channels="1" frequency="16000" video_max="0" progressive="1" type="3" frame_size="1920x1080" file_size="52835843">
   <metaproperty tool="" name="meta.attr.0.stream.language">eng</metaproperty>
   <metaproperty tool="" name="meta.attr.1.stream.language">eng</metaproperty>
   <metaproperty tool="" name="meta.attr.compatible_brands">3gp43gp6</metaproperty>
   <metaproperty tool="" name="meta.attr.major_brand">3gp4</metaproperty>
   <metaproperty tool="" name="meta.attr.minor_version">768</metaproperty>
  </kdenlive_producer>
  <kdenlive_producer audio_max="63" id="170" pix_fmt="yuv420p" default_video="0" fps="30.0425" analysisdata="" name="video-2014-08-31-16-05-38.mp4" videocodecid="h264" colorspace="709" videocodec="H.264 / AVC / MPEG-4 AVC / MPEG-4 part 10" resource="/home/alex/Videos/EOTR Footage/video-2014-08-31-16-05-38.mp4" default_audio="1" audiocodec="AAC (Advanced Audio Coding)" duration="1136" file_hash="5c6daee76dba9b9bdcb5af7e4a3e6704" aspect_ratio="1" channels="1" frequency="16000" video_max="0" progressive="1" type="3" frame_size="1920x1080" file_size="80903219">
   <metaproperty tool="" name="meta.attr.0.stream.language">eng</metaproperty>
   <metaproperty tool="" name="meta.attr.1.stream.language">eng</metaproperty>
   <metaproperty tool="" name="meta.attr.compatible_brands">3gp43gp6</metaproperty>
   <metaproperty tool="" name="meta.attr.major_brand">3gp4</metaproperty>
   <metaproperty tool="" name="meta.attr.minor_version">768</metaproperty>
  </kdenlive_producer>
  <kdenlive_producer audio_max="63" id="171" pix_fmt="yuv420p" default_video="0" fps="30.0423" analysisdata="" name="video-2014-08-31-16-21-21.mp4" videocodecid="h264" colorspace="709" videocodec="H.264 / AVC / MPEG-4 AVC / MPEG-4 part 10" resource="/home/alex/Videos/EOTR Footage/video-2014-08-31-16-21-21.mp4" default_audio="1" audiocodec="AAC (Advanced Audio Coding)" duration="1446" file_hash="c1755c6778d4cc827e9805e766a8f636" aspect_ratio="1" channels="1" frequency="16000" video_max="0" progressive="1" type="3" frame_size="1920x1080" file_size="102970817">
   <metaproperty tool="" name="meta.attr.0.stream.language">eng</metaproperty>
   <metaproperty tool="" name="meta.attr.1.stream.language">eng</metaproperty>
   <metaproperty tool="" name="meta.attr.compatible_brands">3gp43gp6</metaproperty>
   <metaproperty tool="" name="meta.attr.major_brand">3gp4</metaproperty>
   <metaproperty tool="" name="meta.attr.minor_version">768</metaproperty>
  </kdenlive_producer>
  <kdenlive_producer audio_max="63" id="172" pix_fmt="yuv420p" default_video="0" fps="30.0424" analysisdata="" name="video-2014-08-31-16-22-53.mp4" videocodecid="h264" colorspace="709" videocodec="H.264 / AVC / MPEG-4 AVC / MPEG-4 part 10" resource="/home/alex/Videos/EOTR Footage/video-2014-08-31-16-22-53.mp4" default_audio="1" audiocodec="AAC (Advanced Audio Coding)" duration="1966" file_hash="e208b2bdc36b4673fd398974de09b79f" aspect_ratio="1" channels="1" frequency="16000" video_max="0" progressive="1" type="3" frame_size="1920x1080" file_size="139930492">
   <metaproperty tool="" name="meta.attr.0.stream.language">eng</metaproperty>
   <metaproperty tool="" name="meta.attr.1.stream.language">eng</metaproperty>
   <metaproperty tool="" name="meta.attr.compatible_brands">3gp43gp6</metaproperty>
   <metaproperty tool="" name="meta.attr.major_brand">3gp4</metaproperty>
   <metaproperty tool="" name="meta.attr.minor_version">768</metaproperty>
  </kdenlive_producer>
  <kdenlive_producer audio_max="63" id="173" pix_fmt="yuv420p" default_video="0" fps="30.0432" analysisdata="" name="video-2014-08-31-17-01-18.mp4" videocodecid="h264" colorspace="709" videocodec="H.264 / AVC / MPEG-4 AVC / MPEG-4 part 10" resource="/home/alex/Videos/EOTR Footage/video-2014-08-31-17-01-18.mp4" default_audio="1" audiocodec="AAC (Advanced Audio Coding)" duration="1227" file_hash="a93c12e1f5e128cebea963ace7f894db" aspect_ratio="1" channels="1" frequency="16000" video_max="0" progressive="1" type="3" frame_size="1920x1080" file_size="87319948">
   <metaproperty tool="" name="meta.attr.0.stream.language">eng</metaproperty>
   <metaproperty tool="" name="meta.attr.1.stream.language">eng</metaproperty>
   <metaproperty tool="" name="meta.attr.compatible_brands">3gp43gp6</metaproperty>
   <metaproperty tool="" name="meta.attr.major_brand">3gp4</metaproperty>
   <metaproperty tool="" name="meta.attr.minor_version">768</metaproperty>
  </kdenlive_producer>
  <kdenlive_producer audio_max="63" id="174" pix_fmt="yuv420p" default_video="0" fps="30.0431" analysisdata="" name="video-2014-08-31-17-52-09.mp4" videocodecid="h264" colorspace="709" videocodec="H.264 / AVC / MPEG-4 AVC / MPEG-4 part 10" resource="/home/alex/Videos/EOTR Footage/video-2014-08-31-17-52-09.mp4" default_audio="1" audiocodec="AAC (Advanced Audio Coding)" duration="883" file_hash="839435be405c7d1713144e34cc181a32" aspect_ratio="1" channels="1" frequency="16000" video_max="0" progressive="1" type="3" frame_size="1920x1080" file_size="62913125">
   <metaproperty tool="" name="meta.attr.0.stream.language">eng</metaproperty>
   <metaproperty tool="" name="meta.attr.1.stream.language">eng</metaproperty>
   <metaproperty tool="" name="meta.attr.compatible_brands">3gp43gp6</metaproperty>
   <metaproperty tool="" name="meta.attr.major_brand">3gp4</metaproperty>
   <metaproperty tool="" name="meta.attr.minor_version">768</metaproperty>
  </kdenlive_producer>
  <kdenlive_producer audio_max="63" id="175" pix_fmt="yuv420p" default_video="0" fps="30.0408" analysisdata="" name="video-2014-08-31-18-41-45.mp4" videocodecid="h264" colorspace="709" videocodec="H.264 / AVC / MPEG-4 AVC / MPEG-4 part 10" resource="/home/alex/Videos/EOTR Footage/video-2014-08-31-18-41-45.mp4" default_audio="1" audiocodec="AAC (Advanced Audio Coding)" duration="485" file_hash="82cc84abda47e177e00cccc484c95a02" aspect_ratio="1" channels="1" frequency="16000" video_max="0" progressive="1" type="3" frame_size="1920x1080" file_size="34505868">
   <metaproperty tool="" name="meta.attr.0.stream.language">eng</metaproperty>
   <metaproperty tool="" name="meta.attr.1.stream.language">eng</metaproperty>
   <metaproperty tool="" name="meta.attr.compatible_brands">3gp43gp6</metaproperty>
   <metaproperty tool="" name="meta.attr.major_brand">3gp4</metaproperty>
   <metaproperty tool="" name="meta.attr.minor_version">768</metaproperty>
  </kdenlive_producer>
  <kdenlive_producer audio_max="63" id="176" pix_fmt="yuv420p" default_video="0" fps="30.0406" analysisdata="" name="video-2014-08-31-18-58-36.mp4" videocodecid="h264" colorspace="709" videocodec="H.264 / AVC / MPEG-4 AVC / MPEG-4 part 10" resource="/home/alex/Videos/EOTR Footage/video-2014-08-31-18-58-36.mp4" default_audio="1" audiocodec="AAC (Advanced Audio Coding)" duration="671" file_hash="99823275ab26ab3f0f1c4f313df7532a" aspect_ratio="1" channels="1" frequency="16000" video_max="0" progressive="1" type="3" frame_size="1920x1080" file_size="47784762">
   <metaproperty tool="" name="meta.attr.0.stream.language">eng</metaproperty>
   <metaproperty tool="" name="meta.attr.1.stream.language">eng</metaproperty>
   <metaproperty tool="" name="meta.attr.compatible_brands">3gp43gp6</metaproperty>
   <metaproperty tool="" name="meta.attr.major_brand">3gp4</metaproperty>
   <metaproperty tool="" name="meta.attr.minor_version">768</metaproperty>
  </kdenlive_producer>
  <kdenlive_producer audio_max="63" id="177" pix_fmt="yuv420p" default_video="0" fps="25.2597" analysisdata="" name="video-2014-08-31-19-56-18.mp4" videocodecid="h264" colorspace="709" videocodec="H.264 / AVC / MPEG-4 AVC / MPEG-4 part 10" resource="/home/alex/Videos/EOTR Footage/video-2014-08-31-19-56-18.mp4" default_audio="1" audiocodec="AAC (Advanced Audio Coding)" duration="2732" file_hash="982af6b049e5724dc8503d96d768332c" aspect_ratio="1" channels="1" frequency="16000" video_max="0" progressive="1" type="3" frame_size="1920x1080" file_size="163797980">
   <metaproperty tool="" name="meta.attr.0.stream.language">eng</metaproperty>
   <metaproperty tool="" name="meta.attr.1.stream.language">eng</metaproperty>
   <metaproperty tool="" name="meta.attr.compatible_brands">3gp43gp6</metaproperty>
   <metaproperty tool="" name="meta.attr.major_brand">3gp4</metaproperty>
   <metaproperty tool="" name="meta.attr.minor_version">768</metaproperty>
  </kdenlive_producer>
  <kdenlive_producer audio_max="63" id="178" pix_fmt="yuv420p" default_video="0" fps="29.9888" analysisdata="" name="video-2014-08-31-20-08-22.mp4" videocodecid="h264" colorspace="709" videocodec="H.264 / AVC / MPEG-4 AVC / MPEG-4 part 10" resource="/home/alex/Videos/EOTR Footage/video-2014-08-31-20-08-22.mp4" default_audio="1" audiocodec="AAC (Advanced Audio Coding)" duration="826" file_hash="df530c66110cec0aebb4d335b1b81938" aspect_ratio="1" channels="1" frequency="16000" video_max="0" progressive="1" type="3" frame_size="1920x1080" file_size="58702454">
   <metaproperty tool="" name="meta.attr.0.stream.language">eng</metaproperty>
   <metaproperty tool="" name="meta.attr.1.stream.language">eng</metaproperty>
   <metaproperty tool="" name="meta.attr.compatible_brands">3gp43gp6</metaproperty>
   <metaproperty tool="" name="meta.attr.major_brand">3gp4</metaproperty>
   <metaproperty tool="" name="meta.attr.minor_version">768</metaproperty>
  </kdenlive_producer>
  <kdenlive_producer audio_max="63" id="179" pix_fmt="yuv420p" default_video="0" fps="23.9816" analysisdata="" name="video-2014-08-31-20-13-06.mp4" videocodecid="h264" colorspace="709" videocodec="H.264 / AVC / MPEG-4 AVC / MPEG-4 part 10" resource="/home/alex/Videos/EOTR Footage/video-2014-08-31-20-13-06.mp4" default_audio="1" audiocodec="AAC (Advanced Audio Coding)" duration="481" file_hash="ea13405e777a752c8836f8e16a8f9c4e" aspect_ratio="1" channels="1" frequency="16000" video_max="0" progressive="1" type="3" frame_size="1920x1080" file_size="26859148">
   <metaproperty tool="" name="meta.attr.0.stream.language">eng</metaproperty>
   <metaproperty tool="" name="meta.attr.1.stream.language">eng</metaproperty>
   <metaproperty tool="" name="meta.attr.compatible_brands">3gp43gp6</metaproperty>
   <metaproperty tool="" name="meta.attr.major_brand">3gp4</metaproperty>
   <metaproperty tool="" name="meta.attr.minor_version">768</metaproperty>
  </kdenlive_producer>
  <kdenlive_producer audio_max="63" id="180" pix_fmt="yuv420p" default_video="0" fps="24.1672" analysisdata="" name="video-2014-08-31-20-19-02.mp4" videocodecid="h264" colorspace="709" videocodec="H.264 / AVC / MPEG-4 AVC / MPEG-4 part 10" resource="/home/alex/Videos/EOTR Footage/video-2014-08-31-20-19-02.mp4" default_audio="1" audiocodec="AAC (Advanced Audio Coding)" duration="1304" file_hash="c4944f487b7075fe8dbeed57afb70c30" aspect_ratio="1" channels="1" frequency="16000" video_max="0" progressive="1" type="3" frame_size="1920x1080" file_size="74848102">
   <metaproperty tool="" name="meta.attr.0.stream.language">eng</metaproperty>
   <metaproperty tool="" name="meta.attr.1.stream.language">eng</metaproperty>
   <metaproperty tool="" name="meta.attr.compatible_brands">3gp43gp6</metaproperty>
   <metaproperty tool="" name="meta.attr.major_brand">3gp4</metaproperty>
   <metaproperty tool="" name="meta.attr.minor_version">768</metaproperty>
  </kdenlive_producer>
  <kdenlive_producer audio_max="63" id="181" pix_fmt="yuv420p" default_video="0" fps="22.9869" analysisdata="" name="video-2014-08-31-20-29-02.mp4" videocodecid="h264" colorspace="709" videocodec="H.264 / AVC / MPEG-4 AVC / MPEG-4 part 10" resource="/home/alex/Videos/EOTR Footage/video-2014-08-31-20-29-02.mp4" default_audio="1" audiocodec="AAC (Advanced Audio Coding)" duration="417" file_hash="a1724016e24414ac57c6b1ed13610f29" aspect_ratio="1" channels="1" frequency="16000" video_max="0" progressive="1" type="3" frame_size="1920x1080" file_size="22700242">
   <metaproperty tool="" name="meta.attr.0.stream.language">eng</metaproperty>
   <metaproperty tool="" name="meta.attr.1.stream.language">eng</metaproperty>
   <metaproperty tool="" name="meta.attr.compatible_brands">3gp43gp6</metaproperty>
   <metaproperty tool="" name="meta.attr.major_brand">3gp4</metaproperty>
   <metaproperty tool="" name="meta.attr.minor_version">768</metaproperty>
  </kdenlive_producer>
  <kdenlive_producer audio_max="63" id="182" pix_fmt="yuv420p" default_video="0" fps="24.0445" analysisdata="" name="video-2014-08-31-20-29-22.mp4" videocodecid="h264" thumbnail="100" colorspace="709" videocodec="H.264 / AVC / MPEG-4 AVC / MPEG-4 part 10" resource="/home/alex/Videos/EOTR Footage/video-2014-08-31-20-29-22.mp4" default_audio="1" audiocodec="AAC (Advanced Audio Coding)" duration="522" file_hash="9e55d047ef408da9a44d29bc73416537" aspect_ratio="1" channels="1" frequency="16000" video_max="0" progressive="1" type="3" frame_size="1920x1080" file_size="29080500">
   <metaproperty tool="" name="meta.attr.0.stream.language">eng</metaproperty>
   <metaproperty tool="" name="meta.attr.1.stream.language">eng</metaproperty>
   <metaproperty tool="" name="meta.attr.compatible_brands">3gp43gp6</metaproperty>
   <metaproperty tool="" name="meta.attr.major_brand">3gp4</metaproperty>
   <metaproperty tool="" name="meta.attr.minor_version">768</metaproperty>
  </kdenlive_producer>
  <kdenlive_producer audio_max="63" id="183" pix_fmt="yuv420p" default_video="0" fps="23.6766" analysisdata="" name="video-2014-08-31-20-32-30.mp4" videocodecid="h264" colorspace="709" videocodec="H.264 / AVC / MPEG-4 AVC / MPEG-4 part 10" resource="/home/alex/Videos/EOTR Footage/video-2014-08-31-20-32-30.mp4" default_audio="1" audiocodec="AAC (Advanced Audio Coding)" duration="896" file_hash="ecf4c5465df92df77ada4c513ae3b4d3" aspect_ratio="1" channels="1" frequency="16000" video_max="0" progressive="1" type="3" frame_size="1920x1080" file_size="50114731">
   <metaproperty tool="" name="meta.attr.0.stream.language">eng</metaproperty>
   <metaproperty tool="" name="meta.attr.1.stream.language">eng</metaproperty>
   <metaproperty tool="" name="meta.attr.compatible_brands">3gp43gp6</metaproperty>
   <metaproperty tool="" name="meta.attr.major_brand">3gp4</metaproperty>
   <metaproperty tool="" name="meta.attr.minor_version">768</metaproperty>
  </kdenlive_producer>
  <kdenlive_producer audio_max="63" id="184" pix_fmt="yuv420p" default_video="1" fps="24.1807" analysisdata="" name="video-2014-08-31-20-51-30.mp4" videocodecid="h264" colorspace="709" videocodec="H.264 / AVC / MPEG-4 AVC / MPEG-4 part 10" resource="/home/alex/Videos/EOTR Footage/video-2014-08-31-20-51-30.mp4" default_audio="0" audiocodec="AAC (Advanced Audio Coding)" duration="994" file_hash="1bb50aa5657c7277257320a4e0ce362c" aspect_ratio="1" channels="1" frequency="16000" video_max="1" progressive="1" type="3" frame_size="1920x1080" file_size="56494261">
   <metaproperty tool="" name="meta.attr.0.stream.language">eng</metaproperty>
   <metaproperty tool="" name="meta.attr.1.stream.language">eng</metaproperty>
   <metaproperty tool="" name="meta.attr.compatible_brands">3gp43gp6</metaproperty>
   <metaproperty tool="" name="meta.attr.major_brand">3gp4</metaproperty>
   <metaproperty tool="" name="meta.attr.minor_version">768</metaproperty>
  </kdenlive_producer>
  <kdenlive_producer audio_max="48" id="185" pix_fmt="yuv420p" default_video="0" fps="23.3437" analysisdata="" name="video-2014-08-31-20-55-05.mp4" videocodecid="h264" colorspace="709" videocodec="H.264 / AVC / MPEG-4 AVC / MPEG-4 part 10" resource="/home/alex/Videos/EOTR Footage/video-2014-08-31-20-55-05.mp4" default_audio="1" audiocodec="AAC (Advanced Audio Coding)" duration="269" file_hash="997051ea90a507d503e8cd2b86f3ec28" aspect_ratio="1" channels="1" frequency="16000" video_max="0" progressive="1" type="3" frame_size="1920x1080" file_size="14127344">
   <metaproperty tool="" name="meta.attr.0.stream.language">eng</metaproperty>
   <metaproperty tool="" name="meta.attr.1.stream.language">eng</metaproperty>
   <metaproperty tool="" name="meta.attr.compatible_brands">3gp43gp6</metaproperty>
   <metaproperty tool="" name="meta.attr.major_brand">3gp4</metaproperty>
   <metaproperty tool="" name="meta.attr.minor_version">768</metaproperty>
  </kdenlive_producer>
  <kdenlive_producer audio_max="63" audiocodec="FLAC (Free Lossless Audio Codec)" channels="2" duration="7450" frame_size="1920x1080" frequency="44100" analysisdata="" file_size="43969910" aspect_ratio="0" file_hash="56fa401718411098c143027338cf24b1" type="1" id="186" name="2-01 Race for the Prize (Remix).flac" resource="/home/alex/Downloads/The Soft Bulletin Complete/Remixes/2-01 Race for the Prize (Remix).flac">
   <metaproperty tool="" name="meta.attr.ALBUM">The Soft Bulletin</metaproperty>
   <metaproperty tool="" name="meta.attr.ARTIST">The Flaming Lips</metaproperty>
   <metaproperty tool="" name="meta.attr.DATE">1999</metaproperty>
   <metaproperty tool="" name="meta.attr.ENCODER">X Lossless Decoder 20140504</metaproperty>
   <metaproperty tool="" name="meta.attr.GENRE">Psychedelic Pop</metaproperty>
   <metaproperty tool="" name="meta.attr.TITLE">Race for the Prize (Remix)</metaproperty>
   <metaproperty tool="" name="meta.attr.disc">2</metaproperty>
   <metaproperty tool="" name="meta.attr.track">1</metaproperty>
  </kdenlive_producer>
  <kdenlive_producer audio_max="53" id="1" pix_fmt="yuv420p" default_video="0" fps="29.9444" analysisdata="" name="20140828_132933.mp4" videocodecid="h264" colorspace="709" videocodec="H.264 / AVC / MPEG-4 AVC / MPEG-4 part 10" resource="/home/alex/Videos/EOTR Footage/20140828_132933.mp4" default_audio="1" audiocodec="AAC (Advanced Audio Coding)" duration="958" file_hash="431c5273770133ee51e0bf5195f91f8d" aspect_ratio="1" channels="2" frequency="48000" video_max="0" progressive="1" type="3" frame_size="1920x1080" file_size="68025904">
   <metaproperty tool="" name="meta.attr.0.stream.creation_time">2014-08-28 12:30:06</metaproperty>
   <metaproperty tool="" name="meta.attr.0.stream.language">eng</metaproperty>
   <metaproperty tool="" name="meta.attr.1.stream.creation_time">2014-08-28 12:30:06</metaproperty>
   <metaproperty tool="" name="meta.attr.1.stream.language">eng</metaproperty>
   <metaproperty tool="" name="meta.attr.compatible_brands">isom3gp4</metaproperty>
   <metaproperty tool="" name="meta.attr.creation_time">2014-08-28 12:30:06</metaproperty>
   <metaproperty tool="" name="meta.attr.major_brand">isom</metaproperty>
   <metaproperty tool="" name="meta.attr.minor_version">0</metaproperty>
  </kdenlive_producer>
  <markers/>
  <guides>
   <guide comment="Kick in" time="201.5680333333333"/>
  </guides>
  <groups/>
 </kdenlivedoc>
</mlt>
